<?xml version="1.0" encoding="UTF-8" standalone="no"?>
<!-- Created with Inkscape (http://www.inkscape.org/) -->

<svg
   xmlns:dc="http://purl.org/dc/elements/1.1/"
   xmlns:cc="http://creativecommons.org/ns#"
   xmlns:rdf="http://www.w3.org/1999/02/22-rdf-syntax-ns#"
   xmlns:svg="http://www.w3.org/2000/svg"
   xmlns="http://www.w3.org/2000/svg"
   xmlns:sodipodi="http://sodipodi.sourceforge.net/DTD/sodipodi-0.dtd"
   xmlns:inkscape="http://www.inkscape.org/namespaces/inkscape"
   width="117.59007mm"
   height="141.11111mm"
   viewBox="0 0 416.65771 500.00001"
   id="svg17250"
   version="1.1"
   inkscape:version="0.91 r13725"
   sodipodi:docname="EFL Championship badge.svg">
  <defs
     id="defs17252" />
  <sodipodi:namedview
     id="base"
     pagecolor="#ffffff"
     bordercolor="#666666"
     borderopacity="1.0"
     inkscape:pageopacity="0.0"
     inkscape:pageshadow="2"
     inkscape:zoom="1.326"
     inkscape:cx="208.32887"
     inkscape:cy="250.00001"
     inkscape:document-units="px"
     inkscape:current-layer="layer1"
     showgrid="false"
     fit-margin-top="0"
     fit-margin-left="0"
     fit-margin-right="0"
     fit-margin-bottom="0"
     inkscape:window-width="1600"
     inkscape:window-height="838"
     inkscape:window-x="-8"
     inkscape:window-y="-8"
     inkscape:window-maximized="1" />
  <metadata
     id="metadata17255">
    <rdf:RDF>
      <cc:Work
         rdf:about="">
        <dc:format>image/svg+xml</dc:format>
        <dc:type
           rdf:resource="http://purl.org/dc/dcmitype/StillImage" />
        <dc:title></dc:title>
      </cc:Work>
    </rdf:RDF>
  </metadata>
  <g
     inkscape:label="Calque 1"
     inkscape:groupmode="layer"
     id="layer1"
     transform="translate(-125.38582,-340.18808)">
    <g
       style="clip-rule:evenodd;fill-rule:evenodd;image-rendering:optimizeQuality;shape-rendering:geometricPrecision;text-rendering:geometricPrecision"
       transform="matrix(13.418137,0,0,-13.418136,-7935.7638,6323.389)"
       id="g24360">
      <g
         id="g24293">
        <path
           inkscape:connector-curvature="0"
           id="path10692"
           style="fill:#ffffff;fill-opacity:1;fill-rule:nonzero;stroke:none"
           d="m 616.3233,408.64103 c -7.193,0 -13.045,5.939 -13.045,13.238 0,0.089 0.003,18.742 0.004,21.981 l 0,2.044 26.08199,0 0,-2.044 c 0.002,-3.215 0.005,-21.86 0.005,-21.981 0,-7.299 -5.85299,-13.238 -13.04599,-13.238" />
        <path
           inkscape:connector-curvature="0"
           id="path10696"
           style="fill:#a69038;fill-opacity:1;fill-rule:nonzero;stroke:none"
           d="m 616.3233,410.11743 c -6.379,0 -11.568,5.276 -11.568,11.762 0,0.233 0.002,19.469 0.003,22.549 l 23.12999,0 c 8e-4,-3.08 0.004,-22.316 0.004,-22.549 0,-6.486 -5.18999,-11.762 -11.56899,-11.762 m 12.30399,33.742 -8e-4,1.307 -24.60599,0 0,-1.307 c -9.6e-4,-3.263 -0.003,-21.893 -0.003,-21.98 0,-6.893 5.52,-12.5 12.306,-12.5 6.786,0 12.30699,5.607 12.30699,12.5 0,0.122 -0.002,18.79 -0.003,21.98" />
        <path
           inkscape:connector-curvature="0"
           id="path10700"
           style="fill:#a69038;fill-opacity:1;fill-rule:nonzero;stroke:none"
           d="m 605.8649,430.65783 0,0.724 c 0,0.519 0.26,0.767 0.824,0.767 0.169,0 0.365,-0.025 0.489,-0.064 0.042,-0.015 0.051,-0.035 0.051,-0.077 l 0,-0.232 c 0,-0.051 -0.02,-0.062 -0.082,-0.046 -0.102,0.026 -0.266,0.051 -0.399,0.051 -0.314,0 -0.439,-0.135 -0.439,-0.449 l 0,-0.64 c 0,-0.317 0.116,-0.445 0.444,-0.445 0.162,0 0.329,0.04 0.445,0.085 0.028,0.012 0.074,-0.002 0.062,-0.05 l -0.045,-0.252 c -0.008,-0.048 -0.028,-0.065 -0.065,-0.08 -0.119,-0.042 -0.28,-0.067 -0.473,-0.067 -0.585,0 -0.812,0.223 -0.812,0.775" />
        <path
           inkscape:connector-curvature="0"
           id="path10704"
           style="fill:#a69038;fill-opacity:1;fill-rule:nonzero;stroke:none"
           d="m 609.1054,432.07003 0,-2.109 c 0,-0.033 -0.017,-0.048 -0.054,-0.048 l -0.048,0 c -0.218,0 -0.342,0.114 -0.342,0.36 l 0,0.577 -0.671,0 0,-0.889 c 0,-0.033 -0.017,-0.048 -0.054,-0.048 l -0.048,0 c -0.218,0 -0.342,0.114 -0.342,0.36 l 0,1.791 c 0,0.046 0.011,0.054 0.051,0.054 l 0.345,0 c 0.034,0 0.048,-0.014 0.048,-0.048 l 0,-0.866 0.671,0 0,0.866 c 0,0.031 0.014,0.048 0.048,0.048 l 0.345,0 c 0.037,0 0.051,-0.014 0.051,-0.048" />
        <path
           inkscape:connector-curvature="0"
           id="path10708"
           style="fill:#a69038;fill-opacity:1;fill-rule:nonzero;stroke:none"
           d="m 610.4894,430.69463 c -0.062,0.328 -0.164,0.727 -0.252,1.064 l -0.02,0 c -0.084,-0.337 -0.187,-0.736 -0.246,-1.064 l 0.518,0 z m -1.143,-0.727 c 0.195,0.75 0.387,1.486 0.574,2.069 0.017,0.056 0.054,0.081 0.122,0.081 l 0.368,0 c 0.079,0 0.107,-0.025 0.124,-0.081 0.184,-0.583 0.382,-1.319 0.578,-2.072 0.008,-0.037 -0.006,-0.051 -0.048,-0.051 l -0.331,0 c -0.046,0 -0.074,0.02 -0.08,0.048 l -0.084,0.385 -0.672,0 c -0.031,-0.131 -0.056,-0.258 -0.084,-0.391 -0.006,-0.025 -0.032,-0.042 -0.068,-0.042 l -0.351,0 c -0.045,0 -0.057,0.02 -0.048,0.054" />
        <path
           inkscape:connector-curvature="0"
           id="path10712"
           style="fill:#a69038;fill-opacity:1;fill-rule:nonzero;stroke:none"
           d="m 611.3383,429.96153 c 0,0.595 0.025,1.418 0.068,2.106 0.003,0.031 0.02,0.051 0.051,0.051 l 0.34,0 c 0.042,0 0.056,-0.006 0.076,-0.043 l 0.532,-1.084 0.012,0 0.497,1.084 c 0.02,0.037 0.032,0.043 0.077,0.043 l 0.339,0 c 0.031,0 0.046,-0.02 0.049,-0.051 0.05,-0.688 0.082,-1.511 0.082,-2.106 0,-0.031 -0.014,-0.048 -0.051,-0.048 l -0.325,0 c -0.037,0 -0.055,0.014 -0.055,0.048 0,0.521 -0.005,1.084 -0.022,1.483 l -0.02,0 -0.43,-0.931 c -0.02,-0.034 -0.043,-0.057 -0.082,-0.057 l -0.139,0 c -0.039,0 -0.062,0.023 -0.082,0.057 l -0.456,0.931 -0.02,0 c -0.011,-0.399 -0.011,-0.931 -0.011,-1.483 0,-0.034 -0.017,-0.048 -0.054,-0.048 l -0.325,0 c -0.037,0 -0.051,0.017 -0.051,0.048" />
        <path
           inkscape:connector-curvature="0"
           id="path10716"
           style="fill:#a69038;fill-opacity:1;fill-rule:nonzero;stroke:none"
           d="m 614.7912,431.43613 c 0,0.133 -0.031,0.212 -0.085,0.26 -0.062,0.054 -0.136,0.068 -0.291,0.068 l -0.162,0 0,-0.716 0.142,0 c 0.175,0 0.255,0.017 0.317,0.077 0.054,0.051 0.079,0.139 0.079,0.288 l 0,0.023 z m 0.45,0.003 0,-0.031 c 0,-0.258 -0.071,-0.444 -0.218,-0.56 -0.127,-0.103 -0.311,-0.154 -0.558,-0.154 l -0.212,0 0,-0.733 c 0,-0.033 -0.017,-0.048 -0.054,-0.048 l -0.048,0 c -0.218,0 -0.342,0.113 -0.342,0.36 l 0,1.788 c 0,0.043 0.014,0.057 0.062,0.057 l 0.594,0 c 0.272,0 0.448,-0.042 0.566,-0.136 0.128,-0.099 0.21,-0.26 0.21,-0.543" />
        <path
           inkscape:connector-curvature="0"
           id="path10720"
           style="fill:#a69038;fill-opacity:1;fill-rule:nonzero;stroke:none"
           d="m 615.3884,429.96153 0,0.224 c 0,0.031 0.017,0.048 0.048,0.048 l 0.224,0 0,1.565 -0.224,0 c -0.034,0 -0.048,0.017 -0.048,0.048 l 0,0.221 c 0,0.033 0.017,0.051 0.051,0.051 l 0.908,0 c 0.034,0 0.057,-0.011 0.048,-0.051 l -0.028,-0.221 c -0.005,-0.037 -0.023,-0.048 -0.059,-0.048 l -0.201,0 0,-1.565 0.221,0 c 0.031,0 0.045,-0.012 0.045,-0.048 l 0,-0.224 c 0,-0.031 -0.017,-0.048 -0.051,-0.048 l -0.886,0 c -0.028,0 -0.048,0.017 -0.048,0.048" />
        <path
           inkscape:connector-curvature="0"
           id="path10724"
           style="fill:#a69038;fill-opacity:1;fill-rule:nonzero;stroke:none"
           d="m 617.7204,430.33513 c 0.068,0.068 0.105,0.187 0.105,0.328 l 0,0.705 c 0,0.162 -0.04,0.26 -0.108,0.328 -0.057,0.057 -0.149,0.085 -0.26,0.085 -0.111,0 -0.207,-0.028 -0.264,-0.085 -0.068,-0.068 -0.104,-0.166 -0.104,-0.328 l 0,-0.705 c 0,-0.141 0.036,-0.26 0.104,-0.328 0.057,-0.056 0.153,-0.085 0.264,-0.085 0.111,0 0.207,0.029 0.263,0.085 m -0.86,-0.266 c -0.139,0.122 -0.215,0.306 -0.215,0.549 l 0,0.796 c 0,0.277 0.104,0.478 0.285,0.6 0.136,0.09 0.314,0.135 0.527,0.135 0.22,0 0.407,-0.051 0.546,-0.15 0.167,-0.121 0.266,-0.317 0.266,-0.585 l 0,-0.796 c 0,-0.269 -0.093,-0.464 -0.263,-0.586 -0.136,-0.099 -0.323,-0.15 -0.549,-0.15 -0.252,0 -0.456,0.062 -0.597,0.187" />
        <path
           inkscape:connector-curvature="0"
           id="path10728"
           style="fill:#a69038;fill-opacity:1;fill-rule:nonzero;stroke:none"
           d="m 620.2224,432.07003 0,-2.109 c 0,-0.03 -0.023,-0.048 -0.054,-0.048 l -0.221,0 c -0.062,0 -0.09,0.026 -0.11,0.06 l -0.787,1.361 -0.017,0 0,-1.373 c 0,-0.033 -0.017,-0.048 -0.054,-0.048 l -0.019,0 c -0.201,0 -0.317,0.114 -0.317,0.36 l 0,1.797 c 0,0.031 0.011,0.048 0.045,0.048 l 0.249,0 c 0.051,0 0.079,-0.02 0.096,-0.059 l 0.782,-1.344 0.016,0 0,1.355 c 0,0.034 0.015,0.048 0.046,0.048 l 0.294,0 c 0.037,0 0.051,-0.014 0.051,-0.048" />
        <path
           inkscape:connector-curvature="0"
           id="path10732"
           style="fill:#a69038;fill-opacity:1;fill-rule:nonzero;stroke:none"
           d="m 620.6638,429.95313 c -0.051,0.017 -0.06,0.04 -0.068,0.076 l -0.054,0.286 c -0.005,0.04 0.023,0.054 0.071,0.034 0.113,-0.048 0.311,-0.099 0.473,-0.099 0.246,0 0.376,0.099 0.376,0.269 l 0,0.014 c 0,0.153 -0.07,0.247 -0.286,0.323 l -0.136,0.048 c -0.288,0.102 -0.464,0.3 -0.464,0.623 l 0,0.02 c 0,0.401 0.312,0.602 0.75,0.602 0.13,0 0.283,-0.022 0.385,-0.054 0.051,-0.016 0.057,-0.039 0.057,-0.079 l 0,-0.226 c 0,-0.048 -0.034,-0.059 -0.085,-0.048 -0.099,0.022 -0.215,0.039 -0.34,0.039 -0.198,0 -0.331,-0.062 -0.331,-0.241 l 0,-0.011 c 0,-0.155 0.068,-0.234 0.244,-0.297 l 0.149,-0.056 c 0.34,-0.128 0.485,-0.303 0.485,-0.617 l 0,-0.029 c 0,-0.39 -0.281,-0.648 -0.759,-0.648 -0.153,0 -0.345,0.028 -0.467,0.071" />
        <path
           inkscape:connector-curvature="0"
           id="path10736"
           style="fill:#a69038;fill-opacity:1;fill-rule:nonzero;stroke:none"
           d="m 623.7374,432.07003 0,-2.109 c 0,-0.033 -0.017,-0.048 -0.054,-0.048 l -0.048,0 c -0.218,0 -0.342,0.114 -0.342,0.36 l 0,0.577 -0.671,0 0,-0.889 c 0,-0.033 -0.017,-0.048 -0.054,-0.048 l -0.048,0 c -0.218,0 -0.342,0.114 -0.342,0.36 l 0,1.791 c 0,0.046 0.011,0.054 0.051,0.054 l 0.345,0 c 0.034,0 0.048,-0.014 0.048,-0.048 l 0,-0.866 0.671,0 0,0.866 c 0,0.031 0.014,0.048 0.048,0.048 l 0.345,0 c 0.037,0 0.051,-0.014 0.051,-0.048" />
        <path
           inkscape:connector-curvature="0"
           id="path10740"
           style="fill:#a69038;fill-opacity:1;fill-rule:nonzero;stroke:none"
           d="m 624.0487,429.96153 0,0.224 c 0,0.031 0.017,0.048 0.048,0.048 l 0.224,0 0,1.565 -0.224,0 c -0.034,0 -0.048,0.017 -0.048,0.048 l 0,0.221 c 0,0.033 0.017,0.051 0.051,0.051 l 0.908,0 c 0.034,0 0.057,-0.011 0.048,-0.051 l -0.028,-0.221 c -0.005,-0.037 -0.023,-0.048 -0.059,-0.048 l -0.201,0 0,-1.565 0.221,0 c 0.031,0 0.045,-0.012 0.045,-0.048 l 0,-0.224 c 0,-0.031 -0.017,-0.048 -0.051,-0.048 l -0.886,0 c -0.028,0 -0.048,0.017 -0.048,0.048" />
        <path
           inkscape:connector-curvature="0"
           id="path10744"
           style="fill:#a69038;fill-opacity:1;fill-rule:nonzero;stroke:none"
           d="m 626.3326,431.43613 c 0,0.133 -0.031,0.212 -0.085,0.26 -0.062,0.054 -0.136,0.068 -0.291,0.068 l -0.162,0 0,-0.716 0.142,0 c 0.175,0 0.255,0.017 0.317,0.077 0.054,0.051 0.079,0.139 0.079,0.288 l 0,0.023 z m 0.45,0.003 0,-0.031 c 0,-0.258 -0.071,-0.444 -0.218,-0.56 -0.127,-0.103 -0.311,-0.154 -0.558,-0.154 l -0.212,0 0,-0.733 c 0,-0.033 -0.017,-0.048 -0.054,-0.048 l -0.048,0 c -0.218,0 -0.342,0.113 -0.342,0.36 l 0,1.788 c 0,0.043 0.014,0.057 0.062,0.057 l 0.594,0 c 0.272,0 0.448,-0.042 0.566,-0.136 0.128,-0.099 0.21,-0.26 0.21,-0.543" />
        <path
           inkscape:connector-curvature="0"
           id="path10748"
           style="fill:#a69038;fill-opacity:1;fill-rule:nonzero;stroke:none"
           d="m 605.8631,428.80843 c 0,-0.089 0.072,-0.161 0.161,-0.161 l 20.59899,0 c 0.089,0 0.161,0.072 0.161,0.161 0,0.089 -0.072,0.161 -0.161,0.161 l -20.59899,0 c -0.089,0 -0.161,-0.072 -0.161,-0.161" />
        <path
           inkscape:connector-curvature="0"
           id="path10752"
           style="fill:#293f9c;fill-opacity:1;fill-rule:nonzero;stroke:none"
           d="m 620.2024,412.85903 0,0.839 -1.127,0 0,2.8 -0.904,0 0,-3.077 c 0,-0.311 0.251,-0.562 0.562,-0.562 l 1.469,0 z m -7.609,0.562 c 0,-0.311 0.252,-0.562 0.562,-0.562 l 1.628,0 0,0.839 -1.285,0 0,0.566 1.181,0 0,0.847 -1.181,0 0,0.543 1.291,0 0,0.844 -2.196,0 0,-3.077 z m 3.371,-0.562 c -0.31,0 -0.561,0.251 -0.561,0.562 l 0,3.077 2.206,0 0,-0.844 -1.301,0 0,-0.543 1.181,0 0,-0.847 -1.181,0 0,-1.405 -0.344,0 z" />
        <path
           inkscape:connector-curvature="0"
           id="path10756"
           style="fill:#a69038;fill-opacity:1;fill-rule:nonzero;stroke:none"
           d="m 617.9279,423.38783 c -0.38,0 -0.688,-0.308 -0.688,-0.688 0,-0.38 0.308,-0.687 0.688,-0.687 0.38,0 0.688,0.307 0.688,0.687 0,0.38 -0.308,0.688 -0.688,0.688" />
        <path
           inkscape:connector-curvature="0"
           id="path10760"
           style="fill:#a69038;fill-opacity:1;fill-rule:nonzero;stroke:none"
           d="m 617.1373,424.58063 c -0.339,0 -0.614,-0.275 -0.614,-0.614 0,-0.339 0.275,-0.614 0.614,-0.614 0.339,0 0.614,0.275 0.614,0.614 0,0.339 -0.275,0.614 -0.614,0.614" />
        <path
           inkscape:connector-curvature="0"
           id="path10764"
           style="fill:#a69038;fill-opacity:1;fill-rule:nonzero;stroke:none"
           d="m 618.3584,425.20953 c -0.332,0 -0.6,-0.269 -0.6,-0.6 0,-0.331 0.268,-0.6 0.6,-0.6 0.332,0 0.6,0.269 0.6,0.6 0,0.331 -0.269,0.6 -0.6,0.6" />
        <path
           inkscape:connector-curvature="0"
           id="path10768"
           style="fill:#a69038;fill-opacity:1;fill-rule:nonzero;stroke:none"
           d="m 616.3112,425.43533 c -0.281,0 -0.509,-0.228 -0.509,-0.509 0,-0.281 0.228,-0.509 0.509,-0.509 0.281,0 0.509,0.228 0.509,0.509 0,0.281 -0.228,0.509 -0.509,0.509" />
        <path
           inkscape:connector-curvature="0"
           id="path10772"
           style="fill:#a69038;fill-opacity:1;fill-rule:nonzero;stroke:none"
           d="m 615.3898,425.85813 c -0.232,0 -0.42,-0.188 -0.421,-0.421 0,-0.232 0.189,-0.419 0.421,-0.419 0.232,0 0.42,0.187 0.42,0.419 0,0.233 -0.188,0.421 -0.42,0.421" />
        <path
           inkscape:connector-curvature="0"
           id="path10776"
           style="fill:#a69038;fill-opacity:1;fill-rule:nonzero;stroke:none"
           d="m 614.5322,425.96443 c -0.183,0 -0.332,-0.149 -0.332,-0.332 0,-0.184 0.149,-0.333 0.332,-0.333 0.183,0 0.332,0.149 0.332,0.333 0,0.183 -0.149,0.332 -0.332,0.332" />
        <path
           inkscape:connector-curvature="0"
           id="path10780"
           style="fill:#a69038;fill-opacity:1;fill-rule:nonzero;stroke:none"
           d="m 615.5852,426.56393 c -0.176,0 -0.318,-0.143 -0.318,-0.319 0,-0.176 0.142,-0.318 0.318,-0.318 0.176,0 0.318,0.142 0.318,0.318 0,0.176 -0.142,0.319 -0.318,0.319" />
        <path
           inkscape:connector-curvature="0"
           id="path10784"
           style="fill:#a69038;fill-opacity:1;fill-rule:nonzero;stroke:none"
           d="m 616.3836,427.17073 c -0.173,0 -0.313,-0.14 -0.313,-0.313 0,-0.173 0.14,-0.313 0.313,-0.313 0.173,0 0.313,0.14 0.313,0.313 0,0.173 -0.14,0.313 -0.313,0.313" />
        <path
           inkscape:connector-curvature="0"
           id="path10788"
           style="fill:#a69038;fill-opacity:1;fill-rule:nonzero;stroke:none"
           d="m 615.6834,427.12533 c -0.136,0 -0.248,-0.111 -0.248,-0.248 0,-0.136 0.112,-0.247 0.248,-0.247 0.136,0 0.247,0.111 0.247,0.247 0,0.137 -0.111,0.248 -0.247,0.248" />
        <path
           inkscape:connector-curvature="0"
           id="path10792"
           style="fill:#a69038;fill-opacity:1;fill-rule:nonzero;stroke:none"
           d="m 615.0791,426.99623 c -0.124,0 -0.224,-0.101 -0.224,-0.224 0,-0.124 0.1,-0.225 0.224,-0.225 0.124,0 0.224,0.101 0.224,0.225 0,0.123 -0.1,0.224 -0.224,0.224" />
        <path
           inkscape:connector-curvature="0"
           id="path10796"
           style="fill:#a69038;fill-opacity:1;fill-rule:nonzero;stroke:none"
           d="m 614.7972,426.50813 c -0.133,0 -0.241,-0.108 -0.241,-0.241 0,-0.134 0.108,-0.241 0.241,-0.241 0.133,0 0.241,0.107 0.241,0.241 0,0.133 -0.108,0.241 -0.241,0.241" />
        <path
           inkscape:connector-curvature="0"
           id="path10800"
           style="fill:#a69038;fill-opacity:1;fill-rule:nonzero;stroke:none"
           d="m 614.0212,426.44333 c -0.122,0 -0.221,-0.099 -0.221,-0.221 0,-0.122 0.099,-0.221 0.221,-0.221 0.122,0 0.221,0.099 0.221,0.221 0,0.122 -0.099,0.221 -0.221,0.221" />
        <path
           inkscape:connector-curvature="0"
           id="path10804"
           style="fill:#a69038;fill-opacity:1;fill-rule:nonzero;stroke:none"
           d="m 614.3881,426.74953 c -0.091,0 -0.165,-0.074 -0.165,-0.165 0,-0.091 0.074,-0.165 0.165,-0.165 0.091,0 0.165,0.074 0.165,0.165 0,0.091 -0.074,0.165 -0.165,0.165" />
        <path
           inkscape:connector-curvature="0"
           id="path10808"
           style="fill:#a69038;fill-opacity:1;fill-rule:nonzero;stroke:none"
           d="m 613.4881,426.21243 c -0.085,0 -0.153,-0.069 -0.153,-0.152 0,-0.085 0.068,-0.153 0.153,-0.153 0.085,0 0.152,0.068 0.152,0.153 0,0.083 -0.067,0.152 -0.152,0.152" />
        <path
           inkscape:connector-curvature="0"
           id="path10812"
           style="fill:#a69038;fill-opacity:1;fill-rule:nonzero;stroke:none"
           d="m 613.779,425.91923 c -0.147,0 -0.266,-0.119 -0.266,-0.266 0,-0.147 0.119,-0.266 0.266,-0.266 0.147,0 0.266,0.119 0.266,0.266 0,0.147 -0.119,0.266 -0.266,0.266" />
        <path
           inkscape:connector-curvature="0"
           id="path10816"
           style="fill:#a69038;fill-opacity:1;fill-rule:nonzero;stroke:none"
           d="m 613.1264,425.83793 c -0.114,0 -0.207,-0.093 -0.207,-0.207 0,-0.115 0.093,-0.207 0.207,-0.207 0.114,0 0.207,0.092 0.207,0.207 0,0.114 -0.093,0.207 -0.207,0.207" />
        <path
           inkscape:connector-curvature="0"
           id="path10820"
           style="fill:#a69038;fill-opacity:1;fill-rule:nonzero;stroke:none"
           d="m 612.6984,425.46673 c -0.076,0 -0.138,-0.062 -0.138,-0.138 0,-0.076 0.062,-0.138 0.138,-0.138 0.076,0 0.138,0.062 0.138,0.138 0,0.076 -0.062,0.138 -0.138,0.138" />
        <path
           inkscape:connector-curvature="0"
           id="path10824"
           style="fill:#a69038;fill-opacity:1;fill-rule:nonzero;stroke:none"
           d="m 617.3837,425.95803 c -0.277,0 -0.501,-0.224 -0.501,-0.501 0,-0.277 0.224,-0.501 0.501,-0.501 0.277,0 0.501,0.224 0.501,0.501 0,0.277 -0.224,0.501 -0.501,0.501" />
        <path
           inkscape:connector-curvature="0"
           id="path10828"
           style="fill:#a69038;fill-opacity:1;fill-rule:nonzero;stroke:none"
           d="m 619.2358,424.10843 c -0.349,0 -0.632,-0.283 -0.632,-0.632 0,-0.348 0.283,-0.631 0.632,-0.631 0.349,0 0.632,0.283 0.632,0.631 0,0.349 -0.283,0.632 -0.632,0.632" />
        <path
           inkscape:connector-curvature="0"
           id="path10832"
           style="fill:#a69038;fill-opacity:1;fill-rule:nonzero;stroke:none"
           d="m 619.9236,425.21553 c -0.302,0 -0.548,-0.245 -0.548,-0.548 0,-0.302 0.246,-0.547 0.548,-0.547 0.303,0 0.548,0.245 0.548,0.547 0,0.303 -0.245,0.548 -0.548,0.548" />
        <path
           inkscape:connector-curvature="0"
           id="path10836"
           style="fill:#a69038;fill-opacity:1;fill-rule:nonzero;stroke:none"
           d="m 619.1386,426.13133 c -0.281,0 -0.509,-0.228 -0.509,-0.509 0,-0.282 0.228,-0.51 0.509,-0.51 0.281,0 0.509,0.228 0.509,0.51 0,0.281 -0.228,0.509 -0.509,0.509" />
        <path
           inkscape:connector-curvature="0"
           id="path10840"
           style="fill:#a69038;fill-opacity:1;fill-rule:nonzero;stroke:none"
           d="m 618.1802,426.75473 c -0.262,0 -0.474,-0.212 -0.474,-0.474 0,-0.262 0.212,-0.474 0.474,-0.474 0.262,0 0.474,0.212 0.474,0.474 0,0.262 -0.212,0.474 -0.474,0.474" />
        <path
           inkscape:connector-curvature="0"
           id="path10844"
           style="fill:#a69038;fill-opacity:1;fill-rule:nonzero;stroke:none"
           d="m 617.2257,427.07433 c -0.219,0 -0.396,-0.177 -0.396,-0.396 0,-0.219 0.177,-0.396 0.396,-0.396 0.219,0 0.396,0.177 0.396,0.396 0,0.219 -0.177,0.396 -0.396,0.396" />
        <path
           inkscape:connector-curvature="0"
           id="path10848"
           style="fill:#a69038;fill-opacity:1;fill-rule:nonzero;stroke:none"
           d="m 616.4306,426.39873 c -0.229,0 -0.414,-0.186 -0.414,-0.414 0,-0.23 0.185,-0.415 0.414,-0.415 0.229,0 0.414,0.185 0.414,0.415 0,0.228 -0.185,0.414 -0.414,0.414" />
        <path
           inkscape:connector-curvature="0"
           id="path10852"
           style="fill:#293f9c;fill-opacity:1;fill-rule:nonzero;stroke:none"
           d="m 616.5383,420.74123 c 0,-0.38 -0.308,-0.688 -0.687,-0.688 -0.381,0 -0.688,0.308 -0.688,0.688 0,0.38 0.307,0.688 0.688,0.688 0.379,0 0.687,-0.308 0.687,-0.688" />
        <path
           inkscape:connector-curvature="0"
           id="path10856"
           style="fill:#293f9c;fill-opacity:1;fill-rule:nonzero;stroke:none"
           d="m 617.3428,421.40673 c -0.339,0 -0.614,-0.275 -0.614,-0.614 0,-0.339 0.275,-0.614 0.614,-0.614 0.339,0 0.614,0.275 0.614,0.614 0,0.339 -0.275,0.614 -0.614,0.614" />
        <path
           inkscape:connector-curvature="0"
           id="path10860"
           style="fill:#293f9c;fill-opacity:1;fill-rule:nonzero;stroke:none"
           d="m 617.2891,420.01373 c -0.332,0 -0.6,-0.269 -0.6,-0.6 0,-0.332 0.268,-0.6 0.6,-0.6 0.332,0 0.6,0.268 0.6,0.6 0,0.331 -0.268,0.6 -0.6,0.6" />
        <path
           inkscape:connector-curvature="0"
           id="path10864"
           style="fill:#293f9c;fill-opacity:1;fill-rule:nonzero;stroke:none"
           d="m 618.5868,421.53753 c -0.281,0 -0.509,-0.228 -0.509,-0.509 0,-0.281 0.228,-0.509 0.509,-0.509 0.281,0 0.509,0.228 0.509,0.509 0,0.281 -0.228,0.509 -0.509,0.509" />
        <path
           inkscape:connector-curvature="0"
           id="path10868"
           style="fill:#293f9c;fill-opacity:1;fill-rule:nonzero;stroke:none"
           d="m 619.4905,421.99073 c -0.232,0 -0.421,-0.188 -0.421,-0.421 0,-0.232 0.189,-0.419 0.421,-0.419 0.232,0 0.421,0.187 0.421,0.419 0,0.233 -0.189,0.421 -0.421,0.421" />
        <path
           inkscape:connector-curvature="0"
           id="path10872"
           style="fill:#293f9c;fill-opacity:1;fill-rule:nonzero;stroke:none"
           d="m 620.0879,422.54833 c -0.183,0 -0.333,-0.149 -0.333,-0.333 0,-0.183 0.15,-0.332 0.333,-0.332 0.183,0 0.332,0.149 0.332,0.332 0,0.184 -0.149,0.333 -0.332,0.333" />
        <path
           inkscape:connector-curvature="0"
           id="path10876"
           style="fill:#293f9c;fill-opacity:1;fill-rule:nonzero;stroke:none"
           d="m 620.0923,421.31593 c -0.176,0 -0.318,-0.143 -0.318,-0.318 0,-0.177 0.142,-0.319 0.318,-0.319 0.176,0 0.318,0.142 0.318,0.319 0,0.175 -0.142,0.318 -0.318,0.318" />
        <path
           inkscape:connector-curvature="0"
           id="path10880"
           style="fill:#293f9c;fill-opacity:1;fill-rule:nonzero;stroke:none"
           d="m 620.2205,420.31463 c -0.173,0 -0.313,-0.14 -0.313,-0.313 0,-0.173 0.14,-0.313 0.313,-0.313 0.173,0 0.313,0.14 0.313,0.313 0,0.173 -0.14,0.313 -0.313,0.313" />
        <path
           inkscape:connector-curvature="0"
           id="path10884"
           style="fill:#293f9c;fill-opacity:1;fill-rule:nonzero;stroke:none"
           d="m 620.5913,420.84343 c -0.137,0 -0.248,-0.111 -0.248,-0.248 0,-0.136 0.111,-0.247 0.248,-0.247 0.136,0 0.247,0.111 0.247,0.247 0,0.137 -0.111,0.248 -0.247,0.248" />
        <path
           inkscape:connector-curvature="0"
           id="path10888"
           style="fill:#293f9c;fill-opacity:1;fill-rule:nonzero;stroke:none"
           d="m 620.8014,421.39713 c -0.124,0 -0.224,-0.101 -0.224,-0.224 0,-0.125 0.1,-0.225 0.224,-0.225 0.124,0 0.224,0.1 0.224,0.225 0,0.123 -0.1,0.224 -0.224,0.224" />
        <path
           inkscape:connector-curvature="0"
           id="path10892"
           style="fill:#293f9c;fill-opacity:1;fill-rule:nonzero;stroke:none"
           d="m 620.5051,421.91033 c -0.133,0 -0.241,-0.108 -0.241,-0.241 0,-0.134 0.108,-0.241 0.241,-0.241 0.133,0 0.241,0.107 0.241,0.241 0,0.133 -0.108,0.241 -0.241,0.241" />
        <path
           inkscape:connector-curvature="0"
           id="path10896"
           style="fill:#293f9c;fill-opacity:1;fill-rule:nonzero;stroke:none"
           d="m 620.8543,422.58443 c -0.122,0 -0.221,-0.099 -0.221,-0.221 0,-0.122 0.099,-0.221 0.221,-0.221 0.122,0 0.221,0.099 0.221,0.221 0,0.122 -0.099,0.221 -0.221,0.221" />
        <path
           inkscape:connector-curvature="0"
           id="path10900"
           style="fill:#293f9c;fill-opacity:1;fill-rule:nonzero;stroke:none"
           d="m 620.9908,422.02993 c -0.091,0 -0.165,-0.074 -0.165,-0.165 0,-0.091 0.074,-0.165 0.165,-0.165 0.091,0 0.165,0.074 0.165,0.165 0,0.091 -0.074,0.165 -0.165,0.165" />
        <path
           inkscape:connector-curvature="0"
           id="path10904"
           style="fill:#293f9c;fill-opacity:1;fill-rule:nonzero;stroke:none"
           d="m 620.9802,423.05913 c -0.085,0 -0.153,-0.069 -0.153,-0.152 0,-0.085 0.068,-0.154 0.153,-0.154 0.085,0 0.152,0.069 0.152,0.154 0,0.083 -0.067,0.152 -0.152,0.152" />
        <path
           inkscape:connector-curvature="0"
           id="path10908"
           style="fill:#293f9c;fill-opacity:1;fill-rule:nonzero;stroke:none"
           d="m 620.4825,423.12403 c -0.147,0 -0.266,-0.119 -0.266,-0.266 0,-0.147 0.119,-0.266 0.266,-0.266 0.147,0 0.266,0.119 0.266,0.266 0,0.147 -0.119,0.266 -0.266,0.266" />
        <path
           inkscape:connector-curvature="0"
           id="path10912"
           style="fill:#293f9c;fill-opacity:1;fill-rule:nonzero;stroke:none"
           d="m 620.7898,423.64103 c -0.114,0 -0.207,-0.093 -0.207,-0.207 0,-0.115 0.093,-0.207 0.207,-0.207 0.114,0 0.207,0.092 0.207,0.207 0,0.114 -0.093,0.207 -0.207,0.207" />
        <path
           inkscape:connector-curvature="0"
           id="path10916"
           style="fill:#293f9c;fill-opacity:1;fill-rule:nonzero;stroke:none"
           d="m 620.7417,424.09423 c -0.076,0 -0.138,-0.062 -0.138,-0.138 0,-0.076 0.062,-0.139 0.138,-0.139 0.076,0 0.138,0.063 0.138,0.139 0,0.076 -0.062,0.138 -0.138,0.138" />
        <path
           inkscape:connector-curvature="0"
           id="path10920"
           style="fill:#293f9c;fill-opacity:1;fill-rule:nonzero;stroke:none"
           d="m 618.5104,420.33503 c -0.277,0 -0.501,-0.224 -0.501,-0.501 0,-0.277 0.224,-0.501 0.501,-0.501 0.277,0 0.501,0.224 0.501,0.501 0,0.277 -0.224,0.501 -0.501,0.501" />
        <path
           inkscape:connector-curvature="0"
           id="path10924"
           style="fill:#293f9c;fill-opacity:1;fill-rule:nonzero;stroke:none"
           d="m 615.8695,419.85193 c -0.349,0 -0.632,-0.283 -0.632,-0.632 0,-0.348 0.283,-0.631 0.632,-0.631 0.349,0 0.632,0.283 0.632,0.631 0,0.349 -0.283,0.632 -0.632,0.632" />
        <path
           inkscape:connector-curvature="0"
           id="path10928"
           style="fill:#293f9c;fill-opacity:1;fill-rule:nonzero;stroke:none"
           d="m 616.557,418.57653 c -0.302,0 -0.548,-0.245 -0.548,-0.548 0,-0.302 0.246,-0.547 0.548,-0.547 0.302,0 0.548,0.245 0.548,0.547 0,0.303 -0.246,0.548 -0.548,0.548" />
        <path
           inkscape:connector-curvature="0"
           id="path10932"
           style="fill:#293f9c;fill-opacity:1;fill-rule:nonzero;stroke:none"
           d="m 617.7755,418.74113 c -0.281,0 -0.509,-0.228 -0.509,-0.509 0,-0.282 0.228,-0.51 0.509,-0.51 0.281,0 0.509,0.228 0.509,0.51 0,0.281 -0.228,0.509 -0.509,0.509" />
        <path
           inkscape:connector-curvature="0"
           id="path10936"
           style="fill:#293f9c;fill-opacity:1;fill-rule:nonzero;stroke:none"
           d="m 618.8253,419.20673 c -0.262,0 -0.474,-0.212 -0.474,-0.474 0,-0.262 0.212,-0.474 0.474,-0.474 0.262,0 0.474,0.212 0.474,0.474 0,0.262 -0.212,0.474 -0.474,0.474" />
        <path
           inkscape:connector-curvature="0"
           id="path10940"
           style="fill:#293f9c;fill-opacity:1;fill-rule:nonzero;stroke:none"
           d="m 619.6467,419.75663 c -0.219,0 -0.396,-0.177 -0.396,-0.396 0,-0.219 0.177,-0.397 0.396,-0.397 0.219,0 0.396,0.178 0.396,0.397 0,0.219 -0.177,0.396 -0.396,0.396" />
        <path
           inkscape:connector-curvature="0"
           id="path10944"
           style="fill:#293f9c;fill-opacity:1;fill-rule:nonzero;stroke:none"
           d="m 619.4433,420.81063 c -0.229,0 -0.414,-0.186 -0.414,-0.414 0,-0.23 0.185,-0.415 0.414,-0.415 0.229,0 0.414,0.185 0.414,0.415 0,0.228 -0.185,0.414 -0.414,0.414" />
        <path
           inkscape:connector-curvature="0"
           id="path10948"
           style="fill:#293f9c;fill-opacity:1;fill-rule:nonzero;stroke:none"
           d="m 613.0977,420.99543 c -0.229,0 -0.415,-0.186 -0.415,-0.414 0,-0.23 0.186,-0.415 0.415,-0.415 0.229,0 0.414,0.185 0.414,0.415 0,0.228 -0.185,0.414 -0.414,0.414 m -0.999,0.323 c -0.219,0 -0.396,-0.177 -0.396,-0.396 0,-0.219 0.177,-0.396 0.396,-0.396 0.219,0 0.397,0.177 0.397,0.396 0,0.219 -0.178,0.396 -0.397,0.396 m -0.133,1.104 c -0.262,0 -0.474,-0.212 -0.474,-0.474 0,-0.262 0.212,-0.475 0.474,-0.475 0.262,0 0.474,0.213 0.474,0.475 0,0.262 -0.212,0.474 -0.474,0.474 m 0.092,1.194 c -0.282,0 -0.51,-0.228 -0.51,-0.509 0,-0.281 0.228,-0.51 0.51,-0.51 0.281,0 0.509,0.229 0.509,0.51 0,0.281 -0.228,0.509 -0.509,0.509 m 0.433,1.195 c -0.303,0 -0.548,-0.245 -0.548,-0.547 0,-0.303 0.245,-0.548 0.548,-0.548 0.303,0 0.548,0.245 0.548,0.548 0,0.302 -0.245,0.547 -0.548,0.547 m 1.376,0.084 c -0.349,0 -0.632,-0.283 -0.632,-0.632 0,-0.348 0.283,-0.631 0.632,-0.631 0.348,0 0.631,0.283 0.631,0.631 0,0.349 -0.283,0.632 -0.631,0.632 m -0.789,-2.724 c -0.277,0 -0.502,-0.225 -0.502,-0.502 0,-0.276 0.225,-0.501 0.502,-0.501 0.276,0 0.501,0.225 0.501,0.502 0,0.276 -0.225,0.501 -0.501,0.501 m 2.454,-4.356 c -0.077,0 -0.139,-0.063 -0.139,-0.139 0,-0.076 0.062,-0.138 0.139,-0.138 0.076,0 0.138,0.062 0.138,0.138 0,0.077 -0.062,0.139 -0.138,0.139 m -0.476,0.287 c -0.115,0 -0.207,-0.092 -0.207,-0.206 0,-0.115 0.092,-0.207 0.207,-0.207 0.114,0 0.207,0.092 0.207,0.207 0,0.114 -0.093,0.206 -0.207,0.206 m -0.346,0.614 c -0.147,0 -0.266,-0.12 -0.266,-0.267 0,-0.147 0.119,-0.265 0.266,-0.265 0.147,0 0.267,0.118 0.267,0.265 0,0.147 -0.12,0.267 -0.267,0.267 m -0.206,-0.569 c -0.085,0 -0.153,-0.068 -0.153,-0.153 0,-0.084 0.068,-0.152 0.153,-0.152 0.084,0 0.152,0.068 0.152,0.152 0,0.085 -0.068,0.153 -0.152,0.153 m -0.905,0.529 c -0.091,0 -0.165,-0.074 -0.165,-0.165 0,-0.091 0.074,-0.165 0.165,-0.165 0.091,0 0.165,0.074 0.165,0.165 0,0.091 -0.074,0.165 -0.165,0.165 m 0.497,-0.08 c -0.122,0 -0.221,-0.099 -0.221,-0.221 0,-0.122 0.099,-0.221 0.221,-0.221 0.123,0 0.221,0.099 0.221,0.221 0,0.122 -0.098,0.221 -0.221,0.221 m -0.427,0.67 c -0.133,0 -0.241,-0.108 -0.241,-0.241 0,-0.134 0.108,-0.242 0.242,-0.242 0.133,0 0.241,0.108 0.241,0.242 0,0.133 -0.108,0.241 -0.242,0.241 m -0.578,-0.025 c -0.123,0 -0.224,-0.101 -0.224,-0.225 0,-0.124 0.101,-0.224 0.224,-0.224 0.125,0 0.225,0.1 0.225,0.224 0,0.124 -0.1,0.225 -0.225,0.225 m -0.394,0.493 c -0.136,0 -0.247,-0.111 -0.247,-0.247 0,-0.138 0.111,-0.248 0.247,-0.248 0.137,0 0.247,0.11 0.247,0.248 0,0.136 -0.11,0.247 -0.247,0.247 m -0.329,0.684 c -0.173,0 -0.313,-0.14 -0.313,-0.313 0,-0.173 0.14,-0.313 0.313,-0.313 0.173,0 0.313,0.14 0.313,0.313 0,0.173 -0.14,0.313 -0.313,0.313 m 0.926,-0.382 c -0.176,0 -0.318,-0.142 -0.318,-0.318 0,-0.176 0.142,-0.319 0.318,-0.319 0.176,0 0.318,0.143 0.318,0.319 0,0.176 -0.142,0.318 -0.318,0.318 m 1.058,-0.591 c -0.184,0 -0.332,-0.149 -0.332,-0.333 0,-0.183 0.148,-0.332 0.332,-0.332 0.183,0 0.332,0.149 0.332,0.332 0,0.184 -0.149,0.333 -0.332,0.333 m -0.261,0.927 c -0.232,0 -0.42,-0.188 -0.42,-0.42 0,-0.232 0.188,-0.42 0.42,-0.42 0.233,0 0.42,0.188 0.42,0.42 0,0.232 -0.187,0.42 -0.42,0.42 m -0.017,1.143 c -0.281,0 -0.509,-0.228 -0.509,-0.509 0,-0.281 0.228,-0.509 0.509,-0.509 0.281,0 0.509,0.228 0.509,0.509 0,0.281 -0.228,0.509 -0.509,0.509 m -0.749,2.022 c -0.332,0 -0.601,-0.268 -0.601,-0.6 0,-0.331 0.269,-0.6 0.601,-0.6 0.33,0 0.6,0.269 0.6,0.6 0,0.332 -0.27,0.6 -0.6,0.6 m 1.167,-0.722 c -0.339,0 -0.614,-0.275 -0.614,-0.614 0,-0.339 0.275,-0.614 0.614,-0.614 0.339,0 0.614,0.275 0.614,0.614 0,0.339 -0.275,0.614 -0.614,0.614 m 0.701,1.392 c -0.379,0 -0.688,-0.308 -0.688,-0.688 0,-0.38 0.309,-0.687 0.688,-0.687 0.38,0 0.688,0.307 0.688,0.687 0,0.38 -0.308,0.688 -0.688,0.688" />
      </g>
      <g
         id="g24282">
        <path
           sodipodi:nodetypes="sssscsssscs"
           style="clip-rule:evenodd;fill:#aa1a27;fill-opacity:1;fill-rule:evenodd;stroke:#ffffff;stroke-width:1.20000005;stroke-miterlimit:4;stroke-dasharray:none;stroke-opacity:1;image-rendering:optimizeQuality;shape-rendering:geometricPrecision;text-rendering:geometricPrecision"
           d="m 630.57334,433.85967 c 0.35517,0 0.64368,0.28852 0.64368,0.66583 l 0,5.92599 c 0,0.37731 -0.28851,0.66583 -0.64368,0.66583 l -16.00232,0 -12.54001,0 c -0.37731,0 -0.66582,-0.28852 -0.66582,-0.66583 l 0,-5.92599 c 0,-0.37731 0.28851,-0.66583 0.66582,-0.66583 l 12.54001,0 z"
           id="path24168"
           inkscape:connector-curvature="0" />
        <path
           sodipodi:nodetypes="cssssc"
           style="clip-rule:evenodd;fill:#aa1a27;fill-opacity:1;fill-rule:evenodd;stroke:none;stroke-width:0.40000001;stroke-miterlimit:4;stroke-dasharray:none;stroke-opacity:1;image-rendering:optimizeQuality;shape-rendering:geometricPrecision;text-rendering:geometricPrecision"
           d="m 614.57102,433.85967 16.00232,0 c 0.35517,0 0.64368,0.28852 0.64368,0.66583 l 0,5.92599 c 0,0.37731 -0.28851,0.66583 -0.64368,0.66583 l -16.00232,0"
           id="path24192"
           inkscape:connector-curvature="0" />
        <path
           sodipodi:nodetypes="cssssc"
           style="clip-rule:evenodd;fill:#0e2d6d;fill-opacity:1;fill-rule:nonzero;stroke:none;stroke-width:0.40000001;stroke-miterlimit:4;stroke-dasharray:none;stroke-opacity:1;image-rendering:optimizeQuality;shape-rendering:geometricPrecision;text-rendering:geometricPrecision"
           d="m 614.57102,441.11732 -12.54001,0 c -0.37731,0 -0.66582,-0.28852 -0.66582,-0.66583 l 0,-5.92599 c 0,-0.37731 0.28851,-0.66583 0.66582,-0.66583 l 12.54001,0"
           id="path24194"
           inkscape:connector-curvature="0" />
        <path
           style="clip-rule:evenodd;fill:#93acd3;fill-opacity:1;fill-rule:evenodd;stroke:none;image-rendering:optimizeQuality;shape-rendering:geometricPrecision;text-rendering:geometricPrecision"
           d="m 614.57102,440.96197 -12.67313,0 c 0,0 0.26626,-1.48705 2.01971,-2.75216 0,0 0.88776,-0.66583 1.46476,-0.66583 l 9.18866,0 0,3.41799 z"
           id="path24196"
           inkscape:connector-curvature="0" />
        <path
           style="clip-rule:evenodd;fill:#eb9098;fill-opacity:1;fill-rule:evenodd;stroke:none;image-rendering:optimizeQuality;shape-rendering:geometricPrecision;text-rendering:geometricPrecision"
           d="m 614.57102,440.96197 16.13546,0 c 0,0 -0.28851,-1.48705 -2.01973,-2.75216 0,0 -0.88775,-0.66583 -1.487,-0.66583 l -12.62873,0 0,3.41799 z"
           id="path24198"
           inkscape:connector-curvature="0" />
        <path
           style="clip-rule:evenodd;fill:#ffffff;fill-opacity:1;fill-rule:nonzero;stroke:none;image-rendering:optimizeQuality;shape-rendering:geometricPrecision;text-rendering:geometricPrecision"
           d="m 610.0877,434.37014 c 0.0887,-0.0222 0.26635,-0.0888 0.48829,-0.0888 0.37733,-0.0222 0.57702,0.13314 0.73239,0.4661 l 2.01972,4.52772 c -0.0887,0.0445 -0.26635,0.0888 -0.42173,0.0888 -0.26636,0 -0.59916,-0.0443 -0.84336,-0.57707 l -0.64366,-1.55362 -1.28733,2.08631 c -0.0887,0.0445 -0.28851,0.0666 -0.42162,0.0666 -0.46615,0 -0.71024,-0.17756 -0.97657,-0.4439 l -1.26509,-1.37608 0.99874,-1.57581 c 0.19977,-0.28853 0.44387,-0.44389 0.84335,-0.44389 0.24419,0 0.46613,0.0665 0.55493,0.11097 l -1.17635,1.81995 0.86561,0.90998 1.3983,-2.21944 -0.86562,-1.79778 z m -2.66338,1.7312 c 0,-0.33293 -0.11097,-0.53268 -0.77677,-0.53268 -0.0887,0 -0.15539,0 -0.22194,0 l 0,4.43894 c 0,0.33292 0.11097,0.66585 0.75452,0.66585 0.0887,0 0.17764,0 0.24419,-0.0222 l 0,-4.54992 z m -1.33173,0.64365 c 0,-0.62146 -0.39946,-1.06535 -1.22068,-1.15413 -0.59925,-0.0666 -1.46485,0.0222 -1.86431,0.0665 -0.0222,0.0665 -0.0443,0.15536 -0.0443,0.22194 0,0.53268 0.31077,0.66586 0.57711,0.66586 0.2885,0 0.73237,-0.0666 1.08744,-0.0666 0.35518,0 0.46615,0.13314 0.46615,0.26634 0,0.13314 -0.15538,0.22192 -0.44389,0.2663 l -0.77679,0.15536 c -0.64366,0.13314 -0.99883,0.57708 -0.99883,1.06536 0,0.57707 0.39958,1.06536 1.22077,1.15414 0.59926,0.0665 1.3539,-0.0222 1.75337,-0.0666 0.0222,-0.0665 0.0443,-0.13313 0.0443,-0.19975 0,-0.55487 -0.28862,-0.66585 -0.55485,-0.66585 -0.22205,0 -0.55496,0.0445 -0.93219,0.0445 -0.37731,0 -0.53268,-0.11097 -0.53268,-0.22194 0,-0.15536 0.15537,-0.19974 0.37733,-0.24414 l 0.75452,-0.13314 c 0.7769,-0.17757 1.08754,-0.59926 1.08754,-1.1541 z"
           id="path24200"
           inkscape:connector-curvature="0" />
        <path
           style="clip-rule:evenodd;fill:#ffffff;fill-opacity:1;fill-rule:nonzero;stroke:none;image-rendering:optimizeQuality;shape-rendering:geometricPrecision;text-rendering:geometricPrecision"
           d="m 618.21098,435.01379 -1.33175,0 c -0.15538,0 -0.26635,0 -0.37731,0.0443 -0.0887,0.0222 -0.15528,0.0666 -0.1997,0.11097 -0.0443,0.0445 -0.0887,0.11097 -0.11096,0.17755 0,0.0666 -0.0222,0.15537 -0.0222,0.22195 l 0,3.72871 c 0,0.0888 0.0222,0.15536 0.0222,0.24415 0.0222,0.0665 0.0665,0.11097 0.11096,0.17755 0.0443,0.0443 0.11097,0.0888 0.1997,0.11097 0.11096,0.0222 0.22193,0.0445 0.37731,0.0445 l 1.28734,0 c 0.37731,0 0.71022,-0.0222 0.95431,-0.11097 0.2442,-0.0665 0.48829,-0.13313 0.62152,-0.24415 0.15537,-0.11096 0.28851,-0.26634 0.35506,-0.3995 0.0665,-0.15536 0.11097,-0.31071 0.11097,-0.48828 0,-0.24415 -0.0665,-0.4439 -0.22193,-0.62146 -0.15539,-0.17756 -0.35507,-0.33292 -0.62142,-0.3995 l -0.11097,-0.0445 0.13314,-0.0443 c 0.37732,-0.11097 0.64367,-0.26634 0.79903,-0.44391 0.15539,-0.19972 0.24411,-0.42167 0.24411,-0.64361 0,-0.4661 -0.19969,-0.79902 -0.55485,-1.04317 -0.37732,-0.26632 -0.93217,-0.37731 -1.66454,-0.37731 m -0.84347,0.86561 0.0443,0 0.66581,0 c 0.35517,0 0.57711,0.0445 0.75464,0.13313 0.17753,0.0888 0.2442,0.24415 0.2442,0.4883 0,0.0665 0,0.13313 -0.0443,0.19976 -0.0222,0.0665 -0.0665,0.13313 -0.13327,0.19974 -0.0665,0.0443 -0.15538,0.0887 -0.28852,0.11097 -0.13314,0.0222 -0.28848,0.0666 -0.48828,0.0666 l -0.71023,0 -0.0443,0 0,-0.0445 0,-1.10971 0,-0.0445 z m 0,1.9531 0.0443,0 0.66581,0 c 0.17754,0 0.31077,0.0222 0.42173,0.0445 0.11097,0.0222 0.19978,0.0666 0.26635,0.13314 0.0665,0.0443 0.11097,0.11097 0.13314,0.17755 0.0222,0.0665 0.0443,0.13314 0.0443,0.19976 0,0.19974 -0.0665,0.33291 -0.19977,0.4217 -0.15529,0.0888 -0.37733,0.13313 -0.688,0.13313 l -0.64365,0 -0.0443,0 0,-0.0445 0,-1.04317 0,-0.0222 z"
           id="path24202"
           inkscape:connector-curvature="0" />
        <path
           style="clip-rule:evenodd;fill:#ffffff;fill-opacity:1;fill-rule:nonzero;stroke:none;image-rendering:optimizeQuality;shape-rendering:geometricPrecision;text-rendering:geometricPrecision"
           d="m 622.22813,436.03475 0,0.88777 1.70909,0 c 0.39935,0 0.62129,0.15536 0.62129,0.68804 0,0.11097 -0.0222,0.24414 -0.0443,0.31073 l -2.28597,0 0,0.95438 1.75346,0 c 0.39938,0 0.64358,0.13314 0.64358,0.66584 0,0.11097 -0.0222,0.24415 -0.0443,0.31073 l -2.64113,0 c -0.75464,0 -0.88774,-0.37732 -0.88774,-0.77681 l 0,-4.01725 0,-0.0222 3.0407,0 c 0.39935,0 0.62129,0.13313 0.62129,0.66584 0,0.13314 -0.0222,0.24415 -0.0443,0.33292 l -2.44135,0 z"
           id="path24204"
           inkscape:connector-curvature="0" />
        <path
           style="clip-rule:evenodd;fill:#ffffff;fill-opacity:1;fill-rule:nonzero;stroke:none;image-rendering:optimizeQuality;shape-rendering:geometricPrecision;text-rendering:geometricPrecision"
           d="m 627.95437,438.87567 0.95432,0 c 0.31076,0 0.62151,0.13314 0.62151,0.75462 0,0.0666 0,0.15537 -0.0222,0.24415 l -3.68427,0 c -0.31076,0 -0.64368,-0.13314 -0.64368,-0.77683 0,-0.0665 0.0222,-0.15536 0.0443,-0.22194 l 1.55357,0 0,-3.86188 c 0.0887,0 0.19979,-0.0222 0.2885,-0.0222 0.73249,0 0.88786,0.22195 0.88786,0.57705 l 0,3.30702 z"
           id="path24206"
           inkscape:connector-curvature="0" />
      </g>
    </g>
  </g>
</svg>
