<?xml version="1.0" encoding="utf-8"?>
<!-- Generator: Adobe Illustrator 13.0.0, SVG Export Plug-In . SVG Version: 6.00 Build 14948)  -->
<!DOCTYPE svg PUBLIC "-//W3C//DTD SVG 1.0//EN" "http://www.w3.org/TR/2001/REC-SVG-20010904/DTD/svg10.dtd">
<svg version="1.0" id="Calque_1" xmlns="http://www.w3.org/2000/svg" xmlns:xlink="http://www.w3.org/1999/xlink" x="0px" y="0px"
	 width="356.333px" height="566px" viewBox="0 0 356.333 566" enable-background="new 0 0 356.333 566" xml:space="preserve">
<path fill="#FFFFFF" d="M356.333,500.685l-6.491-1.756l-47.358-12.651c14.126-23.657,18.162-47.998,18.162-68.066
	c-0.028-21.511-4.649-38.148-6.533-44.063l22.551-17.007l0.832-0.614l0.325-0.958c0,0,3.688-11.099,10.594-31.87
	c1.935-5.715,3.037-10.305,3.073-14.426c0-2.786-0.596-5.445-1.897-7.702c-0.977-1.7-2.333-3.185-3.942-4.357
	c-2.439-1.826-5.387-3.128-8.984-4.357c-3.561-1.193-7.791-2.277-12.781-3.453c-11.949-2.729-32.125-7.931-49.3-12.406
	c-8.568-2.259-16.433-4.356-22.109-5.884c-0.268-0.069-0.525-0.136-0.784-0.203c14.179-7.706,25.479-17.25,34.393-27.412
	c15.8-18.006,24.261-37.928,28.762-53.322c3.549-12.129,4.688-21.469,5.016-25.006l21.903-16.655l0.867-0.678l0.325-1.076
	c0,0,6.021-21.676,9.691-35.542c0.795-3.055,1.283-5.83,1.283-8.487c0-2.613-0.452-5.099-1.428-7.367
	c-1.429-3.39-4.014-6.166-7.395-8.317c-3.417-2.205-7.646-3.851-12.781-5.26c-1.627-0.506-5.75-1.528-11.932-3.109
	c-5.914-1.578-13.738-3.526-23.012-5.876C278.9,48.479,259.12,32.822,239.584,23.317c-19.724-9.622-39.167-12.958-56.541-12.958
	c-34.823,0-61.421,13.32-67.371,16.553L16.126,1.925L8.551,0l3.869,6.793l17.572,30.844L4.845,59.369L0,63.563l6.192,1.582
	l53.784,13.67c-15.3,26.378-19.345,52.717-19.345,73.152c0,17.879,3.073,31.187,4.431,36.144l-30.355,26.063l-0.795,0.678
	l-0.261,1.021c0,0-6.734,26.087-9.826,38.146c-0.442,1.807-0.696,3.507-0.696,5.152c0,2.766,0.732,5.369,2.042,7.521
	c0.985,1.645,2.296,3.064,3.788,4.302c2.224,1.817,4.917,3.29,7.901,4.538c2.982,1.301,6.372,2.422,9.979,3.561
	c3.417,1.013,10.341,2.883,18.964,5.154c18.902,4.934,45.655,11.633,58.6,14.856c-23.592,15.771-38.251,35.471-47.129,51.638
	c-8.177,14.966-11.447,27.029-12.287,30.545l-33.804,33.308l-0.696,0.688l-0.217,0.958c0,0-0.326,1.519-0.877,3.961
	c-0.759,3.616-1.998,9.219-3.164,14.551c-1.202,5.316-2.332,10.342-2.956,12.784c-0.397,1.591-1.012,3.851-1.564,6.506
	c-0.506,2.658-0.949,5.66-0.949,8.842c0,3.379,0.516,6.959,2.224,10.232c0.84,1.646,1.97,3.182,3.461,4.538
	c1.492,1.302,3.273,2.366,5.388,3.163c3.534,1.356,8.524,2.893,14.128,4.465c14.537,4.117,33.022,8.571,37.741,9.691
	c18.391,24.575,38.079,40.37,57.478,50.021c19.697,9.745,39.104,13.143,56.441,13.143c35.35,0,62.368-13.934,68.428-17.32
	l87.777,23.197l7.538,1.986l-3.796-6.85l-17.068-30.729L351,504.806L356.333,500.685z"/>
<linearGradient id="SVGID_1_" gradientUnits="userSpaceOnUse" x1="43.04" y1="175.9863" x2="43.04" y2="243.6344">
	<stop  offset="0" style="stop-color:#506BA1"/>
	<stop  offset="1" style="stop-color:#1C2D47"/>
</linearGradient>
<path fill="url(#SVGID_1_)" d="M16.858,216.94l3.751,0.967l48.612,12.338c-8.813-12.338-15.665-26.258-20.03-41.146L16.858,216.94z"
	/>
<polyline fill="#1C2D47" points="312.601,139.402 340.153,146.417 312.222,167.876 312.601,139.402 "/>
<polyline fill="#1C2D47" points="291.956,343.512 334.838,354.881 305.822,376.793 298.609,359.24 291.956,343.512 "/>
<linearGradient id="SVGID_2_" gradientUnits="userSpaceOnUse" x1="30.7285" y1="374.9492" x2="30.7285" y2="433.6304">
	<stop  offset="0" style="stop-color:#506BA1"/>
	<stop  offset="1" style="stop-color:#1C2D47"/>
</linearGradient>
<path fill="url(#SVGID_2_)" d="M13.541,417.143l3.606,0.904l26.801,6.743c-0.145-2.494-0.217-5.043-0.217-7.592
	c0-11.607,1.455-22.87,4.185-33.681L13.541,417.143z"/>
<linearGradient id="SVGID_3_" gradientUnits="userSpaceOnUse" x1="102.0806" y1="305.0967" x2="259.0797" y2="529.3148">
	<stop  offset="0" style="stop-color:#1E306C"/>
	<stop  offset="1" style="stop-color:#1C2D47"/>
</linearGradient>
<circle fill="url(#SVGID_3_)" cx="180.58" cy="417.204" r="136.848"/>
<linearGradient id="SVGID_4_" gradientUnits="userSpaceOnUse" x1="102.0806" y1="38.5513" x2="259.0797" y2="262.7693">
	<stop  offset="0" style="stop-color:#1E306C"/>
	<stop  offset="1" style="stop-color:#1C2D47"/>
</linearGradient>
<circle fill="url(#SVGID_4_)" cx="180.58" cy="150.659" r="136.848"/>
<linearGradient id="SVGID_5_" gradientUnits="userSpaceOnUse" x1="97.1763" y1="41.9854" x2="254.1775" y2="266.2064">
	<stop  offset="0" style="stop-color:#FFFFFF"/>
	<stop  offset="0.3757" style="stop-color:#FDFCFC"/>
	<stop  offset="0.5315" style="stop-color:#F3F3F3"/>
	<stop  offset="0.6465" style="stop-color:#E5E4E4"/>
	<stop  offset="0.7416" style="stop-color:#CFCECE"/>
	<stop  offset="0.8242" style="stop-color:#B5B5B5"/>
	<stop  offset="0.8983" style="stop-color:#979796"/>
	<stop  offset="0.9644" style="stop-color:#757878"/>
	<stop  offset="1" style="stop-color:#606666"/>
</linearGradient>
<path fill="url(#SVGID_5_)" d="M148.703,151.008l0.003,0.007c0.116-0.044,0.256-0.115,0.404-0.232
	c0.47-0.281,1.085-0.795,1.745-1.42c1.311-1.247,2.838-2.883,4.366-4.356c1.021-0.958,2.079-1.809,3.209-2.432
	c0.651-0.334,1.347-0.624,2.188-0.677h0.325c1.311,0,2.585,0.343,3.787,0.731c1.239,0.397,2.369,0.795,3.236,1.076
	c0.541,0.221,0.998,0.338,1.083,0.342c0.159-0.004,0.542-0.058,0.923-0.17c0.398-0.118,0.723-0.28,0.949-0.569
	c0.145-0.163,0.29-0.452,0.362-0.85c0.036-0.334,0.072-0.678,0.072-0.958c0-1.075-0.29-2.097-0.696-3.055
	c-0.398-0.959-0.903-1.754-1.274-2.441c-0.434-0.786-1.202-2.26-1.889-4.013c-0.66-1.754-1.274-3.742-1.347-5.658
	c0-0.227,0-0.398,0-0.625c0-3.453,0.578-9.626,0.877-12.176c0.18-1.355,0.325-2.603,0.434-3.561
	c0.144-1.013,0.217-1.808,0.181-2.206c0.032-0.151-0.048-0.512-0.116-0.752l-0.028,0.01c-0.624,0.235-1.826,0.742-3.02,1.365
	c-1.202,0.624-2.512,1.419-3.353,2.034c-0.542,0.452-0.913,0.904-0.877,0.904c-0.217,0.452-0.361,1.021-0.361,1.699
	c0,0.967,0.289,2.097,0.614,2.775c0.443,1.021,0.66,2.097,0.805,2.884c0.109,0.849,0.145,1.419,0.145,1.482v0.109v0.054
	l-0.036,0.227v0.063v0.054c-0.037,0.561-0.218,1.184-0.398,1.808c-0.217,0.678-0.434,1.356-0.732,2.042
	c-0.543,1.41-1.167,2.82-1.672,4.014c-0.325,0.795-0.579,1.474-0.696,1.862c-0.072,0.289-0.18,0.795-0.289,1.419
	c-0.145,0.678-0.253,1.419-0.398,2.269c-0.253,1.7-0.614,3.616-1.021,5.433c-0.29,1.184-0.615,2.323-1.022,3.281
	c-0.361,0.795-0.831,1.474-1.347,2.097c-0.542,0.678-1.093,1.248-1.672,1.808c-1.166,1.13-2.332,2.259-2.946,3.109
	C148.812,150.439,148.703,150.836,148.703,151.008z"/>
<linearGradient id="SVGID_6_" gradientUnits="userSpaceOnUse" x1="136.917" y1="280.7012" x2="293.9143" y2="504.9166">
	<stop  offset="0" style="stop-color:#FFFFFF"/>
	<stop  offset="0.3757" style="stop-color:#FDFCFC"/>
	<stop  offset="0.5315" style="stop-color:#F3F3F3"/>
	<stop  offset="0.6465" style="stop-color:#E5E4E4"/>
	<stop  offset="0.7416" style="stop-color:#CFCECE"/>
	<stop  offset="0.8242" style="stop-color:#B5B5B5"/>
	<stop  offset="0.8983" style="stop-color:#979796"/>
	<stop  offset="0.9644" style="stop-color:#757878"/>
	<stop  offset="1" style="stop-color:#606666"/>
</linearGradient>
<path fill="url(#SVGID_6_)" d="M253.438,309.342c-0.258,3.4-0.783,8.286-1.869,14.119c-2.079,11.392-6.237,26.322-14.607,40.822
	c-5.604,9.672-13.106,19.125-23.159,27.046c-11.678,9.237-27.044,16.595-39.573,21.674c-8.787,3.614-16.141,6.084-19.784,7.26
	c0.014,0.538,0.032,1.157,0.051,1.854c0.108,2.783,0.253,6.743,0.579,11.442c0.612,8.71,1.734,20.016,3.727,31.106
	c0.951-0.316,2.056-0.693,3.341-1.168c4.547-1.646,11.101-4.304,19.046-8.154c15.8-7.756,37.024-20.373,58.465-39.952
	c15.836-14.444,27.136-33.12,34.493-48.632c6.126-12.885,9.573-23.514,10.738-27.443c-3.75-5.008-7.854-9.739-12.274-14.154
	C266.748,319.302,260.327,314.002,253.438,309.342z"/>
<linearGradient id="SVGID_7_" gradientUnits="userSpaceOnUse" x1="87.9341" y1="48.4614" x2="244.9297" y2="272.6744">
	<stop  offset="0" style="stop-color:#FFFFFF"/>
	<stop  offset="0.3757" style="stop-color:#FDFCFC"/>
	<stop  offset="0.5315" style="stop-color:#F3F3F3"/>
	<stop  offset="0.6465" style="stop-color:#E5E4E4"/>
	<stop  offset="0.7416" style="stop-color:#CFCECE"/>
	<stop  offset="0.8242" style="stop-color:#B5B5B5"/>
	<stop  offset="0.8983" style="stop-color:#979796"/>
	<stop  offset="0.9644" style="stop-color:#757878"/>
	<stop  offset="1" style="stop-color:#606666"/>
</linearGradient>
<path fill="url(#SVGID_7_)" d="M142.521,131.881c0.723,0.397,1.708,0.669,2.54,0.669c0.913,0,1.608-0.271,1.971-0.56
	c0,0,0.108-0.109,0.181-0.398c0.108-0.28,0.145-0.732,0.145-1.247c0-0.904-0.181-2.034-0.506-3.055
	c-0.326-1.013-0.805-1.98-1.202-2.55c-0.042-0.049-0.072-0.068-0.113-0.11c-0.273,0.237-0.567,0.498-0.909,0.798
	c-1.021,0.849-2.26,2.097-2.983,3.163c-0.47,0.742-0.66,1.356-0.66,1.592v0.108C141.246,130.86,141.752,131.43,142.521,131.881z"/>
<linearGradient id="SVGID_8_" gradientUnits="userSpaceOnUse" x1="115.9199" y1="28.8657" x2="272.919" y2="253.0837">
	<stop  offset="0" style="stop-color:#FFFFFF"/>
	<stop  offset="0.3757" style="stop-color:#FDFCFC"/>
	<stop  offset="0.5315" style="stop-color:#F3F3F3"/>
	<stop  offset="0.6465" style="stop-color:#E5E4E4"/>
	<stop  offset="0.7416" style="stop-color:#CFCECE"/>
	<stop  offset="0.8242" style="stop-color:#B5B5B5"/>
	<stop  offset="0.8983" style="stop-color:#979796"/>
	<stop  offset="0.9644" style="stop-color:#757878"/>
	<stop  offset="1" style="stop-color:#606666"/>
</linearGradient>
<path fill="url(#SVGID_8_)" d="M65.172,97.063c1.393-1.066,2.739-1.862,4.086-2.422c1.347-0.516,2.729-0.742,4.077-0.742
	c1.636,0,3.235,0.344,4.881,0.85c0.795,0.226,1.672,0.397,2.513,0.397c1.347,0,2.657-0.343,3.824-1.247
	c1.157-0.904,2.287-2.377,3.127-4.863c1.203-3.453,2.802-6.572,5.062-8.949c2.26-2.314,5.279-3.851,8.849-3.851
	c0.76,0,1.527,0.054,2.332,0.235c1.745,0.271,3.273,1.067,4.583,2.088c1.347,1.021,2.513,2.323,3.534,3.679
	c2.07,2.775,3.679,5.948,5.026,8.488c0.868,1.699,1.636,3.118,2.178,3.851c0.697,0.904,2.477,2.097,4.52,2.884
	c2.043,0.849,4.33,1.355,5.939,1.355c0.542,0,1.012-0.055,1.347-0.163c0.325-0.055,0.434-0.172,0.47-0.227
	c1.745-1.753,3.824-4.022,4.701-5.035c0.076-0.08,0.11-0.119,0.167-0.18c0.342-2.045,1.621-9.453,3.322-18.278
	c2.007-10.304,4.556-22.525,6.852-30.046c0.687-2.151,1.31-3.969,1.961-5.324c0.371-0.732,0.697-1.302,1.167-1.872
	c1.745-1.925,3.751-3.733,6.011-5.098c2.25-1.41,4.799-2.314,7.574-2.314c1.853,0,3.752,0.398,5.605,1.356
	c1.455,0.688,2.44,1.302,3.127,1.871c0.731,0.506,1.202,0.958,1.464,1.238c0.181,0.235,0.253,0.235,0.253,0.29c0,0,0,0,0.397,0.054
	c0.037,0.054,0.217,0.054,0.434,0.054c0.624,0,1.717-0.163,2.884-0.334c1.129-0.171,2.322-0.343,3.452-0.343
	c0.697,0,1.385,0,2.188,0.397c0.362,0.172,0.731,0.398,1.094,0.678c0.397,0.226,0.805,0.506,1.238,0.795
	c0.868,0.56,1.817,1.13,2.585,1.41c0.452,0.209,0.84,0.313,1.023,0.335c0.313-0.45,0.7-1.383,1.345-2.541
	c0.65-1.193,1.746-2.658,3.562-3.733c1.203-0.678,2.739-1.248,4.628-1.582c4.557-0.795,9.583-0.742,12.918-1.022
	c1.139-0.063,2.042-0.172,2.62-0.335c0.325-0.063,0.562-0.18,0.562-0.18c0.235-0.239,0.563-0.652,0.868-1.125
	c0.36-0.57,0.759-1.189,1.121-1.813c0.028-0.049,0.056-0.097,0.085-0.146c-11.482-3.31-23.604-5.119-36.162-5.119
	c-35.939,0-68.489,14.549-92.045,38.086c-11.338,11.36-20.564,24.792-27.114,39.664c0.117,0.005,0.232,0.019,0.35,0.019
	C62.921,98.256,64.087,97.976,65.172,97.063z"/>
<linearGradient id="SVGID_9_" gradientUnits="userSpaceOnUse" x1="167.4644" y1="106.9043" x2="167.4694" y2="106.9115">
	<stop  offset="0" style="stop-color:#FFFFFF"/>
	<stop  offset="0.3757" style="stop-color:#FDFCFC"/>
	<stop  offset="0.5315" style="stop-color:#F3F3F3"/>
	<stop  offset="0.6465" style="stop-color:#E5E4E4"/>
	<stop  offset="0.7416" style="stop-color:#CFCECE"/>
	<stop  offset="0.8242" style="stop-color:#B5B5B5"/>
	<stop  offset="0.8983" style="stop-color:#979796"/>
	<stop  offset="0.9644" style="stop-color:#757878"/>
	<stop  offset="1" style="stop-color:#606666"/>
</linearGradient>
<polygon fill="url(#SVGID_9_)" points="167.471,106.897 167.459,106.916 167.473,106.898 "/>
<linearGradient id="SVGID_10_" gradientUnits="userSpaceOnUse" x1="152.0083" y1="3.6118" x2="308.9935" y2="227.81">
	<stop  offset="0" style="stop-color:#FFFFFF"/>
	<stop  offset="0.3757" style="stop-color:#FDFCFC"/>
	<stop  offset="0.5315" style="stop-color:#F3F3F3"/>
	<stop  offset="0.6465" style="stop-color:#E5E4E4"/>
	<stop  offset="0.7416" style="stop-color:#CFCECE"/>
	<stop  offset="0.8242" style="stop-color:#B5B5B5"/>
	<stop  offset="0.8983" style="stop-color:#979796"/>
	<stop  offset="0.9644" style="stop-color:#757878"/>
	<stop  offset="1" style="stop-color:#606666"/>
</linearGradient>
<path fill="url(#SVGID_10_)" d="M252.003,155.257c0.217,0.054,0.47,0.109,0.831,0.109c0.886,0,2.152-0.344,3.399-1.013
	c1.229-0.632,2.404-1.537,3.163-2.44c0.543-0.561,0.832-1.13,0.94-1.411c0.036-0.172,0.072-0.343,0.072-0.452
	c0-0.397-0.145-0.795-0.435-1.302c-0.289-0.452-0.723-0.967-1.156-1.419c-0.396-0.378-0.789-0.688-1.134-0.941l-6.068,3.92
	c-0.076,0.123-0.201,0.322-0.301,0.528c-0.253,0.516-0.471,1.184-0.471,1.925c0.037,0.624,0.182,1.302,0.761,2.151
	C251.714,155.076,251.821,155.139,252.003,155.257z"/>
<linearGradient id="SVGID_11_" gradientUnits="userSpaceOnUse" x1="20.603" y1="95.6035" x2="177.6013" y2="319.8203">
	<stop  offset="0" style="stop-color:#FFFFFF"/>
	<stop  offset="0.3757" style="stop-color:#FDFCFC"/>
	<stop  offset="0.5315" style="stop-color:#F3F3F3"/>
	<stop  offset="0.6465" style="stop-color:#E5E4E4"/>
	<stop  offset="0.7416" style="stop-color:#CFCECE"/>
	<stop  offset="0.8242" style="stop-color:#B5B5B5"/>
	<stop  offset="0.8983" style="stop-color:#979796"/>
	<stop  offset="0.9644" style="stop-color:#757878"/>
	<stop  offset="1" style="stop-color:#606666"/>
</linearGradient>
<path fill="url(#SVGID_11_)" d="M118.811,247.619c-0.362-0.732-0.914-1.808-1.456-3.001c-1.167-2.26-2.585-4.972-3.534-6.508
	c-0.615-1.012-2.07-2.766-3.751-4.637c-1.636-1.816-3.453-3.733-4.873-5.324c-0.949-1.012-1.717-1.808-2.187-2.431
	c-0.217-0.28-0.362-0.569-0.551-0.85c-0.145-0.28-0.29-0.624-0.434-1.021c-0.289-0.669-0.579-1.519-0.913-2.54
	c-0.651-1.925-1.347-4.366-1.998-6.789c-1.311-4.935-2.549-9.961-2.947-11.832c-0.153-0.678-0.19-1.42-0.19-2.323
	c0-2.26,0.299-5.378,0.696-8.659c0.361-3.281,0.84-6.617,1.13-9.22c0.217-1.699,0.326-3.119,0.326-3.743
	c0.036-0.624-0.362-1.807-1.022-3.109c-0.651-1.247-1.528-2.657-2.251-3.959c-0.515-0.913-0.949-1.763-1.274-2.603
	c-0.153-0.516-0.298-1.03-0.298-1.646c0-0.506,0.109-0.958,0.298-1.356c0.145-0.397,0.362-0.741,0.579-1.021
	c0.47-0.678,0.986-1.248,1.6-1.872c1.167-1.13,2.549-2.377,3.606-3.507c0.732-0.741,1.239-1.41,1.456-1.925
	c0.145-0.226,0.145-0.398,0.145-0.452c0.037-0.227-0.145-0.732-0.651-1.42c-0.479-0.677-1.274-1.464-2.26-2.205
	c-1.934-1.464-4.556-2.83-6.77-3.562c-1.492-0.506-2.884-1.302-4.186-2.323c-1.392-1.021-2.667-2.205-3.904-3.398
	c-2.513-2.432-4.836-5.089-6.734-6.789c-2.658-2.377-6.445-4.356-10.305-4.356c-1.563,0-3.127,0.28-4.764,1.012
	c-2.919,1.247-5.577,1.645-7.683,1.645c-0.929,0-1.738-0.073-2.439-0.172c-0.56,4.904-0.877,9.884-0.877,14.942
	c0,35.94,14.562,68.49,38.126,92.037c9.765,9.758,21.095,17.95,33.551,24.233l-2.784-18.297
	C119.188,248.432,119.027,248.096,118.811,247.619z"/>
<linearGradient id="SVGID_12_" gradientUnits="userSpaceOnUse" x1="35.5" y1="351.7266" x2="192.4973" y2="575.942">
	<stop  offset="0" style="stop-color:#FFFFFF"/>
	<stop  offset="0.3757" style="stop-color:#FDFCFC"/>
	<stop  offset="0.5315" style="stop-color:#F3F3F3"/>
	<stop  offset="0.6465" style="stop-color:#E5E4E4"/>
	<stop  offset="0.7416" style="stop-color:#CFCECE"/>
	<stop  offset="0.8242" style="stop-color:#B5B5B5"/>
	<stop  offset="0.8983" style="stop-color:#979796"/>
	<stop  offset="0.9644" style="stop-color:#757878"/>
	<stop  offset="1" style="stop-color:#606666"/>
</linearGradient>
<path fill="url(#SVGID_12_)" d="M111.38,472.5c-7.647-24.73-8.958-53.767-8.958-71.265c0-6.972,0.22-12.084,0.336-14.316
	c-1.007-0.458-2.006-0.932-3.03-1.357c-8.11-3.403-16.67-5.781-25.315-6.365c0.07,5.475,0.365,17.107,1.577,31.44
	c1.492,18.059,4.475,40.405,10.196,59.93c5.171,17.842,13.767,33.391,21.225,44.599c5.851,8.871,11.011,15.066,13.281,17.633
	c9.718,5.04,20.147,8.884,31.104,11.355c-3.323-4.197-7.766-10.051-12.595-17.093C129.26,512.452,117.681,492.873,111.38,472.5z"/>
<linearGradient id="SVGID_13_" gradientUnits="userSpaceOnUse" x1="131.5913" y1="284.4277" x2="288.5901" y2="508.6452">
	<stop  offset="0" style="stop-color:#FFFFFF"/>
	<stop  offset="0.3757" style="stop-color:#FDFCFC"/>
	<stop  offset="0.5315" style="stop-color:#F3F3F3"/>
	<stop  offset="0.6465" style="stop-color:#E5E4E4"/>
	<stop  offset="0.7416" style="stop-color:#CFCECE"/>
	<stop  offset="0.8242" style="stop-color:#B5B5B5"/>
	<stop  offset="0.8983" style="stop-color:#979796"/>
	<stop  offset="0.9644" style="stop-color:#757878"/>
	<stop  offset="1" style="stop-color:#606666"/>
</linearGradient>
<path fill="url(#SVGID_13_)" d="M244.175,420.307c-37.038,33.712-73.241,47.406-84.076,50.96c1.403,6.479,3.138,12.684,5.281,17.975
	c5.794,14.391,14.644,28.527,22.254,39.177c4.957,6.97,9.345,12.453,12.011,15.659c0.185-0.063,0.377-0.132,0.581-0.205
	c1.861-0.685,4.592-1.807,8.055-3.452c6.878-3.236,16.586-8.604,27.813-16.812c45.199-33.388,65.954-63.383,68.811-67.69
	c3.794-12.228,5.835-25.232,5.835-38.72c0-6.383-0.48-12.652-1.366-18.79c-5.724,11.92-17.945,33.139-40.54,55.472
	c-10.864,10.755-18.729,18.043-24.44,22.977c-5.678,4.973-9.221,7.576-11.499,9.058c-1.5,0.958-2.44,1.411-3.253,1.7
	c-0.472,0.106-0.905,0.216-1.375,0.216h-0.218l0.218-4.007v-0.403l-0.723-2.153l0.145-0.052c0.072-0.055,0.216-0.109,0.434-0.237
	c0.759-0.396,2.297-1.354,4.917-3.324c5.244-4.033,14.662-12.24,31.096-28.476c30.854-30.599,41.716-58.906,43-62.399
	c-3.5-14.633-9.466-28.299-17.452-40.546c-1.744,5.18-4.613,12.913-8.808,21.828C273.299,384.314,261.476,404.526,244.175,420.307z"
	/>
<linearGradient id="SVGID_14_" gradientUnits="userSpaceOnUse" x1="111.1177" y1="298.7666" x2="268.1175" y2="522.9857">
	<stop  offset="0" style="stop-color:#FFFFFF"/>
	<stop  offset="0.3757" style="stop-color:#FDFCFC"/>
	<stop  offset="0.5315" style="stop-color:#F3F3F3"/>
	<stop  offset="0.6465" style="stop-color:#E5E4E4"/>
	<stop  offset="0.7416" style="stop-color:#CFCECE"/>
	<stop  offset="0.8242" style="stop-color:#B5B5B5"/>
	<stop  offset="0.8983" style="stop-color:#979796"/>
	<stop  offset="0.9644" style="stop-color:#757878"/>
	<stop  offset="1" style="stop-color:#606666"/>
</linearGradient>
<path fill="url(#SVGID_14_)" d="M240.017,528.923c-6.372,4.706-12.291,8.496-17.533,11.53c19.082-6.481,36.185-17.23,50.129-31.164
	c8.921-8.907,16.542-19.104,22.576-30.282C283.781,491.97,265.792,509.918,240.017,528.923z"/>
<linearGradient id="SVGID_15_" gradientUnits="userSpaceOnUse" x1="19.8403" y1="362.6865" x2="176.8401" y2="586.9054">
	<stop  offset="0" style="stop-color:#FFFFFF"/>
	<stop  offset="0.3757" style="stop-color:#FDFCFC"/>
	<stop  offset="0.5315" style="stop-color:#F3F3F3"/>
	<stop  offset="0.6465" style="stop-color:#E5E4E4"/>
	<stop  offset="0.7416" style="stop-color:#CFCECE"/>
	<stop  offset="0.8242" style="stop-color:#B5B5B5"/>
	<stop  offset="0.8983" style="stop-color:#979796"/>
	<stop  offset="0.9644" style="stop-color:#757878"/>
	<stop  offset="1" style="stop-color:#606666"/>
</linearGradient>
<path fill="url(#SVGID_15_)" d="M79.779,472.445c-5.902-20.266-8.885-42.917-10.449-61.249c-1.233-14.71-1.523-26.565-1.589-32.092
	c-3.826,0.122-8.598,0.432-11.868,0.695c-3.549,11.849-5.479,24.396-5.479,37.398c0,35.994,14.562,68.536,38.126,92.091
	c4.962,4.958,10.343,9.488,16.05,13.598c-0.654-0.935-1.316-1.89-1.994-2.895C94.703,508.258,85.42,491.79,79.779,472.445z"/>
<linearGradient id="SVGID_16_" gradientUnits="userSpaceOnUse" x1="53.6436" y1="339.0117" x2="210.645" y2="563.233">
	<stop  offset="0" style="stop-color:#FFFFFF"/>
	<stop  offset="0.3757" style="stop-color:#FDFCFC"/>
	<stop  offset="0.5315" style="stop-color:#F3F3F3"/>
	<stop  offset="0.6465" style="stop-color:#E5E4E4"/>
	<stop  offset="0.7416" style="stop-color:#CFCECE"/>
	<stop  offset="0.8242" style="stop-color:#B5B5B5"/>
	<stop  offset="0.8983" style="stop-color:#979796"/>
	<stop  offset="0.9644" style="stop-color:#757878"/>
	<stop  offset="1" style="stop-color:#606666"/>
</linearGradient>
<path fill="url(#SVGID_16_)" d="M159.197,491.735c-2.811-6.959-4.881-15.059-6.49-23.268c-1.563-8.134-2.658-16.522-3.381-23.989
	c-1.202-12.042-1.505-21.891-1.578-25.301c-0.021-0.024-0.037-0.039-0.058-0.063c-0.66-0.614-1.573-1.572-2.811-2.71
	c-2.404-2.37-5.93-5.606-10.341-9.223c-6.703-5.518-15.425-11.846-25.261-17.077c-0.001,0.035-0.003,0.065-0.004,0.102
	c-0.073,2.604-0.181,6.437-0.181,11.029c0,17.154,1.347,45.736,8.659,69.276c5.794,18.729,16.497,37.296,26.042,51.396
	c8.423,12.504,15.9,21.5,18.161,24.126c6.081,0.87,12.289,1.345,18.609,1.345c4.272,0,8.492-0.221,12.658-0.622
	c-2.608-3.192-6.235-7.807-10.254-13.424C174.998,522.252,165.489,507.354,159.197,491.735z"/>
<linearGradient id="SVGID_17_" gradientUnits="userSpaceOnUse" x1="77.666" y1="322.1895" x2="234.6655" y2="546.4079">
	<stop  offset="0" style="stop-color:#FFFFFF"/>
	<stop  offset="0.3757" style="stop-color:#FDFCFC"/>
	<stop  offset="0.5315" style="stop-color:#F3F3F3"/>
	<stop  offset="0.6465" style="stop-color:#E5E4E4"/>
	<stop  offset="0.7416" style="stop-color:#CFCECE"/>
	<stop  offset="0.8242" style="stop-color:#B5B5B5"/>
	<stop  offset="0.8983" style="stop-color:#979796"/>
	<stop  offset="0.9644" style="stop-color:#757878"/>
	<stop  offset="1" style="stop-color:#606666"/>
</linearGradient>
<path fill="url(#SVGID_17_)" d="M70.605,372.438c0.145,0,0.326,0,0.47,0c10.928,0.052,21.486,2.874,31.239,6.959
	c9.726,4.066,18.612,9.438,26.187,14.825c11.749,8.321,20.261,16.515,23.51,19.831c1.041-0.341,2.495-0.815,4.268-1.448
	c3.896-1.298,9.319-3.218,15.438-5.767c4.863-1.979,10.164-4.319,15.463-6.953c-0.301-0.354-0.62-0.727-0.974-1.144
	c-2.178-2.479-5.35-6.004-9.391-9.961c-8.045-7.973-19.516-17.882-33.021-25.583c-33.318-18.962-57.643-21.222-67.478-21.222
	c-0.746,0-1.403,0.014-1.978,0.035c-6.715,9.469-12.214,19.854-16.227,30.959c0.135-0.009,0.261-0.019,0.398-0.027
	C62.442,372.653,67.179,372.438,70.605,372.438z"/>
<linearGradient id="SVGID_18_" gradientUnits="userSpaceOnUse" x1="112.2974" y1="297.9434" x2="269.2971" y2="522.1622">
	<stop  offset="0" style="stop-color:#FFFFFF"/>
	<stop  offset="0.3757" style="stop-color:#FDFCFC"/>
	<stop  offset="0.5315" style="stop-color:#F3F3F3"/>
	<stop  offset="0.6465" style="stop-color:#E5E4E4"/>
	<stop  offset="0.7416" style="stop-color:#CFCECE"/>
	<stop  offset="0.8242" style="stop-color:#B5B5B5"/>
	<stop  offset="0.8983" style="stop-color:#979796"/>
	<stop  offset="0.9644" style="stop-color:#757878"/>
	<stop  offset="1" style="stop-color:#606666"/>
</linearGradient>
<path fill="url(#SVGID_18_)" d="M181.516,384.026c5.648,5.6,9.671,10.261,11.704,12.721c5.904-3.216,11.597-6.782,16.443-10.625
	c5.327-4.226,9.889-8.919,13.811-13.862c-0.582-0.662-1.329-1.484-2.24-2.499c-2.513-2.713-6.291-6.615-11.101-11.029
	c-9.681-8.839-23.7-19.813-40.929-28.417c-29.966-15.041-58.447-17.893-65.184-18.359c-5.503,4.006-10.697,8.407-15.5,13.206
	c-3.233,3.232-6.279,6.649-9.159,10.205c12.19,0.483,36.272,4.121,67.742,22.063C161.304,365.53,173.172,375.762,181.516,384.026z"
	/>
<linearGradient id="SVGID_19_" gradientUnits="userSpaceOnUse" x1="109.3486" y1="33.4551" x2="266.3536" y2="257.6815">
	<stop  offset="0" style="stop-color:#FFFFFF"/>
	<stop  offset="0.3757" style="stop-color:#FDFCFC"/>
	<stop  offset="0.5315" style="stop-color:#F3F3F3"/>
	<stop  offset="0.6465" style="stop-color:#E5E4E4"/>
	<stop  offset="0.7416" style="stop-color:#CFCECE"/>
	<stop  offset="0.8242" style="stop-color:#B5B5B5"/>
	<stop  offset="0.8983" style="stop-color:#979796"/>
	<stop  offset="0.9644" style="stop-color:#757878"/>
	<stop  offset="1" style="stop-color:#606666"/>
</linearGradient>
<path fill="url(#SVGID_19_)" d="M261.042,248.017c-0.922-0.227-1.717-0.398-2.188-0.398c-0.145,0-0.252,0.054-0.252,0.054
	l-0.011-0.032c-1.796,0.85-4.885,2.19-6.66,2.979c-0.615,0.29-1.086,0.506-1.229,0.569c-0.308,0.118-0.561,0.226-0.777,0.226
	c-0.218,0.055-0.397,0.109-0.614,0.109c-0.434,0.063-0.869,0.063-1.32,0.063c-1.012,0-2.061-0.063-2.802-0.063
	c-0.225,0-0.41,0-0.506,0c-0.47,0.117-1.05,0.235-1.664,0.452c-0.633,0.235-1.247,0.57-1.609,0.85
	c-0.216,0.18-0.614,0.57-1.103,1.084c-0.47,0.506-1.048,1.067-1.698,1.699c-1.284,1.184-2.695,2.423-4.376,3.164
	c-0.687,0.289-1.265,0.506-1.861,0.678c-0.543,0.172-1.086,0.281-1.7,0.281c-0.506,0-1.029-0.109-1.464-0.218
	c-0.471-0.18-0.904-0.343-1.337-0.569c-0.633-0.343-1.176-0.678-1.609-0.913c-0.47-0.217-0.832-0.334-0.905-0.334l-0.107,0.054
	c-0.108,0.063-0.344,0.281-0.597,0.795c-0.181,0.335-0.325,0.516-0.47,0.679c-0.146,0.226-0.325,0.397-0.543,0.623
	c-0.398,0.398-0.939,0.851-1.536,1.419c-1.193,1.067-2.694,2.369-4.176,3.616c-2.983,2.604-5.913,4.927-5.913,4.981l-2.313-2.829
	c0,0,0.506-0.453,1.338-1.13c0.83-0.678,1.933-1.636,3.163-2.667c2.441-2.034,5.242-4.465,6.599-5.767
	c0.36-0.397,0.651-0.678,0.687-0.678c0.392-0.797,0.921-1.498,1.573-1.979c0.687-0.507,1.519-0.795,2.295-0.742
	c1.05,0,1.882,0.398,2.586,0.688c0.65,0.389,1.229,0.731,1.554,0.903c0.362,0.163,0.67,0.281,0.814,0.334
	c0.181,0.063,0.29,0.063,0.361,0.063c0.145,0,0.325,0,0.688-0.117c0.325-0.063,0.832-0.281,1.465-0.516
	c0.614-0.28,1.518-0.903,2.386-1.7c0.886-0.786,1.754-1.635,2.477-2.422c0.524-0.516,0.958-0.913,1.393-1.302
	c0.867-0.741,1.861-1.139,2.693-1.483c0.832-0.271,1.609-0.452,2.006-0.56c0.291-0.054,0.507-0.054,0.724-0.054
	c0.218-0.054,0.434-0.054,0.688-0.054c0.886,0,1.935,0.054,2.802,0.054c0.344,0,0.633,0,0.85,0c0.146-0.036,0.251-0.045,0.319-0.049
	c0.292-0.158,0.711-0.32,1.235-0.574c0.633-0.281,1.393-0.624,2.188-0.967c1.609-0.669,3.397-1.464,4.519-1.98
	c0.615-0.334,1.193-0.389,1.753-0.389c1.05,0.055,2.098,0.281,3.201,0.561c1.085,0.344,2.188,0.741,3.164,1.139
	c1.213,0.518,2.273,1.018,2.91,1.325c1.528-1.389,3.023-2.813,4.483-4.272c14.288-14.26,25.222-31.836,31.649-51.453
	c-0.042-0.018-0.077-0.033-0.121-0.053c-0.759-0.343-1.809-0.795-2.982-1.248c-2.368-0.958-5.352-2.042-7.468-2.549
	c-0.686-0.163-1.409-0.226-2.15-0.226c-2.404,0-4.918,0.787-6.184,1.302c-0.274,0.109-0.48,0.209-0.602,0.272l-0.048,0.035
	l-0.182,0.208c-0.18,0.217-0.488,0.506-0.849,0.904c-0.688,0.787-1.557,1.862-2.549,3.001c-1.917,2.314-4.032,4.972-5.1,6.454
	c-0.289,0.453-0.47,0.787-0.47,0.841c-0.434,0.85-1.302,2.721-2.224,4.637c-0.903,1.988-1.844,4.022-2.26,5.099
	c-0.068,0.219-0.114,0.36-0.145,0.456c-0.002,0.231-0.037,0.34-0.037,0.447l-0.107,0.397c-0.071,0.29-0.145,0.57-0.253,0.904
	c-0.181,0.687-0.435,1.474-0.76,2.386c-0.578,1.753-1.355,3.788-1.935,5.369c-0.397,1.076-0.723,1.925-0.94,2.377
	c-0.145,0.28-0.252,0.515-0.433,0.795c-0.182,0.28-0.416,0.624-0.67,1.021c-0.47,0.678-1.084,1.519-1.771,2.432
	c-1.354,1.871-2.945,3.959-4.303,5.604c-0.903,1.075-1.646,1.979-2.187,2.54c-0.145,0.118-0.254,0.235-0.47,0.397
	c-0.109,0.118-0.218,0.172-0.507,0.29c-0.145,0.054-0.361,0.163-0.724,0.163c-0.308,0-0.379-0.055-0.523-0.055l-0.325-0.054
	c-0.254-0.054-0.579-0.172-0.941-0.226c-0.759-0.226-1.717-0.516-2.729-0.795c-2.006-0.625-4.303-1.42-5.839-2.034
	c-0.434-0.226-0.795-0.397-1.157-0.624c-0.578-0.397-1.013-0.904-1.465-1.419c-0.433-0.561-0.831-1.13-1.265-1.808
	c-0.832-1.302-1.718-2.712-2.478-3.905c-0.47-0.795-0.94-1.528-1.266-1.925c-0.197-0.226-0.813-0.732-1.681-1.302
	c-0.868-0.57-2.007-1.184-3.272-1.817c-2.549-1.185-5.804-2.369-8.93-3.055c-1.085-0.217-1.898-0.334-2.478-0.334
	c-0.615,0-0.903,0.117-1.012,0.172c-0.073,0.054-0.073,0.054-0.181,0.226c-0.037,0.117-0.073,0.335-0.145,0.57
	c-0.037,0.389-0.037,0.849-0.037,1.41c0,0.453,0,0.958,0,1.528c0,0.063,0.037,0.334,0.362,0.85c0.325,0.452,0.832,1.021,1.446,1.582
	c1.318,1.193,3.073,2.495,4.592,3.797c1.03,0.849,1.971,1.753,2.656,2.711c0.398,0.569,0.761,1.247,0.868,2.097
	c0.127,1.075,0.344,2.205,0.344,3.507c0,1.075-0.181,2.269-0.669,3.57c-0.47,1.239-1.266,2.604-2.44,4.185
	c-1.555,2.043-3.489,3.679-5.424,4.809c-1.916,1.139-3.851,1.817-5.676,1.871c-0.904,0-1.826-0.226-2.658-0.786
	c-0.434-0.344-0.688-0.795-0.832-1.139c-0.107-0.397-0.145-0.678-0.145-0.958c0.037-0.688,0.145-1.193,0.326-1.817
	c0.145-0.569,0.361-1.184,0.614-1.753c0.435-1.184,0.939-2.377,1.248-3.109c0,0,0.035-0.226,0.035-0.569
	c0-0.958-0.344-2.712-0.813-4.356c-0.47-1.7-1.084-3.399-1.591-4.583c-0.216-0.516-0.813-1.42-1.536-2.486
	c-0.759-1.085-1.744-2.269-2.767-3.453c-2.105-2.387-4.618-4.701-6.481-5.668c-0.83-0.452-1.744-0.677-2.729-0.677
	c-1.491,0-3.201,0.505-4.918,1.302c-1.708,0.795-3.417,1.861-4.907,3.054c-0.553,0.453-1.348,1.42-2.116,2.658
	c-0.768,1.248-1.528,2.785-2.223,4.42c-1.456,3.227-2.73,6.68-3.789,8.94c-0.288,0.624-0.541,1.193-0.866,1.7
	c-0.182,0.226-0.335,0.452-0.589,0.741c-0.541,0.56-1.273,1.121-2.105,1.753c-0.84,0.615-1.826,1.356-2.775,2.088
	c-1.961,1.419-3.968,3.119-4.945,4.303c-0.804,0.967-1.428,2.721-1.753,4.248c-0.326,1.528-0.397,2.83-0.397,3.109l-3.679-0.117
	c0-0.055,0.072-1.518,0.435-3.39c0.407-1.925,1.021-4.239,2.549-6.174c1.093-1.302,2.513-2.549,4.041-3.733
	c1.536-1.184,3.1-2.377,4.302-3.281c0.795-0.561,1.456-1.13,1.745-1.41l0.217-0.344c0.154-0.289,0.334-0.678,0.552-1.139
	c0.434-0.958,0.948-2.259,1.526-3.616c1.13-2.829,2.514-6.228,4.077-9.002c1.021-1.862,2.15-3.508,3.535-4.638
	c1.671-1.301,3.605-2.549,5.641-3.516c2.042-0.958,4.185-1.572,6.444-1.572c1.491,0,3.063,0.271,4.447,1.067
	c1.962,1.021,3.896,2.721,5.712,4.591c1.854,1.809,3.534,3.842,4.8,5.605c0.851,1.184,1.501,2.259,1.898,3.217
	c0.579,1.302,1.267,3.11,1.79,4.99c0.506,1.862,0.939,3.725,0.939,5.37c0,0.624-0.071,1.193-0.289,1.808
	c-0.252,0.741-0.578,1.536-0.939,2.386c-0.341,0.84-0.66,1.617-0.843,2.238c0.827-0.055,2.208-0.489,3.646-1.334
	c1.518-0.904,3.127-2.269,4.355-3.905c1.031-1.301,1.609-2.386,1.935-3.227c0.325-0.913,0.398-1.527,0.398-2.269
	c0-0.904-0.145-1.862-0.289-3.109l-0.073-0.171c-0.071-0.118-0.181-0.281-0.361-0.507c-0.361-0.46-0.94-0.967-1.609-1.527
	c-1.373-1.193-3.163-2.495-4.699-3.905c-1.013-0.904-1.916-1.872-2.586-3.055c-0.361-0.633-0.65-1.419-0.65-2.269
	c0-0.515,0-1.021,0-1.528c0-0.741,0-1.41,0.145-2.151c0.107-0.741,0.361-1.527,0.958-2.26c0.362-0.452,0.868-0.849,1.41-1.139
	c0.795-0.333,1.646-0.452,2.549-0.452c0.958,0,2.007,0.118,3.236,0.398c5.243,1.193,10.305,3.344,13.415,5.378
	c1.048,0.624,1.879,1.302,2.549,2.034c0.759,0.967,1.518,2.206,2.367,3.57c0.796,1.356,1.628,2.721,2.315,3.679
	c0.486,0.615,0.958,1.076,0.993,1.076c0.036,0,0.217,0.117,0.47,0.226c0.254,0.109,0.579,0.281,0.941,0.398
	c0.74,0.28,1.681,0.614,2.62,0.958c1.825,0.599,3.808,1.146,4.891,1.437c0.12-0.137,0.253-0.293,0.388-0.479
	c0.67-0.732,1.501-1.808,2.441-2.938c1.826-2.323,3.869-5.089,4.882-6.626c0.289-0.398,0.505-0.731,0.541-0.85
	c0.236-0.452,0.777-1.916,1.394-3.562c0.577-1.645,1.283-3.507,1.753-4.98c0.289-0.904,0.542-1.754,0.578-1.979v-0.054l0.003,0.001
	c0.005-0.351,0.038-0.526,0.105-0.688c0.036-0.163,0.109-0.334,0.146-0.506c0.145-0.398,0.289-0.795,0.505-1.248
	c0.398-0.958,0.923-2.097,1.465-3.281c1.084-2.377,2.296-4.872,2.729-5.83c0.182-0.398,0.362-0.732,0.651-1.13
	c0.289-0.398,0.579-0.85,0.976-1.365c0.741-0.958,1.646-2.151,2.604-3.335c1.916-2.378,3.958-4.755,5.079-5.994
	c0.344-0.397,0.562-0.632,0.777-0.849c0.073-0.054,0.145-0.118,0.325-0.235c0.181-0.108,0.325-0.163,0.507-0.28
	c0.181-0.117,0.398-0.226,0.65-0.334c0.524-0.171,1.212-0.452,1.971-0.687c1.573-0.506,3.615-0.958,5.785-0.958
	c0.995,0,2.007,0.109,3.037,0.344c2.477,0.614,5.497,1.753,7.936,2.711c1.113,0.438,2.098,0.847,2.852,1.168
	c3.48-11.748,5.375-24.177,5.375-37.054c0-35.994-14.534-68.48-38.127-92.091C261.681,47.65,248.8,38.697,234.559,32.201
	c0.274,1.306,0.641,2.735,1.138,3.91c0.397,1.076,0.903,1.925,1.337,2.378c0.616,0.561,1.719,1.527,3.056,2.658
	c1.283,1.138,2.803,2.44,4.339,3.904c3.02,3,6.075,6.625,7.286,10.811c0.868,3.227,2.585,6.797,4.121,9.681
	c1.556,2.883,2.983,5.089,3.272,5.541l0.071,0.064l-3.055,2.033c-0.035,0-1.463-2.205-3.182-5.261
	c-1.699-3.173-3.67-7.195-4.754-11.037c-0.669-2.323-2.26-4.754-4.266-7.023c-1.972-2.26-4.305-4.303-6.238-5.939
	c-1.301-1.13-2.423-2.097-3.235-2.883c-0.977-1.021-1.627-2.269-2.151-3.571c-0.543-1.356-0.94-2.775-1.229-4.077
	c-0.249-1.122-0.423-2.147-0.544-2.97c-3.325-1.381-6.721-2.623-10.179-3.729c-0.471,0.838-1.033,1.781-1.625,2.632
	c-0.47,0.732-0.976,1.41-1.519,1.97c-0.525,0.516-1.066,0.795-1.646,0.967c-0.542,0.172-1.14,0.28-1.754,0.397
	c-1.266,0.172-2.765,0.281-4.366,0.335c-3.199,0.172-6.986,0.29-10.223,0.849c-2.368,0.453-3.571,1.139-4.41,1.872
	c-0.805,0.732-1.24,1.582-1.745,2.604c-0.325,0.677-0.659,1.419-1.274,2.151c-0.325,0.451-0.804,0.786-1.275,1.021
	c-0.479,0.163-0.984,0.281-1.419,0.281c-0.695-0.064-1.312-0.172-1.935-0.398c-0.578-0.226-1.13-0.453-1.672-0.732
	c-1.093-0.569-2.115-1.302-2.91-1.808c-0.516-0.343-0.949-0.633-1.13-0.687h-0.073c-0.108-0.054-0.262-0.054-0.479-0.054
	c-0.686,0-1.78,0.171-2.91,0.343c-1.165,0.163-2.332,0.397-3.425,0.397c-0.397,0-0.759-0.063-1.167-0.117
	c-0.505-0.118-0.939-0.226-1.382-0.452c-0.397-0.226-0.723-0.515-0.94-0.732c-0.443-0.461-0.624-0.687-1.382-1.247
	c-0.516-0.344-1.275-0.795-2.441-1.356c-1.383-0.741-2.693-1.03-3.969-1.03c-1.898,0-3.787,0.687-5.649,1.817
	c-1.853,1.13-3.643,2.721-5.243,4.474c-0.036,0.055-0.253,0.334-0.47,0.796c-0.217,0.389-0.479,1.012-0.732,1.69
	c-0.542,1.419-1.13,3.282-1.744,5.433c-1.202,4.356-2.513,9.906-3.715,15.619c-2.44,11.498-4.628,23.665-5.46,28.474
	c-0.253,1.355-0.37,2.151-0.37,2.151l-0.109,0.507l-0.325,0.397c0,0.054-2.838,3.29-5.351,5.776
	c-0.615,0.624-1.347,0.967-2.079,1.13c-0.76,0.226-1.528,0.344-2.323,0.344c-2.296,0-4.881-0.687-7.322-1.646
	c-2.404-0.958-4.592-2.26-6.011-4.077c-0.651-0.841-1.274-1.871-1.925-3.109c-0.624-1.184-1.311-2.55-2.042-3.906
	c-1.492-2.774-3.236-5.604-5.171-7.476c-1.274-1.247-2.585-2.033-3.896-2.259c-0.615-0.055-1.202-0.109-1.745-0.109
	c-2.549,0-4.483,0.958-6.228,2.711c-1.745,1.809-3.173,4.411-4.186,7.521c-1.021,3.064-2.549,5.271-4.447,6.689
	c-1.853,1.411-4.004,1.971-6.002,1.916c-1.238,0-2.44-0.163-3.57-0.505c-1.456-0.453-2.693-0.678-3.823-0.678
	c-0.95,0-1.827,0.172-2.73,0.506c-0.95,0.397-1.971,0.967-3.137,1.871c-1.817,1.464-3.932,1.98-5.713,1.925
	c-0.654,0-1.258-0.064-1.826-0.152c-3.899,9.608-6.689,19.781-8.199,30.377c0.553,0.097,1.208,0.173,1.98,0.173
	c1.672-0.063,3.778-0.343,6.219-1.365c2.079-0.967,4.194-1.301,6.228-1.301c5.099,0,9.618,2.377,12.745,5.207
	c1.637,1.473,3.318,3.335,5.099,5.152c1.745,1.808,3.57,3.57,5.279,4.872c1.13,0.85,2.224,1.465,3.172,1.808
	c1.998,0.615,4.077,1.646,6.002,2.83c1.899,1.239,3.607,2.604,4.81,4.185c0.768,1.021,1.382,2.205,1.382,3.625
	c0,1.021-0.397,1.925-0.84,2.657c-0.47,0.796-1.048,1.474-1.672,2.152c-1.239,1.301-2.694,2.603-3.752,3.679
	c-0.723,0.687-1.274,1.356-1.382,1.645l-0.055,0.082c0.032,0.14,0.112,0.45,0.271,0.822c0.262,0.507,0.587,1.193,1.021,1.862
	c0.841,1.482,1.899,3.119,2.658,4.872c0.516,1.184,0.913,2.377,0.913,3.679c0,1.022-0.145,2.441-0.362,4.194
	c-0.189,1.754-0.479,3.842-0.732,5.993c-0.542,4.248-1.093,8.831-1.093,11.435c0,0.741,0.072,1.301,0.109,1.528
	c0.515,2.323,2.44,10.187,4.112,15.899c0.587,1.871,1.094,3.517,1.537,4.592c0.222,0.539,0.408,0.941,0.478,1.036l0.029-0.022
	c0.217,0.343,0.732,0.903,1.347,1.591c0.624,0.677,1.383,1.464,2.188,2.377c1.636,1.753,3.498,3.733,5.026,5.541
	c1.021,1.193,1.889,2.323,2.477,3.29c1.094,1.7,2.513,4.465,3.679,6.788c1.194,2.378,2.106,4.303,2.106,4.303l0.108,0.226
	l0.036,0.28l3.24,21.087c14.328,6.619,30.052,10.719,46.618,11.708c2.605-0.147,5.228-0.23,7.87-0.23
	c2.641,0,5.261,0.083,7.864,0.23c29.202-1.747,55.774-13.135,76.653-30.983C263.906,249.088,262.376,248.467,261.042,248.017z
	 M247.989,149.255c0.417-0.795,0.813-1.302,0.887-1.419l0.181-0.227l0.253-0.163l7.357-4.754l0.939-0.632l0.958,0.515
	c0.073,0.054,0.761,0.452,1.664,1.184c0.922,0.688,2.006,1.699,2.838,3.001c0.562,0.904,0.994,2.042,1.031,3.29
	c0,0.452-0.109,0.958-0.254,1.464c-0.523,1.591-1.609,2.893-2.928,4.077c-1.338,1.13-2.947,2.097-4.611,2.721
	c-1.139,0.452-2.26,0.732-3.471,0.732c-0.759,0-1.519-0.118-2.26-0.453c-0.722-0.28-1.409-0.849-1.916-1.527
	c-1.066-1.41-1.501-2.947-1.465-4.303C247.193,151.288,247.592,150.104,247.989,149.255z M192.073,104.601v0.055l0.072,0.163
	c0.036,0.235,0.109,0.452,0.181,0.795c0.181,0.624,0.442,1.528,0.768,2.603c0.688,2.043,1.781,4.529,3.021,6.229
	c0.84,1.13,1.717,1.871,2.404,2.033c0.289,0.055,0.614,0.118,0.984,0.118c0.868,0,1.962-0.226,3.128-0.732
	c1.167-0.452,2.368-1.084,3.462-1.754c2.188-1.302,3.933-2.784,4.294-3.064l0.035-0.117l2.404,2.784
	c-0.071,0.054-4.039,3.561-8.559,5.486c-1.528,0.624-3.129,1.076-4.765,1.076c-0.659,0-1.31-0.109-2.006-0.289
	c-1.854-0.561-3.236-1.862-4.33-3.336c-1.094-1.528-1.971-3.227-2.622-4.872c-1.382-3.335-2.042-6.327-2.042-6.39L192.073,104.601z
	 M151.803,141.391c0.434-1.03,0.869-2.667,1.202-4.42c0.326-1.7,0.615-3.57,0.869-5.035c0.189-1.022,0.333-1.872,0.551-2.549
	c0.253-0.959,0.795-2.206,1.347-3.508c0.579-1.356,1.166-2.775,1.563-3.905c0.253-0.795,0.434-1.419,0.434-1.646v-0.054v-0.109
	v-0.117c-0.036-0.172-0.036-0.461-0.109-0.795c-0.072-0.624-0.252-1.419-0.505-1.925c-0.542-1.185-0.914-2.711-0.914-4.303
	c0-1.066,0.181-2.205,0.732-3.335c0.47-0.904,1.13-1.528,1.889-2.097c0.769-0.624,1.636-1.184,2.55-1.69
	c1.826-1.084,3.679-1.935,4.881-2.386c0.434-0.109,0.913-0.217,1.383-0.217c0.696,0,1.419,0.217,1.97,0.614
	c0.506,0.398,0.832,0.904,1.084,1.356c0.479,0.904,0.587,1.753,0.587,2.495c0,0.741-0.072,1.591-0.216,2.604
	c-0.109,1.075-0.253,2.259-0.443,3.561c-0.252,2.441-0.831,8.723-0.831,11.778c0,0.172,0,0.398,0,0.516
	c0.036,1.121,0.505,2.875,1.093,4.465c0.614,1.528,1.311,2.947,1.672,3.562c0.29,0.515,0.913,1.537,1.419,2.721
	c0.542,1.247,1.021,2.774,1.021,4.528c0,0.506-0.036,1.013-0.144,1.527c-0.146,1.022-0.588,1.925-1.094,2.604
	c-0.587,0.679-1.238,1.13-1.862,1.419c-1.274,0.615-2.396,0.669-2.91,0.669h-0.29l-0.036-0.054h-0.036
	c-0.515-0.055-0.913-0.163-1.419-0.334c-0.443-0.118-0.949-0.281-1.456-0.516c-1.058-0.334-2.188-0.732-3.172-1.012
	c-0.651-0.108-1.239-0.226-1.672-0.226h-0.145c-0.072,0-0.479,0.117-1.021,0.452c-0.507,0.334-1.203,0.849-1.862,1.474
	c-1.383,1.301-2.875,2.883-4.366,4.302c-0.985,0.958-1.925,1.809-2.983,2.368c-0.588,0.344-1.274,0.633-2.116,0.633
	c-0.542,0-1.13-0.181-1.6-0.453c-0.506-0.289-0.913-0.74-1.202-1.193c-0.398-0.687-0.587-1.41-0.587-2.151
	c0-0.958,0.334-1.808,0.732-2.549c0.397-0.741,0.949-1.411,1.492-1.98c1.093-1.247,2.368-2.377,3.317-3.398
	C151.216,142.403,151.659,141.779,151.803,141.391z M138.588,126.558c0.687-1.021,1.564-1.925,2.395-2.775
	c1.681-1.645,3.281-2.829,3.318-2.829l0.579-0.453l0.768,0.118c0.542,0.054,1.021,0.271,1.455,0.56
	c0.435,0.289,0.768,0.561,1.094,0.958c0.615,0.687,1.13,1.474,1.527,2.386c0.805,1.809,1.311,3.905,1.311,5.822
	c0,0.795-0.072,1.591-0.325,2.323c-0.217,0.795-0.624,1.527-1.311,2.096c-1.274,1.076-2.802,1.42-4.338,1.42
	c-1.492,0-2.983-0.398-4.33-1.139c-1.347-0.742-2.549-1.862-3.164-3.453c-0.145-0.452-0.262-0.958-0.262-1.41
	C137.341,128.763,137.928,127.633,138.588,126.558z M159.92,196.168c-0.181,1.591-0.433,3.453-0.985,5.098
	c-0.361,1.076-0.759,2.097-1.636,2.948c-0.687,0.614-1.527,1.193-2.477,1.753c-0.949,0.56-1.998,1.13-3.092,1.645
	c-2.223,1.13-4.556,2.152-6.336,2.938c-1.166,0.515-2.115,0.903-2.44,1.075c-0.181,0.055-0.66,0.452-1.058,1.022
	c-0.397,0.569-0.769,1.301-0.949,1.871c-0.126,0.292-0.163,0.518-0.172,0.612c0.12,0.283,0.44,0.865,0.795,1.422
	c0.361,0.57,0.76,1.13,0.904,1.356l0.081,0.063l0.326,0.453l0.036,0.506l0.115,1.668c0.53,0.875,1.786,3.025,2.724,5.238
	c0.805,1.916,2.296,5.432,3.317,7.521c0.326,0.688,0.615,1.248,0.723,1.365c0.218,0.39,0.697,1.185,1.311,2.26
	c0.624,1.076,1.347,2.432,2.116,3.734c1.491,2.666,2.983,5.387,3.498,6.237c0.542,1.012,1.085,2.423,1.564,3.67
	c0.47,1.248,0.795,2.206,0.795,2.206l-3.49,1.193c0,0-0.072-0.226-0.226-0.624c-0.109-0.39-0.289-0.904-0.507-1.474
	c-0.433-1.13-0.984-2.549-1.382-3.164c-0.696-1.301-3.752-6.797-5.532-9.961c-0.625-1.022-1.094-1.871-1.239-2.097
	c-0.289-0.452-0.588-1.022-0.949-1.753c-0.362-0.741-0.769-1.646-1.167-2.549c-0.795-1.808-1.672-3.851-2.223-5.152
	c-0.868-2.152-2.287-4.466-2.621-4.981l-0.072-0.108l-0.217-0.398l-0.072-0.452l-0.112-1.623c-0.349-0.502-0.913-1.315-1.379-2.111
	c-0.253-0.452-0.47-0.904-0.66-1.419c-0.109-0.334-0.145-0.678-0.145-0.967c0-0.506,0.109-0.958,0.217-1.464
	c0.153-0.452,0.334-0.904,0.551-1.356c0.434-0.967,1.022-1.872,1.745-2.667c0.479-0.505,1.021-1.021,1.717-1.355
	c0.398-0.226,1.013-0.452,1.781-0.795c0.804-0.334,1.744-0.786,2.729-1.238c2.042-0.851,4.411-1.989,6.264-3.001
	c1.203-0.688,2.224-1.356,2.693-1.753c0.072-0.063,0.435-0.633,0.66-1.419c0.253-0.787,0.47-1.817,0.614-2.83
	c0.29-2.043,0.398-4.131,0.398-4.701c0-0.678-0.036-2.033-0.108-3.335c-0.07-1.27-0.139-2.513-0.176-3.002l-0.005,0.001
	l-0.072-0.172c-0.037-0.108-0.108-0.343-0.217-0.624c-0.217-0.452-0.551-1.13-0.876-1.808c-0.76-1.474-1.673-3.173-2.513-4.474
	c-0.542-0.904-1.058-1.646-1.347-1.98c-0.832-1.021-1.274-2.088-1.239-3.056c-0.036-0.732,0.181-1.301,0.443-1.699
	c0.217-0.397,0.434-0.624,0.542-0.732l0.217-0.172l0.289-0.118c0.154-0.054,4.628-1.979,13.623-3.109
	c2.73-0.343,5.279-1.925,7.575-4.13c2.296-2.269,4.33-5.035,6.083-7.53c1.166-1.645,2.214-3.163,3.272-4.302
	c1.202-1.356,2.767-3.679,4.33-6.219c1.572-2.495,3.136-5.152,4.52-7.304c0.949-1.474,1.781-2.657,2.621-3.453
	c0.696-0.742,1.564-1.085,2.404-1.248c0.841-0.172,1.709-0.226,2.621-0.226c1.781,0,3.823,0.172,6.047,0.172
	c3.645,0,7.648-0.452,11.354-2.657c3.091-1.872,6.743-5.722,9.652-9.229c2.875-3.516,5.063-6.734,5.496-7.421l0.108-0.109
	l3.056,1.979c0,0.064-2.188,3.281-5.279,7.187c-3.09,3.851-7.104,8.262-11.135,10.702c-4.593,2.712-9.32,3.218-13.253,3.218
	c-2.404,0-4.483-0.163-6.047-0.163c-0.804,0-1.455,0.054-1.861,0.109c-0.435,0.117-0.579,0.235-0.579,0.235
	c-0.325,0.334-0.876,1.012-1.455,1.916c-0.624,0.904-1.312,1.989-2.043,3.172c-1.492,2.378-3.128,5.152-4.691,7.584
	c-1.094,1.645-2.115,3.055-3.173,4.194c-1.201,1.301-2.874,3.905-4.882,6.616c-2.033,2.711-4.438,5.604-7.42,7.755
	c-2.007,1.411-4.302,2.495-6.888,2.767c-6.272,0.813-10.154,1.971-11.767,2.523c0.057,0.11,0.13,0.235,0.26,0.37
	c0.479,0.56,0.949,1.247,1.463,2.042c0.507,0.851,1.049,1.754,1.564,2.712c1.058,1.862,2.034,3.796,2.513,5.035
	c0.145,0.398,0.252,0.624,0.325,1.13c0.072,0.742,0.145,1.989,0.217,3.398c0.036,1.302,0.072,2.658,0.072,3.453
	C160.102,193.176,160.065,194.532,159.92,196.168z"/>
<linearGradient id="SVGID_20_" gradientUnits="userSpaceOnUse" x1="153.937" y1="268.7808" x2="310.9331" y2="492.9944">
	<stop  offset="0" style="stop-color:#FFFFFF"/>
	<stop  offset="0.3757" style="stop-color:#FDFCFC"/>
	<stop  offset="0.5315" style="stop-color:#F3F3F3"/>
	<stop  offset="0.6465" style="stop-color:#E5E4E4"/>
	<stop  offset="0.7416" style="stop-color:#CFCECE"/>
	<stop  offset="0.8242" style="stop-color:#B5B5B5"/>
	<stop  offset="0.8983" style="stop-color:#979796"/>
	<stop  offset="0.9644" style="stop-color:#757878"/>
	<stop  offset="1" style="stop-color:#606666"/>
</linearGradient>
<path fill="url(#SVGID_20_)" d="M173.061,287.3c-22.062,1.253-42.655,7.989-60.432,18.879c12.555,1.647,35.478,6.124,59.567,18.134
	c28.56,14.342,48.338,34.653,55.303,42.452c1.113-1.644,2.185-3.302,3.171-4.976c5.207-8.77,8.768-17.827,11.174-26.088
	c4.309-14.65,5.01-26.807,5.14-30.429c-17.419-10.349-37.452-16.752-58.897-17.973c-2.485,0.135-4.988,0.208-7.507,0.208
	C178.056,287.508,175.551,287.435,173.061,287.3z"/>
<linearGradient id="SVGID_21_" gradientUnits="userSpaceOnUse" x1="25.7954" y1="-50.5693" x2="286.1234" y2="321.2176">
	<stop  offset="0" style="stop-color:#202959"/>
	<stop  offset="1" style="stop-color:#1E2651"/>
</linearGradient>
<path fill="url(#SVGID_21_)" d="M131.52,98.427c-0.036,0.055-0.145,0.172-0.47,0.227c-0.335,0.108-0.805,0.163-1.347,0.163
	c-1.609,0-3.896-0.506-5.939-1.355c-2.043-0.787-3.823-1.98-4.52-2.884c-0.542-0.732-1.31-2.151-2.178-3.851
	c-0.443-0.732-0.84-1.582-1.311-2.431l-4.917-1.248c0.542,0.85,1.058,1.809,1.564,2.721c0.732,1.356,1.419,2.722,2.042,3.906
	c0.651,1.238,1.274,2.268,1.925,3.109c0.181,0.226,0.362,0.461,0.551,0.624l16.451,4.194c0.262-0.181,0.516-0.344,0.732-0.57
	c2.513-2.486,5.351-5.722,5.351-5.776l0.325-0.397l0.109-0.507l-3.707-0.903C135.271,94.459,133.265,96.674,131.52,98.427z"/>
<linearGradient id="SVGID_22_" gradientUnits="userSpaceOnUse" x1="-8.0093" y1="-26.8979" x2="252.3213" y2="344.8927">
	<stop  offset="0" style="stop-color:#202959"/>
	<stop  offset="1" style="stop-color:#1E2651"/>
</linearGradient>
<path fill="url(#SVGID_22_)" d="M63.319,80.087c-0.289,0.507-1.925,3.344-1.925,3.344l6.698,1.637
	c1.491-2.604,3.127-5.144,4.8-7.638l-6.734-1.7C66.157,75.73,63.608,79.581,63.319,80.087z"/>
<linearGradient id="SVGID_23_" gradientUnits="userSpaceOnUse" x1="45.0923" y1="-64.0757" x2="305.4135" y2="307.7016">
	<stop  offset="0" style="stop-color:#202959"/>
	<stop  offset="1" style="stop-color:#1E2651"/>
</linearGradient>
<path fill="url(#SVGID_23_)" d="M169.647,103.914c-0.551-0.397-1.274-0.614-1.97-0.614c-0.471,0-0.95,0.108-1.383,0.217
	c-1.202,0.452-3.055,1.302-4.881,2.386c-0.914,0.506-1.781,1.067-2.55,1.69c-0.145,0.118-0.289,0.226-0.433,0.344l4.7,1.184
	c0.434-0.28,0.904-0.506,1.347-0.732c1.194-0.624,2.396-1.13,3.02-1.365v-0.054c0.108,0.235,0.181,0.624,0.145,0.795
	c0.037,0.397-0.037,1.193-0.181,2.206c0,0.054,0,0.171-0.036,0.226l3.607,0.913c0.036-0.235,0.072-0.515,0.072-0.741
	c0.145-1.013,0.216-1.862,0.216-2.604c0-0.742-0.108-1.591-0.587-2.495C170.479,104.818,170.153,104.312,169.647,103.914z"/>
<linearGradient id="SVGID_24_" gradientUnits="userSpaceOnUse" x1="5.2749" y1="-36.1963" x2="265.598" y2="335.5836">
	<stop  offset="0" style="stop-color:#202959"/>
	<stop  offset="1" style="stop-color:#1E2651"/>
</linearGradient>
<path fill="url(#SVGID_24_)" d="M87.68,89.036c-0.108,0.334-0.216,0.615-0.325,0.904l3.561,0.904
	c0.118-0.226,0.19-0.452,0.262-0.688c0.94-2.874,2.251-5.368,3.824-7.123l-3.896-0.967C89.687,84.046,88.557,86.433,87.68,89.036z"
	/>
<linearGradient id="SVGID_25_" gradientUnits="userSpaceOnUse" x1="128.2295" y1="-122.2969" x2="388.5533" y2="249.484">
	<stop  offset="0" style="stop-color:#202959"/>
	<stop  offset="1" style="stop-color:#1E2651"/>
</linearGradient>
<path fill="url(#SVGID_25_)" d="M316.958,139.122l-6.87-1.754c0.289,2.992,0.507,5.993,0.615,9.048l6.689,1.699
	c-0.036-2.54-0.145-5.089-0.325-7.575C317.03,140.089,316.994,139.573,316.958,139.122z"/>
<linearGradient id="SVGID_26_" gradientUnits="userSpaceOnUse" x1="81.084" y1="-89.2769" x2="341.4032" y2="282.4976">
	<stop  offset="0" style="stop-color:#202959"/>
	<stop  offset="1" style="stop-color:#1E2651"/>
</linearGradient>
<path fill="url(#SVGID_26_)" d="M225.499,122.201c-0.632,0.732-1.247,1.474-1.897,2.206l3.977,1.021
	c0.47-0.569,0.905-1.085,1.302-1.591c1.935-2.432,3.49-4.583,4.412-5.885l-3.832-0.967
	C228.483,118.404,227.09,120.275,225.499,122.201z"/>
<linearGradient id="SVGID_27_" gradientUnits="userSpaceOnUse" x1="66.8306" y1="-79.2827" x2="327.1384" y2="292.4754">
	<stop  offset="0" style="stop-color:#202959"/>
	<stop  offset="1" style="stop-color:#1E2651"/>
</linearGradient>
<path fill="url(#SVGID_27_)" d="M209.292,111.896c-0.795,0.624-1.925,1.419-3.199,2.214c-1.094,0.669-2.295,1.302-3.462,1.754
	c-1.166,0.506-2.26,0.732-3.128,0.732c-0.37,0-0.695-0.063-0.984-0.118c-0.688-0.163-1.564-0.903-2.404-2.033
	c-1.239-1.7-2.333-4.186-3.021-6.229c-0.035-0.163-0.071-0.28-0.107-0.452l-4.158-1.012c0.335,1.184,0.876,3.055,1.717,5.025
	c0.651,1.645,1.528,3.344,2.622,4.872c0.036,0,0.036,0.064,0.071,0.064l10.522,2.657c0.182-0.054,0.325-0.117,0.507-0.172
	c4.52-1.925,8.487-5.432,8.559-5.486l-1.029-1.193L209.292,111.896z"/>
<linearGradient id="SVGID_28_" gradientUnits="userSpaceOnUse" x1="127.5757" y1="166.46" x2="326.7463" y2="450.9051">
	<stop  offset="0" style="stop-color:#202959"/>
	<stop  offset="1" style="stop-color:#1E2651"/>
</linearGradient>
<path fill="url(#SVGID_28_)" d="M241.844,335.701c-0.182,0.614-0.362,1.229-0.543,1.861l6.436,1.646
	c0.777-2.385,1.392-4.754,1.97-7.015l-6.471-1.646C242.818,332.248,242.349,333.949,241.844,335.701z"/>
<linearGradient id="SVGID_29_" gradientUnits="userSpaceOnUse" x1="55.0356" y1="217.2549" x2="254.2141" y2="501.7112">
	<stop  offset="0" style="stop-color:#202959"/>
	<stop  offset="1" style="stop-color:#1E2651"/>
</linearGradient>
<path fill="url(#SVGID_29_)" d="M113.207,298.061c-0.913,0.563-2.802,1.7-3.39,2.026c-0.76,0.453-4.845,3.057-4.845,3.057
	l8.922,2.278c3.064-1.883,6.228-3.58,9.473-5.153l-9.689-2.442C113.531,297.881,113.351,297.991,113.207,298.061z"/>
<linearGradient id="SVGID_30_" gradientUnits="userSpaceOnUse" x1="154.5005" y1="147.6206" x2="353.6616" y2="432.0522">
	<stop  offset="0" style="stop-color:#202959"/>
	<stop  offset="1" style="stop-color:#1E2651"/>
</linearGradient>
<path fill="url(#SVGID_30_)" d="M296.168,343.962l-9.69-2.494c1.103,1.591,2.188,3.108,3.218,4.754
	c0.905,1.411,1.809,2.822,2.693,4.304l8.914,2.205c-1.446-2.71-2.984-5.368-4.628-7.972
	C296.494,344.47,296.313,344.181,296.168,343.962z"/>
<linearGradient id="SVGID_31_" gradientUnits="userSpaceOnUse" x1="148.9771" y1="151.4595" x2="348.1578" y2="435.9191">
	<stop  offset="0" style="stop-color:#202959"/>
	<stop  offset="1" style="stop-color:#1E2651"/>
</linearGradient>
<path fill="url(#SVGID_31_)" d="M284.417,340.963c-0.56,1.752-1.355,4.066-2.368,6.904l6.473,1.646
	c0.434-1.192,0.849-2.278,1.174-3.291c-1.029-1.646-2.115-3.163-3.218-4.754L284.417,340.963z"/>
<path fill="#CACCD0" d="M241.301,337.563l-98.97-24.966c-5.894-1.807-11.426-3.108-16.379-4.176l-12.058-2.999
	c3.064-1.883,6.228-3.58,9.473-5.153l119.869,30.279c-0.417,1.7-0.887,3.401-1.392,5.153
	C241.662,336.315,241.481,336.93,241.301,337.563 M282.049,347.867l-34.313-8.659c0.777-2.385,1.392-4.754,1.97-7.015l34.711,8.77
	C283.857,342.715,283.062,345.029,282.049,347.867 M292.389,350.525l-3.867-1.013c0.434-1.192,0.849-2.278,1.174-3.291
	C290.601,347.633,291.504,349.044,292.389,350.525"/>
<linearGradient id="SVGID_32_" gradientUnits="userSpaceOnUse" x1="51.5293" y1="-54.4541" x2="298.4447" y2="298.1777">
	<stop  offset="0" style="stop-color:#CACCD0"/>
	<stop  offset="0.2489" style="stop-color:#C5C7CB"/>
	<stop  offset="0.4489" style="stop-color:#B7BABD"/>
	<stop  offset="0.6318" style="stop-color:#A1A3A5"/>
	<stop  offset="0.8046" style="stop-color:#838687"/>
	<stop  offset="0.9688" style="stop-color:#616666"/>
	<stop  offset="1" style="stop-color:#595F5F"/>
</linearGradient>
<path fill="url(#SVGID_32_)" d="M167.496,106.97v0.054c-0.624,0.235-1.826,0.742-3.02,1.365c-0.442,0.226-0.913,0.452-1.347,0.732
	l4.294,1.076c0.036-0.055,0.036-0.172,0.036-0.226c0.144-1.013,0.217-1.808,0.181-2.206
	C167.677,107.593,167.604,107.205,167.496,106.97z"/>
<linearGradient id="SVGID_33_" gradientUnits="userSpaceOnUse" x1="32.9019" y1="-41.3921" x2="279.7996" y2="311.2144">
	<stop  offset="0" style="stop-color:#CACCD0"/>
	<stop  offset="0.2489" style="stop-color:#C5C7CB"/>
	<stop  offset="0.4489" style="stop-color:#B7BABD"/>
	<stop  offset="0.6318" style="stop-color:#A1A3A5"/>
	<stop  offset="0.8046" style="stop-color:#838687"/>
	<stop  offset="0.9688" style="stop-color:#616666"/>
	<stop  offset="1" style="stop-color:#595F5F"/>
</linearGradient>
<path fill="url(#SVGID_33_)" d="M115.755,88.295c0.47,0.849,0.868,1.699,1.311,2.431c0.868,1.699,1.636,3.118,2.178,3.851
	c0.697,0.904,2.477,2.097,4.52,2.884c2.043,0.849,4.33,1.355,5.939,1.355c0.542,0,1.012-0.055,1.347-0.163
	c0.325-0.055,0.434-0.172,0.47-0.227c1.745-1.753,3.752-3.968,4.664-4.98L115.755,88.295z"/>
<linearGradient id="SVGID_34_" gradientUnits="userSpaceOnUse" x1="17.2852" y1="-30.4355" x2="264.1568" y2="322.1338">
	<stop  offset="0" style="stop-color:#CACCD0"/>
	<stop  offset="0.2489" style="stop-color:#C5C7CB"/>
	<stop  offset="0.4489" style="stop-color:#B7BABD"/>
	<stop  offset="0.6318" style="stop-color:#A1A3A5"/>
	<stop  offset="0.8046" style="stop-color:#838687"/>
	<stop  offset="0.9688" style="stop-color:#616666"/>
	<stop  offset="1" style="stop-color:#595F5F"/>
</linearGradient>
<path fill="url(#SVGID_34_)" d="M114.445,93.673c-0.624-1.184-1.311-2.55-2.042-3.906c-0.507-0.912-1.022-1.871-1.564-2.721
	l-15.836-4.013c-1.573,1.754-2.884,4.249-3.824,7.123c-0.072,0.236-0.145,0.462-0.262,0.688l26.006,6.563
	c-0.189-0.163-0.371-0.398-0.551-0.624C115.719,95.941,115.096,94.911,114.445,93.673z"/>
<linearGradient id="SVGID_35_" gradientUnits="userSpaceOnUse" x1="50.5342" y1="-53.7275" x2="297.4175" y2="298.8584">
	<stop  offset="0" style="stop-color:#CACCD0"/>
	<stop  offset="0.2489" style="stop-color:#C5C7CB"/>
	<stop  offset="0.4489" style="stop-color:#B7BABD"/>
	<stop  offset="0.6318" style="stop-color:#A1A3A5"/>
	<stop  offset="0.8046" style="stop-color:#838687"/>
	<stop  offset="0.9688" style="stop-color:#616666"/>
	<stop  offset="1" style="stop-color:#595F5F"/>
</linearGradient>
<path fill="url(#SVGID_35_)" d="M190.545,111.778c-0.841-1.97-1.382-3.841-1.717-5.025L139.89,94.351l-0.109,0.507l-0.325,0.397
	c0,0.054-2.838,3.29-5.351,5.776c-0.217,0.226-0.47,0.389-0.732,0.57l25.057,6.336c0.144-0.118,0.289-0.226,0.433-0.344
	c0.769-0.624,1.636-1.184,2.55-1.69c1.826-1.084,3.679-1.935,4.881-2.386c0.434-0.109,0.913-0.217,1.383-0.217
	c0.696,0,1.419,0.217,1.97,0.614c0.506,0.398,0.832,0.904,1.084,1.356c0.479,0.904,0.587,1.753,0.587,2.495
	c0,0.741-0.072,1.591-0.216,2.604c0,0.226-0.037,0.506-0.072,0.741l22.208,5.605c-0.035,0-0.035-0.064-0.071-0.064
	C192.073,115.123,191.196,113.423,190.545,111.778z"/>
<linearGradient id="SVGID_36_" gradientUnits="userSpaceOnUse" x1="5.5313" y1="-22.2114" x2="252.4086" y2="330.3659">
	<stop  offset="0" style="stop-color:#CACCD0"/>
	<stop  offset="0.2489" style="stop-color:#C5C7CB"/>
	<stop  offset="0.4489" style="stop-color:#B7BABD"/>
	<stop  offset="0.6318" style="stop-color:#A1A3A5"/>
	<stop  offset="0.8046" style="stop-color:#838687"/>
	<stop  offset="0.9688" style="stop-color:#616666"/>
	<stop  offset="1" style="stop-color:#595F5F"/>
</linearGradient>
<path fill="url(#SVGID_36_)" d="M72.892,77.43c-1.672,2.495-3.309,5.034-4.8,7.638l19.263,4.872
	c0.109-0.289,0.217-0.569,0.325-0.904c0.877-2.603,2.007-4.989,3.426-6.969L72.892,77.43z"/>
<linearGradient id="SVGID_37_" gradientUnits="userSpaceOnUse" x1="110.0332" y1="-95.3916" x2="356.9199" y2="257.1992">
	<stop  offset="0" style="stop-color:#CACCD0"/>
	<stop  offset="0.2489" style="stop-color:#C5C7CB"/>
	<stop  offset="0.4489" style="stop-color:#B7BABD"/>
	<stop  offset="0.6318" style="stop-color:#A1A3A5"/>
	<stop  offset="0.8046" style="stop-color:#838687"/>
	<stop  offset="0.9688" style="stop-color:#616666"/>
	<stop  offset="1" style="stop-color:#595F5F"/>
</linearGradient>
<path fill="url(#SVGID_37_)" d="M233.292,117.952c-0.922,1.302-2.478,3.453-4.412,5.885c-0.396,0.506-0.832,1.021-1.302,1.591
	l83.125,20.989c-0.108-3.056-0.326-6.056-0.615-9.048L233.292,117.952z"/>
<linearGradient id="SVGID_38_" gradientUnits="userSpaceOnUse" x1="81.2104" y1="-75.1934" x2="328.0833" y2="277.3777">
	<stop  offset="0" style="stop-color:#CACCD0"/>
	<stop  offset="0.2489" style="stop-color:#C5C7CB"/>
	<stop  offset="0.4489" style="stop-color:#B7BABD"/>
	<stop  offset="0.6318" style="stop-color:#A1A3A5"/>
	<stop  offset="0.8046" style="stop-color:#838687"/>
	<stop  offset="0.9688" style="stop-color:#616666"/>
	<stop  offset="1" style="stop-color:#595F5F"/>
</linearGradient>
<path fill="url(#SVGID_38_)" d="M211.797,112.52l1.029,1.193c-0.071,0.054-4.039,3.561-8.559,5.486
	c-0.182,0.055-0.325,0.118-0.507,0.172l19.841,5.035c0.65-0.732,1.266-1.474,1.897-2.206c1.591-1.925,2.984-3.797,3.961-5.216
	L211.797,112.52z"/>
<linearGradient id="SVGID_39_" gradientUnits="userSpaceOnUse" x1="74.23" y1="-70.3057" x2="321.1015" y2="282.2634">
	<stop  offset="0" style="stop-color:#CACCD0"/>
	<stop  offset="0.2489" style="stop-color:#C5C7CB"/>
	<stop  offset="0.4489" style="stop-color:#B7BABD"/>
	<stop  offset="0.6318" style="stop-color:#A1A3A5"/>
	<stop  offset="0.8046" style="stop-color:#838687"/>
	<stop  offset="0.9688" style="stop-color:#616666"/>
	<stop  offset="1" style="stop-color:#595F5F"/>
</linearGradient>
<path fill="url(#SVGID_39_)" d="M209.292,111.896l-16.306-4.131c0.036,0.172,0.072,0.289,0.107,0.452
	c0.688,2.043,1.781,4.529,3.021,6.229c0.84,1.13,1.717,1.871,2.404,2.033c0.289,0.055,0.614,0.118,0.984,0.118
	c0.868,0,1.962-0.226,3.128-0.732c1.167-0.452,2.368-1.084,3.462-1.754C207.367,113.315,208.497,112.52,209.292,111.896z"/>
<linearGradient id="SVGID_40_" gradientUnits="userSpaceOnUse" x1="51.4258" y1="417.0889" x2="214.8315" y2="650.4565">
	<stop  offset="0" style="stop-color:#CACCD0"/>
	<stop  offset="1" style="stop-color:#595F5F"/>
</linearGradient>
<path fill="url(#SVGID_40_)" d="M98.346,500.052c1.681,3.126,3.354,6.056,5.025,8.787l28.727,7.303
	c-1.781-2.893-3.525-5.84-5.243-8.894L98.346,500.052z"/>
<linearGradient id="SVGID_41_" gradientUnits="userSpaceOnUse" x1="35.2773" y1="428.3838" x2="198.7002" y2="661.7759">
	<stop  offset="0" style="stop-color:#CACCD0"/>
	<stop  offset="1" style="stop-color:#595F5F"/>
</linearGradient>
<path fill="url(#SVGID_41_)" d="M75.667,494.339c2.396,3.288,4.98,6.4,7.683,9.454l10.992,2.786
	c-1.564-2.786-3.092-5.679-4.583-8.66L75.667,494.339z"/>
<linearGradient id="SVGID_42_" gradientUnits="userSpaceOnUse" x1="74.7837" y1="400.7373" x2="238.187" y2="634.1014">
	<stop  offset="0" style="stop-color:#CACCD0"/>
	<stop  offset="1" style="stop-color:#595F5F"/>
</linearGradient>
<path fill="url(#SVGID_42_)" d="M135.886,509.56c1.898,3.13,3.788,6.129,5.649,8.948l37.685,9.512
	c-1.925-2.82-3.896-5.822-5.903-9.004L135.886,509.56z"/>
<linearGradient id="SVGID_43_" gradientUnits="userSpaceOnUse" x1="115.0557" y1="372.5703" x2="278.4376" y2="605.9039">
	<stop  offset="0" style="stop-color:#CACCD0"/>
	<stop  offset="1" style="stop-color:#595F5F"/>
</linearGradient>
<path fill="url(#SVGID_43_)" d="M224.289,539.389l0.777,0.237c3.813-1.411,7.557-3.002,11.244-4.702l-3.488-0.903
	C229.82,536.064,226.982,537.816,224.289,539.389z"/>
<linearGradient id="SVGID_44_" gradientUnits="userSpaceOnUse" x1="101.9121" y1="381.7393" x2="265.3178" y2="615.1068">
	<stop  offset="0" style="stop-color:#CACCD0"/>
	<stop  offset="1" style="stop-color:#595F5F"/>
</linearGradient>
<path fill="url(#SVGID_44_)" d="M187.635,528.418c0.506,0.738,1.013,1.408,1.528,2.096l25.779,6.563
	c2.766-1.539,5.785-3.218,9.058-5.262L182.79,521.4C184.426,523.897,186.062,526.209,187.635,528.418z"/>
<linearGradient id="SVGID_45_" gradientUnits="userSpaceOnUse" x1="52.0234" y1="395.7871" x2="234.4574" y2="656.3298">
	<stop  offset="0" style="stop-color:#202959"/>
	<stop  offset="1" style="stop-color:#1C2D47"/>
</linearGradient>
<path fill="url(#SVGID_45_)" d="M126.855,507.248c1.718,3.054,3.462,6.001,5.243,8.894l9.437,2.366
	c-1.861-2.819-3.751-5.818-5.649-8.948L126.855,507.248z"/>
<linearGradient id="SVGID_46_" gradientUnits="userSpaceOnUse" x1="31.2334" y1="410.3281" x2="213.6897" y2="670.9028">
	<stop  offset="0" style="stop-color:#202959"/>
	<stop  offset="1" style="stop-color:#1C2D47"/>
</linearGradient>
<path fill="url(#SVGID_46_)" d="M89.759,497.919c1.491,2.981,3.019,5.874,4.583,8.66l9.03,2.26
	c-1.672-2.731-3.344-5.661-5.025-8.787L89.759,497.919z"/>
<linearGradient id="SVGID_47_" gradientUnits="userSpaceOnUse" x1="77.9878" y1="377.5869" x2="260.442" y2="638.1586">
	<stop  offset="0" style="stop-color:#202959"/>
	<stop  offset="1" style="stop-color:#1C2D47"/>
</linearGradient>
<path fill="url(#SVGID_47_)" d="M182.79,521.4l-9.474-2.385c2.007,3.182,3.978,6.184,5.903,9.004l9.943,2.494
	c-0.516-0.688-1.022-1.357-1.528-2.096C186.062,526.209,184.426,523.897,182.79,521.4z"/>
<linearGradient id="SVGID_48_" gradientUnits="userSpaceOnUse" x1="19.2168" y1="418.751" x2="201.6593" y2="679.3059">
	<stop  offset="0" style="stop-color:#202959"/>
	<stop  offset="1" style="stop-color:#1C2D47"/>
</linearGradient>
<path fill="url(#SVGID_48_)" d="M65.941,491.86c0,0,2.983,4.468,3.57,5.262c0.615,0.849,2.947,3.905,2.947,3.905l10.892,2.766
	c-2.703-3.054-5.288-6.166-7.683-9.454L65.941,491.86z"/>
<linearGradient id="SVGID_49_" gradientUnits="userSpaceOnUse" x1="108.0278" y1="356.5928" x2="290.453" y2="617.1229">
	<stop  offset="0" style="stop-color:#202959"/>
	<stop  offset="1" style="stop-color:#1C2D47"/>
</linearGradient>
<path fill="url(#SVGID_49_)" d="M225.066,539.626l10.811,2.71c0,0,6.545-3.163,7.141-3.452c0.543-0.344,2.622-1.646,2.622-1.646
	l-9.329-2.314C232.623,536.624,228.88,538.215,225.066,539.626z"/>
<linearGradient id="SVGID_50_" gradientUnits="userSpaceOnUse" x1="101.667" y1="361.0068" x2="284.1193" y2="621.5757">
	<stop  offset="0" style="stop-color:#202959"/>
	<stop  offset="1" style="stop-color:#1C2D47"/>
</linearGradient>
<path fill="url(#SVGID_50_)" d="M224,531.815c-3.272,2.044-6.292,3.723-9.058,5.262l9.347,2.312
	c2.693-1.572,5.531-3.324,8.533-5.368L224,531.815z"/>
<linearGradient id="SVGID_51_" gradientUnits="userSpaceOnUse" x1="-12.4673" y1="215.0767" x2="368.3802" y2="758.9833">
	<stop  offset="0.1" style="stop-color:#194C8D"/>
	<stop  offset="0.1834" style="stop-color:#1E4E8E"/>
	<stop  offset="0.2503" style="stop-color:#2D5593"/>
	<stop  offset="0.3113" style="stop-color:#41609A"/>
	<stop  offset="0.35" style="stop-color:#506BA1"/>
	<stop  offset="0.3704" style="stop-color:#4A6192"/>
	<stop  offset="0.4166" style="stop-color:#3E4F78"/>
	<stop  offset="0.465" style="stop-color:#354164"/>
	<stop  offset="0.5155" style="stop-color:#2B3857"/>
	<stop  offset="0.5689" style="stop-color:#23324E"/>
	<stop  offset="0.6273" style="stop-color:#1D2E48"/>
	<stop  offset="0.7" style="stop-color:#1C2D47"/>
</linearGradient>
<path fill="url(#SVGID_51_)" d="M13.577,417.143c0,0-4.728,20.032-8.841,39.213c-4.122,19.199,7.385,21.857,19.733,25.021
	c12.375,3.127,310.658,79.076,310.658,79.076l-18.747-32.488l33.354-26.212L13.577,417.143z"/>
<linearGradient id="SVGID_52_" gradientUnits="userSpaceOnUse" x1="-10.6021" y1="-191.0088" x2="365.8987" y2="346.6901">
	<stop  offset="0.1" style="stop-color:#194C8D"/>
	<stop  offset="0.1834" style="stop-color:#1E4E8E"/>
	<stop  offset="0.2503" style="stop-color:#2D5593"/>
	<stop  offset="0.3113" style="stop-color:#41609A"/>
	<stop  offset="0.35" style="stop-color:#506BA1"/>
	<stop  offset="0.3704" style="stop-color:#4A6192"/>
	<stop  offset="0.4166" style="stop-color:#3E4F78"/>
	<stop  offset="0.465" style="stop-color:#354164"/>
	<stop  offset="0.5155" style="stop-color:#2B3857"/>
	<stop  offset="0.5689" style="stop-color:#23324E"/>
	<stop  offset="0.6273" style="stop-color:#1D2E48"/>
	<stop  offset="0.7" style="stop-color:#1C2D47"/>
</linearGradient>
<path fill="url(#SVGID_52_)" d="M338.996,87.337C331.891,84.95,15.945,5.659,15.945,5.659l18.35,33.11L7.095,61.864l333.058,84.616
	c0,0,8.297-29.604,10.665-39.619C353.188,96.782,346.101,89.65,338.996,87.337z"/>
<linearGradient id="SVGID_53_" gradientUnits="userSpaceOnUse" x1="-9.3018" y1="18.3232" x2="365.097" y2="553.0201">
	<stop  offset="0.1" style="stop-color:#194C8D"/>
	<stop  offset="0.1834" style="stop-color:#1E4E8E"/>
	<stop  offset="0.2503" style="stop-color:#2D5593"/>
	<stop  offset="0.3113" style="stop-color:#41609A"/>
	<stop  offset="0.35" style="stop-color:#506BA1"/>
	<stop  offset="0.3704" style="stop-color:#4A6192"/>
	<stop  offset="0.4166" style="stop-color:#3E4F78"/>
	<stop  offset="0.465" style="stop-color:#354164"/>
	<stop  offset="0.5155" style="stop-color:#2B3857"/>
	<stop  offset="0.5689" style="stop-color:#23324E"/>
	<stop  offset="0.6273" style="stop-color:#1D2E48"/>
	<stop  offset="0.7" style="stop-color:#1C2D47"/>
</linearGradient>
<path fill="url(#SVGID_53_)" d="M330.101,294.664c-18.892-4.864-313.207-77.778-313.207-77.778s-8.262,32.775-10.376,41.037
	c-2.116,8.208,5.712,13.468,22.606,18.277c16.903,4.873,305.714,78.79,305.714,78.79l11.624-35.885
	C349.409,308.421,350.457,299.87,330.101,294.664z"/>
<path d="M51.487,32.378l9.681,2.486c4.52,1.13,6.997,4.022,5.867,8.434c-0.768,3.056-3.019,5.098-5.676,4.926v0.055
	c1.889,0.796,4.583,2.431,3.2,7.81c-0.805,3.173-3.236,7.024-10.63,5.152l-9.211-2.377L51.487,32.378 M52.138,55.862l1.898,0.506
	c2.513,0.632,3.788-0.732,4.258-2.604c0.66-2.603-0.398-4.067-2.333-4.52l-1.998-0.569L52.138,55.862z M55.021,44.545l1.708,0.453
	c2.151,0.505,3.344-0.453,3.823-2.378c0.361-1.365,0-3.055-2.26-3.625l-1.745-0.452L55.021,44.545z"/>
<polyline points="72.819,37.802 79.047,39.393 72.313,65.932 66.049,64.359 72.819,37.802 "/>
<path d="M82.943,40.405l10.485,2.667c5.324,1.355,6.301,5.088,5.36,8.723c-0.985,3.841-3.028,5.369-6.083,5.314l-0.036,0.055
	c3.859,1.591,3.417,4.13,2.584,7.701c-1.202,5.261-1.166,5.821-0.361,6.454l-0.072,0.334l-6.743-1.699
	c-0.253-1.021-0.072-2.54,0.696-5.541c1.202-4.647,0.795-5.776-1.166-6.292l-2.369-0.561l-2.802,10.919l-6.228-1.583L82.943,40.405
	 M86.369,53.15l1.925,0.506c2.513,0.624,3.643-1.076,4.05-2.657c0.506-1.989,0.108-3.508-2.369-4.141l-1.898-0.505L86.369,53.15z"/>
<polyline points="103.444,45.621 112.583,47.944 111.417,66.221 111.489,66.221 119.1,49.58 128.094,51.903 121.36,78.441 
	115.575,76.924 120.817,56.314 120.745,56.26 111.453,75.902 106.617,74.655 107.593,52.916 107.521,52.916 102.278,73.579 
	96.71,72.106 103.444,45.621 "/>
<polyline points="131.809,52.861 138.073,54.452 131.303,80.937 125.075,79.346 131.809,52.861 "/>
<polyline points="141.607,55.355 148.74,57.164 149.508,75.73 149.58,75.73 153.946,58.466 159.74,59.993 153.005,86.487 
	145.938,84.67 145.142,65.028 145.061,65.028 140.406,83.259 134.837,81.841 141.607,55.355 "/>
<path d="M172.702,71.879c0.434-1.753,0.949-4.465-1.347-5.098c-2.585-0.614-3.534,1.872-5.352,8.949
	c-1.826,7.25-2.042,9.672,0.434,10.305c2.116,0.56,3.354-1.193,4.257-4.809l0.226-0.913l-2.919-0.732l1.057-4.14l8.741,2.214
	l-3.642,14.201L169.9,90.79l0.47-2.549l-0.072-0.054c-1.564,2.151-4.077,2.206-6.481,1.636c-6.662-1.699-6.518-6.96-4.402-15.231
	c2.214-8.659,4.257-14.2,13.106-11.932c8.044,2.088,6.95,7.692,6.191,10.748L172.702,71.879"/>
<polyline points="184.281,66.221 190.545,67.812 187.996,77.71 192.986,79.012 195.498,69.114 201.763,70.686 194.984,97.18 
	188.755,95.599 191.639,84.281 186.65,83.034 183.774,94.351 177.547,92.76 184.281,66.221 "/>
<path d="M210.82,73.019l7.791,1.971l-0.145,28.193l-6.489-1.645l0.344-5.324l-6.337-1.572l-2.224,4.809l-6.481-1.646L210.82,73.019
	 M213.369,78.785h-0.072l-5.206,11.208l4.52,1.194L213.369,78.785z"/>
<polyline points="227.308,77.204 236.455,79.526 235.298,97.75 235.371,97.804 242.981,81.163 251.966,83.486 245.223,109.971 
	239.438,108.506 244.682,87.897 244.608,87.842 235.334,107.476 230.489,106.237 231.466,84.498 231.394,84.498 226.15,105.107 
	220.583,103.688 227.308,77.204 "/>
<path d="M274.293,98.997c0.977-3.904,0.977-5.721-1.103-6.237c-2.513-0.614-3.308,1.7-5.098,8.605
	c-2.008,7.874-2.26,10.024,0.325,10.648c2.297,0.615,3.255-1.988,4.339-6.056l6.001,1.519l-0.216,0.913
	c-1.446,5.722-4.14,9.626-11.859,7.638c-8.009-2.034-7.104-8.208-5.063-16.18c1.7-6.798,3.814-13.477,12.673-11.208
	c5.496,1.355,7.9,4.519,6.292,10.756l-0.289,1.121L274.293,98.997"/>
<polyline points="285.501,92.037 291.757,93.61 284.996,120.104 278.758,118.521 285.501,92.037 "/>
<polyline points="298.211,100.633 292.644,99.214 293.945,94.179 311.317,98.599 310.052,103.634 304.466,102.215 298.97,123.728 
	292.751,122.083 298.211,100.633 "/>
<polyline points="314.193,116.479 311.571,98.654 318.495,100.407 318.965,111.046 319.037,111.046 324.569,101.998 
	331.276,103.688 320.43,118.069 317.771,128.483 311.534,126.892 314.193,116.479 "/>
<path fill="#FFFFFF" d="M50.538,31.411l9.69,2.486c4.51,1.139,6.987,4.022,5.857,8.443c-0.759,3.109-3.019,5.089-5.676,4.917v0.118
	c1.889,0.786,4.583,2.377,3.2,7.809c-0.795,3.119-3.236,6.961-10.63,5.09l-9.21-2.314L50.538,31.411 M51.198,54.904l1.889,0.506
	c2.513,0.624,3.788-0.741,4.257-2.604c0.66-2.603-0.397-4.013-2.323-4.528l-2.007-0.515L51.198,54.904z M54.072,43.587l1.708,0.452
	c2.152,0.561,3.354-0.452,3.824-2.332c0.361-1.41,0-3.055-2.26-3.615L55.6,37.639L54.072,43.587z"/>
<polyline fill="#FFFFFF" points="71.879,36.844 78.098,38.435 71.364,64.973 65.136,63.392 71.879,36.844 "/>
<path fill="#FFFFFF" d="M82.039,39.447l10.45,2.658c5.315,1.364,6.3,5.098,5.387,8.723c-0.985,3.904-3.055,5.378-6.12,5.323
	L91.72,56.26c3.86,1.528,3.427,4.077,2.585,7.701c-1.202,5.262-1.166,5.821-0.361,6.391l-0.072,0.334l-6.734-1.69
	c-0.262-1.021-0.037-2.549,0.723-5.549c1.166-4.638,0.768-5.713-1.202-6.229l-2.369-0.614l-2.802,10.974l-6.228-1.646L82.039,39.447
	 M85.42,52.247l1.935,0.452c2.513,0.668,3.679-1.085,4.077-2.604c0.506-2.043,0.108-3.571-2.405-4.194l-1.889-0.452L85.42,52.247z"
	/>
<polyline fill="#FFFFFF" points="102.495,44.654 111.643,46.977 110.477,65.263 110.549,65.263 118.16,48.676 127.19,50.944 
	120.411,77.483 114.625,76.011 119.869,55.355 119.795,55.355 110.513,74.935 105.668,73.688 106.653,51.958 106.581,51.958 
	101.338,72.621 95.761,71.202 102.495,44.654 "/>
<polyline fill="#FFFFFF" points="130.905,51.903 137.124,53.485 130.354,80.033 124.125,78.441 130.905,51.903 "/>
<polyline fill="#FFFFFF" points="140.658,54.397 147.835,56.206 148.559,74.772 148.631,74.772 153.005,57.562 158.791,59.035 
	152.057,85.52 144.988,83.766 144.192,64.07 144.12,64.07 139.456,82.347 133.888,80.937 140.658,54.397 "/>
<path fill="#FFFFFF" d="M171.753,70.921c0.442-1.698,0.949-4.474-1.347-5.043c-2.585-0.668-3.535,1.871-5.352,8.895
	c-1.816,7.24-2.042,9.672,0.435,10.296c2.114,0.569,3.353-1.184,4.267-4.809l0.216-0.85l-2.911-0.731l1.049-4.194l8.741,2.205
	l-3.643,14.265l-4.257-1.13l0.47-2.54h-0.072c-1.564,2.088-4.076,2.206-6.48,1.573c-6.662-1.69-6.518-6.906-4.403-15.223
	c2.224-8.66,4.257-14.146,13.107-11.877c8.044,2.033,6.95,7.692,6.192,10.693L171.753,70.921"/>
<polyline fill="#FFFFFF" points="183.332,65.263 189.596,66.898 187.047,76.806 192.037,78.044 194.55,68.146 200.813,69.728 
	194.043,96.213 187.815,94.641 190.689,83.314 185.7,82.066 182.825,93.393 176.598,91.802 183.332,65.263 "/>
<path fill="#FFFFFF" d="M209.881,72.051l7.791,1.98l-0.145,28.184l-6.489-1.636l0.324-5.324l-6.327-1.582l-2.224,4.809l-6.481-1.636
	L209.881,72.051 M212.43,77.827h-0.073L207.15,89.09l4.502,1.13L212.43,77.827z"/>
<polyline fill="#FFFFFF" points="226.368,76.236 235.516,78.56 234.34,96.846 234.413,96.846 242.023,80.259 251.063,82.528 
	244.283,109.067 238.498,107.593 243.741,86.939 243.669,86.939 234.376,106.518 229.531,105.27 230.525,83.54 230.453,83.54 
	225.21,104.203 219.624,102.784 226.368,76.236 "/>
<path fill="#FFFFFF" d="M273.335,98.029c0.994-3.851,0.994-5.658-1.084-6.228c-2.513-0.614-3.309,1.7-5.099,8.66
	c-2.007,7.864-2.26,9.961,0.326,10.648c2.295,0.561,3.236-1.989,4.339-6.119l6.001,1.528l-0.216,0.958
	c-1.465,5.721-4.158,9.572-11.878,7.593c-8.009-2.043-7.087-8.153-5.063-16.135c1.719-6.788,3.832-13.531,12.673-11.262
	c5.496,1.419,7.9,4.528,6.31,10.756l-0.289,1.13L273.335,98.029"/>
<polyline fill="#FFFFFF" points="284.562,91.069 290.816,92.651 284.037,119.199 277.818,117.618 284.562,91.069 "/>
<polyline fill="#FFFFFF" points="297.271,99.729 291.685,98.256 293.005,93.221 310.377,97.632 309.094,102.73 303.526,101.312 
	298.066,122.77 291.793,121.179 297.271,99.729 "/>
<polyline fill="#FFFFFF" points="313.252,115.521 310.631,97.75 317.537,99.503 318.025,110.088 318.097,110.088 323.63,101.031 
	330.318,102.73 319.507,117.103 316.85,127.525 310.595,125.934 313.252,115.521 "/>
<polyline points="62.705,243.606 77.845,247.457 76.57,252.491 67.576,250.168 66.266,255.429 74.717,257.58 73.443,262.57 
	64.992,260.418 62.189,271.392 55.998,269.81 62.705,243.606 "/>
<path d="M82.111,276.996c-8.125-2.033-7.864-7.583-5.758-15.963c2.116-8.316,4.592-13.359,12.709-11.262
	c8.741,2.205,7.575,8.713,5.712,15.963C92.922,273.037,90.843,279.256,82.111,276.996 M83.125,272.929
	c2.477,0.614,3.461-1.591,5.278-8.841c1.826-7.176,2.042-9.563-0.434-10.178c-2.44-0.633-3.381,1.582-5.207,8.768
	C80.909,269.864,80.684,272.296,83.125,272.929z"/>
<path d="M103.118,282.375c-8.116-2.034-7.864-7.638-5.749-15.954c2.106-8.325,4.583-13.36,12.7-11.271
	c8.741,2.214,7.575,8.659,5.722,15.963C113.93,278.352,111.859,284.579,103.118,282.375 M104.141,278.244
	c2.477,0.624,3.416-1.591,5.278-8.768c1.817-7.195,2.034-9.627-0.443-10.25c-2.431-0.624-3.38,1.59-5.206,8.831
	C101.916,275.243,101.7,277.62,104.141,278.244z"/>
<polyline points="124.857,264.775 119.362,263.356 120.6,258.376 137.82,262.732 136.546,267.722 131.014,266.357 125.617,287.577 
	119.435,286.004 124.857,264.775 "/>
<path d="M139.854,263.239l9.582,2.495c4.474,1.139,6.915,3.959,5.821,8.316c-0.795,3.064-3.019,5.044-5.64,4.872v0.118
	c1.862,0.795,4.556,2.368,3.209,7.688c-0.805,3.127-3.245,6.979-10.531,5.097l-9.139-2.313L139.854,263.239 M140.514,286.509
	l1.853,0.507c2.513,0.633,3.751-0.74,4.23-2.607c0.651-2.54-0.407-4.013-2.295-4.465l-2.007-0.506L140.514,286.509z
	 M143.352,275.297l1.708,0.452c2.115,0.515,3.317-0.452,3.787-2.314c0.334-1.356,0-3.001-2.251-3.571l-1.717-0.452L143.352,275.297z
	"/>
<path d="M165.715,269.864l7.72,1.98l-0.154,27.844l-6.409-1.573l0.334-5.26l-6.264-1.59l-2.188,4.753l-6.409-1.646L165.715,269.864
	 M168.255,275.586h-0.072l-5.17,11.086l4.483,1.193L168.255,275.586z"/>
<polyline points="181.877,273.996 188.033,275.586 182.645,296.814 191.567,299.073 190.293,304.047 175.179,300.214 
	181.877,273.996 "/>
<polyline points="198.808,278.298 204.962,279.889 199.575,301.117 208.497,303.378 207.223,308.348 192.11,304.515 
	198.808,278.298 "/>
<path d="M233.87,296.924c0.977-3.798,0.977-5.605-1.085-6.11c-2.477-0.633-3.291,1.644-5.025,8.549
	c-2.007,7.756-2.261,9.837,0.325,10.524c2.26,0.56,3.199-1.989,4.249-6.06l5.982,1.539l-0.252,0.904
	c-1.428,5.657-4.087,9.435-11.733,7.519c-7.9-2.041-7.032-8.097-4.989-15.963c1.718-6.724,3.797-13.354,12.528-11.153
	c5.423,1.427,7.792,4.538,6.219,10.703l-0.289,1.083L233.87,296.924"/>
<polyline points="244.862,290.019 251.026,291.608 245.64,312.831 254.552,315.091 253.286,320.137 238.172,316.286 
	244.862,290.019 "/>
<path d="M274.257,316.231c-1.319,5.152-3.833,8.82-10.973,6.959c-7.16-1.807-7.612-6.235-6.292-11.388l4.483-17.537l6.147,1.591
	l-4.919,19.344c-0.541,2.044-0.034,3.452,1.609,3.905c1.664,0.398,2.803-0.614,3.31-2.658l4.916-19.362l6.184,1.593L274.257,316.231
	"/>
<path d="M282.157,299.526l9.564,2.439c4.483,1.178,6.923,4.016,5.802,8.371c-0.777,3.057-2.982,5.043-5.604,4.863v0.128
	c1.845,0.721,4.538,2.312,3.165,7.683c-0.778,3.127-3.218,6.96-10.522,5.098l-9.111-2.314L282.157,299.526 M282.771,322.792
	l1.899,0.453c2.513,0.669,3.741-0.742,4.211-2.549c0.67-2.549-0.396-4.015-2.295-4.465l-1.989-0.526L282.771,322.792z
	 M285.646,311.584l1.683,0.453c2.151,0.505,3.308-0.453,3.813-2.314c0.326-1.375-0.036-3.054-2.26-3.635l-1.735-0.396
	L285.646,311.584z"/>
<polyline fill="#FFFFFF" points="61.755,242.648 76.905,246.552 75.63,251.524 66.637,249.21 65.326,254.471 73.769,256.622 
	72.494,261.603 64.051,259.451 61.24,270.434 55.057,268.906 61.755,242.648 "/>
<path fill="#FFFFFF" d="M81.163,276.093c-8.117-2.097-7.864-7.638-5.758-15.963c2.115-8.371,4.592-13.36,12.708-11.317
	c8.741,2.26,7.575,8.713,5.722,16.017C91.973,272.079,89.903,278.298,81.163,276.093 M82.184,271.961
	c2.477,0.624,3.417-1.582,5.28-8.777c1.816-7.187,2.033-9.618-0.443-10.242c-2.432-0.624-3.381,1.583-5.207,8.777
	C79.96,268.906,79.744,271.338,82.184,271.961z"/>
<path fill="#FFFFFF" d="M102.169,281.407c-8.117-2.033-7.864-7.628-5.749-15.954c2.106-8.325,4.583-13.359,12.708-11.262
	c8.732,2.205,7.566,8.713,5.713,15.954C112.989,277.448,110.91,283.677,102.169,281.407 M103.19,277.34
	c2.478,0.614,3.427-1.591,5.28-8.832c1.826-7.186,2.042-9.563-0.434-10.241c-2.441-0.624-3.39,1.636-5.243,8.822
	C100.967,274.284,100.75,276.716,103.19,277.34z"/>
<polyline fill="#FFFFFF" points="123.909,263.808 118.413,262.398 119.651,257.417 136.871,261.828 135.596,266.809 130.064,265.39 
	124.677,286.619 118.485,285.046 123.909,263.808 "/>
<path fill="#FFFFFF" d="M138.914,262.334l9.573,2.441c4.483,1.13,6.923,4.014,5.83,8.37c-0.805,3.055-3.028,5.043-5.65,4.873v0.054
	c1.862,0.795,4.557,2.377,3.209,7.752c-0.804,3.055-3.245,6.905-10.521,5.042l-9.139-2.313L138.914,262.334 M139.564,285.552
	l1.862,0.506c2.512,0.615,3.751-0.741,4.221-2.554c0.66-2.603-0.398-4.013-2.296-4.519l-1.998-0.516L139.564,285.552z
	 M142.403,274.393l1.717,0.398c2.106,0.56,3.309-0.453,3.788-2.314c0.326-1.365,0-3.001-2.26-3.571l-1.709-0.452L142.403,274.393z"
	/>
<path fill="#FFFFFF" d="M164.766,268.906l7.719,1.98l-0.145,27.898l-6.409-1.626l0.325-5.279l-6.264-1.572l-2.187,4.754
	l-6.409-1.646L164.766,268.906 M167.315,274.619h-0.072l-5.171,11.149l4.475,1.14L167.315,274.619z"/>
<polyline fill="#FFFFFF" points="180.928,273.037 187.084,274.619 181.695,295.856 190.618,298.115 189.344,303.089 174.23,299.238 
	180.928,273.037 "/>
<polyline fill="#FFFFFF" points="197.868,277.34 204.014,278.921 198.627,300.142 207.548,302.419 206.273,307.444 191.159,303.594 
	197.868,277.34 "/>
<path fill="#FFFFFF" d="M232.93,296.019c0.977-3.85,0.977-5.658-1.103-6.164c-2.478-0.632-3.272,1.627-5.026,8.531
	c-2.006,7.757-2.26,9.855,0.326,10.543c2.26,0.56,3.218-1.989,4.267-6.06l5.965,1.521l-0.252,0.903
	c-1.41,5.657-4.068,9.508-11.715,7.537c-7.9-1.986-7.032-8.097-4.99-15.962c1.7-6.743,3.779-13.365,12.528-11.155
	c5.424,1.411,7.791,4.538,6.219,10.703l-0.289,1.066L232.93,296.019"/>
<polyline fill="#FFFFFF" points="243.923,289.113 250.068,290.633 244.682,311.928 253.611,314.188 252.328,319.16 237.214,315.328 
	243.923,289.113 "/>
<path fill="#FFFFFF" d="M273.299,315.255c-1.301,5.152-3.814,8.839-10.955,7.032c-7.178-1.88-7.611-6.29-6.291-11.391l4.465-17.589
	l6.165,1.572l-4.918,19.362c-0.541,2.096-0.035,3.507,1.591,3.905c1.682,0.398,2.821-0.56,3.327-2.658l4.917-19.362l6.184,1.593
	L273.299,315.255"/>
<path fill="#FFFFFF" d="M281.199,298.623l9.581,2.439c4.484,1.123,6.924,3.961,5.785,8.371c-0.759,3.002-2.982,4.973-5.604,4.809
	v0.109c1.863,0.794,4.557,2.385,3.165,7.701c-0.761,3.108-3.2,6.96-10.522,5.098l-9.093-2.314L281.199,298.623 M281.832,321.834
	l1.881,0.508c2.476,0.614,3.76-0.742,4.229-2.604c0.65-2.549-0.397-3.96-2.297-4.483l-2.006-0.508L281.832,321.834z
	 M284.706,310.626l1.664,0.453c2.151,0.56,3.325-0.453,3.832-2.333c0.325-1.356-0.036-3.002-2.26-3.562l-1.754-0.45L284.706,310.626
	z"/>
<polyline points="117.066,476.406 125.843,478.557 124.894,482.517 116.081,480.363 117.066,476.406 "/>
<path d="M142.222,474.253l-5.062-1.248l0.985-3.957l0.768,0.217c4.728,1.137,6.445-1.014,7.168-2.659l4.375,1.086l-6.481,26.377
	l-6.228-1.539L142.222,474.253"/>
<path d="M170.37,479.804c-0.723,2.929-2.549,4.754-5.098,4.629v0.125c2.657,1.122,3.787,3.726,2.946,7.303
	c-1.121,4.468-3.597,7.811-10.775,6.059c-7.168-1.773-7.9-5.679-6.734-10.359c0.723-2.947,2.657-5.496,5.903-5.152v-0.055
	c-2.08-1.192-2.992-3.397-2.26-6.455c0.976-3.975,3.86-6.29,9.681-4.881C169.9,472.5,171.391,475.664,170.37,479.804
	 M156.938,489.132c-0.551,2.388-0.551,4.355,1.456,4.809c2.034,0.523,2.983-1.247,3.534-3.562c0.579-2.369,0.542-4.249-1.464-4.754
	C158.465,485.117,157.516,486.817,156.938,489.132z M164.44,478.827c0.47-1.807,0.326-3.452-1.356-3.833
	c-1.672-0.398-2.585,0.959-3.02,2.766c-0.614,2.549-0.108,3.562,1.348,3.905C162.868,482.063,163.817,481.431,164.44,478.827z"/>
<path d="M172.558,479.28l1.274-5.262l16.786,4.14l-1.13,4.647c-5.567,5.134-10.631,13.629-12.348,19.396l-6.481-1.573
	c1.862-6.001,7.684-14.66,12.673-18.675L172.558,479.28"/>
<path d="M193.71,498.08l-0.254,0.958c-0.397,1.756-0.397,3.453,1.419,3.906c2.007,0.453,2.911-1.467,3.823-5.098
	c0.733-3.058,0.435-4.755-1.201-5.153c-1.13-0.271-2.251,0.073-2.803,1.536l-5.82-1.411l4.329-14.046l14.779,3.635l-1.203,4.809
	l-9.97-2.439l-1.49,4.86l0.034,0.128c0.977-1.192,3.2-1.43,4.873-1.031c4.809,1.192,6.228,4.483,4.664,10.865
	c-1.636,6.688-5.063,8.732-10.965,7.251c-5.567-1.356-7.601-4.702-6.48-9.274l0.226-1.03L193.71,498.08"/>
<polyline points="213.551,500.124 222.317,502.274 221.342,506.235 212.574,504.082 213.551,500.124 "/>
<polyline fill="#FFFFFF" points="116.117,475.499 124.894,477.653 123.945,481.61 115.132,479.46 116.117,475.499 "/>
<path fill="#FFFFFF" d="M141.282,473.294l-5.062-1.247l0.977-3.905l0.768,0.164c4.736,1.192,6.445-1.013,7.177-2.604l4.366,1.086
	l-6.445,26.304l-6.264-1.521L141.282,473.294"/>
<path fill="#FFFFFF" d="M169.421,478.9c-0.723,2.929-2.549,4.681-5.089,4.626v0.055c2.694,1.141,3.815,3.796,2.947,7.306
	c-1.094,4.483-3.606,7.863-10.783,6.057c-7.168-1.756-7.901-5.606-6.734-10.36c0.732-2.929,2.658-5.423,5.902-5.152v-0.055
	c-2.079-1.119-2.991-3.397-2.224-6.454c0.949-3.957,3.824-6.272,9.645-4.81C168.951,471.542,170.442,474.761,169.421,478.9
	 M155.989,488.229c-0.542,2.314-0.542,4.301,1.492,4.809c2.007,0.45,2.947-1.247,3.498-3.616c0.579-2.314,0.542-4.249-1.456-4.754
	C157.516,484.214,156.567,485.859,155.989,488.229z M163.527,477.869c0.434-1.807,0.29-3.397-1.383-3.851
	c-1.681-0.398-2.584,0.976-3.028,2.783c-0.615,2.604-0.072,3.562,1.347,3.96C161.927,481.105,162.868,480.473,163.527,477.869z"/>
<path fill="#FFFFFF" d="M171.609,478.322l1.31-5.262l16.785,4.14l-1.165,4.629c-5.569,5.152-10.63,13.647-12.339,19.415
	l-6.481-1.573c1.853-5.946,7.683-14.66,12.672-18.693L171.609,478.322"/>
<path fill="#FFFFFF" d="M192.769,497.122l-0.262,0.958c-0.396,1.756-0.396,3.452,1.419,3.906c2.008,0.505,2.92-1.467,3.823-5.043
	c0.77-3.112,0.444-4.758-1.201-5.153c-1.084-0.271-2.251,0-2.803,1.481l-5.82-1.411l4.33-14.046l14.786,3.616l-1.201,4.882
	l-9.979-2.494l-1.492,4.915l0.037,0.055c1.021-1.174,3.199-1.411,4.882-1.013c4.799,1.192,6.218,4.538,4.655,10.864
	c-1.637,6.689-5.063,8.715-10.92,7.307c-5.613-1.356-7.648-4.702-6.519-9.347l0.218-0.959L192.769,497.122"/>
<polyline fill="#FFFFFF" points="212.61,499.148 221.378,501.354 220.438,505.277 211.616,503.123 212.61,499.148 "/>
</svg>
