<?xml version="1.0" encoding="utf-8"?>
<!-- Generator: Adobe Illustrator 13.0.2, SVG Export Plug-In . SVG Version: 6.00 Build 14948)  -->
<!DOCTYPE svg PUBLIC "-//W3C//DTD SVG 1.0//EN" "http://www.w3.org/TR/2001/REC-SVG-20010904/DTD/svg10.dtd">
<svg version="1.0" id="Ebene_1" xmlns="http://www.w3.org/2000/svg" xmlns:xlink="http://www.w3.org/1999/xlink" x="0px" y="0px"
	 width="480.95px" height="497.255px" viewBox="0 0 480.95 497.255" enable-background="new 0 0 480.95 497.255"
	 xml:space="preserve">
<path d="M428.179,381.559c31.922-41.259,49.227-91.618,49.227-144.646C477.406,106.278,371.122,0,240.48,0
	C109.833,0,3.543,106.278,3.543,236.913c0,53.028,17.305,103.388,49.228,144.646L0,416.575v80.681h480.95v-80.681L428.179,381.559z"
	/>
<path fill="#FFED00" d="M12.691,420.132l46.292-30.907c-1.12-1.331-2.234-2.665-3.323-4.017
	c-29.328,19.46-50.41,33.449-51.021,33.854c0,0.437,0,2.819,0,6.426h92.328c-2.276-1.739-4.519-3.53-6.74-5.356H12.691z"/>
<path fill="#FFED00" d="M425.291,385.208c-1.075,1.336-2.178,2.654-3.284,3.971l46.306,30.953h-77.587
	c-2.221,1.826-4.465,3.617-6.74,5.356h92.326c0-3.606,0-5.989,0-6.426C475.7,418.658,454.618,404.668,425.291,385.208z"/>
<path fill="#E2001A" d="M60.461,390.998c-4.95,3.305-35.197,23.499-40.2,26.84c6.24,0,57.997,0,67.207,0
	c-4.991-4.235-9.841-8.682-14.521-13.361C68.591,400.121,64.432,395.623,60.461,390.998z"/>
<path fill="#E2001A" d="M420.529,390.951c-3.982,4.642-8.154,9.156-12.524,13.525c-4.68,4.68-9.53,9.126-14.521,13.361
	c9.056,0,61.019,0,67.266,0C455.726,414.48,425.221,394.087,420.529,390.951z"/>
<path fill="#FFED00" d="M240.48,4.653C112.398,4.653,8.196,108.844,8.196,236.913c0,62.061,24.164,120.401,68.04,164.273
	c8.937,8.937,18.483,17.04,28.53,24.303h271.191c58.581-42.214,96.796-111.012,96.796-188.576
	C472.753,108.844,368.556,4.653,240.48,4.653z"/>
<path d="M240.479,9.966c-125.152,0-226.971,101.805-226.971,226.941c0,78.494,40.049,147.804,100.78,188.582h252.377
	C427.393,384.71,467.44,315.401,467.44,236.907C467.44,111.771,365.626,9.966,240.479,9.966z"/>
<path fill="#009EE0" d="M240.479,11.533c-124.288,0-225.404,101.102-225.404,225.374c0,78.798,40.645,148.27,102.059,188.582
	h246.684c61.411-40.313,102.055-109.784,102.055-188.582C465.874,112.635,364.762,11.533,240.479,11.533z"/>
<path d="M240.48,63.749c-95.497,0-173.188,77.679-173.188,173.161c0,95.506,77.692,173.205,173.188,173.205
	c95.49,0,173.177-77.699,173.177-173.205C413.657,141.428,335.97,63.749,240.48,63.749z"/>
<path fill="#FFED00" d="M240.48,65.316c-94.632,0-171.621,76.976-171.621,171.593c0,94.642,76.989,171.639,171.621,171.639
	c94.626,0,171.61-76.997,171.61-171.639C412.09,142.292,335.106,65.316,240.48,65.316z"/>
<path d="M240.48,69.97c-92.066,0-166.967,74.89-166.967,166.942c0,92.074,74.901,166.981,166.967,166.981
	c92.061,0,166.956-74.907,166.956-166.981C407.436,144.859,332.541,69.97,240.48,69.97z"/>
<path fill="#FFFFFF" d="M240.48,76.141c-88.664,0-160.796,72.122-160.796,160.771c0,88.672,72.133,160.812,160.796,160.812
	c88.657,0,160.786-72.14,160.786-160.812C401.266,148.262,329.137,76.141,240.48,76.141z"/>
<path fill="#FFED00" d="M476.311,430.127c0,4.169,0,58.32,0,62.489c-4.571,0-467.101,0-471.672,0c0-4.169,0-58.32,0-62.489
	C9.21,430.127,471.74,430.127,476.311,430.127z"/>
<path d="M11.114,435.51c-0.634,0-1.147,0.514-1.147,1.147v49.428c0,0.634,0.514,1.147,1.147,1.147h458.722
	c0.634,0,1.147-0.514,1.147-1.147v-49.428c0-0.634-0.514-1.147-1.147-1.147H11.114z"/>
<path fill="#FFFFFF" d="M468.688,437.805c0,2.138,0,44.995,0,47.133c-2.278,0-454.149,0-456.427,0c0-2.138,0-44.995,0-47.133
	C14.539,437.805,466.41,437.805,468.688,437.805z"/>
<path d="M26.421,475.663h5.29l4.011-8.568h14.891l3.967,8.568h5.59l-14.057-28.626h-5.69 M37.345,463.784l5.923-12.613l5.833,12.613
	H37.345z"/>
<path d="M64.036,447.037v28.626h5.089v-12.269h8.279c6.511,0,8.034,0.334,8.423,4.577l0.3,3.746c0.145,1.699,0.245,3.01,0.978,3.945
	h5.979v-0.779c-1.234-0.487-1.623-1.556-1.767-3.354l-0.388-4.68c-0.301-3.065-1.034-4.621-4.313-5.356
	c3.378-1.21,5.189-3.41,5.189-6.521c0-3.223-1.767-5.601-4.9-6.912c-2.344-0.978-4.99-1.022-8.223-1.022 M69.081,450.393h8.768
	c5.723,0,8.667,0.777,8.667,4.667c0,3.855-2.789,5.066-8.667,5.066h-8.768V450.393z"/>
<polyline points="107.229,475.663 112.374,475.663 112.374,450.537 124.331,450.537 124.331,447.037 95.328,447.037 95.328,450.537 
	107.229,450.537 "/>
<polyline points="128.875,475.663 156.211,475.663 156.211,472.105 133.977,472.105 133.977,462.517 154.1,462.517 154.1,459.16 
	133.977,459.16 133.977,450.592 155.823,450.592 155.823,447.037 128.875,447.037 "/>
<polyline points="176.78,475.663 204.161,475.663 204.161,472.105 181.869,472.105 181.869,462.517 202.049,462.517 202.049,459.16 
	181.869,459.16 181.869,450.592 203.716,450.592 203.716,447.037 176.78,447.037 "/>
<polyline points="218.706,475.663 223.851,475.663 223.851,450.537 235.752,450.537 235.752,447.037 206.761,447.037 
	206.761,450.537 218.706,450.537 "/>
<polyline points="254.698,475.663 278.701,475.663 278.701,472.061 259.9,472.061 259.9,447.037 254.698,447.037 "/>
<path d="M278.556,475.663h5.335l4.021-8.568h14.891l3.966,8.568h5.58l-14.102-28.626h-5.634 M289.48,463.784l5.922-12.613
	l5.878,12.613H289.48z"/>
<path d="M321.361,472.206v-9.934h9.801c5.778,0,8.566,1.411,8.566,4.822c0,3.313-2.743,5.111-7.979,5.111 M321.361,459.06v-8.757
	h9.399c4.901,0,7.302,1.356,7.302,4.278c0,3.111-2.545,4.479-7.733,4.479H321.361z M316.215,475.663h16.024
	c8.034,0,12.734-3.413,12.734-8.568c0-3.7-2.701-6.233-7.201-6.868c3.578-1.122,5.434-3.21,5.434-6.233
	c0-4.622-3.966-6.956-11.8-6.956h-15.191V475.663z"/>
<path d="M350.063,461.393c0,9.546,6.812,15.047,17.879,15.047c11.113,0,17.879-5.501,17.879-15.047c0-9.59-6.766-15.09-17.879-15.09
	C356.875,446.303,350.063,451.803,350.063,461.393 M355.353,461.393c0-7.444,4.844-11.733,12.589-11.733
	c7.789,0,12.59,4.289,12.59,11.733c0,7.446-4.801,11.689-12.59,11.689C360.197,473.083,355.353,468.839,355.353,461.393z"/>
<path d="M392.278,447.037v28.626h5.1v-12.269h8.279c6.512,0,8.034,0.334,8.424,4.577l0.287,3.746
	c0.201,1.699,0.301,3.01,1.034,3.945h5.923v-0.779c-1.223-0.487-1.565-1.556-1.767-3.354l-0.389-4.68
	c-0.245-3.065-0.978-4.621-4.312-5.356c3.434-1.21,5.19-3.41,5.19-6.521c0-3.223-1.712-5.601-4.89-6.912
	c-2.356-0.978-4.945-1.022-8.235-1.022 M397.324,450.393h8.767c5.734,0,8.667,0.777,8.667,4.667c0,3.855-2.788,5.066-8.667,5.066
	h-8.767V450.393z"/>
<polyline points="427.159,475.663 454.528,475.663 454.528,472.105 432.25,472.105 432.25,462.517 452.428,462.517 452.428,459.16 
	432.25,459.16 432.25,450.592 454.094,450.592 454.094,447.037 427.159,447.037 "/>
<path d="M383.664,258.665c0-0.052-0.001-0.103-0.001-0.153c-0.067-4.028-2.73-7.624-7.916-10.689c-0.178-0.104-0.38-0.16-0.586-0.16
	c0,0-2.693,0-4.476,0c4.958-12.468,7.192-19.21,7.192-33.58c0-0.625-0.499-1.136-1.124-1.151c-1.707-0.041-3.254-0.813-4.892-1.629
	c-1.823-0.909-3.707-1.849-5.958-1.849c-3.404,0-7.2,1.813-11.22,3.734c-8.36,3.994-17.836,8.521-28.21,0.005
	c-0.272-0.223-0.631-0.31-0.975-0.235c-0.344,0.075-0.635,0.303-0.789,0.618c-5.718,11.663-14.515,18.173-23.075,24.402
	c-12.393-4.657-25.511-10.763-30.365-14.927c4.83-2.021,7.402-6.172,9.895-10.216c2.743-4.33,4.729-7.465,6.696-12.651
	c1.34-3.096,2.744-5.711,4.103-8.24c3.189-5.937,5.943-11.063,5.943-19.593c0-3.625,0-10.374-4.486-10.934l-0.049,0.389
	c0,0-0.012-0.001-0.023-0.002l0.04-0.391c-4.826-0.498-8.682-0.768-11.968-0.666c-10.176-6.349-11.628-20.318-11.628-34.54v-1.361
	l-1.352-0.169c-2.91-0.365-4.206,0.404-5.349,1.083c-0.213,0.126-0.424,0.235-0.636,0.347c-2.274-10.584-3.462-20.969-3.462-30.912
	c0-0.727,0.006-1.451,0.019-2.173l0.014-0.843l-0.701-0.468c-5.862-3.906-8.856-0.941-11.499,1.675
	c-0.921,0.911-1.872,1.853-2.979,2.579c-7.288,4.776-9.711,10.759-11.85,16.038c-1.281,3.162-2.507,6.169-4.651,8.771
	c-5.065-5.037-14.954-11.132-15.406-11.41l-3.267-2.005l1.35,5.179c0.471,1.768,0.835,3.24,1.15,4.578
	c-0.809-1.519-1.618-3.103-2.416-4.685c-3.526-6.999-5.823-11.322-8.498-11.989c-0.851-0.212-1.683-0.054-2.409,0.458
	c-2.324,1.689-10.078,8.966-15.74,14.279c-2.238,2.1-4.521,4.242-5.439,5.063c-3.319-0.324-7.854-3.935-11.888-7.172
	c-5.13-4.117-9.56-7.672-13.198-6.618l-1.174,0.34l0.79,15.507c-2.644,1.86-4.397,5.068-4.397,8.712c0,2.9,1.646,4.532,3.097,5.973
	c0.942,0.934,1.916,1.9,2.598,3.281c0.047,0.093,0.265,0.538,0.265,0.538c-0.007-0.016,0.964,2.096,0.964,2.096
	c0.24,0.508,0.468,0.998,0.687,1.486c-2.086-0.779-4.057-1.489-6.15-1.998c-1.831-0.686-3.838-1.168-6.384-1.168
	c-1.279,0-2.304,0.415-3.047,1.233c-1.574,1.733-1.298,4.599-1.005,7.632l0.209,3.114c0,3.828,0.124,6.937,0.453,9.879
	c-1.897-0.464-4.383-1.248-7.005-2.083c-0.625-0.199-1.253-0.399-1.879-0.597c-5.08-1.821-9.768-3.408-12.4-2.993l-1.268,0.2
	l-0.034,1.283c-0.567,21.374,4.571,42.918,13.746,57.632c4.505,7.229,26.288,14.509,36.268,15.337
	c-0.365,1.113-0.622,2.19-0.789,3.273c-0.533,2.065-0.743,4.079-0.743,6.63c0,2.612,1.161,4.879,3.09,6.423
	c-8.703,9.926-19.86,11.598-29.043,12.971c-5.753,0.859-10.723,1.603-14.379,4.039c-0.263,0.176-0.443,0.451-0.496,0.764
	c-0.054,0.312,0.022,0.632,0.213,0.885c7.235,9.654,13.74,19.711,7.06,27.259c-0.238,0.269-0.336,0.632-0.268,0.983
	c0.068,0.353,0.297,0.651,0.619,0.811c1.198,0.594,2.625,1.093,4.136,1.622c6.73,2.356,15.106,5.29,13.741,19.621
	c-0.031,0.323,0.076,0.644,0.294,0.884s0.527,0.377,0.852,0.377c12.204,0,63.046-5.915,70.927-19.075
	c1.502-2.514,4.469-4.057,7.61-5.688c0.661-0.344,1.333-0.695,2.002-1.063c-0.046,0.33-0.076,0.522-0.079,0.542l-0.337,2.094
	l1.939-0.857c6.938-3.069,12.812-6.786,17.63-11.116c0.289,0.775,0.442,1.44,0.442,2.001c0,1.877-1.501,2.77-3.737,4.101
	c-1.354,0.806-2.89,1.719-4.269,3.026c-0.231,0.22-0.365,0.521-0.365,0.836c0,0.05,0.003,0.1,0.01,0.15
	c0.05,0.366,0.267,0.684,0.594,0.857l3.293,1.754c4.427,2.319,8.352,4.408,11.556,7.926c-22.519-6.16-31.022-0.988-40.694,5.037
	c-7.642,4.761-16.303,10.157-34.241,10.157c-0.417,0-0.79,0.246-0.993,0.611c-0.094,0.169-0.14,0.359-0.14,0.551
	c0,0.222,0.062,0.444,0.18,0.636l2.018,3.255c1.699,2.868,3.51,5.766,6.282,7.883c-6.333,2.98-8.793,5.668-11.549,8.732
	c-1.656,1.841-3.367,3.745-6.168,6.017c-0.272,0.221-0.426,0.551-0.426,0.894c0,0.075,0.007,0.15,0.022,0.226
	c0.084,0.419,0.393,0.757,0.803,0.878c0.872,0.258,2.358,0.28,4.239,0.31c2.169,0.033,7.932,0.121,8.065,1.411
	c0,0.001,0.657,7.912,0.657,7.912c0.737,10.187,1.27,17.547,8.389,28.541c0.187,0.288,0.493,0.479,0.834,0.518
	c0.341,0.039,0.682-0.076,0.93-0.314c3.272-3.149,14.748-9.123,19.697-10.061c0,0.055,0,0.22,0,0.22c0,0.23,0.069,0.456,0.199,0.646
	c3.143,4.628,6.175,7.786,9.269,9.652c0.353,0.213,0.793,0.221,1.154,0.021c13.055-7.25,18.813-14.438,21.641-27.796
	c0.52,1.09,1.109,2.14,1.716,3.161c1.244,2.097,2.42,4.076,2.712,6.377c0.055,0.435,0.352,0.801,0.767,0.943
	c0.414,0.144,0.874,0.038,1.185-0.27c4.835-4.786,7.488-14.048,7.488-21.342c0-1.63-0.164-3.124-0.435-4.485
	c3.063-2.108,5.01-4.563,6.85-6.956c1.262-1.639,2.481-3.201,4.028-4.636c1.983,6.643,3.21,12.194,3.21,17.76
	c0,2.666-0.311,5.362-0.898,8.191c-2.979,0.612-6.445,0.837-10.151,0.589c-0.351-0.023-0.692,0.114-0.929,0.374
	s-0.341,0.613-0.284,0.959c0.978,6.011,2.896,27.447,0.88,31.813c-0.188,0.406-0.123,0.885,0.166,1.226
	c0.289,0.342,0.75,0.485,1.182,0.367c3.48-0.949,7.016-2.629,10.434-4.253c5.136-2.44,10.446-4.963,15.511-4.963
	c0.613,0,1.118-0.48,1.149-1.093c0.195-3.825,0.281-7.669,0.281-11.502c0-13.929-1.135-27.707-2.267-39.963
	c1.089-1.929,1.56-4.008,1.993-6.027c0.46-2.147,0.895-4.175,2.054-5.901c4.105-6.026,8.871-4.71,16.085-2.717
	c11.435,3.16,27.096,7.487,50.597-14.48c0.002-0.002,1.614-1.462,1.614-1.462c3.206-2.85,6.839-6.079,6.839-10.984
	c0-3.41-3.487-4.032-6.288-4.533c-1.896-0.338-3.788-0.724-4.788-1.72c0.95-0.612,2.209-1.424,2.209-1.424
	C369.173,277.342,383.664,268.113,383.664,258.665z M196.606,261.499c-4.672-3.406-9.175-6.918-12.8-9.778
	c1.05,0.067,2.147,0.107,3.336,0.107h12.601l-0.065,0.343C199.331,254.255,198.796,257.428,196.606,261.499z M221.663,274.08
	c-1.055,0.389-2.531,0.245-4.301-0.294c3.964-3.01,7.576-6.601,10.513-10.919c2.026,3.428,2.995,8.005,3.398,12.564
	C228.136,274.066,224.161,273.171,221.663,274.08z M276.701,284.047c0.316,5.625,1.635,11.306,2.91,16.799
	c1.447,6.232,2.933,12.629,2.933,18.962c0,0.813-0.039,1.623-0.091,2.434c-6.417-10.688-11.103-22.555-15.624-34.076
	c-2.233-5.688-4.543-11.56-7.03-17.212c2.695-4.813,4.539-10.104,5.485-15.879c0,0,0.074-0.391,0.146-0.773
	c0.396,0.036,0.788,0.072,0.788,0.072c5.8,0.594,11.422,0.871,16.86,0.84c-3.965,6.051-6.501,13.743-6.501,24.572
	C276.578,281.155,276.618,282.575,276.701,284.047z"/>
<path fill="#009036" d="M356.01,283.023l3.25-2.096c8.276-5.271,22.102-14.077,22.102-22.258c0-0.04-0.001-0.08-0.001-0.12
	c-0.053-3.11-2.276-5.995-6.555-8.585c-0.63,0-5.813,0-5.813,0c-0.382,0-0.739-0.189-0.953-0.506
	c-0.131-0.193-0.198-0.419-0.198-0.646c0-0.145,0.027-0.289,0.083-0.428c5.174-12.934,7.515-19.47,7.629-33.288
	c-1.724-0.276-3.248-1.002-4.719-1.735c-1.657-0.826-3.222-1.607-4.931-1.607c-2.883,0-6.45,1.705-10.228,3.509
	c-8.255,3.944-18.47,8.723-29.542,0.491c-5.672,10.853-13.816,17.261-21.905,23.18c9.158,3.317,17.554,5.691,21.414,5.691
	l0.46,2.206c-11.838,5.166-25.315,7.942-40.229,8.329c-4.281,5.932-6.997,13.489-6.997,24.564c0,1.345,0.04,2.74,0.122,4.191
	c0.305,5.428,1.601,11.01,2.854,16.407c1.479,6.365,2.995,12.896,2.995,19.467c0,2.036-0.146,4.076-0.483,6.116
	c-0.078,0.47-0.437,0.843-0.902,0.939s-0.943-0.104-1.201-0.503c-7.471-11.592-12.607-24.68-17.576-37.337
	c-2.025-5.162-4.132-10.457-6.354-15.603c-1.878,2.912-4.108,5.624-6.666,8.147c0.65,1.473,0.97,2.726,0.97,3.766
	c0,3.105-2.456,4.566-4.855,5.994c-0.86,0.512-1.723,1.073-2.563,1.691c0.855,0.456,1.717,0.915,1.717,0.915
	c5.498,2.88,10.69,5.602,14.529,11.374c0.129,0.193,0.193,0.416,0.193,0.638c0,0.242-0.077,0.484-0.229,0.688
	c-0.291,0.391-0.795,0.556-1.26,0.413c-24.182-7.396-32.542-2.188-42.224,3.844c-7.604,4.738-16.212,10.069-33.415,10.467
	c0.5,0.807,1.002,1.615,1.002,1.615c1.97,3.324,3.83,6.465,7.147,8.257c0.373,0.201,0.604,0.591,0.604,1.013
	c0,0.018,0,0.035-0.001,0.053c-0.02,0.44-0.291,0.832-0.697,1.006c-7.31,3.129-9.639,5.72-12.589,9
	c-1.208,1.344-2.541,2.821-4.337,4.462c0.369,0.009,0.751,0.015,1.131,0.021c4.676,0.071,9.977,0.152,10.32,3.479l0.663,7.98
	c0.711,9.83,1.249,16.481,7.348,26.327c4.778-3.773,16.728-9.919,21.358-9.919c0.636,0,1.151,0.516,1.151,1.151c0,0,0,0.712,0,1.136
	c2.688,3.91,5.253,6.623,7.813,8.314c13.565-7.676,18.493-14.998,20.8-30.88c0.086-0.596,0.617-1.024,1.217-0.983
	c0.601,0.041,1.068,0.538,1.073,1.14c0.021,2.69,1.348,4.926,2.753,7.293c0.927,1.561,1.859,3.168,2.46,4.953
	c3.482-4.636,5.412-12.124,5.412-18.07c0-1.741-0.165-3.35-0.504-4.713c-0.022-0.092-0.034-0.186-0.034-0.277
	c0-0.388,0.196-0.758,0.534-0.972c3.128-1.985,4.958-4.363,6.895-6.882c1.617-2.103,3.29-4.277,5.754-6.183
	c0.299-0.23,0.691-0.301,1.051-0.188c0.36,0.114,0.642,0.397,0.753,0.758c2.864,9.262,5.229,18.494,2.725,29.585
	c-0.098,0.43-0.432,0.767-0.86,0.867c-2.963,0.694-6.456,0.954-10.151,0.813c0.613,4.521,1.573,14.438,1.573,22.219
	c0,2.896-0.149,5.436-0.483,7.333c2.685-0.929,5.434-2.217,8.113-3.489c5.004-2.378,10.17-4.745,15.372-5.064
	c0.16-3.464,0.255-6.94,0.255-10.412c0-13.958-1.149-27.803-2.287-40.085c-0.003-0.036-0.005-0.071-0.005-0.106
	c0-0.213,0.06-0.422,0.171-0.604c1.043-1.693,1.458-3.63,1.898-5.681c0.485-2.265,0.987-4.607,2.398-6.707
	c5.036-7.396,11.324-5.658,18.604-3.646c10.91,3.015,25.853,7.144,48.409-13.941l1.659-1.503c2.982-2.65,6.065-5.393,6.065-9.264
	c0-1.336-1.406-1.733-4.391-2.267c-2.802-0.501-5.979-1.068-7.094-3.871c-0.057-0.143-0.084-0.29-0.084-0.436
	C355.494,283.597,355.676,283.238,356.01,283.023z"/>
<path fill="#009036" d="M172.639,250.236l0.158,0.021c-1.21-0.123-2.33-0.427-3.333-0.879c-9.238,10.816-21.011,12.604-30.69,14.051
	c-4.923,0.736-9.179,1.438-12.348,3.122c4.27,5.723,9.537,13.17,9.537,20.284c0,2.598-0.768,5.139-2.481,7.539
	c0.807,0.324,1.668,0.643,2.598,0.968c6.231,2.183,15.429,5.402,15.429,18.852c0,0.59-0.056,1.241-0.093,1.872
	c15.669-0.305,60.974-6.623,67.742-17.926c1.836-3.073,5.236-4.841,8.523-6.55c1.197-0.622,2.348-1.226,3.399-1.863
	c0.219-2.189,0.444-5.25,0.444-8.636c0-0.988-0.029-2.007-0.075-3.034c-0.124-0.063-0.24-0.13-0.368-0.191
	c-3.253-1.574-6.883-2.257-8.627-1.623c-1.827,0.673-4.337,0.308-7.347-0.832c-19.232,13.126-45.231,13.58-46.624,13.592
	l-4.348,0.034l3.761-2.182c15.871-9.205,23.621-17.162,27.539-23.354c-4.894-3.574-10.041-7.585-15.173-11.646
	c-0.239-0.189-0.479-0.378-0.718-0.567c-1.201-0.163-2.396-0.35-3.646-0.548L172.639,250.236z"/>
<path fill="#009036" d="M266.453,252.083l-1.786-0.16c-1.199,0-1.37,1.046-1.654,2.779c-1.003,6.121-4.072,24.429-29.783,36.624
	c0.268-2.226,0.618-5.939,0.618-10.195c0-7.115-0.984-15.671-4.992-21.007l-1.011-1.346l-0.887,1.431
	c-12.882,20.765-42.538,25.252-53.911,26.219c25.879-16.024,27.923-27.989,28.903-33.88c0,0,0.066-0.349,0.137-0.721h7.404
	l0.287-0.121c2.793-1.178,4.86-2.445,7.047-3.786c1.531-0.938,3.113-1.909,5.01-2.875c5.393-2.63,10.019-5.281,14.491-7.846
	c9.921-5.688,18.489-10.601,31.876-13.224c0.22-0.042,0.424-0.098,0.637-0.147c6.986,7.202,37.97,19.806,52.252,22.539
	C305.469,252.265,287.122,254.2,266.453,252.083z"/>
<path fill="#E2001A" d="M266.709,127.712c-0.85,0.061-1.382,0.309-2.042,0.701c-0.722,0.428-1.619,0.962-3.06,1.262l-1.485,0.309
	l-0.334-1.48c-2.577-11.404-3.88-22.598-3.88-33.31c0-0.432,0.007-0.862,0.011-1.293c-3.203-1.859-4.537-0.682-6.922,1.679
	c-0.98,0.971-2.093,2.071-3.459,2.967c-6.481,4.248-8.616,9.518-10.681,14.615c-1.404,3.466-2.867,7.033-5.625,10.142
	c2.513,4.816,4.756,7.814,7.119,10.952c1.752,2.326,3.564,4.732,5.626,8.036l0.041,0.066l0.034,0.07
	c0.44,0.896,1.274,1.649,2.157,2.448c0.994,0.898,2.12,1.917,2.814,3.275c2.635,4.833,3.054,9.165,3.458,13.354
	c0.346,3.573,0.702,7.267,2.4,11.553l0.108,0.274v6.034c0.608-0.619,1.229-1.218,1.846-1.81c0,0,2.532-2.527,2.535-2.531
	c8.044-8.671,12.663-12.565,19.48-13.818C267.23,152.701,266.734,137.283,266.709,127.712z"/>
<path fill="#E2001A" d="M237.475,190.351l0.011-0.071l0.017-0.069c0.023-0.095,2.187-9.293-0.696-15.01
	c-0.374,0.113-0.769,0.217-1.191,0.309l-1.79,0.479c-2.207,0.608-4.114,1.134-7.068,1.134c-7.095,0-12.355-2.425-17.442-4.771
	c-5.005-2.308-9.733-4.487-16.15-4.487c-0.619,0-0.917,0.22-1.106,0.411c-1.109,1.117-1.227,4.263-1.227,6.774
	c0,0.359,0.002,0.706,0.005,1.032c0,0,0.004,0.842,0.004,0.954c0.009,0.11,1.167,15.093,1.167,15.093v0.06
	c0,8.57-0.37,14.739-5.283,22.077l-0.926,1.497c-1.398,2.283-2.681,4.372-4.614,5.994
	C217.236,224.705,235.624,203.013,237.475,190.351z"/>
<path fill="#E2001A" d="M222.478,163.056c1.866,1.093,3.628,2.126,5.945,2.949c0.708,0.26,1.571,0.375,2.49,0.429
	c-0.766-6.15-2.441-10.278-4.692-15.807c0,0-1.159-2.866-1.16-2.873c-0.643-1.426-1.512-2.419-2.432-3.47
	c-1.139-1.302-2.317-2.648-2.994-4.702c-2.179-5.778-4.008-9.198-6.643-13.816l-0.777-1.023c-2.111-2.783-4.196-6.921-6.212-10.924
	c-1.881-3.734-5.008-9.931-6.432-10.348c-2.239,1.659-10.11,9.043-15.347,13.958c-6.353,5.962-6.353,5.962-7.072,5.962
	c-4.436,0-9.449-4.023-14.298-7.915c-3.27-2.624-6.891-5.514-9.216-6.023c0.093,1.812,0.407,7.972,0.583,11.447
	c0.727-0.188,1.482-0.299,2.262-0.299c4.092,0,6.755,1.393,9.574,2.867c1.475,0.771,3,1.568,4.866,2.223l1.126,0.422
	c3.551,1.332,6.117,2.294,10.26,3.005c4.177,0.997,7.203,2.606,10.13,4.162c1.838,0.977,3.739,1.988,5.929,2.852l2.013,0.702
	c2.348,0.778,4.565,1.514,6.251,3.551c3.488,3.711,4.338,7.341,5.238,11.185c0.568,2.427,1.164,4.936,2.447,7.803
	c0.036,0.01,0.07,0.019,0.106,0.029C217.795,160.311,220.176,161.707,222.478,163.056z"/>
<path fill="#E2001A" d="M240.51,190.902c-0.93,6.126-5.299,14.916-14.724,22.256c9.818-5.648,15.219-12.602,16.551-16.606
	c0.879-2.656,2.426-5.02,3.921-7.305c1.014-1.549,1.972-3.012,2.728-4.546c0.378-0.769,0.816-1.483,1.293-2.16h-0.373
	c0,0,0-8.204,0-8.67c-1.746-4.544-2.137-8.375-2.494-12.07c-0.393-4.06-0.763-7.895-3.114-12.21
	c-0.456-0.891-1.282-1.637-2.156-2.427c-1.01-0.914-2.155-1.948-2.856-3.375l0.075,0.136c-1.99-3.19-3.761-5.541-5.473-7.813
	c-2.572-3.415-5.006-6.664-7.805-12.185c-2.82-3.206-8.73-7.346-12.459-9.813c1.146,4.504,1.604,7.046,1.604,8.579
	c0,0.261-0.016,0.487-0.041,0.695c2.976,5.193,4.945,8.764,7.358,15.167c0.502,1.521,1.385,2.53,2.408,3.698
	c0.98,1.121,2.091,2.39,2.949,4.297l1.178,2.915c2.396,5.886,4.167,10.239,4.952,17.022c2.349,0.009,4.519,0.129,5.883,1.492
	c0.744,0.744,1.121,1.737,1.121,2.953c0,1.164-0.498,2.135-1.461,2.912C242.892,180.483,240.683,190.174,240.51,190.902z"/>
<path fill="#E2001A" d="M174.443,182.1c-0.875-3.781-1.779-7.69-1.779-12.691l-0.001-0.07c-2.62-2.72-3.232-5.665-3.864-8.779
	l-0.969-4.077l-0.066-0.265v-6.875l0.022-0.129c0.588-3.421,1.812-10.539,7.699-10.539c3.569,0,6.208,1.426,8.759,2.805
	c0,0,1.585,0.84,1.577,0.835l3.387,1.625c6,2.815,11.679,5.492,14.375,12.793c2.222,0.447,4.509,0.991,7.005,1.639
	c-0.807-2.227-1.288-4.251-1.72-6.1c-0.872-3.725-1.561-6.667-4.545-9.846c-1.186-1.429-2.83-1.974-4.912-2.665
	c0,0-2.14-0.747-2.157-0.753c-2.369-0.935-4.348-1.987-6.262-3.004c-2.883-1.532-5.605-2.979-9.3-3.865
	c-4.334-0.74-7.155-1.798-10.726-3.138c0,0-1.12-0.419-1.092-0.409c-2.048-0.718-3.747-1.607-5.246-2.391
	c-2.688-1.405-4.811-2.515-8.145-2.515c-3.943,0-6.592,3.787-6.592,7.323c0,1.543,0.749,2.358,2.184,3.782
	c1.069,1.061,2.281,2.263,3.223,4.168c0,0,0.279,0.571,0.286,0.588l0.934,2.03c0.859,1.817,1.669,3.536,2.271,5.908
	c1.52,4.584,1.618,8.174,1.71,11.646c0.075,2.819,0.152,5.734,0.998,9.248c0.685,2.601,0.989,4.794,1.283,6.915
	c0.364,2.62,0.707,5.094,1.768,8c0.706,1.991,1.902,3.175,3.288,4.545c1.208,1.194,2.576,2.547,3.566,4.506
	c1.514,2.859,2.774,5.562,3.71,8.399c0.839-1.899,1.029-3.834,1.029-6.647C176.143,189.448,175.317,185.878,174.443,182.1z"/>
<path fill="#E2001A" d="M183.167,214.153c0,0,0.947-1.531,0.97-1.567c4.452-6.65,4.782-12.129,4.784-20.342
	c-0.01-0.128-1.166-15.087-1.166-15.087l-0.005-1.051c-0.003-0.375-0.005-0.759-0.005-1.149c0-3.239,0.185-6.9,2.124-8.853
	c0.859-0.865,1.999-1.323,3.296-1.323c7.095,0,12.355,2.425,17.442,4.771c5.005,2.308,9.733,4.487,16.15,4.487
	c2.537,0,4.174-0.451,6.248-1.023c0,0,1.851-0.496,1.903-0.508c2.101-0.456,3.041-1.121,3.041-1.577c0-0.553-0.163-0.716-0.216-0.77
	c-0.595-0.594-2.704-0.593-4.398-0.591c-2.04,0.002-4.149,0.003-5.96-0.663c-2.576-0.914-4.548-2.07-6.457-3.188
	c-2.225-1.304-4.326-2.536-7.304-3.341c-11.293-3.108-17.25-4.211-28.194-4.211c-3.239,0-6.297,0-8.173,1.91
	c-1.658,1.634-1.669,3.608-1.551,6.959l0.055,2.373c0,4.648,0.825,8.217,1.699,11.996c0.875,3.781,1.779,7.69,1.779,12.691
	c0,4.394-0.5,7.355-3.011,10.818c0.488,2.411,0.755,4.991,0.755,7.893l0.084,2.435c0.097,1.804,0.178,3.544-0.347,5.569
	C179.791,219.533,181.271,217.25,183.167,214.153z"/>
<path fill="#E2001A" d="M173.358,221.187c0.815-2.075,0.732-3.674,0.618-5.778l-0.089-2.602c0-7.644-1.994-12.944-5.224-19.044
	c-0.777-1.536-1.854-2.602-2.995-3.73c-1.517-1.5-3.085-3.051-4.022-5.695c-1.168-3.201-1.534-5.833-1.92-8.62
	c-0.282-2.031-0.573-4.131-1.219-6.585c-0.929-3.86-1.011-6.941-1.09-9.919c-0.086-3.224-0.181-6.289-1.366-10.141
	c-2.194-0.719-3.993-1.573-5.578-2.337c-2.818-1.359-5.045-2.433-8.59-2.433c-0.562,0-0.713,0.167-0.763,0.222
	c-0.656,0.723-0.403,3.346-0.219,5.262l0.224,3.41c0,9.521,0.78,14.43,3.805,23.915c1.214,4.169,2.928,6.655,4.911,9.533
	c1,1.452,2.034,2.953,3.081,4.777l-2.677,1.535c-0.983-1.714-1.98-3.162-2.945-4.562c-2.046-2.969-3.979-5.774-5.321-10.384
	c-1.434-4.493-2.376-7.998-2.981-11.429c-2.071-0.307-5.069-1.353-9.192-2.837c-3.752-1.351-8.253-2.965-10.836-3.267
	c-0.008,0.544-0.021,1.088-0.021,1.632c0,19.739,4.9,39.27,13.32,52.775c3.899,6.255,26.345,13.891,35.244,13.961
	c1.202-2.755,2.685-5.88,5.541-7.055v-0.606C173.053,221.187,173.175,221.187,173.358,221.187z"/>
<path fill="#E2001A" d="M187.897,146.732c0,0-3.458-1.659-3.467-1.664l-1.653-0.875c-2.417-1.306-4.504-2.434-7.292-2.434
	c-2.704,0-3.814,3.139-4.635,7.858c0,0.267,0,5.934,0,6.25c0.115,0.483,0.973,4.078,0.973,4.078
	c0.249,1.226,0.482,2.339,0.814,3.379c0.184-1.963,0.775-3.801,2.424-5.428c2.766-2.816,6.799-2.816,10.358-2.816
	c5.673,0,10.125,0.313,14.519,0.999C197.48,151.243,193.164,149.204,187.897,146.732z"/>
<path fill="#E2001A" d="M280.633,163.858l-0.02,0.034c-0.017-0.009-0.032-0.02-0.049-0.03c-8.053,0.486-12.176,3.823-20.928,13.256
	l-2.664,2.663c-2.073,1.987-4.03,3.865-5.219,6.281c-0.84,1.704-1.895,3.315-2.914,4.873c-1.45,2.217-2.821,4.312-3.574,6.587
	c-3.543,10.654-25.897,32.209-69.236,26.86l0.014-0.114l-0.47-0.119v0.245c-2.573,0-3.819,2.426-5.425,6.127
	c0,0-0.104,0.241-0.119,0.271c-1.985,4.305-2.559,6.764-2.559,10.965c0,2.859,2.29,5.088,5.637,5.428l3.259,0.502
	c3.722,0.589,6.662,1.054,10.774,1.054c0,0,21.001,0,21.683,0c2.446-1.057,4.374-2.219,6.386-3.452
	c1.582-0.97,3.217-1.973,5.247-3.006c5.324-2.596,9.904-5.222,14.333-7.761c9.735-5.582,18.931-10.854,32.824-13.577
	c5.585-1.068,8.059-5.083,10.938-9.754c2.651-4.185,4.567-7.209,6.45-12.168c1.417-3.281,2.918-6.076,4.243-8.542
	c3.115-5.799,5.575-10.379,5.575-18.132c0-5.074-0.6-7.722-1.78-7.871C287.862,163.945,283.921,163.667,280.633,163.858z"/>
<path fill="#FFED00" d="M273.577,178.56c-0.167,1.274,0.73,2.442,2.005,2.609l11.613,1.521c1.273,0.167,2.441-0.73,2.608-2.004
	s-0.73-2.442-2.005-2.609l-11.613-1.521C274.912,176.389,273.744,177.286,273.577,178.56z"/>
<path fill="#FFED00" d="M244.586,255.959l-5.689,23.552c-0.302,1.249,0.466,2.506,1.715,2.808c1.25,0.302,2.506-0.467,2.808-1.716
	l5.689-23.552c0.302-1.249-0.467-2.506-1.716-2.808S244.888,254.71,244.586,255.959z"/>
<path fill="#FFED00" d="M275.127,172.515c-0.072,1.283,0.909,2.381,2.192,2.454l13.911,0.783c1.283,0.072,2.382-0.909,2.454-2.192
	c0.072-1.283-0.909-2.381-2.192-2.454l-13.911-0.783C276.298,170.251,275.2,171.232,275.127,172.515z"/>
<path fill="#FFED00" d="M240.01,214.658c-1.117,0.634-1.509,2.055-0.874,3.172l3.088,5.438c0.635,1.117,2.055,1.509,3.173,0.874
	c1.117-0.634,1.508-2.055,0.874-3.172l-3.089-5.438C242.547,214.415,241.127,214.023,240.01,214.658z"/>
<path fill="#FFED00" d="M246.865,209.166c-0.985,0.824-1.116,2.292-0.291,3.277l7.745,9.257c0.824,0.985,2.292,1.116,3.277,0.291
	c0.985-0.824,1.115-2.292,0.291-3.277l-7.745-9.257C249.318,208.472,247.85,208.341,246.865,209.166z"/>
<path fill="#FFED00" d="M253.484,204.2c-0.94,0.876-0.992,2.348-0.116,3.289l10.045,10.778c0.876,0.94,2.349,0.992,3.288,0.116
	c0.94-0.876,0.992-2.348,0.116-3.288l-10.045-10.779C255.896,203.376,254.423,203.324,253.484,204.2z"/>
<path fill="#FFED00" d="M222.601,182.294c-5.778-2.303-10.045-3.432-16.212-3.432c-6.957,0-10.045,6.563-11.212,13.472v7.738
	c5.778-7.346,5.778-18.124,15.079-18.124C214.855,181.948,217.944,183.469,222.601,182.294"/>
<path d="M221.78,317.135c-0.055,0.187,0.036,0.385,0.212,0.466c3.137,1.438,5.245,2.663,7.476,3.959l2.542,1.46
	c0.022,0.011,1.286,0.578,1.286,0.578c2.03,0.88,3.948,1.71,3.948,3.687c0,4.565-5.248,6.954-10.432,6.954
	c-8.201,0-13.123-0.689-21.945-3.072c-0.189-0.052-0.387,0.045-0.463,0.226s-0.008,0.389,0.161,0.489
	c3.768,2.237,6.909,3.532,11.813,3.532l2.38-0.072c2.675-0.119,5.707-0.255,6.988,0.97c0.454,0.435,0.675,1.022,0.675,1.797
	c0,2.171-1.488,3.572-3.063,5.057c-0.802,0.756-1.631,1.537-2.296,2.45c-2.31,3.317-4.5,6.033-6.619,8.66
	c-3.518,4.362-6.841,8.484-10.012,14.542c0,0.001,0,0.001-0.001,0.002c0,0,0,0,0,0c-0.004,0.008-0.009,0.014-0.013,0.021
	c-0.03,0.058-0.045,0.12-0.045,0.182c0,0.137,0.072,0.27,0.2,0.341c0.184,0.104,0.417,0.043,0.527-0.138
	c2.2-3.621,4.4-5.537,7.184-7.962l0.484-0.422c3.892-3.505,6.552-6.864,9.125-10.113c2.378-3.004,4.874-6.106,8.301-9.309
	c-0.073,0.499-0.172,0.976-0.293,1.451c-0.198,0.781-0.403,1.588-0.403,2.594c0,1.775,0.304,3.065,0.598,4.313
	c0.298,1.266,0.58,2.46,0.58,4.161c0,0-0.39,6.97-0.39,6.977c0,0.167,0.109,0.305,0.27,0.358c0.167,0.057,0.353-0.02,0.452-0.166
	l0.547-0.818c0.692-1.021,1.477-2.178,1.794-3.091c0.014-0.042,0.021-0.085,0.021-0.129v-14.312
	c1.111-6.525,5.051-8.876,11.522-12.438c-0.075,1.318-1.082,19.007-1.082,19.014c0,0.189,0.136,0.354,0.324,0.386
	c0.195,0.034,0.387-0.083,0.443-0.274c0.929-3.123,1.175-5.883,1.413-8.553c0.354-3.978,0.661-7.413,3.135-11.039
	c2.424-3.539,6.175-4.337,10.147-5.182c2.807-0.597,5.71-1.214,8.295-2.836c0.102-0.063,0.168-0.169,0.182-0.288
	c0.013-0.118-0.028-0.236-0.112-0.32c-0.22-0.221-0.379-0.592-0.548-0.985c-0.349-0.813-0.783-1.823-2.029-1.823
	c-4.544,0-7.931,1.488-11.205,2.928c-3.335,1.467-6.485,2.852-10.831,2.852c-4.438,0-7.57-1.722-10.885-3.544
	c-2.899-1.594-5.898-3.242-9.93-3.797C222.017,316.83,221.834,316.949,221.78,317.135z"/>
<path fill="#FFED00" d="M207.864,332.754c3.706,0.918,6.772,1.489,9.906,1.833c-0.671,0.021-1.392,0.043-1.392,0.043
	C212.942,334.63,210.401,333.951,207.864,332.754z"/>
<path fill="#FFED00" d="M229.862,320.882c-1.404-0.815-2.789-1.608-4.382-2.439c2.317,0.755,4.334,1.827,6.283,2.897
	c3.406,1.872,6.623,3.641,11.263,3.641c4.511,0,7.884-1.482,11.146-2.917c3.2-1.407,6.511-2.862,10.89-2.862
	c0.694,0,0.95,0.513,1.31,1.35c0.12,0.281,0.258,0.556,0.415,0.812c-2.382,1.39-5.066,1.987-7.675,2.542
	c-4.13,0.878-8.03,1.707-10.631,5.506c-2.59,3.796-2.92,7.495-3.27,11.412c-0.083,0.933-0.179,1.886-0.293,2.852
	c0.328-5.754,0.799-14.034,0.799-14.042c0-0.134-0.068-0.26-0.183-0.331c-0.12-0.076-0.272-0.081-0.397-0.013
	c-6.821,3.749-11.327,6.226-12.543,13.404c0,0-0.005,14.121-0.005,14.291c-0.257,0.711-0.853,1.626-1.438,2.494
	c0.055-0.975,0.309-5.539,0.309-5.539c0-1.792-0.305-3.088-0.6-4.341c-0.297-1.26-0.577-2.449-0.577-4.134
	c0-0.907,0.184-1.633,0.379-2.4c0.202-0.794,0.41-1.615,0.41-2.653c0-0.154-0.091-0.295-0.232-0.357
	c-0.142-0.063-0.307-0.037-0.422,0.066c-3.896,3.503-6.56,6.867-9.137,10.122c-2.553,3.223-5.193,6.557-9.031,10.014
	c0.004-0.004-0.479,0.417-0.479,0.417c-1.292,1.126-2.452,2.154-3.556,3.282c2.199-3.382,4.471-6.252,6.839-9.188
	c2.127-2.638,4.326-5.364,6.647-8.698c0.617-0.847,1.419-1.603,2.195-2.334c1.627-1.533,3.309-3.118,3.309-5.627
	c0-0.986-0.308-1.781-0.917-2.363c-0.347-0.332-0.797-0.559-1.286-0.743c0.597,0.008,1.179,0.021,1.811,0.021
	c5.573,0,11.215-2.657,11.215-7.737c0-2.491-2.348-3.508-4.42-4.405l-1.236-0.554C232.392,322.335,229.862,320.882,229.862,320.882z
	"/>
<path d="M356.247,229.604c-0.004,0.005-0.007,0.009-0.011,0.014c0,0,0-0.001,0.001-0.001c-6.206,8.023-11.369,11.545-19.184,16.876
	l-1.196,0.817c-2.077,1.45-3.497,3.207-4.871,4.907c-1.857,2.299-3.666,4.443-6.861,5.6c0-1.035,0-8.272,0-8.272
	c0-0.2-0.15-0.368-0.35-0.39s-0.383,0.111-0.425,0.307c-0.48,2.218-0.443,4.222-0.407,6.159c0.052,2.75,0.1,5.348-1.45,8.028
	c-1.932,3.31-3.99,5.62-6.17,8.066c-1.357,1.522-2.76,3.098-4.234,5.018c-0.979,1.242-1.607,2.737-2.216,4.184
	c-1.109,2.641-2.068,4.921-4.82,4.921c-0.282,0-0.512-0.142-0.777-0.306c-0.226-0.14-0.494-0.264-0.798-0.342
	c0-0.594,0-13.608,0-13.608l-2.701-10.918c-0.051-0.207-0.259-0.334-0.466-0.287c-0.208,0.047-0.341,0.251-0.298,0.46
	c1.283,6.298,1.247,9.938,1.194,15.445l-0.023,3.774c0,11.758-4.189,18.577-9.988,28.015c-0.015,0.026-0.386,0.74-0.386,0.74
	c-1.304,2.488-3.089,5.896-1.051,7.146c1.804,1.302,5.144-0.841,6.351-2.446c2.688-3.474,3.867-6.237,4.673-10.947
	c1.874-8.906,9.614-10.869,18.576-13.142l0.426-0.107c5.292-1.36,9.455-1.967,13.48-2.554c5.145-0.75,10.003-1.458,16.725-3.625
	c0.184-0.06,0.297-0.243,0.267-0.434c-0.029-0.19-0.193-0.331-0.387-0.331h-15.48c-0.047,0-0.093,0.008-0.137,0.024
	c-7.166,2.673-11.07,3.845-18.375,3.845c-0.98,0-1.461-0.164-2.127-0.39c0,0-0.24-0.073-0.442-0.135
	c4.396-2.883,6.115-5.614,8.412-11.383c1.754-4.767,5.068-9.604,9.125-8.915c8.981,1.531,14.406-0.752,22.277-4.693
	c0.003-0.002,1.714-0.976,1.714-0.976c0.54-0.324,1.058-0.616,1.582-0.878c2.355-0.463,4.859-0.8,7.696-0.8
	c0.217,0,0.392-0.175,0.392-0.392s-0.175-0.392-0.392-0.392h-4.601c-1.313,0-2.362,0.356-3.345,0.835
	c-1.887,0.375-3.686,0.822-5.439,1.277c-3.977,1.03-8.088,2.096-13.262,2.096l-2.913,0.094c-1.479,0.075-2.832,0.105-4.467-0.05
	c2.909-4.907,6.297-7.629,9.89-10.445c2.444-1.917,4.973-3.898,7.439-6.679c2.539-2.756,4.193-5.324,5.794-7.809
	c1.341-2.081,2.727-4.232,4.636-6.499l0,0c0.003-0.004,0.007-0.008,0.01-0.013c0.056-0.071,0.082-0.156,0.082-0.239
	c0-0.115-0.05-0.228-0.146-0.305C356.626,229.418,356.384,229.441,356.247,229.604z"/>
<path fill="#FFED00" d="M323.848,258.787c3.78-1.167,5.707-3.552,7.747-6.076c1.34-1.657,2.725-3.371,4.707-4.755l1.192-0.814
	c5.605-3.824,9.856-6.751,14.106-11.033c-0.016,0.024-0.033,0.051-0.05,0.075c-1.582,2.456-3.218,4.996-5.716,7.708
	c-2.425,2.732-4.925,4.692-7.342,6.588c-3.799,2.978-7.386,5.79-10.446,11.217c-0.033,0.06-0.05,0.126-0.05,0.192
	c0,0.061,0.014,0.12,0.041,0.176c0.059,0.116,0.172,0.196,0.301,0.213c2.047,0.26,3.605,0.181,5.255,0.096l2.873-0.093
	c5.273,0,9.435-1.078,13.458-2.12c0.949-0.246,1.908-0.493,2.886-0.728c-0.488,0.277-1.044,0.594-1.044,0.594
	c-7.724,3.869-13.046,6.111-21.792,4.619c-4.529-0.77-8.129,4.355-9.988,9.408c-2.346,5.894-4.028,8.514-8.794,11.464
	c-0.131,0.081-0.193,0.233-0.174,0.386c0.021,0.153,0.137,0.282,0.284,0.327l1.194,0.362c0.709,0.241,1.27,0.432,2.379,0.432
	c7.408,0,11.368-1.181,18.581-3.869c0.113,0,8.964,0,12.662,0c-5.319,1.522-9.575,2.19-13.968,2.831
	c-4.047,0.59-8.231,1.199-13.563,2.569l-0.424,0.108c-9.216,2.336-17.176,4.354-19.153,13.753
	c-0.793,4.639-1.893,7.215-4.526,10.619c-1.175,1.561-4.011,3.195-5.293,2.271c-0.4-0.246-0.562-0.668-0.562-1.194
	c0-1.364,1.082-3.428,1.871-4.936l0.375-0.721c5.851-9.521,10.089-16.419,10.089-28.398l0.023-3.767
	c0.01-1.006,0.02-1.959,0.02-2.887c0-1.778-0.05-3.475-0.18-5.249c0.385,1.547,0.876,3.522,0.876,3.522l-0.012,13.825
	c0,0.217,0.175,0.392,0.392,0.392c0.283,0,0.513,0.142,0.778,0.306c0.32,0.198,0.684,0.422,1.188,0.422
	c3.272,0,4.427-2.745,5.543-5.4c0.588-1.397,1.196-2.844,2.111-4.007c1.46-1.9,2.854-3.465,4.201-4.977
	c2.206-2.477,4.291-4.815,6.263-8.194c1.034-1.789,1.403-3.514,1.522-5.252C323.746,258.797,323.796,258.803,323.848,258.787z"/>
<path d="M223.587,277.887c-0.339-0.586-0.769-0.921-1.292-1.022c-1.245-0.241-2.702,0.894-4.244,2.095
	c-0.922,0.718-1.875,1.46-2.708,1.823c-0.019,0.009-5.038,2.425-5.038,2.425c-2.896,1.361-5.397,2.537-8.913,4.55
	c-10.975,6.079-18.151,8.031-29.529,8.031c-0.171,0-0.322,0.11-0.374,0.274c-0.051,0.163,0.01,0.342,0.15,0.438
	c1.134,0.791,2.766,1.245,4.479,1.245c4.641,0,8.19-0.558,11.948-1.148c3.058-0.481,6.219-0.979,10.061-1.156
	c9.386-0.703,18.952-2.226,23.892-12.214c-0.003,0.007,0.498-0.89,0.498-0.89C223.339,280.916,224.271,279.303,223.587,277.887z"/>
<path fill="#FFED00" d="M50.584,329.957l8.089-3.576l-4.022-9.009c-0.733-1.565-1.566-2.739-2.646-3.477
	c-1.021-0.738-2.344-0.782-3.867-0.102c-1.711,0.783-2.544,1.956-2.5,3.521c0.144,1.274,0.589,2.851,1.377,4.605 M64.697,323.686
	l9.746-4.358l-3.967-8.966c-0.733-1.608-1.522-2.783-2.356-3.465c-1.512-1.274-3.378-1.376-5.634-0.403
	c-1.9,0.839-2.833,2.215-2.889,4.114c0,1.029,0.344,2.349,1.033,3.969L64.697,323.686z M39.228,311.055
	c1.078-1.812,2.645-3.186,4.845-4.158c2.201-0.983,4.268-1.23,6.124-0.737c1.033,0.29,2.155,0.928,3.333,1.855
	c-0.145-2.146,0.288-4.069,1.322-5.634c1.078-1.609,2.645-2.884,4.745-3.824c2.155-0.972,4.367-1.318,6.567-0.972
	c1.423,0.189,2.79,0.638,4.011,1.331c1.423,0.782,2.646,1.9,3.679,3.375c1.078,1.409,2.011,3.085,2.845,4.941l7.345,16.555
	l-36.537,16.308l-7.934-17.773C37.661,317.806,37.517,314.04,39.228,311.055z"/>
<polyline fill="#FFED00" points="29.727,294.892 27.86,286.765 59.841,279.366 55.385,260.072 62.396,258.458 68.764,285.882 "/>
<path fill="#FFED00" d="M46.917,238.231l0.534-10.138l-16.013,4.164 M22.081,236.42l0.489-9.401l40.704-12.101l-0.489,9.061
	l-8.323,2.157l-0.79,14.738l8.079,3.186l-0.433,8.719L22.081,236.42z"/>
<path fill="#FFED00" d="M29.826,196.458c-2.399-3.917-3.044-8.371-1.822-13.274c1.667-6.511,5-10.769,10.045-12.681
	c2.789-1.078,5.433-1.369,7.89-0.882l-2.011,8.082c-2.012,0.101-3.579,0.391-4.756,0.978c-2.056,1.079-3.422,3.036-4.156,5.93
	c-0.733,2.985-0.1,5.578,1.856,7.88c1.967,2.303,5.101,4.019,9.457,5.097c4.356,1.073,7.834,0.979,10.479-0.246
	c2.6-1.274,4.267-3.281,4.944-6.076c0.734-2.839,0.345-5.236-1.167-7.198c-0.789-1.079-2.111-2.152-3.979-3.18l2.012-8.037
	c4.022,1.766,7.056,4.409,8.967,7.986c1.911,3.526,2.345,7.54,1.223,12.044c-1.423,5.583-4.313,9.551-8.668,11.854
	c-4.412,2.302-9.746,2.643-16.013,1.123C37.36,204.15,32.561,201.014,29.826,196.458"/>
<polyline fill="#FFED00" points="39.372,151.602 42.994,144.202 57.785,151.407 49.751,130.297 54.507,120.6 62.152,142.542 
	90.844,137.4 86.143,147.047 64.986,150.473 66.941,155.86 78.942,161.741 75.375,169.134 "/>
<path fill="#FFED00" d="M75.864,104.146l6.657,5.779l6.467-7.395c1.122-1.325,1.812-2.594,2.055-3.868
	c0.201-1.274-0.344-2.449-1.611-3.577c-1.377-1.224-2.8-1.47-4.167-0.782c-1.178,0.687-2.356,1.761-3.623,3.231 M87.521,114.284
	l8.079,7.004l6.412-7.394c1.178-1.325,1.868-2.549,2.156-3.578c0.545-1.912-0.144-3.672-2-5.287
	c-1.578-1.375-3.234-1.665-4.956-0.883c-0.922,0.441-2,1.324-3.134,2.644L87.521,114.284z M88.199,85.881
	c2.055,0.196,4.022,1.079,5.833,2.593c1.811,1.616,2.889,3.381,3.233,5.293c0.145,1.029,0.044,2.297-0.3,3.768
	c1.912-1.029,3.822-1.42,5.689-1.175c1.911,0.291,3.722,1.175,5.478,2.694c1.767,1.515,2.989,3.375,3.623,5.533
	c0.444,1.37,0.645,2.79,0.545,4.208c-0.145,1.621-0.633,3.186-1.522,4.75c-0.834,1.571-1.956,3.091-3.279,4.656l-11.901,13.659
	l-30.214-26.246l12.723-14.692C81.398,87.301,84.776,85.585,88.199,85.881z"/>
<path fill="#FFED00" d="M99.61,69.768l6.812-5.091l14.791,19.634c1.667,2.207,3.134,3.627,4.411,4.213
	c2.156,1.224,4.601,0.783,7.345-1.274c2.69-2.057,3.768-4.259,3.234-6.662c-0.245-1.419-1.178-3.23-2.845-5.433l-14.835-19.64
	l6.8-5.091l14.791,19.633c2.6,3.381,4.067,6.467,4.412,9.11c0.633,4.997-1.767,9.552-7.301,13.716
	c-5.578,4.163-10.623,5.287-15.223,3.28c-2.501-1.079-5-3.331-7.546-6.757"/>
<path fill="#FFED00" d="M155.649,43.031l3.667,10.139l8.912-3.286c1.767-0.632,3.045-1.32,3.778-2.057
	c1.267-1.269,1.567-2.985,0.778-5.092c-0.833-2.252-2.156-3.526-3.911-3.772c-1.033-0.095-2.4,0.151-4.122,0.738 M170.439,31.327
	c1.667,0.095,3.179,0.537,4.601,1.318c1.178,0.689,2.2,1.47,3.09,2.449c0.877,0.983,1.611,2.253,2.156,3.722
	c0.633,1.766,0.833,3.722,0.589,5.778c-0.301,2.057-1.323,3.774-3.145,5.243c1.966,0.095,3.577,0.638,4.755,1.666
	s2.256,2.839,3.233,5.483l0.934,2.498c0.632,1.76,1.122,2.89,1.466,3.426c0.533,0.933,1.267,1.47,2.2,1.615l0.345,0.984
	l-8.667,3.129c-0.544-0.732-0.933-1.37-1.222-1.811c-0.589-0.979-1.078-2.058-1.522-3.129l-1.323-3.482
	c-0.878-2.398-1.911-3.817-3.089-4.309c-1.123-0.487-2.834-0.341-5.134,0.492l-8.134,2.984l5.389,14.744l-7.689,2.789
	l-13.668-37.609l18.413-6.712C166.717,31.668,168.817,31.276,170.439,31.327z"/>
<polyline fill="#FFED00" points="193.353,22.854 202.076,21.775 221.323,47.586 217.899,19.864 225.634,18.886 230.534,58.601 
	222.211,59.63 202.521,33.428 205.999,61.642 198.253,62.569 "/>
<path fill="#FFED00" d="M267.027,27.409l-1.724,10.574l9.401,1.521c1.866,0.292,3.289,0.292,4.267,0
	c1.768-0.492,2.846-1.86,3.18-4.063c0.398-2.404-0.145-4.114-1.612-5.193c-0.833-0.637-2.155-1.078-3.922-1.324 M285.628,24.324
	c1.421,0.878,2.555,2.006,3.378,3.375c0.688,1.129,1.232,2.353,1.521,3.672c0.301,1.274,0.346,2.693,0.101,4.265
	c-0.289,1.861-1.078,3.671-2.301,5.337c-1.222,1.665-3.032,2.694-5.288,3.085c1.666,1.029,2.788,2.252,3.322,3.723
	c0.588,1.469,0.644,3.621,0.2,6.365l-0.445,2.643c-0.289,1.811-0.39,3.036-0.334,3.723c0.045,1.079,0.435,1.912,1.122,2.499
	l-0.145,0.978l-9.11-1.419c-0.1-0.927-0.145-1.665-0.2-2.201c-0.044-1.13,0.056-2.303,0.2-3.477l0.532-3.678
	c0.346-2.543,0.156-4.259-0.578-5.287c-0.788-0.979-2.354-1.616-4.799-2.007l-8.524-1.375l-2.454,15.526l-8.079-1.275l6.267-39.569
	l19.402,3.085C282.151,22.804,284.262,23.492,285.628,24.324z"/>
<path fill="#FFED00" d="M323.442,68.594c2.847-1.325,5.245-4.069,7.202-8.082c1.955-4.063,2.589-7.589,1.91-10.629
	c-0.632-3.086-2.456-5.338-5.433-6.808c-2.991-1.419-5.879-1.515-8.723-0.146c-2.891,1.325-5.291,4.019-7.246,8.082
	c-2.011,4.019-2.646,7.589-1.911,10.63c0.677,3.085,2.544,5.332,5.534,6.802C317.708,69.869,320.598,69.913,323.442,68.594
	 M325.498,76.33c-4.11,1.519-8.711,0.978-13.857-1.521c-5.144-2.493-8.377-5.824-9.744-9.937
	c-1.967-5.243-1.379-11.067,1.757-17.533c3.233-6.562,7.444-10.631,12.732-12.145c4.068-1.521,8.669-0.984,13.813,1.514
	c5.146,2.5,8.424,5.83,9.746,9.943c2.011,5.099,1.421,10.922-1.757,17.534C335,70.651,330.789,74.664,325.498,76.33z"/>
<polyline fill="#FFED00" points="379.426,68.398 386.283,73.736 350.868,96.853 344.655,92.001 358.657,52.141 365.713,57.624 
	353.812,86.909 "/>
<polyline fill="#FFED00" points="409.639,109.433 395.439,93.667 389.126,99.345 402.151,113.792 396.96,118.448 383.982,104 
	376.292,110.903 391.125,127.357 385.792,132.208 365.513,109.628 395.239,82.847 414.883,104.683 "/>
<path fill="#FFED00" d="M424.775,132.6l-9.646,4.7l4.112,8.523c0.833,1.709,1.666,2.889,2.455,3.526
	c1.411,1.174,3.135,1.269,5.135,0.241c2.211-1.028,3.333-2.492,3.389-4.308c0-1.029-0.4-2.298-1.178-3.964 M437.954,146.113
	c0.1,1.622-0.201,3.186-0.833,4.706c-0.534,1.224-1.223,2.302-2.111,3.331c-0.88,0.979-2.056,1.811-3.479,2.492
	c-1.656,0.833-3.567,1.225-5.678,1.18c-2.056-0.051-3.868-0.934-5.534-2.549c0.145,1.962-0.245,3.623-1.178,4.896
	c-0.879,1.274-2.545,2.548-5.09,3.772l-2.401,1.174c-1.665,0.832-2.743,1.419-3.277,1.861c-0.833,0.637-1.278,1.419-1.379,2.353
	l-0.877,0.437l-4.066-8.272c0.688-0.637,1.278-1.079,1.71-1.42c0.934-0.687,1.913-1.324,2.946-1.86l3.334-1.666
	c2.244-1.128,3.566-2.302,3.966-3.476c0.39-1.179,0-2.89-1.078-5.098l-3.776-7.785l-14.103,6.909l-3.578-7.351l35.947-17.532
	l8.624,17.633C437.22,142.392,437.853,144.499,437.954,146.113z"/>
<path fill="#FFED00" d="M422.474,179.955c-1.712,0.687-2.935,1.47-3.622,2.398c-1.278,1.715-1.523,4.213-0.688,7.399
	c0.443,1.905,1.077,3.426,1.766,4.505c1.367,2.057,3.178,2.839,5.39,2.252c1.267-0.296,2.1-1.129,2.545-2.403
	c0.39-1.319,0.534-3.231,0.489-5.774l-0.1-4.314c-0.101-4.259,0.198-7.344,0.889-9.155c1.122-3.041,3.623-5.046,7.444-6.025
	c3.467-0.833,6.655-0.291,9.59,1.665c2.944,1.957,5,5.388,6.223,10.284c1.033,4.063,0.834,7.835-0.633,11.262
	c-1.468,3.432-4.211,5.734-8.323,6.907l-1.911-7.785c2.3-0.737,3.667-2.158,4.211-4.309c0.345-1.425,0.245-3.091-0.2-4.946
	c-0.532-2.107-1.367-3.678-2.543-4.707c-1.134-1.028-2.445-1.369-3.969-0.977c-1.423,0.34-2.3,1.224-2.646,2.599
	c-0.299,0.927-0.387,2.739-0.343,5.483l0.044,7.103c0,3.085-0.333,5.532-1.166,7.344c-1.234,2.738-3.635,4.555-7.057,5.433
	c-3.579,0.882-6.856,0.245-9.89-1.862c-2.99-2.151-5.146-5.678-6.368-10.625c-1.278-5.041-1.078-9.306,0.49-12.781
	c1.611-3.477,4.399-5.729,8.466-6.757"/>
<polyline fill="#FFED00" points="458.823,244.452 456.854,272.759 449.855,272.268 451.22,252.237 442.064,251.599 440.843,269.137 
	433.887,268.646 435.109,251.115 418.362,249.935 418.952,241.664 "/>
<polyline fill="#FFED00" points="424.096,269.137 422.673,277.264 414.685,275.845 416.106,267.764 "/>
<path fill="#FFED00" d="M444.955,302.045c1.81,4.259,1.81,8.719-0.101,13.414c-2.489,6.214-6.411,9.948-11.657,11.223
	c-2.933,0.626-5.578,0.581-7.979-0.246l3.135-7.746c2.012,0.201,3.621,0.101,4.844-0.347c2.155-0.728,3.823-2.492,4.957-5.275
	c1.122-2.795,0.877-5.489-0.744-8.038c-1.612-2.548-4.502-4.649-8.669-6.359c-4.155-1.677-7.633-2.057-10.379-1.23
	c-2.788,0.928-4.7,2.695-5.778,5.344c-1.078,2.737-1.033,5.143,0.145,7.288c0.635,1.185,1.813,2.403,3.522,3.722l-3.077,7.635
	c-3.779-2.292-6.368-5.331-7.789-9.099c-1.423-3.778-1.278-7.835,0.443-12.149c2.2-5.333,5.578-8.865,10.234-10.52
	c4.7-1.677,10.035-1.273,16.013,1.118C438.542,293.416,442.854,297.15,444.955,302.045"/>
<polyline fill="#FFED00" points="404.551,325.598 400.338,332.652 393.381,328.494 397.639,321.428 "/>
<path fill="#FFED00" d="M91.732,399.742h5.823v-33.354h-4.067c-0.533,3.867-3.622,5.979-9.056,6.079v3.958h7.301"/>
<path fill="#FFED00" d="M111.324,381.812c-3.479,0.839-4.857,3.576-4.857,8.674c0,6.751,2.8,9.836,8.967,9.836
	c6.323,0,9.157-3.219,9.157-10.283c0-4.941-1.422-7.489-4.989-8.227c2.934-0.917,4.355-3.175,4.355-6.998
	c0-5.433-2.944-8.371-8.423-8.371c-5.489,0-8.423,2.895-8.423,8.227C107.112,378.592,108.534,380.985,111.324,381.812
	 M115.479,384.024c2.456,0,3.044,1.901,3.044,5.824c0,4.113-0.489,5.779-3.044,5.779c-2.4,0-2.979-1.609-2.979-5.287
	C112.5,385.925,112.935,384.024,115.479,384.024z M112.79,375.26c0-2.995,0.633-4.413,2.6-4.413c2.201,0,2.834,1.329,2.834,4.413
	c0,3.03-0.679,4.405-2.745,4.405C113.423,379.666,112.79,378.291,112.79,375.26z"/>
<path fill="#FFED00" d="M359.49,399.786h6.324c0.777-10.228,3.467-19.628,7.934-27.956v-4.751h-18.324v5.434h12.446
	C362.824,382.549,360.08,391.759,359.49,399.786"/>
<path fill="#FFED00" d="M377.369,389.166c0,0.292,0,0.538,0,0.829c0,7.108,2.835,10.483,8.914,10.483
	c6.655,0,9.455-3.911,9.455-12.34c0-7.355-2.8-10.977-8.434-10.977c-1.856,0-3.224,0.537-4.5,1.868l0.343-6.663h11.114v-5.288
	h-15.714l-0.89,17.337h5.392c0.143-1.619,1.365-2.693,3.032-2.693c2.602,0,3.623,2.202,3.623,6.807c0,4.998-0.879,7.389-3.277,7.389
	c-2.202,0-3.334-1.956-3.334-5.879c0-0.29,0-0.536,0-0.873"/>
</svg>
