<?xml version="1.0" encoding="UTF-8" standalone="no"?>
<!-- Created with Inkscape (http://www.inkscape.org/) -->

<svg
   xmlns:dc="http://purl.org/dc/elements/1.1/"
   xmlns:cc="http://creativecommons.org/ns#"
   xmlns:rdf="http://www.w3.org/1999/02/22-rdf-syntax-ns#"
   xmlns:svg="http://www.w3.org/2000/svg"
   xmlns="http://www.w3.org/2000/svg"
   xmlns:sodipodi="http://sodipodi.sourceforge.net/DTD/sodipodi-0.dtd"
   xmlns:inkscape="http://www.inkscape.org/namespaces/inkscape"
   width="999.99994"
   height="1079.1227"
   id="svg281689"
   version="1.1"
   inkscape:version="0.48.2 r9819"
   sodipodi:docname="A.svg">
  <defs
     id="defs281691">
    <clipPath
       clipPathUnits="userSpaceOnUse"
       id="clipPath3055">
      <path
         inkscape:connector-curvature="0"
         d="m 263.19,605.947 68.896,0 0,41.062 -68.896,0 0,-41.062 z"
         id="path3057" />
    </clipPath>
  </defs>
  <sodipodi:namedview
     id="base"
     pagecolor="#ffffff"
     bordercolor="#666666"
     borderopacity="1.0"
     inkscape:pageopacity="0.0"
     inkscape:pageshadow="2"
     inkscape:zoom="0.35"
     inkscape:cx="1121.5489"
     inkscape:cy="34.547964"
     inkscape:document-units="px"
     inkscape:current-layer="layer1"
     showgrid="false"
     fit-margin-left="0.5"
     fit-margin-bottom="0.5"
     fit-margin-top="0.5"
     fit-margin-right="0.5"
     inkscape:window-width="1058"
     inkscape:window-height="1039"
     inkscape:window-x="855"
     inkscape:window-y="-21"
     inkscape:window-maximized="0" />
  <metadata
     id="metadata281694">
    <rdf:RDF>
      <cc:Work
         rdf:about="">
        <dc:format>image/svg+xml</dc:format>
        <dc:type
           rdf:resource="http://purl.org/dc/dcmitype/StillImage" />
        <dc:title></dc:title>
      </cc:Work>
    </rdf:RDF>
  </metadata>
  <g
     inkscape:label="Layer 1"
     inkscape:groupmode="layer"
     id="layer1"
     transform="translate(127.82737,752.72061)">
    <g
       transform="matrix(11.92954,0,0,-11.92954,-5743.748,6004.2075)"
       id="g3369">
      <path
         inkscape:connector-curvature="0"
         id="path3217"
         style="fill:#d9261c;fill-opacity:1;fill-rule:evenodd;stroke:none"
         d="m 552.93023,509.38816 c -0.2894,-0.642 -1.3215,-7.5387 -1.3215,-7.6266 l 2.9324,-5.2481 c -9.011,-0.5034 -20.6648,-11.4902 -35.4271,-19.3308 0,0 -0.8433,8.193 -0.8056,8.7466 0.0127,0.1638 3.2471,0.5161 3.2595,0.6922 12.2579,7.9288 16.6754,16.8389 31.3623,22.7667" />
      <path
         inkscape:connector-curvature="0"
         id="path3219"
         style="fill:#bf261f;fill-opacity:1;fill-rule:evenodd;stroke:none"
         d="m 542.84423,503.95646 1.8805,-10.2748 c -7.1359,-3.3225 -13.7933,-9.7157 -21.8228,-12.0313 0.2016,0.1763 -0.8305,1.6109 -0.6542,1.8751 0.4405,0.6545 0.5284,1.2713 0.5664,1.8249 0.0124,0.2393 0.0249,0.491 0.0501,0.7676 0.0253,0.2393 0.0754,0.491 0.1511,0.768 0.1006,0.2766 0.214,0.5159 0.3399,0.7171 0.0694,0.1318 0.1465,0.2563 0.2228,0.3748 7.6657,5.3847 12.2669,11.1095 19.2662,15.9786" />
      <path
         inkscape:connector-curvature="0"
         id="path3221"
         style="fill:#d9261c;fill-opacity:1;fill-rule:evenodd;stroke:none"
         d="m 472.41043,509.38816 c 0.2894,-0.642 1.3215,-7.5387 1.3215,-7.6266 l -2.9325,-5.2481 c 9.0111,-0.5034 20.6649,-11.4902 35.4272,-19.3308 0,0 0.8433,8.193 0.8056,8.7466 -0.0128,0.1638 -3.2596,0.5161 -3.2723,0.6922 -12.2451,7.9288 -16.6627,16.8389 -31.3495,22.7667" />
      <path
         inkscape:connector-curvature="0"
         id="path3223"
         style="fill:#bf261f;fill-opacity:1;fill-rule:evenodd;stroke:none"
         d="m 482.49383,503.95816 -1.8904,-10.2765 c 7.1356,-3.3225 13.8058,-9.7157 21.8225,-12.0313 -0.1888,0.1763 0.8433,1.6109 0.667,1.8751 -0.453,0.6545 -0.5284,1.2713 -0.5664,1.8249 -0.0249,0.2393 -0.0249,0.491 -0.0626,0.7676 -0.0253,0.2393 -0.063,0.491 -0.1511,0.768 -0.0882,0.2766 -0.2016,0.5159 -0.3274,0.7171 -0.0746,0.129 -0.1491,0.2506 -0.2217,0.3668 -7.666,5.3875 -12.2664,11.1161 -19.2699,15.9883" />
      <path
         inkscape:connector-curvature="0"
         id="path3225"
         style="fill:#083b73;fill-opacity:1;fill-rule:evenodd;stroke:none"
         d="m 547.02793,522.22486 c -0.3903,-1.548 -0.881,-3.0455 -1.4726,-4.5054 l -26.7687,0 0,-16.8012 c 5.2228,1.057 9.955,3.4483 13.8438,6.8085 l 6.821,0 c -6.1667,-7.1356 -15.1273,-11.7671 -25.1702,-12.2201 l 0,25.1073 c 0,0.8937 0.7175,1.6109 1.6109,1.6109 l 31.1358,0 z m -58.8356,-9.6653 22.8671,0 0,-4.5181 -18.7269,0 c 5.0341,-4.4802 11.5532,-7.3245 18.7269,-7.6896 l 0,-4.8452 c -15.8573,0.7047 -28.9962,11.8426 -32.7467,26.7182 l 31.1357,0 c 0.8935,0 1.611,-0.7172 1.611,-1.6109 l 0,-2.8945 -26.0008,0 c 0.8807,-1.8249 1.9253,-3.5617 3.1337,-5.1599 z m 32.2052,20.6272 c 0,-0.881 0.7175,-1.611 1.611,-1.611 l 5.9655,0 0,31.3623 c 2.1645,-1.0446 4.2159,-2.3032 6.1163,-3.7505 l 0,-26.0638 c 0.0377,-0.8557 0.7424,-1.548 1.6109,-1.548 l 5.764,0 c -0.063,2.9073 -0.5539,5.7136 -1.4222,8.3438 l 0,13.5292 c 5.0341,-6.1291 8.0544,-13.9697 8.0544,-22.515 0,-1.8624 -0.1383,-3.6873 -0.4153,-5.4746 l -31.79,0 c -0.8934,0 -1.6109,0.7175 -1.6109,1.611 l 0,39.291 c 2.0891,-0.0882 4.1406,-0.3651 6.1163,-0.8056 l 0,-32.3688 z m -17.0654,13.227 c 0.881,0 1.6109,0.7172 1.6109,1.6106 l 0,10.8862 c -7.0979,-1.9128 -13.1139,-6.4434 -16.9523,-12.4968 l 15.3414,0 z m 0,-14.838 c 0.881,0 1.6109,0.73 1.6109,1.611 l 0,5.487 c -0.0127,0.8935 -0.7299,1.6109 -1.6109,1.6109 l -18.2735,0 c -0.944,-2.7436 -1.4726,-5.6633 -1.548,-8.7089 l 19.8215,0 z m 7.7273,-4.5056 c 0,-0.8935 -0.7175,-1.611 -1.611,-1.611 l -2.6178,0 -1.8876,0 -20.929,0 -5.4873,0 -0.8683,0 c -0.2769,1.7873 -0.4152,3.6122 -0.4152,5.4746 0,18.5003 14.1457,33.6906 32.2052,35.3268 0.0128,0 0.0377,0 0.063,-0.0128 0.8557,-0.0377 1.548,-0.7424 1.548,-1.6109 l 0,-37.5667 z" />
      <path
         inkscape:connector-curvature="0"
         id="path3227"
         style="fill:#7d2421;fill-opacity:1;fill-rule:evenodd;stroke:none"
         d="m 504.74153,486.55856 2.1773,-1.5228 c 0.0127,-0.0252 -0.3648,-6.6702 -0.6922,-7.8531 -4.3543,2.6807 -24.3397,17.2165 -24.3647,17.2669 -0.0127,0.0377 19.3057,-5.3739 22.8796,-7.891" />
      <path
         inkscape:connector-curvature="0"
         id="path3229"
         style="fill:#7d2421;fill-opacity:1;fill-rule:evenodd;stroke:none"
         d="m 518.40903,485.03576 c -0.0125,-0.0252 0.3651,-6.6702 0.705,-7.8531 4.3418,2.6807 24.3269,17.2165 24.3397,17.2669 0.0249,0.025 -25.0447,-9.4138 -25.0447,-9.4138" />
      <path
         inkscape:connector-curvature="0"
         id="path3231"
         style="fill:#d9261c;fill-opacity:1;fill-rule:evenodd;stroke:none"
         d="m 541.01223,507.77726 2.4415,-13.3277 c -9.4263,-4.3922 -20.149,-12.0064 -30.7959,-12.0064 -10.622,0 -21.3698,7.6142 -30.7959,12.0064 l 2.4665,13.3277 c 5.7892,-6.4437 15.4672,-13.3656 28.3419,-13.3656 12.8747,0 22.5399,6.9219 28.3419,13.3656" />
      <path
         inkscape:connector-curvature="0"
         id="path3233"
         style="fill:#bf261f;fill-opacity:1;fill-rule:evenodd;stroke:none"
         d="m 522.24803,495.74106 c 0.009,-0.0278 0.017,-0.0556 0.0246,-0.0833 l 0.2141,-0.0128 c 0.5159,-0.0249 1.6361,-0.1888 1.9632,-1.2333 0.3274,-1.0194 -0.4782,-1.787 -0.881,-2.1141 l -0.1635,-0.1259 c 0.1386,-0.4028 0.214,-0.8558 0.1888,-1.3467 -0.0253,-0.9312 -0.3776,-1.5733 -0.6923,-2.0639 -0.1258,-0.2013 -0.2642,-0.4028 -0.39,-0.6418 -0.1134,-0.1763 -0.214,-0.3903 -0.2894,-0.6293 -0.0757,-0.2392 -0.1134,-0.4532 -0.1386,-0.6545 -0.025,-0.2769 -0.025,-0.5159 -0.0502,-0.7552 -0.0377,-0.5788 -0.1259,-1.2962 -0.6545,-2.0763 -0.0213,-0.0321 -0.0428,-0.0635 -0.0647,-0.0944 -2.8729,-0.9046 -5.7676,-1.4664 -8.6567,-1.4664 -2.8806,0 -5.7702,0.561 -8.6403,1.4647 -0.0229,0.0314 -0.0459,0.0632 -0.0689,0.0961 -0.5159,0.7801 -0.604,1.4975 -0.6417,2.0763 -0.0253,0.2393 -0.0253,0.4783 -0.063,0.7427 -0.0124,0.2138 -0.0501,0.4405 -0.1383,0.6922 -0.0757,0.239 -0.1763,0.4278 -0.2769,0.6041 -0.1384,0.239 -0.277,0.4405 -0.4028,0.6418 -0.3019,0.4906 -0.6543,1.1327 -0.6923,2.0639 -0.0124,0.4909 0.0505,0.9439 0.1888,1.3467 l -0.1635,0.1259 c -0.4025,0.3271 -1.2081,1.1199 -0.8558,2.152 0.3399,1.0194 1.4349,1.1705 1.9508,1.1954 l 0.2013,0.0128 c 0.009,0.0286 0.0184,0.0569 0.0283,0.0856 2.9605,-0.8411 6.1603,-1.3317 9.5868,-1.3317 3.4237,0 6.6203,0.4898 9.5777,1.3294" />
      <path
         inkscape:connector-curvature="0"
         id="path3235"
         style="fill:#ffffff;fill-opacity:1;fill-rule:evenodd;stroke:none"
         d="m 503.45803,495.16676 c 0.0754,0.4533 0.2642,0.9187 0.6293,1.3844 0.4906,0.6293 1.057,0.9063 1.5732,1.1075 0.2265,0.0882 0.453,0.1764 0.7047,0.2895 0.2265,0.1006 0.453,0.2264 0.6922,0.3903 0.2265,0.176 0.4153,0.3523 0.5788,0.5284 0.1763,0.2015 0.3399,0.4028 0.4907,0.5916 0.3526,0.4152 0.7804,0.8682 1.5355,1.1452 0.5536,0.2012 1.0698,0.2392 1.5228,0.1763 0.0629,0.2012 0.1259,0.39 0.1888,0.5411 0.1888,0.5034 0.5788,1.1829 1.3088,1.1704 0.7174,0 1.095,-0.6797 1.2838,-1.1704 0.0629,-0.1511 0.1258,-0.3399 0.1888,-0.5411 0.4529,0.0629 0.9564,0.0249 1.5102,-0.1763 0.7552,-0.277 1.1829,-0.73 1.548,-1.1452 0.1509,-0.1888 0.3019,-0.3901 0.4907,-0.5916 0.1636,-0.1888 0.3524,-0.3649 0.5916,-0.5412 0.2265,-0.1635 0.453,-0.2769 0.667,-0.3775 0.2517,-0.1131 0.4907,-0.2013 0.7175,-0.2895 0.5159,-0.2012 1.0695,-0.4782 1.5729,-1.1075 0.3651,-0.4657 0.5539,-0.9311 0.6293,-1.3844 0.214,0 0.4153,-0.0125 0.5788,-0.0125 0.5287,-0.0377 1.2963,-0.1888 1.5103,-0.881 0.2265,-0.6922 -0.3019,-1.2586 -0.7047,-1.5857 -0.1386,-0.1006 -0.2894,-0.2265 -0.4657,-0.3523 0.2013,-0.4153 0.3271,-0.9063 0.3022,-1.4976 -0.0253,-0.8056 -0.3274,-1.3467 -0.6168,-1.8124 -0.1259,-0.2138 -0.2642,-0.4153 -0.4028,-0.6543 -0.1259,-0.214 -0.239,-0.4405 -0.3396,-0.7299 -0.0757,-0.2769 -0.1259,-0.5287 -0.1511,-0.7551 -0.0253,-0.277 -0.0377,-0.5287 -0.0505,-0.768 -0.0377,-0.5536 -0.1258,-1.1704 -0.5663,-1.8374 -0.3272,-0.4906 -0.7172,-0.8178 -1.12,-1.0318 0.0629,-0.2015 0.1134,-0.3903 0.1635,-0.5539 0.1387,-0.5159 0.2265,-1.2835 -0.3775,-1.7115 -0.5789,-0.4153 -1.2836,-0.1007 -1.7241,0.1888 -0.1386,0.0881 -0.3021,0.2012 -0.4782,0.3271 -0.3274,-0.3144 -0.7551,-0.5789 -1.3215,-0.7424 -0.7804,-0.2265 -1.3844,-0.1134 -1.9255,0.0252 -0.2265,0.0502 -0.4783,0.1259 -0.7424,0.176 -0.2393,0.0505 -0.491,0.0882 -0.7929,0.101 -0.2897,-0.0128 -0.5411,-0.0505 -0.7679,-0.101 -0.2767,-0.0501 -0.5159,-0.1258 -0.7551,-0.176 -0.5284,-0.1386 -1.1452,-0.2517 -1.9129,-0.0252 -0.5663,0.1635 -1.0068,0.428 -1.334,0.7424 -0.1635,-0.1259 -0.3271,-0.239 -0.4657,-0.3271 -0.453,-0.2895 -1.1577,-0.6166 -1.7492,-0.1761 -0.5789,0.4278 -0.491,1.1954 -0.3524,1.6988 0.0377,0.1636 0.1006,0.3524 0.1636,0.5539 -0.4028,0.214 -0.7929,0.5412 -1.12,1.0318 -0.4533,0.667 -0.5287,1.2838 -0.5664,1.8374 -0.0252,0.2393 -0.0252,0.491 -0.0504,0.768 -0.0377,0.2389 -0.0754,0.4906 -0.1636,0.78 -0.1006,0.277 -0.214,0.5035 -0.3271,0.705 -0.1386,0.239 -0.2769,0.4405 -0.4028,0.6543 -0.2894,0.4657 -0.5916,1.0068 -0.6168,1.8124 -0.025,0.5913 0.0881,1.0823 0.2894,1.4976 -0.1636,0.1258 -0.3271,0.2517 -0.453,0.3523 -0.4153,0.3271 -0.9439,0.9063 -0.7047,1.5982 0.2265,0.6797 0.9817,0.8308 1.5103,0.8685 0.1636,0 0.3648,0.0125 0.5789,0.0125" />
      <path
         inkscape:connector-curvature="0"
         id="path3237"
         style="fill:#d9261c;fill-opacity:1;fill-rule:evenodd;stroke:none"
         d="m 505.37083,492.67506 c -0.4025,0.1132 -0.7172,0.0377 -1.0695,-0.1133 -0.5791,-0.2642 -1.3343,0.3523 -1.762,0.6922 -0.4153,0.3399 -0.5412,0.6165 -0.4782,0.7928 l 0,0 c 0.0629,0.1888 0.3146,0.3399 0.8557,0.3649 0.5412,0.0379 1.5228,0.0756 1.8374,-0.4655 0.1888,-0.3399 0.4029,-0.5791 0.7929,-0.7299 l -0.1763,-0.5412 z" />
      <path
         inkscape:connector-curvature="0"
         id="path3239"
         style="fill:#d9261c;fill-opacity:1;fill-rule:evenodd;stroke:none"
         d="m 519.96983,492.67506 c 0.4025,0.1132 0.7047,0.0377 1.057,-0.1133 0.5788,-0.2642 1.3468,0.3523 1.7745,0.6922 0.4153,0.3399 0.5287,0.6165 0.4657,0.7928 l 0.0125,0 c -0.0629,0.1888 -0.3146,0.3399 -0.8558,0.3649 -0.5411,0.0379 -1.5227,0.0756 -1.8374,-0.4655 -0.2012,-0.3399 -0.4028,-0.5791 -0.7928,-0.7299 l 0.1763,-0.5412 z" />
      <path
         inkscape:connector-curvature="0"
         id="path3241"
         style="fill:#d9261c;fill-opacity:1;fill-rule:evenodd;stroke:none"
         d="m 508.44163,484.30586 c -0.239,-0.3524 -0.2518,-0.667 -0.2138,-1.0446 0.063,-0.6418 -0.7551,-1.1704 -1.2084,-1.4723 -0.453,-0.2897 -0.7424,-0.3147 -0.9059,-0.2016 l 0,0 c -0.1636,0.1134 -0.2265,0.4028 -0.0882,0.9187 0.1511,0.5287 0.4028,1.4726 1.0193,1.5985 0.3776,0.0882 0.6798,0.2013 0.9315,0.5284 l 0.4655,-0.3271 z" />
      <path
         inkscape:connector-curvature="0"
         id="path3243"
         style="fill:#d9261c;fill-opacity:1;fill-rule:evenodd;stroke:none"
         d="m 516.89903,484.30586 c 0.2265,-0.3524 0.2517,-0.667 0.2137,-1.0446 -0.0754,-0.6418 0.7552,-1.1704 1.2084,-1.4723 0.453,-0.2897 0.7424,-0.3147 0.906,-0.2016 l 0,0 c 0.1511,0.1134 0.214,0.4028 0.0757,0.9187 -0.1386,0.5287 -0.3903,1.4726 -1.0196,1.5985 -0.3776,0.0882 -0.667,0.2013 -0.9312,0.5284 l -0.453,-0.3271 z" />
      <path
         inkscape:connector-curvature="0"
         id="path3245"
         style="fill:#d9261c;fill-opacity:1;fill-rule:evenodd;stroke:none"
         d="m 512.38093,498.18736 c -0.0128,0.4153 -0.1764,0.6922 -0.4405,0.9816 -0.4281,0.4655 -0.0754,1.3845 0.1133,1.8876 0.2013,0.5035 0.4153,0.705 0.6166,0.705 l 0,0 c 0.1888,0 0.4153,-0.2015 0.604,-0.705 0.2013,-0.5031 0.5539,-1.4221 0.1259,-1.8876 -0.2642,-0.2894 -0.4277,-0.5663 -0.4405,-0.9816 l -0.5788,0 z" />
      <path
         inkscape:connector-curvature="0"
         id="path3247"
         style="fill:#d9261c;fill-opacity:1;fill-rule:evenodd;stroke:none"
         d="m 504.81723,493.15336 c 0,0 -1.9131,-0.2645 -1.8502,-2.2907 0.0505,-1.2206 0.8685,-1.6487 1.3215,-2.9826 l 0,0 c 0.4153,-1.334 0,-2.1773 0.6798,-3.1842 1.1324,-1.6863 2.8442,-0.7676 2.8442,-0.7676 l 0,0 c 0,0 -0.3398,-1.9128 1.6107,-2.4667 1.1832,-0.3396 1.8374,0.3146 3.2471,0.3274 l 0,0 c 1.3969,-0.0128 2.0639,-0.667 3.2471,-0.3274 1.938,0.5539 1.5981,2.4667 1.5981,2.4667 l 0,0 c 0,0 1.7116,-0.9187 2.8443,0.7676 0.6922,1.0069 0.277,1.8502 0.6922,3.1842 l 0,0 c 0.453,1.3339 1.2711,1.762 1.3216,2.9826 0.0629,2.0262 -1.8502,2.2907 -1.8502,2.2907 l 0,0 c 0,0 1.3969,1.3464 0.1511,2.9449 -0.7552,0.9564 -1.6739,0.8305 -2.8191,1.6358 l 0,0 c -1.1327,0.8433 -1.2838,1.7621 -2.4415,2.1773 -1.9003,0.6923 -2.7436,-1.057 -2.7436,-1.057 l 0,0 c 0,0 -0.8433,1.7493 -2.7561,1.057 -1.1452,-0.4152 -1.3088,-1.334 -2.4291,-2.1773 l 0,0 c -1.1452,-0.8053 -2.0639,-0.6794 -2.819,-1.6358 -1.2458,-1.5985 0.1511,-2.9449 0.1511,-2.9449 z" />
      <path
         inkscape:connector-curvature="0"
         id="path3249"
         style="fill:#ffffff;fill-opacity:1;fill-rule:evenodd;stroke:none"
         d="m 508.37863,491.99536 c 0,0 0.0882,0.2894 -0.2642,0.6922 -0.2769,0.3022 -0.3775,0.6041 -0.3523,0.8558 0.0504,0.4153 0.5159,0.7804 1.0446,0.881 0.3146,0.0502 0.5663,0.1511 0.8433,0.3399 l 0,0 c 0.2642,0.2012 0.4402,0.4153 0.5788,0.6919 0.2517,0.4658 0.7551,0.7932 1.1577,0.7175 0.2517,-0.0502 0.5034,-0.239 0.7174,-0.5916 0.2642,-0.453 0.5664,-0.4655 0.5664,-0.4655 l 0,0 c 0,0 0.3022,0.0125 0.5663,0.4655 0.2013,0.3526 0.4658,0.5414 0.7175,0.5916 0.4025,0.0757 0.8935,-0.2517 1.1452,-0.7175 0.1511,-0.2766 0.3271,-0.4907 0.5913,-0.6919 l 0,0 c 0.2769,-0.1888 0.5287,-0.2897 0.8433,-0.3399 0.5287,-0.1006 0.9816,-0.4657 1.0321,-0.881 0.0377,-0.2517 -0.0757,-0.5536 -0.3399,-0.8558 -0.3523,-0.4028 -0.2642,-0.6922 -0.2642,-0.6922 l 0,0.0128 c 0,0 0.1007,-0.2897 0.6166,-0.4028 0.39,-0.0882 0.667,-0.277 0.7803,-0.5035 0.2013,-0.3523 0.0502,-0.9314 -0.3274,-1.3087 -0.2137,-0.2268 -0.3648,-0.4533 -0.4654,-0.7804 l 0,0 c -0.1006,-0.3271 -0.1259,-0.5916 -0.0757,-0.9062 0.0757,-0.5284 -0.1383,-1.0823 -0.5159,-1.2586 -0.2265,-0.1007 -0.5536,-0.1007 -0.9187,0.0629 -0.491,0.214 -0.7424,0.038 -0.7424,0.038 l 0.0125,0.0125 c 0,0 -0.2393,-0.1888 -0.1888,-0.7175 0.0377,-0.4025 -0.0629,-0.7172 -0.2265,-0.8935 -0.2894,-0.3019 -0.881,-0.3398 -1.3592,-0.1006 -0.2894,0.1383 -0.5411,0.2013 -0.881,0.214 l 0,0 c -0.3399,-0.0127 -0.6041,-0.0757 -0.881,-0.214 -0.4782,-0.2392 -1.0698,-0.2013 -1.3592,0.1006 -0.1636,0.1763 -0.2642,0.491 -0.2265,0.8935 0.0504,0.5287 -0.1888,0.7175 -0.1888,0.7175 l 0,-0.0125 c 0,0 -0.239,0.176 -0.7299,-0.038 -0.3776,-0.1636 -0.7047,-0.1636 -0.9312,-0.0629 -0.3776,0.1763 -0.5791,0.7302 -0.5035,1.2586 0.0377,0.3146 0.0253,0.5791 -0.0756,0.9062 l 0,0 c -0.1131,0.3271 -0.2518,0.5536 -0.4655,0.7804 -0.3776,0.3773 -0.5286,0.9564 -0.3274,1.3087 0.1134,0.2265 0.3776,0.4153 0.7804,0.5035 0.5159,0.1131 0.6165,0.4028 0.6165,0.4028 l 0,-0.0128 z m -0.6794,0.2265 c 0,0 -1.2459,0.0377 -1.611,-0.7047 -0.2517,-0.4782 -0.1635,-1.334 0.3901,-1.7493 0.3523,-0.2644 0.5411,-0.5286 0.6922,-0.9439 l 0,0 c 0.1259,-0.428 0.1259,-0.7552 0,-1.1829 -0.214,-0.6673 0.2265,-1.3972 0.705,-1.6489 0.7424,-0.3776 1.7115,0.3903 1.7115,0.3903 l 0.0125,-0.0127 c 0,0 -0.428,-1.1577 0.1636,-1.7368 0.39,-0.3901 1.2208,-0.5789 1.7872,-0.1761 0.3648,0.2518 0.6795,0.3524 1.12,0.3649 l 0,0 c 0.4405,-0.0125 0.7551,-0.1131 1.1199,-0.3649 0.5664,-0.4028 1.3972,-0.214 1.7873,0.1761 0.5788,0.5791 0.1636,1.7368 0.1636,1.7368 l 0,0.0127 c 0,0 0.9816,-0.7679 1.7115,-0.3903 0.491,0.2517 0.9187,0.9816 0.7175,1.6489 -0.1259,0.4277 -0.1259,0.7549 0,1.1829 l 0,0 c 0.1383,0.4153 0.3398,0.6795 0.6922,0.9439 0.5536,0.4153 0.6417,1.2711 0.39,1.7493 -0.3775,0.7424 -1.6109,0.7047 -1.6109,0.7047 l 0,0 c 0,0 1.0193,0.6922 0.8935,1.5103 -0.0879,0.5411 -0.6543,1.1829 -1.3465,1.1956 -0.4532,0 -0.7551,0.1007 -1.1202,0.3524 l 0,0 c -0.3524,0.2769 -0.5412,0.5286 -0.692,0.9564 -0.2267,0.6545 -1.0068,0.9944 -1.548,0.9187 -0.818,-0.1259 -1.1579,-1.3215 -1.1579,-1.3215 l -0.0125,0 c 0,0 -0.3399,1.1956 -1.1455,1.3215 -0.5411,0.0757 -1.334,-0.2642 -1.5477,-0.9187 -0.1511,-0.4278 -0.3399,-0.6795 -0.6922,-0.9564 l 0,0 c -0.3651,-0.2517 -0.6798,-0.3524 -1.1203,-0.3524 -0.6922,-0.0127 -1.2585,-0.6545 -1.3464,-1.1956 -0.1386,-0.8181 0.8935,-1.5103 0.8935,-1.5103 z" />
      <path
         inkscape:connector-curvature="0"
         id="path3251"
         style="fill:#ffffff;fill-opacity:1;fill-rule:evenodd;stroke:none"
         d="m 513.84073,490.61096 c 0,-0.6543 -0.5287,-1.1705 -1.1704,-1.1705 -0.6418,0 -1.1704,0.5162 -1.1704,1.1705 0,0.642 0.5286,1.1579 1.1704,1.1579 0.6417,0 1.1704,-0.5159 1.1704,-1.1579 z m -3.3477,0.6922 c -0.1006,-0.2894 -0.5284,-0.3019 -0.5284,-0.6041 0.0125,-0.4907 0.3901,-0.4782 0.5032,-0.8053 l 0,0 c 0.1009,-0.3399 -0.2138,-0.5539 0.0756,-0.9439 0.1636,-0.2518 0.516,-0.0128 0.7801,-0.1888 l 0.0128,0 c 0.239,-0.2013 0.1259,-0.6041 0.4153,-0.6923 0.4657,-0.151 0.5663,0.2141 0.9187,0.2141 l 0,0 c 0.3523,0 0.453,-0.3651 0.9187,-0.2141 0.2894,0.0882 0.1635,0.491 0.4153,0.6923 l 0.0127,0 c 0.2642,0.176 0.6041,-0.063 0.7801,0.1888 0.277,0.39 -0.0377,0.604 0.0757,0.9439 l 0,0 c 0.1131,0.3271 0.4907,0.3146 0.4907,0.8053 0.0127,0.3022 -0.4153,0.3147 -0.5287,0.6041 l 0,0.0127 c -0.0879,0.3019 0.2517,0.5664 0.0757,0.8054 -0.3022,0.39 -0.5916,0.151 -0.881,0.3651 l 0,0 c -0.277,0.2012 -0.1511,0.5536 -0.6168,0.7171 -0.2894,0.1007 -0.4278,-0.3019 -0.7424,-0.3146 l -0.0125,0 c -0.3146,0.0127 -0.4533,0.4153 -0.7299,0.3146 -0.4657,-0.1635 -0.3399,-0.5159 -0.6168,-0.7171 l 0,0 c -0.2895,-0.2141 -0.5916,0.0249 -0.881,-0.3651 -0.1761,-0.239 0.151,-0.5035 0.0756,-0.8054 l -0.0127,-0.0127 z" />
      <path
         inkscape:connector-curvature="0"
         id="path3253"
         style="fill:#083b73;fill-opacity:1;fill-rule:evenodd;stroke:none"
         d="m 509.37303,479.35996 c -0.1134,-0.1007 -0.2265,-0.2013 -0.453,-0.2894 -0.214,-0.0882 -0.3775,-0.1007 -0.5414,-0.1134 l 0,-0.2265 0.4658,0 0,-2.0767 c 0,-0.3648 -0.1259,-0.4277 -0.5035,-0.4277 l 0,-0.2016 1.611,0 0,0.2016 c -0.1511,0 -0.3524,0.0124 -0.4405,0.1635 -0.0378,0.0754 -0.0502,0.1763 -0.0502,0.2642 l 0,2.706 -0.0882,0 z" />
      <path
         inkscape:connector-curvature="0"
         id="path3255"
         style="fill:#083b73;fill-opacity:1;fill-rule:evenodd;stroke:none"
         d="m 511.76403,477.79946 c 0.1511,0.0879 0.5035,0.2894 0.5035,0.7549 0,0.4532 -0.3901,0.8056 -0.906,0.8056 -0.5034,0 -0.9567,-0.3399 -0.9567,-0.8433 0,-0.4655 0.3399,-0.7047 0.5414,-0.8431 -0.1887,-0.0629 -0.4028,-0.151 -0.5414,-0.3903 -0.0754,-0.1131 -0.1131,-0.2517 -0.1131,-0.4025 0,-0.4785 0.4278,-0.8938 1.0446,-0.8938 0.5788,0 1.057,0.3776 1.057,0.8938 0,0.4782 -0.3523,0.7299 -0.6293,0.9187 z m -0.2641,0.1383 c -0.1764,0.1134 -0.6041,0.3648 -0.6041,0.7299 0,0.2265 0.1511,0.453 0.4277,0.453 0.2897,0 0.4405,-0.2642 0.4405,-0.5284 0,-0.3274 -0.176,-0.5538 -0.2641,-0.6545 z m -0.3147,-0.428 c 0.2517,-0.1383 0.6545,-0.3524 0.6545,-0.7549 0,-0.2392 -0.1511,-0.5162 -0.4782,-0.5162 -0.3274,0 -0.5286,0.3022 -0.5286,0.5664 0,0.1386 0.0504,0.2642 0.1006,0.3776 0.0881,0.1635 0.1636,0.2517 0.2517,0.3271" />
      <path
         inkscape:connector-curvature="0"
         id="path3257"
         style="fill:#083b73;fill-opacity:1;fill-rule:evenodd;stroke:none"
         d="m 512.60743,478.34056 0.214,0 c 0.0881,0.3271 0.1888,0.4405 0.5536,0.4655 0.1006,0 0.1888,0 0.3146,0 l 0.5664,0 -1.0194,-1.8624 c -0.2264,-0.4155 -0.3021,-0.5663 -0.3021,-0.705 0,-0.1635 0.1638,-0.2517 0.3021,-0.2517 0.2013,0 0.2642,0.1386 0.3399,0.3399 0.0377,0.1006 0.176,0.4782 0.2013,0.5664 0.1383,0.3523 0.3651,0.9311 0.5034,1.2835 l 0.4405,1.1075 -1.6234,0 c -0.0252,0 -0.0504,0 -0.0757,0.0127 -0.0124,0.0125 -0.0377,0.0377 -0.0377,0.0754 l -0.2012,0 -0.1763,-1.0318 z" />
      <path
         inkscape:connector-curvature="0"
         id="path3259"
         style="fill:#083b73;fill-opacity:1;fill-rule:evenodd;stroke:none"
         d="m 514.88533,478.34056 0.214,0 c 0.0881,0.3271 0.176,0.4405 0.5536,0.4655 0.0882,0 0.1888,0 0.3146,0 l 0.5664,0 -1.0193,-1.8624 c -0.2265,-0.4155 -0.3022,-0.5663 -0.3022,-0.705 0,-0.1635 0.1511,-0.2517 0.3022,-0.2517 0.2012,0 0.2517,0.1386 0.3271,0.3399 0.0377,0.1006 0.1888,0.4782 0.214,0.5664 0.1383,0.3523 0.3523,0.9311 0.4907,1.2835 l 0.4405,1.1075 -1.6234,0 c -0.0125,0 -0.0377,0 -0.063,0.0127 -0.0124,0.0125 -0.0377,0.0377 -0.0377,0.0754 l -0.2012,0 -0.1763,-1.0318 z" />
    </g>
  </g>
</svg>
