<?xml version="1.0" encoding="UTF-8" standalone="no"?>
<svg id="svg2" xmlns:rdf="http://www.w3.org/1999/02/22-rdf-syntax-ns#" xmlns="http://www.w3.org/2000/svg" xml:space="preserve" height="85" width="85" version="1.1" xmlns:cc="http://creativecommons.org/ns#" viewBox="0 0 84.999637 85.000233" xmlns:dc="http://purl.org/dc/elements/1.1/"><metadata id="metadata8"><rdf:RDF><cc:Work rdf:about=""><dc:format>image/svg+xml</dc:format><dc:type rdf:resource="http://purl.org/dc/dcmitype/StillImage"/><dc:title/></cc:Work></rdf:RDF></metadata><path id="big-circle" d="m84.456 42.502c0-23.137-18.822-41.958-41.957-41.958s-41.956 18.821-41.956 41.958c0 23.133 18.821 41.954 41.956 41.954s41.957-18.821 41.957-41.954" stroke="#000" stroke-width="1.0875" fill="#fff"/><path id="red-circle" fill="#e30613" d="m70.089 63.504-0.50079 0.53483 0.90313 0.846 0.47648-0.5093c0.28929-0.30996 0.3525-0.72445 0.05227-1.004-0.29294-0.27471-0.65638-0.16166-0.93109 0.13249m-52.491 2.566c-0.69285 0.66975-0.68312 1.5802-0.11304 2.1697 0.57008 0.58831 1.4792 0.62842 2.1709-0.04133 0.69771-0.6734 0.68798-1.5839 0.11791-2.1733-0.56886-0.58831-1.4781-0.62964-2.1758 0.04497m51.868-3.8887c-0.27349-0.25526-0.58466-0.12277-0.77064 0.07658l-0.47162 0.50444 0.7828 0.73174 0.45582-0.48864c0.23581-0.25161 0.2504-0.59317 0.0036-0.82412m10.22-19.702c0.14586-0.25404 0.27228-0.5324 0.27228-0.84236 0-0.82291-0.65152-1.4683-1.5121-1.4683-0.86059 0-1.5133 0.64544-1.5133 1.4683 0 0.86667 0.70865 1.4623 1.4501 1.4623 0.06321 0 0.12641-0.0073 0.18962-0.01945l-0.94932 1.6325h0.77186l1.2909-2.2329zm-3.8107 0.83506c0-0.51903-0.26498-0.94324-0.68312-1.1839 0.20907-0.1957 0.33548-0.46798 0.33548-0.7913 0-0.65152-0.51295-1.1706-1.1839-1.1706-0.66367 0-1.1706 0.51903-1.1706 1.1706 0 0.32333 0.12034 0.5956 0.32941 0.78522-0.41814 0.24067-0.68312 0.67097-0.68312 1.19 0 0.81561 0.66367 1.4489 1.5243 1.4489 0.87396 0 1.5316-0.63329 1.5316-1.4489m-4.2008 19.37c-0.43637-0.4072-0.98943-0.37438-1.4367-0.07415 0.19934-0.43394 0.09603-0.93352-0.2504-1.2581-0.45096-0.423-1.173-0.40841-1.8306 0.29416l-1.1693 1.2496 3.4545 3.2321 1.207-1.2921c0.71716-0.76578 0.53483-1.675 0.02553-2.1515m-4.0817 4.2665-2.0043-2.2961-0.71473 0.62478 1.9375 2.2195c0.46798 0.53604 0.33791 1.0417-0.05713 1.3869-0.39626 0.34521-0.9238 0.39626-1.382-0.12884l-1.9388-2.2208-0.71473 0.62478 2.0043 2.2961c0.78523 0.89827 1.8974 0.71837 2.6121 0.09481 0.71473-0.62478 1.0478-1.6969 0.25769-2.6012m-3.4266 5.0152-0.45096-0.67461-1.5716 1.0502-2.177-3.2576-0.78887 0.52632 2.628 3.9334 2.3605-1.5777zm-4.9582 1.517-0.87639-0.05956c0.02553 0.7123-0.29537 1.2313-0.86059 1.4818-0.7366 0.32576-1.5498 0.03404-1.9606-0.89341-0.42786-0.96512-0.0158-1.7054 0.71959-2.0312 0.40112-0.17868 0.89584-0.23216 1.3711 0.07658l0.3525-0.85573c-0.71716-0.3756-1.4732-0.30753-2.0652-0.04497-1.1171 0.49472-1.895 1.7904-1.2313 3.2892 0.62356 1.4063 1.9923 1.799 3.136 1.2921 0.85451-0.37803 1.4319-1.1852 1.4149-2.2548m-7.845 4.5631-0.15923-0.79738-1.8536 0.37073-0.76821-3.841-0.93109 0.18597 0.92866 4.6384 2.7835-0.55671zm-4.9666 0.9323-0.04497-0.81075-1.8877 0.10696-0.22244-3.9115-0.94689 0.05348 0.26742 4.7222 2.8346-0.16045zm23.467-36.477c0-1.6374-0.13857-3.2273-0.42178-4.8026-0.08144-0.45339-0.2431-0.9907-0.2431-0.9907l1.5632-5.4261c0.33548-1.1632 0.46676-1.4841 0.28322-1.7832-0.07293-0.11912-0.20664-0.31117-0.74876-0.45339l-4.693-1.17-0.145-0.261c-4.89-7.528-13.371-12.517-22.997-12.517-9.667 0-18.179 5.0311-23.058 12.612l-0.09481 0.17504-4.6943 1.1693c-0.54212 0.14343-0.67583 0.33548-0.74876 0.45339-0.18354 0.30023-0.05105 0.61992 0.28322 1.7844l1.5632 5.4261s-0.13978 0.48013-0.22244 0.93717c-0.26012 1.4258-0.43029 3.1932-0.43029 4.8463 0 15.11 12.292 27.403 27.403 27.403 15.11 0 27.403-12.292 27.403-27.403m-28.476 36.695-1.3541-4.8924-0.9007-0.09116-2.3155 4.5193 1.0222 0.10454 0.50201-1.0259 1.7369 0.17625 0.28565 1.1049 1.0235 0.10454zm-6.6124-5.6911-1.6482-0.45947-1.2702 4.5558 1.7042 0.47527c1.0101 0.282 1.7321-0.30023 1.9194-0.97242 0.16045-0.57494-0.1252-1.049-0.59804-1.3079 0.4777-0.02431 0.87274-0.34642 1.0004-0.80346 0.16653-0.5956-0.1799-1.2289-1.1074-1.4878m-3.418-1.0016-3.5579-1.6239-0.3367 0.73904 1.3468 0.61505-1.6276 3.5639 0.86423 0.39504 1.6264-3.5651 1.3468 0.61505 0.33791-0.73904zm-6.537-3.59c-1.1583-0.73782-2.6231-0.41692-3.3877 0.78401-0.7597 1.1949-0.42908 2.6571 0.72931 3.3937 1.1583 0.73782 2.6231 0.41692 3.3828-0.77793 0.76456-1.2009 0.43394-2.6633-0.72445-3.3998m-4.4945-0.03015c1.0235-0.98943 1.0429-2.4894 0.08873-3.4752-0.95418-0.987-2.4529-1.0173-3.4764-0.02796-1.0186 0.98457-1.0381 2.4834-0.08387 3.4704 0.95418 0.987 2.4542 1.0173 3.4715 0.03282m-5.1283-6.3596 0.92501-0.68191 1.1402 1.5437 0.65395-0.48256-1.7029-2.3083-3.807 2.8079 0.564 0.76456 1.5729-1.1609 0.90921 1.2325 0.65395-0.48256-0.90921-1.2325zm-4.01-19.199c0-0.51903-0.2662-0.94324-0.68312-1.1839 0.20907-0.1957 0.33548-0.46798 0.33548-0.7913 0-0.65152-0.51295-1.1706-1.1839-1.1706-0.66489 0-1.1706 0.51903-1.1706 1.1706 0 0.32333 0.12034 0.5956 0.32819 0.78523-0.41692 0.24067-0.68312 0.67097-0.68312 1.19 0 0.81683 0.66489 1.4489 1.5255 1.4489 0.87274 0 1.5316-0.63207 1.5316-1.4489m-4.5375-3.1458-0.69649 0.43394v4.1109h0.69649v-4.5449zm6.2514-19.531 4.8172 4.0355 1.5097-1.8014c0.89584-1.0685 0.58588-2.262-0.12398-2.8565-0.60776-0.5093-1.3395-0.42422-1.912 0.006 0.23338-0.59074 0.05956-1.2459-0.423-1.6507-0.62964-0.52754-1.5862-0.45704-2.4092 0.52389l-1.4586 1.7431zm5.3763-5.775 3.9468 4.8913 0.98097-0.79252-1.5596-1.9327 0.45339-0.36587 2.6304 1.0697 1.1888-0.96026-2.9805-1.1535c0.41449-0.76456 0.24675-1.5498-0.16045-2.0555-0.62964-0.78036-1.7054-0.95661-2.6863-0.16531l-1.8136 1.4647zm6.7231-4.6943 2.713 5.6692 3.5067-1.6798-0.46554-0.97242-2.369 1.134-0.65638-1.3699 1.8354-0.87882-0.46554-0.97358-1.8354 0.87882-0.66003-1.3784 2.2998-1.1013-0.46554-0.97358-3.4375 1.6458zm6.9601-2.8626 1.4027 6.1262 1.2289-0.282-0.88247-3.8545 3.7608 3.1956 1.1632-0.2662-1.404-6.1262-1.2277 0.28078 0.88854 3.8824-3.7657-3.2236-1.1645 0.26741zm7.9689-0.44366 1.968 0.00972-0.02917 5.2061 1.2617 0.0073 0.02796-5.2061 1.9679 0.01094 0.0049-1.0794-5.1963-0.027957-0.0049 1.0794zm6.9163 5.4905 1.2387 0.23824 0.49107-2.5514 1.9983 0.3841l0.204-1.0603-1.997-0.3841 0.288-1.4999 2.504 0.4813 0.204-1.0599-3.743-0.7208-1.187 6.1727zm7.5532 2.4322c1.6823 0.705 3.5287-0.04376 4.2556-1.7795 0.73053-1.7443-0.03039-3.5858-1.7139-4.2908-1.6823-0.705-3.5287 0.043759-4.2592 1.7881-0.72688 1.7358 0.03403 3.5773 1.7175 4.2823m8.155-2.9647-3.7888 5.0152 1.0064 0.7597 1.4964-1.9813 0.46554 0.35129-0.39869 2.8103 1.2192 0.92136 0.39626-3.1725c0.84236 0.21758 1.5632-0.13614 1.9546-0.65395 0.60411-0.80103 0.51538-1.8853-0.49107-2.6461l-1.8597-1.404zm6.0703 5.0104-4.4755 4.4111 1.4611 1.4841c1.5693 1.5911 3.5238 1.1936 4.619 0.11426 1.1025-1.0854 1.4137-2.9476-0.04133-4.4245l-1.562-1.584zm14.309 25.658c0 22.293-18.137 40.429-40.429 40.429s-40.428-18.137-40.428-40.429c0-22.294 18.137-40.431 40.428-40.431 22.293 0 40.429 18.137 40.429 40.431m-28.079-28.786c1.004 0.42057 2.1356-0.0073 2.6304-1.1875 0.49836-1.1888 0.0085-2.2949-0.99546-2.7155-1.004-0.42179-2.1369 0.00603-2.6341 1.1949-0.49472 1.1815-0.0049 2.2863 0.99916 2.7082m8.9985 1.4562c0.27106-0.35858 0.22487-0.83628-0.21028-1.1645l-0.73174-0.55185-0.98943 1.3103 0.69285 0.52389c0.44245 0.33427 0.95054 0.26377 1.2387-0.1179m14.598 25.643c-0.4935 0-0.81075 0.37316-0.81075 0.82291 0 0.44245 0.31725 0.82291 0.81075 0.82291 0.48742 0 0.80954-0.38046 0.80954-0.82291 0-0.44974-0.32211-0.82291-0.80954-0.82291m-4.1024 1.6896c-0.48742 0-0.81561 0.36101-0.81561 0.81075 0 0.44245 0.32819 0.80346 0.81561 0.80346 0.50079 0 0.8302-0.36101 0.8302-0.80346 0-0.44974-0.32941-0.81075-0.8302-0.81075m0-0.63936c0.31117 0 0.51903-0.2273 0.51903-0.5251s-0.20785-0.5251-0.51903-0.5251c-0.30266 0-0.50566 0.2273-0.50566 0.5251s0.20299 0.5251 0.50566 0.5251m-5.0566-19.868c0.78158-0.77064 1.0199-1.9035 0.12763-2.8091l-0.67704-0.68677-2.9391 2.8966 0.65152 0.66003c0.91164 0.92501 2.0469 0.71716 2.837-0.06078m-47.459-7.568c-0.282-0.34885-0.75605-0.42057-1.1803-0.07779l-0.71351 0.57494 1.0319 1.2787 0.67583-0.54577c0.43151-0.34764 0.48621-0.85816 0.18597-1.2301m-12.174 28.09c-0.48742 0-0.81683 0.36101-0.81683 0.81075 0 0.44245 0.32941 0.80346 0.81683 0.80346 0.49958 0 0.82898-0.36101 0.82898-0.80346 0-0.44974-0.32941-0.81075-0.82898-0.81075m24.367 33.562-0.70622-0.19691-0.33184 1.1912 0.67097 0.18719c0.40842 0.11426 0.80467-0.02188 0.91529-0.41692 0.10818-0.38775-0.16045-0.65638-0.5482-0.76456m-9.6744-6.4216c-0.69163-0.44002-1.585-0.26742-2.1064 0.55185-0.5166 0.81318-0.29416 1.6957 0.39626 2.1356 0.69163 0.44002 1.585 0.26742 2.1028-0.54577 0.52024-0.81926 0.29902-1.7017-0.39261-2.1417m-14.694-27.78c0.30996 0 0.51903-0.2273 0.51903-0.5251s-0.20907-0.5251-0.51903-0.5251c-0.30388 0-0.50687 0.2273-0.50687 0.5251s0.20299 0.5251 0.50687 0.5251m5.4649-22.195-0.589 0.703 1.091 0.914 0.57-0.681c0.29416-0.35128 0.28808-0.80589-0.05591-1.094-0.38046-0.31968-0.78401-0.12034-1.0162 0.15802m19.362 54.584-0.66489-0.18476-0.28808 1.0308 0.64423 0.1799c0.33184 0.09238 0.64179-0.05227 0.73174-0.37803 0.10089-0.35979-0.16045-0.57373-0.423-0.64787m4.2713 2.6973 1.0867 0.11061-0.39504-1.5218-0.69163 1.4112zm-20.464-54.639-0.59439 0.70986-1.2593-1.0551 0.62478-0.74633c0.34399-0.41084 0.81561-0.58831 1.2264-0.24432 0.41692 0.35007 0.36466 0.90313 0.0024 1.3359"/><path id="middle-black-border" fill="#140e0c" d="m21.518 28.28c4.5655-6.7157 12.267-11.135 20.983-11.135 8.7749 0 16.523 4.4817 21.077 11.276l0.96148-0.40234c-4.728-7.108-12.883-11.887-22.039-11.887-9.1395 0-17.208 4.6749-21.94 11.758l0.95783 0.38897zm-4.9569 9.4579c-0.28078 1.5388-0.42786 3.1446-0.42786 4.7637 0 14.538 11.828 26.366 26.367 26.366 14.538 0 26.366-11.828 26.366-26.366 0-1.6264-0.14829-3.2309-0.43151-4.7757l-1.021 0.0012c0.28929 1.5291 0.44002 3.1615 0.44002 4.7746 0 13.979-11.373 25.355-25.353 25.355-13.981 0-25.355-11.375-25.355-25.355 0-1.6264 0.15316-3.2175 0.44731-4.7588l-1.0319-0.0049z"/><path id="grey-lines" fill="#e8e4d9" d="m23.65 43.78v13.395l0.46433-0.08144v-13.281l-0.46433-0.03282zm0.43516-14.39v-3.0863l-0.46433 0.42543v2.487l0.46433 0.17382zm14.524-5.0091v3.3414l0.46433-0.24067v-2.3813l-0.46433-0.71959zm0 35.502v6.937l0.46433 0.07415v-6.621l-0.46433-0.39018zm0.46433-37.594v-4.1608l-0.46433 0.09967v3.8058l0.46433 0.25526zm-7.4682 21.088v-0.97485l-0.46433 0.29537v1.6228l0.46433-0.94324zm0-10.92v-2.0043l-0.46433-0.54577v2.3472l0.46433 0.20299zm-0.46433 19.949v11.772l0.46433 0.26498v-12.791l-0.46433 0.75362zm0.46433-25.56v-6.5481l-0.46433 0.26134v5.8369l0.46433 0.44974zm29.522 16.967v13.281l0.46433 0.08144v-13.395l-0.46433 0.03282zm0.4935-14.596v-2.487l-0.46433-0.42543v3.0863l0.46433-0.17382zm-15.452-4.1157v2.3813l0.46311 0.24067v-3.3414l-0.46311 0.71959zm0 35.172v6.621l0.46311-0.07415v-6.937l-0.46311 0.39018zm0.46311-38.239v-3.8058l-0.46311-0.09967v4.1608l0.46311-0.25526zm7.4682 22.287v-1.6228l-0.46433-0.29537v0.97485l0.46433 0.94324zm0-12.067v-2.3472l-0.46433 0.54577v2.0043l0.46433-0.20299zm-0.46433 19.399v12.791l0.46433-0.26498v-11.772l-0.46433-0.75362zm0-24.806v-6.5481l0.46433 0.26134v5.8369l-0.46433 0.44974z"/><g id="bee" transform="matrix(1.2155 0 0 -1.2155 -628.12 918.33)"><path id="path350-7" fill="#140e0c" d="m557.79 726.93 12.514 5.071-2.168-3.465-10.342-2.395-0.004 0.789zm0.017-1.36-0.004-0.548h15.102l-4.88 2.663-10.218-2.115zm-28.625 4.428 1.197-4.164 4.248 2.254s-2.248 3.707-2.252 3.68l-2.592-0.674c-0.501-0.135-0.65-0.209-0.719-0.315-0.079-0.12-0.029-0.244 0.118-0.781m6.246-2.313-4.881-2.657h15.103l-0.005 0.542-10.217 2.115zm-2.064-4.267c-0.008-0.131 0.124-0.253 0.321-0.461l2.819-2.796 2.269 2.181-4.269 1.788-0.836-0.42c-0.219-0.124-0.298-0.203-0.304-0.292m12.33 3.512-12.514 5.071 2.167-3.465 10.343-2.395 0.004 0.789zm-10.199-2.477 3.921-1.567 6.28 1.03-0.014 0.537h-10.187zm4.266-2.243c0.062 0.024-2.518-2.32-2.518-2.32l1.857-0.105s0.567-0.037 0.927 0.045c0.23 0.051 0.937 0.449 0.937 0.449s4.737 2.542 4.736 2.563l-0.01 0.555s-5.992-1.212-5.929-1.187m18.033 1.187-0.011-0.555c-0.00096-0.021 4.736-2.563 4.736-2.563s0.707-0.398 0.938-0.449c0.359-0.082 0.926-0.045 0.926-0.045l1.858 0.105s-2.581 2.344-2.518 2.32c0.063-0.025-5.929 1.187-5.929 1.187m12.015 0.313-0.837 0.42-4.269-1.788 2.27-2.181 2.819 2.796c0.197 0.208 0.329 0.33 0.32 0.461-0.005 0.089-0.084 0.168-0.303 0.292m-7.01-10.3c-0.079 0.106-2.257 5.878-2.257 5.878-0.369 0.923-0.685 1.081-1.344 1.45l-1.497 0.955-0.071-0.09 1.716-2.341 0.004-3.401 5.584-7.091c0.764-0.949 0.79-1.265 1.898-1.265l0.685 0.316-1.291 0.212s-3.348 5.272-3.427 5.377m-22.091 0c-0.079-0.105-3.427-5.377-3.427-5.377l-1.291-0.212 0.685-0.316c1.107 0 1.134 0.316 1.898 1.265l5.575 7.091 0.013 3.401 1.715 2.341-0.071 0.09-1.495-0.955c-0.659-0.369-0.976-0.527-1.345-1.45 0 0-2.178-5.772-2.257-5.878m33.642 17.379c-0.07 0.106-0.219 0.18-0.72 0.315l-2.591 0.674c-0.005 0.027-2.252-3.68-2.252-3.68l4.248-2.254 1.197 4.164c0.147 0.537 0.196 0.661 0.118 0.781m-16.56-6.326-0.014-0.537 6.281-1.03 3.92 1.567h-10.187zm-0.159 3.344 3.994 4.33 2.57 3.124 0.139 0.85-0.258 0.237-0.316-0.969-6.702-6.089c0.019-0.059 0.573-1.483 0.573-1.483m-15.777 4.33 3.994-4.33s0.554 1.424 0.573 1.483l-6.702 6.089-0.317 0.969-0.256-0.237 0.138-0.85 2.57-3.124zm4.1511 5.7934 0.60156-0.70469 1.8719-1.0281 1.8812-2.725-0.53281-0.73593s-1.0754-0.35707-1.2984-0.63907c-0.277-0.353-0.33594-1.7203-0.33594-1.7203l-0.82969-0.47657-0.98906-2.9234v-4.6281l0.70469-0.46875-2.0891-2.9266v-7.0641l2.3328-3.9531 3.1906-2.425 1.2281-1.5422 1.225 1.5422 3.1906 2.425 2.3328 3.9531v7.0641l-2.0484 2.9516 0.66406 0.44375v4.6281l-0.98906 2.9234-0.83125 0.47657s-0.0564 1.3673-0.33438 1.7203c-0.223 0.282-1.2984 0.63907-1.2984 0.63907l-0.50313 0.69374 1.9125 2.7672 1.8703 1.0281 0.60156 0.70469-0.92187-0.29062-1.9766-1.1062-1.9078-2.7-0.94376 0.24687-0.97812-0.23749-1.9 2.6906-1.9766 1.1062-0.92344 0.29062zm3.8219-5.4578 0.2875-1.3219-1.2891-0.49687 1.0016 1.8188zm3.825 0 1.0016-1.8188-1.2734 0.51407 0.27188 1.3047zm-1.9219-5.2188 3.8719-1.6875-1.2906-2.9v2.2672l-2.5812 1.3188-3.6594-0.40781-0.0312 0.11719 3.6906 1.2922zm-4.6344-13.144 2.4859-0.88594h4.3156l2.4875 0.88594 0.0266-0.0719-2.2562-1.725h-4.8312l-2.2562 1.725 0.0281 0.0719z"/><path id="path4656" fill="#fbb800" d="m557.1 710.85-3.15-1.106h-4.405l-3.11 1.106 1.101-1.918 2.59-0.936-1.819 0.044 2.477-1.882h1.926l2.477 1.882-1.817-0.044 2.589 0.936 1.141 1.918zm-10.032 16.208 2.636 1.397h4.088l2.636-1.397-0.29 0.818-1.899 1.581 1.688-0.58-0.185 0.58s-1.819 0.896-1.845 0.975h-4.299c-0.026-0.079-1.845-0.975-1.845-0.975l-0.185-0.58 1.688 0.58-1.899-1.581-0.289-0.818zm10.652-8.326-0.006 0.007-3.712-0.455 2.821 1.56-1.113 1.557-1.602-1.069h-4.721l-1.56 1.042-1.108-1.53 2.774-1.56-3.712 0.455-0.005-0.007v-1.985l2.398-0.896h7.146l2.4 0.896v1.985z"/></g></svg>
