<?xml version="1.0" encoding="UTF-8" ?>
<!DOCTYPE svg PUBLIC "-//W3C//DTD SVG 1.1//EN" "http://www.w3.org/Graphics/SVG/1.1/DTD/svg11.dtd">
<svg width="501pt" height="624pt" viewBox="0 0 501 624" version="1.1" xmlns="http://www.w3.org/2000/svg">
<path fill="#de2c37" stroke="#de2c37" stroke-width="0.09375" opacity="1.00" d=" M 7.1 5.8 C 32.1 5.7 57.1 5.6 82.0 5.8 C 82.3 13.5 82.0 21.2 82.2 28.8 C 91.2 28.9 100.2 28.8 109.2 28.9 C 109.4 21.2 109.3 13.5 109.2 5.9 C 134.7 5.7 160.2 5.4 185.7 6.0 C 185.6 13.6 185.5 21.2 185.7 28.9 C 194.7 28.8 203.7 28.9 212.7 28.8 C 212.6 21.1 212.6 13.5 212.8 5.8 C 238.3 5.6 263.9 5.7 289.4 5.8 C 289.2 13.4 289.4 21.1 289.3 28.8 C 298.8 28.8 308.2 28.9 317.7 28.7 C 317.6 21.2 317.6 13.6 317.7 6.1 C 342.9 5.3 368.4 5.7 393.7 5.9 C 393.7 13.6 393.6 21.2 393.8 28.8 C 403.4 28.8 413.0 28.9 422.7 28.8 C 422.4 21.1 422.5 13.5 422.6 5.8 C 447.2 5.7 471.7 5.7 496.3 5.8 C 496.4 48.6 496.4 91.4 496.2 134.2 C 487.7 134.4 478.8 134.0 470.9 137.8 C 462.4 141.6 456.5 150.6 456.7 160.0 C 456.8 283.6 456.6 407.3 456.7 530.9 C 452.8 532.7 449.0 534.9 444.8 535.8 C 444.3 536.1 443.4 536.6 443.0 536.8 C 441.5 537.9 439.7 538.6 437.8 538.8 C 437.4 539.1 436.5 539.6 436.0 539.8 C 434.5 540.9 432.7 541.7 430.8 541.9 C 430.4 542.1 429.5 542.6 429.0 542.8 C 424.4 545.1 419.7 547.5 414.8 548.8 C 414.3 549.1 413.4 549.6 413.0 549.8 C 411.5 550.9 409.7 551.6 407.8 551.8 C 407.4 552.1 406.5 552.6 406.0 552.8 C 404.5 553.9 402.7 554.7 400.8 554.9 C 400.4 555.1 399.5 555.6 399.0 555.8 C 394.5 558.2 389.7 560.4 384.8 561.8 C 384.3 562.1 383.4 562.6 383.0 562.8 C 381.5 563.9 379.7 564.6 377.8 564.8 C 377.4 565.1 376.5 565.5 376.0 565.8 C 359.1 573.4 342.1 581.2 324.8 587.8 C 324.3 588.1 323.4 588.6 323.0 588.8 C 321.5 589.9 319.7 590.6 317.8 590.8 C 317.4 591.1 316.5 591.6 316.0 591.8 C 314.5 592.9 312.7 593.7 310.8 593.9 C 310.4 594.1 309.5 594.6 309.0 594.8 C 306.8 596.2 304.4 597.3 301.8 597.8 C 301.3 598.1 300.4 598.6 300.0 598.8 C 298.4 599.8 296.6 600.6 294.8 600.8 C 294.3 601.1 293.4 601.6 293.0 601.8 C 289.1 603.8 285.1 605.8 280.8 606.9 C 280.4 607.1 279.5 607.6 279.0 607.8 C 276.8 609.2 274.4 610.3 271.8 610.8 C 271.3 611.1 270.5 611.6 270.0 611.8 C 268.4 612.8 266.6 613.6 264.8 613.8 C 264.3 614.1 263.4 614.6 263.0 614.8 C 259.1 616.8 255.2 618.7 251.0 619.8 C 246.1 618.4 241.5 616.0 237.0 613.8 C 236.5 613.6 235.6 613.1 235.2 612.9 C 233.3 612.7 231.5 611.9 230.0 610.8 C 229.5 610.6 228.6 610.1 228.2 609.8 C 221.0 607.4 213.9 604.1 207.0 600.8 C 206.6 600.6 205.7 600.1 205.2 599.8 C 200.3 598.4 195.6 596.1 191.0 593.8 C 190.5 593.6 189.6 593.1 189.2 592.8 C 187.3 592.7 185.6 591.8 184.0 590.8 C 183.6 590.6 182.7 590.1 182.2 589.8 C 169.6 585.0 157.3 579.3 145.0 573.8 C 144.6 573.5 143.7 573.0 143.2 572.8 C 140.6 572.3 138.2 571.1 136.0 569.8 C 135.5 569.6 134.6 569.1 134.2 568.8 C 132.3 568.6 130.6 567.8 129.0 566.8 C 128.5 566.6 127.7 566.1 127.2 565.8 C 122.3 564.4 117.6 562.0 113.0 559.8 C 112.5 559.6 111.6 559.1 111.2 558.9 C 109.3 558.6 107.5 557.8 106.0 556.8 C 105.6 556.6 104.7 556.1 104.2 555.8 C 91.6 551.1 79.3 545.2 67.0 539.8 C 66.5 539.6 65.7 539.1 65.2 538.8 C 60.3 537.3 55.6 535.1 51.0 532.8 C 50.6 532.6 49.7 532.1 49.2 531.8 C 48.5 531.6 47.1 531.1 46.4 530.8 C 47.0 484.9 46.5 438.9 46.6 393.0 C 46.5 383.2 47.0 373.4 46.4 363.7 C 46.1 296.5 46.2 229.2 46.3 162.0 C 47.5 151.2 40.4 141.3 31.0 136.7 C 30.6 136.5 29.6 136.1 29.2 135.8 C 21.9 134.1 14.5 134.3 7.2 134.2 C 7.2 91.4 7.2 48.6 7.1 5.8 M 16.3 14.3 C 16.5 51.1 16.5 88.0 16.3 124.8 C 24.8 125.7 33.7 126.9 40.7 132.3 C 48.9 138.3 55.8 147.5 56.1 158.0 C 56.2 280.3 56.3 402.6 56.3 524.8 C 121.2 553.0 186.0 581.4 251.0 609.0 C 316.7 581.4 381.9 552.3 447.6 524.6 C 447.6 401.4 447.6 278.2 447.6 155.0 C 449.7 136.3 469.1 124.5 486.8 125.0 C 486.7 88.1 486.8 51.2 486.8 14.3 C 468.3 14.4 449.8 14.4 431.3 14.3 C 431.3 22.2 431.4 30.1 431.2 38.0 C 415.5 38.0 399.8 38.2 384.1 37.9 C 384.1 30.0 384.4 22.1 384.0 14.2 C 364.9 14.4 345.9 14.4 326.9 14.2 C 326.4 22.1 326.6 30.0 326.7 37.9 C 311.2 38.2 295.6 38.1 280.0 37.9 C 279.8 30.0 280.1 22.1 279.8 14.3 C 260.7 14.4 241.5 14.3 222.3 14.3 C 222.4 22.2 222.4 30.1 222.3 38.0 C 206.9 38.1 191.5 38.2 176.1 37.9 C 176.0 30.0 176.3 22.1 175.8 14.3 C 156.8 14.3 137.8 14.4 118.8 14.2 C 118.4 22.1 118.6 30.0 118.7 37.8 C 103.1 38.3 87.5 38.0 71.9 38.0 C 71.7 30.1 71.9 22.2 71.8 14.3 C 53.3 14.4 34.8 14.3 16.3 14.3 Z" />
<path fill="#fefefe" stroke="#fefefe" stroke-width="0.09375" opacity="1.00" d=" M 289.4 5.8 C 289.8 13.4 289.5 21.0 289.6 28.7 C 298.8 28.8 308.1 28.9 317.3 28.6 C 317.6 21.1 316.8 13.5 317.7 6.1 C 317.6 13.6 317.6 21.2 317.7 28.7 C 308.2 28.9 298.8 28.8 289.3 28.8 C 289.4 21.1 289.2 13.4 289.4 5.8 Z" />
<path fill="#fefefe" stroke="#fefefe" stroke-width="0.09375" opacity="1.00" d=" M 16.3 14.3 C 34.8 14.3 53.3 14.4 71.8 14.3 C 71.9 22.2 71.7 30.1 71.9 38.0 C 87.5 38.0 103.1 38.3 118.7 37.8 C 118.6 30.0 118.4 22.1 118.8 14.2 C 137.8 14.4 156.8 14.3 175.8 14.3 C 176.3 22.1 176.0 30.0 176.1 37.9 C 191.5 38.2 206.9 38.1 222.3 38.0 C 222.4 30.1 222.4 22.2 222.3 14.3 C 241.5 14.3 260.7 14.4 279.8 14.3 C 280.1 22.1 279.8 30.0 280.0 37.9 C 295.6 38.1 311.2 38.2 326.7 37.9 C 326.6 30.0 326.4 22.1 326.9 14.2 C 345.9 14.4 364.9 14.4 384.0 14.2 C 384.4 22.1 384.1 30.0 384.1 37.9 C 399.8 38.2 415.5 38.0 431.2 38.0 C 431.4 30.1 431.3 22.2 431.3 14.3 C 449.8 14.4 468.3 14.4 486.8 14.3 C 486.8 51.2 486.7 88.1 486.8 125.0 C 469.1 124.5 449.7 136.3 447.6 155.0 C 447.6 278.2 447.6 401.4 447.6 524.6 C 381.9 552.3 316.7 581.4 251.0 609.0 C 186.0 581.4 121.2 553.0 56.3 524.8 C 56.3 402.6 56.2 280.3 56.1 158.0 C 55.8 147.5 48.9 138.3 40.7 132.3 C 33.7 126.9 24.8 125.7 16.3 124.8 C 16.5 88.0 16.5 51.1 16.3 14.3 M 22.2 20.2 C 22.0 53.4 22.1 86.6 22.1 119.7 C 40.5 120.9 59.6 134.1 62.7 153.0 C 62.8 275.0 62.7 397.0 62.8 519.0 C 62.6 520.5 63.1 522.0 64.7 522.3 C 126.9 549.3 188.8 576.7 251.0 603.6 C 314.4 576.3 377.6 548.5 440.9 521.0 C 441.3 400.0 440.9 279.0 441.1 157.9 C 441.8 137.2 460.7 120.7 480.9 119.6 C 481.2 86.5 481.1 53.4 480.9 20.2 C 466.3 20.4 451.8 20.3 437.2 20.2 C 437.2 28.1 437.6 35.9 437.0 43.7 C 417.4 43.5 397.8 43.6 378.2 43.7 C 378.1 35.9 378.4 28.1 378.0 20.2 C 363.0 20.3 347.9 20.3 332.9 20.2 C 332.5 28.0 332.7 35.9 332.7 43.7 C 313.2 43.6 293.7 43.5 274.2 43.7 C 273.9 35.9 274.3 28.1 273.9 20.2 C 258.7 20.3 243.4 20.3 228.2 20.2 C 228.0 28.1 228.5 35.9 227.9 43.7 C 208.6 43.6 189.4 43.5 170.1 43.7 C 169.5 35.9 170.0 28.1 169.8 20.2 C 154.6 20.3 139.4 20.3 124.2 20.2 C 124.0 28.1 124.5 35.9 123.9 43.7 C 104.7 43.5 85.4 43.5 66.1 43.7 C 65.6 35.9 66.0 28.1 65.8 20.2 C 51.3 20.3 36.7 20.3 22.2 20.2 Z" />
<path fill="#de2c37" stroke="#de2c37" stroke-width="0.09375" opacity="1.00" d=" M 22.2 20.2 C 36.7 20.3 51.3 20.3 65.8 20.2 C 66.0 28.1 65.6 35.9 66.1 43.7 C 85.4 43.5 104.7 43.5 123.9 43.7 C 124.5 35.9 124.0 28.1 124.2 20.2 C 139.4 20.3 154.6 20.3 169.8 20.2 C 170.0 28.1 169.5 35.9 170.1 43.7 C 189.4 43.5 208.6 43.6 227.9 43.7 C 228.5 35.9 228.0 28.1 228.2 20.2 C 243.4 20.3 258.7 20.3 273.9 20.2 C 274.3 28.1 273.9 35.9 274.2 43.7 C 293.7 43.5 313.2 43.6 332.7 43.7 C 332.7 35.9 332.5 28.0 332.9 20.2 C 347.9 20.3 363.0 20.3 378.0 20.2 C 378.4 28.1 378.1 35.9 378.2 43.7 C 397.8 43.6 417.4 43.5 437.0 43.7 C 437.6 35.9 437.2 28.1 437.2 20.2 C 451.8 20.3 466.3 20.4 480.9 20.2 C 481.1 53.4 481.2 86.5 480.9 119.6 C 460.7 120.7 441.8 137.2 441.1 157.9 C 440.9 279.0 441.3 400.0 440.9 521.0 C 377.6 548.5 314.4 576.3 251.0 603.6 C 188.8 576.7 126.9 549.3 64.7 522.3 C 63.1 522.0 62.6 520.5 62.8 519.0 C 62.7 397.0 62.8 275.0 62.7 153.0 C 59.6 134.1 40.5 120.9 22.1 119.7 C 22.1 86.6 22.0 53.4 22.2 20.2 M 56.1 57.0 C 56.2 76.6 56.1 96.2 56.2 115.7 C 186.7 115.6 317.2 115.7 447.7 115.7 C 447.5 96.2 447.5 76.7 447.7 57.1 C 444.8 57.0 441.9 56.9 439.0 56.9 C 311.4 57.0 183.7 56.8 56.1 57.0 M 80.2 128.2 C 80.3 216.9 80.3 305.5 80.2 394.1 C 194.2 394.5 308.2 394.3 422.3 394.2 C 422.4 305.5 422.5 216.8 422.2 128.2 C 308.2 128.3 194.2 128.2 80.2 128.2 M 79.6 401.8 C 79.6 419.9 79.3 438.2 79.8 456.3 L 79.8 455.5 C 194.1 455.9 308.4 455.5 422.7 455.7 C 422.7 450.5 422.6 445.2 422.9 439.9 C 422.7 427.2 423.3 414.4 422.5 401.7 L 422.5 402.4 C 308.2 402.2 194.0 402.1 79.8 402.5 L 79.6 401.8 M 80.2 468.0 C 80.3 484.9 80.3 501.9 80.2 518.8 C 194.2 519.0 308.2 518.8 422.2 518.9 C 422.5 501.9 422.4 484.9 422.2 467.9 C 308.2 467.8 194.2 467.7 80.2 468.0 M 117.9 531.4 C 161.1 550.4 204.9 568.2 248.3 586.8 C 251.1 588.6 254.0 586.6 256.6 585.6 C 299.7 567.4 343.2 550.0 386.1 531.4 C 296.7 531.2 207.3 531.2 117.9 531.4 Z" />
<path fill="#fefefe" stroke="#fefefe" stroke-width="0.09375" opacity="1.00" d=" M 56.1 57.0 C 183.7 56.8 311.4 57.0 439.0 56.9 C 441.9 56.9 444.8 57.0 447.7 57.1 C 447.5 76.7 447.5 96.2 447.7 115.7 C 317.2 115.7 186.7 115.6 56.2 115.7 C 56.1 96.2 56.2 76.6 56.1 57.0 M 62.3 63.1 C 62.4 78.7 62.4 94.3 62.2 109.9 C 188.6 110.2 314.9 110.0 441.2 110.0 C 441.4 94.3 441.4 78.6 441.2 62.9 C 317.5 62.7 193.7 62.9 70.0 62.8 C 67.4 62.8 64.8 62.9 62.3 63.1 Z" />
<path fill="#3a64a3" stroke="#3a64a3" stroke-width="0.09375" opacity="1.00" d=" M 62.3 63.1 C 64.8 62.9 67.4 62.8 70.0 62.8 C 193.7 62.9 317.5 62.7 441.2 62.9 C 441.4 78.6 441.4 94.3 441.2 110.0 C 314.9 110.0 188.6 110.2 62.2 109.9 C 62.4 94.3 62.4 78.7 62.3 63.1 M 121.8 76.8 C 118.4 79.3 118.8 84.6 121.7 87.3 C 124.9 90.3 129.7 90.3 133.2 92.8 C 134.5 93.8 133.3 95.8 131.9 96.0 C 127.7 97.2 123.6 94.9 120.0 93.1 C 119.9 95.1 119.9 97.1 119.8 99.1 C 125.3 101.3 132.0 102.8 137.4 99.4 C 141.3 97.4 141.9 91.2 138.7 88.3 C 135.0 84.8 129.2 85.0 125.7 81.2 C 130.0 78.0 135.3 80.2 139.6 81.9 C 139.6 80.0 139.6 78.2 139.6 76.3 C 134.0 74.3 126.9 72.7 121.8 76.8 M 209.1 79.1 C 204.2 83.5 203.8 91.9 208.6 96.4 C 214.8 102.8 225.1 102.5 232.7 98.8 C 232.7 96.9 232.7 94.9 232.7 93.0 C 227.7 95.0 221.7 97.3 216.6 94.4 C 212.4 92.3 211.2 86.0 214.9 82.9 C 219.6 78.6 227.0 79.8 232.1 82.8 C 232.2 80.6 232.2 78.4 232.0 76.2 C 224.5 73.4 215.1 73.2 209.1 79.1 M 323.4 74.5 C 315.4 75.5 308.2 83.6 311.2 91.9 C 316.0 105.1 338.8 104.4 342.5 90.6 C 344.8 80.1 332.8 72.4 323.4 74.5 M 80.2 74.9 C 80.3 83.7 80.3 92.4 80.2 101.2 C 82.8 101.3 85.3 101.3 87.8 101.2 C 87.8 92.4 87.8 83.7 87.8 74.9 C 85.3 74.8 82.8 74.8 80.2 74.9 M 93.9 74.9 C 93.8 83.6 93.7 92.3 93.9 101.0 C 96.3 101.0 98.7 101.0 101.1 101.0 C 101.3 97.4 101.3 93.9 101.3 90.3 C 105.5 90.4 110.6 91.3 113.7 87.7 C 117.8 83.9 115.4 76.2 109.9 75.2 C 104.6 74.3 99.2 74.9 93.9 74.9 M 142.1 75.0 C 146.2 83.3 149.8 91.8 153.9 100.1 C 154.4 101.9 157.4 101.9 158.1 100.2 C 160.9 95.2 163.0 90.0 166.0 85.2 C 169.4 90.4 171.7 96.2 174.8 101.5 C 175.6 101.4 177.2 101.2 178.0 101.1 C 181.7 92.3 186.0 83.7 189.9 75.0 C 187.4 75.0 184.7 74.2 182.3 75.3 C 179.9 79.5 178.3 84.2 176.0 88.4 C 173.3 84.1 171.3 79.4 169.0 74.8 C 167.0 74.8 165.0 74.8 163.0 74.9 C 160.8 79.4 158.7 84.1 156.1 88.4 C 153.7 84.1 152.1 79.5 149.7 75.2 C 147.3 74.3 144.6 74.9 142.1 75.0 M 193.0 74.8 C 193.0 83.6 193.0 92.5 193.0 101.3 C 195.6 101.4 198.2 101.3 200.7 101.1 C 200.6 92.4 200.6 83.7 200.7 75.0 C 198.2 74.8 195.6 74.8 193.0 74.8 M 237.9 74.8 C 237.8 83.6 237.7 92.3 237.9 101.0 C 240.3 101.1 242.6 101.1 244.9 101.1 C 245.0 97.5 245.1 93.9 245.2 90.3 C 249.7 90.4 254.2 90.4 258.7 90.3 C 258.6 93.9 258.7 97.5 258.8 101.0 C 261.1 101.0 263.5 101.0 265.8 100.9 C 265.8 92.2 265.7 83.6 265.8 74.9 C 263.5 74.8 261.1 74.8 258.8 74.8 C 258.7 78.2 258.7 81.6 258.8 85.0 C 254.2 85.4 249.6 85.3 245.1 85.1 C 245.1 81.7 245.1 78.2 245.0 74.8 C 242.6 74.8 240.3 74.8 237.9 74.8 M 281.2 75.0 C 281.2 76.6 281.3 78.2 281.3 79.8 C 284.6 79.8 287.9 79.8 291.2 79.9 C 291.4 86.9 291.3 93.9 291.2 100.9 C 293.7 101.0 296.2 100.9 298.7 100.9 C 298.5 93.9 298.5 86.9 298.7 79.9 C 302.0 79.8 305.4 79.8 308.7 79.7 C 308.7 78.2 308.7 76.6 308.7 75.1 C 299.6 74.5 290.4 74.7 281.2 75.0 M 343.7 74.9 C 347.4 83.9 351.7 92.6 355.8 101.4 C 356.6 101.3 358.2 101.2 359.0 101.2 C 361.7 95.7 364.4 90.2 367.3 84.9 C 370.5 90.2 372.9 95.9 375.8 101.3 C 376.6 101.3 378.2 101.2 379.0 101.2 C 383.2 92.5 387.3 83.8 391.2 75.0 C 388.6 75.0 385.8 74.1 383.5 75.4 C 381.3 79.7 379.8 84.3 377.2 88.4 C 374.7 84.2 373.0 79.6 370.6 75.4 C 368.5 74.4 364.6 73.9 363.6 76.7 C 361.5 80.6 360.0 84.8 357.3 88.4 C 355.2 83.9 353.2 79.3 351.0 74.8 C 348.6 74.8 346.2 74.8 343.7 74.9 M 394.2 75.0 C 394.4 83.6 394.3 92.2 394.3 100.9 C 396.6 100.9 398.9 101.0 401.2 101.1 C 401.4 95.7 401.4 90.4 401.3 85.1 C 406.1 89.8 410.6 94.8 415.3 99.6 C 417.1 101.8 420.3 100.8 422.7 100.9 C 422.5 92.2 422.5 83.6 422.7 75.0 C 420.4 74.9 418.1 74.8 415.7 74.8 C 415.6 79.8 415.6 84.9 415.7 89.9 C 411.2 85.5 406.9 81.0 402.6 76.5 C 400.6 73.8 397.0 75.0 394.2 75.0 Z" />
<path fill="#fefefe" stroke="#fefefe" stroke-width="0.09375" opacity="1.00" d=" M 121.8 76.8 C 126.9 72.7 134.0 74.3 139.6 76.3 C 139.6 78.2 139.6 80.0 139.6 81.9 C 135.3 80.2 130.0 78.0 125.7 81.2 C 129.2 85.0 135.0 84.8 138.7 88.3 C 141.9 91.2 141.3 97.4 137.4 99.4 C 132.0 102.8 125.3 101.3 119.8 99.1 C 119.9 97.1 119.9 95.1 120.0 93.1 C 123.6 94.9 127.7 97.2 131.9 96.0 C 133.3 95.8 134.5 93.8 133.2 92.8 C 129.7 90.3 124.9 90.3 121.7 87.3 C 118.8 84.6 118.4 79.3 121.8 76.8 Z" />
<path fill="#fefefe" stroke="#fefefe" stroke-width="0.09375" opacity="1.00" d=" M 209.1 79.1 C 215.1 73.2 224.5 73.4 232.0 76.2 C 232.2 78.4 232.2 80.6 232.1 82.8 C 227.0 79.8 219.6 78.6 214.9 82.9 C 211.2 86.0 212.4 92.3 216.6 94.4 C 221.7 97.3 227.7 95.0 232.7 93.0 C 232.7 94.9 232.7 96.9 232.7 98.8 C 225.1 102.5 214.8 102.8 208.6 96.4 C 203.8 91.9 204.2 83.5 209.1 79.1 Z" />
<path fill="#fefefe" stroke="#fefefe" stroke-width="0.09375" opacity="1.00" d=" M 323.4 74.5 C 332.8 72.4 344.8 80.1 342.5 90.6 C 338.8 104.4 316.0 105.1 311.2 91.9 C 308.2 83.6 315.4 75.5 323.4 74.5 M 324.3 80.4 C 318.9 80.9 316.4 87.6 319.0 92.0 C 321.5 96.2 327.5 96.9 331.5 94.6 C 335.6 92.3 336.6 86.0 333.3 82.7 C 331.0 80.3 327.4 79.9 324.3 80.4 Z" />
<path fill="#fefefe" stroke="#fefefe" stroke-width="0.09375" opacity="1.00" d=" M 80.2 74.9 C 82.8 74.8 85.3 74.8 87.8 74.9 C 87.8 83.7 87.8 92.4 87.8 101.2 C 85.3 101.3 82.8 101.3 80.2 101.2 C 80.3 92.4 80.3 83.7 80.2 74.9 Z" />
<path fill="#fefefe" stroke="#fefefe" stroke-width="0.09375" opacity="1.00" d=" M 93.9 74.9 C 99.2 74.9 104.6 74.3 109.9 75.2 C 115.4 76.2 117.8 83.9 113.7 87.7 C 110.6 91.3 105.5 90.4 101.3 90.3 C 101.3 93.9 101.3 97.4 101.1 101.0 C 98.7 101.0 96.3 101.0 93.9 101.0 C 93.7 92.3 93.8 83.6 93.9 74.9 M 101.2 79.8 C 101.2 81.8 101.3 83.8 101.3 85.9 C 104.7 85.9 109.3 85.5 108.5 80.9 C 106.1 79.9 103.7 79.6 101.2 79.8 Z" />
<path fill="#fefefe" stroke="#fefefe" stroke-width="0.09375" opacity="1.00" d=" M 142.1 75.0 C 144.6 74.9 147.3 74.3 149.7 75.2 C 152.1 79.5 153.7 84.1 156.1 88.4 C 158.7 84.1 160.8 79.4 163.0 74.9 C 165.0 74.8 167.0 74.8 169.0 74.8 C 171.3 79.4 173.3 84.1 176.0 88.4 C 178.3 84.2 179.9 79.5 182.3 75.3 C 184.7 74.2 187.4 75.0 189.9 75.0 C 186.0 83.7 181.7 92.3 178.0 101.1 C 177.2 101.2 175.6 101.4 174.8 101.5 C 171.7 96.2 169.4 90.4 166.0 85.2 C 163.0 90.0 160.9 95.2 158.1 100.2 C 157.4 101.9 154.4 101.9 153.9 100.1 C 149.8 91.8 146.2 83.3 142.1 75.0 Z" />
<path fill="#fefefe" stroke="#fefefe" stroke-width="0.09375" opacity="1.00" d=" M 193.0 74.8 C 195.6 74.8 198.2 74.8 200.7 75.0 C 200.6 83.7 200.6 92.4 200.7 101.1 C 198.2 101.3 195.6 101.4 193.0 101.3 C 193.0 92.5 193.0 83.6 193.0 74.8 Z" />
<path fill="#fefefe" stroke="#fefefe" stroke-width="0.09375" opacity="1.00" d=" M 237.9 74.8 C 240.3 74.8 242.6 74.8 245.0 74.8 C 245.1 78.2 245.1 81.7 245.1 85.1 C 249.6 85.3 254.2 85.4 258.8 85.0 C 258.7 81.6 258.7 78.2 258.8 74.8 C 261.1 74.8 263.5 74.8 265.8 74.9 C 265.7 83.6 265.8 92.2 265.8 100.9 C 263.5 101.0 261.1 101.0 258.8 101.0 C 258.7 97.5 258.6 93.9 258.7 90.3 C 254.2 90.4 249.7 90.4 245.2 90.3 C 245.1 93.9 245.0 97.5 244.9 101.1 C 242.6 101.1 240.3 101.1 237.9 101.0 C 237.7 92.3 237.8 83.6 237.9 74.8 Z" />
<path fill="#fefefe" stroke="#fefefe" stroke-width="0.09375" opacity="1.00" d=" M 281.2 75.0 C 290.4 74.7 299.6 74.5 308.7 75.1 C 308.7 76.6 308.7 78.2 308.7 79.7 C 305.4 79.8 302.0 79.8 298.7 79.9 C 298.5 86.9 298.5 93.9 298.7 100.9 C 296.2 100.9 293.7 101.0 291.2 100.9 C 291.3 93.9 291.4 86.9 291.2 79.9 C 287.9 79.8 284.6 79.8 281.3 79.8 C 281.3 78.2 281.2 76.6 281.2 75.0 Z" />
<path fill="#fefefe" stroke="#fefefe" stroke-width="0.09375" opacity="1.00" d=" M 343.7 74.9 C 346.2 74.8 348.6 74.8 351.0 74.8 C 353.2 79.3 355.2 83.9 357.3 88.4 C 360.0 84.8 361.5 80.6 363.6 76.7 C 364.6 73.9 368.5 74.4 370.6 75.4 C 373.0 79.6 374.7 84.2 377.2 88.4 C 379.8 84.3 381.3 79.7 383.5 75.4 C 385.8 74.1 388.6 75.0 391.2 75.0 C 387.3 83.8 383.2 92.5 379.0 101.2 C 378.2 101.2 376.6 101.3 375.8 101.3 C 372.9 95.9 370.5 90.2 367.3 84.9 C 364.4 90.2 361.7 95.7 359.0 101.2 C 358.2 101.2 356.6 101.3 355.8 101.4 C 351.7 92.6 347.4 83.9 343.7 74.9 Z" />
<path fill="#fefefe" stroke="#fefefe" stroke-width="0.09375" opacity="1.00" d=" M 394.2 75.0 C 397.0 75.0 400.6 73.8 402.6 76.5 C 406.9 81.0 411.2 85.5 415.7 89.9 C 415.6 84.9 415.6 79.8 415.7 74.8 C 418.1 74.8 420.4 74.9 422.7 75.0 C 422.5 83.6 422.5 92.2 422.7 100.9 C 420.3 100.8 417.1 101.8 415.3 99.6 C 410.6 94.8 406.1 89.8 401.3 85.1 C 401.4 90.4 401.4 95.7 401.2 101.1 C 398.9 101.0 396.6 100.9 394.3 100.9 C 394.3 92.2 394.4 83.6 394.2 75.0 Z" />
<path fill="#3a64a3" stroke="#3a64a3" stroke-width="0.09375" opacity="1.00" d=" M 101.2 79.8 C 103.7 79.6 106.1 79.9 108.5 80.9 C 109.3 85.5 104.7 85.9 101.3 85.9 C 101.3 83.8 101.2 81.8 101.2 79.8 Z" />
<path fill="#3a64a3" stroke="#3a64a3" stroke-width="0.09375" opacity="1.00" d=" M 324.3 80.4 C 327.4 79.9 331.0 80.3 333.3 82.7 C 336.6 86.0 335.6 92.3 331.5 94.6 C 327.5 96.9 321.5 96.2 319.0 92.0 C 316.4 87.6 318.9 80.9 324.3 80.4 Z" />
<path fill="#fefefe" stroke="#fefefe" stroke-width="0.09375" opacity="1.00" d=" M 80.2 128.2 C 194.2 128.2 308.2 128.3 422.2 128.2 C 422.5 216.8 422.4 305.5 422.3 394.2 C 308.2 394.3 194.2 394.5 80.2 394.1 C 80.3 305.5 80.3 216.9 80.2 128.2 M 87.9 135.0 C 87.7 216.0 87.9 297.0 87.8 378.0 C 87.7 381.2 87.8 384.5 88.1 387.7 C 197.1 387.6 306.1 387.6 415.0 387.7 C 415.2 385.5 415.4 383.2 415.4 381.0 C 415.2 299.0 415.5 217.0 415.2 135.0 C 306.1 135.0 197.0 135.0 87.9 135.0 Z" />
<path fill="#3a64a3" stroke="#3a64a3" stroke-width="0.09375" opacity="1.00" d=" M 87.9 135.0 C 197.0 135.0 306.1 135.0 415.2 135.0 C 415.5 217.0 415.2 299.0 415.4 381.0 C 415.4 383.2 415.2 385.5 415.0 387.7 C 306.1 387.6 197.1 387.6 88.1 387.7 C 87.8 384.5 87.7 381.2 87.8 378.0 C 87.9 297.0 87.7 216.0 87.9 135.0 M 136.6 140.0 C 136.3 143.6 136.7 147.8 140.2 149.7 C 144.3 147.4 143.0 142.7 142.1 139.0 C 140.3 139.4 138.0 138.6 136.6 140.0 M 154.2 138.9 C 153.6 142.9 153.0 147.5 156.7 150.2 C 160.5 147.6 160.4 143.2 159.9 139.1 C 158.0 139.1 156.1 139.0 154.2 138.9 M 118.9 142.9 C 118.6 148.4 123.3 151.3 125.1 155.8 C 121.4 157.8 117.5 160.3 113.3 160.8 C 109.2 155.2 102.4 153.3 95.9 152.1 C 97.7 156.9 99.2 161.8 101.6 166.4 C 103.1 169.9 99.6 172.8 99.2 176.1 C 97.1 188.6 100.6 200.9 101.7 213.3 C 102.6 224.1 103.2 235.1 106.5 245.5 C 110.9 250.3 117.9 252.4 124.3 252.2 C 125.4 248.6 123.1 243.6 126.3 241.2 C 131.0 241.0 129.8 247.4 130.9 250.5 C 133.7 250.0 136.5 248.4 137.6 245.6 C 138.4 242.3 133.4 239.8 135.5 236.5 C 144.1 230.7 143.5 217.7 152.9 212.6 C 154.8 219.4 157.3 226.1 160.5 232.4 C 165.4 243.4 157.9 254.7 159.4 266.0 C 160.8 279.4 172.6 289.1 184.4 293.6 C 187.1 303.0 194.2 310.0 198.5 318.6 C 201.1 323.4 200.8 329.3 204.3 333.6 C 208.2 338.8 213.4 343.3 215.1 349.9 C 219.5 361.1 215.3 373.3 208.9 382.8 C 214.2 383.5 219.6 383.4 225.0 383.3 C 228.7 383.1 232.7 381.3 233.5 377.4 C 234.2 373.4 238.1 371.3 239.6 367.8 C 240.5 358.0 232.2 351.1 227.8 343.2 C 223.6 338.7 226.8 332.1 223.8 327.2 C 216.8 317.2 224.2 304.8 221.1 293.8 C 233.9 298.4 248.1 301.5 261.6 297.5 C 277.3 293.7 291.4 285.6 306.7 280.6 C 306.0 276.1 297.5 277.9 297.6 272.8 C 302.5 273.5 307.2 275.8 310.8 279.2 C 317.6 285.6 325.1 291.2 333.4 295.5 C 338.4 298.2 344.4 299.3 348.7 303.3 C 353.3 307.3 358.4 310.6 363.9 313.1 C 370.6 316.4 370.3 325.2 368.3 331.4 C 365.3 340.0 364.2 349.2 360.7 357.7 C 357.9 364.3 349.7 367.0 347.8 374.0 C 355.4 377.4 364.6 376.7 372.3 374.3 C 372.9 368.5 377.4 364.6 382.8 362.8 C 383.5 355.9 380.1 349.2 381.5 342.4 C 384.4 328.3 390.3 315.0 393.8 301.0 C 382.8 295.4 368.4 288.4 368.7 274.0 C 359.7 273.6 349.7 272.7 342.8 266.2 C 336.2 260.7 335.6 249.0 342.2 243.2 C 353.4 231.8 369.4 227.7 382.9 219.7 C 380.5 215.2 375.4 212.5 374.0 207.4 C 378.8 205.5 385.3 204.3 389.1 208.9 C 392.8 212.4 390.0 218.0 386.5 220.5 C 373.2 229.7 356.0 232.6 344.5 244.5 C 339.6 249.3 338.2 258.5 343.5 263.5 C 350.9 270.9 362.3 271.6 372.2 271.2 C 369.2 265.3 368.3 258.0 372.3 252.3 C 381.7 238.9 399.1 233.8 407.4 219.4 C 410.9 214.4 409.8 206.8 404.8 203.2 C 396.4 196.6 384.7 197.0 375.0 200.2 C 371.8 201.4 368.0 203.6 364.7 201.3 C 355.5 195.4 345.1 190.7 334.0 190.6 C 307.4 189.7 283.6 205.4 257.0 204.7 C 245.9 204.8 232.5 201.9 226.8 191.2 C 223.0 184.9 215.0 182.1 211.9 175.4 C 207.2 175.6 203.9 171.4 200.3 169.0 C 203.6 165.2 208.3 162.7 209.2 157.2 C 207.5 156.5 205.9 155.8 204.2 155.2 C 201.5 158.7 199.1 162.8 201.4 167.3 C 196.0 169.1 191.6 164.0 187.1 161.8 C 188.8 156.9 194.6 154.8 195.0 149.1 C 193.4 148.4 191.7 147.7 190.1 147.1 C 187.7 150.3 185.7 153.9 187.5 157.9 C 187.1 159.0 186.4 160.0 185.8 161.0 C 181.0 160.1 176.6 158.2 172.2 156.1 C 173.5 151.4 178.8 148.5 177.4 142.8 C 171.2 140.2 168.2 149.1 171.9 153.1 C 171.6 154.0 171.2 155.0 170.8 155.9 C 166.0 154.8 159.4 155.9 156.5 151.1 C 156.1 151.6 155.3 152.7 154.9 153.3 C 150.4 152.9 144.4 155.1 141.1 151.1 C 139.2 155.4 133.3 154.3 129.5 155.5 C 127.1 156.7 124.6 153.9 125.8 151.6 C 127.5 148.5 125.6 145.2 124.7 142.1 C 122.8 142.4 120.9 142.6 118.9 142.9 M 90.7 159.1 C 91.2 164.1 94.4 168.8 98.8 171.1 C 100.6 165.8 96.4 159.4 90.7 159.1 M 217.1 163.1 C 214.3 166.0 211.1 169.6 212.8 174.0 C 217.2 173.3 219.9 169.9 221.8 166.2 C 220.3 165.2 218.7 164.1 217.1 163.1 M 373.0 266.5 C 379.3 260.0 384.6 251.8 386.1 242.7 C 377.9 247.2 368.4 256.3 373.0 266.5 M 103.2 273.2 C 101.4 275.1 102.2 277.9 102.9 280.1 C 106.3 291.6 113.3 301.7 116.4 313.4 C 118.4 321.0 111.9 328.7 115.9 336.0 C 122.0 333.9 127.7 330.7 133.1 327.2 C 134.1 323.1 134.9 319.0 138.1 315.9 C 131.0 308.2 127.1 297.3 127.8 286.9 C 135.1 287.3 141.3 291.7 148.0 294.0 C 158.7 298.2 170.8 300.0 182.0 296.6 C 171.5 290.2 160.4 282.5 157.0 270.0 C 144.7 268.4 132.3 267.6 120.0 267.7 C 114.1 267.9 107.4 268.5 103.2 273.2 M 302.1 286.1 C 304.4 296.5 310.3 305.5 315.3 314.7 C 317.2 318.1 317.7 322.9 315.2 326.2 C 309.6 333.9 302.9 340.7 297.7 348.8 C 293.4 355.6 284.7 358.3 280.9 365.7 C 287.4 366.4 293.9 366.3 300.3 366.6 C 305.0 367.0 305.4 360.7 309.0 359.0 C 311.3 358.1 313.8 357.8 316.2 357.1 C 317.3 341.8 328.2 329.9 339.0 320.0 C 340.5 318.5 343.5 316.7 342.0 314.2 C 339.3 310.1 337.7 305.4 336.2 300.7 C 326.8 296.0 318.2 289.8 309.9 283.4 C 307.1 283.8 304.6 285.1 302.1 286.1 M 134.6 333.6 C 131.3 336.0 126.9 337.6 125.8 342.0 C 129.8 344.3 132.1 339.8 134.8 337.8 C 139.7 333.7 145.9 332.0 151.4 329.1 C 145.3 326.6 139.5 330.4 134.6 333.6 M 125.0 337.0 C 127.9 335.4 130.6 333.4 132.9 331.1 C 130.0 332.5 126.1 333.6 125.0 337.0 M 155.4 331.4 C 146.6 333.1 137.8 336.9 132.0 343.9 C 134.2 345.8 137.1 346.3 139.6 344.6 C 146.9 340.6 155.5 337.5 162.4 334.2 C 160.2 333.1 158.1 330.8 155.4 331.4 M 161.7 337.7 C 153.2 340.6 144.4 343.5 137.3 349.0 C 139.6 352.4 143.9 352.7 147.7 352.6 C 151.5 351.2 153.3 345.6 158.0 346.4 C 162.2 346.9 165.3 343.5 169.2 342.9 C 168.3 339.6 165.4 336.0 161.7 337.7 M 120.3 346.6 C 126.1 357.4 137.6 364.0 149.0 367.3 C 152.3 363.3 148.3 358.9 147.0 355.1 C 143.1 354.1 137.0 355.4 135.4 350.7 C 133.9 346.4 129.1 345.0 125.0 344.8 C 124.3 343.1 123.5 341.3 122.8 339.6 C 121.0 341.3 118.6 344.0 120.3 346.6 M 162.6 347.9 C 163.3 355.7 162.9 363.5 161.8 371.3 C 163.4 371.1 165.0 370.9 166.7 370.7 C 168.9 362.8 167.6 354.6 166.9 346.6 C 165.5 347.1 164.1 347.5 162.6 347.9 M 170.2 346.8 C 169.7 353.6 170.7 360.3 170.5 367.1 C 173.6 361.1 174.6 352.5 170.2 346.8 M 117.4 348.8 C 115.6 353.8 117.3 359.0 121.1 362.5 C 122.4 360.6 123.3 358.3 123.7 356.0 C 122.3 353.1 119.9 350.7 117.4 348.8 M 149.8 355.0 C 151.0 358.5 152.4 361.7 153.6 365.1 C 149.5 368.5 147.8 373.6 147.6 378.8 C 145.2 380.1 141.4 380.6 141.5 384.1 C 145.1 384.1 149.5 385.2 152.5 382.5 C 160.0 373.1 161.5 360.4 160.0 348.7 C 155.3 347.6 152.7 352.1 149.8 355.0 M 124.4 365.6 C 130.3 370.9 138.4 372.9 146.2 373.0 C 146.4 371.7 146.7 370.4 146.9 369.2 C 139.3 366.8 132.5 362.7 125.9 358.3 C 125.2 360.7 123.7 363.1 124.4 365.6 M 117.9 362.9 C 118.2 367.0 119.8 371.6 123.9 373.0 C 128.2 374.6 132.7 375.8 136.4 378.5 C 139.6 381.1 144.0 378.8 145.9 375.8 C 135.4 374.9 125.0 371.1 117.9 362.9 M 160.3 373.3 C 159.1 375.8 157.9 378.4 157.0 381.1 C 160.9 379.9 164.5 377.3 166.2 373.3 C 164.2 373.3 162.2 373.2 160.3 373.3 M 127.9 377.1 C 129.3 381.9 135.2 382.4 139.2 383.7 C 136.4 380.3 131.8 379.0 127.9 377.1 Z" />
<path fill="#3a64a3" stroke="#3a64a3" stroke-width="0.09375" opacity="1.00" d=" M 29.2 135.8 C 29.6 136.1 30.6 136.5 31.0 136.7 C 30.6 136.5 29.6 136.1 29.2 135.8 Z" />
<path fill="#fefefe" stroke="#fefefe" stroke-width="0.09375" opacity="1.00" d=" M 136.6 140.0 C 138.0 138.6 140.3 139.4 142.1 139.0 C 143.0 142.7 144.3 147.4 140.2 149.7 C 136.7 147.8 136.3 143.6 136.6 140.0 Z" />
<path fill="#fefefe" stroke="#fefefe" stroke-width="0.09375" opacity="1.00" d=" M 154.2 138.9 C 156.1 139.0 158.0 139.1 159.9 139.1 C 160.4 143.2 160.5 147.6 156.7 150.2 C 153.0 147.5 153.6 142.9 154.2 138.9 Z" />
<path fill="#fefefe" stroke="#fefefe" stroke-width="0.09375" opacity="1.00" d=" M 118.9 142.9 C 120.9 142.6 122.8 142.4 124.7 142.1 C 125.6 145.2 127.5 148.5 125.8 151.6 C 124.6 153.9 127.1 156.7 129.5 155.5 C 133.3 154.3 139.2 155.4 141.1 151.1 C 144.4 155.1 150.4 152.9 154.9 153.3 C 155.3 152.7 156.1 151.6 156.5 151.1 C 159.4 155.9 166.0 154.8 170.8 155.9 C 171.2 155.0 171.6 154.0 171.9 153.1 C 168.2 149.1 171.2 140.2 177.4 142.8 C 178.8 148.5 173.5 151.4 172.2 156.1 C 176.6 158.2 181.0 160.1 185.8 161.0 C 186.4 160.0 187.1 159.0 187.5 157.9 C 185.7 153.9 187.7 150.3 190.1 147.1 C 191.7 147.7 193.4 148.4 195.0 149.1 C 194.6 154.8 188.8 156.9 187.1 161.8 C 191.6 164.0 196.0 169.1 201.4 167.3 C 199.1 162.8 201.5 158.7 204.2 155.2 C 205.9 155.8 207.5 156.5 209.2 157.2 C 208.3 162.7 203.6 165.2 200.3 169.0 C 203.9 171.4 207.2 175.6 211.9 175.4 C 215.0 182.1 223.0 184.9 226.8 191.2 C 232.5 201.9 245.9 204.8 257.0 204.7 C 283.6 205.4 307.4 189.7 334.0 190.6 C 345.1 190.7 355.5 195.4 364.7 201.3 C 368.0 203.6 371.8 201.4 375.0 200.2 C 384.7 197.0 396.4 196.6 404.8 203.2 C 409.8 206.8 410.9 214.4 407.4 219.4 C 399.1 233.8 381.7 238.9 372.3 252.3 C 368.3 258.0 369.2 265.3 372.2 271.2 C 362.3 271.6 350.9 270.9 343.5 263.5 C 338.2 258.5 339.6 249.3 344.5 244.5 C 356.0 232.6 373.2 229.7 386.5 220.5 C 390.0 218.0 392.8 212.4 389.1 208.9 C 385.3 204.3 378.8 205.5 374.0 207.4 C 375.4 212.5 380.5 215.2 382.9 219.7 C 369.4 227.7 353.4 231.8 342.2 243.2 C 335.6 249.0 336.2 260.7 342.8 266.2 C 349.7 272.7 359.7 273.6 368.7 274.0 C 368.4 288.4 382.8 295.4 393.8 301.0 C 390.3 315.0 384.4 328.3 381.5 342.4 C 380.1 349.2 383.5 355.9 382.8 362.8 C 377.4 364.6 372.9 368.5 372.3 374.3 C 364.6 376.7 355.4 377.4 347.8 374.0 C 349.7 367.0 357.9 364.3 360.7 357.7 C 364.2 349.2 365.3 340.0 368.3 331.4 C 370.3 325.2 370.6 316.4 363.9 313.1 C 358.4 310.6 353.3 307.3 348.7 303.3 C 344.4 299.3 338.4 298.2 333.4 295.5 C 325.1 291.2 317.6 285.6 310.8 279.2 C 307.2 275.8 302.5 273.5 297.6 272.8 C 297.5 277.9 306.0 276.1 306.7 280.6 C 291.4 285.6 277.3 293.7 261.6 297.5 C 248.1 301.5 233.9 298.4 221.1 293.8 C 224.2 304.8 216.8 317.2 223.8 327.2 C 226.8 332.1 223.6 338.7 227.8 343.2 C 232.2 351.1 240.5 358.0 239.6 367.8 C 238.1 371.3 234.2 373.4 233.5 377.4 C 232.7 381.3 228.7 383.1 225.0 383.3 C 219.6 383.4 214.2 383.5 208.9 382.8 C 215.3 373.3 219.5 361.1 215.1 349.9 C 213.4 343.3 208.2 338.8 204.3 333.6 C 200.8 329.3 201.1 323.4 198.5 318.6 C 194.2 310.0 187.1 303.0 184.4 293.6 C 172.6 289.1 160.8 279.4 159.4 266.0 C 157.9 254.7 165.4 243.4 160.5 232.4 C 157.3 226.1 154.8 219.4 152.9 212.6 C 143.5 217.7 144.1 230.7 135.5 236.5 C 133.4 239.8 138.4 242.3 137.6 245.6 C 136.5 248.4 133.7 250.0 130.9 250.5 C 129.8 247.4 131.0 241.0 126.3 241.2 C 123.1 243.6 125.4 248.6 124.3 252.2 C 117.9 252.4 110.9 250.3 106.5 245.5 C 103.2 235.1 102.6 224.1 101.7 213.3 C 100.6 200.9 97.1 188.6 99.2 176.1 C 99.6 172.8 103.1 169.9 101.6 166.4 C 99.2 161.8 97.7 156.9 95.9 152.1 C 102.4 153.3 109.2 155.2 113.3 160.8 C 117.5 160.3 121.4 157.8 125.1 155.8 C 123.3 151.3 118.6 148.4 118.9 142.9 M 104.9 191.2 C 103.8 194.3 105.5 197.4 106.9 200.2 C 108.9 197.6 112.3 194.8 111.1 191.1 C 110.4 188.3 105.7 188.4 104.9 191.2 M 108.0 240.7 C 108.2 241.9 108.4 243.1 108.7 244.3 C 110.5 246.0 112.8 246.9 115.0 247.9 C 114.9 244.2 111.4 241.6 108.0 240.7 Z" />
<path fill="#fefefe" stroke="#fefefe" stroke-width="0.09375" opacity="1.00" d=" M 90.7 159.1 C 96.4 159.4 100.6 165.8 98.8 171.1 C 94.4 168.8 91.2 164.1 90.7 159.1 Z" />
<path fill="#fefefe" stroke="#fefefe" stroke-width="0.09375" opacity="1.00" d=" M 217.1 163.1 C 218.7 164.1 220.3 165.2 221.8 166.2 C 219.9 169.9 217.2 173.3 212.8 174.0 C 211.1 169.6 214.3 166.0 217.1 163.1 Z" />
<path fill="#3a64a3" stroke="#3a64a3" stroke-width="0.09375" opacity="1.00" d=" M 104.9 191.2 C 105.7 188.4 110.4 188.3 111.1 191.1 C 112.3 194.8 108.9 197.6 106.9 200.2 C 105.5 197.4 103.8 194.3 104.9 191.2 Z" />
<path fill="#3a64a3" stroke="#3a64a3" stroke-width="0.09375" opacity="1.00" d=" M 108.0 240.7 C 111.4 241.6 114.9 244.2 115.0 247.9 C 112.8 246.9 110.5 246.0 108.7 244.3 C 108.4 243.1 108.2 241.9 108.0 240.7 Z" />
<path fill="#fefefe" stroke="#fefefe" stroke-width="0.09375" opacity="1.00" d=" M 373.0 266.5 C 368.4 256.3 377.9 247.2 386.1 242.7 C 384.6 251.8 379.3 260.0 373.0 266.5 Z" />
<path fill="#fefefe" stroke="#fefefe" stroke-width="0.09375" opacity="1.00" d=" M 103.2 273.2 C 107.4 268.5 114.1 267.9 120.0 267.7 C 132.3 267.6 144.7 268.4 157.0 270.0 C 160.4 282.5 171.5 290.2 182.0 296.6 C 170.8 300.0 158.7 298.2 148.0 294.0 C 141.3 291.7 135.1 287.3 127.8 286.9 C 127.1 297.3 131.0 308.2 138.1 315.9 C 134.9 319.0 134.1 323.1 133.1 327.2 C 127.7 330.7 122.0 333.9 115.9 336.0 C 111.9 328.7 118.4 321.0 116.4 313.4 C 113.3 301.7 106.3 291.6 102.9 280.1 C 102.2 277.9 101.4 275.1 103.2 273.2 Z" />
<path fill="#fefefe" stroke="#fefefe" stroke-width="0.09375" opacity="1.00" d=" M 302.1 286.1 C 304.6 285.1 307.1 283.8 309.9 283.4 C 318.2 289.8 326.8 296.0 336.2 300.7 C 337.7 305.4 339.3 310.1 342.0 314.2 C 343.5 316.7 340.5 318.5 339.0 320.0 C 328.2 329.9 317.3 341.8 316.2 357.1 C 313.8 357.8 311.3 358.1 309.0 359.0 C 305.4 360.7 305.0 367.0 300.3 366.6 C 293.9 366.3 287.4 366.4 280.9 365.7 C 284.7 358.3 293.4 355.6 297.7 348.8 C 302.9 340.7 309.6 333.9 315.2 326.2 C 317.7 322.9 317.2 318.1 315.3 314.7 C 310.3 305.5 304.4 296.5 302.1 286.1 Z" />
<path fill="#fefefe" stroke="#fefefe" stroke-width="0.09375" opacity="1.00" d=" M 134.6 333.6 C 139.5 330.4 145.3 326.6 151.4 329.1 C 145.9 332.0 139.7 333.7 134.8 337.8 C 132.1 339.8 129.8 344.3 125.8 342.0 C 126.9 337.6 131.3 336.0 134.6 333.6 Z" />
<path fill="#fefefe" stroke="#fefefe" stroke-width="0.09375" opacity="1.00" d=" M 125.0 337.0 C 126.1 333.6 130.0 332.5 132.9 331.1 C 130.6 333.4 127.9 335.4 125.0 337.0 Z" />
<path fill="#fefefe" stroke="#fefefe" stroke-width="0.09375" opacity="1.00" d=" M 155.4 331.4 C 158.1 330.8 160.2 333.1 162.4 334.2 C 155.5 337.5 146.9 340.6 139.6 344.6 C 137.1 346.3 134.2 345.8 132.0 343.9 C 137.8 336.9 146.6 333.1 155.4 331.4 Z" />
<path fill="#fefefe" stroke="#fefefe" stroke-width="0.09375" opacity="1.00" d=" M 161.7 337.7 C 165.4 336.0 168.3 339.6 169.2 342.9 C 165.3 343.5 162.2 346.9 158.0 346.4 C 153.3 345.6 151.5 351.2 147.7 352.6 C 143.9 352.7 139.6 352.4 137.3 349.0 C 144.4 343.5 153.2 340.6 161.7 337.7 Z" />
<path fill="#fefefe" stroke="#fefefe" stroke-width="0.09375" opacity="1.00" d=" M 120.3 346.6 C 118.6 344.0 121.0 341.3 122.8 339.6 C 123.5 341.3 124.3 343.1 125.0 344.8 C 129.1 345.0 133.9 346.4 135.4 350.7 C 137.0 355.4 143.1 354.1 147.0 355.1 C 148.3 358.9 152.3 363.3 149.0 367.3 C 137.6 364.0 126.1 357.4 120.3 346.6 Z" />
<path fill="#fefefe" stroke="#fefefe" stroke-width="0.09375" opacity="1.00" d=" M 162.6 347.9 C 164.1 347.5 165.5 347.1 166.9 346.6 C 167.6 354.6 168.9 362.8 166.7 370.7 C 165.0 370.9 163.4 371.1 161.8 371.3 C 162.9 363.5 163.3 355.7 162.6 347.9 Z" />
<path fill="#fefefe" stroke="#fefefe" stroke-width="0.09375" opacity="1.00" d=" M 170.2 346.8 C 174.6 352.5 173.6 361.1 170.5 367.1 C 170.7 360.3 169.7 353.6 170.2 346.8 Z" />
<path fill="#fefefe" stroke="#fefefe" stroke-width="0.09375" opacity="1.00" d=" M 117.4 348.8 C 119.9 350.7 122.3 353.1 123.7 356.0 C 123.3 358.3 122.4 360.6 121.1 362.5 C 117.3 359.0 115.6 353.8 117.4 348.8 Z" />
<path fill="#fefefe" stroke="#fefefe" stroke-width="0.09375" opacity="1.00" d=" M 149.8 355.0 C 152.7 352.1 155.3 347.6 160.0 348.7 C 161.5 360.4 160.0 373.1 152.5 382.5 C 149.5 385.2 145.1 384.1 141.5 384.1 C 141.4 380.6 145.2 380.1 147.6 378.8 C 147.8 373.6 149.5 368.5 153.6 365.1 C 152.4 361.7 151.0 358.5 149.8 355.0 Z" />
<path fill="#fefefe" stroke="#fefefe" stroke-width="0.09375" opacity="1.00" d=" M 124.4 365.6 C 123.7 363.1 125.2 360.7 125.9 358.3 C 132.5 362.7 139.3 366.8 146.9 369.2 C 146.7 370.4 146.4 371.7 146.2 373.0 C 138.4 372.9 130.3 370.9 124.4 365.6 Z" />
<path fill="#fefefe" stroke="#fefefe" stroke-width="0.09375" opacity="1.00" d=" M 117.9 362.9 C 125.0 371.1 135.4 374.9 145.9 375.8 C 144.0 378.8 139.6 381.1 136.4 378.5 C 132.7 375.8 128.2 374.6 123.9 373.0 C 119.8 371.6 118.2 367.0 117.9 362.9 Z" />
<path fill="#3a64a3" stroke="#3a64a3" stroke-width="0.09375" opacity="1.00" d=" M 46.4 363.7 C 47.0 373.4 46.5 383.2 46.6 393.0 C 46.5 438.9 47.0 484.9 46.4 530.8 L 46.5 531.5 C 46.0 475.6 46.2 419.6 46.4 363.7 Z" />
<path fill="#fefefe" stroke="#fefefe" stroke-width="0.09375" opacity="1.00" d=" M 160.3 373.3 C 162.2 373.2 164.2 373.3 166.2 373.3 C 164.5 377.3 160.9 379.9 157.0 381.1 C 157.9 378.4 159.1 375.8 160.3 373.3 Z" />
<path fill="#fefefe" stroke="#fefefe" stroke-width="0.09375" opacity="1.00" d=" M 127.9 377.1 C 131.8 379.0 136.4 380.3 139.2 383.7 C 135.2 382.4 129.3 381.9 127.9 377.1 Z" />
<path fill="#fefefe" stroke="#fefefe" stroke-width="0.09375" opacity="1.00" d=" M 79.6 401.8 L 79.8 402.5 C 80.0 404.0 80.1 405.6 80.4 407.1 C 90.5 407.1 101.0 407.3 110.4 411.6 C 115.4 413.9 120.1 417.9 126.0 417.3 C 136.3 416.5 145.1 410.0 155.2 408.4 C 168.0 406.2 181.0 408.9 193.2 412.8 C 198.0 414.3 202.7 416.8 208.0 416.7 C 217.2 417.3 225.7 413.0 234.4 410.5 C 243.3 407.6 253.1 406.5 262.2 408.8 C 273.5 411.3 284.2 417.2 296.0 416.7 C 302.4 416.8 307.9 413.4 313.9 411.9 C 322.4 409.5 331.1 407.5 340.0 407.6 C 351.4 407.8 361.7 413.4 372.5 416.5 C 378.9 418.5 385.6 416.2 391.3 413.2 C 400.8 408.3 411.6 407.1 422.2 407.2 C 422.3 405.6 422.4 404.0 422.5 402.4 L 422.5 401.7 C 423.3 414.4 422.7 427.2 422.9 439.9 C 414.7 439.2 406.4 440.1 398.7 442.7 C 392.4 444.8 387.0 449.8 380.0 449.5 C 365.1 450.4 352.9 438.7 338.0 439.6 C 324.7 440.0 312.6 446.0 299.8 448.8 C 280.7 451.9 263.7 436.3 244.5 440.5 C 229.3 444.0 213.6 453.0 197.7 447.3 C 182.0 440.9 163.5 435.8 147.3 443.3 C 138.1 448.0 127.4 450.3 117.2 447.9 C 111.9 446.7 107.6 443.0 102.4 441.5 C 95.2 439.4 87.6 439.4 80.2 439.8 C 80.1 445.0 80.7 450.3 79.8 455.5 L 79.8 456.3 C 79.3 438.2 79.6 419.9 79.6 401.8 M 80.2 418.0 C 80.2 421.5 80.2 425.1 80.2 428.7 C 86.4 428.6 92.7 428.9 98.8 429.4 C 108.5 430.2 116.1 438.4 126.0 438.1 C 136.5 437.7 145.4 431.3 155.6 429.6 C 168.2 427.2 180.9 430.4 192.9 434.2 C 197.9 435.6 202.7 438.0 207.9 438.1 C 223.3 438.6 236.7 428.5 252.0 429.1 C 264.3 429.1 275.6 434.6 287.3 437.6 C 297.7 440.1 307.7 435.6 317.3 432.3 C 325.8 429.3 334.9 428.6 343.8 429.4 C 354.2 430.7 363.8 435.3 373.9 438.1 C 379.6 439.8 385.6 437.4 390.7 434.7 C 400.3 429.4 411.5 428.8 422.2 428.8 C 422.4 425.4 422.4 422.1 422.3 418.7 C 413.9 418.5 404.8 417.9 397.3 422.2 C 391.6 425.3 385.5 428.0 379.0 428.2 C 370.4 428.2 362.4 424.6 354.6 421.4 C 342.3 416.7 328.7 418.7 316.4 422.4 C 309.6 424.2 303.3 428.1 296.1 427.8 C 280.0 428.6 266.1 417.6 250.1 418.6 C 238.4 419.2 228.0 425.3 216.6 427.4 C 201.2 429.6 187.3 421.1 172.6 418.5 C 158.8 416.7 145.8 422.7 133.1 427.2 C 125.2 429.1 116.7 427.2 109.6 423.4 C 100.7 418.5 90.2 417.4 80.2 418.0 Z" />
<path fill="#3a64a3" stroke="#3a64a3" stroke-width="0.09375" opacity="1.00" d=" M 79.8 402.5 C 194.0 402.1 308.2 402.2 422.5 402.4 C 422.4 404.0 422.3 405.6 422.2 407.2 C 411.6 407.1 400.8 408.3 391.3 413.2 C 385.6 416.2 378.9 418.5 372.5 416.5 C 361.7 413.4 351.4 407.8 340.0 407.6 C 331.1 407.5 322.4 409.5 313.9 411.9 C 307.9 413.4 302.4 416.8 296.0 416.7 C 284.2 417.2 273.5 411.3 262.2 408.8 C 253.1 406.5 243.3 407.6 234.4 410.5 C 225.7 413.0 217.2 417.3 208.0 416.7 C 202.7 416.8 198.0 414.3 193.2 412.8 C 181.0 408.9 168.0 406.2 155.2 408.4 C 145.1 410.0 136.3 416.5 126.0 417.3 C 120.1 417.9 115.4 413.9 110.4 411.6 C 101.0 407.3 90.5 407.1 80.4 407.1 C 80.1 405.6 80.0 404.0 79.8 402.5 Z" />
<path fill="#3a64a3" stroke="#3a64a3" stroke-width="0.09375" opacity="1.00" d=" M 80.2 418.0 C 90.2 417.4 100.7 418.5 109.6 423.4 C 116.7 427.2 125.2 429.1 133.1 427.2 C 145.8 422.7 158.8 416.7 172.6 418.5 C 187.3 421.1 201.2 429.6 216.6 427.4 C 228.0 425.3 238.4 419.2 250.1 418.6 C 266.1 417.6 280.0 428.6 296.1 427.8 C 303.3 428.1 309.6 424.2 316.4 422.4 C 328.7 418.7 342.3 416.7 354.6 421.4 C 362.4 424.6 370.4 428.2 379.0 428.2 C 385.5 428.0 391.6 425.3 397.3 422.2 C 404.8 417.9 413.9 418.5 422.3 418.7 C 422.4 422.1 422.4 425.4 422.2 428.8 C 411.5 428.8 400.3 429.4 390.7 434.7 C 385.6 437.4 379.6 439.8 373.9 438.1 C 363.8 435.3 354.2 430.7 343.8 429.4 C 334.9 428.6 325.8 429.3 317.3 432.3 C 307.7 435.6 297.7 440.1 287.3 437.6 C 275.6 434.6 264.3 429.1 252.0 429.1 C 236.7 428.5 223.3 438.6 207.9 438.1 C 202.7 438.0 197.9 435.6 192.9 434.2 C 180.9 430.4 168.2 427.2 155.6 429.6 C 145.4 431.3 136.5 437.7 126.0 438.1 C 116.1 438.4 108.5 430.2 98.8 429.4 C 92.7 428.9 86.4 428.6 80.2 428.7 C 80.2 425.1 80.2 421.5 80.2 418.0 Z" />
<path fill="#3a64a3" stroke="#3a64a3" stroke-width="0.09375" opacity="1.00" d=" M 80.2 439.8 C 87.6 439.4 95.2 439.4 102.4 441.5 C 107.6 443.0 111.9 446.7 117.2 447.9 C 127.4 450.3 138.1 448.0 147.3 443.3 C 163.5 435.8 182.0 440.9 197.7 447.3 C 213.6 453.0 229.3 444.0 244.5 440.5 C 263.7 436.3 280.7 451.9 299.8 448.8 C 312.6 446.0 324.7 440.0 338.0 439.6 C 352.9 438.7 365.1 450.4 380.0 449.5 C 387.0 449.8 392.4 444.8 398.7 442.7 C 406.4 440.1 414.7 439.2 422.9 439.9 C 422.6 445.2 422.7 450.5 422.7 455.7 C 308.4 455.5 194.1 455.9 79.8 455.5 C 80.7 450.3 80.1 445.0 80.2 439.8 Z" />
<path fill="#fefefe" stroke="#fefefe" stroke-width="0.09375" opacity="1.00" d=" M 80.2 468.0 C 194.2 467.7 308.2 467.8 422.2 467.9 C 422.4 484.9 422.5 501.9 422.2 518.9 C 308.2 518.8 194.2 519.0 80.2 518.8 C 80.3 501.9 80.3 484.9 80.2 468.0 M 87.9 473.8 C 87.8 487.0 87.7 500.1 87.9 513.2 C 197.0 513.4 306.1 513.4 415.2 513.2 C 415.4 500.1 415.4 486.9 415.2 473.8 C 306.1 473.6 197.0 473.6 87.9 473.8 Z" />
<path fill="#3a64a3" stroke="#3a64a3" stroke-width="0.09375" opacity="1.00" d=" M 87.9 473.8 C 197.0 473.6 306.1 473.6 415.2 473.8 C 415.4 486.9 415.4 500.1 415.2 513.2 C 306.1 513.4 197.0 513.4 87.9 513.2 C 87.7 500.1 87.8 487.0 87.9 473.8 M 102.9 483.1 C 102.7 489.8 102.7 496.5 102.9 503.2 C 104.8 503.2 106.8 503.2 108.8 503.1 C 108.7 500.4 108.8 497.8 108.8 495.1 C 112.1 495.2 115.5 495.1 118.8 494.9 C 118.8 493.7 118.8 492.4 118.8 491.2 C 115.4 491.1 112.1 491.1 108.8 491.0 C 108.8 489.7 108.9 488.4 108.9 487.2 C 112.2 487.2 115.5 487.2 118.8 487.0 C 118.8 485.7 118.8 484.4 118.8 483.2 C 113.5 483.0 108.2 483.1 102.9 483.1 M 130.4 483.5 C 124.9 484.8 120.5 490.7 122.7 496.4 C 126.5 504.6 138.6 505.5 145.2 500.2 C 149.0 497.5 150.1 491.6 147.0 488.0 C 143.3 482.9 136.1 481.8 130.4 483.5 M 160.3 483.4 C 155.2 484.5 150.6 489.5 151.8 495.0 C 154.9 506.8 176.2 506.3 178.2 494.0 C 178.7 485.0 167.6 481.0 160.3 483.4 M 179.1 483.1 C 179.1 484.3 179.1 485.6 179.1 486.9 C 181.8 486.9 184.5 486.9 187.2 487.0 C 187.4 492.3 187.4 497.7 187.3 503.0 C 189.3 503.1 191.3 503.2 193.3 503.3 C 193.5 497.9 193.5 492.5 193.3 487.2 C 196.1 487.0 198.9 486.8 201.7 486.8 C 201.7 485.6 201.8 484.4 201.8 483.2 C 194.2 483.0 186.6 483.1 179.1 483.1 M 205.0 483.1 C 204.9 489.8 204.9 496.5 205.0 503.2 C 210.6 503.0 216.7 504.3 222.0 502.0 C 226.0 499.7 224.7 493.9 221.0 492.0 C 223.3 489.7 223.3 485.6 220.0 484.0 C 215.3 482.2 210.0 483.4 205.0 483.1 M 235.2 483.2 C 232.2 489.8 229.0 496.4 226.0 503.1 C 228.1 503.2 230.1 503.2 232.2 503.3 C 232.8 501.9 233.4 500.6 234.1 499.3 C 237.3 499.3 240.6 499.3 243.9 499.3 C 244.6 500.5 245.3 501.8 246.2 503.0 C 248.2 503.5 250.2 503.1 252.2 503.1 C 249.1 496.2 245.4 489.8 242.1 483.1 C 239.8 483.1 237.5 483.1 235.2 483.2 M 254.9 483.0 C 254.7 489.8 254.8 496.5 254.9 503.2 C 260.8 503.2 266.8 503.6 272.7 502.9 C 272.7 501.7 272.7 500.5 272.7 499.3 C 268.7 499.4 264.8 499.4 260.9 499.2 C 260.7 493.9 260.7 488.5 260.8 483.1 C 258.8 483.1 256.9 483.1 254.9 483.0 M 275.7 483.1 C 275.5 489.8 275.5 496.5 275.7 503.2 C 281.6 503.3 287.4 503.4 293.3 503.1 C 293.1 501.8 293.0 500.5 293.0 499.2 C 289.1 499.4 285.2 499.4 281.3 499.1 C 281.4 493.7 281.4 488.4 281.3 483.1 C 279.4 483.1 277.6 483.1 275.7 483.1 M 307.1 487.1 C 303.2 490.8 304.1 497.7 308.4 500.7 C 313.8 504.6 321.1 503.7 327.1 501.9 C 327.0 500.2 327.2 498.6 327.2 497.0 C 322.8 498.6 317.6 500.5 313.4 497.7 C 310.4 496.1 309.9 491.6 312.5 489.5 C 316.4 485.7 322.5 487.3 326.9 489.1 C 326.9 487.4 326.8 485.8 326.8 484.1 C 320.3 482.2 312.1 481.7 307.1 487.1 M 331.7 483.0 C 331.5 489.7 331.5 496.4 331.7 503.2 C 337.6 503.3 343.5 503.4 349.4 503.1 C 349.2 501.8 349.1 500.5 349.1 499.3 C 345.3 499.4 341.5 499.4 337.7 499.2 C 337.6 493.9 337.6 488.5 337.7 483.2 C 335.7 483.1 333.7 483.1 331.7 483.0 M 352.1 483.1 C 352.3 488.3 351.1 494.0 353.1 499.0 C 357.8 505.2 369.2 505.1 374.2 499.2 C 376.3 494.2 375.1 488.4 375.2 483.0 C 373.2 483.1 371.2 483.1 369.2 483.2 C 369.2 487.4 369.7 491.7 369.0 495.9 C 367.6 500.6 359.6 500.4 358.4 495.7 C 357.8 491.5 358.2 487.3 358.0 483.1 C 356.0 483.1 354.0 483.1 352.1 483.1 M 380.1 483.1 C 380.0 489.8 380.1 496.5 380.1 503.2 C 385.7 503.0 391.7 504.3 397.0 502.0 C 401.0 499.7 399.8 493.9 396.0 492.1 C 397.7 490.0 398.9 486.6 396.2 484.8 C 391.5 481.6 385.4 483.6 380.1 483.1 Z" />
<path fill="#fefefe" stroke="#fefefe" stroke-width="0.09375" opacity="1.00" d=" M 102.9 483.1 C 108.2 483.1 113.5 483.0 118.8 483.2 C 118.8 484.4 118.8 485.7 118.8 487.0 C 115.5 487.2 112.2 487.2 108.9 487.2 C 108.9 488.4 108.8 489.7 108.8 491.0 C 112.1 491.1 115.4 491.1 118.8 491.2 C 118.8 492.4 118.8 493.7 118.8 494.9 C 115.5 495.1 112.1 495.2 108.8 495.1 C 108.8 497.8 108.7 500.4 108.8 503.1 C 106.8 503.2 104.8 503.2 102.9 503.2 C 102.7 496.5 102.7 489.8 102.9 483.1 Z" />
<path fill="#fefefe" stroke="#fefefe" stroke-width="0.09375" opacity="1.00" d=" M 130.4 483.5 C 136.1 481.8 143.3 482.9 147.0 488.0 C 150.1 491.6 149.0 497.5 145.2 500.2 C 138.6 505.5 126.5 504.6 122.7 496.4 C 120.5 490.7 124.9 484.8 130.4 483.5 M 133.4 487.4 C 129.8 487.9 127.3 491.9 128.6 495.3 C 131.2 501.2 141.7 500.3 142.6 493.7 C 143.1 488.9 137.5 486.3 133.4 487.4 Z" />
<path fill="#fefefe" stroke="#fefefe" stroke-width="0.09375" opacity="1.00" d=" M 160.3 483.4 C 167.6 481.0 178.7 485.0 178.2 494.0 C 176.2 506.3 154.9 506.8 151.8 495.0 C 150.6 489.5 155.2 484.5 160.3 483.4 M 162.4 487.5 C 158.9 488.2 156.7 492.4 158.3 495.7 C 161.0 501.5 172.3 499.9 172.0 493.0 C 172.0 488.3 166.3 486.3 162.4 487.5 Z" />
<path fill="#fefefe" stroke="#fefefe" stroke-width="0.09375" opacity="1.00" d=" M 179.1 483.1 C 186.6 483.1 194.2 483.0 201.8 483.2 C 201.8 484.4 201.7 485.6 201.7 486.8 C 198.9 486.8 196.1 487.0 193.3 487.2 C 193.5 492.5 193.5 497.9 193.3 503.3 C 191.3 503.2 189.3 503.1 187.3 503.0 C 187.4 497.7 187.4 492.3 187.2 487.0 C 184.5 486.9 181.8 486.9 179.1 486.9 C 179.1 485.6 179.1 484.3 179.1 483.1 Z" />
<path fill="#fefefe" stroke="#fefefe" stroke-width="0.09375" opacity="1.00" d=" M 205.0 483.1 C 210.0 483.4 215.3 482.2 220.0 484.0 C 223.3 485.6 223.3 489.7 221.0 492.0 C 224.7 493.9 226.0 499.7 222.0 502.0 C 216.7 504.3 210.6 503.0 205.0 503.2 C 204.9 496.5 204.9 489.8 205.0 483.1 M 211.0 486.7 C 211.0 488.1 211.0 489.6 211.1 491.0 C 213.0 490.7 217.3 491.5 216.8 488.3 C 215.5 486.3 212.9 487.0 211.0 486.7 M 211.0 494.7 C 211.0 496.2 211.0 497.8 211.0 499.3 C 213.4 499.3 215.7 499.2 218.1 498.9 C 218.0 497.7 218.0 496.5 218.1 495.2 C 215.7 495.0 213.3 494.8 211.0 494.7 Z" />
<path fill="#fefefe" stroke="#fefefe" stroke-width="0.09375" opacity="1.00" d=" M 235.2 483.2 C 237.5 483.1 239.8 483.1 242.1 483.1 C 245.4 489.8 249.1 496.2 252.2 503.1 C 250.2 503.1 248.2 503.5 246.2 503.0 C 245.3 501.8 244.6 500.5 243.9 499.3 C 240.6 499.3 237.3 499.3 234.1 499.3 C 233.4 500.6 232.8 501.9 232.2 503.3 C 230.1 503.2 228.1 503.2 226.0 503.1 C 229.0 496.4 232.2 489.8 235.2 483.2 M 236.0 495.6 C 238.0 495.6 240.0 495.6 242.0 495.6 C 241.2 493.2 240.1 490.9 238.8 488.8 C 237.5 490.9 236.5 493.2 236.0 495.6 Z" />
<path fill="#fefefe" stroke="#fefefe" stroke-width="0.09375" opacity="1.00" d=" M 254.9 483.0 C 256.9 483.1 258.8 483.1 260.8 483.1 C 260.7 488.5 260.7 493.9 260.9 499.2 C 264.8 499.4 268.7 499.4 272.7 499.3 C 272.7 500.5 272.7 501.7 272.7 502.9 C 266.8 503.6 260.8 503.2 254.9 503.2 C 254.8 496.5 254.7 489.8 254.9 483.0 Z" />
<path fill="#fefefe" stroke="#fefefe" stroke-width="0.09375" opacity="1.00" d=" M 275.7 483.1 C 277.6 483.1 279.4 483.1 281.3 483.1 C 281.4 488.4 281.4 493.7 281.3 499.1 C 285.2 499.4 289.1 499.4 293.0 499.2 C 293.0 500.5 293.1 501.8 293.3 503.1 C 287.4 503.4 281.6 503.3 275.7 503.2 C 275.5 496.5 275.5 489.8 275.7 483.1 Z" />
<path fill="#fefefe" stroke="#fefefe" stroke-width="0.09375" opacity="1.00" d=" M 307.1 487.1 C 312.1 481.7 320.3 482.2 326.8 484.1 C 326.8 485.8 326.9 487.4 326.9 489.1 C 322.5 487.3 316.4 485.7 312.5 489.5 C 309.9 491.6 310.4 496.1 313.4 497.7 C 317.6 500.5 322.8 498.6 327.2 497.0 C 327.2 498.6 327.0 500.2 327.1 501.9 C 321.1 503.7 313.8 504.6 308.4 500.7 C 304.1 497.7 303.2 490.8 307.1 487.1 Z" />
<path fill="#fefefe" stroke="#fefefe" stroke-width="0.09375" opacity="1.00" d=" M 331.7 483.0 C 333.7 483.1 335.7 483.1 337.7 483.2 C 337.6 488.5 337.6 493.9 337.7 499.2 C 341.5 499.4 345.3 499.4 349.1 499.3 C 349.1 500.5 349.2 501.8 349.4 503.1 C 343.5 503.4 337.6 503.3 331.7 503.2 C 331.5 496.4 331.5 489.7 331.7 483.0 Z" />
<path fill="#fefefe" stroke="#fefefe" stroke-width="0.09375" opacity="1.00" d=" M 352.1 483.1 C 354.0 483.1 356.0 483.1 358.0 483.1 C 358.2 487.3 357.8 491.5 358.4 495.7 C 359.6 500.4 367.6 500.6 369.0 495.9 C 369.7 491.7 369.2 487.4 369.2 483.2 C 371.2 483.1 373.2 483.1 375.2 483.0 C 375.1 488.4 376.3 494.2 374.2 499.2 C 369.2 505.1 357.8 505.2 353.1 499.0 C 351.1 494.0 352.3 488.3 352.1 483.1 Z" />
<path fill="#fefefe" stroke="#fefefe" stroke-width="0.09375" opacity="1.00" d=" M 380.1 483.1 C 385.4 483.6 391.5 481.6 396.2 484.8 C 398.9 486.6 397.7 490.0 396.0 492.1 C 399.8 493.9 401.0 499.7 397.0 502.0 C 391.7 504.3 385.7 503.0 380.1 503.2 C 380.1 496.5 380.0 489.8 380.1 483.1 M 386.0 486.7 C 386.1 488.1 386.1 489.6 386.1 491.0 C 388.1 490.7 392.2 491.5 391.8 488.3 C 390.6 486.3 388.0 487.0 386.0 486.7 M 386.0 494.7 C 386.0 496.3 386.0 497.8 386.1 499.3 C 388.4 499.3 390.8 499.2 393.1 498.9 C 393.0 497.7 393.0 496.4 393.1 495.2 C 390.7 495.0 388.4 494.8 386.0 494.7 Z" />
<path fill="#3a64a3" stroke="#3a64a3" stroke-width="0.09375" opacity="1.00" d=" M 133.4 487.4 C 137.5 486.3 143.1 488.9 142.6 493.7 C 141.7 500.3 131.2 501.2 128.6 495.3 C 127.3 491.9 129.8 487.9 133.4 487.4 Z" />
<path fill="#3a64a3" stroke="#3a64a3" stroke-width="0.09375" opacity="1.00" d=" M 162.4 487.5 C 166.3 486.3 172.0 488.3 172.0 493.0 C 172.3 499.9 161.0 501.5 158.3 495.7 C 156.7 492.4 158.9 488.2 162.4 487.5 Z" />
<path fill="#3a64a3" stroke="#3a64a3" stroke-width="0.09375" opacity="1.00" d=" M 211.0 486.7 C 212.9 487.0 215.5 486.3 216.8 488.3 C 217.3 491.5 213.0 490.7 211.1 491.0 C 211.0 489.6 211.0 488.1 211.0 486.7 Z" />
<path fill="#3a64a3" stroke="#3a64a3" stroke-width="0.09375" opacity="1.00" d=" M 386.0 486.7 C 388.0 487.0 390.6 486.3 391.8 488.3 C 392.2 491.5 388.1 490.7 386.1 491.0 C 386.1 489.6 386.1 488.1 386.0 486.7 Z" />
<path fill="#3a64a3" stroke="#3a64a3" stroke-width="0.09375" opacity="1.00" d=" M 236.0 495.6 C 236.5 493.2 237.5 490.9 238.8 488.8 C 240.1 490.9 241.2 493.2 242.0 495.6 C 240.0 495.6 238.0 495.6 236.0 495.6 Z" />
<path fill="#3a64a3" stroke="#3a64a3" stroke-width="0.09375" opacity="1.00" d=" M 211.0 494.7 C 213.3 494.8 215.7 495.0 218.1 495.2 C 218.0 496.5 218.0 497.7 218.1 498.9 C 215.7 499.2 213.4 499.3 211.0 499.3 C 211.0 497.8 211.0 496.2 211.0 494.7 Z" />
<path fill="#3a64a3" stroke="#3a64a3" stroke-width="0.09375" opacity="1.00" d=" M 386.0 494.7 C 388.4 494.8 390.7 495.0 393.1 495.2 C 393.0 496.4 393.0 497.7 393.1 498.9 C 390.8 499.2 388.4 499.3 386.1 499.3 C 386.0 497.8 386.0 496.3 386.0 494.7 Z" />
<path fill="#3a64a3" stroke="#3a64a3" stroke-width="0.09375" opacity="1.00" d=" M 117.9 531.4 C 207.3 531.2 296.7 531.2 386.1 531.4 C 343.2 550.0 299.7 567.4 256.6 585.6 C 254.0 586.6 251.1 588.6 248.3 586.8 C 204.9 568.2 161.1 550.4 117.9 531.4 Z" />
<path fill="#3a64a3" stroke="#3a64a3" stroke-width="0.09375" opacity="1.00" d=" M 49.2 531.8 C 49.7 532.1 50.6 532.6 51.0 532.8 C 50.6 532.6 49.7 532.1 49.2 531.8 Z" />
<path fill="#3a64a3" stroke="#3a64a3" stroke-width="0.09375" opacity="1.00" d=" M 443.0 536.8 C 443.4 536.6 444.3 536.1 444.8 535.8 C 444.3 536.1 443.4 536.6 443.0 536.8 Z" />
<path fill="#3a64a3" stroke="#3a64a3" stroke-width="0.09375" opacity="1.00" d=" M 65.2 538.8 C 65.7 539.1 66.5 539.6 67.0 539.8 C 66.5 539.6 65.7 539.1 65.2 538.8 Z" />
<path fill="#3a64a3" stroke="#3a64a3" stroke-width="0.09375" opacity="1.00" d=" M 436.0 539.8 C 436.5 539.6 437.4 539.1 437.8 538.8 C 437.4 539.1 436.5 539.6 436.0 539.8 Z" />
<path fill="#3a64a3" stroke="#3a64a3" stroke-width="0.09375" opacity="1.00" d=" M 429.0 542.8 C 429.5 542.6 430.4 542.1 430.8 541.9 C 430.4 542.1 429.5 542.6 429.0 542.8 Z" />
<path fill="#3a64a3" stroke="#3a64a3" stroke-width="0.09375" opacity="1.00" d=" M 413.0 549.8 C 413.4 549.6 414.3 549.1 414.8 548.8 C 414.3 549.1 413.4 549.6 413.0 549.8 Z" />
<path fill="#3a64a3" stroke="#3a64a3" stroke-width="0.09375" opacity="1.00" d=" M 406.0 552.8 C 406.5 552.6 407.4 552.1 407.8 551.8 C 407.4 552.1 406.5 552.6 406.0 552.8 Z" />
<path fill="#3a64a3" stroke="#3a64a3" stroke-width="0.09375" opacity="1.00" d=" M 399.0 555.8 C 399.5 555.6 400.4 555.1 400.8 554.9 C 400.4 555.1 399.5 555.6 399.0 555.8 Z" />
<path fill="#3a64a3" stroke="#3a64a3" stroke-width="0.09375" opacity="1.00" d=" M 104.2 555.8 C 104.7 556.1 105.6 556.6 106.0 556.8 C 105.6 556.6 104.7 556.1 104.2 555.8 Z" />
<path fill="#3a64a3" stroke="#3a64a3" stroke-width="0.09375" opacity="1.00" d=" M 111.2 558.9 C 111.6 559.1 112.5 559.6 113.0 559.8 C 112.5 559.6 111.6 559.1 111.2 558.9 Z" />
<path fill="#3a64a3" stroke="#3a64a3" stroke-width="0.09375" opacity="1.00" d=" M 383.0 562.8 C 383.4 562.6 384.3 562.1 384.8 561.8 C 384.3 562.1 383.4 562.6 383.0 562.8 Z" />
<path fill="#3a64a3" stroke="#3a64a3" stroke-width="0.09375" opacity="1.00" d=" M 376.0 565.8 C 376.5 565.5 377.4 565.1 377.8 564.8 C 377.4 565.1 376.5 565.5 376.0 565.8 Z" />
<path fill="#3a64a3" stroke="#3a64a3" stroke-width="0.09375" opacity="1.00" d=" M 127.2 565.8 C 127.7 566.1 128.5 566.6 129.0 566.8 C 128.5 566.6 127.7 566.1 127.2 565.8 Z" />
<path fill="#3a64a3" stroke="#3a64a3" stroke-width="0.09375" opacity="1.00" d=" M 134.2 568.8 C 134.6 569.1 135.5 569.6 136.0 569.8 C 135.5 569.6 134.6 569.1 134.2 568.8 Z" />
<path fill="#3a64a3" stroke="#3a64a3" stroke-width="0.09375" opacity="1.00" d=" M 143.2 572.8 C 143.7 573.0 144.6 573.5 145.0 573.8 C 144.6 573.5 143.7 573.0 143.2 572.8 Z" />
<path fill="#3a64a3" stroke="#3a64a3" stroke-width="0.09375" opacity="1.00" d=" M 323.0 588.8 C 323.4 588.6 324.3 588.1 324.8 587.8 C 324.3 588.1 323.4 588.6 323.0 588.8 Z" />
<path fill="#3a64a3" stroke="#3a64a3" stroke-width="0.09375" opacity="1.00" d=" M 182.2 589.8 C 182.7 590.1 183.6 590.6 184.0 590.8 C 183.6 590.6 182.7 590.1 182.2 589.8 Z" />
<path fill="#3a64a3" stroke="#3a64a3" stroke-width="0.09375" opacity="1.00" d=" M 316.0 591.8 C 316.5 591.6 317.4 591.1 317.8 590.8 C 317.4 591.1 316.5 591.6 316.0 591.8 Z" />
<path fill="#3a64a3" stroke="#3a64a3" stroke-width="0.09375" opacity="1.00" d=" M 189.2 592.8 C 189.6 593.1 190.5 593.6 191.0 593.8 C 190.5 593.6 189.6 593.1 189.2 592.8 Z" />
<path fill="#3a64a3" stroke="#3a64a3" stroke-width="0.09375" opacity="1.00" d=" M 309.0 594.8 C 309.5 594.6 310.4 594.1 310.8 593.9 C 310.4 594.1 309.5 594.6 309.0 594.8 Z" />
<path fill="#3a64a3" stroke="#3a64a3" stroke-width="0.09375" opacity="1.00" d=" M 300.0 598.8 C 300.4 598.6 301.3 598.1 301.8 597.8 C 301.3 598.1 300.4 598.6 300.0 598.8 Z" />
<path fill="#3a64a3" stroke="#3a64a3" stroke-width="0.09375" opacity="1.00" d=" M 205.2 599.8 C 205.7 600.1 206.6 600.6 207.0 600.8 C 206.6 600.6 205.7 600.1 205.2 599.8 Z" />
<path fill="#3a64a3" stroke="#3a64a3" stroke-width="0.09375" opacity="1.00" d=" M 293.0 601.8 C 293.4 601.6 294.3 601.1 294.8 600.8 C 294.3 601.1 293.4 601.6 293.0 601.8 Z" />
<path fill="#3a64a3" stroke="#3a64a3" stroke-width="0.09375" opacity="1.00" d=" M 279.0 607.8 C 279.5 607.6 280.4 607.1 280.8 606.9 C 280.4 607.1 279.5 607.6 279.0 607.8 Z" />
<path fill="#3a64a3" stroke="#3a64a3" stroke-width="0.09375" opacity="1.00" d=" M 228.2 609.8 C 228.6 610.1 229.5 610.6 230.0 610.8 C 229.5 610.6 228.6 610.1 228.2 609.8 Z" />
<path fill="#3a64a3" stroke="#3a64a3" stroke-width="0.09375" opacity="1.00" d=" M 270.0 611.8 C 270.5 611.6 271.3 611.1 271.8 610.8 C 271.3 611.1 270.5 611.6 270.0 611.8 Z" />
<path fill="#3a64a3" stroke="#3a64a3" stroke-width="0.09375" opacity="1.00" d=" M 235.2 612.9 C 235.6 613.1 236.5 613.6 237.0 613.8 C 236.5 613.6 235.6 613.1 235.2 612.9 Z" />
<path fill="#3a64a3" stroke="#3a64a3" stroke-width="0.09375" opacity="1.00" d=" M 263.0 614.8 C 263.4 614.6 264.3 614.1 264.8 613.8 C 264.3 614.1 263.4 614.6 263.0 614.8 Z" />
</svg>
