<?xml version="1.0" encoding="utf-8"?>
<!-- Generator: Adobe Illustrator 19.2.1, SVG Export Plug-In . SVG Version: 6.00 Build 0)  -->
<svg version="1.1"
	 xmlns="http://www.w3.org/2000/svg" xmlns:xlink="http://www.w3.org/1999/xlink" x="0px" y="0px" width="193.1px" height="201.4px"
	 viewBox="0 0 193.1 201.4" style="enable-background:new 0 0 193.1 201.4;" xml:space="preserve">
<style type="text/css">
	.st0{fill:#FFFFFF;}
	.st1{fill:none;stroke:#BCBEC0;stroke-width:2;stroke-miterlimit:3.8637;}
	.st2{clip-path:url(#SVGID_2_);}
	.st3{fill:#942923;}
	.st4{fill:url(#SVGID_3_);}
	.st5{fill-rule:evenodd;clip-rule:evenodd;fill:url(#SVGID_4_);}
	.st6{fill:none;stroke:#000000;stroke-width:1.701;stroke-miterlimit:3.8637;}
	.st7{fill-rule:evenodd;clip-rule:evenodd;fill:#FFFFFF;stroke:#000000;}
	.st8{fill-rule:evenodd;clip-rule:evenodd;fill:#FFFFFF;stroke:#000000;stroke-miterlimit:3.8637;}
	.st9{fill-rule:evenodd;clip-rule:evenodd;fill:none;stroke:#000000;stroke-width:0;stroke-miterlimit:3.8637;}
	.st10{fill-rule:evenodd;clip-rule:evenodd;fill:none;stroke:#000000;stroke-miterlimit:3.8637;}
	.st11{fill-rule:evenodd;clip-rule:evenodd;fill:#FFFFFF;}
	.st12{clip-path:url(#SVGID_7_);}
	.st13{clip-path:url(#SVGID_8_);fill:url(#SVGID_9_);stroke:#000000;}
	.st14{clip-path:url(#SVGID_11_);fill:url(#SVGID_12_);stroke:#000000;}
	.st15{fill-rule:evenodd;clip-rule:evenodd;fill:#BCBEC0;}
	.st16{fill-rule:evenodd;clip-rule:evenodd;fill:#E11B22;stroke:#942923;stroke-width:0.5;stroke-miterlimit:3.8637;}
	.st17{clip-path:url(#SVGID_14_);}
	.st18{fill:url(#SVGID_15_);}
	.st19{clip-path:url(#SVGID_17_);}
	.st20{fill:url(#SVGID_18_);}
	.st21{clip-path:url(#SVGID_20_);fill:url(#SVGID_21_);}
	.st22{clip-path:url(#SVGID_23_);fill:url(#SVGID_24_);stroke:#000000;}
	.st23{clip-path:url(#SVGID_27_);}
	.st24{clip-path:url(#SVGID_28_);fill:url(#SVGID_29_);stroke:#000000;}
	.st25{clip-path:url(#SVGID_31_);fill:url(#SVGID_32_);}
	.st26{clip-path:url(#SVGID_34_);fill:url(#SVGID_35_);}
	.st27{clip-path:url(#SVGID_37_);fill:url(#SVGID_38_);}
	.st28{clip-path:url(#SVGID_40_);fill:url(#SVGID_41_);}
	.st29{clip-path:url(#SVGID_43_);fill:url(#SVGID_44_);}
</style>
<path class="st0" d="M32.1,39.4L30.9,21c3.1-1.5,8.3-3.7,15.2-5.9c12.2-3.9,29.6-7.9,50.5-7.9c20.9,0,38.3,3.9,50.5,7.9
	c6.9,2.2,12.1,4.4,15.2,5.9l-1.4,21.2l-3.5,54.7c-2.4,27.1-8.6,44.7-18.8,55.9c-9.3,9-20.4,16.4-29.3,21.5c-5.5,3.2-10,5.4-12.7,6.7
	c-2.7-1.3-7.2-3.5-12.7-6.7c-8.9-5.1-20-12.5-29.3-21.5C44.4,141.6,38.2,124,35.8,96.9L32.1,39.4L32.1,39.4z"/>
<path class="st1" d="M32.1,39.4L30.9,21c3.1-1.5,8.3-3.7,15.2-5.9c12.2-3.9,29.6-7.9,50.5-7.9c20.9,0,38.3,3.9,50.5,7.9
	c6.9,2.2,12.1,4.4,15.2,5.9l-1.4,21.2l-3.5,54.7c-2.4,27.1-8.6,44.7-18.8,55.9c-9.3,9-20.4,16.4-29.3,21.5c-5.5,3.2-10,5.4-12.7,6.7
	c-2.7-1.3-7.2-3.5-12.7-6.7c-8.9-5.1-20-12.5-29.3-21.5C44.4,141.6,38.2,124,35.8,96.9L32.1,39.4L32.1,39.4z"/>
<g>
	<defs>
		<path id="SVGID_1_" d="M32.4,44l3.4,53c2.4,27.1,8.6,44.7,18.8,55.9c9.3,9,20.4,16.4,29.3,21.5c5.5,3.2,10,5.4,12.7,6.7
			c2.7-1.3,7.2-3.5,12.7-6.7c8.9-5.1,20-12.5,29.3-21.5c10.2-11.2,16.4-28.8,18.8-55.9l3.4-53c-3.2-1.4-7.8-3.3-13.7-5.2
			c-12.2-3.9-29.6-7.9-50.5-7.9c-20.9,0-38.3,3.9-50.5,7.9C40.2,40.6,35.6,42.5,32.4,44z M147,15.1c-12.2-3.9-29.6-7.9-50.5-7.9
			c-20.9,0-38.3,3.9-50.5,7.9C39.2,17.3,34,19.5,30.9,21l1.4,21.2c3.2-1.4,7.9-3.4,13.8-5.3c12.2-3.9,29.6-7.9,50.5-7.9
			c20.9,0,38.3,3.9,50.5,7.9c6,1.9,10.7,3.8,13.8,5.3l1.4-21.2C159.1,19.5,153.9,17.3,147,15.1z M96.6,0.9
			c43.4,0,72.3,16.3,72.3,16.3l-5.2,80.2c-2.4,27.7-8.9,47.1-20.6,59.8C123.4,176.4,96.6,188,96.6,188s-26.8-11.6-46.5-30.8
			c-11.7-12.7-18.2-32.1-20.6-59.8l-5.2-80.2C24.3,17.2,53.2,0.9,96.6,0.9z"/>
	</defs>
	<clipPath id="SVGID_2_">
		<use xlink:href="#SVGID_1_"  style="overflow:visible;"/>
	</clipPath>
	<g class="st2">
		<rect x="9.7" y="-12" class="st3" width="173.2" height="211.4"/>
		
			<radialGradient id="SVGID_3_" cx="213.8959" cy="214.2028" r="187.6295" gradientTransform="matrix(0.4485 0 0 0.4485 0.2758 0.4691)" gradientUnits="userSpaceOnUse">
			<stop  offset="0" style="stop-color:#E11B22"/>
			<stop  offset="0.7296" style="stop-color:#E11B22"/>
			<stop  offset="1" style="stop-color:#942923"/>
		</radialGradient>
		<circle class="st4" cx="96.2" cy="96.5" r="84.1"/>
	</g>
</g>
<linearGradient id="SVGID_4_" gradientUnits="userSpaceOnUse" x1="45.8003" y1="90.7053" x2="139.7055" y2="90.7053">
	<stop  offset="0" style="stop-color:#942923"/>
	<stop  offset="0.5051" style="stop-color:#E11B22"/>
	<stop  offset="1" style="stop-color:#942923"/>
</linearGradient>
<path class="st5" d="M63.6,77.4c-0.3-0.1-0.5-0.2-0.2-1.7c0.2-0.5,0-0.9-0.8-0.9c0,0-0.7,0.1-1.7,0.1c-3.4,0-4.2-1.6-4.2-1.6
	s-0.9-1.6,0.6-1.3c1.1,0.2,4.6-1.2,4.6-1.6c0-0.6-1-0.3-1.8-0.3c-0.7-0.1-1.8-0.5-3.4-1.2c-1.2-0.4-2.1-0.3-3.4,0.2
	c0,0-1.1,1.3-0.6-0.6c0.5-1.8,2.9-3.3,4.3-3.7c0.4-0.1-0.2-1.5-0.7-1.4c-0.7,0.1-1.4,0.8-2.5,0.8c0,0-1.5-0.1-2.1-0.9
	c-0.2-0.3-0.2-0.5-0.3-0.7c-0.3-0.5-0.5-0.9-0.4-1.3c0.1-0.4,0.3-0.6,0.5-0.9c0.2-0.3,0.5-0.8,0.7-1c0.6-0.4,1.8,0,1.9-0.3
	c0.3-1-2.5-0.7-3.3-1c-0.4-0.2-0.6-0.6-0.9-0.9c-0.2-0.3-0.5-0.8-0.6-1c0-0.5,0-0.9,0.3-1.7c0.5-1.9,1.8-3.1,2.4-3.1
	c0.7,0,1.5,0,2.3-0.1c0.8-0.1-0.4-2.4,0.5-3c1.1-0.7,2,0.2,2.4,0.3c0.3,0.1,0.8,0.2,1.8,0.2c0.6,0,1.4,0.2,1.2,1c0,0-0.2,2,0.1,2.3
	c0.3,0.1,1-1,1.3-1.4c0.2-0.4,1-0.9,1.5-0.1c0,0,0.5,0.9,1.2,1.5c1,0.7,0.3,1.6,0.3,1.6S63.7,55,62,54.9c-0.3,0-0.7,0.2-1,0.7
	c-0.3,0.6-0.3,5.3,0.8,6c1.3,0.8,3.9,1.6,6,2.7c2.3,1.3,3.1,2.4,4.2,3.9c0.9,1.1,4.2,1.3,4.7,1.7c0.2,0.2,0,2-4.7,4.7
	c-4.8,2.3-6.4,1.7-6.8,1.9C65,76.8,64.4,77.7,63.6,77.4z M88.1,60.5c0.9,0.3,1.9-1.3,1.9-1.3s-0.4-0.7-1.5-0.7
	c-1.4,0.1-1.7,0.5-1.7,0.5S86.9,60.1,88.1,60.5z M86,55.7c1.4-0.6,2.3-0.8,2.3-0.8s-0.3-0.4-0.9-0.2C86.3,55.1,86,55.7,86,55.7z
	 M96.5,46.4c0,0-1.1-0.4-2.5,0c-1.4,0.5-1.8,1.1-1.7,1.2c0.1,0.3,1.1,0.2,1.9,0.2C95.6,47.7,96.5,46.4,96.5,46.4z M88.4,67.2
	c-2,0.4-4.5,1-6.5,1.7c-1.9,0.8-3.3,1.5-5.1,3.5c-1.4,1.3-2.9,3.2-5.9,4.4c-2.1,0.8-3.4,2.1-3.4,2.5c0,0-0.3,0.7,0.2,0.4
	c0,0,0.8-0.6,2.3-0.8c1.5-0.1,2.8-0.1,2.8-0.1l0.3,0.3c0,0-1.8,1.2-2.9,2.9c-0.9,1.4-1.5,2.8-1.5,4.6c0,0.4,0.4,1.1,0.8,0.5
	c0,0,2-2.7,3-2.7c0.9,0,2.1,0.7,3.7,0.7c2.7,0,3.6-0.2,3.6-0.2l0.1,0.4c0,0-1,1-2,2.7c-0.6,1.1-1.1,2.4-1.3,4c0,0.7,0.3,1,0.9,0.5
	c0,0,1.5-1.8,2.2-2.2c0.8-0.4,2.2-0.6,3.7-1.2c1.9-0.6,3-1.4,3-1.4l0.4,0.4c0,0-0.4,1.9-0.2,3.2c0.3,1.1,0.9,1.9,0.9,3.3
	c0,1.8-1.7,4.5-1.7,4.5l0,0.6c0,0,2-0.9,4.3-1.7c1.6-0.6,3.3-2,4-3.3c1.1-2,1.6-2,1.6-2s0.4,0.7,0.1,2c-0.6,1.8-1.2,3.2-1.2,4.1
	c0,0,0.2,0.1,0.5,0.3c1.9-2.6,3.9-2.6,6.2-5.6c3-4.3,2.4-9,2.4-9l0.2-0.2c0,0,0.8,0.3,1.4,0.4c0.8,0.1,1.6,0,2.5,0.2
	c0.9,0.3,1.2,0.9,1.3,1.5c0.1,0.6,0.2,1.9,0.6,3.4c0.1,0.6,0.5,0.7,0.9,0.3c0.4-0.4,2.2-2.5,3.1-6.8c0.4-2,0.1-3.3-1.1-4.9
	c-0.7-0.9-2.4-2.4-3.7-4c-0.9-1.1-1.4-2.4-1.1-3.9c0.1-0.7,0.6-0.6,1.1-0.4c0.3,0.2,0.6,0.2,0.6,0.2s1.6,0.3,3.1-0.6
	c2.4-1.6,2.8-3.7,2.8-3.7s-0.4-0.3-1.3,0.2c-0.3,0.2-0.7,0.5-1.4,0.3c-0.5-0.1-2.1-0.9-2.1-2.4c0,0-0.1-1.5-0.5-3.7
	c-0.4-2.3-0.7-3.3-0.7-3.3s-0.2-0.7,0.3-0.7c0.7,0.1,1.9,0.1,2.6-0.2c0,0,2.1-0.8,3.1-3c0.3-0.6,0.8-1.7,0.4-2.3
	c-0.2-0.3-1.3,0.5-2.4,0.7c-0.8,0.1-1.6,0-2.1-0.7c-0.2-0.4-0.8-1-1.2-1.9c-0.4-1.1-0.1-1.8-0.1-1.8s1.9-0.2,3.3-1.5
	c0.7-0.7,3.8-5.4,3.8-7c0-0.2-0.3-0.6-1-0.3c0,0-3.4,3.3-5.9,4.4c-2.1,0.7-3.5-0.8-3.5-0.8s1.6-0.9,3.4-2.2c1.2-0.9,2.1-2,2.1-3.4
	c0-0.5-0.1-0.9-0.8-0.4c0,0-2.5,1.5-4.3,2.1c-3.2,1-5.4,0.9-5.4,0.9s0.1-1,2.1-2c1.3-0.6,2-0.5,1.9-1.2c-0.1-0.3-0.4-0.7-0.9-0.9
	c0,0-2.4-0.9-5.1,1.6c-2.3,2.4-3.1,4.2-3.1,4.2s-2.2,0.2-4.5,1c-3.5,1.3-4.5,2.3-4.9,2.6c0,0-1.3,1.2-2,1.5
	c-1.2,0.4-2.1,0.3-3.4,0.3c-1,0-2.4,0.1-2.9,0.4c-0.4,0.2-1,0.5-1.7,1.7c-0.2,0.5-0.2,0.8-0.1,0.9c0.4,0.3,1,0.6,1.3,1
	c0.3,0.5,0.4,1.4,1.1,2.6c0.6,0.9,1.5,2.2,2.4,2.7c0.7,0.3,1.6,0.3,1.9,0.7c0,0-1.6,1.1-3.2,0.8c-0.9-0.2-2.2-1-3.1-3.4
	c-0.5-1.3-1.3-2.2-2.3-2.5c-0.8-0.1-2.1-0.1-3.5,0.9c-1,0.8-1.4,1.2-1.8,1.7c-0.4,0.5-1,1.5-0.8,2.1c0.2,0.4,0.7,0.9,1.6,0.9
	c0.6,0,1.3-0.3,2.2-1c0.5-0.4,1.3-0.7,1.8-0.7c0.8,0.1,1.3,3.3,3.8,4.7c1.7,0.9,4,0.7,4,0.7s0.6,0.3,0.6,1.2c0,0.5,0.2,1.2,0.4,1.5
	c-0.1,0.7-0.6,1.3-1.5,1.9c-0.4,0.3-0.6,0.7-0.6,0.7s0.7,0.9,3,0.4c1.3-0.3,2.8-1.4,2.8-1.4s0.3,0.2,0.1,0.7
	c-0.1,0.2-0.1,0.3,0.1,0.5c0.3,0.2,0.6,0.3,1.2,0.3c0.7,0,2.2-0.8,3-1.5c0.3-0.2,0.5,0.1,0.1,0.5C92,65.3,90.6,66.7,88.4,67.2z
	 M56.7,47.4c0.5,0.2,0.5,0.3,0.9,0.4c0.5,0.1,0.7,0.1,0.8,0c0.2-0.6,0.4-1.8,0-2.3c-0.8-0.8-2.5-1-2.8-0.6c-0.1,0.3,0,0.6,0.3,0.9
	C57,46.4,56.7,47.4,56.7,47.4z M48,56.2c0.8,0,0.9-0.4,0.9-0.6c0.1-0.3,0.1-0.7,0.3-1.5c0-0.2,0.3-0.9-0.6-0.6
	c-1.5,0.5-2.8,2.9-2.8,2.9s-0.4,0.6,0.2,0.6C47.3,56.7,47.7,56.1,48,56.2z M51.2,64c0.3,0,0.4-0.2,0.3-0.5c-0.1-0.2-0.4-0.5-1-0.6
	c-0.6,0-0.8,0.4-0.8,0.4c-0.1,0.2-0.1,0.4-0.1,0.7c0,0.4-0.2,0.6-0.2,1.3c0,0.4,0.4,0.6,0.7,0.2c0.4-0.5,0.4-1.2,0.5-1.4
	C50.7,64,50.9,64,51.2,64z M63.9,49.7c-0.1,0.1,0,0.3,0.2,0.7c0.2,0.3,0.9,0.8,0.9,0.8c0.4-0.1,0.9-0.5,0.8-1.1
	c-0.1-1.2-0.3-1.7-0.4-2c-0.1-0.3-0.5-0.9-0.9-0.8c-0.1,0.1-0.1,0.8-0.1,0.8s0.1,0.5,0,0.9C64.2,49.3,63.9,49.7,63.9,49.7z
	 M104.8,85.5c0,0,0.6,2.6-1.3,6.6c-1.6,3.1-4.3,4.8-4.3,4.8s0.4,1.7,1.8,2.3c2.2,0.8,4.3,4.9,4.3,6.5c-0.1,3.4-0.4,4.2-1.4,6.9
	c-1.1,2.6-1.7,5.7-1.7,6.9c0,2,1.9,4.3,1.9,6c0,2.6-0.8,3.7-1.8,6.7c-1.6,4.3-0.3,6.6-0.3,6.6c0.3,0.6,0.5,0.4,0.7,0
	c1.7-4.5,4.2-6.1,4.2-6.1c0.8-0.6,0.8,0.1,0.6,0.8c-0.9,2.9-1.2,5.4-1.2,5.4l0.5-0.1c3.2-3.6,3.8-4.9,4.2-6.1
	c0.6-2.3,0.6-4.5,0.6-4.5s0.3-1.3,2-1.1c1.7,0.3,2.8-0.2,4.2-0.9c1.7-1.2,2.9-2.5,2.9-2.5s0.8-0.7,1.8,0c1.7,1.6,1.7,3.9,0.8,5.7
	c-1.3,2.4-2.4,2.8-3,2.8c-0.8,0-1.6-1.2-2.8-1.2c-1.6,0-2.3,1-2.3,1.4c0,0.9,0.7,0.9,0.8,1.6c0.3,1.6,1.1,2.9,1.1,2.9
	c-0.2,0.4-1.6,1.1-2,1.6c-0.3,0.4-0.4,1.2-0.4,1.2s-0.3,0.5,1.1,1.2c1.1,0.5,1.2,1.6,2.4,2.5c0.9,0.6,1.7-0.3,1.7-0.3
	c0.9-1.2,1.1-2.1,1.1-2.1c0.2-0.5,0.8-0.3,0.8,0c0.1,0.8,0.7,1.1,1,1.1c1.2,0.1,2-0.6,2-0.6s1,0.1,1.7-0.4c1.3-0.8,1.8-1.7,1.8-1.7
	s0.3-0.6-0.2-1.6c-0.3-0.4-0.8-0.7-0.8-0.7s0.3-1,1.1-1c0.9,0,1.8-0.9,2.2-1.8c0.4-1.1,0.5-2.1,0.5-2.1c0.1-0.3-0.3-1.4,0.7-1.6
	c1.2-0.3,1.7-0.6,2.2-1.4c0.6-1.1,0.5-1.8,0.5-1.8c-0.1-0.2-0.5-0.3-0.5-0.3c-0.3-0.1-0.2-0.3-0.1-0.4c1-0.9,2.6-2.4,2.8-3.4
	c0.1-0.6,0-1-0.5-1.5c-2,1.1-3.2,0.9-3.3,0.6c0-0.3,1.3-0.9,1.3-0.9c1.6-1,2.3-2.5,2.6-3.7c0.5-2.3,0.2-3.5,0.2-3.5l-0.4,0
	c-1.8,3.2-4.6,4.3-4.6,4.3c-0.5,0.2-0.6-0.4-0.4-0.7c1.3-1.6,1.8-2.6,2-4.2c0.2-1.6,0.1-2.4-0.4-3.7c-0.1-0.3-0.3-0.2-0.4,0
	c-0.8,1.8-1.2,2-2,3.3c-1.1,1.5-2.4,2.1-2.9,1.8c-0.8-0.7-0.7-2.3-1.3-3c-1-0.9-2.5-0.7-3.7-0.1c-0.9,0.5-2.6,2.1-2.6,2.1l-0.2-0.2
	c0.4-2.7-0.5-4.9-0.5-4.9l0.3-0.4c1.2-0.1,2,0.3,2,0.3c2,0.8,3.2,0.9,5.8,0.9c3.4,0,7.8-2.3,10-5.7c3.1-5.2,1.8-9.9,1.1-11.7
	c-0.9-2.1-1.5-2.8-1.8-3.1c-0.4-0.3-0.6-0.1-0.5,0.3c0.4,1.4,0.6,3.5,0.1,6.9c-0.1,0.7-0.5,0.6-0.8,0.2c-0.6-1.1-1.7-2.8-2.5-3.6
	c-1.3-1.3-2.5-2.1-2.5-2.1c-0.6-0.5-0.4-1.2-0.3-2c0.6-2.6,0.3-4-0.2-6.1c-0.6-2.2-2.9-4.7-3.9-5.3c-0.4-0.3-0.7,0-0.4,0.4
	c0.6,0.7,1.1,2,1.2,4.4c0,1.6-0.4,3-0.4,3c-1.2-0.8-2.9-3.6-4-6.2c-0.9-1.9-1.3-4.5-0.7-6.5c0.6-1.7,1.9-2.9,3-3.6
	c1.9-1.3,3.7-3.8,4.2-5.8c0.7-3.8-0.9-4.3-0.9-4.3c-1.3,3.9-4.3,5.7-4.6,5.9c-0.4,0.2-0.5,0.1-0.4-0.3c0.5-2,2-4.5,2-6.9
	c0-1.7-1.2-3-2.3-4.4c-1.2-1.8-1.2-3.8,0.8-6.2c1.5-1.6,2.9-2.3,3.8-2.5c0.7-0.2,1.2-0.4,1-0.8c-0.2-0.5-0.5-0.5-1.2-0.2
	c-2.5,0.9-4.4,1.8-6.2,2.8c-1.7,0.9-2,1-2.7,1.6c-1.4,1.6-1.5,2.7-1.4,5.3c0.2,2.3,1.1,5.5,1.1,5.5l-0.2,0.4c0,0-1.7-1.3-3.4-1.6
	c-2.5-0.3-2.5,0.5-2.5,0.5s3.8,3.8,4.4,6.6c0.4,2.7,0.4,4.4,0.4,8.2c0,6.2,0.8,8.9,3.1,11.4c2,1.9,4.7,4.7,5,6.5
	c0.1,0.4,0,0.5-0.3,0.5c-0.8,0.2-1.1,0.3-1.9,0.5c-0.9,0.3-1.3,0.6-2.5,0.1c-1.8-0.8-2.7-2.6-3-3.5c-0.1-0.6-0.2-0.9-0.2-0.9
	c-0.1-0.8-0.9-0.8-0.9-0.1c-0.1,1.5-0.1,2,0.3,3.6c0.9,2.8,4.7,4.4,6.6,5c2.3,0.6,5.6,0.9,6.9,1.6c1.8,1.3,2.4,3.1,1.8,5.1
	c-0.9,1.8-2.3,2.3-4.1,2.6c-2.6,0.3-3.6-0.2-5.8-1.6c-3.8-2.4-7.2-5.6-9.1-8.5c-2.1-3.6-4.9-6.6-4.9-6.6l-2.7-3.4L104.8,85.5z
	 M131.4,135.4c-0.7,0.4-0.9,1.7-0.6,2c0.6,0.4,1.3,0.2,2.2-0.2c1.6-0.8,1.9-2.3,1.9-2.3c0.1-0.9-0.8-0.3-1.2,0.1
	c-0.7,0.5-1.3,0.7-1.7,0.7C131.6,135.6,131.4,135.4,131.4,135.4z M126.1,142.4c-1.3,0.3-1.8,0.5-1.6,1c0.4,1.5,1.8,1.6,2.2,1.6
	c1.2,0,2.4-1.2,2.4-1.2c0.9-1.2-0.2-0.9-0.5-0.8c-1.1,0.4-1.1,0.3-1.4,0.3C126.8,143.3,126.1,142.4,126.1,142.4z M116.9,143.2
	c-0.4-0.7-0.6-0.9-0.9-1.1c-0.8-0.6-1.1,0-1.3,0.2c-0.6,1.3-0.6,1.9-0.6,2.5c0,1.2,1,1.6,1,1.6c0.3,0.1,1,0.1,1.2-0.2
	c0.1-0.3-0.3-0.5-0.4-0.9c-0.2-0.7,0.4-1.2,0.4-1.2C116.9,143.6,116.9,143.2,116.9,143.2z M115.2,135.1c0.3,0,0.6-0.3,0.2-0.9
	c-0.3-0.3-0.8-0.4-1.3-0.2c-0.9,0.2-1.3,0.8-1.7,1.5c-0.7,1.2-0.3,1.5,0,1.8c0.7,0.5,1.1,0.4,1.1,0.4s-0.3-0.8,0.2-1.3
	c0.9-0.7,1.1-1.1,1.1-1.1C114.9,135.1,115.2,135.1,115.2,135.1z M102.3,111.4c0.1-0.1,2.3-2,1.9-5.8c-0.7-4-2.4-4.9-2.4-4.9
	s-3.5,3.1-5.9,2.6c-3.1-0.8-4.9-1.1-7.9-1.1c-1.9,0-3.6,1.3-4.6,2.4c-1.5,2-1.8,5.6-1.8,5.6s0,1.4-1.9,1.4c-1.5-0.1-2.2,0.1-3,0.3
	c-1.6,0.5-2.3,1.7-2.5,2.3c-0.8,2.5,0.1,3.6,0.1,3.6c0.7-0.7,1-1.6,1.9-2.5c0.9-0.8,2-0.6,2.5,0c0.8,1,1.6,1.6,2.3,1.7
	c1.1,0.1,2.2-0.4,3,0.2c0.2,2.1,0.9,3.8,0.9,3.8s0,3-2.6,5.6c-1.6,1.5-2.6,1.9-3.9,1.9c-1.2,0-1.7-1.5-2-2.3c-0.3-1-0.9-1.9-1.9-1.7
	c-1.2,0.3-2.1,1.1-2.2,2.3c-1.8,0.5-2.6,0.9-2.9,1.6c-0.4,0.9,0.1,1.4,0.1,1.4s-2.2,1.5-2.2,2.6c0,1.8,0.9,3.4,2.2,3.4
	c1.4,0,2.2-1.5,3.4-1.4c-0.9,0.8-1.3,1.7-1.3,2.4c0,0.6,0.6,1.2,2.2,2.2c1.3,0.6,3.1,0.8,3.8,0.1c0.6-0.7,0.7-1.6,1.2-1.7
	c0.3,0.6,1.1,1.3,1.5,1.3c1.5,0,1.5-0.3,3.3-0.5c1.4-0.2,2.8-0.8,2.8-1.6c0-0.8-1.6-1.4-1.6-2.3c0-0.3,0.6-1.2,1.1-1.7
	c0.5-0.7,1-0.2,1-0.2s0.7,3.2,2.1,4.4c1.7,1.3,3.1,1.1,4.5-0.5c-3.3-0.3-2-2.3-2-2.3s1.6,1.2,5.1,1.2c1.5,0,2.7-1.6,2.7-1.6l0-0.6
	c0,0-1.7,0.3-2.5-1.1c-1-1.5-1.1-2.2-1.1-2.2c-0.2-0.3,0.1-0.4,0.3-0.4c1-0.1,1,0.6,2.7-0.5c1.5-1,1.7-2.5,1.7-2.5
	c0.1-0.5-0.2-0.7-0.3-0.6c-0.9,1.2-1.7,0.9-2.4,0.5c-1.1-0.9-1.4-2-1.4-2s-0.2-0.8,0.6-1.1c2.3-0.9,4.1-3.6,4.3-6.2
	c0-0.1-0.3-0.2-0.3-0.2c-0.4,0.5-1.9,1.4-3,1.5c-1.1,0-1.7-0.6-1.9-1.2c-0.4-1.4,0-2,0.5-2.7C98.2,112.1,100.1,111.6,102.3,111.4z
	 M82.1,141c0,0,1.5,1,2.4,1.3c0.8,0.3,1.1,0.1,0.8-0.5c0,0-0.5-0.8-0.7-1.7c-0.1-0.4-0.2-0.5-0.4-0.6c0,0-0.5-0.3-1.2,0
	c0,0-0.4,0.1-0.9,0.5C81.7,140.1,81.7,140.6,82.1,141z M71.7,140.6c0,0.3,0.4,0.7,0.6,1.3c0.2,0.5,1,0.7,1.2,0.5
	c0.1-0.2,0.5-1.3,0.4-2.4c0,0-0.6-0.2-0.9-0.5c-0.3-0.3-0.5-0.3-0.9-0.4C72.2,139,71.7,139.2,71.7,140.6z M64.7,134.5
	c-0.3,1,0.7,1.9,0.7,1.9s0.1-0.5,0.8-0.9c0.6-0.4,0.7-1,0.7-1s-0.1-0.1-0.1-0.3c-0.1-0.5,0.2-1.1,0-1.5c-0.2-0.3-0.6-0.2-0.6-0.2
	S65.1,133.3,64.7,134.5z M69.5,124.4c-1,0.4-2,1-2,1.2c0,0.3,0.3,0.4,0.3,0.4s0.4-0.3,1.4,0c1,0.3,1.4,0.1,1.4,0.1s0.1-0.4,0.8-0.7
	c0.7-0.3,0.3-1.1,0.3-1.1S70.6,124,69.5,124.4z M60.4,90c-0.2-1-0.3-1.6-1.3-1.6c-1.5,0-0.8,1.1-3.1,2.1c-3.2,0.9-2.2,2.8-2.2,2.8
	s-0.9-0.2-2,0.4c-1,0.6-2,3.3-0.1,5.6c0.2,0.2,0,0.4,1,0.5c0.2,0,0.3,0.2,0.1,0.5c0,0-1.5,1.8-0.6,3.4c0.4,0.6,1.4,1.5,5.9,1.8
	c1.4,0.1,1.4-1.2,1.8-1.2c0.7,0,0.5,0.7,2,0.7c1,0,1.5-1.8,2.4-2.4c1-0.6,2.2-0.4,2.9-1.4c0.7-1.1-0.6-2.1-0.6-2.1s0.5-0.4,1.5-0.1
	c0,0,2.7,3.2,4.8,3.2c2.9,0,4.7-1.3,4.7-1.3s1.4-0.8,0.1-1c0,0-2.3-0.2-3.2-1.3c0,0-0.7-0.9-0.2-1.4c0.7-0.6,1.1-0.1,1.3,0.1
	c0.9,1.4,1.7,1.8,2.3,2.1c0.6,0.2,1.1,0.3,2.3,0.3c0.9,0,1.3-0.5,1.3-0.6c-0.9-0.8-1.9-3.3-0.6-5.3c1-1.4,2.7-0.4,3,0
	c0.4,0.4,0.8,1.2,1.9,1c0.9-0.2,0.4-3.5-0.6-4.8c0,0-1.5-0.4-4.1,0.6c-1.7,0.7-3.8,2.9-4.5,2.8c-0.8-0.3-1.5-2.4-0.8-4
	c0.6-1.2,2.2-2.9,0.4-3.6c-2.6-1-5.7,1.5-6.8,2.5c-1.3,1.1-2.5,2.8-6,4.5c0,0-3,1.3-3,0.3C60.6,92.3,60.5,91.3,60.4,90z M53.6,88.4
	c-2.7,0.9-2,1.9-2,1.9s1.8-0.4,2.6,0.3c0,0,2.5-0.6,3.2-1.9C57.5,88.7,56.4,87.6,53.6,88.4z M47.8,97.3c-0.8,1-0.5,3-0.4,3.4
	c0.1,0.4,0.3,0.9,0.7,0.2c0,0,1-1.9,2.5-2.4c0,0-0.3-0.7-0.4-2.1C50.2,96.3,49,95.9,47.8,97.3z M55.4,107.8c1.4,2.1,3.1,1.3,3.1,1.3
	s-0.8-1.3-0.6-2.4c0.1-0.4,0.4-0.3,0.4-0.7c0,0-1.9,0-3.4-0.4C54.9,105.5,54.4,106,55.4,107.8z M65.5,103.3c-1,0.1-1.8,1.5-1.8,1.5
	c1.5,2.4,4,1,4,1c0,0,0.2-0.5-0.1-0.5c-0.9-0.2-1.1-0.3-1.2-0.4C65.9,103.7,65.5,103.3,65.5,103.3z"/>
<path class="st6" d="M96.6,0.9c43.4,0,72.3,16.3,72.3,16.3l-5.2,80.2c-2.4,27.7-8.9,47.1-20.6,59.8C123.4,176.4,96.6,188,96.6,188
	s-26.8-11.6-46.5-30.8c-11.7-12.7-18.2-32.1-20.6-59.8l-5.2-80.2C24.3,17.2,53.2,0.9,96.6,0.9z"/>
<g>
	<path class="st7" d="M11.7,175l-5.3-6.5c0,0,1.8-0.6,3.7-2.1c2.3-1.8,3.9-4.1,3.1-5.8c0.7,1.5,0.9,2.9,0.9,4.6c0.4,5.1,2,8.7,2,8.7
		C14.4,174.4,12.9,174.8,11.7,175z"/>
	<path class="st8" d="M11.7,175l-5.3-6.5c0,0,1.8-0.6,3.7-2.1c2.3-1.8,3.9-4.1,3.1-5.8c0.7,1.5,0.9,2.9,0.9,4.6c0.4,5.1,2,8.7,2,8.7
		C14.4,174.4,12.9,174.8,11.7,175z"/>
</g>
<path class="st9" d="M180,160.6c-0.7,1.5-0.9,2.9-0.9,4.6c-0.4,5.1-2,8.7-2,8.7"/>
<path class="st10" d="M181.4,175"/>
<path class="st10" d="M181.4,175"/>
<g>
	<path class="st11" d="M177.1,173.9c1.7,0.5,3.1,0.8,4.3,1l5.3-6.5c0,0-1.8-0.6-3.7-2.1c-2.1-1.6-3.7-3.6-3.4-5.2
		c-0.5,1.3-0.7,2.5-0.6,4C178.8,170.3,177.1,173.9,177.1,173.9z"/>
	<path class="st10" d="M177.1,173.9c1.7,0.5,3.1,0.8,4.3,1l5.3-6.5c0,0-1.8-0.6-3.7-2.1c-2.1-1.6-3.7-3.6-3.4-5.2
		c-0.5,1.3-0.7,2.5-0.6,4C178.8,170.3,177.1,173.9,177.1,173.9z"/>
</g>
<path class="st10" d="M69.9,180.3"/>
<path class="st11" d="M69.9,180.3l12.3-18.1c0,0-0.4-0.7-4-0.7c-11.9,0-23.6,6.1-32.6,11.9c-19.8,13.3-26.6,15.2-31,15.3
	c-2-0.2-4.4-0.2-6.4-4.4c-0.7-1.4-5.3-10.3-6.7-13.1l0.1,0c0.8,1.5,2,3.7,6.6,4.1c4.4-0.1,12.9-1.1,32.7-14.4
	c9-5.7,20.6-11.9,32.6-11.9c3.6,0,4.7,1.9,4.7,1.9l5.9,10.5l-13.1,19.2L69.9,180.3z"/>
<path class="st10" d="M70.8,180.7l13.1-19.2L78,151c0,0-1.1-1.9-4.7-1.9c-11.9,0-23.6,6.1-32.6,11.9C20.9,174.2,12.4,175.2,8,175.3
	c-4.6-0.4-5.7-2.5-6.6-4.1"/>
<path class="st7" d="M129.5,164.2c0,0-1.1,0.7-0.7,1.2l4.9,6.1c0,0,1.2,1.3,0.9,3.3l-3.4,15.6c0,0-0.6,2.1-2.8,2.9
	c-5.2,2.4-18.2,7.5-31.8,7.5c-13.8,0-26.9-5.3-32-7.6c-2.2-1.2-2.6-3-2.6-3l-3.4-15.4c-0.3-2,0.9-3.3,0.9-3.3l4.9-6.1
	c0.4-0.5-0.8-1.2-0.8-1.2l1.5-0.5c0,0,1.4,0.9,0.7,2.1l-4.2,5.7c0,0-1.5,1.8-0.1,3c0,0,14.2,13,35.1,13c20.9,0,35.1-13,35.1-13
	c1.4-1.2-0.1-3-0.1-3l-4.2-5.7c-0.7-1.2,0.7-2.1,0.7-2.1L129.5,164.2z"/>
<path class="st9" d="M129.5,164.2c0,0-1.1,0.7-0.7,1.2l4.9,6.1c0,0,1.2,1.3,0.9,3.3l-3.4,15.6c0,0-0.6,2.1-2.8,2.9
	c-5.2,2.4-18.2,7.5-31.8,7.5c-13.8,0-26.9-5.3-32-7.6c-2.2-1.2-2.6-3-2.6-3l-3.4-15.4c-0.3-2,0.9-3.3,0.9-3.3l4.9-6.1
	c0.4-0.5-0.8-1.2-0.8-1.2l1.5-0.5c0,0,1.4,0.9,0.7,2.1l-4.2,5.7c0,0-1.5,1.8-0.1,3c0,0,14.2,13,35.1,13c20.9,0,35.1-13,35.1-13
	c1.4-1.2-0.1-3-0.1-3l-4.2-5.7c-0.7-1.2,0.7-2.1,0.7-2.1L129.5,164.2z"/>
<g>
	<defs>
		<path id="SVGID_5_" d="M65.1,163.7c0,0,1.4,0.9,0.7,2.1l-4.2,5.7c0,0-1.5,1.8-0.1,3c0,0,3,2.8,8.4,5.8l12.3-18.1
			c0,0-0.4-0.7-4-0.7C73.7,161.5,69.3,162.4,65.1,163.7z"/>
	</defs>
	<defs>
		<path id="SVGID_6_" d="M65.1,163.7c0,0,1.4,0.9,0.7,2.1l-4.2,5.7c0,0-1.5,1.8-0.1,3c0,0,3,2.8,8.4,5.8l12.3-18.1
			c0,0-0.4-0.7-4-0.7C73.7,161.5,69.3,162.4,65.1,163.7z"/>
	</defs>
	<clipPath id="SVGID_7_">
		<use xlink:href="#SVGID_5_"  style="overflow:visible;"/>
	</clipPath>
	<clipPath id="SVGID_8_" class="st12">
		<use xlink:href="#SVGID_6_"  style="overflow:visible;"/>
	</clipPath>
	
		<linearGradient id="SVGID_9_" gradientUnits="userSpaceOnUse" x1="-6163.3633" y1="-7468.6035" x2="-6145.252" y2="-7468.6035" gradientTransform="matrix(0.4166 -1.1456 -1.2937 -0.4705 -7027.5107 -10394.7568)">
		<stop  offset="0" style="stop-color:#942923"/>
		<stop  offset="0.5051" style="stop-color:#E11B22"/>
		<stop  offset="1" style="stop-color:#942923"/>
	</linearGradient>
	<polygon class="st13" points="66.6,156.3 59,177.1 74.9,182.8 82.4,162.1 	"/>
	<use xlink:href="#SVGID_5_"  style="overflow:visible;fill-rule:evenodd;clip-rule:evenodd;fill:none;stroke:#000000;"/>
	<use xlink:href="#SVGID_6_"  style="overflow:visible;fill-rule:evenodd;clip-rule:evenodd;fill:none;stroke:#000000;"/>
</g>
<path class="st11" d="M122.4,180.7l-13.1-19.2l5.9-10.5c0,0,1.1-1.9,4.7-1.9c11.9,0,23.6,6.1,32.6,11.9
	c19.8,13.3,28.3,14.2,32.7,14.4c4.6-0.4,5.7-2.5,6.6-4.1c-1.4,2.7-5.9,11.6-6.7,13.1c-2,4.1-4.3,4.2-6.4,4.4
	c-4.4-0.1-11.2-2.1-31-15.3c-9-5.7-20.6-11.9-32.6-11.9c-3.6,0-4,0.7-4,0.7l12.3,18.1L122.4,180.7z"/>
<path class="st10" d="M122.4,180.7l-13.1-19.2l5.9-10.5c0,0,1.1-1.9,4.7-1.9c11.9,0,23.6,6.1,32.6,11.9
	c19.8,13.3,28.3,14.2,32.7,14.4c4.6-0.4,5.7-2.5,6.6-4.1"/>
<path class="st10" d="M69.9,180.3l12.3-18.1c0,0-0.4-0.7-4-0.7c-11.9,0-23.6,6.1-32.6,11.9c-19.8,13.3-26.6,15.2-31,15.3
	c-2-0.2-4.4-0.2-6.4-4.4C7.2,182.7,1,170.5,1,170.5c-0.5-1.2-1.1-2.9,1.3-5.9c4-4.3,9.9-5.7,11-3.8c0.8,1.7-0.9,3.9-3.2,5.7
	c-1.9,1.5-3.7,2.1-3.7,2.1l5.4,6.5"/>
<path class="st10" d="M123.3,180.3L111,162.2c0,0,0.4-0.7,4-0.7c11.9,0,23.6,6.1,32.6,11.9c19.8,13.3,26.6,15.2,31,15.3
	c2-0.2,4.4-0.2,6.4-4.4c0.9-1.7,7.2-13.9,7.2-13.9c0.5-1.2,1.1-2.9-1.3-5.9c-4-4.3-9.9-5.7-11-3.8c-0.8,1.7,0.9,3.9,3.2,5.7
	c1.9,1.5,3.7,2.1,3.7,2.1l-5.3,6.5"/>
<g>
	<defs>
		<path id="SVGID_10_" d="M1.4,171.2L1,170.5c-0.5-1.2-1.1-2.9,1.3-5.9c4-4.3,9.9-5.7,11-3.8c0.8,1.7-0.9,3.9-3.2,5.7
			c-1.9,1.5-3.7,2.1-3.7,2.1l5.3,6.5c-1.5,0.3-2.7,0.3-3.7,0.4C3.4,174.9,2.2,172.8,1.4,171.2z"/>
	</defs>
	<clipPath id="SVGID_11_">
		<use xlink:href="#SVGID_10_"  style="overflow:visible;"/>
	</clipPath>
	
		<linearGradient id="SVGID_12_" gradientUnits="userSpaceOnUse" x1="-2645.5674" y1="-7749.3623" x2="-2630.6497" y2="-7749.3623" gradientTransform="matrix(0.935 -0.5344 -0.646 -1.1303 -2530.8933 -10000.542)">
		<stop  offset="0" style="stop-color:#942923"/>
		<stop  offset="0.5051" style="stop-color:#E11B22"/>
		<stop  offset="1" style="stop-color:#942923"/>
	</linearGradient>
	<polygon class="st14" points="11.9,158 -2,166 5.2,178.7 19.2,170.7 	"/>
	<use xlink:href="#SVGID_10_"  style="overflow:visible;fill-rule:evenodd;clip-rule:evenodd;fill:none;stroke:#000000;"/>
</g>
<path class="st15" d="M96.5,198.9c-12.5,0-24.6-4.5-30.1-7c0,0-0.2-0.1-0.2,0.4c0,0.2,0.2,0.3,0.2,0.3c5.7,2.5,17.6,6.9,30.1,6.9
	c12.5,0,24.5-4.4,30.2-6.9c0,0,0.2-0.1,0.2-0.3c0-0.5-0.2-0.4-0.2-0.4C121.2,194.4,109.1,198.9,96.5,198.9z"/>
<path class="st15" d="M78.4,160.3c-0.1,0-0.2,0-0.2,0c-12.3,0-24.3,6.3-33.3,12.1c-19.7,13.2-26.3,15-30.3,15.1l-0.4,0
	c0,0-0.8-0.1-0.3-0.7c0.2,0,0.5,0.1,0.8,0.1c3.8-0.2,10.3-1.9,29.9-15c9-5.7,21-12.1,33.5-12.2C78.7,159.6,78.8,160.3,78.4,160.3z"
	/>
<path class="st15" d="M114.8,160.3c0.1,0,0.2,0,0.2,0c12.3,0,24.3,6.3,33.3,12.1c19.7,13.2,26.3,15,30.3,15.1l0.4,0
	c0,0,0.8-0.1,0.3-0.7c-0.2,0-0.5,0.1-0.8,0.1c-3.8-0.2-10.3-1.9-29.9-15c-9-5.7-21-12.1-33.5-12.2
	C114.4,159.6,114.4,160.3,114.8,160.3z"/>
<g>
	<path class="st16" d="M37,24.2c0.2,0.3,0.6,0.6,1.1,1.2c0.5,0.5,1,1.1,1.6,1.6c0.5,0.5,1.1,1.1,1.7,1.7c0.5,0.5,0.8,0.7,0.9,0.8
		c0.2-3,0.3-5.4,0.3-7.2c1-0.4,2-0.7,2.9-1.1c0.1,0,0.1-0.1,0.2-0.1c0.2-0.1,0.3,0,0.3,0.1c0,0.1,0,0.2-0.1,0.3
		c-0.5,0.2-0.8,0.5-0.8,0.9c0,0.4,0.2,1.3,0.7,2.7l1.2,3.5c0.2,0.7,0.5,1.2,0.8,1.4c0.3,0.2,0.6,0.3,1,0.2c0.2-0.1,0.3,0,0.4,0.1
		c0,0.1,0,0.1-0.1,0.2l-1.8,0.6c-0.6,0.2-1.3,0.5-2.3,0.9c-0.1,0-0.2-0.1-0.2-0.2c0-0.1,0.1-0.2,0.3-0.3c0.2-0.1,0.4-0.2,0.4-0.4
		c0.1-0.1,0.1-0.3,0.1-0.5c0-0.2-0.1-0.6-0.2-1l-1.1-3.2c-0.6-1.6-0.9-2.5-1-2.8c-0.2,3.4-0.2,5.5-0.3,6.4l0,2.1
		c0,0.2,0,0.4-0.1,0.4c-0.1,0-0.2-0.1-0.4-0.3c-0.6-0.6-2.5-2.6-5.9-6c0.4,1.2,0.9,2.7,1.6,4.7c0.4,1,0.6,1.7,0.8,1.9
		c0.2,0.2,0.6,0.3,1.1,0.2c0.2,0,0.3,0,0.3,0.1c0,0.1,0,0.2-0.1,0.3c0,0-0.1,0-0.2,0c-0.5,0.1-0.9,0.3-1.1,0.3
		c-0.6,0.2-1.1,0.4-1.4,0.6c-0.1,0-0.1,0.1-0.1,0.1c-0.2,0.1-0.3,0-0.3-0.1c0-0.1,0-0.1,0-0.2c0,0,0.1-0.1,0.3-0.2
		c0.4-0.2,0.6-0.5,0.7-0.8c0-0.3,0-0.7-0.2-1.2l-1.4-4c-0.3-0.9-0.5-1.5-0.7-1.8c-0.1-0.3-0.3-0.5-0.6-0.6c-0.2-0.1-0.5-0.1-1-0.1
		c-0.2,0-0.3,0-0.3-0.2c0-0.1,0-0.2,0.2-0.3c0,0,0.1,0,0.1,0C34.7,25,35.7,24.7,37,24.2z"/>
	<path class="st16" d="M47.4,20.7c0.2,0,0.5-0.1,1-0.2c0.4-0.1,0.7-0.2,0.9-0.2l2-0.6c0.2,0,0.3,0,0.3,0.1c0,0.1,0,0.2-0.2,0.3
		c-0.3,0.1-0.6,0.3-0.6,0.4c-0.1,0.1-0.1,0.4-0.1,0.8c0,0.4,0.3,1.2,0.6,2.6c0.4,1.5,0.8,2.7,1.1,3.5c0.3,0.8,0.5,1.3,0.7,1.4
		c0.2,0.2,0.4,0.2,0.8,0.1c0.2-0.1,0.3,0,0.4,0.1c0,0.2,0,0.3-0.3,0.4c-0.1,0-0.2,0-0.3,0.1c-0.9,0.2-1.4,0.3-1.7,0.4
		c-0.7,0.2-1.2,0.4-1.5,0.5c-0.2,0.1-0.3,0.1-0.4,0.1c-0.2,0-0.3,0-0.3-0.1c0-0.1,0-0.2,0.2-0.3c0.4-0.2,0.6-0.3,0.7-0.6
		c0.1-0.2,0-0.7-0.1-1.3c-0.2-0.7-0.4-1.7-0.8-3.1c-0.4-1.5-0.7-2.5-0.9-2.9c-0.2-0.5-0.4-0.8-0.5-0.9c-0.1-0.1-0.4-0.1-0.7,0
		c-0.2,0-0.3,0-0.3-0.1C47.2,20.9,47.3,20.8,47.4,20.7z"/>
	<path class="st16" d="M60,27.8c-0.2,0-1,0.2-2.4,0.5l-1.5,0.3l-0.9,0.2c-0.2,0-0.3,0.1-0.4,0c-0.1,0-0.1-0.1-0.1-0.2
		c0-0.1,0-0.2,0.2-0.3c0.4-0.1,0.6-0.2,0.8-0.4c0.1-0.2,0.2-0.4,0.2-0.8c0-0.4-0.2-1.1-0.4-2.2c-0.2-1.1-0.4-2.1-0.6-3
		c-0.3-1.3-0.5-2.1-0.7-2.3c-0.2-0.3-0.5-0.4-1-0.3c-0.2,0-0.3,0-0.3-0.2c0-0.1,0-0.2,0.2-0.2c0.1,0,0.4-0.1,0.9-0.1
		c0.6-0.1,0.9-0.1,1.2-0.2l2.5-0.6c0.9-0.2,1.7-0.2,2.6,0c0.9,0.2,1.6,0.6,2.3,1.3c0.7,0.7,1.1,1.5,1.3,2.5c0.2,0.7,0.2,1.5,0.1,2.2
		c-0.1,0.7-0.4,1.3-0.8,1.9c-0.4,0.6-0.9,1-1.3,1.2C61.3,27.5,60.7,27.7,60,27.8z M59.4,27.4c0.9-0.2,1.6-0.7,2-1.6
		c0.4-0.8,0.4-1.9,0.1-3.2c-0.3-1.3-0.9-2.4-1.7-3.1c-0.8-0.7-1.7-1-2.8-0.7c-0.4,0.1-0.6,0.2-0.7,0.2c-0.1,0.1-0.1,0.1-0.1,0.2
		c0,0.1,0.1,0.6,0.3,1.6l0.5,2.5c0.1,0.6,0.3,1.4,0.5,2.3c0.2,0.7,0.3,1.1,0.4,1.4c0.1,0.2,0.3,0.4,0.5,0.5
		C58.7,27.5,59,27.5,59.4,27.4z"/>
	<path class="st16" d="M69.9,25.9c-0.2,0-1,0.1-2.5,0.3l-1.5,0.2l-0.9,0.1c-0.2,0-0.3,0-0.4,0c-0.1,0-0.1-0.1-0.1-0.2
		c0-0.1,0.1-0.2,0.3-0.3c0.4-0.1,0.6-0.2,0.8-0.3c0.2-0.2,0.2-0.4,0.2-0.8c0-0.4-0.1-1.1-0.2-2.2c-0.1-1.1-0.3-2.1-0.4-3
		c-0.2-1.3-0.4-2.1-0.6-2.4c-0.2-0.3-0.5-0.4-0.9-0.3c-0.2,0-0.3,0-0.3-0.2c0-0.1,0-0.2,0.2-0.2c0.1,0,0.4,0,0.9-0.1
		c0.6,0,1-0.1,1.2-0.1l2.6-0.5c0.9-0.1,1.7-0.1,2.6,0.1c0.9,0.2,1.6,0.7,2.2,1.4c0.6,0.7,1,1.6,1.1,2.6c0.1,0.8,0.1,1.5-0.1,2.2
		c-0.2,0.7-0.5,1.3-0.9,1.8c-0.5,0.5-0.9,0.9-1.4,1.1C71.2,25.6,70.6,25.8,69.9,25.9z M69.4,25.5c1-0.2,1.7-0.6,2.1-1.4
		c0.4-0.8,0.6-1.9,0.3-3.2c-0.2-1.4-0.7-2.4-1.4-3.2c-0.7-0.8-1.7-1.1-2.8-0.9c-0.4,0.1-0.6,0.1-0.7,0.2c-0.1,0.1-0.1,0.1-0.1,0.2
		c0,0.1,0,0.6,0.2,1.7l0.3,2.5c0.1,0.6,0.2,1.4,0.3,2.3c0.1,0.7,0.2,1.1,0.3,1.4c0.1,0.2,0.2,0.4,0.5,0.5
		C68.6,25.5,69,25.5,69.4,25.5z"/>
	<path class="st16" d="M82.6,24.3c-1.2,0.1-2.9,0.2-5.4,0.5c-0.8,0.1-1.5,0.2-2.1,0.3c-0.1,0-0.2,0-0.3,0c-0.2,0-0.3,0-0.3-0.2
		c0-0.1,0-0.1,0.1-0.1c0,0,0.2-0.1,0.3-0.1c0.3-0.1,0.5-0.2,0.6-0.3c0.1-0.2,0.2-0.4,0.3-0.6c0-0.3,0-1-0.1-2.1
		c-0.1-1.1-0.2-2.4-0.4-3.9c-0.1-0.6-0.2-1-0.3-1.3c-0.1-0.3-0.3-0.5-0.4-0.6c-0.2-0.1-0.4-0.2-0.7-0.1c-0.2,0-0.3-0.1-0.3-0.2
		c0-0.1,0.1-0.2,0.3-0.3l2.3-0.2c0.4,0,0.8-0.1,1.5-0.2c0.2,0,0.4-0.1,0.5-0.1c0.2,0,0.3,0,0.3,0.2c0,0.1,0,0.1-0.1,0.2
		c-0.1,0-0.2,0.1-0.5,0.2c-0.3,0.1-0.5,0.2-0.6,0.3c-0.1,0.1-0.2,0.4-0.2,0.7c0,0.3,0,1,0.2,2.1l0.5,4.5c0.1,0.7,0.2,1.1,0.3,1.2
		c0.1,0.1,0.3,0.2,0.6,0.1c0.8-0.1,1.3-0.2,1.7-0.4c0.4-0.2,0.7-0.4,1-0.8c0.3-0.4,0.6-1,0.9-1.8c0.1-0.2,0.1-0.3,0.2-0.3
		c0.1,0,0.2,0.1,0.2,0.2C82.8,21.4,82.8,22.5,82.6,24.3z"/>
	<path class="st16" d="M90.5,13.9c0.2,0.8,0.4,1.5,0.6,2.3c0,0.1-0.1,0.2-0.2,0.2c-0.1,0-0.2-0.1-0.3-0.2c-0.5-0.7-1-1.2-1.4-1.4
		c-0.4-0.2-1-0.3-1.7-0.3c-0.4,0-0.8,0.1-1.2,0.2c0,0.9,0,1.8,0,2.9c0,0.2,0,0.5,0.1,0.9l0.5,0c0.3,0,0.6-0.1,0.8-0.2
		c0.2-0.1,0.4-0.3,0.6-0.6c0.1-0.3,0.2-0.5,0.3-0.6c0-0.2,0.1-0.2,0.2-0.2c0.1,0,0.2,0,0.2,0.2c0,0,0,0.1,0,0.1c0,0.3,0,1.2,0.1,2.8
		c0,0.2,0,0.4,0.1,0.6c0,0,0,0.1,0,0.1c0,0.1-0.1,0.2-0.2,0.2c-0.1,0-0.2-0.1-0.3-0.4c-0.1-0.5-0.3-0.8-0.7-1
		c-0.3-0.2-0.9-0.3-1.6-0.3c0,0.8,0,1.4,0.1,1.6c0.1,1.1,0.1,1.8,0.2,2c0,0.2,0.2,0.4,0.4,0.5c0.2,0.1,0.6,0.2,1,0.1
		c1.8-0.1,2.9-0.8,3.4-2c0.1-0.2,0.2-0.3,0.2-0.3c0.1,0,0.2,0,0.2,0.2c0,0.1,0,0.2,0,0.3l-0.3,2.2L89,23.9c-0.7,0-1.4,0-2,0.1
		c-0.6,0-1.1,0-1.4,0c-0.4,0-1,0.1-1.7,0.2c-0.1,0-0.2,0-0.2,0c-0.2,0-0.3-0.1-0.3-0.2c0-0.1,0.1-0.2,0.3-0.2c0.4,0,0.7-0.2,0.9-0.4
		c0.1-0.3,0.2-0.8,0.2-1.6l-0.2-3.8c-0.1-1.3-0.1-2.1-0.2-2.4c0-0.3-0.1-0.5-0.3-0.6c-0.1-0.1-0.4-0.2-0.7-0.2
		c-0.1,0-0.2-0.1-0.2-0.2c0-0.1,0.1-0.2,0.2-0.2l1.7,0L90.5,13.9z"/>
	<path class="st16" d="M97.7,14.1c0.1-0.1,0.1-0.2,0.2-0.3c0.1-0.2,0.1-0.2,0.2-0.2c0.1,0,0.2,0.1,0.2,0.3l0.2,2l0,0.2
		c0,0.1-0.1,0.2-0.2,0.2c-0.1,0-0.2,0-0.2-0.1c0,0-0.1-0.2-0.2-0.5c-0.2-0.4-0.5-0.8-1-1.2c-0.5-0.4-0.9-0.5-1.4-0.5
		c-0.4,0-0.8,0.1-1.1,0.4c-0.3,0.3-0.4,0.6-0.4,1c0,0.3,0.1,0.6,0.4,0.9c0.3,0.3,0.8,0.5,1.6,0.8c1.2,0.4,2.1,0.8,2.5,1.4
		c0.4,0.6,0.7,1.2,0.7,1.9c0,0.7-0.2,1.3-0.5,1.7c-0.3,0.5-0.7,0.8-1.1,1.1c-0.4,0.3-1,0.4-1.7,0.4c-0.4,0-0.8-0.1-1.2-0.2
		c-0.4-0.1-0.9-0.3-1.3-0.6c-0.1,0.1-0.2,0.3-0.2,0.4c-0.1,0.2-0.2,0.3-0.3,0.3c-0.1,0-0.2-0.1-0.2-0.4l-0.2-2.7c0-0.1,0-0.2,0-0.2
		c0-0.1,0.1-0.2,0.2-0.2c0.1,0,0.2,0.1,0.3,0.4c0.3,0.7,0.7,1.4,1.1,1.9c0.5,0.5,1,0.7,1.7,0.7c0.5,0,1-0.2,1.3-0.5
		c0.3-0.3,0.5-0.7,0.5-1.2c0-0.4-0.2-0.8-0.5-1.1c-0.3-0.3-0.9-0.6-1.7-0.9c-0.8-0.3-1.4-0.5-1.7-0.8c-0.4-0.2-0.7-0.6-0.9-1
		c-0.2-0.4-0.3-0.9-0.3-1.3c0-0.8,0.3-1.4,0.8-2c0.6-0.5,1.3-0.8,2.3-0.8C96.2,13.6,96.8,13.8,97.7,14.1z"/>
	<path class="st16" d="M105.1,18.5c0.9,0.3,1.7,0.6,2.1,1.1c0.5,0.5,0.7,1,0.7,1.7c0,0.6-0.2,1.1-0.6,1.5c-0.4,0.4-0.8,0.7-1.3,0.9
		c-0.5,0.1-1.2,0.2-2.2,0.2c-0.2,0-0.6,0-1.1-0.1c-0.4,0-0.7-0.1-1-0.1c-0.3,0-0.7,0-1.3,0c-0.2,0-0.4,0-0.5,0
		c-0.2,0-0.3-0.1-0.3-0.2c0-0.1,0.1-0.2,0.2-0.2c0.3,0,0.5-0.1,0.6-0.1c0.1-0.1,0.2-0.2,0.3-0.3c0.1-0.2,0.1-0.4,0.2-0.8l0.2-3.5
		c0-1.1,0.1-1.9,0.1-2.6c0-0.7,0-1.1-0.1-1.3c0-0.2-0.1-0.3-0.2-0.4c-0.1-0.1-0.3-0.1-0.5-0.2c-0.2,0-0.3,0-0.4-0.1
		c0,0-0.1-0.1-0.1-0.2c0-0.1,0.1-0.2,0.2-0.2c0.1,0,0.4,0,0.9,0c0.9,0,1.8,0,2.6,0c0.5,0,0.9,0,1.1,0c0.8,0,1.5,0.3,2,0.7
		c0.5,0.4,0.7,1,0.7,1.6C107.6,17.2,106.7,18,105.1,18.5z M103.2,18.3c1.6,0.1,2.4-0.7,2.5-2.1c0-0.6-0.1-1.1-0.4-1.5
		c-0.3-0.3-0.6-0.5-1-0.5c-0.3,0-0.6,0-1,0.2c-0.1,0.5-0.1,1-0.1,1.6C103.2,16.4,103.2,17.2,103.2,18.3z M103.2,18.8
		c-0.1,1-0.1,1.9-0.1,2.6c0,0.9,0,1.5,0,1.6c0.1,0.1,0.3,0.2,0.7,0.2c0.7,0,1.2-0.2,1.5-0.5c0.3-0.4,0.5-0.9,0.6-1.6
		c0-0.7-0.1-1.2-0.5-1.7c-0.3-0.4-0.8-0.7-1.5-0.7C103.6,18.8,103.4,18.8,103.2,18.8z"/>
	<path class="st16" d="M114.1,19.5c0.6,0.2,1.1,0.4,1.5,0.8c0.4,0.3,0.6,1,0.7,1.9c0.1,0.9,0.2,1.5,0.4,1.8c0.2,0.3,0.5,0.5,0.9,0.5
		c0.2,0,0.3,0.1,0.3,0.3c0,0.1-0.2,0.2-0.5,0.2l-2.6-0.3c-0.2-0.3-0.4-0.9-0.4-1.6c0-1-0.1-1.7-0.2-2.1c-0.1-0.4-0.3-0.7-0.5-0.9
		c-0.3-0.2-0.6-0.3-0.9-0.4c-0.1,0-0.3,0-0.4,0c-0.2,1.7-0.3,2.8-0.3,3.2c0,0.4,0,0.7,0.1,0.9c0.1,0.2,0.4,0.3,0.8,0.4
		c0.2,0,0.3,0.1,0.3,0.3c0,0.1-0.1,0.2-0.3,0.2l-2.1-0.3c-0.3,0-0.7-0.1-1.1-0.1c-0.4,0-0.7,0-0.8,0c-0.2,0-0.3-0.1-0.3-0.2
		c0-0.1,0.1-0.2,0.3-0.2c0.3,0,0.5,0,0.7-0.1c0.2-0.1,0.4-0.7,0.5-1.7l0.1-1.4l0.3-2.7c0.1-1.4,0.2-2.2,0.1-2.5
		c-0.1-0.3-0.4-0.5-0.9-0.6c-0.2,0-0.3-0.1-0.3-0.2c0-0.1,0.2-0.2,0.4-0.2c1.3,0.1,2.4,0.2,3.3,0.3c0.4,0,0.8,0,1.1,0.1
		c1,0.1,1.8,0.4,2.4,0.9c0.5,0.5,0.8,1.1,0.7,1.8c-0.1,0.5-0.2,0.9-0.6,1.3c-0.3,0.4-0.7,0.6-1.1,0.7
		C115.1,19.5,114.6,19.5,114.1,19.5z M112.2,19c0.1,0,0.2,0,0.3,0c0.4,0,0.8,0,1.2-0.1c0.4-0.1,0.7-0.3,0.9-0.7
		c0.2-0.3,0.3-0.7,0.4-1.1c0.1-0.6-0.1-1.1-0.4-1.5c-0.3-0.4-0.7-0.6-1.3-0.7c-0.2,0-0.5,0-0.8,0.1L112.2,19z"/>
	<path class="st16" d="M123.9,15.8c0.9,0.1,1.7,0.5,2.3,1c0.6,0.5,1.1,1.2,1.4,2c0.3,0.8,0.4,1.7,0.2,2.6c-0.2,1.4-0.9,2.5-2,3.4
		c-1.1,0.9-2.4,1.3-3.8,1c-1.3-0.2-2.3-0.8-3.1-1.8c-0.8-1-1-2.3-0.8-3.8c0.2-1.4,0.9-2.5,2-3.4C121.3,15.9,122.5,15.5,123.9,15.8z
		 M125.5,21.1c0.2-1.5,0.2-2.6-0.2-3.5c-0.4-0.8-0.9-1.3-1.6-1.4c-0.7-0.1-1.4,0.2-2,0.9c-0.6,0.7-1,1.8-1.2,3.2
		c-0.2,1.4-0.2,2.6,0.1,3.4c0.3,0.9,0.9,1.3,1.6,1.5c0.7,0.1,1.3-0.2,1.9-0.8C124.8,23.8,125.3,22.7,125.5,21.1z"/>
	<path class="st16" d="M129.2,16.7l2.2,0.5c0.2,0,0.4,0.1,0.7,0.1c0.4,0.1,0.8,0.1,1,0.2c0.2,0,0.3,0.1,0.3,0.3
		c0,0.1-0.1,0.2-0.3,0.2c-0.3,0-0.6,0-0.8,0.2c-0.2,0.2-0.4,0.6-0.6,1.4c-0.2,0.7-0.4,1.5-0.6,2.3c-0.3,1.4-0.4,2.3-0.4,2.8
		c0,0.5,0.2,0.9,0.5,1.3c0.3,0.4,0.8,0.6,1.5,0.8c0.7,0.1,1.2,0.1,1.6-0.1c0.4-0.2,0.7-0.7,1-1.3c0.3-0.6,0.6-1.8,1-3.6
		c0.2-1.1,0.3-1.8,0.2-2.2c-0.1-0.4-0.3-0.7-0.6-0.8c-0.3-0.1-0.4-0.2-0.3-0.3c0-0.1,0.2-0.2,0.4-0.1c0.1,0,0.3,0.1,0.5,0.2
		c0.2,0.1,0.5,0.1,0.8,0.2c0.3,0.1,0.5,0.1,0.9,0.1c0.2,0,0.4,0.1,0.5,0.1c0.2,0,0.3,0.1,0.3,0.3c0,0.1-0.1,0.2-0.3,0.1
		c-0.2,0-0.5,0-0.7,0.2c-0.2,0.2-0.4,0.5-0.6,0.9c-0.1,0.5-0.4,1.6-0.8,3.6c-0.3,1.3-0.6,2.2-0.9,2.7c-0.4,0.5-0.9,0.9-1.5,1.1
		c-0.6,0.2-1.4,0.2-2.3,0c-0.7-0.1-1.2-0.3-1.7-0.6c-0.5-0.2-0.8-0.5-1.1-0.8c-0.2-0.3-0.4-0.7-0.4-1.1c-0.1-0.4,0-0.9,0.1-1.6
		l0.9-3.9c0.1-0.5,0.2-1,0.2-1.4c0-0.4,0-0.6-0.1-0.7c-0.1-0.1-0.3-0.3-0.5-0.3c-0.2-0.1-0.2-0.1-0.3-0.1c0,0,0-0.1,0-0.2
		C128.9,16.7,129,16.6,129.2,16.7z"/>
	<path class="st16" d="M148,22.2l-0.4,2.1c0,0.1,0,0.2-0.1,0.2c0,0.1-0.1,0.2-0.2,0.2c-0.1,0-0.2-0.1-0.2-0.3
		c-0.1-0.9-0.4-1.6-0.8-2.3c-0.4-0.6-1-1.1-1.7-1.3c-0.9-0.3-1.8-0.1-2.6,0.6c-0.8,0.7-1.3,1.6-1.7,2.8c-0.4,1.3-0.4,2.4,0,3.4
		c0.4,1,0.9,1.6,1.7,1.8c0.3,0.1,0.7,0.1,1.1,0c0.4-0.1,0.7-0.2,0.8-0.3c0.2-0.2,0.3-0.4,0.4-0.8c0.2-0.8,0.3-1.3,0.3-1.5
		c0-0.2-0.1-0.4-0.2-0.5c-0.1-0.1-0.4-0.3-0.8-0.4c-0.2-0.1-0.2-0.2-0.2-0.3c0-0.1,0.1-0.2,0.3-0.1l1,0.3l3.1,0.8
		c0.1,0,0.2,0.1,0.2,0.2c0,0.1-0.1,0.1-0.1,0.1c-0.1,0-0.3,0-0.6,0c-0.3,0-0.4,0-0.5,0.1c-0.1,0.1-0.4,0.8-0.8,2.1
		c-0.1,0.3-0.2,0.5-0.2,0.5c0,0-0.3,0.1-0.9,0.3c-0.6,0.1-1.2,0.2-1.8,0.2c-0.6,0-1.1-0.1-1.7-0.3c-0.9-0.3-1.7-0.7-2.3-1.3
		c-0.6-0.6-1-1.3-1.3-2.1c-0.2-0.8-0.2-1.7,0.1-2.7c0.4-1.4,1.2-2.4,2.3-3.2c1.2-0.7,2.5-0.9,4.1-0.5c0.5,0.2,1,0.4,1.4,0.6
		c0.4,0.3,0.8,0.6,1.3,1c0.1,0.1,0.2,0.1,0.3,0.2c0.1,0,0.2,0,0.3-0.1c0.1-0.2,0.2-0.2,0.3-0.2C148,21.7,148,21.9,148,22.2z"/>
	<path class="st16" d="M155,28.6l0.8-2.1c0.2-0.6,0.3-1,0.3-1.3c0-0.3-0.2-0.5-0.6-0.7c-0.3-0.1-0.4-0.2-0.4-0.4
		c0.1-0.1,0.2-0.2,0.3-0.1c0.2,0.1,0.5,0.2,0.9,0.4c0.5,0.2,0.8,0.3,0.9,0.4c0.7,0.3,1.4,0.5,2,0.6c0.1,0,0.2,0.1,0.2,0.1
		c0.2,0.1,0.2,0.2,0.2,0.3c-0.1,0.1-0.2,0.2-0.4,0.1c-0.3-0.1-0.5-0.1-0.7-0.1c-0.2,0-0.3,0.1-0.4,0.3c-0.1,0.2-0.4,0.8-0.8,1.8
		c-0.4,1-0.7,1.8-0.8,2.2c-0.6,1.6-1,2.7-1.1,3c-0.1,0.4-0.1,0.7,0,0.9c0.1,0.2,0.3,0.4,0.6,0.5c0.2,0.1,0.3,0.2,0.2,0.3
		c0,0.1-0.1,0.2-0.3,0.1c-0.1,0-0.2-0.1-0.3-0.1l-1.8-0.7c-0.1,0-0.3-0.1-0.6-0.2c-0.6-0.2-1-0.3-1.2-0.4c-0.2-0.1-0.2-0.2-0.2-0.3
		c0-0.1,0.1-0.2,0.3-0.1c0.3,0.1,0.6,0.1,0.7,0.1c0.2-0.1,0.4-0.3,0.6-0.7c0.2-0.4,0.6-1.2,1-2.5c0-0.1,0.1-0.3,0.2-0.6
		c-0.8-0.3-1.4-0.6-2-0.8c-0.7-0.2-1.2-0.4-1.6-0.5c-0.4,0.9-0.7,1.8-1,2.5c-0.2,0.5-0.3,0.9-0.2,1.2c0,0.3,0.2,0.4,0.6,0.6
		c0.2,0.1,0.2,0.2,0.2,0.3c0,0.1-0.2,0.2-0.3,0.1c-0.1,0-0.2-0.1-0.3-0.1c-0.5-0.2-1-0.5-1.6-0.7c-0.3-0.1-0.6-0.2-1.1-0.3
		c-0.3-0.1-0.5-0.2-0.6-0.2c-0.2-0.1-0.3-0.2-0.3-0.3c0-0.1,0.2-0.1,0.3-0.1c0.3,0.1,0.6,0.1,0.8,0c0.2-0.1,0.3-0.3,0.5-0.6
		c0.2-0.3,0.6-1.2,1.1-2.7c0.6-1.5,0.9-2.4,0.9-2.5c0.3-0.7,0.4-1.2,0.5-1.5c0.1-0.3,0.1-0.6,0-0.7c-0.1-0.1-0.2-0.3-0.4-0.4
		c-0.2-0.1-0.3-0.2-0.3-0.2c0,0,0-0.1,0-0.2c0.1-0.1,0.2-0.2,0.3-0.1c0.2,0.1,0.5,0.2,0.9,0.4c0.2,0.1,0.5,0.2,0.8,0.3l1.9,0.6
		c0.2,0.1,0.3,0.2,0.2,0.3c-0.1,0.1-0.2,0.2-0.3,0.1c-0.3-0.1-0.5-0.1-0.6-0.1c-0.1,0-0.3,0.2-0.4,0.4c-0.1,0.2-0.3,0.6-0.5,1.2
		l-0.7,2c0.5,0.3,1.1,0.5,1.7,0.7C153.8,28.3,154.4,28.5,155,28.6z"/>
</g>
<path class="st16" d="M84.2,188v6.2c0,0.9,0.1,1.4,0.2,1.7c0.1,0.3,0.4,0.4,0.8,0.5c0.3,0.1,0.5,0.1,0.5,0.2c0.1,0,0.1,0.1,0.1,0.2
	c0,0.1-0.1,0.2-0.3,0.2c0,0-0.1,0-0.2,0c-0.9-0.2-1.6-0.4-2-0.5c-0.5-0.1-1.1-0.2-2-0.3c-0.3,0-0.5-0.1-0.6-0.1
	c-0.2,0-0.3-0.1-0.3-0.3c0-0.1,0-0.1,0.1-0.2c0.1,0,0.3,0,0.5,0c0.4,0,0.6,0,0.8-0.1c0.2-0.1,0.3-0.2,0.3-0.4c0-0.1,0.1-0.5,0.1-1
	v-3.7c0-0.6,0-1.1-0.1-1.3c-0.1-0.3-0.2-0.5-0.4-0.6c-0.2-0.1-0.4-0.3-0.8-0.4c-0.3-0.1-0.5-0.2-0.5-0.2c-0.1,0-0.1-0.1-0.1-0.2
	c0-0.1,0-0.2,0.1-0.2c0.1,0,0.2,0,0.5,0c1.1,0.1,2,0.1,2.9-0.1c0.1,0,0.2,0,0.2,0C84.1,187.5,84.2,187.6,84.2,188z"/>
<path class="st16" d="M93.9,193c0.6,0.3,1.1,0.7,1.5,1.1c0.3,0.4,0.5,0.9,0.5,1.4c0,0.8-0.4,1.4-1.1,1.8c-0.7,0.5-1.6,0.7-2.7,0.6
	c-1-0.1-1.8-0.4-2.4-0.8c-0.6-0.5-1-1-1-1.5c0-0.4,0.2-0.7,0.5-1.1c0.3-0.4,0.8-0.7,1.5-0.9c-0.6-0.3-1-0.6-1.3-1
	c-0.3-0.4-0.4-0.8-0.4-1.2c0-0.8,0.3-1.4,1-1.8c0.7-0.4,1.5-0.6,2.5-0.5c0.9,0.1,1.7,0.3,2.2,0.7c0.6,0.4,0.8,0.9,0.8,1.4
	c0,0.3-0.1,0.7-0.4,0.9C94.9,192.3,94.5,192.6,93.9,193z M93.2,192.6c0.3-0.2,0.5-0.4,0.7-0.6c0.2-0.3,0.3-0.6,0.3-0.9
	c0-0.3-0.2-0.7-0.5-1c-0.3-0.4-0.8-0.6-1.4-0.6c-0.6,0-1,0.1-1.3,0.3c-0.3,0.3-0.5,0.6-0.5,0.9c0,0.2,0.1,0.5,0.3,0.7
	c0.2,0.3,0.8,0.6,1.6,0.9C92.9,192.5,93.1,192.6,93.2,192.6z M91.3,193.8c-0.4,0.2-0.7,0.5-0.9,0.8c-0.2,0.3-0.3,0.6-0.3,1
	c0,0.5,0.2,0.9,0.6,1.2c0.4,0.3,0.9,0.5,1.4,0.6c0.7,0.1,1.1-0.1,1.5-0.4c0.3-0.3,0.5-0.6,0.5-1.1c0-0.3-0.1-0.6-0.4-0.9
	C93.5,194.8,92.7,194.4,91.3,193.8z"/>
<path class="st16" d="M104.3,190.1l-3.1,0.4c-0.8,0.1-1.3,0.2-1.6,0.3c-0.2,0.1-0.5,0.4-0.8,0.7c-0.2,0.3-0.4,0.5-0.5,0.5
	c-0.2,0-0.2,0-0.2-0.2c0-0.2,0.1-0.7,0.3-1.5c0.2-0.8,0.4-1.4,0.5-1.5c0.1-0.2,0.2-0.3,0.3-0.3c0.1,0,0.2,0,0.3,0.2
	c0.1,0.1,0.2,0.2,0.3,0.2c0.1,0,0.6,0,1.3-0.1c0.7-0.1,1.1-0.1,1.2-0.2l3.5-0.5c-0.1,0.2-0.2,0.5-0.4,0.9c-0.8,1.4-1.3,2.5-1.5,3.4
	c-0.3,0.9-0.4,1.9-0.5,3c0,0.7-0.1,1.3-0.3,1.6c-0.2,0.3-0.5,0.5-1,0.6c-0.3,0-0.6,0-0.8-0.2c-0.2-0.2-0.3-0.4-0.3-0.7
	c0-0.3,0.1-0.7,0.3-1.2c0.2-0.5,0.6-1.3,1.2-2.3L104.3,190.1z"/>
<path class="st16" d="M109.9,191.1c0.3-0.3,0.7-0.5,1-0.6c0.4-0.2,0.7-0.3,1.1-0.4c0.9-0.2,1.7-0.1,2.4,0.3c0.7,0.4,1,1,1,1.8
	c0,0.9-0.4,1.7-1.1,2.4c-0.7,0.7-1.7,1.2-2.8,1.4c-1.3,0.3-2.3,0.1-3-0.5c-0.7-0.6-1.1-1.5-1.1-2.6c0-1.4,0.5-2.8,1.5-4
	c1-1.2,2.3-2,3.9-2.3c0.9-0.2,1.6-0.2,2,0c0.5,0.2,0.7,0.5,0.7,1c0,0.3-0.1,0.6-0.4,0.8c-0.2,0.3-0.5,0.4-0.8,0.5
	c-0.3,0.1-0.6,0-0.8-0.1c-0.2-0.2-0.3-0.4-0.3-0.7l0-0.5c0-0.3-0.2-0.5-0.7-0.4c-0.6,0.1-1.2,0.5-1.7,1.2
	C110.4,189,110.1,189.9,109.9,191.1z M113.1,192.8c0-0.8-0.1-1.3-0.4-1.7c-0.3-0.3-0.7-0.4-1.2-0.3c-0.6,0.1-1,0.4-1.3,0.9
	c-0.3,0.5-0.5,1-0.5,1.7c0,0.8,0.2,1.3,0.5,1.7c0.3,0.4,0.7,0.5,1.2,0.4c0.5-0.1,0.9-0.4,1.2-0.9
	C112.9,194.1,113.1,193.5,113.1,192.8z"/>
<path class="st16" d="M20.9,175.4l0.9,1.5l0,0.1c0,0.1,0,0.2,0,0.2c0,0-0.1,0-0.2-0.1c-0.4-0.3-0.9-0.5-1.3-0.6
	c-0.4-0.1-1,0-1.8,0.3c-0.5,0.2-0.8,0.4-0.8,0.5c0,0.1,0.3,1,1,2.6c0.4-0.2,0.7-0.3,0.9-0.4c0.2-0.1,0.3-0.3,0.4-0.5
	c0.1-0.2,0.1-0.5,0-0.9c0-0.1,0-0.2,0.1-0.2c0.1,0,0.2,0,0.2,0.1l0.6,1.7c0.2,0.6,0.3,0.9,0.3,1c0,0.1,0,0.1-0.1,0.1
	c-0.1,0-0.2,0-0.2-0.1c-0.2-0.3-0.4-0.5-0.6-0.6c-0.3-0.1-0.7,0-1.4,0.2l0.8,2c0.2,0.4,0.3,0.6,0.4,0.8c0.1,0.1,0.2,0.2,0.4,0.2
	c0.1,0,0.3,0,0.6-0.1c0.2-0.1,0.3-0.1,0.3-0.1c0.1,0,0.1,0,0.1,0.1c0,0.1,0,0.2-0.2,0.3c-0.1,0.1-0.4,0.2-0.8,0.3
	c-0.4,0.1-0.6,0.2-0.8,0.3l-1.6,0.7c-0.2,0.1-0.3,0.1-0.3-0.1c0-0.1,0-0.2,0.2-0.3c0.4-0.2,0.5-0.4,0.5-0.7
	c-0.1-0.3-0.5-1.5-1.2-3.4c-0.5-1.2-0.8-2-1-2.2c-0.2-0.2-0.5-0.2-0.8-0.1l-0.1,0.1c-0.1,0.1-0.2,0-0.3-0.1c0-0.1,0-0.2,0.2-0.3
	L20.9,175.4z"/>
<path class="st16" d="M24.5,173.2c0.7-0.4,1.3-0.6,2-0.6c0.7,0,1.3,0.2,1.9,0.5c0.6,0.3,1,0.8,1.4,1.4c0.5,0.9,0.6,1.9,0.3,3.1
	c-0.3,1.1-1,1.9-2,2.5c-0.9,0.5-1.9,0.7-2.9,0.4c-1-0.2-1.8-0.8-2.3-1.9c-0.5-1-0.6-2-0.3-3C22.8,174.6,23.4,173.8,24.5,173.2z
	 M28.1,175.7c-0.6-1-1.1-1.7-1.8-2c-0.6-0.3-1.2-0.3-1.7,0c-0.5,0.3-0.8,0.8-0.9,1.5c-0.1,0.7,0.2,1.5,0.7,2.5c0.5,1,1.1,1.6,1.7,2
	c0.6,0.3,1.2,0.4,1.8,0.1c0.5-0.3,0.8-0.7,0.9-1.4C28.9,177.6,28.7,176.7,28.1,175.7z"/>
<path class="st16" d="M31.7,169c0.7-0.4,1.3-0.6,1.9-0.7c0.7,0,1.3,0.1,1.9,0.4c0.6,0.3,1.1,0.8,1.5,1.3c0.6,0.9,0.7,1.9,0.5,3
	c-0.2,1.1-0.9,2-1.8,2.6c-0.9,0.6-1.9,0.8-2.9,0.6c-1-0.2-1.8-0.8-2.4-1.7c-0.6-0.9-0.7-1.9-0.5-3C30.1,170.5,30.7,169.6,31.7,169z
	 M35.4,171.2c-0.6-1-1.2-1.6-1.9-1.9c-0.6-0.3-1.2-0.3-1.7,0c-0.5,0.3-0.8,0.8-0.8,1.5c0,0.7,0.3,1.5,0.9,2.5
	c0.6,0.9,1.2,1.6,1.8,1.9c0.6,0.3,1.2,0.3,1.8,0c0.5-0.3,0.7-0.8,0.8-1.5C36.3,173.1,36,172.3,35.4,171.2z"/>
<path class="st16" d="M35.4,166.6c1.7-1,2.9-1.8,3.7-2.3c0.6-0.4,1.3-0.8,2-1.3c0.3-0.2,0.5-0.3,0.6-0.4c0.1,0,0.2-0.1,0.3-0.2
	c0.1,0.1,0.3,0.4,0.6,0.8l0.6,0.7c0.1,0.1,0.1,0.2,0,0.3c-0.1,0.1-0.2,0-0.4-0.1c-0.3-0.2-0.6-0.3-0.9-0.4c-0.3-0.1-0.6,0-0.9,0.1
	c-0.3,0.1-0.7,0.3-1.3,0.7c0.3,0.5,0.6,1.2,1.1,1.9c0.5,0.8,1,1.5,1.4,2.2c0.5,0.7,0.8,1.1,0.9,1.2c0.1,0.1,0.3,0.2,0.4,0.2
	c0.1,0,0.4-0.1,0.8-0.3c0.1-0.1,0.2-0.1,0.3,0c0.1,0.1,0,0.2-0.1,0.2l-0.1,0.1l-1,0.6c-0.8,0.5-1.2,0.8-1.4,0.9l-0.6,0.4
	c0,0-0.1,0.1-0.3,0.2c-0.1,0-0.1,0-0.2,0c-0.1-0.1,0-0.2,0.1-0.3c0.3-0.2,0.5-0.4,0.5-0.6c0.1-0.2,0-0.5-0.1-0.7
	c-0.1-0.3-0.5-0.9-1-1.7c-0.9-1.4-1.6-2.4-2.2-3.2c-0.5,0.3-0.9,0.6-1.1,0.8c-0.2,0.2-0.4,0.5-0.5,0.8c-0.1,0.3-0.1,0.7-0.1,1.1
	c0,0.2,0,0.3-0.1,0.3c-0.1,0.1-0.2,0.1-0.3,0c0,0-0.1-0.3-0.3-0.7C35.7,167.2,35.5,166.9,35.4,166.6z"/>
<path class="st16" d="M48.3,162.8c0.8-0.2,1.4-0.3,1.9-0.2c0.5,0.1,0.9,0.4,1.1,0.9c0.2,0.4,0.3,0.8,0.2,1.2
	c-0.1,0.4-0.3,0.8-0.6,1.1c-0.3,0.3-0.8,0.6-1.5,1c-0.2,0.1-0.4,0.2-0.8,0.4c-0.3,0.1-0.5,0.3-0.7,0.4c-0.2,0.1-0.5,0.3-0.9,0.6
	c-0.1,0.1-0.3,0.2-0.3,0.2c-0.1,0.1-0.2,0.1-0.3,0c0-0.1,0-0.1,0.1-0.2c0.2-0.1,0.3-0.3,0.4-0.4c0.1-0.1,0.1-0.2,0.1-0.4
	c0-0.1-0.1-0.3-0.2-0.6l-1.2-2.3c-0.4-0.7-0.7-1.3-1-1.7c-0.3-0.4-0.4-0.7-0.6-0.8c-0.1-0.1-0.2-0.2-0.3-0.2c-0.1,0-0.2,0-0.4,0.1
	c-0.1,0.1-0.2,0.1-0.3,0.1c0,0-0.1,0-0.1-0.1c0-0.1,0-0.1,0-0.2c0.1-0.1,0.3-0.2,0.6-0.4c0.7-0.4,1.3-0.7,1.8-1.1
	c0.3-0.2,0.6-0.4,0.8-0.5c0.6-0.3,1.2-0.5,1.7-0.4c0.5,0.1,0.9,0.3,1.1,0.8C49.6,161,49.3,161.8,48.3,162.8z M46.9,163.5
	c1.1-0.6,1.4-1.4,0.9-2.4c-0.2-0.4-0.5-0.7-0.8-0.8c-0.3-0.1-0.6-0.1-0.9,0.1c-0.2,0.1-0.4,0.3-0.6,0.5c0.2,0.3,0.3,0.7,0.5,1.1
	C46.2,162.3,46.5,162.8,46.9,163.5z M47.1,163.9c0.4,0.7,0.7,1.3,0.9,1.8c0.3,0.6,0.6,1,0.7,1c0.1,0.1,0.3,0,0.5-0.1
	c0.5-0.3,0.8-0.6,0.9-1c0.1-0.4,0-0.8-0.2-1.3c-0.2-0.4-0.6-0.7-1-0.9c-0.4-0.2-0.9-0.1-1.4,0.2C47.5,163.7,47.3,163.8,47.1,163.9z"
	/>
<path class="st16" d="M52.4,156.6l0.4-0.2c0.9,0.8,2.3,2,4.1,3.7c0.8,0.8,1.4,1.3,1.6,1.4c0.2,0.1,0.5,0.2,0.9,0.1
	c0.1,0,0.2,0,0.2,0.1c0,0.1,0,0.2-0.1,0.3c-0.1,0-0.3,0.1-0.6,0.2c-0.4,0.1-0.7,0.3-0.9,0.4c-0.2,0.1-0.5,0.3-0.9,0.5
	c-0.3,0.2-0.5,0.3-0.5,0.3c-0.2,0.1-0.3,0.1-0.3,0c0-0.1,0-0.1,0.1-0.2c0.4-0.2,0.5-0.5,0.4-0.8c-0.1-0.1-0.2-0.4-0.5-0.7
	c-0.3-0.3-0.6-0.6-0.9-0.8c-0.2,0.1-0.4,0.2-0.5,0.2c-0.7,0.3-1.2,0.6-1.6,0.8c0.1,1,0.2,1.6,0.3,1.8c0.1,0.2,0.2,0.3,0.4,0.3
	c0.2,0,0.4,0,0.6,0c0.1,0,0.2,0,0.3,0.1c0,0.1,0,0.2-0.1,0.2c-0.1,0-0.2,0.1-0.4,0.2c-0.3,0.1-0.5,0.2-0.7,0.3
	c-0.3,0.1-0.5,0.3-0.8,0.4c-0.1,0-0.1,0.1-0.1,0.1c-0.1,0.1-0.2,0-0.3-0.1c0-0.1,0-0.1,0.1-0.2c0.2-0.2,0.3-0.3,0.4-0.4
	c0.1-0.1,0.1-0.4,0.1-0.7c0-0.3,0-0.8-0.1-1.4C52.7,161,52.5,159,52.4,156.6z M52.9,158.6l0.2,2.7l1.8-0.9c-0.2-0.2-0.5-0.5-1-0.9
	C53.5,159.1,53.1,158.8,52.9,158.6z"/>
<path class="st16" d="M66.2,159.6c-0.9,0.2-2.3,0.7-4.2,1.3c-0.7,0.2-1.2,0.4-1.6,0.6c-0.1,0-0.2,0.1-0.2,0.1c-0.1,0-0.2,0-0.3-0.1
	c0-0.1,0-0.1,0-0.1c0,0,0.1-0.1,0.2-0.2c0.2-0.1,0.4-0.2,0.5-0.4c0.1-0.1,0.1-0.3,0.1-0.5c0-0.2-0.1-0.7-0.4-1.5
	c-0.3-0.8-0.6-1.8-0.9-2.9c-0.1-0.4-0.3-0.8-0.4-0.9c-0.1-0.2-0.3-0.3-0.4-0.3c-0.1-0.1-0.3-0.1-0.6,0c-0.2,0-0.3,0-0.3-0.1
	c0-0.1,0-0.2,0.2-0.2l1.8-0.5c0.3-0.1,0.7-0.2,1.2-0.4c0.2-0.1,0.3-0.1,0.4-0.1c0.2,0,0.2,0,0.3,0.1c0,0.1,0,0.1,0,0.1
	c0,0-0.2,0.1-0.3,0.2c-0.2,0.1-0.4,0.2-0.5,0.4c-0.1,0.1-0.1,0.3,0,0.5c0,0.2,0.2,0.7,0.4,1.5l1.1,3.3c0.2,0.5,0.3,0.8,0.4,0.9
	c0.1,0.1,0.3,0.1,0.5,0c0.6-0.2,1-0.4,1.3-0.6c0.3-0.2,0.5-0.4,0.7-0.8c0.2-0.3,0.3-0.8,0.4-1.5c0-0.1,0.1-0.2,0.1-0.2
	c0.1,0,0.2,0,0.2,0.1C65.9,157.4,66,158.2,66.2,159.6z"/>
<path class="st16" d="M73.2,158.2c-0.9,0.1-2.4,0.4-4.4,0.8c-0.7,0.1-1.2,0.3-1.7,0.4c-0.1,0-0.2,0-0.2,0.1c-0.1,0-0.2,0-0.2-0.1
	c0-0.1,0-0.1,0-0.1c0,0,0.1-0.1,0.3-0.1c0.2-0.1,0.4-0.2,0.5-0.3c0.1-0.1,0.2-0.3,0.2-0.5c0-0.2-0.1-0.7-0.2-1.6
	c-0.2-0.8-0.3-1.8-0.6-3c-0.1-0.5-0.2-0.8-0.3-1c-0.1-0.2-0.2-0.3-0.4-0.4c-0.1-0.1-0.3-0.1-0.6-0.1c-0.2,0-0.3,0-0.3-0.1
	c0-0.1,0.1-0.2,0.2-0.2l1.9-0.3c0.3-0.1,0.7-0.1,1.2-0.3c0.2,0,0.3-0.1,0.4-0.1c0.2,0,0.2,0,0.3,0.1c0,0.1,0,0.1-0.1,0.1
	c0,0-0.2,0.1-0.4,0.2c-0.2,0.1-0.4,0.2-0.5,0.3c-0.1,0.1-0.1,0.3-0.1,0.5c0,0.2,0.1,0.8,0.3,1.6l0.7,3.4c0.1,0.5,0.2,0.8,0.3,0.9
	c0.1,0.1,0.3,0.1,0.5,0c0.6-0.1,1.1-0.3,1.3-0.4c0.3-0.2,0.5-0.4,0.7-0.7c0.2-0.3,0.4-0.8,0.6-1.4c0-0.1,0.1-0.2,0.2-0.2
	c0.1,0,0.2,0,0.2,0.1C73.2,156,73.2,156.8,73.2,158.2z"/>
<path class="st16" d="M144.1,159.3c0.1-0.1,0.2-0.1,0.4-0.2c0.2-0.1,0.3-0.1,0.3-0.1c0.1,0,0.1,0.1,0.1,0.1c0,0,0,0.2-0.1,0.3
	l-0.7,1.6l-0.1,0.2c-0.1,0.1-0.2,0.2-0.3,0.1c-0.1,0-0.1-0.1-0.1-0.3c0-0.4,0-1-0.2-1.6c-0.1-0.6-0.5-1.1-1-1.3
	c-0.4-0.2-0.8-0.2-1.2-0.1c-0.4,0.1-0.8,0.3-1.1,0.7c-0.4,0.3-0.7,0.8-1,1.4c-0.5,1-0.6,1.9-0.5,2.7c0.2,0.8,0.5,1.3,1.2,1.7
	c0.7,0.3,1.5,0.2,2.5-0.3c0.1-0.1,0.2-0.1,0.3-0.1c0.1,0.1,0.1,0.1,0.1,0.2c-0.1,0.2-0.6,0.5-1.3,0.7c-0.8,0.2-1.6,0.1-2.4-0.2
	c-1.1-0.5-1.8-1.3-2.1-2.2c-0.3-1-0.2-1.9,0.3-2.9c0.5-1,1.2-1.6,2.2-2c1-0.4,1.9-0.4,2.9,0.1C143,158,143.6,158.5,144.1,159.3z"/>
<path class="st16" d="M147.8,169.5c-0.8-0.5-2.1-1.3-3.8-2.3c-0.6-0.3-1.1-0.6-1.5-0.8c-0.1,0-0.2-0.1-0.2-0.1
	c-0.1-0.1-0.2-0.2-0.1-0.3c0,0,0.1-0.1,0.1-0.1c0,0,0.1,0,0.3,0.1c0.2,0.1,0.4,0.1,0.6,0.1c0.2,0,0.3-0.1,0.5-0.3
	c0.2-0.2,0.4-0.6,0.9-1.3c0.4-0.7,0.9-1.6,1.5-2.6c0.2-0.4,0.4-0.7,0.4-0.9c0-0.2,0-0.4,0-0.5c-0.1-0.1-0.2-0.3-0.4-0.4
	c-0.1-0.1-0.2-0.2-0.1-0.3c0.1-0.1,0.2-0.1,0.3,0l1.6,1c0.3,0.1,0.6,0.3,1.1,0.6c0.2,0.1,0.3,0.1,0.3,0.2c0.1,0.1,0.2,0.2,0.1,0.3
	c0,0.1-0.1,0.1-0.1,0.1c-0.1,0-0.2,0-0.4-0.1c-0.2-0.1-0.4-0.1-0.6-0.1c-0.1,0-0.3,0.1-0.4,0.3c-0.1,0.2-0.4,0.6-0.8,1.3l-1.7,3
	c-0.3,0.5-0.4,0.8-0.4,0.9c0,0.1,0.2,0.3,0.4,0.4c0.5,0.3,1,0.5,1.3,0.6c0.3,0.1,0.7,0.1,1,0c0.4-0.1,0.8-0.3,1.4-0.7
	c0.1-0.1,0.2-0.1,0.3-0.1c0.1,0.1,0.1,0.1,0.1,0.2C149.2,167.8,148.7,168.4,147.8,169.5z"/>
<path class="st16" d="M152,163.3l1.5,1c0.1,0.1,0.3,0.2,0.5,0.3c0.3,0.2,0.6,0.3,0.7,0.4c0.2,0.1,0.2,0.2,0.2,0.3
	c-0.1,0.1-0.1,0.1-0.3,0c-0.2-0.1-0.5-0.2-0.7-0.1c-0.2,0.1-0.5,0.3-0.8,0.8c-0.3,0.5-0.7,1-1,1.5c-0.6,0.9-0.9,1.6-1,1.9
	c-0.1,0.4-0.1,0.7,0.1,1.1c0.2,0.4,0.5,0.7,1,1c0.5,0.3,0.9,0.4,1.3,0.4c0.4-0.1,0.7-0.3,1.1-0.7c0.4-0.4,0.9-1.2,1.7-2.3
	c0.4-0.7,0.7-1.2,0.7-1.6c0.1-0.3,0-0.6-0.3-0.8c-0.2-0.1-0.2-0.3-0.2-0.3c0.1-0.1,0.2-0.1,0.3,0c0.1,0,0.2,0.1,0.4,0.3
	c0.2,0.1,0.4,0.3,0.5,0.4c0.2,0.1,0.4,0.2,0.6,0.3c0.2,0.1,0.3,0.2,0.4,0.2c0.2,0.1,0.2,0.2,0.2,0.3c0,0.1-0.1,0.1-0.3,0
	c-0.2-0.1-0.4-0.1-0.6,0c-0.2,0.1-0.4,0.2-0.7,0.5c-0.2,0.3-0.7,1.1-1.5,2.3c-0.5,0.8-1,1.4-1.4,1.7c-0.4,0.3-0.9,0.4-1.4,0.3
	c-0.5-0.1-1.1-0.3-1.7-0.7c-0.5-0.3-0.9-0.6-1.2-0.9c-0.3-0.3-0.5-0.6-0.6-0.9c-0.1-0.3-0.1-0.6-0.1-0.9c0.1-0.3,0.2-0.7,0.5-1.1
	l1.6-2.6c0.2-0.4,0.4-0.7,0.5-0.9c0.1-0.3,0.1-0.4,0.1-0.6c0-0.1-0.1-0.3-0.3-0.4c-0.1-0.1-0.2-0.1-0.2-0.2c0,0,0-0.1,0-0.1
	C151.8,163.2,151.9,163.2,152,163.3z"/>
<path class="st16" d="M161.4,173.4c0.6,0.6,0.9,1.1,1.1,1.6c0.2,0.5,0.1,1-0.2,1.4c-0.2,0.4-0.6,0.6-1,0.8c-0.4,0.1-0.8,0.2-1.3,0
	c-0.4-0.1-1-0.4-1.6-0.8c-0.2-0.1-0.4-0.3-0.8-0.5c-0.3-0.2-0.5-0.3-0.7-0.4c-0.2-0.1-0.5-0.3-0.9-0.5c-0.2-0.1-0.3-0.1-0.3-0.2
	c-0.1-0.1-0.2-0.2-0.1-0.3c0-0.1,0.1-0.1,0.2,0c0.2,0.1,0.4,0.2,0.5,0.2c0.1,0,0.2,0,0.4-0.1c0.1-0.1,0.3-0.2,0.4-0.4l1.4-2.2
	c0.4-0.7,0.8-1.3,1-1.7c0.2-0.4,0.4-0.7,0.4-0.9c0-0.1,0-0.3,0-0.4c0-0.1-0.1-0.2-0.3-0.3c-0.1-0.1-0.2-0.2-0.2-0.2c0,0,0-0.1,0-0.1
	c0-0.1,0.1-0.1,0.2-0.1c0.1,0,0.3,0.2,0.7,0.4c0.6,0.4,1.3,0.8,1.8,1.1c0.3,0.2,0.6,0.3,0.8,0.5c0.6,0.4,1,0.8,1.2,1.3
	c0.2,0.5,0.1,0.9-0.1,1.4C163.7,173.6,162.8,173.8,161.4,173.4z M160.2,172.5c1.1,0.7,2,0.6,2.6-0.4c0.3-0.4,0.4-0.8,0.3-1.1
	c-0.1-0.3-0.2-0.6-0.5-0.7c-0.2-0.1-0.4-0.2-0.8-0.3c-0.2,0.3-0.5,0.6-0.7,1C160.9,171.2,160.6,171.8,160.2,172.5z M159.9,172.9
	c-0.5,0.7-0.8,1.2-1.1,1.7c-0.4,0.6-0.6,1-0.6,1.1c0,0.1,0.1,0.3,0.4,0.4c0.5,0.3,0.9,0.4,1.3,0.3c0.4-0.1,0.7-0.4,1-0.8
	c0.3-0.4,0.4-0.9,0.3-1.3c-0.1-0.4-0.3-0.8-0.8-1.1C160.3,173.1,160.1,173,159.9,172.9z"/>
<g>
	<defs>
		<path id="SVGID_13_" d="M180,164.7c0,0,2.2,2.2,4.6,3.8c0.4,0.3,0.2,0.6,0.2,0.6s-3.8,4.4-3.8,4.4c0.5-0.6,2.3-4,2.3-4
			s0.2-0.5-0.1-0.9C182.5,167.7,180.4,165.2,180,164.7z"/>
	</defs>
	<clipPath id="SVGID_14_">
		<use xlink:href="#SVGID_13_"  style="overflow:visible;"/>
	</clipPath>
	<g class="st17">
		<linearGradient id="SVGID_15_" gradientUnits="userSpaceOnUse" x1="179.9536" y1="169.1595" x2="184.8913" y2="169.1595">
			<stop  offset="0" style="stop-color:#FFFFFF"/>
			<stop  offset="1" style="stop-color:#6D6E71"/>
		</linearGradient>
		<rect x="180" y="164.7" class="st18" width="4.9" height="8.9"/>
	</g>
</g>
<g>
	<defs>
		<path id="SVGID_16_" d="M13.2,164.7c0,0-2.2,2.2-4.6,3.8c-0.4,0.3-0.2,0.6-0.2,0.6s3.8,4.4,3.8,4.4c-0.5-0.6-2.3-4-2.3-4
			s-0.2-0.5,0.1-0.9C10.7,167.7,12.8,165.2,13.2,164.7z"/>
	</defs>
	<clipPath id="SVGID_17_">
		<use xlink:href="#SVGID_16_"  style="overflow:visible;"/>
	</clipPath>
	<g class="st19">
		
			<linearGradient id="SVGID_18_" gradientUnits="userSpaceOnUse" x1="-7176.9731" y1="169.1595" x2="-7172.0356" y2="169.1595" gradientTransform="matrix(-1 0 0 1 -7163.6982 0)">
			<stop  offset="0" style="stop-color:#FFFFFF"/>
			<stop  offset="1" style="stop-color:#6D6E71"/>
		</linearGradient>
		<rect x="8.3" y="164.7" class="st20" width="4.9" height="8.9"/>
	</g>
</g>
<g>
	<defs>
		<path id="SVGID_19_" d="M182.3,176.3c1.5,0.4,2.2,0.3,3.5,0.2c0.8-0.1,2.3-0.9,1.9,0.1c-1.1,2.9-2.9,5.8-4.2,8.6
			c-0.4,0.8,0.3-1.1,1-3.2c0.3-0.9,0.7-1.9,1-2.8c0.1-0.5,0.3-1.2-0.2-1.4C184.8,177.6,182.7,176.6,182.3,176.3z"/>
	</defs>
	<clipPath id="SVGID_20_">
		<use xlink:href="#SVGID_19_"  style="overflow:visible;"/>
	</clipPath>
	<linearGradient id="SVGID_21_" gradientUnits="userSpaceOnUse" x1="182.2315" y1="180.6674" x2="187.7771" y2="180.6674">
		<stop  offset="0" style="stop-color:#FFFFFF"/>
		<stop  offset="1" style="stop-color:#6D6E71"/>
	</linearGradient>
	<rect x="182.2" y="176" class="st21" width="5.5" height="9.2"/>
</g>
<g>
	<defs>
		<path id="SVGID_22_" d="M191.8,171.2l0.4-0.8c0.5-1.2,1.1-2.9-1.3-5.9c-4-4.3-9.9-5.7-11-3.8c-0.8,1.7,0.9,3.9,3.2,5.7
			c1.9,1.5,3.7,2.1,3.7,2.1l-5.3,6.5c1.5,0.3,2.7,0.3,3.7,0.4C189.7,174.9,191,172.8,191.8,171.2z"/>
	</defs>
	<clipPath id="SVGID_23_">
		<use xlink:href="#SVGID_22_"  style="overflow:visible;"/>
	</clipPath>
	
		<linearGradient id="SVGID_24_" gradientUnits="userSpaceOnUse" x1="986.6671" y1="-2764.6636" x2="1001.5849" y2="-2764.6636" gradientTransform="matrix(0.935 0.5344 -0.646 1.1303 -2530.8933 2762.0066)">
		<stop  offset="0" style="stop-color:#942923"/>
		<stop  offset="0.5051" style="stop-color:#E11B22"/>
		<stop  offset="1" style="stop-color:#942923"/>
	</linearGradient>
	<polygon class="st22" points="187.9,178.7 174,170.7 181.2,158 195.2,166 	"/>
	<use xlink:href="#SVGID_22_"  style="overflow:visible;fill-rule:evenodd;clip-rule:evenodd;fill:none;stroke:#000000;"/>
</g>
<g>
	<defs>
		<path id="SVGID_25_" d="M128,163.7c0,0-1.4,0.9-0.7,2.1l4.2,5.7c0,0,1.5,1.8,0.1,3c0,0-3,2.8-8.4,5.8L111,162.2c0,0,0.4-0.7,4-0.7
			C119.4,161.5,123.8,162.4,128,163.7z"/>
	</defs>
	<defs>
		<path id="SVGID_26_" d="M128,163.7c0,0-1.4,0.9-0.7,2.1l4.2,5.7c0,0,1.5,1.8,0.1,3c0,0-3,2.8-8.4,5.8L111,162.2c0,0,0.4-0.7,4-0.7
			C119.4,161.5,123.8,162.4,128,163.7z"/>
	</defs>
	<clipPath id="SVGID_27_">
		<use xlink:href="#SVGID_25_"  style="overflow:visible;"/>
	</clipPath>
	<clipPath id="SVGID_28_" class="st23">
		<use xlink:href="#SVGID_26_"  style="overflow:visible;"/>
	</clipPath>
	
		<linearGradient id="SVGID_29_" gradientUnits="userSpaceOnUse" x1="-311.0873" y1="-5624.0054" x2="-292.9757" y2="-5624.0054" gradientTransform="matrix(0.4166 1.1456 -1.2937 0.4705 -7027.5107 3161.6973)">
		<stop  offset="0" style="stop-color:#942923"/>
		<stop  offset="0.5051" style="stop-color:#E11B22"/>
		<stop  offset="1" style="stop-color:#942923"/>
	</linearGradient>
	<polygon class="st24" points="118.3,182.8 110.8,162.1 126.6,156.3 134.1,177.1 	"/>
	<use xlink:href="#SVGID_25_"  style="overflow:visible;fill-rule:evenodd;clip-rule:evenodd;fill:none;stroke:#000000;"/>
	<use xlink:href="#SVGID_26_"  style="overflow:visible;fill-rule:evenodd;clip-rule:evenodd;fill:none;stroke:#000000;"/>
</g>
<g>
	<defs>
		<path id="SVGID_30_" d="M121.2,150.5c-0.3,0-2,0.6-2.4,0.7c-0.8,0.2-1.3,0.7-1.8,1.3c-0.6,0.7-1,1.5-1.5,2.2c-0.7,1-3.5,4.8-4,5.8
			c0.5-0.9,2.9-5.1,3.5-6.3c0.5-1.1,1-2.1,1.8-2.9C117.9,150.2,119.8,150.4,121.2,150.5z"/>
	</defs>
	<clipPath id="SVGID_31_">
		<use xlink:href="#SVGID_30_"  style="overflow:visible;"/>
	</clipPath>
	
		<linearGradient id="SVGID_32_" gradientUnits="userSpaceOnUse" x1="-124.6896" y1="-12.6057" x2="-124.6896" y2="-25.1074" gradientTransform="matrix(1.0633 3.400000e-03 3.400000e-03 1.0448 248.833 175.6798)">
		<stop  offset="0" style="stop-color:#FFFFFF"/>
		<stop  offset="1" style="stop-color:#6D6E71"/>
	</linearGradient>
	<polygon class="st25" points="119.1,162.1 111.2,160.7 113.2,149 121.2,150.4 	"/>
</g>
<g>
	<defs>
		<path id="SVGID_33_" d="M72.1,150.5c0.3,0,2,0.6,2.4,0.7c0.8,0.2,1.3,0.7,1.8,1.3c0.6,0.7,1,1.5,1.5,2.2c0.7,1,3.5,4.8,4,5.8
			c-0.5-0.9-2.9-5.1-3.5-6.3c-0.5-1.1-1-2.1-1.8-2.9C75.3,150.2,73.5,150.4,72.1,150.5z"/>
	</defs>
	<clipPath id="SVGID_34_">
		<use xlink:href="#SVGID_33_"  style="overflow:visible;"/>
	</clipPath>
	
		<linearGradient id="SVGID_35_" gradientUnits="userSpaceOnUse" x1="-7321.5273" y1="10.8144" x2="-7321.5273" y2="-1.6873" gradientTransform="matrix(-1.0633 3.400000e-03 -3.400000e-03 1.0448 -7707.9087 175.6798)">
		<stop  offset="0" style="stop-color:#FFFFFF"/>
		<stop  offset="1" style="stop-color:#6D6E71"/>
	</linearGradient>
	<polygon class="st26" points="74.1,162.1 82.1,160.7 80,149 72,150.4 	"/>
</g>
<g>
	<defs>
		<path id="SVGID_36_" d="M129.9,190.4l2.7-12.1c0.5-1.9-1.1-0.8-1.1-0.8l-5.2,2.6l2.8-0.3c1.6,0,1.4,1.7,1.4,1.7L129.9,190.4z"/>
	</defs>
	<clipPath id="SVGID_37_">
		<use xlink:href="#SVGID_36_"  style="overflow:visible;"/>
	</clipPath>
	<linearGradient id="SVGID_38_" gradientUnits="userSpaceOnUse" x1="126.126" y1="183.8655" x2="132.6851" y2="183.8655">
		<stop  offset="0" style="stop-color:#FFFFFF"/>
		<stop  offset="1" style="stop-color:#6D6E71"/>
	</linearGradient>
	<rect x="126.1" y="177.1" class="st27" width="6.6" height="13.5"/>
</g>
<g>
	<defs>
		<path id="SVGID_39_" d="M63.3,190.4l-2.7-12.1c-0.5-1.9,1.1-0.8,1.1-0.8l5.2,2.6l-2.8-0.3c-1.6,0-1.4,1.7-1.4,1.7L63.3,190.4z"/>
	</defs>
	<clipPath id="SVGID_40_">
		<use xlink:href="#SVGID_39_"  style="overflow:visible;"/>
	</clipPath>
	
		<linearGradient id="SVGID_41_" gradientUnits="userSpaceOnUse" x1="-7467.2192" y1="183.8655" x2="-7460.6602" y2="183.8655" gradientTransform="matrix(-1 0 0 1 -7400.125 0)">
		<stop  offset="0" style="stop-color:#FFFFFF"/>
		<stop  offset="1" style="stop-color:#6D6E71"/>
	</linearGradient>
	<rect x="60.5" y="177.1" class="st28" width="6.6" height="13.5"/>
</g>
<g>
	<defs>
		<path id="SVGID_42_" d="M10.8,176.3c-1.5,0.4-2.2,0.3-3.5,0.2c-0.8-0.1-2.3-0.9-1.9,0.1c1.1,2.9,2.9,5.8,4.2,8.6
			c0.4,0.8-0.3-1.1-1-3.2c-0.3-0.9-0.7-1.9-1-2.8c-0.1-0.5-0.3-1.2,0.2-1.4C8.3,177.6,10.4,176.6,10.8,176.3z"/>
	</defs>
	<clipPath id="SVGID_43_">
		<use xlink:href="#SVGID_42_"  style="overflow:visible;"/>
	</clipPath>
	
		<linearGradient id="SVGID_44_" gradientUnits="userSpaceOnUse" x1="-7163.0679" y1="180.6674" x2="-7157.522" y2="180.6674" gradientTransform="matrix(-1 0 0 1 -7152.1846 0)">
		<stop  offset="0" style="stop-color:#FFFFFF"/>
		<stop  offset="1" style="stop-color:#6D6E71"/>
	</linearGradient>
	<rect x="5.3" y="176" class="st29" width="5.5" height="9.2"/>
</g>
</svg>
