<?xml version="1.0" encoding="UTF-8" standalone="no"?>
<!-- Created with Inkscape (http://www.inkscape.org/) -->

<svg
   xmlns:dc="http://purl.org/dc/elements/1.1/"
   xmlns:cc="http://creativecommons.org/ns#"
   xmlns:rdf="http://www.w3.org/1999/02/22-rdf-syntax-ns#"
   xmlns:svg="http://www.w3.org/2000/svg"
   xmlns="http://www.w3.org/2000/svg"
   version="1.1"
   width="894pt"
   height="1000pt"
   viewBox="0 0 894 1000"
   id="svg2">
  <metadata
     id="metadata88">
    <rdf:RDF>
      <cc:Work
         rdf:about="">
        <dc:format>image/svg+xml</dc:format>
        <dc:type
           rdf:resource="http://purl.org/dc/dcmitype/StillImage" />
        <dc:title></dc:title>
      </cc:Work>
    </rdf:RDF>
  </metadata>
  <defs
     id="defs86" />
  <path
     d="m 876.50186,289.97567 0,-0.0625 0,-0.0312 1.28125,-271.531246 -861.56622,0 1.28125,271.531246 0,0.0312 0,0.0625 c 0,344.60034 211.74897,692.01989 429.50186,692.01989 217.75289,0 429.50186,-347.41955 429.50186,-692.01989 z"
     id="path3857"
     style="font-size:medium;font-style:normal;font-variant:normal;font-weight:normal;font-stretch:normal;text-indent:0;text-align:start;text-decoration:none;line-height:normal;letter-spacing:normal;word-spacing:normal;text-transform:none;direction:ltr;block-progression:tb;writing-mode:lr-tb;text-anchor:start;baseline-shift:baseline;color:#000000;fill:#00a650;fill-opacity:1;stroke:#000000;stroke-width:29.60000038;stroke-opacity:1;marker:none;visibility:visible;display:inline;overflow:visible;enable-background:accumulate;font-family:Sans;-inkscape-font-specification:Sans" />
  <path
     d="M 64.8,55.9 C 80.9,55.5 97,55.5 113,55.8 c 0.2,6.4 0.1,12.7 0.2,19 10.1,0.2 20.3,0.2 30.5,0 -0.1,-6.3 -0.2,-12.6 0.2,-18.9 17,-0.4 34.1,-0.4 51.2,0 0.3,6.3 0.2,12.6 0.2,18.9 9.8,0.2 19.6,0.2 29.4,0 -0.1,-6.3 -0.2,-12.6 0.1,-19 17.8,-0.3 35.6,-0.3 53.4,0 0.3,6.4 0.2,12.7 0.1,19 9.1,0.2 18.3,0.2 27.4,0 0,-6.3 -0.1,-12.6 0.2,-19 16,-0.3 32.1,-0.3 48.2,0.1 0.2,6.3 0.1,12.6 0.1,18.9 11.5,0.2 23,0.2 34.5,0 -0.1,-6.3 -0.2,-12.6 0.1,-18.9 19.1,-0.4 38.3,-0.4 57.4,-0.1 0.3,35.1 0.3,70.1 0,105.1 -58,0.1 -116,0.2 -174,0 -0.3,-11.6 0.3,-23.1 -0.3,-34.6 -13.6,0.1 -27.1,0.1 -40.6,0 -0.1,11.5 0.3,23.1 -0.2,34.6 -55.4,0.1 -110.8,0.1 -166.3,0 -0.3,-35 -0.3,-70 0,-105 m 6.4,4.9 c -0.1,31.5 -0.1,62.9 -0.1,94.4 51.2,0.2 102.4,0.4 153.6,-0.1 0.1,-11.9 -0.4,-23.9 0.2,-35.8 17.9,0.2 35.8,0.1 53.7,0.1 0.1,11.9 -0.2,23.9 0.2,35.8 53.7,0.2 107.4,0.3 161.1,0 0,-31.5 0,-62.9 -0.1,-94.4 -14.8,-0.2 -29.7,-0.3 -44.5,0.1 0,6.6 0.1,13.3 -0.2,19.9 -15.7,0.1 -31.5,0.1 -47.2,0 -0.4,-6.6 -0.2,-13.3 -0.2,-19.9 -11.8,-0.4 -23.7,-0.4 -35.5,0 0,6.6 0.1,13.3 -0.3,19.9 -13.2,0.1 -26.5,0.1 -39.7,0 -0.1,-6.7 0.1,-13.3 -0.2,-20 -13.6,-0.3 -27.2,-0.3 -40.8,0.1 0.1,6.6 0.2,13.3 -0.1,19.9 -14.1,0.1 -28.2,0.1 -42.3,0 -0.3,-6.6 -0.2,-13.2 -0.1,-19.9 -12.8,-0.5 -25.7,-0.4 -38.5,0 0,6.6 0.1,13.3 -0.2,19.9 -14.4,0.1 -28.8,0.1 -43.2,0 -0.3,-6.6 -0.1,-13.2 -0.1,-19.9 C 94.9,60.4 83,60.6 71.2,60.8 z"
     id="path10"
     style="fill:#241f20;stroke:#241f20;stroke-width:0.09375" />
  <path
     d="m 71.2,60.8 c 11.8,-0.2 23.7,-0.4 35.5,0.1 0,6.7 -0.2,13.3 0.1,19.9 14.4,0.1 28.8,0.1 43.2,0 0.3,-6.6 0.2,-13.3 0.2,-19.9 12.8,-0.4 25.7,-0.5 38.5,0 -0.1,6.7 -0.2,13.3 0.1,19.9 14.1,0.1 28.2,0.1 42.3,0 0.3,-6.6 0.2,-13.3 0.1,-19.9 13.6,-0.4 27.2,-0.4 40.8,-0.1 0.3,6.7 0.1,13.3 0.2,20 13.2,0.1 26.5,0.1 39.7,0 0.4,-6.6 0.3,-13.3 0.3,-19.9 11.8,-0.4 23.7,-0.4 35.5,0 0,6.6 -0.2,13.3 0.2,19.9 15.7,0.1 31.5,0.1 47.2,0 0.3,-6.6 0.2,-13.3 0.2,-19.9 14.8,-0.4 29.7,-0.3 44.5,-0.1 0.1,31.5 0.1,62.9 0.1,94.4 -53.7,0.3 -107.4,0.2 -161.1,0 -0.4,-11.9 -0.1,-23.9 -0.2,-35.8 -17.9,0 -35.8,0.1 -53.7,-0.1 -0.6,11.9 -0.1,23.9 -0.2,35.8 -51.2,0.5 -102.4,0.3 -153.6,0.1 0,-31.5 0,-62.9 0.1,-94.4 M 126,99.7 c -0.1,9 -0.3,18 0.1,27.1 2.3,-0.1 4.5,-0.1 6.8,0 0.3,-9.1 0.2,-18.1 0.1,-27.1 -2.4,0 -4.7,0 -7,0 m 242.2,0.1 c 0,9 -0.1,18 0,26.9 2.3,0 4.6,0 6.9,0 0.4,-9 0.3,-18 0.1,-27 -2.3,0 -4.7,0 -7,0.1 z"
     id="path12"
     style="fill:#fff200;stroke:#fff200;stroke-width:0.09375" />
  <path
     d="m 664.9,96.9 c 15.8,-17.8 37,-32.2 61.2,-34.7 9.1,-0.7 18.8,-1.7 27.3,2.4 19.3,9.9 42.2,5.6 61.9,14.1 5.9,2.6 11.3,6.4 15.5,11.3 -9.6,16.8 -32.7,17.7 -43.6,33.3 -4.1,5.7 -3.9,13 -3.5,19.7 3.8,75.4 -7,151.9 -34.3,222.4 -14.6,40 -42.7,74.1 -76.7,99.3 -39.3,29.2 -86.2,47.9 -134.7,54.4 -4.6,0.4 -7.3,4.6 -9.9,8 -13,17.7 -13,42.4 -4.1,61.8 55,2.7 106.8,35.3 134.4,82.7 7.6,12.7 13.3,26.6 15.9,41.1 8,40.6 0.3,84.4 -22.2,119.3 -28.1,43 -79.2,68.5 -130.1,68.7 -12.8,0.2 -25.8,0.2 -38.1,-3.6 -49.7,-13.8 -93.5,-51 -110.8,-100.2 -16,-47 -7.4,-101.3 20.8,-142.1 16.4,-23.8 40.4,-42 67.1,-53 3.7,-22.2 -11.6,-42.5 -7.9,-64.7 1,-7.1 5.9,-12.6 10.1,-18.1 -14.1,-7.1 -30.3,-2.3 -45.1,-6.1 -64.7,63.3 -122.1,133.5 -181.2,202 -12.7,18.7 -24.9,38.1 -32.1,59.7 -11,-23.6 -2.9,-49.9 -1,-74.5 -19.3,-2.5 -38.1,4.1 -57.2,5 6.3,-5.9 13.6,-10.7 20.2,-16.3 62,-51.1 110.4,-115.8 163.4,-175.6 6.1,-6.6 11.9,-13.4 17.6,-20.4 C 426.6,398 505.5,303.2 584.3,208.3 592,199 600,189.9 607.3,180.4 626.4,152.5 642,122 664.9,96.9 m 15.2,-4.8 c -52.8,53 -82.6,124.4 -136.6,176.3 -3.6,3.2 -7.5,6.5 -8.8,11.4 -6.8,20.8 -10.4,42.9 -21.8,62 17,7 35.8,3.6 52.9,-1.1 20.2,-5.7 39.9,-17.1 50.4,-35.9 9.8,2 19.8,3.7 29.8,3.4 29.9,-0.6 58.6,-14.2 79.8,-35 0.8,1 1.6,1.9 2.5,2.9 -6.4,8.9 -14.1,17.3 -24.3,21.9 -2.6,1.2 -6,2.2 -6.5,5.5 -7.5,28.6 -22.1,55.2 -41.5,77.5 -39.9,45.5 -97.4,71.7 -155.7,84.5 -4.6,1.3 -9.8,1.2 -13.8,4 -17.4,16.2 -36.6,32.4 -60.6,37.1 34.5,7 70,9 105,5.4 40.9,-3.9 81.4,-15.9 116.4,-37.7 29.3,-16.9 54.6,-40.6 73.2,-68.8 17.9,-26.6 30.1,-56.7 38.5,-87.5 15.8,-58.3 18.9,-119 19.5,-179.1 -6.8,22 -21.1,41.7 -40.8,53.7 -10.7,5.3 -23.5,6 -34.9,2.6 -13,-3.6 -23.1,-16.2 -23.1,-29.8 -0.8,-13.9 -4.2,-30.4 5.9,-41.9 4.4,-5.9 12.3,-6.3 18.4,-9.5 4.3,-2.8 2.4,-9 5.1,-12.9 4.4,-6.3 12.1,-8.9 19.3,-10.8 10.3,-3.5 21.6,0.4 30.6,5.7 10,6.4 10.4,22.1 1.9,29.9 -7.5,7.3 -18.7,8.7 -28.7,7.9 -7,-0.3 -14.2,-2.7 -18.9,-8 -2.3,-2.4 -4.4,-6.2 -8.3,-5.1 -9.3,1.6 -18.2,9.6 -18.6,19.4 -1.6,13.9 -1.1,29 6.1,41.4 7.2,7.9 18.9,10.8 29.2,9.3 14.8,-3.5 27.7,-13.5 35.9,-26.2 6.5,-10.3 13.1,-21 15.7,-33 4.4,-18.3 1,-38.2 -8.8,-54.2 -3.5,-5.7 -10.6,-7.5 -16.6,-9.2 -24.7,-4.8 -50.9,5.7 -67.8,23.9 m 94,-14.9 c 1.2,5.6 2.7,11.1 4.2,16.6 11,-2.6 22.1,-4.9 32.9,-8.2 -11.6,-5.3 -24.4,-7.8 -37.1,-8.4 m 7.1,25.1 c 1,4.6 2.4,9.2 4,13.7 8.6,-11.1 22.9,-14.1 33.2,-22.8 -12.8,0.3 -26.2,2.1 -37.2,9.1 m -47.8,-6.1 c -7.6,1.6 -15.7,4.6 -20.5,11 -0.6,6.8 2.8,14.8 9.7,17.3 7.3,2.9 15.7,3 23.4,1.4 4.9,-2.5 9.8,-5.4 13.6,-9.4 3.1,-6.1 -1.6,-14.3 -7.9,-16.2 -6,-1.7 -12,-4.7 -18.3,-4.1 M 511.9,304.9 C 443.4,387 375.3,469.5 306.2,551.2 c -3.9,4.5 -8.1,8.9 -11.4,13.9 8.8,-3.6 16.9,-8.5 25.2,-13.1 18.1,-10.7 35.9,-24.3 45.3,-43.6 -1.2,-1.2 -2.3,-2.4 -3.5,-3.5 15.8,-17.9 32.4,-35.1 48,-53.1 31.3,-35.8 67,-68.2 92,-109 10.1,-16.4 18.1,-34.2 23,-52.8 -4.6,4.6 -8.6,9.9 -12.9,14.9 m 160.4,5.3 c -3.8,2 -4.5,6.6 -6,10.2 -11.6,31.8 -35.6,57.9 -63.9,76 -30.5,19.6 -65.3,31.5 -100.7,38.6 -21.6,6 -43.9,-6.5 -65.5,0.2 -9.5,2.8 -16.1,11.1 -19.1,20.2 22.3,1.9 44.4,8.4 66.9,5.4 49.2,-7.1 97.4,-25.2 136.6,-56.2 31.5,-24.8 56.7,-58.8 67.5,-97.8 -5.3,0.7 -11,0.9 -15.8,3.4 m -72.5,21.6 c -25.3,20.6 -60.6,26.2 -91.7,17.3 -8.4,9.5 -16.7,19.1 -24.6,29.1 3.8,5.2 10.6,5 16.3,6 4.9,0.6 9.5,2.6 14.4,2.4 47.7,-4.1 94.9,-29.8 118.8,-72.1 -4.6,-1.1 -9.2,-2 -13.9,-2.6 -5.8,7.2 -11.9,14.2 -19.3,19.9 M 642,316.9 c -7.9,6 -9.8,16.6 -17.3,22.8 -14.2,12.7 -29,24.8 -45.4,34.7 -20,11.9 -42.6,21.1 -66.3,20.3 -12.4,0.4 -24.6,-2.8 -36,-7.4 -11.1,12.4 -21.9,25 -32.5,37.9 26.5,4.5 54.3,5.7 80.4,-1.5 30.4,-11.5 61,-24 87.2,-43.6 22.4,-16.6 40.9,-39.8 47.9,-67.1 -6.3,-1 -13.1,-0.4 -18,3.9 M 411.3,461.1 c -12.2,13.2 -24.6,26.1 -36.3,39.8 36.1,5.5 75.9,-5.2 101.2,-32.5 -21.9,1.3 -43.6,-2.3 -64.9,-7.3 m -40.6,50.6 c -7,7.5 -9.9,18.3 -18.1,24.9 -2,1.8 -4.5,3.4 -4.7,6.4 -1.3,9.7 -0.4,20.1 5.1,28.5 18.4,-21.1 37.5,-41.7 57.3,-61.6 -5.7,0 -11.3,0.5 -16.9,0.7 -5.1,0.4 -9.2,-3.7 -14.3,-3.4 -3.3,0.2 -6.2,2.1 -8.4,4.5 m 99.1,10.2 c -6.8,6.4 -10.3,15.8 -9.8,25.1 0.6,17.1 8.3,33.1 8.3,50.3 3.7,-0.6 7.3,-1.4 10.9,-2.4 -2.7,-12.1 -9.6,-23.3 -9.9,-35.9 0,-14.4 9.6,-26.1 14.2,-39.2 -4.5,0.1 -10.1,-1.6 -13.7,2.1 m 38,-1.2 c -4,7.3 -2,16.8 -7.9,23.2 -2.1,2.2 -2.8,5.1 -2.7,8 -1.2,28.3 19.8,51.9 19.5,80.1 0.1,3.7 -1.6,7.1 -3.9,9.7 -10.7,12.6 -31,11.7 -39.9,26.2 12.9,-6.7 25.5,-14.9 40.2,-17.2 5.6,-0.7 10.2,3.6 13.7,7.5 9.2,11 10.3,26 17.1,38.2 2.4,-10.3 -3.8,-20.2 -2.3,-30.6 10,-3.5 16.8,5.6 25.4,8.4 -8.9,-11.2 -23.3,-15.6 -33.4,-25.5 6.9,-10.5 20.8,-7.8 31.5,-8.3 -12.3,-2.5 -25,-2.3 -37.5,-4.5 -2.6,-28.4 -19.8,-54 -18.1,-83 0.4,-12.3 6.8,-23 14.6,-32.1 -5.4,-0.3 -10.9,-0.2 -16.3,-0.1 m -15.5,1.7 c -4.5,8.2 -9.6,16 -13.1,24.7 -4.4,15.5 2.7,31.1 9.2,45 3.3,-0.4 6.5,-1.4 9.4,-3 -4,-6 -7.4,-12.5 -8.1,-19.8 -2.3,-16.1 3.6,-31.5 6.3,-47.1 -1.2,0.1 -2.5,0.1 -3.7,0.2 m -157.6,32.4 c -32.4,52.4 -73.3,99.8 -121.2,138.7 -3.5,2.7 -3,7.6 -3.8,11.4 -2.3,16 -7.5,32.4 -3.1,48.4 4.8,-7.5 8.8,-15.5 13.8,-22.9 35.7,-56.3 84.3,-102.5 126.5,-153.6 -4.7,-8.7 -7.3,-18.2 -8.2,-27.9 -1.3,1.9 -2.7,3.8 -4,5.9 m -45.3,20.5 c -4.9,0.7 -8.1,4.5 -11.1,8 -35.8,39 -69,81.2 -111.6,113.1 11.2,-3.7 23.2,-0.6 34.6,-3.2 5.3,-1.1 9.2,-5.3 13.2,-8.7 42.7,-36.5 80.7,-79 109.4,-127.5 -10.8,7.3 -21.5,15.5 -34.5,18.3 M 527,596.2 c 1.1,11 3.4,21.8 5.2,32.7 14.5,1.8 29.2,2 43.7,4.5 4.9,1 9.4,3.5 13.6,6.2 2.2,1 2,3.6 2.3,5.6 -14.7,4.3 -30.1,0.4 -45,3.3 7.9,7.1 17.2,12.4 24.7,20 7.3,7 13.6,16.4 13,27 -13.1,-4.8 -20.2,-19.5 -34.5,-22.1 4.5,14.4 1.7,31.2 -9.1,42.2 -4.1,-10.8 -6.8,-22 -10.5,-33 -2.7,-8.2 -4.1,-18 -11.7,-23.2 -5.5,-4 -12.1,-0.4 -17.6,1.7 -13.9,5.6 -25.5,16 -40.1,20.2 -0.2,-7.1 1.6,-14.4 6.7,-19.6 10.6,-10.8 26.8,-12.9 37.9,-23.1 3.9,-3.7 3.4,-9.7 3.6,-14.6 -0.4,-9.2 -2.4,-19.4 -9.6,-25.7 -4.5,-0.4 -8.8,1.2 -13.1,2.2 -21.7,5.4 -42.4,15.1 -59.9,29.1 -37.1,29.8 -57.8,78.1 -55.2,125.5 2.9,63.7 53.2,122 115.7,134.7 47.2,10.4 101.3,0.6 136.2,-34.5 38.9,-37.6 57.1,-96.3 42,-148.8 -12.2,-40.1 -40,-76 -77.7,-95.1 -18.7,-9.5 -39.7,-14.5 -60.6,-15.2 z"
     id="path14"
     style="fill:#241f20;stroke:#241f20;stroke-width:0.09375" />
  <path
     d="m 680.1,92.1 c 16.9,-18.2 43.1,-28.7 67.8,-23.9 6,1.7 13.1,3.5 16.6,9.2 9.8,16 13.2,35.9 8.8,54.2 -2.6,12 -9.2,22.7 -15.7,33 -8.2,12.7 -21.1,22.7 -35.9,26.2 -10.3,1.5 -22,-1.4 -29.2,-9.3 -7.2,-12.4 -7.7,-27.5 -6.1,-41.4 0.4,-9.8 9.3,-17.8 18.6,-19.4 3.9,-1.1 6,2.7 8.3,5.1 4.7,5.3 11.9,7.7 18.9,8 10,0.8 21.2,-0.6 28.7,-7.9 8.5,-7.8 8.1,-23.5 -1.9,-29.9 -9,-5.3 -20.3,-9.2 -30.6,-5.7 -7.2,1.9 -14.9,4.5 -19.3,10.8 -2.7,3.9 -0.8,10.1 -5.1,12.9 -6.1,3.2 -14,3.6 -18.4,9.5 -10.1,11.5 -6.7,28 -5.9,41.9 0,13.6 10.1,26.2 23.1,29.8 11.4,3.4 24.2,2.7 34.9,-2.6 19.7,-12 34,-31.7 40.8,-53.7 -0.6,60.1 -3.7,120.8 -19.5,179.1 -8.4,30.8 -20.6,60.9 -38.5,87.5 -18.6,28.2 -43.9,51.9 -73.2,68.8 -35,21.8 -75.5,33.8 -116.4,37.7 -35,3.6 -70.5,1.6 -105,-5.4 24,-4.7 43.2,-20.9 60.6,-37.1 4,-2.8 9.2,-2.7 13.8,-4 58.3,-12.8 115.8,-39 155.7,-84.5 19.4,-22.3 34,-48.9 41.5,-77.5 0.5,-3.3 3.9,-4.3 6.5,-5.5 10.2,-4.6 17.9,-13 24.3,-21.9 -0.9,-1 -1.7,-1.9 -2.5,-2.9 -21.2,20.8 -49.9,34.4 -79.8,35 -10,0.3 -20,-1.4 -29.8,-3.4 -10.5,18.8 -30.2,30.2 -50.4,35.9 -17.1,4.7 -35.9,8.1 -52.9,1.1 11.4,-19.1 15,-41.2 21.8,-62 1.3,-4.9 5.2,-8.2 8.8,-11.4 54,-51.9 83.8,-123.3 136.6,-176.3 z"
     id="path16"
     style="fill:#fff200;stroke:#fff200;stroke-width:0.09375" />
  <path
     d="m 774.1,77.2 c 12.7,0.6 25.5,3.1 37.1,8.4 -10.8,3.3 -21.9,5.6 -32.9,8.2 -1.5,-5.5 -3,-11 -4.2,-16.6 z"
     id="path18"
     style="fill:#fff200;stroke:#fff200;stroke-width:0.09375" />
  <path
     d="m 781.2,102.3 c 11,-7 24.4,-8.8 37.2,-9.1 -10.3,8.7 -24.6,11.7 -33.2,22.8 -1.6,-4.5 -3,-9.1 -4,-13.7 z"
     id="path20"
     style="fill:#fff200;stroke:#fff200;stroke-width:0.09375" />
  <path
     d="m 733.4,96.2 c 6.3,-0.6 12.3,2.4 18.3,4.1 6.3,1.9 11,10.1 7.9,16.2 -3.8,4 -8.7,6.9 -13.6,9.4 -7.7,1.6 -16.1,1.5 -23.4,-1.4 -6.9,-2.5 -10.3,-10.5 -9.7,-17.3 4.8,-6.4 12.9,-9.4 20.5,-11 m -3.1,4.1 c -5.8,1.5 -11,7.3 -9.4,13.6 1.7,6.4 9.1,8.2 14.8,9.4 5.6,1.6 10.8,-2.2 14.4,-6.1 3.8,-4.5 2.2,-11.7 -2.5,-14.7 -5.1,-3.3 -11.6,-3.5 -17.3,-2.2 z"
     id="path22"
     style="fill:#fff200;stroke:#fff200;stroke-width:0.09375" />
  <path
     d="m 126,99.7 c 2.3,0 4.6,0 7,0 0.1,9 0.2,18 -0.1,27.1 -2.3,-0.1 -4.5,-0.1 -6.8,0 -0.4,-9.1 -0.2,-18.1 -0.1,-27.1 z"
     id="path24"
     style="fill:#241f20;stroke:#241f20;stroke-width:0.09375" />
  <path
     d="m 368.2,99.8 c 2.3,-0.1 4.7,-0.1 7,-0.1 0.2,9 0.3,18 -0.1,27 -2.3,0 -4.6,0 -6.9,0 -0.1,-8.9 0,-17.9 0,-26.9 z"
     id="path26"
     style="fill:#241f20;stroke:#241f20;stroke-width:0.09375" />
  <path
     d="m 730.3,100.3 c 5.7,-1.3 12.2,-1.1 17.3,2.2 4.7,3 6.3,10.2 2.5,14.7 -3.6,3.9 -8.8,7.7 -14.4,6.1 -5.7,-1.2 -13.1,-3 -14.8,-9.4 -1.6,-6.3 3.6,-12.1 9.4,-13.6 z"
     id="path28"
     style="fill:#241f20;stroke:#241f20;stroke-width:0.09375" />
  <path
     d="m 134,203 c 5.9,-11.4 14.4,-21.5 24.9,-29 2.2,3.6 3.9,8.6 8.5,9.5 7,0.8 13.4,-4.1 20.4,-3.3 5.1,0.5 4.2,8.5 9.3,9.1 4.7,-0.1 9.2,-1.9 13.8,-2.6 -3.9,21.5 -19.4,38.1 -27.9,57.6 22.9,-2.7 45.9,-5.3 69,-5 20.7,0 41.5,-0.1 62.2,1.2 28.8,0 57.8,1.3 86.6,-0.9 7.2,0.3 10.5,-12.3 3.2,-14.6 -18.7,-8.2 -39.4,-2.1 -58.9,-1.4 -13.1,-0.3 -25.9,2.2 -38.8,3.8 -22.7,3.2 -46,5.3 -68.7,1.1 -7.3,-1 -11.2,-8.1 -13.7,-14.2 -5,-14 5.9,-29.7 19.9,-32.6 44.9,-12.3 91.8,2.9 137.1,-6.8 13.7,-3.2 28.6,-1 40.6,6.6 9.4,5.2 16.2,15.7 15.9,26.6 -5.4,1.6 -11,1.7 -16.5,2 9.1,5.1 16.9,13.5 19,24 1.2,10.9 -8.3,19.6 -17.7,23.1 -15.3,5.2 -33.1,2.7 -46.4,13.1 1.6,4.4 4.7,8.5 9.4,9.5 10.9,2.3 21.7,-4.1 32.6,-1.6 4.5,1 7.4,4.9 10.3,8.2 5.7,-3.6 12.4,-3.4 18.9,-3.1 3.2,15.6 -8.2,28 -13,41.8 -2.9,7.4 -0.3,15.1 2.1,22.3 -11.9,0.2 -17.6,-11.3 -25.2,-18.3 -4.3,-4.6 -11.6,-3 -16.1,-6.9 -2.3,-6.6 5.9,-13.9 1,-20.2 -10.7,-3.1 -20,5.2 -28.9,9.9 -6.3,3.9 -13.9,4.3 -21,3.1 -1.5,4.4 -2,9 -2.4,13.6 -0.6,8.4 -6.8,15.1 -13.5,19.4 -5.4,3.9 -10.5,-2.7 -15.9,-3.2 -19,-3.9 -34.2,13.9 -53,12.1 -7.8,-1.1 -17.4,-5.4 -17,-14.7 -4.8,0.7 -9.5,1.7 -14.3,2.3 -1.2,-4.5 -0.9,-9.7 2.4,-13.3 3.4,-5.1 9.3,-7 14.5,-9.7 -0.2,-3 -2.9,-5.1 -4.6,-7.4 5.4,-4.6 12.5,-7 19.5,-5.6 15.2,3.1 29.1,16.1 45.5,10.5 -5.4,-7.6 -13.9,-12.3 -19,-20.1 -4.3,-6.4 -2.1,-16.4 5.2,-19.6 8.8,-3.5 18.6,0 27.4,-3.3 -0.6,-2.5 -1.4,-6.2 -4.8,-5.5 -8,0.5 -16.2,-2.6 -23.9,0.4 -22.5,7.1 -35.9,29.1 -57.9,37.2 -8,3.2 -16.8,2 -25,3.9 -11.4,2.5 -23.1,2.5 -34.7,4 0.8,6.1 1.6,12.6 -1.2,18.3 -2.7,6 -7.8,12.3 -15,12.6 -3.8,-2.4 -6.6,-6 -10,-8.9 -7,7.3 -17.1,11.1 -27.1,10.7 -3.7,-0.7 -6.1,-4.7 -10.1,-4.4 -7.4,-0.5 -17,2.4 -22.1,-4.9 1.6,-2 3.7,-3.8 4.4,-6.4 -0.8,-3.4 -4.7,-4.9 -7.8,-5.4 -7.5,-1.1 -15.1,0.5 -22.6,0.2 -6.8,0 -12.1,-5.1 -16.8,-9.5 6.2,-6.7 -1.1,-14.5 0.8,-22.1 23.4,0.1 43.8,15.3 67.3,14.2 1.4,-4.6 1.5,-9.5 0.7,-14.2 -12.5,-2 -25.4,-2.2 -37.7,-5.4 -7.6,-1.9 -15.3,-5.4 -20.2,-11.7 -4,-5.3 -6.1,-11.7 -8.2,-17.9 1.8,-1.5 3.6,-2.9 5.4,-4.3 -0.5,-7.7 -3.1,-15.4 -1.3,-23.1 0.8,-3.7 4.9,-4.9 7.8,-6.5 -3.9,-7.8 -9.7,-15.9 -7.6,-25.1 0.5,-4.9 6.3,-6.8 7.5,-11.2 -0.8,-4.6 -4.1,-8.4 -5.3,-13 5.9,-1.9 12.4,-1.2 17.6,2 7.7,3.9 15.1,12.4 24.5,9.4 5.3,-3.2 10.2,-7.5 16.8,-7.1 -4.8,19.1 -22.4,31.8 -27.1,50.9 -2.7,10.7 4.6,21.1 13.6,26.1 5,2.3 10.7,1.3 16,1.3 3.8,-19.7 7.7,-39.8 17.3,-57.6 m 242.1,-21 c -4.3,1.6 -8.3,4.9 -13.1,4.1 -26.9,-2.7 -53.9,-4.4 -81,-3.7 -15.3,-0.2 -31.2,1.6 -45,8.7 -10.1,5.5 -9.5,19.9 -3.1,27.9 3.1,2.1 6.8,2.8 10.3,3.7 31.3,7.6 62.5,-5.5 93.8,-4.5 20.7,-0.9 41.6,-8.2 62,-2.3 7.8,1.7 14.1,8.3 15.4,16.2 0.3,6.3 -5.4,11.3 -11.2,13 -8.8,2.4 -18.1,2.7 -27.2,2.1 -69,-3.9 -138.4,-3.4 -207,6.1 1,-2.1 1.9,-4.3 2.9,-6.5 -9,-0.6 -16.6,-8.5 -16.3,-17.7 9.4,-0.7 18.9,-0.5 28.3,-1.3 5.4,-10.7 11.3,-21.4 15.3,-32.8 -3,1.3 -5.7,3.5 -9.1,3.4 -3.3,-3 -3.5,-7.9 -5,-11.8 -5.9,1.3 -11.5,3.3 -17,5.5 -3.4,-2.7 -6,-7.3 -10,-8.7 -9.3,6.5 -16.4,16.1 -21,26.5 4.8,6.7 15.6,12.5 10.8,22.1 -6.5,0.4 -13.1,0.2 -19.6,0.3 -2.8,7.6 -4.5,15.7 -3.9,23.9 3.1,-2.8 5.6,-6.3 9.1,-8.5 7.3,-1.8 14.9,1.6 19.9,6.9 5.4,5.8 10.2,12.3 16.5,17.3 -16.1,1 -30.9,-8.1 -47,-7.3 -10.7,15.1 3.2,32.6 -1.4,48.9 -22.4,6.5 -44,-4.9 -65.4,-9.5 1.7,0.7 3.5,1.5 5.3,2.2 -2.1,4.3 -4.4,8.5 -6.5,12.7 14,5.6 29.4,0.7 43.8,4.1 0.1,5.5 0.1,10.9 0.3,16.3 9.1,1.7 15.6,-5.5 21.1,-11.5 4.5,3 7.4,7.4 9.4,12.3 9.1,0.6 12.1,-10.8 20.4,-12.9 2.6,3.9 4.2,8.3 6.8,12.2 3.2,2.4 6.6,-1.2 7.8,-4 4.7,-7.9 1.6,-17.2 -1.3,-25.2 14.9,-3.7 30.5,-2.6 45.7,-4.5 13.3,-1.8 26.6,-5.5 37.9,-12.9 14.9,-9.2 27.4,-22.5 43.9,-29 10.9,-4.6 23.3,-3.7 34.1,0.6 3,9.8 0.5,20 2.1,30 1.3,6.1 6,13.2 13,13 10.3,0.1 21.5,0.8 30.4,-5.1 5.8,-4.2 12.7,-6.4 19.7,-7.6 5.9,-1 12.4,3.3 13.1,9.3 0.6,4.7 -1,9.2 -2.2,13.7 3.9,-0.2 8.6,-1.4 11.6,1.8 5.1,5.7 5.9,15.1 14,17.9 -0.8,-3.4 -1.9,-6.9 -1.9,-10.4 0.6,-14.6 17.7,-23.2 15.6,-38.4 -5.7,0.5 -8.9,6.2 -14.2,7.4 -4.3,-1.6 -5.7,-7.1 -9.8,-9.2 -7.7,-4.3 -17.2,-2.5 -25.3,-0.7 -10.8,4.2 -22.9,-6.2 -23.2,-17 1.9,-4.6 6.5,-7.5 10.8,-9.6 12.8,-5.6 27.6,-3.3 40.5,-8.5 7.9,-3.1 13,-11.6 12.2,-19.9 -2.5,-5 -7.4,-8.3 -11.8,-11.5 -24.3,-15.9 -55.9,-16 -83,-7.8 -6.7,-10.4 -20.1,-12 -31.4,-11.1 -7.8,2.1 -8.2,14.1 -16.8,14.7 -12.6,1.9 -25.4,4.8 -38.1,2.4 -5.6,-1.5 -11.9,-4.3 -14.3,-9.9 0.6,-6.7 1.7,-16.6 9.8,-18.1 17.8,-4 36.3,-4.9 54.5,-3.5 43.2,2.4 85.5,15.1 129,14.3 -4.1,-8.9 -12.7,-14.9 -21.9,-17.6 -10.3,-3.3 -21.8,-5.1 -32.1,-1 m -308.8,1.7 c 0.4,2.4 1.1,4.8 0.9,7.2 -1.6,5.4 -8.9,7.8 -8.4,14 -1.7,12.3 11.7,19.6 11.8,31.4 -3.3,0 -6.5,-0.2 -9.8,-0.7 -2.7,6.3 -2.8,13.6 -0.4,19.9 2,3.7 6.4,5.1 9.4,7.8 0.6,1.5 -0.8,2.3 -1.9,2.8 -4.1,-0.2 -8.1,-1.5 -12.1,-0.4 3.1,7.1 7.7,14.2 14.9,17.6 12.8,4.7 26.7,4.5 40.3,4.3 0.4,-6.4 1,-12.9 1.9,-19.4 -10.8,0.1 -21.2,-4.7 -28.2,-13 -7.3,-7 -7.2,-18.2 -4.9,-27.4 4.1,-14.6 16.1,-24.6 24.1,-37 -5.3,0.1 -8.4,4.9 -13,6.4 -9.7,-0.9 -15.6,-10.3 -24.6,-13.5 m 184.2,11.8 c -4.8,1.7 -8.2,7.2 -6.4,12.2 11.2,7.7 25.5,3.5 37.8,1.3 9,-0.7 11.9,-10.7 19,-14.8 -16.7,-0.8 -34.1,-4.3 -50.4,1.3 m 75.4,0.7 c 8,8.4 20.9,6.8 31.2,4.3 -10.4,-1.7 -20.8,-3.6 -31.2,-4.3 m -30.3,89.3 c -2.7,1.4 -5.9,5.2 -3.1,8 7.8,9.1 16.1,17.7 24,26.8 -4.5,4 -10.4,6.3 -16.5,6.1 -15.2,-0.2 -28.2,-10.1 -43.2,-11.6 1.8,2 3.6,4 5.4,6 -8.4,6.1 -20.8,6.5 -26.6,16 4.6,-1 9.1,-2.4 13.6,-3.8 1.5,4.7 1.9,9.6 3.8,14.1 3.1,3 7.9,3.6 12,3.3 10.8,-1.1 19.3,-9.3 30,-10.5 9.5,-0.8 18.5,4.3 28,3.3 4.4,-0.4 8.2,-3.2 10.2,-7 3,-5.4 6.2,-12 3.6,-18.2 -4.1,-9 -14.3,-13.4 -18.5,-22.4 -1.9,-3.8 -1.3,-8.2 -0.9,-12.3 -7.2,0.4 -15.1,-1.3 -21.8,2.2 z"
     id="path30"
     style="fill:#241f20;stroke:#241f20;stroke-width:0.09375" />
  <path
     d="m 376.1,182 c 10.3,-4.1 21.8,-2.3 32.1,1 9.2,2.7 17.8,8.7 21.9,17.6 -43.5,0.8 -85.8,-11.9 -129,-14.3 -18.2,-1.4 -36.7,-0.5 -54.5,3.5 -8.1,1.5 -9.2,11.4 -9.8,18.1 2.4,5.6 8.7,8.4 14.3,9.9 12.7,2.4 25.5,-0.5 38.1,-2.4 8.6,-0.6 9,-12.6 16.8,-14.7 11.3,-0.9 24.7,0.7 31.4,11.1 27.1,-8.2 58.7,-8.1 83,7.8 4.4,3.2 9.3,6.5 11.8,11.5 0.8,8.3 -4.3,16.8 -12.2,19.9 -12.9,5.2 -27.7,2.9 -40.5,8.5 -4.3,2.1 -8.9,5 -10.8,9.6 0.3,10.8 12.4,21.2 23.2,17 8.1,-1.8 17.6,-3.6 25.3,0.7 4.1,2.1 5.5,7.6 9.8,9.2 5.3,-1.2 8.5,-6.9 14.2,-7.4 2.1,15.2 -15,23.8 -15.6,38.4 0,3.5 1.1,7 1.9,10.4 -8.1,-2.8 -8.9,-12.2 -14,-17.9 -3,-3.2 -7.7,-2 -11.6,-1.8 1.2,-4.5 2.8,-9 2.2,-13.7 -0.7,-6 -7.2,-10.3 -13.1,-9.3 -7,1.2 -13.9,3.4 -19.7,7.6 -8.9,5.9 -20.1,5.2 -30.4,5.1 -7,0.2 -11.7,-6.9 -13,-13 -1.6,-10 0.9,-20.2 -2.1,-30 -10.8,-4.3 -23.2,-5.2 -34.1,-0.6 -16.5,6.5 -29,19.8 -43.9,29 -11.3,7.4 -24.6,11.1 -37.9,12.9 -15.2,1.9 -30.8,0.8 -45.7,4.5 2.9,8 6,17.3 1.3,25.2 -1.2,2.8 -4.6,6.4 -7.8,4 -2.6,-3.9 -4.2,-8.3 -6.8,-12.2 -8.3,2.1 -11.3,13.5 -20.4,12.9 -2,-4.9 -4.9,-9.3 -9.4,-12.3 -5.5,6 -12,13.2 -21.1,11.5 -0.2,-5.4 -0.2,-10.8 -0.3,-16.3 -14.4,-3.4 -29.8,1.5 -43.8,-4.1 2.1,-4.2 4.4,-8.4 6.5,-12.7 -1.8,-0.7 -3.6,-1.5 -5.3,-2.2 21.4,4.6 43,16 65.4,9.5 4.6,-16.3 -9.3,-33.8 1.4,-48.9 16.1,-0.8 30.9,8.3 47,7.3 -6.3,-5 -11.1,-11.5 -16.5,-17.3 -5,-5.3 -12.6,-8.7 -19.9,-6.9 -3.5,2.2 -6,5.7 -9.1,8.5 -0.6,-8.2 1.1,-16.3 3.9,-23.9 6.5,-0.1 13.1,0.1 19.6,-0.3 4.8,-9.6 -6,-15.4 -10.8,-22.1 4.6,-10.4 11.7,-20 21,-26.5 4,1.4 6.6,6 10,8.7 5.5,-2.2 11.1,-4.2 17,-5.5 1.5,3.9 1.7,8.8 5,11.8 3.4,0.1 6.1,-2.1 9.1,-3.4 -4,11.4 -9.9,22.1 -15.3,32.8 -9.4,0.8 -18.9,0.6 -28.3,1.3 -0.3,9.2 7.3,17.1 16.3,17.7 -1,2.2 -1.9,4.4 -2.9,6.5 68.6,-9.5 138,-10 207,-6.1 9.1,0.6 18.4,0.3 27.2,-2.1 5.8,-1.7 11.5,-6.7 11.2,-13 -1.3,-7.9 -7.6,-14.5 -15.4,-16.2 -20.4,-5.9 -41.3,1.4 -62,2.3 -31.3,-1 -62.5,12.1 -93.8,4.5 -3.5,-0.9 -7.2,-1.6 -10.3,-3.7 -6.4,-8 -7,-22.4 3.1,-27.9 13.8,-7.1 29.7,-8.9 45,-8.7 27.1,-0.7 54.1,1 81,3.7 4.8,0.8 8.8,-2.5 13.1,-4.1 z"
     id="path32"
     style="fill:#fff200;stroke:#fff200;stroke-width:0.09375" />
  <path
     d="m 67.3,183.7 c 9,3.2 14.9,12.6 24.6,13.5 4.6,-1.5 7.7,-6.3 13,-6.4 -8,12.4 -20,22.4 -24.1,37 -2.3,9.2 -2.4,20.4 4.9,27.4 7,8.3 17.4,13.1 28.2,13 -0.9,6.5 -1.5,13 -1.9,19.4 -13.6,0.2 -27.5,0.4 -40.3,-4.3 -7.2,-3.4 -11.8,-10.5 -14.9,-17.6 4,-1.1 8,0.2 12.1,0.4 1.1,-0.5 2.5,-1.3 1.9,-2.8 -3,-2.7 -7.4,-4.1 -9.4,-7.8 -2.4,-6.3 -2.3,-13.6 0.4,-19.9 3.3,0.5 6.5,0.7 9.8,0.7 -0.1,-11.8 -13.5,-19.1 -11.8,-31.4 -0.5,-6.2 6.8,-8.6 8.4,-14 0.2,-2.4 -0.5,-4.8 -0.9,-7.2 z"
     id="path34"
     style="fill:#fff200;stroke:#fff200;stroke-width:0.09375" />
  <path
     d="m 296.6,285.5 c 6.7,-3.5 14.6,-1.8 21.8,-2.2 -0.4,4.1 -1,8.5 0.9,12.3 4.2,9 14.4,13.4 18.5,22.4 2.6,6.2 -0.6,12.8 -3.6,18.2 -2,3.8 -5.8,6.6 -10.2,7 -9.5,1 -18.5,-4.1 -28,-3.3 -10.7,1.2 -19.2,9.4 -30,10.5 -4.1,0.3 -8.9,-0.3 -12,-3.3 -1.9,-4.5 -2.3,-9.4 -3.8,-14.1 -4.5,1.4 -9,2.8 -13.6,3.8 5.8,-9.5 18.2,-9.9 26.6,-16 -1.8,-2 -3.6,-4 -5.4,-6 15,1.5 28,11.4 43.2,11.6 6.1,0.2 12,-2.1 16.5,-6.1 -7.9,-9.1 -16.2,-17.7 -24,-26.8 -2.8,-2.8 0.4,-6.6 3.1,-8 z"
     id="path40"
     style="fill:#fff200;stroke:#fff200;stroke-width:0.09375" />
  <path
     d="m 511.9,304.9 c 4.3,-5 8.3,-10.3 12.9,-14.9 -4.9,18.6 -12.9,36.4 -23,52.8 -25,40.8 -60.7,73.2 -92,109 -15.6,18 -32.2,35.2 -48,53.1 1.2,1.1 2.3,2.3 3.5,3.5 -9.4,19.3 -27.2,32.9 -45.3,43.6 -8.3,4.6 -16.4,9.5 -25.2,13.1 3.3,-5 7.5,-9.4 11.4,-13.9 C 375.3,469.5 443.4,387 511.9,304.9 z"
     id="path42"
     style="fill:#fff200;stroke:#fff200;stroke-width:0.09375" />
  <path
     d="m 672.3,310.2 c 4.8,-2.5 10.5,-2.7 15.8,-3.4 -10.8,39 -36,73 -67.5,97.8 -39.2,31 -87.4,49.1 -136.6,56.2 -22.5,3 -44.6,-3.5 -66.9,-5.4 3,-9.1 9.6,-17.4 19.1,-20.2 21.6,-6.7 43.9,5.8 65.5,-0.2 35.4,-7.1 70.2,-19 100.7,-38.6 28.3,-18.1 52.3,-44.2 63.9,-76 1.5,-3.6 2.2,-8.2 6,-10.2 z"
     id="path44"
     style="fill:#fff200;stroke:#fff200;stroke-width:0.09375" />
  <path
     d="m 599.8,331.8 c 7.4,-5.7 13.5,-12.7 19.3,-19.9 4.7,0.6 9.3,1.5 13.9,2.6 -23.9,42.3 -71.1,68 -118.8,72.1 -4.9,0.2 -9.5,-1.8 -14.4,-2.4 -5.7,-1 -12.5,-0.8 -16.3,-6 7.9,-10 16.2,-19.6 24.6,-29.1 31.1,8.9 66.4,3.3 91.7,-17.3 z"
     id="path46"
     style="fill:#fff200;stroke:#fff200;stroke-width:0.09375" />
  <path
     d="m 642,316.9 c 4.9,-4.3 11.7,-4.9 18,-3.9 -7,27.3 -25.5,50.5 -47.9,67.1 -26.2,19.6 -56.8,32.1 -87.2,43.6 -26.1,7.2 -53.9,6 -80.4,1.5 10.6,-12.9 21.4,-25.5 32.5,-37.9 11.4,4.6 23.6,7.8 36,7.4 23.7,0.8 46.3,-8.4 66.3,-20.3 16.4,-9.9 31.2,-22 45.4,-34.7 7.5,-6.2 9.4,-16.8 17.3,-22.8 z"
     id="path48"
     style="fill:#fff200;stroke:#fff200;stroke-width:0.09375" />
  <path
     d="m 411.3,461.1 c 21.3,5 43,8.6 64.9,7.3 -25.3,27.3 -65.1,38 -101.2,32.5 11.7,-13.7 24.1,-26.6 36.3,-39.8 z"
     id="path50"
     style="fill:#fff200;stroke:#fff200;stroke-width:0.09375" />
  <path
     d="m 370.7,511.7 c 2.2,-2.4 5.1,-4.3 8.4,-4.5 5.1,-0.3 9.2,3.8 14.3,3.4 5.6,-0.2 11.2,-0.7 16.9,-0.7 -19.8,19.9 -38.9,40.5 -57.3,61.6 -5.5,-8.4 -6.4,-18.8 -5.1,-28.5 0.2,-3 2.7,-4.6 4.7,-6.4 8.2,-6.6 11.1,-17.4 18.1,-24.9 z"
     id="path52"
     style="fill:#fff200;stroke:#fff200;stroke-width:0.09375" />
  <path
     d="m 469.8,521.9 c 3.6,-3.7 9.2,-2 13.7,-2.1 -4.6,13.1 -14.2,24.8 -14.2,39.2 0.3,12.6 7.2,23.8 9.9,35.9 -3.6,1 -7.2,1.8 -10.9,2.4 0,-17.2 -7.7,-33.2 -8.3,-50.3 -0.5,-9.3 3,-18.7 9.8,-25.1 z"
     id="path54"
     style="fill:#fff200;stroke:#fff200;stroke-width:0.09375" />
  <path
     d="m 507.8,520.7 c 5.4,-0.1 10.9,-0.2 16.3,0.1 -7.8,9.1 -14.2,19.8 -14.6,32.1 -1.7,29 15.5,54.6 18.1,83 12.5,2.2 25.2,2 37.5,4.5 -10.7,0.5 -24.6,-2.2 -31.5,8.3 10.1,9.9 24.5,14.3 33.4,25.5 -8.6,-2.8 -15.4,-11.9 -25.4,-8.4 -1.5,10.4 4.7,20.3 2.3,30.6 -6.8,-12.2 -7.9,-27.2 -17.1,-38.2 -3.5,-3.9 -8.1,-8.2 -13.7,-7.5 -14.7,2.3 -27.3,10.5 -40.2,17.2 8.9,-14.5 29.2,-13.6 39.9,-26.2 2.3,-2.6 4,-6 3.9,-9.7 0.3,-28.2 -20.7,-51.8 -19.5,-80.1 -0.1,-2.9 0.6,-5.8 2.7,-8 5.9,-6.4 3.9,-15.9 7.9,-23.2 z"
     id="path56"
     style="fill:#fff200;stroke:#fff200;stroke-width:0.09375" />
  <path
     d="m 334.7,554.8 c 1.3,-2.1 2.7,-4 4,-5.9 0.9,9.7 3.5,19.2 8.2,27.9 -42.2,51.1 -90.8,97.3 -126.5,153.6 -5,7.4 -9,15.4 -13.8,22.9 -4.4,-16 0.8,-32.4 3.1,-48.4 0.8,-3.8 0.3,-8.7 3.8,-11.4 47.9,-38.9 88.8,-86.3 121.2,-138.7 z"
     id="path60"
     style="fill:#fff200;stroke:#fff200;stroke-width:0.09375" />
  <path
     d="m 289.4,575.3 c 13,-2.8 23.7,-11 34.5,-18.3 -28.7,48.5 -66.7,91 -109.4,127.5 -4,3.4 -7.9,7.6 -13.2,8.7 -11.4,2.6 -23.4,-0.5 -34.6,3.2 42.6,-31.9 75.8,-74.1 111.6,-113.1 3,-3.5 6.2,-7.3 11.1,-8 z"
     id="path62"
     style="fill:#fff200;stroke:#fff200;stroke-width:0.09375" />
  <path
     d="m 527,596.2 c 20.9,0.7 41.9,5.7 60.6,15.2 37.7,19.1 65.5,55 77.7,95.1 15.1,52.5 -3.1,111.2 -42,148.8 -34.9,35.1 -89,44.9 -136.2,34.5 -62.5,-12.7 -112.8,-71 -115.7,-134.7 -2.6,-47.4 18.1,-95.7 55.2,-125.5 17.5,-14 38.2,-23.7 59.9,-29.1 4.3,-1 8.6,-2.6 13.1,-2.2 7.2,6.3 9.2,16.5 9.6,25.7 -0.2,4.9 0.3,10.9 -3.6,14.6 -11.1,10.2 -27.3,12.3 -37.9,23.1 -5.1,5.2 -6.9,12.5 -6.7,19.6 14.6,-4.2 26.2,-14.6 40.1,-20.2 5.5,-2.1 12.1,-5.7 17.6,-1.7 7.6,5.2 9,15 11.7,23.2 3.7,11 6.4,22.2 10.5,33 10.8,-11 13.6,-27.8 9.1,-42.2 14.3,2.6 21.4,17.3 34.5,22.1 0.6,-10.6 -5.7,-20 -13,-27 -7.5,-7.6 -16.8,-12.9 -24.7,-20 14.9,-2.9 30.3,1 45,-3.3 -0.3,-2 -0.1,-4.6 -2.3,-5.6 -4.2,-2.7 -8.7,-5.2 -13.6,-6.2 -14.5,-2.5 -29.2,-2.7 -43.7,-4.5 -1.8,-10.9 -4.1,-21.7 -5.2,-32.7 m -82.2,124.6 c -5.6,12 -5.8,25.7 -4.1,38.6 1.6,0.1 3.2,0.2 4.8,0.4 -0.2,-14.2 1.3,-28.5 5.4,-42.1 -2.3,0.3 -5.2,0.5 -6.1,3.1 m -18.5,3.5 c -4.8,10 -6,22.3 -1.2,32.5 1.5,0.1 3,0.2 4.5,0.3 -3.4,-11.7 -1.2,-23.9 2.6,-35.2 -2,0.5 -4.9,0 -5.9,2.4 m -14.1,0.9 c -3.2,9.4 -2,19.7 0.7,29.1 1.4,0 2.8,0 4.2,0 -1.4,-9.9 -1.1,-19.8 -0.1,-29.7 -1.6,0.2 -3.2,0.4 -4.8,0.6 m -9.9,2.3 c -2.1,7.3 -2,15 -0.1,22.3 0.2,2.1 2.6,2.1 4.1,2.9 -0.6,-8.6 -0.9,-17.3 0,-26 -1.3,0.3 -2.7,0.6 -4,0.8 m -8.5,1.3 c -2.9,6.8 -1.5,14.1 -0.3,21.1 1.1,0.1 2.2,0.2 3.3,0.3 -0.6,-7.1 -0.7,-14.2 0.1,-21.3 -0.8,0 -2.3,-0.1 -3.1,-0.1 m -13.3,18.5 c 0.6,0.2 1.7,0.5 2.3,0.7 -0.2,-5.8 0,-11.7 -0.3,-17.5 -5.3,3.9 -2.8,11.4 -2,16.8 m 6.8,1.1 c 0.6,0.1 1.8,0.3 2.4,0.5 -0.6,-6.4 0,-12.7 -0.5,-19.1 -6.1,4.2 -3.1,12.7 -1.9,18.6 m -12.8,-15.7 c -0.6,4.9 -1.8,10.9 2.1,14.9 0.5,-5.2 0.3,-10.4 0.3,-15.6 -0.6,0.2 -1.8,0.5 -2.4,0.7 z"
     id="path64"
     style="fill:#fff200;stroke:#fff200;stroke-width:0.09375" />
  <path
     d="m 444.8,720.8 c 0.9,-2.6 3.8,-2.8 6.1,-3.1 -4.1,13.6 -5.6,27.9 -5.4,42.1 -1.6,-0.2 -3.2,-0.3 -4.8,-0.4 -1.7,-12.9 -1.5,-26.6 4.1,-38.6 z"
     id="path66"
     style="fill:#241f20;stroke:#241f20;stroke-width:0.09375" />
  <path
     d="m 426.3,724.3 c 1,-2.4 3.9,-1.9 5.9,-2.4 -3.8,11.3 -6,23.5 -2.6,35.2 -1.5,-0.1 -3,-0.2 -4.5,-0.3 -4.8,-10.2 -3.6,-22.5 1.2,-32.5 z"
     id="path68"
     style="fill:#241f20;stroke:#241f20;stroke-width:0.09375" />
  <path
     d="m 412.2,725.2 c 1.6,-0.2 3.2,-0.4 4.8,-0.6 -1,9.9 -1.3,19.8 0.1,29.7 -1.4,0 -2.8,0 -4.2,0 -2.7,-9.4 -3.9,-19.7 -0.7,-29.1 z"
     id="path70"
     style="fill:#241f20;stroke:#241f20;stroke-width:0.09375" />
  <path
     d="m 402.3,727.5 c 1.3,-0.2 2.7,-0.5 4,-0.8 -0.9,8.7 -0.6,17.4 0,26 -1.5,-0.8 -3.9,-0.8 -4.1,-2.9 -1.9,-7.3 -2,-15 0.1,-22.3 z"
     id="path72"
     style="fill:#241f20;stroke:#241f20;stroke-width:0.09375" />
  <path
     d="m 393.8,728.8 c 0.8,0 2.3,0.1 3.1,0.1 -0.8,7.1 -0.7,14.2 -0.1,21.3 -1.1,-0.1 -2.2,-0.2 -3.3,-0.3 -1.2,-7 -2.6,-14.3 0.3,-21.1 z"
     id="path74"
     style="fill:#241f20;stroke:#241f20;stroke-width:0.09375" />
  <path
     d="m 380.5,747.3 c -0.8,-5.4 -3.3,-12.9 2,-16.8 0.3,5.8 0.1,11.7 0.3,17.5 -0.6,-0.2 -1.7,-0.5 -2.3,-0.7 z"
     id="path76"
     style="fill:#241f20;stroke:#241f20;stroke-width:0.09375" />
  <path
     d="m 387.3,748.4 c -1.2,-5.9 -4.2,-14.4 1.9,-18.6 0.5,6.4 -0.1,12.7 0.5,19.1 -0.6,-0.2 -1.8,-0.4 -2.4,-0.5 z"
     id="path78"
     style="fill:#241f20;stroke:#241f20;stroke-width:0.09375" />
  <path
     d="m 374.5,732.7 c 0.6,-0.2 1.8,-0.5 2.4,-0.7 0,5.2 0.2,10.4 -0.3,15.6 -3.9,-4 -2.7,-10 -2.1,-14.9 z"
     id="path80"
     style="fill:#241f20;stroke:#241f20;stroke-width:0.09375" />
</svg>
