<?xml version="1.0" encoding="UTF-8"?>
<!-- Generator: Adobe Illustrator 17.0.0, SVG Export Plug-In . SVG Version: 6.00 Build 0)  -->
<!DOCTYPE svg PUBLIC "-//W3C//DTD SVG 1.1//EN" "http://www.w3.org/Graphics/SVG/1.1/DTD/svg11.dtd">
<svg version="1.1" id="svg2" xmlns:dc="http://purl.org/dc/elements/1.1/" xmlns:cc="http://creativecommons.org/ns#" xmlns:rdf="http://www.w3.org/1999/02/22-rdf-syntax-ns#" xmlns="http://www.w3.org/2000/svg" xmlns:xlink="http://www.w3.org/1999/xlink" x="0px" y="0px" width="425.197px" height="425.197px" viewBox="0 0 425.197 425.197" enable-background="new 0 0 425.197 425.197" xml:space="preserve">
<g>
	<path id="path4304" fill="#FFFFFF" d="M403.12,212.596c0,105.223-85.3,190.524-190.524,190.524   c-105.221-0.002-190.519-85.302-190.519-190.524c0.002-105.221,85.302-190.519,190.524-190.519   C317.821,22.079,403.118,107.376,403.12,212.596z"/>
	<path id="path5146" fill="#1D5BA4" d="M212.596,29.024c-49.036,0-95.132,19.099-129.807,53.767   c-34.667,34.675-53.767,80.772-53.767,129.807s19.099,95.132,53.767,129.807c34.674,34.674,80.772,53.767,129.807,53.767   s95.132-19.093,129.807-53.767c34.669-34.674,53.767-80.772,53.767-129.807s-19.099-95.132-53.767-129.807   C307.728,48.124,261.632,29.024,212.596,29.024z M212.596,36.768c96.956,0,175.827,78.872,175.827,175.827   s-78.871,175.837-175.827,175.837S36.769,309.551,36.769,212.596S115.641,36.768,212.596,36.768z"/>
	<path id="path5136" fill="#1D5BA4" d="M237.602,157.297v-5.713h-17.995c0,0,4.492,5.085,4.492,14.724v50.21   c-2.011,0.325-4.066,0.498-6.172,0.498c-0.493,0-0.98-0.022-1.473-0.034c0.683-3.596,1.075-7.471,1.075-11.667   c0-22.353-10.636-35.907-19.563-43.344c-3.517-2.929-7.415-5.449-11.555-7.522l0.011-13.201   c4.946-4.834,14.876-11.986,30.58-11.986c15.021,0,28.597,8.446,35.307,22.201c-5.427,1.406-10.221,3.444-14.708,5.83    M345.262,281.143c-0.773-0.308-1.591-0.465-2.431-0.476c-0.986-0.011-1.837,0.213-1.837,0.213s0.454,0.33,0.605,0.442   c1.255,0.919,5.203,4.587,3.164,13.263c-1.344,5.696-8.665,16.276-27.023,16.326h-0.005c-1.143-0.005-2.33-0.056-3.528-0.151   c-3.612-0.274-7.191-1.081-10.726-2.223c0.868-0.818,1.725-1.647,2.571-2.492c2.537-2.537,4.956-5.164,7.259-7.869   c-2.397-0.157-4.777-0.7-7.079-1.49c-2.929,3.26-6.026,6.362-9.28,9.303c-6.514-2.952-13.722-7.337-20.673-11.812   c-2.784-1.798-7.51-4.962-10.025-6.547c-8.799-5.545-17.631-10.736-28.581-14.584v-18.293   c17.569,4.117,34.439,16.354,42.353,22.033c0.98,0.7,2.044,1.495,3.181,2.341c7.443,5.551,21.288,15.48,35.156,15.48   c17.9,0,18.695-11.633,18.606-12.327c0,0-0.325,0.386-0.655,0.711c-1.008,0.975-3.601,3.271-9.807,3.058   c-1.115-0.039-2.336-0.207-3.612-0.588c14.226-21.428,21.865-46.558,21.865-72.863c0-72.872-59.283-132.155-132.155-132.155   S80.448,139.726,80.448,212.598s59.283,132.155,132.155,132.155c27.752,0,54.197-8.496,76.367-24.262   c-2.436-0.795-4.783-1.747-7.068-2.823c-19.888,13.162-43.714,20.84-69.297,20.84c-69.427,0-125.909-56.482-125.909-125.909   S143.178,86.69,212.605,86.69s125.909,56.483,125.909,125.909c0,26.127-8.009,50.411-21.686,70.551   c-4.956-2.291-11.219-6.116-17.827-10.171c-1.109-0.683-2.268-1.423-3.416-2.162c-9.768-6.34-16.959-10.188-22.7-12.159   c-0.594-0.202-2.061-0.622-2.817-0.739v-0.442c30.546-0.538,54.659-23.725,54.659-54.95c0-31.493-24.464-53.122-55.523-53.122   c-0.739,0-1.462,0.017-2.179,0.034c-8.676-17.912-27.428-29.035-49.888-29.035c-11.706,0-22.129,2.946-30.759,7.343v-5.494h-18.001   c0,0,4.441,4.061,4.441,13.699l-0.011,13.549c-4.626-1.103-9.376-1.697-14.103-1.697c-14.293,0-28.626,5.17-39.312,14.176   c-8.782,7.398-19.25,20.924-19.25,43.339c0,22.235,10.798,35.738,19.86,43.153c7.404,6.06,16.662,10.429,26.211,12.551   c1.322-2.42,2.481-5.058,3.013-7.264c-1.54-0.319-2.761-0.728-4.094-1.199c-5.08-2.005-8.076-5.797-8.076-10.328   c0-6.671,4.817-9.045,8.07-9.045c4.576,0,9.359,3.069,9.544,12.008c0.498,23.568-25.383,39.732-27.718,41.149   c2.313,2.677,4.749,5.248,7.298,7.701c0.616-0.325,1.535-0.818,2.156-1.154c8.799-4.805,29.264-16.354,58.75-16.164   c9.247,0.062,17.547,1.389,25.013,3.433v-11.453c-5.304-0.807-11.095-1.277-17.502-1.316c-24.722-0.157-45.025,7.286-57.49,13.728   l-0.162-0.241c3.26-2.952,9.683-9.874,14.064-18.41c1.484,0,3.237-0.073,4.738-0.196c0.571-0.521,1.154-1.187,1.669-1.871   c0.711-0.958,2.263-3.349,2.823-6.542c-1.977,0.448-4.01,0.762-6.094,0.913c0.807-2.694,1.322-5.466,1.406-8.261   c0.213-7.343-1.641-13.509-5.371-17.345c-3.192-3.288-7.645-5.024-12.865-5.024c-6.816,0-15.374,4.581-15.934,14.713   c-0.05,0.913,0.118,2.946,0.465,3.797l-0.325,0.168c-9.129-9.001-14.724-22.358-14.724-37.777   c0-28.049,18.981-49.197,44.156-49.197c25.36,0,43.775,20.689,43.775,49.197c0,3.243-0.252,6.396-0.722,9.437   c-6.06-2.044-11.28-5.18-15.632-8.916v-33.71c-3.836-4.072-8.423-7.197-13.609-9.191V249c0,8.743-4.458,13.873-4.458,13.879h21.843   c0,0-1.999-2.492-3.114-7.449c3.814-1.966,7.415-4.29,10.658-6.956c5.068-4.173,10.681-10.266,14.629-18.751   c-4.766-0.28-9.454-0.975-14.03-2.095c-2.84,6.681-6.934,12.439-11.986,16.914v-25.467c8.726,3.977,18.992,6.62,30.759,6.62   c9.65,0,15.738-1.798,20.594-3.528c19.687-7.007,34.467-25.59,34.467-49.372c0-3.338-0.28-6.553-0.807-9.65   c-4.766-0.291-11.857,0.694-14.96,1.68c0.398,2.599,0.61,5.304,0.61,8.104c0,17.351-7.712,31.163-19.311,38.443v-41.293   c8.877-6.923,17.379-11.453,31.93-11.453c22.101,0,39.664,17.99,39.664,44.184c0,26.273-17.922,45.702-41.513,45.702   c-11.913,0-21.137-3.209-30.082-8.592v-13.369c-4.335,1.451-8.883,2.436-13.559,2.935v50.684c0,8.743-4.492,13.879-4.492,13.879   h22.369c0,0-2.588-2.638-3.534-6.95c5.864,2.582,13.425,7.253,18.522,10.552c2.319,1.495,4.363,2.929,6.335,4.201   c15.178,9.83,29.074,18.538,49.466,18.538c13.431,0,21.95-4.217,27.309-8.188c6.2-4.593,9.824-10.905,10.692-16.516   c1.714-11.072-4.341-14.047-5.573-14.54"/>
	<path id="path5122" fill="#1D5BA4" d="M220.679,356.19c0.392-0.885,1.137-1.367,2.235-1.439c0.952-0.067,1.68,0.302,2.184,1.098   c0.51,0.801,0.807,1.871,0.902,3.209c0.095,1.462-0.101,2.616-0.594,3.472c-0.493,0.851-1.176,1.311-2.055,1.367   c-0.706,0.05-1.372-0.263-2.005-0.947c-0.638-0.678-1.003-1.725-1.098-3.136C220.142,358.279,220.287,357.07,220.679,356.19    M226.431,375.345c-0.582,0.98-1.288,1.501-2.117,1.557c-0.952,0.067-1.753-0.364-2.403-1.283c-0.65-0.924-1.042-2.347-1.171-4.273   c-0.14-2.072,0.045-3.562,0.554-4.481c0.515-0.913,1.232-1.406,2.162-1.467c0.947-0.067,1.759,0.33,2.431,1.193   c0.666,0.857,1.07,2.274,1.204,4.251C227.232,372.864,227.008,374.365,226.431,375.345 M231.853,367.672   c-0.353-0.7-0.784-1.288-1.294-1.77c-0.51-0.476-1.075-0.846-1.691-1.115c-0.622-0.263-1.21-0.426-1.781-0.482l-0.017-0.258   c0.554-0.157,1.075-0.403,1.568-0.728c0.493-0.33,0.913-0.728,1.26-1.204c0.342-0.482,0.605-1.031,0.784-1.652   c0.179-0.622,0.241-1.327,0.185-2.106c-0.05-0.756-0.258-1.462-0.622-2.123c-0.364-0.661-0.885-1.227-1.563-1.691   c-0.683-0.47-1.529-0.823-2.532-1.059c-1.008-0.241-2.173-0.314-3.484-0.224c-1.126,0.078-2.145,0.274-3.064,0.594   s-1.708,0.762-2.369,1.322c-0.661,0.554-1.159,1.221-1.501,1.988c-0.336,0.773-0.476,1.63-0.409,2.582   c0.045,0.655,0.202,1.266,0.47,1.82c0.274,0.56,0.61,1.042,1.019,1.456c0.409,0.409,0.879,0.756,1.411,1.025   c0.532,0.269,1.081,0.431,1.647,0.493l0.017,0.252c-0.65,0.196-1.266,0.487-1.848,0.879c-0.588,0.398-1.087,0.885-1.501,1.462   c-0.409,0.577-0.734,1.255-0.958,2.027c-0.235,0.779-0.314,1.652-0.246,2.627c0.084,1.193,0.37,2.229,0.851,3.097   c0.493,0.874,1.131,1.585,1.927,2.128c0.795,0.543,1.719,0.919,2.778,1.115c1.053,0.196,2.184,0.252,3.405,0.168   c1.243-0.084,2.392-0.308,3.444-0.672c1.047-0.364,1.938-0.896,2.66-1.596c0.722-0.694,1.271-1.54,1.647-2.532   c0.37-0.991,0.515-2.123,0.426-3.388C232.413,369.178,232.206,368.366,231.853,367.672 M170.254,349.453   c-1.848,0.235-3.786,0.42-5.802,0.549c0.162,0.224,0.358,0.577,0.588,1.064c0.224,0.487,0.42,0.941,0.577,1.367   c0.364-0.045,0.779-0.106,1.238-0.19c0.454-0.084,0.907-0.174,1.35-0.258c0.442-0.09,0.857-0.168,1.232-0.235   c0.375-0.067,0.655-0.118,0.84-0.14l-2.873,9.924c-0.286,0.986-0.588,1.949-0.902,2.901c-0.314,0.952-0.61,1.854-0.896,2.7   c-0.286,0.846-0.549,1.613-0.801,2.302c-0.252,0.689-0.442,1.221-0.577,1.591c0.482,0.084,0.952,0.196,1.411,0.33   c0.459,0.134,0.919,0.263,1.389,0.403c0.47,0.134,0.93,0.269,1.372,0.398c0.448,0.129,0.896,0.286,1.35,0.465   c0.431-1.731,0.812-3.26,1.159-4.581c0.347-1.322,0.7-2.604,1.059-3.853l0.773-2.672l0.627-2.145   c0.258-0.891,0.532-1.803,0.829-2.733s0.594-1.848,0.891-2.756c0.302-0.902,0.594-1.781,0.879-2.627   c0.28-0.846,0.549-1.613,0.801-2.302l-0.588-0.476C174.079,348.887,172.102,349.212,170.254,349.453 M260.699,369.061   c-0.101-0.403-0.185-0.79-0.241-1.171c-0.062-0.375-0.129-0.767-0.207-1.176c-1.675,0.554-3.327,1.053-4.968,1.501   c-1.635,0.442-3.304,0.896-5.001,1.355l-0.056-0.062c1.613-2.28,2.907-4.245,3.876-5.909c0.975-1.658,1.703-3.114,2.179-4.357   c0.476-1.243,0.745-2.319,0.818-3.232c0.067-0.913,0-1.759-0.196-2.543c-0.174-0.683-0.482-1.355-0.913-2.016   c-0.431-0.655-1.042-1.204-1.82-1.647c-0.784-0.442-1.759-0.717-2.935-0.818c-1.171-0.106-2.576,0.05-4.206,0.47   c-2.083,0.532-3.618,1.389-4.598,2.571c-0.986,1.187-1.523,2.47-1.624,3.859c0.571,0.258,1.131,0.51,1.675,0.762   c0.538,0.252,1.103,0.543,1.697,0.874l0.325-0.202c-0.123-0.47-0.207-1.014-0.269-1.63c-0.056-0.616-0.022-1.227,0.106-1.826   c0.123-0.594,0.353-1.137,0.7-1.613c0.342-0.476,0.846-0.801,1.507-0.975c0.454-0.112,0.913-0.134,1.383-0.067   s0.93,0.258,1.378,0.571c0.442,0.319,0.851,0.773,1.215,1.372c0.37,0.599,0.678,1.383,0.924,2.352   c0.297,1.159,0.42,2.363,0.358,3.618c-0.056,1.249-0.33,2.604-0.812,4.061c-0.482,1.462-1.182,3.058-2.1,4.789   c-0.919,1.736-2.078,3.668-3.472,5.785l0.381,1.495c1.266-0.375,2.537-0.728,3.814-1.053c1.277-0.33,2.554-0.655,3.831-0.98   c1.35-0.347,2.672-0.683,3.977-1.019c1.299-0.33,2.632-0.65,3.988-0.947c-0.106-0.325-0.224-0.672-0.358-1.042   C260.921,369.841,260.8,369.464,260.699,369.061 M198.423,358.917c-0.174,1.456-0.577,2.554-1.221,3.304   c-0.638,0.751-1.4,1.07-2.268,0.969c-0.706-0.084-1.305-0.515-1.803-1.299c-0.498-0.784-0.666-1.882-0.498-3.288   c0.179-1.529,0.543-2.688,1.092-3.484c0.549-0.795,1.372-1.131,2.464-1.003c0.941,0.112,1.591,0.605,1.943,1.484   C198.485,356.476,198.58,357.585,198.423,358.917 M197.331,370.701c-0.235,2.011-0.734,3.45-1.484,4.307s-1.54,1.238-2.364,1.137   c-0.952-0.106-1.658-0.678-2.128-1.703c-0.465-1.031-0.588-2.498-0.364-4.413c0.246-2.061,0.7-3.495,1.372-4.301   c0.672-0.807,1.473-1.154,2.392-1.047c0.947,0.112,1.669,0.65,2.173,1.619C197.427,367.268,197.561,368.736,197.331,370.701    M201.896,354.975c-0.588-0.588-1.35-1.087-2.296-1.507c-0.947-0.42-2.078-0.706-3.383-0.863c-1.12-0.129-2.156-0.123-3.12,0.022   c-0.963,0.146-1.82,0.431-2.571,0.857c-0.756,0.431-1.367,0.991-1.843,1.686c-0.476,0.695-0.767,1.512-0.879,2.459   c-0.078,0.655-0.034,1.283,0.129,1.876c0.162,0.599,0.409,1.137,0.734,1.619c0.325,0.482,0.723,0.902,1.199,1.266   c0.47,0.364,0.98,0.627,1.529,0.79l-0.034,0.252c-0.666,0.067-1.327,0.246-1.977,0.526c-0.65,0.28-1.227,0.666-1.742,1.159   c-0.515,0.493-0.952,1.098-1.322,1.815c-0.364,0.722-0.605,1.563-0.723,2.537c-0.14,1.187-0.05,2.252,0.269,3.204   c0.319,0.947,0.818,1.759,1.501,2.442c0.683,0.683,1.523,1.221,2.526,1.607c0.997,0.386,2.1,0.65,3.316,0.795   c1.238,0.146,2.403,0.134,3.506-0.028c1.103-0.168,2.072-0.526,2.912-1.081c0.84-0.549,1.535-1.283,2.083-2.184   c0.549-0.907,0.896-1.994,1.047-3.254c0.106-0.919,0.05-1.759-0.168-2.509c-0.218-0.75-0.532-1.406-0.947-1.971   c-0.414-0.566-0.902-1.036-1.456-1.411c-0.56-0.37-1.115-0.638-1.658-0.801l0.028-0.258c0.571-0.05,1.131-0.196,1.675-0.426   c0.543-0.235,1.031-0.549,1.456-0.958c0.431-0.403,0.79-0.896,1.081-1.473c0.286-0.582,0.482-1.26,0.571-2.039   c0.09-0.751,0.017-1.484-0.218-2.201C202.888,356.207,202.473,355.557,201.896,354.975"/>
	<path id="path862" fill="#1D5BA4" d="M120.166,83.174c0.756,1.171,1.602,1.983,2.537,2.436c0.935,0.459,1.904,0.722,2.912,0.795   c1.008,0.078,2.033,0.034,3.064-0.129c1.031-0.157,2.005-0.269,2.929-0.325c0.924-0.062,1.77,0.011,2.537,0.207   c0.767,0.202,1.406,0.689,1.91,1.467c0.56,0.863,0.745,1.792,0.56,2.784c-0.185,0.991-0.896,1.887-2.123,2.683   c-0.616,0.403-1.227,0.672-1.831,0.818s-1.182,0.174-1.725,0.095c-0.549-0.084-1.064-0.252-1.551-0.504   c-0.482-0.252-0.913-0.577-1.288-0.98l-0.582,0.381c0.347,0.762,0.644,1.49,0.891,2.173c0.241,0.689,0.487,1.462,0.75,2.308   c0.672,0.056,1.523-0.078,2.548-0.409c1.025-0.325,2.089-0.851,3.192-1.568c1.232-0.795,2.24-1.675,3.03-2.638   c0.79-0.963,1.344-1.977,1.669-3.047s0.403-2.156,0.246-3.26c-0.162-1.098-0.577-2.162-1.238-3.187   c-0.762-1.171-1.613-1.977-2.554-2.425c-0.947-0.454-1.938-0.711-2.974-0.784c-1.036-0.067-2.072-0.022-3.097,0.134   c-1.036,0.157-2.027,0.269-2.974,0.33c-0.947,0.062-1.809,0.006-2.582-0.179s-1.406-0.655-1.899-1.411   c-0.476-0.739-0.599-1.574-0.364-2.515c0.235-0.935,0.823-1.714,1.77-2.324c1.82-1.182,3.635-1.103,5.433,0.235l0.459-0.302   c-0.235-0.807-0.426-1.473-0.577-1.999s-0.291-1.087-0.409-1.68c-0.902-0.084-1.854,0.006-2.856,0.28   c-1.003,0.274-2.055,0.767-3.164,1.484c-0.919,0.599-1.703,1.305-2.347,2.134c-0.644,0.823-1.103,1.719-1.383,2.683   c-0.274,0.963-0.336,1.983-0.185,3.047C119.051,81.046,119.472,82.11,120.166,83.174 M94.778,105.51   c1.288,1.339,2.61,2.75,3.965,4.24c1.355,1.49,2.599,2.884,3.736,4.184c1.131,1.299,2.089,2.403,2.868,3.31   c0.779,0.913,1.221,1.456,1.322,1.63c0.37-0.426,0.756-0.829,1.159-1.221c0.19-0.185,0.398-0.381,0.605-0.588   c0.213-0.202,0.437-0.386,0.683-0.554c-0.202-0.179-0.47-0.42-0.801-0.728c-0.33-0.308-0.756-0.706-1.266-1.199   c-0.504-0.493-1.12-1.103-1.843-1.831c-0.722-0.734-1.591-1.624-2.61-2.677l-2.952-3.058c-0.51-0.526-1.008-1.047-1.49-1.563   c-0.482-0.521-0.963-1.042-1.439-1.568c8.182,0.347,16.119,0.885,23.809,1.602c0.263-0.325,0.588-0.672,0.975-1.042   c0.37-0.358,0.745-0.689,1.131-0.991l-3.052-3.164c-1.221-1.26-2.369-2.453-3.439-3.579c-1.064-1.126-2.134-2.274-3.204-3.45   c-1.064-1.176-2.195-2.436-3.394-3.775c-1.193-1.344-2.515-2.856-3.971-4.537c-0.409,0.56-0.762,0.986-1.059,1.277   c-0.302,0.286-0.739,0.627-1.316,1.014c0.207,0.14,0.571,0.454,1.087,0.935c0.521,0.487,1.12,1.075,1.809,1.77   s1.439,1.451,2.251,2.28c0.812,0.823,1.641,1.669,2.47,2.526l2.47,2.56l2.212,2.291c-4.021-0.224-7.958-0.459-11.812-0.711   c-3.853-0.246-7.768-0.51-11.734-0.784c-0.409,0.566-0.762,0.991-1.059,1.277c-0.297,0.291-0.739,0.627-1.311,1.014   c0.627,0.616,1.355,1.316,2.19,2.111C92.605,103.298,93.602,104.3,94.778,105.51 M186.03,48.154   c-0.235,0.09-0.452,0.172-0.665,0.245c-0.207,0.073-0.439,0.127-0.674,0.166c-0.246,0.045-0.476,0.07-0.7,0.07   c-0.218,0-0.462-0.003-0.709-0.009c-0.297,1.462-0.619,3.04-0.989,4.743c-0.364,1.697-0.736,3.416-1.111,5.163   c-0.386,1.753-0.769,3.484-1.155,5.198c-0.392,1.714-0.752,3.323-1.094,4.813c-0.336,1.495-0.645,2.838-0.936,4.026   c-0.291,1.193-0.533,2.123-0.718,2.8c0.33-0.106,0.645-0.186,0.936-0.236c0.286-0.05,0.572-0.095,0.858-0.14   c0.291-0.05,0.569-0.104,0.849-0.149c0.274-0.05,0.561-0.073,0.858-0.079c0.134-1.232,0.306-2.504,0.508-3.798   c0.196-1.299,0.431-2.601,0.7-3.912c0.622-0.129,1.245-0.253,1.873-0.376c0.622-0.118,1.242-0.226,1.864-0.333   c0.773-0.134,1.546-0.267,2.319-0.385c0.773-0.123,1.546-0.235,2.319-0.341c0.666,1.148,1.312,2.303,1.934,3.457   c0.616,1.159,1.223,2.298,1.812,3.413c0.498-0.14,1.002-0.252,1.523-0.341c0.515-0.084,1.027-0.182,1.531-0.271   c0.51-0.084,1.019-0.17,1.54-0.254c0.515-0.09,1.066-0.16,1.654-0.21c-0.935-1.277-2.007-2.853-3.194-4.734   c-1.187-1.876-2.425-3.859-3.702-5.96c-1.277-2.095-2.547-4.23-3.824-6.414C188.356,52.122,187.15,50.069,186.03,48.154   L186.03,48.154z M184.481,55.593c0.829,1.344,1.615,2.678,2.372,3.999c0.762,1.316,1.532,2.665,2.31,4.043l-6.599,1.129   c0.274-1.557,0.57-3.088,0.884-4.594C183.756,58.669,184.106,57.144,184.481,55.593L184.481,55.593z M165.334,53.422   c-1.008,0.062-2.335,0.361-3.982,0.91c-0.835,0.274-1.678,0.589-2.529,0.936s-1.682,0.65-2.494,0.919   c-0.582,0.19-1.105,0.346-1.575,0.464c-0.482,0.118-0.921,0.222-1.33,0.306c0.588,1.479,1.154,2.958,1.698,4.437   c0.543,1.479,1.126,3.175,1.759,5.102l1.575,4.734c0.638,1.921,1.18,3.633,1.628,5.146c0.448,1.507,0.871,2.996,1.251,4.463   c0.381-0.174,0.795-0.339,1.26-0.49c0.459-0.157,0.99-0.32,1.566-0.516c0.577-0.19,1.102-0.365,1.566-0.516   c0.459-0.157,0.895-0.275,1.304-0.359c-0.678-1.652-1.312-3.336-1.917-5.05c-0.61-1.714-1.2-3.444-1.776-5.18l1.768-0.595   c1.299-0.431,2.451-0.963,3.448-1.601c0.997-0.644,1.793-1.383,2.398-2.24c0.605-0.857,0.971-1.834,1.094-2.932   c0.129-1.092-0.027-2.301-0.464-3.623c-0.347-1.042-0.815-1.876-1.409-2.503s-1.366-1.121-2.302-1.479   C167.183,53.469,166.342,53.355,165.334,53.422L165.334,53.422z M162.516,56.415c0.51,0.011,0.985,0.147,1.444,0.394   c0.454,0.246,0.88,0.635,1.278,1.173c0.392,0.538,0.741,1.247,1.033,2.127c0.37,1.115,0.503,2.066,0.403,2.844   c-0.101,0.779-0.352,1.434-0.744,1.96c-0.392,0.532-0.876,0.95-1.453,1.269c-0.571,0.319-1.147,0.58-1.724,0.77   c-0.538-1.624-1.066-3.238-1.593-4.857c-0.521-1.613-1.049-3.261-1.575-4.936c0.084-0.056,0.189-0.101,0.306-0.14   c0.112-0.039,0.224-0.083,0.341-0.122l0.805-0.263C161.519,56.471,162.012,56.404,162.516,56.415L162.516,56.415z M81.229,128.284   l4.089,2.851c1.663,1.159,3.125,2.207,4.391,3.142s2.498,1.876,3.691,2.812c0.09-0.174,0.213-0.381,0.364-0.616   c0.151-0.241,0.381-0.582,0.694-1.036c0.319-0.448,0.734-1.042,1.249-1.787c0.532-0.756,1.221-1.747,2.078-2.968   c0.963-1.383,1.725-2.47,2.291-3.254c0.56-0.784,1.036-1.434,1.439-1.966c-0.151-0.039-0.325-0.118-0.515-0.224   c-0.196-0.101-0.454-0.269-0.773-0.493s-0.566-0.409-0.728-0.554c-0.168-0.146-0.347-0.314-0.538-0.51   c-0.672,1.26-1.378,2.481-2.111,3.668c-0.739,1.182-1.507,2.341-2.302,3.484c-1.243-0.778-2.515-1.624-3.814-2.532   c-0.644-0.448-1.283-0.896-1.915-1.355s-1.271-0.907-1.91-1.355c1.579-2.263,3.254-4.475,5.029-6.631   c-0.347-0.185-0.622-0.319-0.812-0.409c-0.19-0.09-0.364-0.19-0.526-0.302c-0.196-0.134-0.381-0.28-0.549-0.426   c-0.168-0.146-0.398-0.37-0.694-0.666c-0.739,1.182-1.456,2.319-2.145,3.394c-0.694,1.081-1.484,2.28-2.375,3.596   c-1.103-0.773-2.19-1.54-3.265-2.302c-1.075-0.767-2.134-1.574-3.176-2.42c0.151-0.224,0.42-0.582,0.801-1.092   c0.386-0.504,0.823-1.07,1.322-1.691c0.493-0.622,0.997-1.266,1.523-1.932c0.521-0.661,1.003-1.271,1.451-1.82   c-0.252-0.118-0.47-0.224-0.666-0.33c-0.19-0.106-0.448-0.269-0.773-0.493c-0.515-0.364-0.907-0.7-1.176-1.003   c-0.235,0.431-0.745,1.227-1.518,2.403c-0.773,1.171-1.68,2.498-2.711,3.982c-0.627,0.896-1.271,1.775-1.927,2.627   c-0.655,0.857-1.311,1.725-1.955,2.61c1.35,0.84,2.683,1.691,3.999,2.56C78.081,126.111,79.571,127.119,81.229,128.284    M83.229,156.288c0.112-0.258,0.286-0.633,0.526-1.131c0.235-0.493,0.554-1.148,0.947-1.96c0.403-0.835,0.93-1.927,1.579-3.265   c0.728-1.518,1.311-2.705,1.742-3.573c0.431-0.863,0.801-1.585,1.109-2.167c-0.151-0.017-0.336-0.067-0.543-0.14   s-0.487-0.196-0.84-0.364s-0.622-0.314-0.807-0.431c-0.19-0.118-0.392-0.258-0.61-0.42c-0.465,1.35-0.963,2.672-1.507,3.954   c-0.538,1.283-1.109,2.554-1.714,3.809c-1.355-0.571-2.744-1.204-4.173-1.893c-0.7-0.342-1.406-0.683-2.1-1.036   c-0.7-0.353-1.4-0.694-2.106-1.036c1.199-2.481,2.504-4.934,3.915-7.343c-0.375-0.123-0.661-0.218-0.868-0.274   c-0.202-0.056-0.392-0.129-0.566-0.213c-0.218-0.106-0.426-0.218-0.61-0.336c-0.19-0.118-0.454-0.302-0.795-0.549   c-0.538,1.288-1.064,2.52-1.579,3.691c-0.51,1.176-1.103,2.487-1.77,3.926c-1.21-0.582-2.408-1.171-3.59-1.753   s-2.352-1.215-3.523-1.887c0.118-0.241,0.325-0.638,0.622-1.204c0.302-0.56,0.644-1.187,1.031-1.882   c0.392-0.689,0.79-1.406,1.204-2.145c0.409-0.734,0.79-1.411,1.143-2.027c-0.263-0.073-0.498-0.146-0.711-0.224   c-0.207-0.073-0.487-0.196-0.84-0.364c-0.571-0.274-1.008-0.543-1.322-0.801c-0.168,0.465-0.538,1.333-1.115,2.616   c-0.582,1.277-1.26,2.733-2.044,4.357c-0.482,0.991-0.975,1.96-1.49,2.907c-0.51,0.947-1.014,1.904-1.512,2.884   c1.462,0.616,2.918,1.243,4.352,1.893c1.439,0.644,3.069,1.406,4.895,2.291l4.486,2.167c1.82,0.879,3.433,1.68,4.834,2.403   c1.4,0.728,2.761,1.456,4.089,2.19C83.033,156.769,83.117,156.545,83.229,156.288 M60.205,191.736   c-2.195-0.101-4.127,0.182-5.802,0.831c-1.68,0.644-3.092,1.564-4.218,2.757c-1.126,1.199-1.997,2.63-2.608,4.288   c-0.616,1.658-0.957,3.468-1.041,5.417c-0.095,2.123,0.151,4.061,0.761,5.819c0.605,1.764,1.474,3.279,2.617,4.55   c1.143,1.277,2.492,2.289,4.043,3.028c1.557,0.739,3.237,1.155,5.041,1.234c2.274,0.101,4.244-0.17,5.925-0.831   c1.68-0.661,3.077-1.587,4.192-2.774c1.12-1.182,1.96-2.579,2.52-4.192s0.875-3.312,0.954-5.093   c0.694-1.288,1.412-2.767,1.916-3.64c0.504-0.874,0.969-1.833,1.461-2.634c0.386-0.644,0.816-1.362,1.208-1.978   c-0.448-0.689-0.768-1.478-1.138-2.442c-0.414-1.092-0.815-2.599-0.91-2.879c-0.118,0.347-0.463,1.656-0.648,2.205   c-0.308,0.902-0.622,2.001-1.059,3.255c-0.347,0.997-0.715,1.931-1.146,2.967c-0.448-1.484-1.053-2.821-1.82-4.008   c-0.767-1.182-1.668-2.194-2.704-3.045s-2.194-1.522-3.465-2.004C63.012,192.08,61.651,191.797,60.205,191.736L60.205,191.736z    M59.173,197.704c1.999,0.09,3.727,0.389,5.172,0.91c1.439,0.515,2.617,1.167,3.535,1.952c0.919,0.79,1.59,1.697,2.004,2.722   c0.42,1.019,0.61,2.07,0.56,3.168c-0.045,1.025-0.274,1.998-0.683,2.905c-0.409,0.913-1.03,1.699-1.881,2.372   c-0.846,0.672-1.956,1.182-3.317,1.54c-1.355,0.353-3.007,0.492-4.962,0.403c-1.563-0.067-3.023-0.306-4.384-0.726   c-1.361-0.414-2.544-0.987-3.535-1.715c-0.997-0.728-1.773-1.603-2.328-2.617c-0.549-1.014-0.8-2.143-0.744-3.387   c0.05-1.171,0.342-2.24,0.858-3.203c0.521-0.969,1.237-1.786,2.144-2.442c0.907-0.655,1.996-1.149,3.273-1.479   C56.156,197.77,57.588,197.637,59.173,197.704z M68.527,161.933c-1.535-0.409-2.985-0.823-4.357-1.227   c-1.367-0.409-2.616-0.79-3.747-1.148c-1.131-0.353-2.128-0.672-2.985-0.958c-0.863-0.28-1.546-0.515-2.05-0.7   c-0.034,0.319-0.073,0.622-0.118,0.919c-0.039,0.291-0.101,0.588-0.185,0.896c-0.067,0.258-0.162,0.538-0.28,0.835   s-0.246,0.605-0.381,0.924c1.652,0.342,3.293,0.711,4.917,1.098c1.63,0.386,3.26,0.801,4.884,1.238   c1.652,0.448,3.226,0.924,4.722,1.423c1.49,0.51,2.772,1.126,3.842,1.854c1.07,0.734,1.848,1.591,2.336,2.588   c0.493,0.991,0.549,2.195,0.168,3.607c-0.314,1.154-0.706,2.139-1.176,2.946c-0.47,0.812-1.148,1.417-2.027,1.826   s-2.022,0.588-3.422,0.538c-1.406-0.05-3.181-0.364-5.327-0.941c-2.027-0.549-4.021-1.109-5.976-1.691   c-1.955-0.577-4.044-1.294-6.267-2.145c-0.084,0.487-0.168,0.98-0.269,1.484c-0.095,0.504-0.207,0.991-0.336,1.467   c-0.129,0.47-0.274,0.947-0.442,1.434c-0.174,0.487-0.342,0.958-0.515,1.417c0.599,0.112,1.495,0.314,2.677,0.61   c1.187,0.291,2.733,0.694,4.643,1.21c0.638,0.174,1.249,0.347,1.837,0.515c0.582,0.174,1.199,0.342,1.831,0.515   c0.638,0.168,1.327,0.364,2.067,0.571c0.739,0.213,1.579,0.448,2.52,0.7c1.675,0.454,3.17,0.56,4.486,0.319   s2.476-0.739,3.484-1.507c1.003-0.767,1.837-1.764,2.509-2.985c0.672-1.221,1.21-2.588,1.619-4.1   c0.919-3.416,0.728-6.25-0.577-8.496c-1.299-2.251-4.005-3.926-8.104-5.035 M352.245,153.89c-1.904,0.706-3.596,1.311-5.085,1.82   c-1.495,0.51-2.963,0.986-4.413,1.434c0.09,0.174,0.19,0.392,0.297,0.65c0.112,0.258,0.263,0.644,0.454,1.159   c0.19,0.515,0.442,1.199,0.756,2.044c0.325,0.868,0.745,1.999,1.266,3.4c0.582,1.579,1.036,2.823,1.361,3.73   c0.325,0.913,0.594,1.68,0.795,2.308c0.123-0.101,0.28-0.196,0.482-0.297c0.196-0.101,0.476-0.218,0.84-0.353   c0.37-0.134,0.661-0.23,0.874-0.286c0.213-0.05,0.459-0.101,0.722-0.151c-0.65-1.271-1.255-2.543-1.809-3.82   c-0.549-1.283-1.07-2.571-1.551-3.876c1.344-0.582,2.767-1.143,4.251-1.697c0.734-0.274,1.467-0.538,2.207-0.801   c0.734-0.258,1.467-0.526,2.201-0.795c0.963,2.588,1.826,5.22,2.588,7.908c0.347-0.179,0.611-0.325,0.795-0.431   c0.179-0.106,0.364-0.196,0.549-0.263c0.224-0.084,0.448-0.151,0.661-0.207c0.218-0.056,0.532-0.118,0.947-0.196   c-0.554-1.277-1.075-2.509-1.568-3.696c-0.493-1.182-1.025-2.515-1.602-3.993c1.26-0.465,2.515-0.924,3.753-1.372   s2.504-0.857,3.797-1.232c0.095,0.252,0.241,0.678,0.442,1.283c0.196,0.605,0.409,1.283,0.638,2.044s0.47,1.546,0.717,2.352   c0.246,0.807,0.47,1.551,0.672,2.235c0.235-0.14,0.454-0.263,0.65-0.358c0.196-0.101,0.476-0.218,0.846-0.353   c0.594-0.224,1.092-0.353,1.49-0.398c-0.213-0.442-0.582-1.316-1.103-2.621c-0.521-1.299-1.098-2.8-1.725-4.492   c-0.386-1.031-0.739-2.061-1.07-3.086c-0.325-1.025-0.672-2.055-1.031-3.092c-1.456,0.633-2.918,1.238-4.38,1.831   c-1.462,0.582-3.142,1.232-5.046,1.938L352.245,153.89L352.245,153.89z M308.324,108.009c0.42,0.381,0.818,0.773,1.204,1.187   c0.179,0.196,0.37,0.398,0.571,0.616c0.202,0.213,0.381,0.442,0.543,0.694c0.179-0.202,0.426-0.465,0.745-0.79   c0.314-0.325,0.722-0.739,1.221-1.238c0.504-0.504,1.126-1.109,1.871-1.815c0.739-0.706,1.647-1.557,2.722-2.554l3.114-2.896   c0.532-0.498,1.064-0.986,1.596-1.456c0.521-0.476,1.053-0.941,1.591-1.406c-0.504,8.166-1.193,16.091-2.055,23.764   c0.319,0.274,0.661,0.605,1.025,0.997c0.347,0.375,0.672,0.762,0.969,1.154l3.22-2.996c1.283-1.199,2.498-2.319,3.646-3.366   c1.143-1.047,2.313-2.095,3.506-3.136c1.199-1.047,2.476-2.151,3.842-3.321c1.361-1.171,2.901-2.464,4.61-3.887   c-0.554-0.42-0.969-0.779-1.255-1.081c-0.28-0.308-0.611-0.75-0.991-1.333c-0.14,0.202-0.459,0.554-0.958,1.064   c-0.493,0.51-1.092,1.103-1.798,1.775c-0.706,0.672-1.484,1.411-2.324,2.212c-0.84,0.795-1.697,1.602-2.576,2.42l-2.599,2.42   l-2.335,2.167c0.302-4.016,0.616-7.948,0.935-11.795c0.319-3.853,0.655-7.757,1.008-11.717c-0.554-0.42-0.975-0.779-1.255-1.087   c-0.286-0.302-0.611-0.745-0.991-1.327c-0.627,0.616-1.344,1.333-2.151,2.151c-0.807,0.812-1.826,1.798-3.058,2.946   c-1.361,1.266-2.8,2.56-4.318,3.887s-2.935,2.543-4.251,3.652c-1.322,1.109-2.442,2.044-3.372,2.806   C309.053,107.482,308.504,107.914,308.324,108.009 M300.959,84.884c1.294-0.829,2.621-1.652,3.993-2.464   c-0.381,1.529-0.779,3.024-1.187,4.492s-0.835,2.957-1.271,4.481l-5.439-3.926C298.366,86.575,299.665,85.713,300.959,84.884    M285.792,91.117c0.302,0.162,0.577,0.33,0.812,0.498c0.241,0.174,0.476,0.347,0.717,0.515c0.235,0.174,0.465,0.342,0.694,0.504   c0.224,0.168,0.442,0.353,0.655,0.566c0.98-0.767,1.999-1.54,3.064-2.308c1.064-0.762,2.162-1.507,3.288-2.235   c0.526,0.353,1.053,0.711,1.579,1.075c0.515,0.358,1.036,0.728,1.551,1.098c0.633,0.459,1.266,0.919,1.893,1.389   c0.622,0.465,1.243,0.941,1.865,1.417c-0.353,1.283-0.728,2.548-1.12,3.797c-0.392,1.255-0.779,2.481-1.165,3.68   c0.442,0.263,0.879,0.543,1.305,0.851s0.851,0.61,1.266,0.913c0.409,0.302,0.829,0.605,1.26,0.913   c0.426,0.308,0.863,0.65,1.305,1.036c0.258-1.563,0.638-3.428,1.148-5.59s1.064-4.436,1.669-6.816   c0.599-2.38,1.238-4.789,1.899-7.231c0.666-2.448,1.294-4.738,1.876-6.878c-0.23-0.101-0.442-0.202-0.644-0.302   c-0.196-0.095-0.398-0.218-0.594-0.364c-0.202-0.14-0.375-0.291-0.532-0.448c-0.157-0.162-0.325-0.33-0.487-0.51   c-1.255,0.812-2.61,1.68-4.077,2.61c-1.473,0.924-2.963,1.865-4.481,2.817s-3.019,1.893-4.52,2.817   c-1.495,0.919-2.89,1.787-4.201,2.588c-1.299,0.807-2.481,1.523-3.534,2.145C287.232,90.294,286.403,90.775,285.792,91.117    M333.466,126.531c-0.913,1.395-1.495,2.912-1.747,4.559c-0.246,1.647-0.151,3.366,0.291,5.17c0.442,1.798,1.204,3.596,2.285,5.399   c0.829,1.378,1.787,2.711,2.868,3.982c1.075,1.277,2.235,2.481,3.461,3.624c0.162-0.157,0.465-0.375,0.907-0.655   c0.442-0.28,0.93-0.577,1.451-0.891l1.036-0.627c0.504-0.302,1.036-0.61,1.596-0.935s1.092-0.622,1.596-0.896   s0.958-0.51,1.35-0.706c0.398-0.196,0.689-0.325,0.885-0.381c-0.168-0.185-0.381-0.448-0.633-0.795   c-0.252-0.347-0.599-0.902-1.053-1.652c-0.392-0.65-0.678-1.154-0.851-1.518c-0.174-0.364-0.308-0.666-0.392-0.902   c-0.28,0.202-0.807,0.571-1.574,1.12c-0.767,0.543-1.999,1.327-3.691,2.347c-0.459,0.28-0.879,0.526-1.266,0.739   c-0.381,0.218-0.711,0.381-0.986,0.487c-0.162-0.073-0.364-0.224-0.599-0.454c-0.235-0.224-0.47-0.493-0.711-0.79   c-0.235-0.297-0.476-0.61-0.711-0.941c-0.241-0.325-0.442-0.622-0.605-0.896c-0.728-1.21-1.159-2.425-1.283-3.629   c-0.129-1.204,0.005-2.369,0.398-3.489c0.398-1.12,1.025-2.173,1.882-3.159c0.857-0.991,1.915-1.859,3.176-2.616   c1.652-0.997,3.226-1.63,4.727-1.904c1.501-0.28,2.884-0.291,4.15-0.039c1.26,0.252,2.38,0.734,3.36,1.439   c0.98,0.706,1.764,1.54,2.341,2.504c0.868,1.445,1.316,2.84,1.344,4.195c0.028,1.35-0.224,2.644-0.762,3.876l0.263,0.442   c0.605-0.224,1.221-0.414,1.837-0.571s1.243-0.319,1.893-0.476c-0.073-1.495-0.297-2.924-0.672-4.279s-1.036-2.828-1.994-4.419   c-1.109-1.843-2.392-3.405-3.853-4.693c-1.456-1.288-3.03-2.218-4.722-2.778c-1.691-0.566-3.489-0.722-5.382-0.487   c-1.893,0.241-3.831,0.963-5.819,2.156C335.644,123.96,334.384,125.142,333.466,126.531 M378.876,208.817   c-0.353-0.986-0.863-1.854-1.529-2.599c-0.672-0.75-1.495-1.35-2.476-1.787c-0.986-0.442-2.111-0.655-3.377-0.638   c-1.395,0.011-2.532,0.291-3.416,0.84s-1.63,1.227-2.229,2.039c-0.605,0.818-1.115,1.703-1.529,2.66   c-0.414,0.952-0.846,1.837-1.288,2.649s-0.952,1.49-1.535,2.033c-0.582,0.543-1.333,0.818-2.263,0.829   c-1.025,0.011-1.91-0.325-2.649-1.014c-0.739-0.689-1.115-1.764-1.131-3.226c-0.011-0.734,0.084-1.395,0.286-1.983   s0.482-1.092,0.846-1.512c0.358-0.42,0.779-0.767,1.249-1.042c0.476-0.274,0.98-0.459,1.518-0.566l-0.005-0.694   c-0.835-0.112-1.607-0.252-2.319-0.414c-0.706-0.162-1.49-0.358-2.347-0.594c-0.409,0.538-0.751,1.333-1.019,2.369   c-0.269,1.042-0.398,2.223-0.381,3.54c0.017,1.467,0.218,2.789,0.61,3.971c0.392,1.176,0.952,2.19,1.686,3.041   c0.728,0.846,1.602,1.495,2.621,1.943c1.019,0.454,2.139,0.672,3.36,0.661c1.389-0.017,2.526-0.302,3.416-0.863   c0.885-0.56,1.63-1.26,2.246-2.095c0.611-0.84,1.126-1.736,1.546-2.694c0.414-0.958,0.851-1.848,1.305-2.688   c0.454-0.835,0.963-1.529,1.535-2.083c0.566-0.56,1.305-0.84,2.207-0.851c0.879-0.011,1.652,0.336,2.319,1.036   s1.008,1.613,1.019,2.739c0.022,2.173-1.008,3.657-3.097,4.464l0.005,0.549c0.807,0.235,1.473,0.431,1.999,0.582   s1.07,0.336,1.635,0.549c0.554-0.711,0.986-1.568,1.294-2.56c0.302-0.991,0.448-2.145,0.437-3.467   C379.409,210.844,379.229,209.803,378.876,208.817 M213.403,46.104c-1.243,0-2.287,0.035-3.133,0.096   c-0.84,0.062-1.588,0.096-2.249,0.096c-0.605,0-1.158-0.013-1.645-0.053c-0.487-0.034-0.942-0.078-1.356-0.123   c0.101,1.585,0.168,3.164,0.219,4.743c0.05,1.574,0.079,3.372,0.079,5.4l0.009,4.979c0,2.022-0.025,3.826-0.07,5.4   c-0.05,1.579-0.118,3.12-0.219,4.638c0.414-0.05,0.869-0.079,1.356-0.079h1.654h1.645c0.487-0.006,0.942,0.025,1.356,0.07   c-0.101-1.512-0.177-3.056-0.228-4.629c-0.05-1.574-0.079-3.378-0.079-5.4v-1.505h0.324l6.581,11.525   c0.56-0.05,1.114-0.07,1.663-0.07h1.663c0.566,0,1.116-0.009,1.654-0.009s1.085,0.029,1.645,0.079   c-1.35-2.022-2.696-4.068-4.034-6.134c-1.35-2.061-2.604-4.132-3.781-6.205c1.826-0.465,3.235-1.255,4.209-2.38   c0.98-1.126,1.461-2.58,1.461-4.367c0-1.098-0.216-2.046-0.648-2.835c-0.426-0.795-1.005-1.458-1.733-1.995   c-0.325-0.218-0.657-0.406-1.015-0.569c-0.353-0.157-0.767-0.281-1.243-0.376c-0.476-0.101-1.051-0.168-1.706-0.219   C215.123,46.133,214.334,46.104,213.403,46.104L213.403,46.104z M210.841,48.196c1.003,0,1.865,0.054,2.582,0.149   c0.722,0.095,1.305,0.308,1.759,0.639c0.454,0.33,0.791,0.811,1.015,1.444c0.218,0.638,0.333,1.489,0.333,2.564   c0,1.759-0.426,3.07-1.278,3.938c-0.857,0.868-2.089,1.304-3.702,1.304c-0.123,0-0.251-0.006-0.385-0.017   c-0.134-0.011-0.269-0.03-0.42-0.053C210.744,54.842,210.773,51.517,210.841,48.196L210.841,48.196z M373.706,180.069   c0.185,0.98,0.291,1.837,0.325,2.565c0.034,0.723-0.067,1.339-0.314,1.843c-0.241,0.504-0.655,0.919-1.238,1.249   c-0.582,0.336-1.406,0.594-2.464,0.79c-1.725,0.319-3.097,0.14-4.105-0.549c-1.008-0.683-1.652-1.815-1.943-3.4   c-0.022-0.118-0.039-0.246-0.056-0.381c-0.011-0.134-0.017-0.274-0.022-0.426C367.153,181.161,370.429,180.595,373.706,180.069    M358.746,192.351c1.787-1.691,3.59-3.304,5.422-4.834c0.784,1.719,1.82,2.957,3.103,3.713s2.8,0.975,4.553,0.65   c1.081-0.196,1.971-0.577,2.677-1.143c0.7-0.566,1.255-1.255,1.647-2.072c0.157-0.353,0.28-0.717,0.375-1.092   c0.095-0.381,0.14-0.812,0.151-1.294c0.011-0.487-0.017-1.059-0.09-1.719c-0.073-0.655-0.19-1.439-0.358-2.352   c-0.224-1.227-0.442-2.246-0.655-3.064c-0.218-0.818-0.381-1.551-0.498-2.201c-0.112-0.599-0.196-1.143-0.246-1.63   s-0.095-0.935-0.118-1.355c-1.546,0.386-3.086,0.739-4.626,1.075s-3.304,0.683-5.298,1.053l-4.901,0.902   c-1.994,0.364-3.769,0.666-5.332,0.907c-1.557,0.235-3.086,0.442-4.593,0.622c0.123,0.398,0.23,0.84,0.319,1.316   c0.09,0.482,0.185,1.025,0.297,1.624s0.213,1.137,0.297,1.619c0.09,0.482,0.151,0.93,0.174,1.344   c1.473-0.364,2.974-0.717,4.52-1.053c1.54-0.33,3.304-0.683,5.298-1.047l1.479-0.274l0.056,0.325l-10.154,8.536   c0.146,0.543,0.274,1.087,0.37,1.63c0.101,0.538,0.202,1.081,0.302,1.635c0.101,0.554,0.202,1.092,0.297,1.624   c0.101,0.526,0.174,1.07,0.23,1.63C355.189,195.739,356.959,194.048,358.746,192.351 M281.554,63.305   c0.896,0.437,1.652,0.851,2.263,1.249c0.605,0.403,1.042,0.846,1.311,1.339c0.258,0.493,0.353,1.075,0.28,1.742   c-0.078,0.666-0.353,1.484-0.812,2.453c-0.762,1.585-1.714,2.588-2.862,2.996c-1.143,0.414-2.442,0.269-3.898-0.426   c-0.106-0.056-0.224-0.118-0.336-0.185c-0.118-0.067-0.235-0.146-0.358-0.23C278.575,69.247,280.048,66.268,281.554,63.305    M269.059,82.823c0.549,0.263,1.042,0.504,1.484,0.717c0.442,0.207,0.84,0.426,1.193,0.65c0.566-1.406,1.171-2.834,1.803-4.273   c0.638-1.439,1.395-3.075,2.274-4.901l0.65-1.355l0.297,0.146l0.919,13.235c0.526,0.202,1.036,0.42,1.535,0.655   c0.493,0.241,0.997,0.482,1.501,0.722c0.504,0.241,1.003,0.482,1.49,0.711c0.482,0.235,0.969,0.493,1.451,0.779   c-0.336-2.408-0.661-4.834-0.98-7.27c-0.314-2.442-0.554-4.856-0.711-7.231c1.848,0.375,3.461,0.263,4.828-0.325   c1.361-0.588,2.436-1.691,3.204-3.299c0.476-0.991,0.694-1.932,0.65-2.834c-0.039-0.902-0.274-1.753-0.706-2.554   c-0.19-0.336-0.409-0.65-0.661-0.947s-0.566-0.594-0.958-0.885c-0.386-0.297-0.868-0.605-1.439-0.935   c-0.571-0.33-1.277-0.694-2.117-1.098c-1.12-0.538-2.078-0.963-2.862-1.271s-1.473-0.605-2.067-0.891   c-0.554-0.263-1.042-0.521-1.462-0.762c-0.426-0.246-0.818-0.482-1.171-0.706c-0.599,1.473-1.215,2.929-1.848,4.374   c-0.638,1.439-1.4,3.075-2.274,4.901l-2.156,4.492c-0.879,1.826-1.675,3.439-2.403,4.839c-0.723,1.4-1.462,2.761-2.201,4.083   c0.398,0.134,0.812,0.308,1.249,0.521C268.011,82.325,268.504,82.56,269.059,82.823 M233.769,72.72   c0.599,0.112,1.137,0.218,1.619,0.308c0.482,0.09,0.919,0.196,1.316,0.325c0.067-1.131,0.269-2.638,0.599-4.508   c0.325-1.882,0.739-4.122,1.232-6.738l0.073,0.011c0.868,2.1,1.708,4.206,2.532,6.312c0.818,2.106,1.669,4.189,2.548,6.245   c0.532,0.05,1.064,0.123,1.579,0.224c0.515,0.095,1.036,0.196,1.563,0.297c0.526,0.101,1.07,0.202,1.619,0.308   c0.554,0.101,1.171,0.246,1.859,0.426c-0.37-0.666-0.846-1.647-1.417-2.935c-0.582-1.288-1.199-2.7-1.865-4.229   c-0.672-1.535-1.333-3.092-2.005-4.688c-0.666-1.591-1.271-3.047-1.82-4.369c0.588-0.487,1.411-1.148,2.464-1.977   c1.053-0.835,2.151-1.686,3.299-2.565c1.148-0.874,2.223-1.686,3.243-2.442c1.008-0.75,1.759-1.294,2.24-1.624   c-0.414-0.028-0.801-0.056-1.154-0.09c-0.353-0.028-0.7-0.078-1.036-0.14s-0.672-0.146-0.997-0.246   c-0.33-0.095-0.655-0.202-0.98-0.314c-0.403,0.398-1.036,0.98-1.899,1.747c-0.868,0.767-1.837,1.607-2.901,2.526   c-1.07,0.913-2.184,1.854-3.332,2.817c-1.148,0.963-2.229,1.848-3.22,2.649l0.65-3.456c0.336-1.747,0.65-3.338,0.963-4.772   c0.308-1.434,0.588-2.498,0.846-3.198c-0.42-0.028-0.868-0.067-1.355-0.123s-1.031-0.14-1.63-0.252   c-0.599-0.118-1.137-0.235-1.607-0.364c-0.47-0.123-0.907-0.252-1.305-0.375c-0.202,1.579-0.426,3.142-0.672,4.699   c-0.241,1.557-0.549,3.332-0.93,5.321l-0.93,4.895c-0.375,1.994-0.734,3.758-1.075,5.298c-0.347,1.535-0.7,3.041-1.081,4.508   c0.42,0.028,0.868,0.09,1.35,0.179C232.626,72.507,233.169,72.608,233.769,72.72"/>
</g>
</svg>