<?xml version="1.0" encoding="UTF-8" standalone="no"?>
<!-- Generator: Adobe Illustrator 14.0.0, SVG Export Plug-In . SVG Version: 6.00 Build 43363)  -->

<svg
   xmlns:dc="http://purl.org/dc/elements/1.1/"
   xmlns:cc="http://creativecommons.org/ns#"
   xmlns:rdf="http://www.w3.org/1999/02/22-rdf-syntax-ns#"
   xmlns:svg="http://www.w3.org/2000/svg"
   xmlns="http://www.w3.org/2000/svg"
   xmlns:sodipodi="http://sodipodi.sourceforge.net/DTD/sodipodi-0.dtd"
   xmlns:inkscape="http://www.inkscape.org/namespaces/inkscape"
   version="1.2"
   id="Layer_1"
   x="0px"
   y="0px"
   width="200"
   height="200.00301"
   viewBox="0 0 200 200.003"
   xml:space="preserve"
   inkscape:version="0.47 r22583"
   sodipodi:docname="Reading_FC.svg"><metadata
   id="metadata3086"><rdf:RDF><cc:Work
       rdf:about=""><dc:format>image/svg+xml</dc:format><dc:type
         rdf:resource="http://purl.org/dc/dcmitype/StillImage" /></cc:Work></rdf:RDF></metadata><defs
   id="defs3084"><inkscape:perspective
     sodipodi:type="inkscape:persp3d"
     inkscape:vp_x="0 : 400.00601 : 1"
     inkscape:vp_y="0 : 1000 : 0"
     inkscape:vp_z="800 : 400.00601 : 1"
     inkscape:persp3d-origin="400 : 266.67067 : 1"
     id="perspective3088" /></defs><sodipodi:namedview
   pagecolor="#ffffff"
   bordercolor="#666666"
   borderopacity="1"
   objecttolerance="10"
   gridtolerance="10"
   guidetolerance="10"
   inkscape:pageopacity="0"
   inkscape:pageshadow="2"
   inkscape:window-width="1280"
   inkscape:window-height="710"
   id="namedview3082"
   showgrid="false"
   inkscape:zoom="0.29499557"
   inkscape:cx="400"
   inkscape:cy="400.006"
   inkscape:window-x="-4"
   inkscape:window-y="-4"
   inkscape:window-maximized="1"
   inkscape:current-layer="Layer_1" />
<g
   id="g3"
   transform="matrix(0.25,0,0,0.25,0,-1.1962891e-5)">
	<g
   id="g5">
		<path
   id="path7"
   d="M 400.013,800.012 C 620.926,800.012 800,620.956 800,400.005 800,179.059 620.926,0 400.013,0 179.1,0 0,179.059 0,400.005 0,620.956 179.1,800.012 400.013,800.012"
   style="fill:#db2f36" />
		<path
   id="path9"
   d="m 400.013,788.524 c 214.619,0 388.653,-173.91 388.653,-388.519 0,-214.609 -174.034,-388.612 -388.653,-388.612 -214.666,0 -388.623,174.003 -388.623,388.612 0,214.609 173.957,388.519 388.623,388.519" />
		<path
   id="path11"
   d="m 400.013,777.219 c 208.361,0 377.228,-168.943 377.228,-377.214 0,-208.356 -168.865,-377.222 -377.228,-377.222 -208.336,0 -377.264,168.865 -377.264,377.222 0.001,208.271 168.928,377.214 377.264,377.214"
   style="fill:#ffffff" />
		<path
   id="path13"
   d="m 400.013,668.264 c 148.169,0 268.3,-120.074 268.3,-268.258 0,-148.182 -120.131,-268.352 -268.3,-268.352 -148.211,0 -268.274,120.169 -268.274,268.352 0,148.184 120.063,268.258 268.274,268.258" />
		<path
   id="path15"
   d="m 400.013,658.53 c 142.792,0 258.548,-115.762 258.548,-258.524 0,-142.772 -115.756,-258.522 -258.548,-258.522 -142.804,0 -258.538,115.75 -258.538,258.522 0.001,142.762 115.734,258.524 258.538,258.524"
   style="fill:#dd9300" />
		<path
   id="path17"
   d="m 338.027,400.005 v 237.759 c 19.819,5.053 40.559,7.813 60.818,7.813 V 400.005 h -60.818 z"
   style="fill:#dd1740" />
		<path
   id="path19"
   d="M 338.027,400.005 H 276.05 v 212.406 c 19.168,11.115 39.974,19.66 61.978,25.354 v -237.76 z"
   style="fill:#dd1740" />
		<path
   id="path21"
   d="M 214.084,400.005 V 561.61 c 17.716,20.111 38.661,37.295 61.966,50.801 V 400.005 h -61.966 z"
   style="fill:#dd1740" />
		<path
   id="path23"
   d="m 214.084,400.005 h -61.96 c 0.275,61.277 23.605,118.144 61.96,161.605 V 400.005 z"
   style="fill:#dd1740" />
		<path
   id="path25"
   d="m 460.413,400.005 0.446,-240.06 c -19.836,-5.141 -40.574,-7.811 -62.014,-7.811 v 247.87 l 61.568,10e-4 0,0 z"
   style="fill:#dd1740" />
		<path
   id="path27"
   d="m 460.413,400.005 h 61.281 V 185.301 c -19.229,-11.108 -45.812,-22.509 -60.835,-25.355 l -0.446,240.059 z"
   style="fill:#dd1740" />
		<path
   id="path29"
   d="M 583.639,400.099 V 236.016 c -17.716,-20.025 -38.631,-37.209 -61.944,-50.715 v 214.798 h 61.944 z"
   style="fill:#dd1740" />
		<path
   id="path31"
   d="m 583.639,400.005 h 61.944 C 645.324,336.429 621.952,279.47 583.639,236.015 v 163.99 z"
   style="fill:#dd1740" />
		<path
   id="path33"
   d="m 398.956,460.086 h 238.825 c 5.086,-19.748 7.803,-40.516 7.803,-60.082 H 398.956 v 60.082 z"
   style="fill:#004494" />
		<path
   id="path35"
   d="m 398.956,460.086 -0.042,62.201 h 213.51 c 11.11,-19.297 19.723,-40.158 25.357,-62.201 H 398.956 z"
   style="fill:#ffffff" />
		<path
   id="path37"
   d="m 398.956,584.112 v 61.643 c 62.287,-0.273 119.254,-23.33 162.69,-61.643 h -162.69 z"
   style="fill:#ffffff" />
		<path
   id="path39"
   d="M 398.846,337.993 H 159.891 c -5.102,19.844 -7.782,40.605 -7.782,62.012 h 246.737 v -62.012 z"
   style="fill:#004494" />
		<path
   id="path41"
   d="M 398.846,337.993 V 276.076 H 185.274 c -11.074,19.201 -19.737,39.955 -25.383,61.917 h 238.955 l 0,0 z"
   style="fill:#ffffff" />
		<path
   id="path43"
   d="M 398.846,214.064 H 236.052 c -20.101,17.726 -37.272,38.674 -50.778,62.012 h 213.572 v -62.012 z"
   style="fill:#004494" />
		<path
   id="path45"
   d="m 398.846,214.064 v -61.929 c -62.363,0.189 -119.363,23.615 -162.794,61.929 h 162.794 z"
   style="fill:#ffffff" />
		<path
   id="path47"
   d="m 398.956,584.112 h 162.69 c 20.068,-17.732 37.267,-38.674 50.776,-62.014 l -213.51,0.189 0.044,61.825 z"
   style="fill:#004494" />
		<path
   id="path49"
   d="m 398.846,497.477 c 53.883,0 97.584,-43.633 97.584,-97.472 0,-53.93 -43.701,-97.563 -97.584,-97.563 -53.888,0 -97.567,43.633 -97.567,97.563 0,53.839 43.679,97.472 97.567,97.472"
   style="fill:#ffffff" />
		<path
   id="path51"
   d="m 469.403,410.661 c -1.908,2.211 -21.134,8.82 -71.002,8.82"
   style="fill:#eab300" />
		<path
   id="path53"
   d="m 398.401,416.194 v 6.568 c 47.608,0 70.031,-5.951 73.489,-9.957 l -4.806,-4.471 c -2.015,1.567 -20.561,7.86 -68.683,7.86" />
		<path
   id="path55"
   d="m 327.398,410.661 c 1.888,2.211 21.102,8.82 71.003,8.82"
   style="fill:#eab300" />
		<path
   id="path57"
   d="m 324.899,412.797 c 3.433,4.006 25.84,9.965 73.502,9.965 v -6.568 c -48.146,0 -66.68,-6.295 -68.69,-7.854 l -4.812,4.457 z" />
		<path
   id="path59"
   d="m 469.403,389.255 c -1.908,-2.206 -21.134,-8.816 -71.002,-8.816"
   style="fill:#eab300" />
		<path
   id="path61"
   d="m 398.401,383.723 c 48.122,0 66.668,6.292 68.685,7.85 l 4.806,-4.464 c -3.458,-4 -25.881,-9.965 -73.489,-9.965 l -0.002,6.579 0,0 z" />
		<path
   id="path63"
   d="m 327.398,389.255 c 1.888,-2.206 21.102,-8.816 71.003,-8.816"
   style="fill:#eab300" />
		<path
   id="path65"
   d="m 324.899,387.117 4.812,4.456 c 2.012,-1.558 20.546,-7.85 68.69,-7.85 v -6.579 c -47.662,0 -70.069,5.973 -73.502,9.973" />
		<path
   id="path67"
   d="m 311.471,400.005 c 0,47.955 38.896,86.908 86.931,86.908 47.981,0 86.907,-38.953 86.907,-86.908"
   style="fill:#dd9300" />
		<path
   id="path69"
   d="m 482.027,400.005 c 0,46.105 -37.516,83.625 -83.626,83.625 -46.117,0 -83.644,-37.521 -83.644,-83.625 h -6.563 c 0,49.732 40.465,90.193 90.206,90.193 49.733,0 90.185,-40.459 90.185,-90.193 h -6.558 z" />
		<path
   id="path71"
   d="m 469.403,410.661 c 0.851,0.832 2.556,9.922 1.929,12.404 -0.575,2.57 -16.721,25.9 -18.924,26.365 -2.209,0.555 -21.459,-7.074 -26.327,-7.074 -4.909,0 -12.655,6.244 -14.858,6.432 -1.1,0.096 -7.477,0.465 -12.82,0.465 -5.394,0 -11.707,-0.369 -12.827,-0.465 -2.219,-0.188 -9.965,-6.432 -14.864,-6.432 -4.915,0 -24.139,7.629 -26.342,7.074 -2.226,-0.465 -18.307,-23.795 -18.908,-26.365 -0.617,-2.482 1.099,-11.572 1.938,-12.404"
   style="fill:#dd9300" />
		<path
   id="path73"
   d="m 466.644,412.415 c 0.612,1.299 1.547,6.773 1.547,9.107 0,0.318 -0.017,0.572 -0.054,0.756 -1.052,2.775 -13.428,20.557 -16.739,23.678 -1.281,-0.375 -9.214,-2.686 -9.214,-2.686 -7.869,-2.529 -13.23,-4.197 -16.104,-4.197 -3.919,0 -8.409,2.598 -12.013,4.684 0,0 -3.345,1.789 -3.354,1.789 -0.025,-0.025 -12.313,0.41 -12.313,0.41 0,0 -12.542,-0.443 -12.553,-0.443 h 0.011 c 0,-0.088 -3.157,-1.764 -3.157,-1.764 -3.599,-2.086 -8.083,-4.676 -11.992,-4.676 -2.908,0 -8.284,1.666 -16.16,4.205 0,0 -7.896,2.301 -9.171,2.678 -3.308,-3.104 -15.663,-20.91 -16.777,-23.824 -0.025,-0.139 -0.035,-0.334 -0.035,-0.578 0,-2.135 0.979,-7.82 1.597,-9.154 l -5.081,-4.072 c -2.068,2.055 -3.53,12.639 -2.815,15.529 0.405,1.711 16.639,27.795 21.435,28.787 1.638,0.408 3.919,-0.213 12.868,-3.105 4.795,-1.553 12.063,-3.896 14.143,-3.896 2.146,0 6.087,2.281 8.7,3.797 l 5.898,2.629 13.093,0.465 13.096,-0.465 5.863,-2.621 c 2.624,-1.512 6.573,-3.805 8.721,-3.805 2.053,0 9.285,2.344 14.081,3.883 8.985,2.906 11.267,3.541 13.039,3.098 4.542,-0.951 20.961,-27.158 21.335,-28.848 0.71,-2.814 -0.752,-13.438 -2.847,-15.475 l -5.048,4.114 z" />
		<path
   id="path75"
   d="m 411.222,448.788 c 0,0 5.003,24.432 6.916,35.553"
   style="fill:#dd9300" />
		<polygon
   id="polygon77"
   points="408.007,449.446 414.898,484.897 421.378,483.786 414.436,448.127 " />
		<path
   id="path79"
   d="m 452.408,449.428 c 0.84,3.037 -6.615,21.773 -6.148,22.975"
   style="fill:#dd9300" />
		<path
   id="path81"
   d="m 449.183,450.026 c 0.083,1.756 -2.432,9.35 -3.773,13.43 -2.442,7.34 -2.815,8.594 -2.209,10.145 l 6.314,-1.168 2.132,-6.918 c 3.524,-10.656 4.582,-14.605 3.925,-16.965 l -6.389,1.476 z" />
		<path
   id="path83"
   d="m 344.368,449.428 c -0.852,3.037 6.548,21.596 6.039,22.877"
   style="fill:#dd9300" />
		<path
   id="path85"
   d="m 344.974,465.139 2.173,7.143 6.313,1.238 c 0.628,-1.6 0.202,-3.025 -2.239,-10.426 -1.291,-3.967 -3.712,-11.354 -3.64,-13.057 l -6.382,-1.496 c -0.657,2.342 0.369,6.2 3.775,16.598" />
		<path
   id="path87"
   d="m 385.574,448.788 c 0,0 -5.247,24.432 -7.123,35.553"
   style="fill:#dd9300" />
		<polygon
   id="polygon89"
   points="375.21,483.792 381.68,484.887 388.789,449.471 382.36,448.094 " />
		<path
   id="path91"
   d="m 398.401,419.481 c 49.868,0 69.094,-6.609 71.002,-8.82"
   style="fill:#dd9300" />
		<path
   id="path93"
   d="m 398.401,416.194 v 6.568 c 47.608,0 70.031,-5.951 73.489,-9.957 l -4.806,-4.471 c -2.015,1.567 -20.561,7.86 -68.683,7.86" />
		<path
   id="path95"
   d="m 311.471,400.005 c 0,-47.962 38.896,-86.906 86.931,-86.906 47.981,0 86.907,38.943 86.907,86.906"
   style="fill:#dd9300" />
		<path
   id="path97"
   d="m 308.195,400.005 h 6.563 c 0,-46.111 37.525,-83.624 83.644,-83.624 46.11,0 83.626,37.513 83.626,83.624 h 6.559 c 0,-49.741 -40.45,-90.201 -90.185,-90.201 -49.742,0.001 -90.207,40.461 -90.207,90.201" />
		<path
   id="path99"
   d="m 469.403,389.255 c 0.851,-0.827 2.556,-9.921 1.929,-12.402 -0.575,-2.574 -16.721,-25.816 -18.924,-26.368 -2.209,-0.459 -21.459,7.074 -26.327,7.074 -4.909,0 -12.655,-6.25 -14.858,-6.429 -1.1,-0.093 -7.477,-0.368 -12.82,-0.368 -5.394,0 -11.707,0.274 -12.827,0.368 -2.219,0.179 -9.965,6.429 -14.864,6.429 -4.915,0 -24.139,-7.533 -26.342,-7.074 -2.226,0.552 -18.307,23.794 -18.908,26.368 -0.617,2.481 1.099,11.575 1.938,12.402"
   style="fill:#dd9300" />
		<path
   id="path101"
   d="m 343.699,347.271 c -4.692,1.164 -21.056,27.18 -21.438,28.831 -0.71,2.838 0.752,13.438 2.82,15.489 l 5.081,-4.073 c -0.612,-1.314 -1.571,-6.831 -1.571,-9.158 0,-0.309 0.026,-0.555 0.059,-0.726 0.983,-2.54 13.433,-20.474 16.729,-23.649 1.358,0.402 8.85,2.584 8.85,2.584 8.053,2.582 13.543,4.277 16.481,4.277 3.909,0 8.396,-2.592 11.992,-4.682 0,0 3.365,-1.793 3.375,-1.793 0.025,0.023 12.324,-0.327 12.324,-0.327 0,0 12.529,0.357 12.546,0.357 -0.01,0 -0.01,0 -0.01,0 0,0.088 3.131,1.755 3.131,1.755 3.604,2.086 8.094,4.689 12.013,4.689 2.908,0 8.384,-1.695 16.404,-4.259 0,0 7.538,-2.201 8.912,-2.603 3.313,3.191 15.775,21.109 16.781,23.787 0.025,0.143 0.047,0.36 0.047,0.614 0,2.18 -0.965,7.8 -1.582,9.114 l 5.046,4.114 c 2.095,-2.033 3.557,-12.658 2.824,-15.564 -0.337,-1.558 -16.637,-27.582 -21.313,-28.751 -1.814,-0.378 -4.179,0.272 -12.729,3.028 -4.895,1.571 -12.298,3.951 -14.393,3.951 -2.146,0 -6.097,-2.292 -8.721,-3.808 l -5.863,-2.613 -13.094,-0.375 -13.093,0.375 -5.898,2.621 c -2.613,1.516 -6.554,3.8 -8.7,3.8 -2.125,0 -9.55,-2.388 -14.459,-3.958 -8.529,-2.747 -10.867,-3.397 -12.551,-3.047" />
		<path
   id="path103"
   d="m 411.222,351.13 c 0,0 5.003,-24.621 6.916,-35.739"
   style="fill:#dd9300" />
		<polygon
   id="polygon105"
   points="407.997,350.47 414.436,351.789 421.378,315.948 414.898,314.833 " />
		<path
   id="path107"
   d="m 452.408,350.485 c 0.84,-3.031 -6.568,-22.141 -6.065,-23.243"
   style="fill:#dd9300" />
		<path
   id="path109"
   d="m 445.44,336.243 c 1.343,4.155 3.831,11.883 3.747,13.638 l 6.384,1.49 c 0.651,-2.356 -0.396,-6.348 -3.873,-17.15 l -2.105,-6.994 -6.242,-1.345 c -0.7,1.55 -0.41,2.602 2.089,10.361" />
		<path
   id="path111"
   d="m 344.368,350.485 c -0.852,-3.031 6.548,-21.772 6.039,-22.965"
   style="fill:#dd9300" />
		<path
   id="path113"
   d="m 347.157,327.528 -2.138,7.036 c -3.441,10.553 -4.479,14.462 -3.819,16.816 l 6.382,-1.498 c -0.093,-1.727 2.364,-9.247 3.687,-13.272 2.447,-7.513 2.837,-8.801 2.162,-10.385 l -6.274,1.303 z" />
		<path
   id="path115"
   d="m 385.574,351.13 c 0,0 -5.247,-24.53 -7.123,-35.646"
   style="fill:#dd9300" />
		<polygon
   id="polygon117"
   points="375.21,316.031 382.36,351.815 388.789,350.436 381.68,314.938 " />
		<path
   id="path119"
   d="m 398.401,380.439 c 49.868,0 69.094,6.61 71.002,8.816"
   style="fill:#dd9300" />
		<path
   id="path121"
   d="m 398.401,383.723 c 48.122,0 66.668,6.292 68.685,7.85 l 4.806,-4.464 c -3.458,-4 -25.881,-9.965 -73.489,-9.965 l -0.002,6.579 0,0 z" />
		<path
   id="path123"
   d="m 398.401,380.439 c -49.901,0 -69.115,6.61 -71.003,8.816 0,0 0.727,4.868 0.752,10.75 0,5.791 -0.752,10.654 -0.752,10.654 1.888,2.211 21.102,8.822 71.003,8.822"
   style="fill:#dd9300" />
		<path
   id="path125"
   d="m 324.899,387.117 -0.876,1.026 0.84,11.87 c -0.005,0 -0.81,11.486 -0.81,11.486 l 0.846,1.299 c 3.433,4.006 25.84,9.965 73.502,9.965 v -6.568 c -43.919,0 -63.02,-5.201 -67.598,-7.303 0.197,-2.875 0.617,-8.886 0.617,-8.886 0,-0.011 -0.394,-5.724 -0.617,-8.979 4.559,-2.105 23.679,-7.303 67.598,-7.303 v -6.579 c -47.662,-10e-4 -70.069,5.972 -73.502,9.972" />
		<path
   id="path127"
   d="m 469.403,389.255 c 0,0 -0.764,4.868 -0.764,10.75 -0.041,5.791 0.764,10.654 0.764,10.654"
   style="fill:#dd9300" />
		<path
   id="path129"
   d="m 465.369,400.005 0.783,11.187 6.49,-1.061 -0.71,-10.097 c 0,-0.028 0.716,-10.273 0.716,-10.273 l -6.496,-1.011 -0.783,11.255 z" />
		<path
   id="path131"
   d="m 556.078,236.752 c -0.622,-2.017 -1.648,-4.042 -1.648,-4.042 0,0 1.474,-0.552 2.815,-0.552 1.451,0 2.83,0.464 2.83,0.464 0,0 -0.606,1.648 -0.99,3.583 -0.409,2.385 -0.528,5.231 -0.528,5.231 0,0 -0.41,-0.091 -0.685,-0.091 h -0.726 c 0,0 -0.353,-2.294 -1.068,-4.593 m -1.649,5.236 c 1.349,-0.464 2.405,-0.552 2.405,-0.552 0,0 -0.041,-1.561 -0.917,-3.852 -0.778,-1.934 -2.505,-4.236 -2.505,-4.236 0,0 -1.063,0.555 -2.131,1.291 -1.188,0.918 -2.203,2.113 -2.203,2.113 0,0 2.037,0.179 3.22,1.283 1.395,1.294 2.131,3.953 2.131,3.953 m 5.573,-0.275 c 0,0 0.072,0 0.326,0.091 0.13,0.096 0.301,0.096 0.301,0.096 0,0 0.852,-1.47 2.339,-2.849 1.659,-1.656 3.447,-1.467 3.447,-1.467 0,0 -0.575,-0.923 -1.161,-1.568 -0.467,-0.458 -1.473,-1.102 -1.473,-1.102 0,0 -0.923,0.827 -1.752,2.206 -1.124,1.84 -2.027,4.593 -2.027,4.593 m -1.347,4.317 c -0.498,0 -0.772,0.277 -1.137,0.277 -0.372,0 -0.647,-0.277 -1.191,-0.182 -0.959,0.085 -1.379,0.451 -1.271,0.641 0.125,0.274 0.562,0.549 1.188,1.286 0.777,0.827 1.058,1.659 1.327,1.659 0.285,0 0.467,-0.923 1.125,-1.659 1.048,-1.19 1.032,-0.918 1.307,-1.379 0.176,-0.179 -0.452,-0.548 -1.348,-0.643 m 1.529,5.604 c -0.083,-0.179 -1.409,-0.643 -2.587,-0.547 -1.457,0 -2.28,0.368 -2.499,0.547 -0.244,0.272 0,1.563 0,1.563 0,0 -0.55,-0.557 -0.865,-1.374 -0.354,-0.832 -0.57,-1.2 -0.686,-1.291 -0.353,-0.275 -0.259,1.561 0.016,3.128 0.285,1.459 1.25,2.847 1.25,2.847 0,0 0.243,-1.019 0.229,-1.934 0,-0.459 0.208,-0.733 0.208,-0.733 0,0 0.119,0.464 0.274,0.83 0.254,0.451 0.56,1.008 0.56,1.008 0,0 0.161,-0.093 0.612,-0.188 0.688,-0.272 1.462,-0.179 2.001,0.096 0.379,0.093 0.652,-0.275 0.652,-0.275 0,0 0.202,-0.189 0.38,-0.555 0.129,-0.368 0.273,-0.819 0.273,-0.819 0,0 0.072,0.368 0.274,0.734 0.332,0.736 0.415,1.742 0.415,1.742 0,0 0.763,-1.006 1.037,-2.393 0.342,-1.462 0.42,-3.943 0.107,-3.486 -0.285,0.458 -0.165,0.827 -0.575,1.656 -0.356,0.64 -1.083,1.283 -1.083,1.283 0,0 0.115,-1.745 0.007,-1.839 m -1.394,-10.11 c 0,0 0.166,0 0.397,0.096 0.161,0 0.479,0.093 0.479,0.093 0,0 0.752,-2.574 1.747,-4.593 0.658,-1.379 1.805,-2.753 1.805,-2.753 0,0 -0.638,-0.464 -1.219,-0.832 -0.437,-0.187 -0.736,-0.27 -0.736,-0.27 0,0 -1.083,1.102 -1.628,3.119 -0.596,2.206 -0.845,5.14 -0.845,5.14 m 9.939,6.253 c 0,0 2.606,6.706 2.202,11.484 -0.657,7.987 -4.557,12.129 -4.557,12.129 0,0 0.892,-2.574 0.97,-3.774 0.196,-2.385 -0.586,-4.866 -0.586,-4.866 0,0 0.274,4.132 -0.752,7.263 -1.219,3.855 -4.293,5.695 -4.293,5.695 l -1.612,1.006 c 0,0 0.694,-2.024 0.763,-3.119 0.171,-2.67 -0.846,-3.678 -0.846,-3.678 0,0 0.437,1.84 0.166,3.951 -0.083,1.008 -0.591,2.662 -0.455,2.387 -0.772,1.934 -1.789,3.308 -1.789,3.308 0,0 -1.026,-1.563 -1.612,-3.033 -0.71,-2.021 -0.721,-4.772 -0.721,-4.772 0,0 -0.794,1.47 -0.492,3.583 0.254,1.374 1.721,4.13 1.721,4.13 0,0 -4.749,-1.009 -8.668,-5.97 -4.133,-5.146 -4.428,-12.316 -4.428,-12.316 0,0 -0.39,2.302 -0.059,4.879 0.41,2.846 2.146,5.778 2.146,5.778 0,0 -3.831,-1.459 -5.868,-6.063 -1.291,-2.75 -1.681,-7.712 -1.681,-7.712 0,0 -0.188,1.838 -0.108,3.583 0.155,1.934 0.409,3.124 0.409,3.124 0,0 -2.006,-0.088 -3.074,-2.022 -0.845,-1.47 -1.136,-4.495 -1.136,-4.495 0,0 -0.217,1.467 -0.217,1.923 0.015,0.459 0.124,2.302 0.124,2.302 0,0 -1.396,-0.285 -2.95,-1.2 -1.183,-0.733 -2.286,-1.835 -2.286,-1.835 0,0 1.747,-2.113 4.5,-3.767 2.483,-1.563 5.022,-1.742 5.022,-1.742 l -2.509,-0.464 c 0,0 1.421,-3.86 3.718,-6.8 1.587,-2.112 4.702,-3.489 4.702,-3.489 0,0 -0.794,0.096 -1.271,0.179 -0.327,0.096 -1.068,0.464 -1.068,0.464 0,0 1.773,-6.431 5.672,-6.706 4.854,-0.272 6.129,4.404 6.129,4.404 l 0.207,0.555 c -0.45,0.182 -0.892,0.368 -1.509,0.736 -1.161,0.643 -1.789,1.379 -2.115,2.113 0.544,-0.275 1.706,-0.833 2.867,-1.102 1.316,-0.275 2.53,-0.368 2.41,-0.096 -0.129,0.282 -0.699,0.464 -1.306,1.019 -0.498,0.454 -0.752,1.19 -1.006,1.281 -0.291,0 -0.907,-0.923 -2.027,-0.923 -0.395,0 -0.897,0.285 -1.198,0.368 -0.124,0.464 -0.165,0.832 -0.165,0.832 0,0 0,1.102 0.561,1.931 0.901,1.283 2.146,1.926 2.146,1.926 0,0 0,1.929 0.243,3.497 0.285,1.828 2.012,3.762 2.012,3.762 0,0 1.239,-1.011 2.76,-1.102 1.27,0 2.545,1.011 2.545,1.011 0,0 0.918,-0.736 1.587,-2.758 0.912,-2.846 0.394,-4.409 0.394,-4.409 0,0 1.41,-0.739 2.214,-1.926 0.581,-0.83 0.427,-1.931 0.427,-1.931 l -0.026,-0.547 c 0,0 0,-0.096 -0.099,-0.368 -0.271,-0.096 -0.644,-0.285 -0.971,-0.285 -1.066,0 -1.887,0.923 -2.048,0.923 -0.19,0 -0.456,-0.827 -0.933,-1.281 -0.612,-0.555 -1.161,-0.736 -1.313,-1.019 -0.146,-0.272 1.042,-0.179 2.405,0.096 0.943,0.187 1.887,0.555 2.504,0.923 -0.191,-0.368 -0.544,-0.736 -0.975,-1.104 -1.031,-0.83 -2.516,-1.566 -2.516,-1.566 0,0 3.064,-5.786 7.343,-3.119 5.086,3.028 3.297,15.981 3.297,15.981 0,0 -0.354,-2.849 -1.104,-4.684 -0.724,-1.84 -1.817,-2.483 -1.817,-2.483 m -11.033,10.379 c -3.583,0.182 -3.464,6.432 -3.464,6.432 0,0 0.315,-1.561 0.906,-2.75 0.639,-1.104 1.571,-1.838 1.571,-1.838 0,0 0.16,-0.096 0.312,0 0.13,0.083 0.125,0.179 0.125,0.179 0,0 -0.83,0.827 -1.178,1.838 -0.445,1.283 -0.445,2.94 -0.445,2.94 0,0 1.067,0.274 2.214,0.274 1.302,0 2.446,-0.365 2.446,-0.365 0,0 -0.005,-1.473 -0.439,-2.67 -0.384,-1.094 -1.12,-1.827 -1.12,-1.827 0,0 -0.067,-0.096 0,-0.285 0.031,-0.083 0.218,-0.083 0.218,-0.083 0,0 0.902,0.547 1.368,1.374 0.794,1.197 1.203,3.027 1.203,3.027 0,0 0.233,-6.337 -3.717,-6.246 m -70.121,24.067 c -2.654,-5.6 -2.38,-11.02 -2.38,-11.02 0,0 -4.194,5.327 -5.181,11.67 -0.859,6.063 -1.727,7.074 -1.727,7.074 0,0 1.203,-0.096 2.245,-0.282 1.063,-0.272 1.955,-0.825 1.955,-0.825 0,0 -0.551,0.552 -1.529,1.19 -1.229,0.736 -2.815,1.387 -2.945,1.475 -0.13,0.091 -1.611,3.033 -2.457,3.676 -1.338,1.102 -2.783,1.931 -3.317,2.577 -0.539,0.734 -0.539,0.913 -1.482,4.034 -0.871,2.763 -1.354,4.137 -1.354,4.137 0,0 0.809,0.368 0.97,1.107 0.207,0.736 -0.28,1.649 -0.28,1.649 0,0 3.442,0.736 6.289,0.643 2.214,-0.085 4.428,-0.549 4.428,-0.549 0,0 -0.384,-2.206 -2.109,-2.753 -2.317,-0.65 -4.755,-0.096 -4.755,-0.096 0,0 0.893,-1.656 3.063,-4.588 1.706,-2.302 3.785,-3.217 4.268,-3.404 0.638,-0.274 4.138,-1.654 6.609,-3.124 3.014,-1.745 5.637,-4.319 5.637,-4.319 0,0 -3.595,-3.393 -5.948,-8.272 m 48.341,11.855 c 0,0 -1.255,-1.932 -1.748,-3.857 -0.564,-2.385 -0.564,-4.866 -0.564,-4.866 0,0 -0.923,1.283 -2.358,2.113 -1.617,1.008 -3.842,1.47 -3.842,1.47 0,0 0.652,3.396 -0.456,7.894 -1.229,4.689 -3.936,7.808 -3.936,7.808 0,0 1.379,0.464 1.653,1.568 0.26,1.102 -0.42,2.939 -0.42,2.939 0,0 1.523,0.462 5.537,0.462 3.521,0 5.905,-0.923 5.905,-0.923 0,0 -0.166,-1.377 -1.593,-2.204 -1.338,-0.739 -3.894,-0.824 -3.894,-0.824 0,0 -0.1,-3.77 1.41,-7.352 1.272,-2.946 4.306,-4.228 4.306,-4.228 m 25.118,-13.042 c 0.519,-1.931 0.612,-4.233 0.612,-4.233 0,0 -0.634,1.02 -1.505,2.121 -0.823,1.008 -1.896,2.198 -1.896,2.198 0,0 -1.26,-0.179 -2.722,-0.64 -1.783,-0.55 -2.778,-1.286 -2.778,-1.286 0,0 0.057,1.926 0.668,4.502 0.602,2.572 1.979,5.882 1.979,5.882 0,0 1.317,-1.472 2.4,-3.214 0.83,-1.565 1.395,-3.587 1.395,-3.587 0,0 0.063,0 0.09,0.552 0.071,0.827 -0.192,1.838 -0.192,1.838 0,0 1.369,-2.018 1.949,-4.133 m -96.78,-3.132 c 2.618,-3.394 7.611,-6.063 7.611,-6.063 0,0 2.286,-1.19 5.868,-2.017 3.184,-0.734 7.679,-1.008 7.679,-1.008 l 1.722,-3.676 c 0,0 -6.642,0.09 -14.443,3.676 -6.729,2.942 -10.599,8.723 -10.599,8.723 0,0 -2.748,3.865 -2.654,9.742 0,2.481 2.188,7.901 2.604,9.371 -0.083,0.55 0.954,2.388 -1.479,4.047 -1.084,0.643 -2.871,0.643 -2.996,0.547 -0.544,-0.368 -1.229,-2.481 -3.375,-4.594 -1.954,-1.838 -4.691,-2.574 -4.691,-2.574 0,0 1.462,1.2 2.26,2.206 0.778,0.918 1.188,1.926 1.188,1.926 0,0 -3.007,-1.008 -5.938,-1.097 -3.769,0 -6.614,1.926 -6.614,1.926 0,0 1.938,-0.275 4.226,0.189 2.048,0.451 3.811,1.556 3.811,1.556 0,0 -0.804,0.461 -1.326,1.008 -0.587,0.651 -0.883,1.656 -0.883,1.656 0,0 1.546,-0.827 2.677,-0.827 2.063,-0.179 2.731,0.189 2.731,0.189 0,0 4.339,2.196 7.646,1.376 5.531,-1.376 5.123,-5.148 4.962,-6.25 -0.224,-1.106 -1.794,-4.134 -2.447,-7.989 -0.564,-3.583 -0.285,-4.225 -0.285,-4.225 0,0 0.158,-4.318 2.745,-7.818 m 105.978,28.209 c -2.027,-1.19 -5.822,-1.558 -5.822,-1.558 0,0 -5.485,-6.618 -9.042,-13.503 -3.458,-6.8 -3.635,-12.591 -3.635,-12.591 0,0 -1.327,-1.104 -2.582,-2.206 -1.109,-1.102 -2.054,-2.203 -2.054,-2.203 0,0 -3.188,-1.011 -5.346,-3.033 -2.789,-2.571 -2.976,-5.324 -2.976,-5.324 0,0 -1.031,0.083 -1.759,-0.187 -1.171,-0.643 -1.799,-1.558 -1.799,-1.558 0,0 -1.125,-0.096 -2.473,-0.651 -4.625,-2.02 -4.064,-3.217 -6.922,-3.577 -3.919,-0.555 -6.957,-0.461 -9.503,0.088 -3.65,0.641 -6.273,1.659 -10.732,1.932 -3.499,0.096 -4.074,-0.923 -7.709,-1.104 -1.996,-0.091 -8.71,-0.638 -10.841,8.64 -1.944,8.544 3.648,16.077 4.277,16.901 4.376,5.239 5.074,5.607 5.501,8.731 0.513,3.118 -2.328,3.583 -2.328,3.583 0,0 1.395,2.48 3.598,4.498 1.722,1.648 4.003,2.849 5.304,4.225 1.22,1.291 1.354,2.481 1.354,2.481 0,0 3.624,1.47 6.688,1.374 1.238,-0.083 2.433,-0.272 3.428,-0.451 0.016,-0.555 0,-1.011 -0.192,-1.566 -0.124,-0.179 -0.694,-1.47 -0.694,-1.47 0,0 1.438,0.923 1.654,2.753 1.202,-0.368 1.954,-0.728 1.954,-0.728 0,0 -0.285,-1.835 -2.473,-3.036 -1.82,-0.915 -4.92,-0.915 -4.92,-0.915 0,0 -2.479,-1.566 -4.158,-4.233 -1.706,-2.753 -3.008,-5.695 -2.624,-6.701 0.747,-1.747 3.759,-4.407 4.288,-11.206 0.384,-5.695 -2.24,-12.682 -2.24,-12.682 0,0 1.794,2.665 2.723,6.8 0.893,3.852 0.383,7.069 0.736,7.069 0.398,0 2.955,0.187 4.785,1.294 1.835,1.187 5.143,1.838 5.143,1.838 0,0 1.799,0.272 4.252,0.083 2.675,-0.083 4.937,0.189 8.108,-1.739 3.66,-2.294 1.011,-6.983 1.011,-6.983 0,0 2.322,1.84 2.229,3.956 -0.13,1.921 0.024,3.762 0.384,5.325 0.859,3.67 2.634,5.97 2.634,5.97 0,0 -0.788,-2.571 -0.835,-4.684 -0.109,-1.843 0.716,-3.951 0.716,-3.951 0,0 -0.473,2.107 0.354,4.684 0.912,2.849 3.322,4.783 3.322,4.783 0,0 -0.97,-1.843 -1.136,-4.226 -0.202,-2.577 0,-2.761 0,-2.761 0,0 0.852,2.662 2.032,4.505 1.208,2.113 3.028,3.951 3.028,3.951 0,0 -0.576,-1.47 -0.908,-2.766 -0.259,-1.006 -0.259,-1.649 -0.259,-1.649 0,0 5.143,3.679 8.408,8.27 2.914,4.226 1.146,6.338 1.146,6.338 0,0 2.344,-1.379 4.526,-0.547 1.871,0.726 1.492,3.124 1.492,3.124 0,0 3.23,1.28 6.455,1.185 0.985,0 2.018,-0.083 2.95,-0.27 v -0.096 c 0.093,-0.728 0.243,-1.651 -0.109,-2.385 -0.066,-0.179 -0.657,-1.558 -0.657,-1.558 0,0 1.83,1.19 1.68,3.575 0,0.096 -0.026,0.187 -0.026,0.187 1.441,-0.27 2.516,-0.638 2.516,-0.638 0,0 0.115,-2.212 -1.922,-3.407" />
		<path
   id="path133"
   d="m 235.492,542.313 c 2.339,0 4.185,-1.932 4.185,-4.232 0,-2.289 -1.846,-4.223 -4.185,-4.223 -2.313,0 -4.215,1.934 -4.215,4.223 0,2.3 1.902,4.232 4.215,4.232" />
		<path
   id="path135"
   d="m 254.876,535.604 c 2.308,0 4.185,-1.844 4.185,-4.229 0,-2.291 -1.877,-4.129 -4.185,-4.129 -2.312,0 -4.199,1.838 -4.199,4.129 0,2.385 1.888,4.229 4.199,4.229" />
		<path
   id="path137"
   d="m 260.58,493.62 c 2.017,0 3.624,-1.65 3.624,-3.678 0,-2.02 -1.607,-3.668 -3.624,-3.668 -2.021,0 -3.67,1.648 -3.67,3.668 0,2.027 1.648,3.678 3.67,3.678" />
		<path
   id="path139"
   d="m 244.363,487.375 c 2.021,0 3.676,-1.566 3.676,-3.584 0,-2.029 -1.654,-3.678 -3.676,-3.678 -2.007,0 -3.608,1.648 -3.608,3.678 -0.001,2.018 1.601,3.584 3.608,3.584" />
		<path
   id="path141"
   d="m 235.518,486.274 c 2.048,0 3.681,-1.662 3.681,-3.68 0,-2.016 -1.633,-3.582 -3.681,-3.582 -2.012,0 -3.624,1.566 -3.624,3.582 0,2.018 1.612,3.68 3.624,3.68" />
		<path
   id="path143"
   d="m 227.093,488.932 c 1.975,0 3.629,-1.652 3.629,-3.67 0,-2.023 -1.654,-3.678 -3.629,-3.678 -2.048,0 -3.702,1.654 -3.702,3.678 0,2.018 1.654,3.67 3.702,3.67" />
		<path
   id="path145"
   d="m 219.876,494.721 c 2.026,0 3.654,-1.648 3.654,-3.678 0,-2.018 -1.628,-3.668 -3.654,-3.668 -1.996,0 -3.65,1.65 -3.65,3.668 0,2.03 1.654,3.678 3.65,3.678" />
		<path
   id="path147"
   d="m 218.155,503.813 c 1.985,0 3.65,-1.65 3.65,-3.67 0,-2.023 -1.665,-3.584 -3.65,-3.584 -2.037,0 -3.624,1.559 -3.624,3.584 0,2.02 1.587,3.67 3.624,3.67" />
		<path
   id="path149"
   d="m 252.078,491.043 c 2.042,0 3.701,-1.553 3.701,-3.668 0,-1.934 -1.659,-3.584 -3.701,-3.584 -1.971,0 -3.604,1.65 -3.604,3.584 0,2.116 1.633,3.668 3.604,3.668" />
		<path
   id="path151"
   d="m 220.245,513.006 c 2.042,0 3.681,-1.662 3.681,-3.678 0,-2.016 -1.639,-3.582 -3.681,-3.582 -1.971,0 -3.604,1.564 -3.604,3.582 0,2.018 1.633,3.678 3.604,3.678" />
		<path
   id="path153"
   d="m 223.858,521.551 c 1.996,0 3.649,-1.662 3.649,-3.678 0,-2.018 -1.653,-3.678 -3.649,-3.678 -2.001,0 -3.65,1.662 -3.65,3.678 0,2.016 1.649,3.678 3.65,3.678" />
		<path
   id="path155"
   d="m 273.391,524.211 c 17.409,0 33.29,4.873 45.587,12.029 l 5.863,-12.029 c 0,0 -10.198,4.137 -17.249,1.373 -7.004,-2.846 -9.788,-11.939 -9.788,-11.939 0,0 -5.485,7.168 -13.89,5.973 -8.451,-1.189 -10.524,-13.137 -10.524,-13.137 0,0 -2.11,11.947 -10.562,13.137 -8.43,1.195 -13.915,-5.973 -13.915,-5.973 0,0 -2.758,9.094 -9.788,11.939 -7.025,2.764 -17.224,-1.373 -17.224,-1.373 l 5.874,12.029 c 12.321,-7.156 28.154,-12.029 45.616,-12.029" />
		<path
   id="path157"
   d="m 273.391,540.569 c 15.704,0 28.054,3.855 37.945,10.932 l 2.872,-5.236 c -10.172,-6.986 -25.497,-11.67 -40.817,-11.67 -15.367,-0.096 -30.692,4.684 -40.787,11.67 l 2.805,5.236 c 9.897,-7.075 22.299,-10.932 37.982,-10.932" />
		<path
   id="path159"
   d="m 311.269,542.313 c -2.297,0 -4.198,-1.932 -4.198,-4.232 0,-2.289 1.901,-4.223 4.198,-4.223 2.339,0 4.175,1.934 4.175,4.223 -0.001,2.3 -1.837,4.232 -4.175,4.232" />
		<path
   id="path161"
   d="m 291.874,535.604 c -2.313,0 -4.199,-1.844 -4.199,-4.229 0,-2.291 1.887,-4.129 4.199,-4.129 2.349,0 4.236,1.838 4.236,4.129 0,2.385 -1.888,4.229 -4.236,4.229" />
		<path
   id="path163"
   d="m 273.391,533.76 c 2.322,0 4.188,-1.924 4.188,-4.309 0,-2.205 -1.866,-4.139 -4.188,-4.139 -2.317,0 -4.226,1.934 -4.226,4.139 10e-4,2.385 1.909,4.309 4.226,4.309" />
		<path
   id="path165"
   d="m 273.391,500.881 c 0,0 1.68,16.256 10.799,17.547 8.477,1.094 14.19,-7.451 14.19,-7.451 0,0 3.795,13.328 12.765,14.158 0,0 14.087,-20.031 1.437,-28.479 -10.618,-7.082 -28.256,1.102 -39.189,1.102 -10.971,0 -28.613,-8.184 -39.252,-1.102 -12.65,8.447 1.503,28.479 1.503,28.479 8.954,-0.83 12.723,-14.158 12.723,-14.158 0,0 5.755,8.545 14.186,7.451 9.168,-1.291 10.838,-17.547 10.838,-17.547" />
		<path
   id="path167"
   d="m 286.166,493.62 c -1.996,0 -3.629,-1.65 -3.629,-3.678 0,-2.02 1.633,-3.668 3.629,-3.668 2.017,0 3.645,1.648 3.645,3.668 -10e-4,2.027 -1.629,3.678 -3.645,3.678" />
		<path
   id="path169"
   d="m 302.383,487.375 c -1.996,0 -3.635,-1.566 -3.635,-3.584 0,-2.029 1.639,-3.678 3.635,-3.678 2.011,0 3.649,1.648 3.649,3.678 0.001,2.018 -1.638,3.584 -3.649,3.584" />
		<path
   id="path171"
   d="m 311.228,486.274 c -2.007,0 -3.665,-1.662 -3.665,-3.68 0,-2.016 1.658,-3.582 3.665,-3.582 2.012,0 3.649,1.566 3.649,3.582 0,2.018 -1.638,3.68 -3.649,3.68" />
		<path
   id="path173"
   d="m 319.694,488.932 c -2.043,0 -3.671,-1.652 -3.671,-3.67 0,-2.023 1.628,-3.678 3.671,-3.678 1.979,0 3.635,1.654 3.635,3.678 0,2.018 -1.655,3.67 -3.635,3.67" />
		<path
   id="path175"
   d="m 326.885,494.721 c -2.043,0 -3.697,-1.648 -3.697,-3.678 0,-2.018 1.654,-3.668 3.697,-3.668 2.021,0 3.634,1.65 3.634,3.668 0,2.03 -1.612,3.678 -3.634,3.678" />
		<path
   id="path177"
   d="m 328.632,503.813 c -2.021,0 -3.676,-1.65 -3.676,-3.67 0,-2.023 1.653,-3.584 3.676,-3.584 1.97,0 3.624,1.559 3.624,3.584 0,2.02 -1.654,3.67 -3.624,3.67" />
		<path
   id="path179"
   d="m 294.642,491.043 c -2.058,0 -3.66,-1.553 -3.66,-3.668 0,-1.934 1.603,-3.584 3.66,-3.584 2.038,0 3.671,1.65 3.671,3.584 0,2.116 -1.633,3.668 -3.671,3.668" />
		<path
   id="path181"
   d="m 326.459,513.006 c -2.026,0 -3.613,-1.662 -3.613,-3.678 0,-2.016 1.587,-3.582 3.613,-3.582 2.054,0 3.691,1.564 3.691,3.582 0.001,2.018 -1.637,3.678 -3.691,3.678" />
		<path
   id="path183"
   d="m 322.877,521.551 c -2.007,0 -3.613,-1.662 -3.613,-3.678 0,-2.018 1.606,-3.678 3.613,-3.678 2.048,0 3.681,1.662 3.681,3.678 0,2.016 -1.633,3.678 -3.681,3.678" />
		<path
   id="path185"
   d="m 265.853,488.479 c 0,-4.236 3.38,-7.533 7.538,-7.533 4.127,0 7.491,3.297 7.491,7.533 0,4.129 -3.364,7.439 -7.491,7.439 -4.158,0 -7.538,-3.308 -7.538,-7.439 m 7.538,5.41 c 1.156,0 2.084,-0.912 2.084,-2.107 0,-1.189 -0.928,-2.111 -2.084,-2.111 -1.192,0 -2.11,0.922 -2.11,2.111 0,1.195 0.918,2.107 2.11,2.107" />
		<polygon
   id="polygon187"
   points="282.645,468.079 275.926,472.403 281.053,464.68 273.391,464.68 265.703,464.68 270.814,472.403 264.089,468.079 264.089,482.417 270.814,478 270.814,483.875 273.391,483.875 275.926,483.875 275.926,478 282.645,482.417 " />
		<path
   id="path189"
   d="m 617.68,200.095 -30.221,-27.74 1.115,-1.289 c 3.328,3.126 6.429,2.572 11.142,-2.662 l 24.093,-26.187 c 4.411,-4.772 4.168,-7.349 0.782,-10.385 l 1.172,-1.283 14.933,13.78 -1.125,1.195 c -3.511,-3.214 -6.631,-2.204 -10.676,2.302 l -25.605,27.828 c -3.033,3.311 -2.474,5.244 1.026,8.363 l 8.325,7.631 c 5.015,4.677 7.384,4.772 14.684,0.547 l 1.244,1.102 -10.889,6.798 z"
   style="fill:#004494" />
		<path
   id="path191"
   d="m 739.248,436.202 c 7.139,1.102 9.202,-0.18 9.98,-4.871 l 1.628,0.277 -3.442,21.035 c -2.271,13.41 -9.753,18.283 -16.887,17.09 -6.164,-0.912 -9.556,-5.141 -10.847,-13.229 l -0.171,-0.088 c -3.188,8.355 -10.606,13.137 -18.104,11.846 -8.368,-1.375 -12.423,-9.65 -10.69,-20.211 l 4.268,-25.723 1.652,0.271 c -0.817,4.689 0.98,6.715 7.846,7.809 l 34.767,5.794 z m -17.467,10.568 c -1.316,8.26 2.499,13.957 9.564,15.154 7.016,1.102 12.697,-2.293 14.19,-11.393 l 0.954,-5.6 -23.74,-3.857 -0.968,5.696 z m -17.571,-8.83 c -7.522,-1.186 -9.612,-0.082 -10.354,4.229 l -0.705,4.602 c -0.943,5.695 1.97,11.662 10.167,13.043 8.201,1.279 14.78,-3.951 16.402,-13.875 l 0.893,-5.23 -16.403,-2.769 z"
   style="fill:#004494" />
		<path
   id="path193"
   d="m 97.863,450.073 c 6.859,-0.822 8.668,-2.936 8.093,-7.539 l 1.68,-0.178 2.607,20.211 -1.68,0.188 c -0.534,-4.322 -2.188,-6.16 -9.742,-5.244 l -35.182,4.504 c -7.393,1.012 -8.518,3.033 -7.927,7.539 l -1.695,0.18 -2.95,-22.963 c -1.602,-12.682 4.863,-19.66 12.303,-20.672 6.19,-0.832 11.81,1.928 15.31,9.826 5.402,-11.391 23.471,-17.275 23.009,-26.73 l 1.664,-0.184 1.436,11.477 c -11.359,12.133 -24.232,16.721 -22.91,27.104 l 0.612,4.508 15.372,-2.027 z m -17.762,2.297 -0.871,-6.891 c -1.234,-9.457 -8.15,-12.4 -14.646,-11.486 -7.445,0.924 -12.059,7.168 -10.944,15.805 l 0.788,5.885 25.673,-3.313 z"
   style="fill:#004494" />
		<path
   id="path195"
   d="m 85.063,365.093 -0.093,1.747 c -4.91,0.83 -5.594,1.654 -5.999,7.536 l -0.933,13.964 20.225,1.379 c 2.743,0.179 3.889,-0.736 4.138,-3.86 l 0.674,-9.929 c 0.555,-8.261 0.28,-10.374 -6.87,-14.239 l 0.088,-1.651 10.364,3.313 -2.711,40.688 -1.695,-0.084 c 0.3,-4.415 -0.944,-6.527 -8.436,-6.991 l -35.301,-2.385 c -7.025,-0.544 -9.089,0.916 -9.431,5.789 l -1.68,-0.091 2.758,-40.787 9.462,0.643 -0.078,1.104 c -6.268,0.821 -6.906,2.75 -7.321,8.992 l -1.13,16.272 24.17,1.648 1.079,-15.709 c 0.259,-3.86 -0.301,-5.426 -5.102,-6.527 l 0.114,-1.747 13.708,0.925 z"
   style="fill:#004494" />
		<path
   id="path197"
   d="m 92.901,317.05 -4.433,17.726 10.079,6.527 c 4.931,3.217 8.798,5.141 10.333,-0.555 l 1.628,0.368 -3.583,14.239 -1.623,-0.464 c 0.555,-5.33 -1.934,-7.253 -6.564,-10.286 l -41.43,-26.55 1.395,-5.599 51.285,-4.046 c 5.491,-0.368 7.393,-1.374 8.56,-6.252 l 1.639,0.464 -4.853,19.294 -1.654,-0.368 c 0.959,-3.764 -0.197,-5.968 -4.267,-5.695 l -16.512,1.197 z m -28.851,2.113 -0.083,0.179 21.412,13.596 3.894,-15.437 -25.223,1.662 z"
   style="fill:#004494" />
		<path
   id="path199"
   d="m 83.409,271.203 c -6.092,-2.937 -8.772,-2.387 -10.841,1.838 l -1.566,-0.736 11.577,-23.518 c 9.581,-19.478 27.136,-22.324 40.367,-15.797 12.785,6.338 20.635,20.207 10.763,40.141 l -11.867,24.163 -1.503,-0.736 c 2.022,-4.129 1.063,-6.61 -5.237,-9.742 L 83.409,271.203 z m 33.238,7.992 c 7.917,3.86 10.281,2.849 12.604,-1.838 l 2.556,-5.231 c 6.222,-12.681 1.26,-24.442 -12.614,-31.245 -12.147,-5.967 -27.416,-5.874 -35.301,10.206 l -4.77,9.646 37.525,18.462 z"
   style="fill:#004494" />
		<path
   id="path201"
   d="m 150.704,223.71 c 5.656,3.942 8.336,3.764 11.043,-0.096 l 1.384,1.011 -11.785,16.629 -1.353,-1.011 c 2.707,-3.764 2.25,-6.245 -3.624,-10.382 L 117.517,209.47 c -5.833,-4.047 -8.269,-3.868 -11.069,0.088 l -1.337,-0.92 11.722,-16.715 1.395,1.006 c -2.758,3.86 -1.949,6.527 3.588,10.382 l 28.888,20.399 z"
   style="fill:#004494" />
		<path
   id="path203"
   d="m 202.98,180.069 -1.131,1.198 -63.272,-4.505 -0.129,0.091 28.977,27.198 c 4.168,3.951 7.284,3.666 10.768,0 l 1.244,1.102 -11.758,12.583 -1.229,-1.189 c 3.215,-3.404 3.707,-6.159 -2.296,-11.759 l -24.145,-22.604 c -4.62,-4.319 -8.389,-5.604 -13.381,-1.104 l -1.229,-1.189 9.923,-10.569 56.397,4.319 0.146,-0.096 -24.186,-22.688 c -5.382,-5.052 -8.104,-4.866 -11.51,-1.283 l -1.254,-1.102 11.717,-12.498 1.229,1.104 c -3.764,4.034 -3.324,6.882 1.514,11.476 l 33.605,31.515 z"
   style="fill:#004494" />
		<path
   id="path205"
   d="m 248.754,146.072 c -2.069,2.577 -10.105,8.64 -12.241,10.11 -20.583,14.061 -35.897,6.341 -43.296,-4.412 -11.302,-16.533 -5.123,-34.449 6.382,-42.35 6.621,-4.5 10.681,-4.037 14.263,-6.517 1.421,-1.019 1.83,-1.838 1.556,-3.313 l 1.478,-1.006 9.41,13.778 -1.302,0.913 c -7.3,-8.08 -17.809,-6.421 -24.186,-2.017 -9.648,6.522 -11.116,19.937 -2.364,32.701 9.368,13.789 24.445,18.286 35.551,10.657 3.349,-2.292 7.278,-6.146 4.427,-10.286 l -3.437,-5.055 c -3.931,-5.698 -6.626,-6.888 -10.442,-4.311 l -1.819,1.283 -0.928,-1.379 18.949,-12.954 0.933,1.374 c -4.557,3.131 -4.282,6.159 -1.498,10.289 l 8.564,12.495 z"
   style="fill:#004494" />
		<path
   id="path207"
   d="m 288.416,115.851 c 2.364,6.432 4.661,7.901 9.099,6.252 l 0.565,1.556 -19.146,6.89 -0.555,-1.566 c 4.459,-1.553 5.346,-4.033 2.95,-10.651 L 269.337,85.164 c -2.416,-6.704 -4.619,-7.894 -9.058,-6.245 l -0.616,-1.648 36.546,-13.146 3.442,9.467 -1.188,0.464 c -3.691,-6.063 -5.361,-5.885 -11.146,-3.772 l -13.604,4.866 8.067,22.327 13.915,-4.956 c 3.956,-1.475 4.707,-4.047 3.629,-8.544 l 1.499,-0.555 5.417,15.066 -1.545,0.547 c -1.509,-3.761 -4.173,-5.327 -7.901,-4.034 l -14.029,5.141 5.651,15.709 z"
   style="fill:#004494" />
		<path
   id="path209"
   d="m 341.22,52.462 c 16.668,-1.926 31.335,9.371 33.295,25.723 1.93,16.72 -9.777,31.328 -26.592,33.344 -16.771,1.934 -31.47,-9.55 -33.438,-26.27 -1.956,-16.719 9.527,-30.78 26.735,-32.797 m 6.362,56.872 c 14.139,-1.659 19.93,-15.994 18.302,-29.583 -2.063,-17.736 -12.682,-26.556 -24.231,-25.176 -13.252,1.561 -20.417,13.505 -18.504,29.77 1.927,16.445 11.757,26.448 24.433,24.989"
   style="fill:#004494" />
		<path
   id="path211"
   d="m 416.759,47.226 c 16.813,0.643 29.583,14.05 28.966,30.591 -0.611,16.813 -14.396,29.394 -31.336,28.847 -16.854,-0.643 -29.624,-14.239 -29.049,-31.05 0.613,-16.819 14.123,-28.946 31.419,-28.388 m -2.37,57.234 c 14.232,0.555 22.148,-12.769 22.601,-26.464 0.688,-17.822 -8.437,-28.11 -20.121,-28.562 -13.34,-0.464 -22.205,10.193 -22.849,26.638 -0.561,16.449 7.6,27.925 20.369,28.388"
   style="fill:#004494" />
		<path
   id="path213"
   d="m 473.182,104.279 c -1.575,6.61 -0.752,8.726 3.961,9.827 l -0.353,1.649 -19.582,-4.594 0.357,-1.648 c 3.977,0.915 6.549,0.368 8.343,-7.261 l 9.829,-42.078 -7.989,-1.83 c -7.444,-1.745 -11.292,-0.461 -13.138,5.234 l -1.606,-0.368 2.965,-12.585 1.598,0.28 c 0.628,0.915 1.368,1.558 2.607,2.292 1.233,0.643 2.914,1.198 5.2,1.748 l 28.888,6.701 c 4.849,1.107 7.165,1.107 9.239,0 l 1.727,0.464 -2.938,12.59 -1.053,-0.277 c 0.063,-4.874 -1.042,-8.552 -9.794,-10.568 l -8.395,-1.924 -9.866,42.348 z"
   style="fill:#004494" />
		<path
   id="path215"
   d="m 518.568,80.573 c 2.872,-6.706 1.965,-8.998 -2.392,-10.835 l 0.653,-1.566 19.648,8.267 c 12.6,5.33 15.605,13.78 12.775,20.484 -2.406,5.695 -7.279,8.093 -15.497,7.442 l -0.072,0.096 c 7.331,5.053 10.239,13.418 7.301,20.394 -3.292,7.811 -12.329,9.827 -22.159,5.695 l -24.004,-10.193 0.596,-1.566 c 4.407,1.838 6.761,0.643 9.488,-5.786 l 13.663,-32.432 z m 6.299,19.481 c 7.646,3.214 14.128,0.825 16.942,-5.791 2.759,-6.522 0.694,-12.863 -7.808,-16.445 l -5.154,-2.204 -9.347,22.138 5.367,2.302 z m -12.682,14.975 c -2.984,6.979 -2.437,9.278 1.682,11.025 l 4.267,1.828 c 5.272,2.208 11.784,0.832 15.04,-6.885 3.204,-7.626 -0.425,-15.248 -9.644,-19.195 l -4.868,-2.03 -6.477,15.257 z"
   style="fill:#004494" />
		<path
   id="path217"
   d="m 579.569,138.36 -15.093,-10.382 -9.623,7.165 c -4.676,3.492 -7.9,6.431 -3.063,9.923 l -0.949,1.374 -12.063,-8.259 0.97,-1.387 c 4.837,2.299 7.518,0.651 11.93,-2.66 L 591,104.551 l 4.822,3.311 -14.107,49.424 c -1.571,5.327 -1.302,7.439 2.831,10.289 l -0.944,1.376 -16.444,-11.3 0.918,-1.376 c 3.157,2.113 5.708,1.841 6.828,-2.11 l 4.665,-15.805 z m 8.062,-27.836 -0.161,-0.096 -20.137,15.341 13.138,9.008 7.16,-24.253 z"
   style="fill:#004494" />
		<path
   id="path219"
   d="m 617.68,200.095 -30.221,-27.74 1.115,-1.289 c 3.328,3.126 6.429,2.572 11.142,-2.662 l 24.093,-26.187 c 4.411,-4.772 4.168,-7.349 0.782,-10.385 l 1.172,-1.283 14.933,13.78 -1.125,1.195 c -3.511,-3.214 -6.631,-2.204 -10.676,2.302 l -25.605,27.828 c -3.033,3.311 -2.474,5.244 1.026,8.363 l 8.325,7.631 c 5.015,4.677 7.384,4.772 14.684,0.547 l 1.244,1.102 -10.889,6.798 z"
   style="fill:#004494" />
		<path
   id="path221"
   d="m 646.082,237.395 -24.445,-32.977 1.349,-1.011 c 2.712,3.67 5.816,3.67 11.447,-0.464 l 28.563,-21.226 c 5.236,-3.855 5.464,-6.432 2.758,-10.097 l 1.379,-1.011 12.075,16.352 -1.343,1.006 c -2.853,-3.853 -6.066,-3.401 -10.936,0.181 l -30.407,22.604 c -3.581,2.66 -3.344,4.594 -0.533,8.355 l 6.74,9.099 c 4.022,5.425 6.371,6.063 14.346,3.217 l 0.959,1.376 -11.952,4.596 z"
   style="fill:#004494" />
		<path
   id="path223"
   d="m 717.582,293.069 c 8.989,-6.431 11.302,-13.505 7.859,-22.604 -4.802,-12.863 -17.639,-15.891 -31.236,-10.742 -15.917,5.973 -23.311,18.182 -18.789,30.13 3.105,8.357 9.337,13.042 18.592,14.148 l -0.788,1.838 c -9.721,-0.368 -18.155,-6.799 -21.973,-16.998 -4.801,-12.681 -1.104,-29.396 16.57,-36.012 16.817,-6.252 33.591,0.643 39.521,16.448 2.516,6.704 2.162,12.495 3.35,15.613 0.534,1.475 1.437,2.113 2.765,2.294 l 0.522,1.472 -15.817,5.978 -0.576,-1.565 z"
   style="fill:#004494" />
		<path
   id="path225"
   d="m 692.535,356.09 -8.917,-39.962 1.685,-0.464 c 0.943,4.505 3.785,5.792 10.623,4.319 l 34.742,-7.715 c 6.377,-1.47 7.61,-3.678 6.615,-8.176 l 1.652,-0.365 4.412,19.844 -1.669,0.365 c -1.011,-4.689 -4.127,-5.508 -10.043,-4.226 l -36.966,8.27 c -4.339,0.915 -4.939,2.756 -3.93,7.44 l 2.447,10.929 c 1.504,6.714 3.339,8.176 11.842,8.826 l 0.301,1.651 -12.794,-0.736 z"
   style="fill:#004494" />
		<path
   id="path227"
   d="m 702.292,402.393 c -6.59,-5.14 -9.825,-10.932 -10.173,-18.464 -0.71,-13.695 8.752,-19.758 18.54,-20.209 l 27.867,-1.289 c 7.444,-0.368 8.887,-2.39 8.627,-6.888 h 1.706 l 0.969,20.388 -1.653,0.096 c -0.27,-4.687 -2.007,-6.432 -9.239,-6.063 l -28.645,1.376 c -8.684,0.368 -14.667,5.514 -14.205,15.066 0.285,6.527 3.857,12.126 10.161,15.807 l 34.078,-1.658 c 6.479,-0.368 8.685,-1.923 8.674,-6.517 h 1.716 l 0.902,19.935 -1.653,0.082 c -0.244,-4.771 -2.474,-6.334 -9.266,-5.967 l -35.275,1.65 c -7.408,0.367 -8.896,2.49 -8.663,6.895 h -1.694 l -0.669,-13.967 7.895,-0.273 z"
   style="fill:#004494" />
		<path
   id="path229"
   d="m 255.204,697.844 -1.478,-0.816 c 1.275,-4.783 0.757,-5.697 -4.334,-8.543 l -12.329,-6.719 -9.706,17.826 c -1.343,2.393 -1.016,3.77 1.778,5.326 l 8.695,4.783 c 7.294,3.951 9.29,4.588 15.792,-0.277 l 1.462,0.824 -7.3,7.998 -35.825,-19.57 0.782,-1.475 c 3.899,2.113 6.264,1.844 9.882,-4.777 l 16.985,-30.959 c 3.349,-6.242 2.939,-8.723 -1.317,-11.025 l 0.793,-1.471 35.831,19.57 -4.526,8.365 -0.99,-0.547 c 1.882,-6.068 0.378,-7.451 -5.076,-10.479 l -14.304,-7.809 -11.618,21.309 13.889,7.539 c 3.35,1.834 5.003,1.934 8.016,-1.934 l 1.498,0.83 -6.6,12.031 z"
   style="fill:#004494" />
		<path
   id="path231"
   d="m 308.371,694.452 -1.622,-0.559 c 1.949,-8.258 -2.603,-13.316 -8,-15.15 -5.631,-1.936 -10.695,-0.277 -12.459,4.684 -3.411,9.92 9.312,17.268 14.3,27.557 2.437,5.051 2.177,8.732 0.964,12.314 -2.919,8.449 -12.101,12.861 -20.5,9.922 -5.682,-2.02 -9.514,-6.432 -11.276,-7.076 -0.912,-0.363 -1.819,0.1 -2.747,1.283 l -1.576,-0.451 5.023,-14.523 1.561,0.555 c -3.328,9.924 3.676,15.986 8.321,17.635 6.449,2.213 12.044,0 14.024,-5.785 3.245,-9.279 -9.664,-18.467 -13.521,-26.547 -2.183,-4.416 -2.183,-8.641 -0.721,-12.865 2.888,-8.174 10.69,-11.76 19.344,-8.721 5.744,1.92 7.709,4.959 9.763,5.697 0.85,0.271 1.104,0.174 1.954,-1.018 l 1.473,0.555 -4.305,12.493 z"
   style="fill:#004494" />
		<path
   id="path233"
   d="m 341.075,737.073 c -1.208,6.707 -0.29,8.73 4.438,9.646 l -0.279,1.654 -19.728,-3.576 0.3,-1.662 c 3.992,0.736 6.569,-0.09 7.97,-7.711 l 7.746,-42.541 -8.048,-1.471 c -7.532,-1.377 -11.297,0.188 -12.878,5.883 l -1.653,-0.27 2.391,-12.688 1.57,0.275 c 0.694,0.828 1.487,1.387 2.737,2.023 1.244,0.547 2.939,1.105 5.329,1.559 l 29.147,5.242 c 4.822,0.916 7.231,0.82 9.239,-0.367 l 1.721,0.367 -2.322,12.674 -1.078,-0.178 c -0.187,-4.875 -1.432,-8.543 -10.316,-10.109 l -8.426,-1.566 -7.86,42.816 z"
   style="fill:#004494" />
		<path
   id="path235"
   d="m 375.267,750.854 c 0,2.67 -2.079,4.873 -4.677,4.873 -2.545,0 -4.754,-2.203 -4.754,-4.873 0,-2.57 2.209,-4.594 4.754,-4.594 2.598,0 4.677,2.024 4.677,4.594"
   style="fill:#004494" />
		<path
   id="path237"
   d="m 432.411,744.43 c 0.41,5.234 1.515,6.148 6.347,5.781 l 0.124,1.469 -18.266,1.379 -0.063,-1.469 c 4.608,-0.277 5.72,-1.283 5.293,-6.609 l -3.048,-38.957 c -0.149,-1.748 -0.451,-2.02 -0.97,-2.02 -0.686,0.18 -3.599,2.109 -7.575,2.662 l -0.15,-1.654 c 6.04,-3.764 11.019,-7.619 12.661,-10.656 l 1.681,-0.096 3.966,50.17 z"
   style="fill:#004494" />
		<path
   id="path239"
   d="m 465.799,686.549 c 8.271,-1.654 15.519,2.572 16.923,9.918 0.846,4.32 -0.232,9.471 -6.983,15.164 8.555,3.668 13.05,8.543 14.272,14.879 1.695,8.545 -4.267,16.354 -13.459,18.191 -9.332,1.748 -17.047,-2.48 -18.587,-10.477 -1.166,-6.244 1.607,-11.482 9.167,-17.729 -7.627,-2.207 -12.396,-7.074 -13.609,-13.324 -1.551,-8.077 3.427,-14.879 12.276,-16.622 m 7.953,24.254 c 4.536,-3.584 5.02,-7.906 4.174,-12.223 -1.357,-6.98 -6.377,-10.93 -12.386,-9.828 -5.159,1.105 -8.332,5.508 -7.347,10.293 0.903,4.862 5.289,8.174 15.559,11.758 m 2.924,31.053 c 5.762,-1.201 9.244,-6.064 8.141,-11.58 -1.1,-5.604 -6.761,-9.828 -15.615,-12.496 -5.034,3.77 -7.108,8.545 -6.03,14.238 1.363,6.717 7.133,11.027 13.504,9.838"
   style="fill:#004494" />
		<path
   id="path241"
   d="m 489.41,680.118 1.581,-0.643 c 0.523,0.547 0.866,1.012 1.426,1.012 0.555,0.09 1.266,0 2.173,-0.369 l 29.199,-11.211 0.71,1.928 1.618,58.705 -6.632,2.572 1.955,-56.314 -23.176,8.82 c -3.364,1.291 -4.033,2.848 -4.962,9.563 l -1.555,0.639 -2.337,-14.702 z"
   style="fill:#004494" />
		<path
   id="path243"
   d="m 569.667,700.514 c 2.479,4.594 3.806,5.053 8.072,2.66 l 0.693,1.375 -16.01,8.545 -0.694,-1.189 c 4.097,-2.203 4.688,-3.584 2.156,-8.268 l -18.456,-34.176 c -0.788,-1.566 -1.197,-1.648 -1.639,-1.379 -0.586,0.277 -2.463,3.305 -5.822,5.33 l -0.793,-1.471 c 3.883,-5.791 6.916,-11.301 7.165,-14.793 l 1.487,-0.824 23.841,44.19 z"
   style="fill:#004494" />
	</g>
</g>
</svg>