<?xml version="1.0" encoding="utf-8"?>
<!-- Generator: Adobe Illustrator 21.1.0, SVG Export Plug-In . SVG Version: 6.00 Build 0)  -->
<svg version="1.1" id="Layer_1" xmlns="http://www.w3.org/2000/svg" xmlns:xlink="http://www.w3.org/1999/xlink" x="0px" y="0px"
	 viewBox="0 0 407.2 590.1" width="262.688510116" height="380.679002503" style="enable-background:new 0 0 407.2 590.1;" xml:space="preserve">
<style type="text/css">
	.st0{fill:#4681CF;}
	.st1{fill:#E9B008;}
	.st2{fill:#373534;}
	.st3{fill:#FFFFFF;}
	.st4{fill:#4CA950;}
	.st5{fill:#0E62AA;}
	.st6{fill:#F1E19F;}
</style>
<path class="st0" d="M322.4,37.9c-3.6-2-7,0.2-9.7,2.5c-8.2,6.9-12.9,15.9-13.7,26.4c-0.4,5.6,1.2,11.2,6.7,14.6
	c3.5,2.2,7.2,2.4,10.9,0.3c5.5-3.2,7.2-8.5,7.5-14.2c0.3-6.9,0.1-13.7,0.1-20.6C324.6,43.8,325.7,39.8,322.4,37.9"/>
<path class="st0" d="M344.5,37.5c-4.1,1.2-5.9,4.7-6.3,8.8c-0.3,3.4-0.6,6.9-0.8,10.3c-0.2,3.4-0.5,6.9-0.7,10.3
	c-0.1,4.4,0.6,8,2,10.9c0.5,1,1,1.8,1.6,2.6s1.3,1.5,2.1,2c2.3,1.8,5.3,2.6,8.9,2.6c8.1-0.2,13.4-7.4,12.9-18.4
	c-0.4-9.2-3.7-17.4-9.1-24.8C352.5,38.1,348.9,36.3,344.5,37.5"/>
<path class="st0" d="M83,45c-2-6.3-7.9-7-12.6-8.2c-5.8-0.3-10.1,0.9-10.4,6.9c-0.4,7.1,5.5,8.3,10.6,9.8C73,54.2,83.6,46.9,83,45"
	/>
<path class="st0" d="M64.5,89c1.7,0.4,3.5,0.4,4.1,0.4c2,0,2.7,0.1,3.5,0c5.1-0.5,9.8-2,11.3-7.3c1.4-4.7-2.2-7.4-5.5-10
	c-4.7-3.6-7.9-0.4-11.3,2.3c-1.6,1.3-3.4,2.3-4.8,3.7c-2,2.1-6.4,3.2-5.5,6.4C57.1,87.9,61.3,88.2,64.5,89"/>
<path class="st0" d="M120.8,381c4.2-0.1,6.5-2.4,9.4-3.9c5.4-2.8,10.9-5.2,18.2-5.1c-3.6-4-6-9.2-7.4-12.6
	c-9.2,4.6-15.9,10.7-20.4,18.1C119.9,378.7,119.5,379.8,120.8,381"/>
<path class="st1" d="M177.4,555.7c-0.1,0-0.2,0-0.3,0c-0.8,0-1.3,0.3-1.6,1c-0.4,0.8-0.9,2.7-1.3,7.4c-0.3,3.5-0.3,5.9,0.1,7.2
	c0.3,0.9,0.8,1.3,1.9,1.4c1,0.1,1.6-0.2,2-1c0.4-0.7,0.9-2.4,1.1-6.3c0.3-5.1,0.1-7.3-0.1-8.2C178.9,556.2,178.4,555.8,177.4,555.7"
	/>
<path class="st1" d="M69.6,522.6c-0.4-0.2-0.8-0.4-1.1-0.4c-0.2,0-0.6,0-1,0.4c-0.6,0.6-1.7,2.1-3.6,6.3c-1.4,3.1-2.2,5.4-2.3,6.7
	c0,1,0.4,1.7,1.4,2.2c0.4,0.2,0.8,0.4,1.2,0.4s0.7-0.1,1-0.4c0.6-0.5,1.6-1.8,3.1-5.4c2-4.6,2.5-6.8,2.6-7.7
	C70.9,523.8,70.5,523.2,69.6,522.6"/>
<path class="st1" d="M59.9,446.1c3.2-11.4,1.1-15.2-8.5-15.4C56.2,434.7,57.6,439.9,59.9,446.1"/>
<path class="st1" d="M30.8,446.2h17.1C39.7,438.6,33.2,439,30.8,446.2"/>
<path class="st1" d="M54.4,444c-3.3-12.7-8.4-14.8-18.6-6.5C43.9,436.6,48.5,441.6,54.4,444"/>
<path class="st1" d="M264.1,558c0,0.9-0.1,1.9-0.1,2.9c0,0.6-0.1,1.2-0.1,1.7c0.7-0.2,1.4-0.3,2.1-0.5c-0.4-0.8-0.7-1.6-1.1-2.3
	C264.6,559.2,264.3,558.6,264.1,558"/>
<path class="st1" d="M28.2,459.8c4.9-5.2,10.6-5.7,16-8.3C34.1,448.4,28.8,450.8,28.2,459.8"/>
<path class="st1" d="M40.2,457.4c-4.5,0.6-8.2,2.6-10.1,6.9c-0.6,1.3-0.3,3,1.7,3.9c3.4-3,7-6,10.2-9.2
	C42.7,458.2,41.4,457.2,40.2,457.4"/>
<path class="st1" d="M39,478.7c1.6-4,2.1-8.1,1.7-12.7C33,471.9,32.8,473.2,39,478.7"/>
<path class="st1" d="M369.1,525.6c-0.8,2.1-2.2,4-4.4,5.4c-1.8,1.2-3.6,1.8-5.4,1.9l0,0c-0.4,0-0.8-0.2-1.1-0.6l-1.5-2.9
	c-0.2-0.4-0.2-0.8,0-1.1s0.6-0.6,0.9-0.6c1.5-0.1,2.8-0.5,3.8-1.1c0.8-0.5,1.3-1.1,1.6-1.8c0.2-0.6,0.1-1.2-0.2-1.8
	c-0.3-0.5-0.7-0.9-1.2-1.1c-0.3-0.1-0.7-0.2-1.3-0.3c-0.6-0.1-1.3-0.2-2.1-0.3c-1.3-0.1-2.5-0.2-3.5-0.4s-1.8-0.4-2.4-0.7
	c-1.2-0.6-2.2-1.6-3-3.1c-1-2-1.2-4-0.5-6c0.7-1.9,2.1-3.6,4.1-5c1.4-0.9,2.9-1.6,4.4-1.9c0.5-0.1,1,0.1,1.3,0.6l1.5,2.8
	c0.2,0.3,0.2,0.8,0,1.1c-0.2,0.4-0.5,0.6-0.9,0.6c-1.2,0.1-2.2,0.4-2.9,0.9c-0.7,0.5-1.2,1.1-1.4,1.8c-0.2,0.6-0.2,1.2,0.1,1.7
	c0.3,0.5,0.6,0.8,1,0.9c0.2,0.1,0.7,0.2,1.5,0.3c0.7,0.1,1.7,0.2,2.8,0.3c2.4,0.2,4,0.5,5.2,1.1s2.3,1.6,3.1,3
	C369.7,521.2,369.9,523.4,369.1,525.6 M351.6,538.7c-1.3,0.8-2.7,1.5-4,2.3c-0.2,0.1-0.4,0.2-0.6,0.2c-0.1,0-0.2,0-0.4-0.1
	c-0.3-0.1-0.6-0.3-0.7-0.6l-10.2-22.2c-0.3-0.6,0-1.2,0.5-1.5c1.2-0.7,2.5-1.4,3.7-2.1c0.3-0.2,0.6-0.2,0.9-0.1
	c0.3,0.1,0.6,0.3,0.7,0.6l10.4,22C352.3,537.8,352.1,538.4,351.6,538.7 M340.6,544.4c-0.1,0.3-0.3,0.6-0.6,0.7
	c-1.3,0.7-2.6,1.4-3.9,2c-0.6,0.3-1.3,0.1-1.6-0.5c-1.3-2.4-2.6-4.9-3.8-7.3l-0.1-0.2c0.4,3.1,0.8,6.2,1.2,9.3
	c0.1,0.5-0.2,1-0.7,1.2c-0.9,0.4-1.8,0.9-2.8,1.3c-0.5,0.2-1.1,0.1-1.4-0.4c-1.9-2.5-3.8-5-5.6-7.5c0.8,2.9,1.7,5.9,2.5,8.8
	c0.2,0.6-0.1,1.2-0.7,1.4c-1.3,0.6-2.6,1.2-3.9,1.7c-0.1,0.1-0.3,0.1-0.5,0.1s-0.4,0-0.5-0.1c-0.3-0.2-0.5-0.4-0.6-0.8
	c-1.9-8-3.8-16.2-5.8-24.2c-0.1-0.6,0.1-1.1,0.7-1.4c1.1-0.5,2.2-1,3.3-1.5c0.5-0.2,1.1-0.1,1.4,0.4c2,2.7,4,5.5,6.1,8.2
	c0.4,0.6,0.9,1.2,1.3,1.8c0-0.2-0.1-0.5-0.1-0.7l-0.2-1.9c-0.4-3.4-0.9-6.8-1.4-10.2c-0.1-0.5,0.2-1,0.6-1.2
	c1.1-0.5,2.2-1.1,3.3-1.6c0.6-0.3,1.3-0.1,1.6,0.5c4,7,8.1,14.2,12.2,21.1C340.6,543.8,340.7,544.1,340.6,544.4 M311,558.4
	c-1.4,0.6-2.8,1.1-4.2,1.6c-0.1,0.1-0.3,0.1-0.4,0.1c-0.2,0-0.4,0-0.5-0.1c-0.3-0.1-0.5-0.4-0.6-0.7l-7.3-23.5
	c-0.2-0.6,0.1-1.2,0.7-1.5c1.3-0.5,2.6-1,3.9-1.5c0.3-0.1,0.6-0.1,0.9,0s0.5,0.4,0.6,0.7l7.6,23.4
	C311.9,557.6,311.6,558.2,311,558.4 M297.4,563.4c-1.3,0.5-2.7,0.9-4,1.3c-0.5,0.2-1,0-1.3-0.4c-2.4-2.9-4.8-5.9-7.2-8.8l2.6,9.8
	c0.2,0.6-0.2,1.3-0.8,1.4c-1.4,0.4-2.9,0.8-4.3,1.2c-0.1,0-0.2,0-0.3,0c-0.2,0-0.4-0.1-0.6-0.2c-0.3-0.2-0.5-0.4-0.5-0.7l-5.6-24.1
	c-0.1-0.6,0.2-1.2,0.8-1.4c1.2-0.3,2.5-0.7,3.7-1.1c0.5-0.1,1,0,1.3,0.4c2.1,2.8,4.2,5.6,6.4,8.3l0,0c0-0.1-0.1-0.2-0.1-0.3
	l-2.4-8.9c-0.2-0.6,0.2-1.2,0.8-1.4c1.3-0.4,2.6-0.9,3.9-1.3c0.3-0.1,0.6-0.1,0.9,0.1c0.3,0.2,0.5,0.4,0.6,0.7l6.6,23.7
	C298.4,562.6,298,563.2,297.4,563.4 M276.2,569.3c-0.1,0.3-0.4,0.6-0.8,0.7c-1.4,0.4-2.9,0.7-4.3,1.1c-0.5,0.1-1.1-0.1-1.3-0.6
	c-0.6-1.2-1.2-2.4-1.7-3.6c-1.5,0.3-3,0.7-4.6,1c-0.1,1.4-0.2,2.8-0.3,4.1c0,0.5-0.4,0.9-0.9,1.1c-1.4,0.3-2.8,0.6-4.2,0.8
	c-0.1,0-0.1,0-0.2,0c-0.3,0-0.6-0.1-0.8-0.3c-0.3-0.3-0.4-0.6-0.4-1c1.1-8.5,2-17.2,2.7-25.8c0-0.5,0.4-0.9,0.9-1.1
	c1-0.2,2.1-0.5,3.1-0.7c0.5-0.1,1.1,0.1,1.3,0.6c3.7,7.6,7.5,15.2,11.5,22.6C276.4,568.5,276.4,568.9,276.2,569.3 M237.4,554.9
	c-1.2,0.1-2.3,0.3-3.5,0.4l1.9,20.7c0.1,0.6-0.4,1.2-1,1.3c-1.5,0.2-2.9,0.3-4.4,0.4h-0.1c-0.3,0-0.5-0.1-0.8-0.3
	c-0.2-0.2-0.4-0.5-0.4-0.8l-1.6-20.6c-1.2,0.1-2.4,0.2-3.6,0.3c-0.3,0-0.6-0.1-0.9-0.3c-0.2-0.2-0.4-0.5-0.4-0.8l-0.2-2.9
	c0-0.6,0.4-1.2,1.1-1.2c4.4-0.3,8.9-0.8,13.3-1.3c0.3,0,0.6,0,0.9,0.2c0.2,0.2,0.4,0.5,0.4,0.8l0.3,2.9
	C238.5,554.3,238.1,554.8,237.4,554.9 M219.1,578.5c-3.9,0.2-7.9,0.4-11.9,0.4l0,0c-0.3,0-0.6-0.1-0.8-0.3s-0.4-0.5-0.4-0.8
	l-0.3-24.8c0-0.7,0.5-1.2,1.2-1.2c3.6-0.1,7.3-0.2,10.9-0.4c0.3,0,0.6,0.1,0.9,0.3c0.2,0.2,0.4,0.5,0.4,0.8l0.1,2.8
	c0,0.6-0.5,1.2-1.1,1.2c-1.9,0.1-3.8,0.2-5.8,0.3l0.1,5.5c1.7-0.1,3.4-0.1,5.1-0.2c0.3,0,0.6,0.1,0.9,0.3c0.2,0.2,0.4,0.5,0.4,0.8
	l0.1,2.8c0,0.6-0.5,1.2-1.1,1.2c-1.7,0.1-3.5,0.2-5.2,0.2l0.2,6.1c2-0.1,4.1-0.2,6.1-0.3c0.3,0,0.6,0.1,0.9,0.3
	c0.2,0.2,0.4,0.5,0.4,0.8l0.1,2.8C220.2,578,219.7,578.5,219.1,578.5 M186.2,565.5c-0.2,4.7-1.1,7.9-2.7,9.9
	c-1.4,1.8-3.6,2.7-6.4,2.7c-0.4,0-0.8,0-1.3-0.1c-3.6-0.3-6.1-1.8-7.4-4.3c-1.2-2.3-1.5-5.9-1-11.2c0.5-4.6,1.5-7.8,3-9.7
	c1.6-2,4.1-2.9,7.4-2.6c2.9,0.3,5,1.3,6.4,3.1c0.9,1.2,1.5,2.8,1.8,4.7C186.3,559.8,186.4,562.3,186.2,565.5 M159.4,574.6
	c0,0.3-0.2,0.6-0.5,0.8c-0.2,0.2-0.5,0.2-0.7,0.2c-0.1,0-0.1,0-0.2,0c-1.5-0.2-2.9-0.5-4.4-0.7c-0.6-0.1-1.1-0.7-1-1.3L156,549
	c0-0.3,0.2-0.6,0.5-0.8s0.6-0.3,0.9-0.2c1.4,0.2,2.7,0.4,4.1,0.7c0.6,0.1,1.1,0.7,1,1.3L159.4,574.6z M147.7,572.6
	c-0.1,0.3-0.2,0.6-0.5,0.8c-0.2,0.1-0.4,0.2-0.7,0.2c-0.1,0-0.2,0-0.2,0c-3.8-0.7-7.7-1.6-11.5-2.5c-0.6-0.1-1-0.8-0.9-1.4l4.8-24.3
	c0.1-0.3,0.2-0.6,0.5-0.8s0.6-0.2,0.9-0.2c1.3,0.3,2.7,0.6,4,0.9c0.6,0.1,1,0.7,0.9,1.4l-3.8,20.5c2,0.4,4,0.8,5.9,1.2
	c0.6,0.1,1,0.7,0.9,1.3L147.7,572.6z M132.1,543.6l-5.4,24.1c-0.1,0.3-0.3,0.6-0.5,0.8c-0.2,0.1-0.4,0.2-0.6,0.2c-0.1,0-0.2,0-0.3,0
	c-1.4-0.4-2.9-0.8-4.3-1.2c-0.6-0.2-1-0.8-0.8-1.4l5.8-24c0.1-0.3,0.3-0.6,0.6-0.7c0.3-0.2,0.6-0.2,0.9-0.1c1.3,0.4,2.7,0.8,4,1.1
	C131.8,542.4,132.2,543,132.1,543.6 M118.9,540.3l-0.8,3.1c-0.1,0.4-0.4,0.7-0.9,0.8c-0.4,0.1-0.9,0-1.1-0.3c-0.9-1-1.7-1.6-2.5-1.8
	c-0.8-0.3-1.4-0.3-2,0c-0.5,0.2-0.8,0.6-1,1.1c-0.2,0.6-0.2,1.1,0.1,1.6c0.1,0.3,0.3,0.7,0.8,1.5c0.4,0.7,1,1.5,1.7,2.5
	c1.4,2,2.3,3.6,2.7,4.9c0.4,1.3,0.4,2.8,0,4.4c-0.6,2.2-1.9,3.8-3.9,4.7c-1,0.4-2,0.6-3.1,0.6s-2.3-0.2-3.5-0.6
	c-2-0.7-3.6-1.8-4.8-3.1c-0.3-0.3-0.4-0.7-0.2-1.1l1-3.1c0.1-0.4,0.5-0.7,0.9-0.8s0.8,0,1.1,0.4c1.1,1.2,2.2,2,3.2,2.4
	c0.8,0.3,1.5,0.3,2.1,0.1c0.3-0.1,0.7-0.4,1-1.3c0.2-0.6,0.2-1.2-0.1-1.9c-0.1-0.3-0.3-0.8-0.6-1.3s-0.7-1.2-1.2-1.9
	c-0.8-1.1-1.5-2.2-2-3.1c-0.5-0.9-0.9-1.7-1.1-2.4c-0.4-1.4-0.4-2.8,0.1-4.4c0.7-2.2,1.9-3.7,3.8-4.5c1.8-0.8,3.9-0.7,6.2,0
	c1.5,0.5,2.9,1.3,4.2,2.4C118.9,539.4,119.1,539.8,118.9,540.3 M92.2,557.1c-0.2,0.1-0.3,0.1-0.5,0.1s-0.3,0-0.4-0.1
	c-1.3-0.5-2.6-1.1-3.9-1.6c-0.4-0.2-0.7-0.6-0.7-1c-0.3-3.9-0.6-7.9-0.8-11.8c-1.1,3.1-2.2,6.2-3.2,9.3c-0.1,0.3-0.3,0.6-0.6,0.7
	c-0.3,0.1-0.6,0.1-1,0c-1.4-0.6-2.7-1.3-4.1-1.9c-0.6-0.3-0.8-0.9-0.6-1.5l8.8-22.9c0.1-0.3,0.4-0.5,0.7-0.7c0.3-0.1,0.6-0.1,0.9,0
	c1.2,0.6,2.4,1.1,3.6,1.6c0.4,0.2,0.7,0.6,0.7,1c0.1,3.6,0.3,7.3,0.5,10.9c0,0,0,0,0,0.1c0,0,0,0,0-0.1l3-8.6
	c0.1-0.3,0.3-0.6,0.6-0.7c0.3-0.1,0.6-0.1,0.9,0c1.3,0.5,2.6,1.1,3.9,1.6c0.6,0.2,0.9,0.9,0.7,1.5l-7.8,23.3
	C92.7,556.7,92.5,557,92.2,557.1 M68.8,543.5c-1,0.5-2,0.8-3.2,0.8c-1.5,0-3.2-0.5-5-1.5c-3.2-1.8-5.1-4.1-5.4-7
	c-0.4-2.6,0.5-6.2,2.8-10.8c2-4.2,4-6.7,6.1-7.9c2.2-1.2,4.8-1,7.8,0.7c2.6,1.4,4.2,3.2,4.9,5.4c0.4,1.4,0.5,3.2,0.1,5.1
	c-0.3,1.7-1.1,4.1-2.3,7C72.8,539.6,70.9,542.3,68.8,543.5 M53.6,513.3c-0.7-0.4-1.4-0.7-2-0.8c-0.6,0-1.1,0.1-1.7,0.4
	c-0.6,0.4-1.3,1-2,1.8c-0.7,0.9-1.5,2-2.2,3.4c-3.8,7-0.4,9.2,0.7,9.9c0.5,0.3,1.3,0.6,2.2,0.8c0.3,0.1,0.6,0.3,0.8,0.7
	c0.2,0.3,0.1,0.7,0,1l-1.4,2.7c-0.2,0.4-0.6,0.6-1.1,0.6c-0.1,0-0.1,0-0.2,0c-1.3-0.2-2.6-0.8-3.9-1.6c-4.4-2.9-8.6-8.3-3.2-17.9
	c2.2-4,4.7-6.5,7.3-7.6c2.7-1.1,5.6-0.6,8.7,1.3c1.1,0.7,2.1,1.7,3,2.8c0.3,0.4,0.3,0.8,0.1,1.2l-1.3,2.6c-0.2,0.4-0.5,0.6-0.9,0.6
	s-0.8-0.1-1-0.4C54.8,514.2,54.2,513.6,53.6,513.3 M380.9,468.9c-2.9,4.1-5.2,7.8-7.9,11.1c-2.8,3.3-5.9,6.5-9.2,9.1
	c-44.8,34.9-96.5,50.4-152.4,52.2c-52.3,1.8-101.3-10.7-146.6-37.1c-15.1-8.8-29.2-18.8-38.5-36c-2.3,9.4-4.8,17.6-9.4,24.6
	c-6,9.2-3.6,16.7,2.2,24.5c13,17.4,29.8,30.1,49.5,38.9c59.9,26.8,122.2,37.5,187.4,25.5c35.3-6.5,69.7-16,100.5-35.4
	c14-8.8,26.1-19.6,34.7-34c2.7-4.5,4.4-9,1.5-14.4C387.7,488.9,383.7,479.4,380.9,468.9"/>
<path class="st1" d="M371.5,437.2c-4.8-3.5-7.6-6.9-11.7-4.8c-4.3,2.2-7.1,6-7,12.8C358.1,440.2,363.4,437.4,371.5,437.2"/>
<path class="st1" d="M358.4,446.5h18.2c-0.4-3.5-1.4-5.7-5.1-5.7C366.7,440.8,362.2,441.4,358.4,446.5"/>
<path class="st1" d="M354.8,430.8c-9.3,0.1-11.8,4.9-7.6,14.4C349,439.9,350.9,434.9,354.8,430.8"/>
<path class="st1" d="M376.5,467.3c1.5-1.7,0.5-3.9-1.1-5.4c-2.2-2.2-4.7-3.9-8.5-4.5c-0.4-0.1-1.5-0.1-1.9,1c-0.4,1,0.1,1.9,1,2.6
	c2.1,1.5,4,3.1,6.1,4.5C373.4,466.4,374,469.9,376.5,467.3"/>
<path class="st1" d="M345.3,447.4c-3.3-6.1-2.6-12.8-2.6-12.8s-4.7,1.4-5.4,5.6C336.6,444.4,345.3,447.4,345.3,447.4"/>
<path class="st1" d="M368.1,479.1c5.8-6.1,5.3-8.3-2-12.5C366.1,470.7,365.9,474.7,368.1,479.1"/>
<path class="st1" d="M347.1,497c4.5-3.3,9-6.6,13.5-10c2-1.6,3.7-3.2,3.2-6.3c-0.9-4.9-0.8-10-2.8-15.3c-4.6,3.2-9.5,5.4-15,6.1
	c-0.2,0.1-0.4,0.1-0.6,0.2c-0.4,0.1-4,0.8-6.2,0.8c-0.1,0-0.3,0-0.4,0c2.5,7.5,3.2,14.3,2.8,21.2C341.1,498.8,342.5,500.4,347.1,497
	"/>
<path class="st1" d="M346.4,467.1c0.2,0,0.5,0,0.8,0c1.6,0,4.2-0.3,4.4-1.5c0.3-1.3,0.5-4.7-0.8-5.8s-5.1-1.5-5.1-1.5
	S345,467,346.4,467.1"/>
<path class="st1" d="M66.3,435.6c-1.2,3.8-0.8,7.9-1.8,11.9C67.9,444,69.4,440,66.3,435.6"/>
<path class="st1" d="M44.3,484.3c4.9,6.7,12.7,11.3,21.2,15.6c0.2-10.1-0.2-19.1,3.2-28.4c-8.8,1.3-16-1.5-23.4-6.4
	C44.8,472.2,40.6,479.3,44.3,484.3"/>
<path class="st1" d="M58.9,458.6c-4.9,0-4.4,6.2-4.4,6.2c1.9,2.2,8.7,3.4,8.7,3.4s1.8-9.1-3.7-9.6C59.2,458.6,59,458.6,58.9,458.6"
	/>
<path class="st1" d="M332.9,447.7c0.6,3.2,2.2,4.9,4,5.9c1.5,0.4,3.4,0.6,5.2,0.6c0.3,0,0.5,0,0.8,0.1l0.5-2.4
	c-3-2-8.7-10.8-8.7-10.8c-2,2-2,4.8-2,4.8c0,0.1,0,0.2,0,0.3C332.7,446.8,332.7,447.2,332.9,447.7"/>
<path class="st1" d="M72.2,441.3c-1.2,4.9-3.5,8.7-5.8,12.6C70,450.8,77.9,449.6,72.2,441.3"/>
<path class="st1" d="M65.8,459.2c0.4,0.7,0.6,1.5,0.8,2.2c1.8-0.3,3.7-0.5,5.3-1.2c0.7-0.3,1.3-0.7,1.9-1.3c0.4-0.4,0.7-0.8,1-1.4
	c0.6-1.1,1-2.5,1.1-4.3c-1,0.6-1.9,1.1-2.8,1.7C70.4,456.5,68.1,457.9,65.8,459.2"/>
<path class="st1" d="M339.1,468.9c1.1,0,2.7-0.2,3.9-0.4c-0.6-1.1-0.8-2.5-0.9-3.8c-0.5,0.1-0.9,0.2-1.1,0.3c-0.2,0-0.3,0-0.5,0
	h-0.3c-3.5,0-6.1-1.1-6.4-1.2c-0.1,0-0.1-0.1-0.2-0.1c1.6,3.3,3.7,4.7,4.5,5.1C338.3,468.9,338.6,468.9,339.1,468.9"/>
<path class="st1" d="M340.1,461.5c0.1,0,0.1,0,0.2,0c0,0,0.9-0.2,1.7-0.5c0.1-1.5,0.2-2.7,0.2-2.8s0-0.2,0-0.2l-0.1-0.1
	c0,0-10.6-0.1-10.9-4.5c0,0-1.1,4.5,3.9,7.3C335.2,460.6,337.2,461.5,340.1,461.5"/>
<path class="st1" d="M67,464.5c0.1,1.6-0.1,3-0.2,3.8h0.1c0.2,0,0.5,0,0.8,0c1.8,0,4.8-0.4,5.7-5.6c0,0-3.2,1.8-6.2,1.8
	C67.1,464.5,67,464.5,67,464.5"/>
<path class="st1" d="M378.8,460c-0.5-9.1-7.1-12.1-15.8-8.2C368.4,453.9,373.9,454.8,378.8,460"/>
<path class="st1" d="M377,328.3c-12.8,37-31.6,69.9-55.7,97.9c-30.1,35-68.9,62.4-115.2,81.5l-0.4,0.2c-0.3,0.1-1.2,0.4-2,0.4
	s-1.7-0.3-1.9-0.4c-0.1,0-0.2-0.1-0.3-0.1l0,0c-0.1,0-0.1,0-0.2-0.1c-46.5-19.2-85.4-46.7-115.5-81.9
	c-24.1-28.1-42.9-61.2-55.6-98.3C8.3,263.9,11.6,210.8,11.6,210.3v-0.4V11.4h384.1V210v0.2C395.9,210.8,399,264.9,377,328.3
	 M403.2,4.1H4.3v205.6c0,0.7-3.3,55.6,19,120.4c13.1,38,32.3,71.8,57,100.7c30.9,36,70.7,64.2,118.2,83.8c0.1,0,2.5,1.1,5.2,1.1
	s5.1-1.1,5.1-1.1c47.7-19.7,87.5-47.9,118.4-84c24.8-28.8,43.9-62.7,57-100.7c22.3-64.7,19-119.6,19-120.1V4.1z"/>
<path class="st2" d="M391.1,512.3c-8.5,14.4-20.7,25.2-34.7,34c-30.8,19.4-65.2,28.9-100.5,35.4c-65.2,11.9-127.5,1.3-187.4-25.5
	c-19.6-8.8-36.4-21.5-49.5-38.9c-5.8-7.8-8.2-15.3-2.2-24.5c4.6-7,7.1-15.2,9.4-24.6c9.3,17.2,23.4,27.2,38.5,36
	c45.4,26.4,94.4,38.9,146.6,37.1c55.9-1.9,107.6-17.4,152.4-52.2c3.4-2.6,6.5-5.8,9.2-9.1c2.8-3.3,5-7,7.9-11.1
	c2.8,10.5,6.8,20,11.7,29C395.5,503.2,393.8,507.8,391.1,512.3 M39,478.7c-6.2-5.5-6.1-6.8,1.7-12.7C41.2,470.6,40.7,474.6,39,478.7
	 M31.8,468.1c-2-0.9-2.3-2.6-1.7-3.9c1.9-4.2,5.6-6.3,10.1-6.9c1.1-0.2,2.5,0.9,1.8,1.5C38.8,462.1,35.3,465.1,31.8,468.1
	 M44.3,451.5c-5.4,2.6-11.1,3.1-16,8.3C28.8,450.8,34.1,448.4,44.3,451.5 M47.9,446.2H30.8C33.2,439,39.7,438.6,47.9,446.2
	 M54.4,444c-6-2.5-10.5-7.4-18.6-6.5C46,429.2,51.2,431.3,54.4,444 M59.9,446.1c-2.3-6.2-3.7-11.4-8.5-15.4
	C61,430.9,63.1,434.7,59.9,446.1 M60.8,455.2c-0.3-0.1-0.7-0.1-1.1-0.2c-0.3,0-0.6,0-0.9,0c-2.2,0-4.2,0.8-5.6,2.3
	c-1.7,1.8-2.2,4.2-2.3,5.9c-4.7-3.2-5-7.3-3-11.4c2-4,6-4.3,10-3.1c2.1,0.6,3.5,2.1,3.5,4.4C61.4,454,61.2,454.7,60.8,455.2
	 M63.2,468.2c0,0-6.8-1.2-8.7-3.4c0,0-0.5-6.2,4.4-6.2c0.2,0,0.4,0,0.6,0C64.9,459.1,63.2,468.2,63.2,468.2 M68.7,471.5
	c-3.4,9.3-3,18.2-3.2,28.4c-8.6-4.3-16.3-8.8-21.2-15.6c-3.6-5,0.5-12.1,1.1-19.2C52.7,470,59.9,472.8,68.7,471.5 M66.3,435.6
	c3.1,4.4,1.6,8.3-1.8,11.9C65.5,443.5,65.1,439.5,66.3,435.6 M72.2,441.3c5.8,8.3-2.2,9.5-5.8,12.6C68.6,450,71,446.2,72.2,441.3
	 M74.7,457.6c-0.3,0.5-0.6,1-1,1.4c-0.6,0.6-1.2,1-1.9,1.3c-1.6,0.7-3.4,0.9-5.3,1.2c-0.2-0.8-0.4-1.5-0.8-2.2
	c2.3-1.4,4.6-2.7,7.2-4.2c0.9-0.5,1.9-1.1,2.8-1.7C75.7,455.2,75.3,456.6,74.7,457.6 M67.6,468.3c-0.3,0-0.6,0-0.8,0
	c-0.1,0-0.1,0-0.1,0c0.1-0.8,0.3-2.2,0.2-3.8c0.1,0,0.1,0,0.2,0c3,0,6.2-1.8,6.2-1.8C72.4,468,69.5,468.3,67.6,468.3 M333.5,463.7
	c0.1,0,0.1,0.1,0.2,0.1c0.3,0.1,2.9,1.2,6.4,1.2h0.3c0.2,0,0.4,0,0.5,0c0.3,0,0.6-0.1,1.1-0.3c0.1,1.3,0.3,2.7,0.9,3.8
	c-1.2,0.2-2.8,0.4-3.9,0.4c-0.5,0-0.8,0-1-0.1C337.2,468.4,335.1,467,333.5,463.7 M331.2,453.3c0.2,4.4,10.9,4.5,10.9,4.5l0.1,0.1
	c0,0.1,0,0.2,0,0.2c0,0.1-0.1,1.3-0.2,2.8c-0.8,0.4-1.7,0.5-1.7,0.5c-0.1,0-0.1,0-0.2,0c-2.9,0-5-0.9-5-0.9
	C330.1,457.7,331.2,453.3,331.2,453.3 M334.7,441.1c0,0,5.7,8.8,8.7,10.8l-0.5,2.4c-0.3-0.1-0.5-0.1-0.8-0.1c-1.8,0-3.7-0.3-5.2-0.6
	c-1.8-0.9-3.5-2.7-4-5.9c-0.1-0.4-0.2-0.9-0.2-1.4c0-0.1,0-0.2,0-0.3C332.7,446,332.7,443.1,334.7,441.1 M337.3,440.2
	c0.7-4.2,5.4-5.6,5.4-5.6s-0.7,6.7,2.6,12.8C345.3,447.4,336.6,444.4,337.3,440.2 M354.8,430.8c-4,4.1-5.8,9.1-7.6,14.4
	C343,435.8,345.6,430.9,354.8,430.8 M359.8,432.3c4.1-2.1,7,1.3,11.7,4.8c-8.1,0.2-13.3,3.1-18.7,7.9
	C352.6,438.3,355.5,434.5,359.8,432.3 M376.5,446.5h-18.2c3.8-5.1,8.3-5.7,13.1-5.7C375.2,440.8,376.2,443.1,376.5,446.5
	 M346.1,451.7c1.6-3.8,5.3-4.5,9-3.1c3.5,1.3,5.2,3.9,5,7.6c0,2.7-0.7,5.5-3.2,6.5c-0.8,0.3-1.3,0.4-1.7,0.3
	c-0.1-1.9-0.5-4.2-2.2-5.7c-1.9-1.7-5.6-2.2-7.1-2.3c0,0,0,0-0.1,0C345.5,454.1,345.5,453.1,346.1,451.7 M345.7,458.4
	c0,0,3.8,0.3,5.1,1.5c1.3,1.1,1.1,4.5,0.8,5.8c-0.2,1.1-2.7,1.5-4.4,1.5c-0.3,0-0.6,0-0.8,0C345,467,345.7,458.4,345.7,458.4
	 M338.6,472.5c0.1,0,0.3,0,0.4,0c2.2,0,5.8-0.7,6.2-0.7c0.2,0,0.4-0.1,0.6-0.2c5.6-0.7,10.4-3,15-6.1c2,5.2,1.9,10.4,2.8,15.3
	c0.6,3.1-1.1,4.8-3.2,6.3c-4.4,3.4-9,6.6-13.5,10c-4.6,3.4-6,1.8-5.6-3.4C341.8,486.8,341.2,479.9,338.6,472.5 M363,451.8
	c8.6-3.9,15.3-1,15.8,8.2C373.9,454.8,368.4,453.9,363,451.8 M368.1,479.1c-2.1-4.4-2-8.4-2-12.5C373.4,470.8,373.8,473,368.1,479.1
	 M366,460.9c-1-0.7-1.4-1.6-1-2.6c0.4-1.1,1.5-1.1,1.9-1c3.8,0.6,6.3,2.3,8.5,4.5c1.6,1.6,2.6,3.8,1.1,5.4c-2.4,2.6-3-0.9-4.4-1.9
	C370,464,368.1,462.4,366,460.9 M383,454.4c-0.2-4-1.6-8.1-3.2-11.7c-6.3-13.9-23.4-20-36.8-13.5c-10.7,5.2-16.4,14.9-15.3,25.5
	c0,0.6,0.1,1.3,0.3,2.1c0,0.1,0.1,0.2,0.1,0.3c0.3,1.4,0.7,2.8,1.2,4.2c0,0.4,0,0.9,0.1,1.3c0.9,3,2.3,5.1,3.6,6.6
	c3.9,8.7,5,17.6,4.8,27.1c-0.1,4.5-1.4,7.1-5.7,9.5c-50.9,27.7-105.3,36.1-162.3,29.8c-33.4-3.7-64.8-13.6-94.2-29.8
	c-2.7-1.5-6.2-2.2-6.1-6.8c0.1-11.3,0.1-22.2,6.2-32.6c6.5-11.1,5.2-22.1-2.6-30.5c-8.1-8.7-17.9-11.2-29.3-7.6
	c-13.1,4.1-18.5,14.2-19.6,26.6c-1.1,13-3.9,25.5-10.7,36.4C6.7,502.2,9.6,511,16.3,520c12.1,16.4,27.8,28.6,45.9,37.4
	c44.5,21.5,91.7,32.4,152.1,32.7c13,0.4,36.6-2.5,59.8-8.1c31.3-7.5,62.1-16.7,89-35.4c12.2-8.5,23.2-18.4,31-31.4
	c4.2-7,5.4-13.7,0.8-21.4C387.8,481.6,383.6,468.5,383,454.4"/>
<path class="st2" d="M56.5,515.5c0.4,0,0.8-0.3,0.9-0.6l1.3-2.6c0.2-0.4,0.2-0.9-0.1-1.2c-0.9-1.2-1.9-2.1-3-2.8
	c-3.1-2-6-2.4-8.7-1.3c-2.6,1.1-5,3.6-7.3,7.6c-5.4,9.6-1.2,15,3.2,17.9c1.3,0.8,2.6,1.4,3.9,1.6c0.1,0,0.1,0,0.2,0
	c0.4,0,0.8-0.2,1.1-0.6l1.4-2.7c0.2-0.3,0.2-0.7,0-1s-0.4-0.6-0.8-0.7c-0.9-0.2-1.6-0.5-2.2-0.8c-1.1-0.7-4.5-2.9-0.7-9.9
	c0.8-1.4,1.5-2.5,2.2-3.4c0.7-0.8,1.3-1.4,2-1.8c0.6-0.3,1.1-0.4,1.7-0.4c0.6,0.1,1.3,0.3,2,0.8c0.5,0.3,1.1,0.9,1.8,1.8
	C55.7,515.4,56.1,515.5,56.5,515.5"/>
<path class="st2" d="M68.2,532.6c-1.5,3.5-2.5,4.9-3.1,5.4c-0.3,0.3-0.6,0.4-1,0.4l0,0c-0.3,0-0.7-0.1-1.2-0.4
	c-1-0.5-1.4-1.2-1.4-2.2c0.1-1.4,0.9-3.6,2.3-6.7c1.9-4.2,3-5.7,3.6-6.3c0.4-0.4,0.8-0.4,1-0.4c0.3,0,0.7,0.1,1.1,0.4
	c0.9,0.5,1.3,1.2,1.2,2.2C70.7,525.8,70.2,527.9,68.2,532.6 M76.7,523.2c-0.7-2.2-2.3-4-4.9-5.4c-3-1.6-5.6-1.9-7.8-0.7
	c-2.1,1.1-4.1,3.7-6.1,7.9c-2.2,4.7-3.1,8.2-2.8,10.8c0.4,2.8,2.2,5.2,5.4,7c1.8,1,3.4,1.5,5,1.5c1.1,0,2.2-0.3,3.2-0.8
	c2.1-1.2,4-3.9,5.8-8.2c1.2-2.9,2-5.3,2.3-7C77.2,526.4,77.2,524.7,76.7,523.2"/>
<path class="st2" d="M100,531.6c-1.3-0.5-2.6-1.1-3.9-1.6c-0.3-0.1-0.6-0.1-0.9,0s-0.5,0.4-0.6,0.7l-3,8.6c0,0,0,0,0,0.1
	c0,0,0,0,0-0.1c-0.2-3.6-0.4-7.3-0.5-10.9c0-0.4-0.3-0.8-0.7-1c-1.2-0.5-2.4-1.1-3.6-1.7c-0.3-0.1-0.6-0.2-0.9,0
	c-0.3,0.1-0.5,0.4-0.7,0.7l-8.8,22.9c-0.2,0.6,0,1.2,0.6,1.5c1.4,0.6,2.7,1.3,4.1,1.9c0.3,0.1,0.6,0.1,1,0c0.3-0.1,0.5-0.4,0.6-0.7
	c1.1-3.1,2.2-6.2,3.2-9.3c0.2,3.9,0.5,7.9,0.8,11.8c0,0.4,0.3,0.8,0.7,1c1.3,0.6,2.6,1.1,3.9,1.6c0.1,0.1,0.3,0.1,0.4,0.1
	c0.2,0,0.3,0,0.5-0.1c0.3-0.1,0.5-0.4,0.6-0.7l7.8-23.3C100.9,532.5,100.6,531.9,100,531.6"/>
<path class="st2" d="M114.4,536.7c-2.3-0.8-4.4-0.8-6.2,0s-3.1,2.3-3.8,4.5c-0.5,1.6-0.5,3.1-0.1,4.4c0.2,0.7,0.6,1.5,1.1,2.4
	s1.2,2,2,3.1c0.5,0.7,0.9,1.4,1.2,1.9s0.5,1,0.6,1.3c0.2,0.6,0.2,1.2,0.1,1.9c-0.2,0.9-0.7,1.1-1,1.3c-0.5,0.2-1.2,0.2-2.1-0.1
	c-1-0.4-2.1-1.2-3.2-2.4c-0.3-0.3-0.7-0.5-1.1-0.4s-0.7,0.4-0.9,0.8l-1,3.1c-0.1,0.4,0,0.8,0.2,1.1c1.2,1.4,2.8,2.4,4.8,3.1
	c1.2,0.4,2.4,0.6,3.5,0.6s2.1-0.2,3.1-0.6c2-0.9,3.4-2.5,3.9-4.7c0.4-1.6,0.4-3.1,0-4.4c-0.4-1.3-1.2-2.9-2.7-4.9
	c-0.7-1-1.2-1.8-1.7-2.5c-0.5-0.8-0.7-1.2-0.8-1.5c-0.2-0.5-0.2-1-0.1-1.6c0.2-0.6,0.5-0.9,1-1.1c0.6-0.2,1.2-0.2,2,0
	c0.8,0.3,1.6,0.9,2.5,1.8c0.3,0.3,0.7,0.4,1.1,0.3c0.4-0.1,0.7-0.4,0.9-0.8l0.8-3.1c0.1-0.4,0-0.9-0.4-1.2
	C117.3,538,115.9,537.2,114.4,536.7"/>
<path class="st2" d="M131.2,542.2c-1.3-0.4-2.7-0.7-4-1.1c-0.3-0.1-0.6,0-0.9,0.1c-0.3,0.2-0.5,0.4-0.6,0.7l-5.8,24
	c-0.1,0.6,0.2,1.2,0.8,1.4c1.4,0.4,2.9,0.8,4.3,1.2c0.1,0,0.2,0,0.3,0c0.2,0,0.4-0.1,0.6-0.2c0.3-0.2,0.5-0.4,0.5-0.8l5.4-24.1
	C132.2,543,131.8,542.4,131.2,542.2"/>
<path class="st2" d="M147.2,568.4c-2-0.4-3.9-0.8-5.9-1.2l3.8-20.5c0.1-0.6-0.3-1.2-0.9-1.4c-1.3-0.3-2.7-0.6-4-0.9
	c-0.3-0.1-0.6,0-0.9,0.2s-0.5,0.4-0.5,0.8l-4.8,24.3c-0.1,0.6,0.3,1.2,0.9,1.4c3.8,0.9,7.7,1.7,11.5,2.5c0.1,0,0.1,0,0.2,0
	c0.2,0,0.5-0.1,0.7-0.2c0.3-0.2,0.4-0.5,0.5-0.8l0.5-2.8C148.2,569.1,147.8,568.6,147.2,568.4"/>
<path class="st2" d="M161.6,548.7c-1.4-0.2-2.7-0.4-4.1-0.7c-0.3-0.1-0.6,0-0.9,0.2c-0.3,0.2-0.4,0.5-0.5,0.8l-3.4,24.6
	c-0.1,0.6,0.3,1.2,1,1.3c1.5,0.2,2.9,0.5,4.4,0.7c0.1,0,0.1,0,0.2,0c0.3,0,0.5-0.1,0.7-0.2c0.3-0.2,0.4-0.5,0.5-0.8l3.1-24.6
	C162.6,549.3,162.2,548.8,161.6,548.7"/>
<path class="st2" d="M179.3,565.4c-0.3,3.9-0.8,5.6-1.1,6.3c-0.4,0.8-1,1.1-2,1s-1.6-0.5-1.9-1.4c-0.4-1.3-0.4-3.7-0.1-7.2
	c0.4-4.7,0.9-6.6,1.3-7.4c0.3-0.7,0.8-1,1.6-1c0.1,0,0.2,0,0.3,0c1,0.1,1.5,0.5,1.8,1.5C179.5,558.1,179.7,560.3,179.3,565.4
	 M184.2,553.4c-1.4-1.8-3.5-2.8-6.4-3.1c-3.3-0.3-5.7,0.6-7.4,2.6c-1.5,1.9-2.5,5.1-3,9.7c-0.5,5.2-0.2,8.9,1,11.2
	c1.3,2.5,3.8,4,7.4,4.3c0.4,0,0.9,0.1,1.3,0.1c2.8,0,5-0.9,6.4-2.7c1.6-2,2.4-5.2,2.7-9.9c0.2-3.2,0.1-5.7-0.2-7.4
	C185.7,556.1,185.1,554.6,184.2,553.4"/>
<path class="st2" d="M219.7,573.7c-0.2-0.2-0.5-0.3-0.9-0.3c-2,0.1-4.1,0.2-6.1,0.3l-0.2-6.1c1.7-0.1,3.5-0.1,5.2-0.2
	c0.6,0,1.1-0.6,1.1-1.2l-0.1-2.8c0-0.3-0.2-0.6-0.4-0.8s-0.5-0.3-0.9-0.3c-1.7,0.1-3.4,0.2-5.1,0.2l-0.1-5.5
	c1.9-0.1,3.9-0.2,5.8-0.3c0.6,0,1.1-0.6,1.1-1.2l-0.1-2.8c0-0.3-0.2-0.6-0.4-0.8s-0.6-0.3-0.9-0.3c-3.6,0.2-7.3,0.3-10.9,0.4
	c-0.7,0-1.2,0.5-1.2,1.2l0.3,24.8c0,0.3,0.1,0.6,0.4,0.8c0.2,0.2,0.5,0.3,0.8,0.3l0,0c3.9-0.1,7.9-0.2,11.9-0.4
	c0.6,0,1.1-0.6,1.1-1.2l-0.1-2.8C220.1,574.2,219.9,573.9,219.7,573.7"/>
<path class="st2" d="M237.7,549.9c-0.2-0.2-0.6-0.3-0.9-0.2c-4.4,0.6-8.9,1-13.3,1.3c-0.6,0-1.1,0.6-1.1,1.2l0.2,2.9
	c0,0.3,0.2,0.6,0.4,0.8s0.5,0.3,0.9,0.3c1.2-0.1,2.4-0.2,3.6-0.3l1.6,20.6c0,0.3,0.2,0.6,0.4,0.8s0.5,0.3,0.8,0.3h0.1
	c1.5-0.1,2.9-0.3,4.4-0.4c0.6-0.1,1.1-0.6,1-1.3l-1.9-20.7c1.2-0.1,2.3-0.3,3.5-0.4c0.6-0.1,1.1-0.7,1-1.3l-0.3-2.9
	C238.1,550.4,237.9,550.1,237.7,549.9"/>
<path class="st2" d="M263.8,562.6c0-0.6,0.1-1.2,0.1-1.7c0.1-1,0.1-1.9,0.1-2.9c0.3,0.6,0.5,1.2,0.8,1.8c0.4,0.8,0.7,1.6,1.1,2.3
	C265.2,562.3,264.5,562.5,263.8,562.6 M264.7,545.6c-0.2-0.5-0.8-0.8-1.3-0.6c-1,0.2-2.1,0.5-3.1,0.7c-0.5,0.1-0.9,0.5-0.9,1.1
	c-0.7,8.6-1.6,17.2-2.7,25.8c0,0.4,0.1,0.7,0.4,1c0.2,0.2,0.5,0.3,0.8,0.3c0.1,0,0.1,0,0.2,0c1.4-0.3,2.8-0.5,4.2-0.8
	c0.5-0.1,0.9-0.5,0.9-1.1c0.1-1.4,0.2-2.8,0.3-4.1c1.5-0.3,3-0.7,4.6-1c0.6,1.2,1.1,2.4,1.7,3.6c0.2,0.5,0.8,0.8,1.3,0.6
	c1.4-0.3,2.9-0.7,4.3-1.1c0.4-0.1,0.6-0.3,0.8-0.7c0.1-0.3,0.1-0.7,0-1C272.2,560.8,268.4,553.2,264.7,545.6"/>
<path class="st2" d="M291.6,538.2c-0.1-0.3-0.3-0.6-0.6-0.7c-0.3-0.1-0.6-0.2-0.9-0.1c-1.3,0.4-2.6,0.9-3.9,1.3
	c-0.6,0.2-0.9,0.8-0.8,1.4l2.4,8.9c0,0.1,0.1,0.2,0.1,0.3l0,0c-2.2-2.7-4.3-5.5-6.4-8.3c-0.3-0.4-0.8-0.6-1.3-0.4
	c-1.2,0.4-2.5,0.7-3.7,1.1c-0.6,0.2-1,0.8-0.8,1.4l5.6,24.1c0.1,0.3,0.3,0.6,0.5,0.7c0.2,0.1,0.4,0.2,0.6,0.2c0.1,0,0.2,0,0.3,0
	c1.4-0.4,2.9-0.8,4.3-1.2c0.6-0.2,1-0.8,0.8-1.4l-2.6-9.8c2.3,3,4.7,5.9,7.2,8.8c0.3,0.4,0.8,0.5,1.3,0.4c1.3-0.4,2.7-0.9,4-1.3
	c0.6-0.2,0.9-0.8,0.8-1.4L291.6,538.2z"/>
<path class="st2" d="M304.1,533.6c-0.1-0.3-0.3-0.6-0.6-0.7c-0.3-0.1-0.6-0.1-0.9,0c-1.3,0.5-2.6,1-3.9,1.5
	c-0.6,0.2-0.9,0.9-0.7,1.5l7.3,23.5c0.1,0.3,0.3,0.6,0.6,0.7c0.2,0.1,0.3,0.1,0.5,0.1c0.1,0,0.3,0,0.4-0.1c1.4-0.5,2.8-1.1,4.2-1.6
	c0.6-0.2,0.9-0.9,0.7-1.5L304.1,533.6z"/>
<path class="st2" d="M328.3,522.4c-0.3-0.5-1-0.8-1.6-0.5c-1.1,0.6-2.2,1.1-3.3,1.6c-0.5,0.2-0.7,0.7-0.6,1.2
	c0.5,3.4,1,6.8,1.4,10.2l0.2,1.9c0,0.2,0.1,0.5,0.1,0.7c-0.4-0.6-0.9-1.2-1.3-1.8c-2-2.7-4.1-5.4-6.1-8.2c-0.3-0.5-0.9-0.6-1.4-0.4
	c-1.1,0.5-2.2,1-3.3,1.5c-0.5,0.2-0.8,0.8-0.7,1.4c2,8,3.9,16.1,5.8,24.2c0.1,0.3,0.3,0.6,0.6,0.8c0.2,0.1,0.3,0.1,0.5,0.1
	s0.3,0,0.5-0.1c1.3-0.6,2.6-1.1,3.9-1.7c0.5-0.2,0.8-0.8,0.7-1.4c-0.8-2.9-1.7-5.9-2.5-8.8c1.9,2.5,3.7,5,5.6,7.5
	c0.3,0.4,0.9,0.6,1.4,0.4c0.9-0.4,1.9-0.9,2.8-1.3c0.5-0.2,0.7-0.7,0.7-1.2c-0.4-3.1-0.8-6.2-1.2-9.3l0.1,0.2
	c1.3,2.4,2.6,4.9,3.8,7.3c0.3,0.6,1,0.8,1.6,0.5c1.3-0.7,2.6-1.3,3.9-2c0.3-0.1,0.5-0.4,0.6-0.7s0-0.6-0.1-0.9
	C336.3,536.6,332.2,529.5,328.3,522.4"/>
<path class="st2" d="M341.6,515.2c-0.1-0.3-0.4-0.5-0.7-0.6c-0.3-0.1-0.7-0.1-0.9,0.1c-1.2,0.7-2.5,1.4-3.7,2.1
	c-0.5,0.3-0.7,1-0.5,1.5l10.2,22.2c0.1,0.3,0.4,0.5,0.7,0.6c0.1,0,0.2,0.1,0.4,0.1c0.2,0,0.4-0.1,0.6-0.2c1.3-0.8,2.7-1.5,4-2.3
	c0.5-0.3,0.7-1,0.5-1.5L341.6,515.2z"/>
<path class="st2" d="M365.6,516.3c-1.1-0.5-2.8-0.9-5.2-1.1c-1.1-0.1-2-0.2-2.8-0.3s-1.2-0.2-1.5-0.3c-0.4-0.2-0.8-0.5-1-0.9
	c-0.3-0.6-0.3-1.1-0.1-1.7c0.2-0.7,0.7-1.3,1.4-1.8c0.7-0.5,1.7-0.8,2.9-0.9c0.4,0,0.7-0.3,0.9-0.6c0.2-0.4,0.2-0.8,0-1.1l-1.5-2.8
	c-0.3-0.5-0.8-0.7-1.3-0.6c-1.6,0.3-3.1,1-4.4,1.9c-2,1.4-3.4,3-4.1,5c-0.7,2-0.5,4,0.5,6c0.8,1.5,1.8,2.5,3,3.1
	c0.6,0.3,1.4,0.5,2.4,0.7s2.2,0.3,3.5,0.4c0.9,0.1,1.5,0.2,2.1,0.3s1,0.2,1.3,0.3c0.5,0.2,0.9,0.6,1.2,1.1c0.3,0.6,0.4,1.2,0.2,1.8
	c-0.2,0.7-0.7,1.3-1.6,1.8c-0.9,0.6-2.2,1-3.8,1.1c-0.4,0-0.8,0.2-1,0.6c-0.2,0.3-0.2,0.8,0,1.1l1.5,2.9c0.2,0.4,0.6,0.6,1.1,0.6
	l0,0c1.7-0.1,3.5-0.7,5.4-1.9c2.2-1.4,3.7-3.2,4.4-5.4c0.8-2.2,0.6-4.3-0.5-6.3C367.8,517.9,366.8,516.9,365.6,516.3"/>
<path class="st2" d="M373.2,327c-12.7,36.5-31.1,69-54.9,96.6c-29.7,34.5-67.9,61.5-113.7,80.4l-0.3,0.1c-0.2,0.1-0.5,0.1-0.6,0.1
	s-0.3,0-0.4-0.1l-0.2-0.1c-0.2-0.1-0.4-0.2-0.5-0.2c-45.7-18.9-84-46.1-113.6-80.7c-23.8-27.7-42.3-60.4-54.9-97
	C12.6,263.5,15.7,211,15.7,210.4v-0.5V15.5h376.1v194.7v0.4C391.9,211.1,394.9,264.5,373.2,327 M395.8,210V11.4H11.7v198.5v0.4
	c0,0.5-3.3,53.7,18.6,117.2c12.8,37.1,31.5,70.2,55.6,98.3c30.2,35.2,69,62.7,115.5,81.9c0.1,0,0.1,0,0.2,0.1l0,0
	c0.1,0,0.2,0.1,0.3,0.1c0.2,0.1,1.1,0.4,1.9,0.4s1.6-0.3,2-0.4l0.4-0.2c46.3-19.1,85.1-46.5,115.2-81.5c24.1-28,42.9-61,55.7-97.9
	c22-63.4,18.9-117.5,18.9-118L395.8,210z"/>
<path class="st3" d="M196.5,325.4c0.2,0.2,0.5,0.5,0.7,0.7C197,325.9,196.8,325.6,196.5,325.4"/>
<path class="st3" d="M196.5,325.4c-0.2-0.2-0.4-0.4-0.5-0.4c-0.1,0.1-0.2,0.2-0.3,0.3c0.1-0.1,0.2-0.2,0.3-0.3
	C196.1,324.9,196.3,325.1,196.5,325.4"/>
<path class="st2" d="M88.7,234.1l-0.2,0.2l0,0C88.6,234.3,88.7,234.2,88.7,234.1"/>
<path class="st4" d="M171.2,447.6c0,0-0.3,3.9-3.5,7c0,0,6,0.5,8.2,2.8c0,0,0.1-5,2.5-6.2C178.4,451.2,172.1,450.5,171.2,447.6"/>
<path class="st4" d="M179.3,422.6c0,0,4.1-1,8,2.2h0.1c-0.2-0.9-1.4-7.4,0-8.8c0,0-7.9-1.1-8.2-1.7
	C179.4,414.7,180.4,418.5,179.3,422.6"/>
<path class="st5" d="M179.3,414.2C179.3,414.1,179.3,414.1,179.3,414.2L179.3,414.2"/>
<path class="st4" d="M201.9,467.8c0,0-1.7,5.3-4.4,6.1c0,0,4.3,2.4,4.5,4.7c0,0,2-4.9,4.6-5C206.6,473.7,202.3,472.7,201.9,467.8"/>
<path class="st4" d="M218.4,423.7c2.2-1.6,6.5,0,6.5,0c-1.2-2.9,0.5-7.3,0.5-7.3c-2.7,1.3-7.3,0.4-7.3,0.4
	C220.3,418.9,218.4,423.7,218.4,423.7"/>
<path class="st6" d="M203.3,439.9c-0.3-0.1-0.6-0.1-0.9-0.1c-2.7-0.2-4.7,1.1-4.8,3.9c-0.1,2.7,1.8,4.4,4.4,4.4c0.4,0,0.7,0,1.1-0.1
	s0.7-0.2,1-0.4c1.1-0.7,1.7-1.9,1.8-3.5C205.9,441.9,205.2,440.4,203.3,439.9"/>
<path class="st4" d="M231,449c-0.8,2.4-6,2.3-6,2.3c3.9,1.5,3.5,5.6,3.5,5.6c2.1-1.9,4.9-1.9,4.9-1.9C230.7,452.8,231,449,231,449"
	/>
<path class="st3" d="M220.1,461.8c-1.3,1.9-3.7,5.5-8.7,5.4c-3.4-0.1-2.1-1.9,0.6-2.2s6.4-3.9,7.2-4.7
	C220.9,458.2,220.9,460.5,220.1,461.8 M201.4,451.2c-4.3-0.3-7-3.2-7-7.5c0.1-4.8,3.2-7.3,7.9-7.2c4.4,0.1,6.5,3.2,7.1,7.3
	C208.4,448.3,206.3,451.6,201.4,451.2 M197.6,418.1c2-1.1,5.9-3,10.3-0.5c2.9,1.7,0.9,2.7-1.6,1.7s-7.5,0.3-8.6,0.7
	C195.2,420.8,196.3,418.8,197.6,418.1 M191.3,468.2c-2.3-0.4-6.5-1.1-8.5-5.7c-1.3-3.1,0.9-2.7,2.2-0.4c1.4,2.3,6.2,4.2,7.3,4.6
	C194.8,467.4,192.7,468.4,191.3,468.2 M180,432.9c-1.8,1.9-2.4,7.1-2.4,8.3c-0.1,2.7-1.6,0.9-1.8-0.5c-0.3-2.3-0.7-6.6,3.2-9.8
	C181.6,428.7,181.8,431,180,432.9 M226.8,432.1c1.3,1.9,3.5,5.6,1.5,10.2c-1.4,3.1-2.6,1.2-1.8-1.4s-1-7.4-1.5-8.5
	C223.9,430,226,430.9,226.8,432.1 M217.4,449.8l-5.7-1.7c-0.6-0.2-0.9-0.8-0.7-1.3c0.2-0.6,0.8-0.9,1.3-0.7l7.2,2.1
	c0.1,0,0.1,0.1,0.2,0.1c4.5,1,8.2,0.9,10.9-3.5c3-5,1.9-10.2-2.4-14.5l0.1,0.1c-2.1-5.9-7-4-11.5-4.4c0,0.1-0.1,0.3-0.2,0.4l-4.5,6
	c-0.2,0.3-0.5,0.4-0.9,0.4c-0.2,0-0.5-0.1-0.6-0.2c-0.5-0.4-0.6-1-0.2-1.5l4.5-6l0.1-0.1c2.1-2.8,2.2-5.5-0.7-8.1
	c-4.1-3.8-14.7-4.5-20.9-1.7c-5.8,2.6-4.1,7.2-3.5,11.7l3.5,3.9c0.4,0.4,0.4,1.1-0.1,1.5c-0.2,0.2-0.5,0.3-0.7,0.3
	c-0.3,0-0.6-0.1-0.8-0.4l-4.7-5.3c-4.4-1.8-8.5-2.6-11.6,3c-0.6,1.3-1.2,2.6-1.8,4c-3.4,11.7-2.2,13.9,10,15.3l5.9-1.3
	c0.6-0.1,1.2,0.2,1.3,0.8c0.1,0.6-0.2,1.2-0.8,1.3l-7.3,1.6c-0.1,0-0.1,0-0.2,0c-6,6.1-5.7,8.9-0.1,14.4l3.2,2.5
	c8.8,5.6,11.9,4.7,15.2-6.4l0.5-6.4c0-0.6,0.6-1.1,1.2-1c0.6,0,1,0.6,1,1.2l-0.5,6.3c2.9,10.7,6.6,12,15.4,6.5
	c0.4-0.5,0.8-1.1,1.2-1.6c0.6-0.3,1.2-0.7,1.9-1c2.8-1.4,4-3.9,3.9-6.9C225,454.3,221.4,452.3,217.4,449.8"/>
<path class="st2" d="M228.5,456.8c0,0,0.4-4.1-3.5-5.6c0,0,5.2,0.1,6-2.3c0,0-0.3,3.8,2.4,6C233.4,454.9,230.6,454.9,228.5,456.8
	 M221.4,466c-0.6,0.3-1.3,0.7-1.9,1c-0.4,0.5-0.8,1.1-1.2,1.6c-8.7,5.5-12.5,4.3-15.4-6.5l0.5-6.3c0-0.6-0.4-1.1-1-1.2
	c-0.6,0-1.1,0.4-1.2,1l-0.5,6.4c-3.3,11.1-6.4,12-15.2,6.4l-3.2-2.5c-5.6-5.6-5.9-8.3,0.1-14.4c0.1,0,0.1,0,0.2,0l7.3-1.6
	c0.6-0.1,1-0.7,0.8-1.3c-0.1-0.6-0.7-1-1.3-0.8l-5.9,1.3c-12.2-1.4-13.4-3.6-10-15.3c0.6-1.3,1.2-2.6,1.8-4c3.1-5.7,7.2-4.8,11.6-3
	l4.7,5.3c0.2,0.2,0.5,0.4,0.8,0.4s0.5-0.1,0.7-0.3c0.4-0.4,0.5-1.1,0.1-1.5l-3.5-3.9c-0.7-4.5-2.3-9,3.5-11.7
	c6.2-2.8,16.7-2.1,20.9,1.7c2.9,2.6,2.7,5.3,0.7,8.1l-0.1,0.1l-4.5,6c-0.4,0.5-0.3,1.2,0.2,1.5c0.2,0.1,0.4,0.2,0.6,0.2
	c0.3,0,0.7-0.2,0.9-0.4l4.5-6c0.1-0.1,0.1-0.2,0.2-0.4c4.5,0.3,9.4-1.5,11.5,4.4l-0.1-0.1c4.3,4.2,5.4,9.4,2.4,14.5
	c-2.6,4.4-6.4,4.5-10.9,3.5c-0.1,0-0.1-0.1-0.2-0.1l-7.2-2.1c-0.6-0.2-1.2,0.2-1.3,0.7c-0.2,0.6,0.2,1.2,0.7,1.3l5.7,1.7
	c4,2.6,7.6,4.5,7.9,9.4C225.4,462.1,224.3,464.6,221.4,466 M202,478.7c-0.1-2.3-4.5-4.7-4.5-4.7c2.7-0.8,4.4-6.1,4.4-6.1
	c0.4,4.9,4.7,5.9,4.7,5.9C204,473.8,202,478.7,202,478.7 M175.9,457.4c-2.3-2.4-8.2-2.8-8.2-2.8c3.3-3.1,3.5-7,3.5-7
	c0.9,2.9,7.2,3.6,7.2,3.6C176,452.4,175.9,457.4,175.9,457.4 M179.3,414.2c0.2,0.6,8.2,1.7,8.2,1.7c-1.4,1.4-0.2,7.9,0,8.8h-0.1
	c-3.9-3.1-8-2.2-8-2.2C180.4,418.5,179.4,414.7,179.3,414.2L179.3,414.2C179.3,414.1,179.3,414.1,179.3,414.2 M225.4,416.4
	c0,0-1.6,4.4-0.5,7.3c0,0-4.3-1.6-6.5,0c0,0,1.9-4.8-0.4-7C218.1,416.7,222.7,417.7,225.4,416.4 M234.7,440.7c1.4-2.9,0-6.8-2-9.4
	c-4.1-5.3-7-10.6-4-18.4c-7,2.4-12,2.5-17.7-0.9c-5.2-3.1-11.6-2.8-17.3-0.3c-0.5,0.2-1.1,0.4-1.7,0.8c-0.2,0.1-0.3,0.1-0.4,0.2
	c-4.7,2.1-15.8-2.4-15.8-2.4c3.8,7.7-2.7,17.1-2.7,17.1c-3.3,4-4.7,9.1-4,14.3c0.2,1.7,0.5,8.5-6.4,14.5c0,0,11,1.1,13.1,5.7
	c0,0.1,0.1,0.2,0.1,0.3c1.7,6.2,7.2,10.3,12.6,11.2c6.8,1.1,10.3,4.7,13.7,10.6c3.4-6.1,7.1-9.9,14.1-10.6c4.1-0.4,8.9-3.9,10.1-8.1
	c1.8-6.1,5.9-7.7,12.4-8.9C234.1,451.3,231.8,446.7,234.7,440.7"/>
<path class="st2" d="M204.1,447.6c-0.3,0.2-0.6,0.3-1,0.4c-0.3,0.1-0.7,0.1-1.1,0.1c-2.7-0.1-4.5-1.8-4.4-4.4
	c0.1-2.8,2.1-4.1,4.8-3.9c0.3,0,0.6,0.1,0.9,0.1c1.9,0.5,2.7,2,2.6,4.1C205.7,445.7,205.2,447,204.1,447.6 M202.3,436.5
	c-4.6-0.1-7.8,2.4-7.9,7.2c-0.1,4.3,2.6,7.2,7,7.5c4.9,0.4,7.1-2.9,8.1-7.4C208.8,439.7,206.7,436.7,202.3,436.5"/>
<path class="st2" d="M197.7,420c1.1-0.4,6.1-1.7,8.6-0.7s4.5,0,1.6-1.7c-4.3-2.5-8.2-0.6-10.3,0.5
	C196.3,418.8,195.2,420.8,197.7,420"/>
<path class="st2" d="M226.5,440.9c-0.8,2.6,0.4,4.5,1.8,1.4c2.1-4.5-0.2-8.2-1.5-10.2c-0.8-1.2-3-2.1-1.8,0.3
	C225.5,433.5,227.3,438.3,226.5,440.9"/>
<path class="st2" d="M219.1,460.2c-0.8,0.9-4.5,4.5-7.2,4.7c-2.7,0.3-3.9,2.1-0.6,2.2c5,0.1,7.5-3.5,8.7-5.4
	C220.9,460.5,220.9,458.2,219.1,460.2"/>
<path class="st2" d="M192.3,466.6c-1.1-0.3-5.9-2.3-7.3-4.6s-3.6-2.7-2.2,0.4c2,4.6,6.2,5.4,8.5,5.7
	C192.7,468.4,194.8,467.4,192.3,466.6"/>
<path class="st2" d="M179,430.9c-3.9,3.2-3.4,7.5-3.2,9.8c0.2,1.5,1.7,3.2,1.8,0.5c0-1.1,0.5-6.3,2.4-8.3
	C181.8,431,181.6,428.7,179,430.9"/>
<path class="st3" d="M226.3,465.4c-1.2,4.2-6,7.7-10.1,8.1c-7,0.7-10.7,4.6-14.1,10.6c-3.4-6-6.9-9.6-13.7-10.6
	c-5.4-0.9-10.9-4.9-12.6-11.2c0-0.1-0.1-0.2-0.1-0.3c-2.1-4.6-13.1-5.7-13.1-5.7c7-6,6.6-12.8,6.4-14.5c-0.7-5.2,0.7-10.3,4-14.3
	c0,0,6.5-9.4,2.7-17.2c0,0,11.2,4.5,15.8,2.4c0.1-0.1,0.3-0.1,0.4-0.2c0.7-0.4,1.2-0.7,1.7-0.8c5.6-2.5,12-2.7,17.3,0.3
	c5.7,3.3,10.8,3.3,17.7,0.9c-3.1,7.7-0.1,13.1,4,18.4c2,2.5,3.3,6.5,2,9.4c-2.9,6.1-0.6,10.6,3.9,15.8
	C232.2,457.7,228,459.3,226.3,465.4 M240.7,440.1c1.1-4.4-0.4-9.3-3.1-12.7c-4.1-5-4.2-10-2.8-15.7c1.3-5.1-0.8-6.4-5.5-4.7
	c-5.7,2-11,2.2-16.8-0.8c-5.5-2.9-12.4-2.9-17.9-0.7c-6.7,2.6-12.5,2.7-18.8-0.1c-2.2-1-4.6-0.8-4.1,2.5c1.1,7.8-1.2,14.5-5.8,20.8
	c-1.7,2.3-2.7,5.8-2.5,8.7c0.6,7.3-1.4,13.3-6.5,18.4c-1.4,1.5-2.5,3.5,0.6,4.1c7.9,1.7,13.9,5.8,18.4,12.6c1.6,2.4,4.6,4.6,7.3,5.3
	c9,2.2,14.3,8.2,19.2,17.8c4.2-10,10-15.5,18.8-17.9c3.9-1.1,7.6-4.3,9.5-8.1c2.6-5.3,6.9-7.3,12.1-8.3c4.2-0.8,5-2.9,2.1-6
	C241,450.9,239.2,446.2,240.7,440.1"/>
<path class="st3" d="M367,74.3c-1.5,9.3-9.5,15-18,14c-9.6-1.1-15.4-7.7-15.5-17.5c0-1.8,0-3.6,0-4.5c0.6-7.5,1-14.1,1.5-20.7
	c0.4-5.3,3.1-9.3,8.1-11c4.6-1.6,9.2-0.7,12.6,3.1C365,48.1,369.2,60.4,367,74.3 M327.1,69c-1.1,11.4-8.9,18.7-18,17.4
	c-8.7-1.3-15.1-11.5-13.4-21.8c1.7-10.7,6.6-19.8,14.9-26.7c3.8-3.2,8.5-5.6,13.4-3.1c4.7,2.4,4.3,7.6,4.4,12.1
	C328,54.2,327.8,61.6,327.1,69 M377.6,33.9c1.7-0.7,3.9-1,3.1-3.3c-0.7-2.2-3-1.3-4.6-1.3c-28.9-0.1-57.7-0.1-86.6,0
	c-1.6,0-4-0.9-4.6,1.3c-0.6,2.6,2.2,2.3,3.6,2.8c9.6,3.6,10.6,6.3,5.4,15.2c-3.6,6.1-7.8,11.9-10.1,18.8c-4.5,13.8,1.1,26.3,14.3,31
	c9.8,3.5,18.8,1.1,26.6-4.9c4.7-3.6,8-4.7,12.8,0.1c4.5,4.5,10.6,7.1,16.3,6.7c19.1-0.2,29.7-13.3,26.1-31c-1.5-7.4-6-13.5-8.5-20.4
	C368.5,40.5,369.7,37.3,377.6,33.9"/>
<path class="st2" d="M371.5,48.8c2.5,6.9,7,12.9,8.5,20.4c3.5,17.7-7,30.9-26.1,31c-5.8,0.4-11.8-2.2-16.4-6.7
	c-4.8-4.8-8-3.7-12.8-0.1c-7.9,6-16.9,8.4-26.6,4.9c-13.1-4.7-18.8-17.2-14.3-31c2.2-6.9,6.5-12.7,10.1-18.8
	c5.2-8.9,4.2-11.6-5.4-15.2c-1.5-0.5-4.2-0.3-3.6-2.8c0.5-2.2,3-1.3,4.6-1.3c28.9-0.1,57.7-0.1,86.6,0c1.6,0,3.9-0.9,4.6,1.3
	c0.8,2.4-1.4,2.6-3.1,3.3C369.7,37.3,368.5,40.5,371.5,48.8 M378,37.2c3.7-1.1,7.1-2.7,6.1-7.3c-1-5-5.3-4.8-9.2-4.8
	c-6.9,0-13.8,0-20.7,0c-6.9,0-13.8,0-20.7,0c-14.3,0-28.6,0-42.9,0c-3.9,0-8.3-0.3-9.1,4.8c-0.8,5.2,3.4,6.2,7.3,7
	c5.6,1.2,5.5,4.3,3.2,8.4c-2.7,4.6-5.8,9.1-8.2,13.8c-5,9.9-7.7,20.1-1.2,30.5c9.1,14.7,26.9,17.8,42.8,7.4
	c3.7-2.4,6.1-3.8,10.5-0.4c12.3,9.3,28.1,9,38.9,0.2c9.5-7.8,11.8-21.5,5.8-35.9c-2-4.9-4.7-9.6-6.7-14.6
	C372.5,42.3,373.3,38.7,378,37.2"/>
<path class="st2" d="M351.3,85c-3.6,0.1-6.6-0.8-8.9-2.6c-0.8-0.6-1.5-1.3-2.1-2c-0.6-0.8-1.2-1.6-1.6-2.6c-1.4-2.9-2.1-6.5-2-10.9
	c0.2-3.4,0.5-6.9,0.7-10.3s0.5-6.9,0.8-10.3c0.4-4.1,2.1-7.6,6.3-8.8c4.4-1.2,8,0.6,10.6,4.3c5.4,7.4,8.8,15.6,9.1,24.8
	C364.7,77.5,359.4,84.8,351.3,85 M343,34.5c-5,1.7-7.7,5.7-8.1,11c-0.5,6.6-1,13.2-1.5,20.7c0,0.9,0,2.7,0,4.5
	c0.1,9.8,5.9,16.4,15.5,17.5c8.5,1,16.5-4.7,18-14c2.3-13.9-2-26.2-11.3-36.6C352.3,33.8,347.7,32.9,343,34.5"/>
<path class="st2" d="M324,67.5c-0.3,5.8-2.1,11.1-7.5,14.2c-3.7,2.1-7.3,1.9-10.9-0.3c-5.4-3.4-7.1-9-6.7-14.6
	c0.8-10.6,5.5-19.6,13.7-26.4c2.8-2.3,6.1-4.5,9.7-2.5c3.3,1.9,2.2,5.9,1.7,9C324.1,53.8,324.3,60.7,324,67.5 M324,34.7
	c-4.9-2.5-9.5-0.1-13.3,3.1c-8.3,7-13.2,16-14.9,26.7c-1.7,10.3,4.7,20.4,13.4,21.8c9.1,1.4,17-6,18-17.4c0.7-7.3,0.9-14.7,1.2-22.1
	C328.3,42.3,328.7,37.1,324,34.7"/>
<path class="st3" d="M53.7,80.1c4.6-3.1,8.9-6.8,13.3-10.2c6.2-4.8,12.3-3.2,18,4.6c4.1,5.6,2.7,10.9-3.9,15.3c-3,2-6.4,3-9.9,3.5
	c-6.1-1-12.2-1.5-17.4-5.4C50.4,85.3,49.2,83.1,53.7,80.1 M56.1,45c-0.1-0.8-0.1-1.6,0-2.3c0-0.3,0.1-0.7,0.2-1
	c1.2-4.9,6.5-8.7,12.6-8.4c1.8,0.3,3.5,0.3,5.3,0.8c6.3,1.6,14.1,8.7,13.3,12c-0.4,1.6-13.9,11.2-15.8,11.2
	C65.4,57.3,56.8,50.6,56.1,45 M57.4,97c9.2,3.1,18.5,5.8,28.4,2.8c7.4-2.3,12.7-6.6,14.1-14.5c1.5-8.3-2.1-15.6-9.7-20
	c-3-1.8-6.3-3.2-10.5-5.2c10.2-7.7,19.5-14.8,28.8-21.9c2.1-1.6,5.6-3.2,3-6.6c-2.2-2.8-4.5-0.5-6.5,1.1c-5.3,4-10.9,3.7-16.5,0.7
	c-3.8-2-7.5-4.4-11.4-6.2c-10.2-4.6-20.1-3.1-28.8,3.5c-11.3,8.5-9.8,23.1,2.9,29c3.8,1.8,7.8,2.9,12.4,4.6c-1.8,1.5-3,2.7-4.4,3.8
	c-10.5,8.1-21,16.2-31.5,24.3c-1.6,1.3-3.5,2.8-2,5c1.1,1.6,3.3,1.7,4.9,0.5C39.4,90.9,48.3,93.9,57.4,97"/>
<path class="st2" d="M25.7,97.4c-1.6-2.2,0.4-3.8,2-5c10.5-8.1,21-16.2,31.5-24.3c1.4-1,2.6-2.2,4.4-3.8c-4.6-1.7-8.6-2.8-12.4-4.6
	c-12.7-6-14.3-20.5-2.9-29c8.8-6.6,18.6-8.1,28.8-3.5c3.9,1.8,7.6,4.1,11.4,6.2c5.6,3,11.2,3.3,16.5-0.7c2.1-1.5,4.4-3.9,6.5-1.1
	c2.6,3.3-1,5-3,6.6c-9.3,7.2-18.6,14.2-28.8,21.9c4.2,2.1,7.5,3.5,10.5,5.2c7.6,4.4,11.1,11.7,9.7,20c-1.4,7.9-6.7,12.2-14.1,14.5
	c-9.9,3-19.2,0.4-28.4-2.8c-9.1-3.1-18-6.1-26.8,0.9C29.1,99.1,26.8,99,25.7,97.4 M53,99c8.6,3.3,17.5,6.1,26.9,5.2
	c9.5-0.9,18.1-4.2,21.9-14.1c3.3-8.4,1.6-16-4.1-22.9c-2.8-3.4-6.8-5.3-11.2-8.1c8.9-6.8,17.3-13.1,25.5-19.6
	c3.3-2.6,5.3-5.9,2.3-9.9c-3-3.8-6.7-3.4-10-0.4c-5.1,4.5-10.2,3.6-15.5,0.5c-3.3-1.9-6.6-3.9-10.1-5.4c-11.2-4.8-22-3.7-31.9,3.5
	c-13.6,9.9-12.1,27.5,2.8,34.9c2,1,4.4,1.1,6.3,3.9c-10,7.8-20.1,15.5-30.1,23.3c-3.4,2.6-5.4,5.9-2.5,9.8c2.6,3.6,6.3,3.1,9.5,0.8
	C39.2,95.7,45.9,96.3,53,99"/>
<path class="st2" d="M61.8,78.1c1.4-1.4,3.2-2.5,4.8-3.7c3.4-2.7,6.7-5.9,11.3-2.3c3.3,2.5,6.8,5.3,5.5,10
	c-1.6,5.3-6.3,6.9-11.3,7.3c-0.8,0.1-1.5,0-3.5,0c-0.6,0-2.4,0-4.1-0.4c-3.2-0.8-7.4-1.1-8.3-4.4C55.4,81.3,59.8,80.2,61.8,78.1
	 M53.9,88c5.1,3.9,11.3,4.3,17.4,5.4c3.5-0.5,6.8-1.5,9.9-3.5c6.7-4.4,8-9.7,3.9-15.3c-5.7-7.8-11.9-9.4-18-4.6
	c-4.4,3.4-8.7,7.1-13.3,10.2C49.2,83.1,50.4,85.3,53.9,88"/>
<path class="st2" d="M70.5,53.5c-5-1.5-10.9-2.7-10.6-9.8c0.3-6,4.6-7.2,10.4-6.9C75,38,80.9,38.7,82.9,45
	C83.6,46.9,73,54.2,70.5,53.5 M87.5,46c0.8-3.4-7-10.5-13.3-12c-1.7-0.4-3.5-0.5-5.3-0.8c-6.1-0.3-11.4,3.5-12.6,8.4
	c-0.1,0.3-0.1,0.7-0.2,1c-0.1,0.8-0.1,1.5,0,2.3c0.7,5.7,9.2,12.4,15.6,12.3C73.6,57.2,87.2,47.6,87.5,46"/>
<path class="st2" d="M403.2,209.8c0,0.5,3.3,55.4-19,120.1c-13.1,38-32.2,71.9-57,100.7c-30.9,36.1-70.7,64.3-118.4,84
	c0,0-2.4,1.1-5.1,1.1s-5.1-1.1-5.2-1.1C151,495,111.2,466.8,80.3,430.8c-24.8-28.8-43.9-62.7-57-100.7C1,265.4,4.3,210.4,4.3,209.7
	V4.1h398.9L403.2,209.8z M407.2,0H0.2v209.5c0,0.6-3.3,56.2,19.2,121.7c13.2,38.5,32.7,72.8,57.7,102c31.4,36.5,71.7,65.1,119.7,85
	c0.1,0.1,3.2,1.5,6.8,1.5c3.7,0,6.7-1.4,6.7-1.4c48.2-19.9,88.5-48.5,119.8-85c25.1-29.2,44.5-63.6,57.7-102
	c22.5-65.5,19.2-121.1,19.2-121.5V0H407.2z"/>
<path class="st3" d="M147.8,382.6L147.8,382.6c-0.8,0-4.8,0.1-9,2.7c-5.1,3.1-11.2,3.6-16.6,3.6c-1.7,0-3.4-0.3-5.3-0.6l-1.7-0.3
	l0.2,1c0.4,2.4,1.3,6,3.1,8.8c2.3,3.7,4.9,6,7.3,8.1c0.8,0.7,1.7,1.5,2.5,2.2c0.6,0.6,0.6,1.5,0.1,2.1s-1.5,0.6-2.1,0.1
	c-0.8-0.7-1.6-1.4-2.4-2.1c-2.5-2.2-5.4-4.7-7.9-8.8c-2.4-3.9-3.3-8.7-3.7-11.2l-0.1-0.6h-0.6c-0.2,0-0.4,0-0.6,0
	c-0.9,0-1.6,0-2.4,0.1c-5.4,0.7-12,8.9-12.1,9c-0.5,0.6-1.5,0.7-2.1,0.2s-0.7-1.5-0.2-2.1c0.7-0.9,7.5-9.3,14-10.1
	c3.9-0.5,6.7,0.1,9.3,0.6c1.6,0.3,3,0.6,4.6,0.6c5-0.1,10.7-0.5,15.2-3.2c5.5-3.3,10.6-3.1,10.6-3.1l0,0c0.8,0,1.4,0.7,1.4,1.6
	C149.3,382,148.6,382.6,147.8,382.6 M86.6,270.1c-9.1-4.8-11-11.7-11-13.9c0-0.8,0.7-1.5,1.5-1.5s1.5,0.7,1.5,1.6
	c0,0.1,0.6,6.5,9.5,11.2c4.8,2.6,8,3.9,10.9,4.6l0.3,0.1l0.3-0.2c1.4-1.1,2.1-2.9,3.3-6.1c0.9-2.4,2-5.4,3.9-8.8
	c3-5.4,12.4-11.8,12.8-12c0.3-0.2,0.7-0.3,1.1-0.2s0.7,0.3,0.9,0.6c0.5,0.7,0.3,1.6-0.4,2.1c-2.5,1.7-9.6,7-11.8,11
	c-1.8,3.2-2.8,6-3.7,8.4c-0.7,1.9-1.3,3.4-2,4.7l-0.6,1h1.2c1,0,2,0,3.2-0.1c5.2-0.3,10.5,0.1,10.6,0.1c0.8,0.1,1.4,0.8,1.3,1.6
	c-0.1,0.8-0.7,1.4-1.6,1.4c0,0-2.8-0.2-6.1-0.2c-1.3,0-2.7,0-4,0.1c-3.1,0.2-5.6,0.1-8-0.3h-0.1c-0.1,0-0.3,0-0.6-0.1
	C95.5,274.4,91.9,272.9,86.6,270.1 M137.5,377.7c-15.1,6.2-17.8,5.1-19.2,3.5c-0.7-0.8-1.3-2.2-0.1-4.4c0.1-0.2,9.6-15.6,22.1-20.7
	c-1.4-1.9-2.1-3.7-2.2-4c-7.7-16.2,2.4-24.2,4.3-25.5c3.1-3.2,6.4-7.2,7.4-8.9c-1.7-0.9-6.7-1.9-8.3-1.2c-0.5,0.2-1.4,1.1-2.3,2
	c-2.7,2.6-6.7,6.6-14.2,9.1c-10.5,3.4-16.3-0.6-17.4-1.4c-21.3-13.8-13.5-35.9-10.6-42.3l0.1-0.2c0.7-2.4,3-4.7,6.5-3.9
	c2.2,0.5,8.2,0.9,10.6,1c9-1.2,12.6-5.6,13.8-7.6c-5.2-6.1-14.9-4.6-15-4.6c-1.1,0.2-2.2-0.6-2.5-1.7c-0.2-1.1,0.4-2.3,1.5-2.6
	c0.1,0,8.1-2.5,12.8-10.3c3.2-5.3,1.9-11.9,0.8-15.4c-2.7,1.6-7,3.4-11,3.8c-3.3,0.3-9.5,1.8-14,7.6c-2.8,3.6-2.1,8.9-1.8,11.4
	c0.1,1,0.2,1.6,0.1,2.1c-0.2,1.1-1,2.1-2,2.4c-1.2,0.4-2.5,0.1-3.5-0.7c-0.7-0.6-3.2-3.7-4.6-5.4c-5.9-8.2-13.1-11.1-16.7-12.1
	c-0.4,1.4-1.1,3.5-2.4,6.4c-1.7,3.7-1.7,4.8,0.7,10.7c2,4.8,11.6,8.8,16.4,10.2c1.3,0.4,2.3,1.3,2.8,2.5c1,2.5-0.5,5.8-1,6.8
	c-4.7,15.9,4,32,4.1,32.2c0.4,0.7,0.4,1.7-0.1,2.4c-0.5,0.7-1.3,1-2.1,0.9c-3.7-0.7-10.3-3.9-11.1-4.3c-20.9-9.7-26.7-31-28.1-38.7
	c-4.6,2-11.9,6.1-13.6,10.6c-2,5.5,1.7,10.7,4.4,14.5c0.4,0.6,0.9,1.2,1.2,1.8c3,4.4,13.9,17,27.2,25.7c3.8,2.5,6.5,4.2,8.3,5.3
	c3.7,2.4,4.4,2.8,4.7,4.1c0.2,1.1-0.3,1.9-0.5,2.2c0,0.1-0.1,0.1-0.1,0.3c-0.3,0.8-0.9,1.6-1.5,2.5c-1.3,2-3.1,4.7-2.9,7.5
	c0.3,3.7,2.4,7.4,5.6,10.2c1.4-4.8,4.8-13.3,11.8-15.9c9.7-3.6,19.6-2.7,25.3,2.4c6.4,5.8,2.8,17.5-0.6,22.4l-0.7,1.1
	c-3,4.5-5.6,8.3-9.6,8.6c-4.1,0.3-15.3,2.2-18.4,7.6c-2.8,4.8-4.1,13.6-4.6,17.7c4.1,0,13.3-0.9,21.1-9.7c0.6-0.7,1.6-0.9,2.4-0.6
	c0.8,0.4,1.4,1.2,1.3,2.1c0,0.7-0.4,16.3,20.7,20.2c1.7-1.7,5.6-6.2,2.9-9.7c-4.4-5.8-14.4-11.9-14.5-12c-0.9-0.5-1.3-1.6-0.9-2.6
	c0.3-1,1.3-1.6,2.4-1.4c5.2,0.8,19.9,1.6,25.7-4.3c4.9-5,9.2-7.8,11.9-9.2C157.2,375.7,150.5,372.4,137.5,377.7"/>
<path class="st0" d="M135.9,373.6c5.1-2.1,9.4-3,13.1-3.1c-3.8-3.9-5.1-8.4-5.5-10.8c-10,3.1-18.6,15-20.8,18.3
	C124.4,377.7,128.2,376.8,135.9,373.6"/>
<path class="st3" d="M274.8,380.8c0.5-0.3,1-0.6,1.5-0.8c3.7-2,11.6-2.4,18.7-2.6l1.6-0.1c5.3-0.2,12.7,0.6,12.8,0.6
	c0.8,0.1,1.4,0.8,1.3,1.7c0,0.4-0.2,0.8-0.5,1s-0.7,0.4-1.1,0.3c-0.3,0-7.5-0.7-12.4-0.5l-1.6,0.1c-4.5,0.1-14,0.4-17.4,2.3
	c-0.4,0.2-0.8,0.4-1.3,0.8c-1,0.6-2.5,1.5-4.1,2.1l-0.6,0.3l0.3,0.6c0.9,2.1,1.1,4.7,0.6,7.7c-0.5,2.9-0.9,4.5-1.2,5.8
	c-0.3,1.3-0.5,1.9-0.4,2.9c0,1.1,0.3,2,0.6,3.1c0.5,1.7,1,3.6,0.6,6.2c-0.1,0.8-0.8,1.4-1.7,1.2c-0.8-0.1-1.4-0.9-1.2-1.7
	c0.3-1.9-0.1-3.4-0.5-4.9c-0.3-1.1-0.7-2.4-0.7-3.9c0-1.4,0.2-2.4,0.5-3.8c0.3-1.1,0.7-2.7,1.1-5.5c0.6-3.7-0.2-5.8-0.7-6.7
	l-0.2-0.4h-0.4c-2.1,0.2-4-0.1-6-1c-3.9-1.6-12.8,0.3-15.9,1.2c-0.7,0.2-1.6-0.3-1.8-1c-0.2-0.8,0.2-1.6,1-1.9
	c1.2-0.4,12.3-3.4,17.9-1.1C268,384.9,271.9,382.5,274.8,380.8 M309.1,278.6c-0.7-0.3-1.5-0.6-2.3-0.9c-7.3-2.7-13.1-12.2-13.3-12.6
	c-0.4-0.7-0.2-1.6,0.5-2.1c0.3-0.2,0.7-0.3,1.1-0.2c0.4,0.1,0.7,0.3,0.9,0.7c0.1,0.1,5.5,8.9,11.8,11.3c0.7,0.2,1.3,0.5,1.9,0.7
	l0.4,0.1c2.8,1.1,5.5,2.1,8.4,2.7l0.8,0.1v-0.8c0.1-1.6,0-3.6-0.3-5.9c-0.5-4.4,1.6-7.3,3.3-9.6c1.2-1.7,2.3-3.2,2.4-4.9
	c0.2-2.9,0.2-4,0.2-4.6c0-0.1-0.1-0.3-0.1-0.4c0-0.8,0.7-1.5,1.5-1.5c0.4,0,0.8,0.2,1.1,0.5c0.4,0.5,0.7,0.7,0.2,6.2
	c-0.2,2.6-1.7,4.7-3,6.5c-1.6,2.2-3.1,4.3-2.7,7.4c0.3,2.6,0.4,4.8,0.3,6.6v0.7h0.7c1.4,0,2.7-0.1,4.1-0.3c4.6-0.7,9-2.2,12.5-3.5
	c3-1.1,5-1.8,6.4-1.7c0.8,0.1,1.4,0.8,1.3,1.6c-0.1,0.8-0.8,1.4-1.5,1.4c-0.6-0.1-1.8,0.3-4.3,1.2l-1,0.3c-3.4,1.2-8.1,2.8-13,3.6
	c-2.5,0.4-4.8,0.5-6.9,0.3h-0.1l0,0C316.3,281.4,312.8,280,309.1,278.6 M339.1,315.7c-13.9-0.4-22.1-4.4-26.4-13
	c-2.2-4.4-1.4-7.8-0.3-9.9c2.1-3.9,6.7-6,10.1-6.4c0.4,0,1-0.1,1.7-0.1c6.1-0.4,24.1-1.6,36.5-15.5c-4.6-1.6-15.4-3.8-30,2
	c-0.1,0-0.2,0.1-0.3,0.1c-1.4,0.4-3.2,0.6-4.2-0.7c-0.6-0.8-0.6-1.8-0.2-2.7c0.4-0.6,0.9-1,1.8-1.5c4.1-2.5,8.7-6.2,7.2-12.8
	c-1.5-7-6.3-10-8.6-11c-2.1,2.7-7.2,8.9-12.6,13.5c-2,1.7-2.5,4-1.6,6.9c2.1,3.1,2.9,5.3,3,5.6c0.3,1-0.1,2.1-1,2.6
	s-2.1,0.3-2.7-0.5c-0.1-0.1-2.1-2.5-3.2-5.7c-3-4-8.7-9.5-19-12.6c0.1,3.2,0.1,8.4-1,12.9c-0.6,2.4,0.3,4.5,1.2,5.8
	c2.1,3.2,6.3,5.7,11.2,6.6c6.9,1.2,8.8,2,9.5,3.9c0.6,1.6-0.4,3-1,3.8l-0.5,0.6c-3,3.8-5.9,9-2,14.7c2.8,4.2,5.9,6.4,8.1,8.1
	c2.2,1.6,4.5,3.3,3.3,6c-1.2,2.8-5,4.2-11.8,4.4c-1.5,0-3.8-0.2-6.7-0.4c-6.2-0.5-14.7-1.2-19.9-0.2c-5.3,1-8.7,2.5-10.2,3.3
	c-1,10-6.8,20.5-18.7,23.8c-13,3.6-26.6,0.1-41.7-10.7c-5.9-4.2-10-8.6-12.7-12.1c0,0-1.2-1.7-2.5-3.9c-1.6,9.9,9,22.1,9.1,22.2
	c0.6,0.7,0.7,1.7,0.3,2.5s-1.4,1.3-2.3,1.1c-0.4-0.1-8.5-1.2-13.9,8.3l0,0c2.3,1.3,5.7,3.8,7.5,8.5c1.5,3.8,1.3,6,1.1,7.2
	c2.3,1.1,10.1,2.3,13.5-0.8c0.8-0.7,1.7-1.6,2.6-2.6c4.4-4.5,10.9-11.2,22.3-14.7c12-3.7,27.6-7.6,33.5-4.9
	c6.8,3.2,4.9,10.2,3.8,14.4c-0.7,2.5-0.7,5.3-0.7,7.5c0,2.5,0,4.3-0.8,5.6c-2,3.3-5.5,3.4-10.4,2.4c-0.6-0.1-1.2-0.3-1.9-0.4
	c-4.7-1-8.4-1.9-15.7,3.8c-4.5,3.5-8.3,5.1-11.1,5.9c2.9,2.3,7.5,4.9,13.2,4.9c5.3-0.1,9-0.8,11.6-1.4c3.1-0.6,5.4-1.1,7.1,0.8
	c2.2,2.5,2.2,5,0.1,7.7c-0.5,0.6-2.8,3.7-2.3,8.2c0.5,4.1,3.1,8.3,8,12.3c2.6-1.2,9-4.5,11.2-9.6c1-2.4,1-4.9-0.2-7.6
	c-3.3-7.7-4-11.5-2.8-13.9c1-2,2.9-2.5,4.5-2.9c0.3-0.1,0.6-0.1,0.8-0.2c2.1-0.6,4.7,0,7.9,0.9c4,1,9,2.3,14.4,1.3
	c8.6-1.6,14.5-5.4,15.8-7c-1.7-2.5-11.3-9.4-24.3-7.5c-8.3,1.2-12.5,2.5-14.8,3.2c-2.4,0.7-4.1,1.2-5.6-0.5
	c-2.4-2.5-3.1-13.8,1.6-21.5c4.4-7.2,13.8-14.9,26.7-14.9c2.7,0,5.7,0.2,8.8,0.4c9.6,0.7,20.5,1.4,24.7-4.1c3.2-4.2,3.7-7.3,4.2-9.6
	c0.3-1.9,0.8-4.6,3.9-4.9c0.3,0,0.7,0,1.3-0.1c11-0.4,17.7-2.6,19.9-6.8c1.4-2.7,1-6.5-1.4-11.2C360.7,306.8,349.4,316,339.1,315.7"
	/>
<path class="st0" d="M374.1,46.3c2,5,4.6,9.6,6.7,14.6c6,14.3,3.6,28.1-5.8,35.9c-10.8,8.8-26.6,9.2-38.9-0.2
	c-4.4-3.4-6.9-1.9-10.5,0.4c-16,10.4-33.7,7.3-42.8-7.4C276.3,79.2,279,69,284,59.1c2.4-4.8,5.5-9.2,8.2-13.8
	c2.4-4.1,2.5-7.2-3.2-8.4c-3.8-0.8-8.1-1.8-7.3-7c0.8-5.1,5.2-4.8,9.1-4.8c14.3,0,28.6,0,42.9,0c6.9,0,13.8,0,20.7,0
	c6.9,0,13.8,0,20.7,0c3.9,0,8.2-0.2,9.2,4.8c1,4.6-2.4,6.1-6.1,7.3C373.3,38.7,372.5,42.3,374.1,46.3 M370.5,315.8
	c-4.5,8.5-18.9,8.9-23.6,9.1c-0.3,0-0.6,0-0.8,0c-0.1,0.3-0.2,0.8-0.3,1.3c-0.4,2.4-1.2,6.5-5,11.5c-5.6,7.3-17.7,6.5-28.4,5.8
	c-3.1-0.2-5.9-0.4-8.5-0.4c-11.1,0-19.2,6.6-23,12.8c-3.6,5.7-3,13.5-2.3,15.8c0.4-0.1,0.9-0.2,1.4-0.4c2.4-0.7,6.9-2,15.4-3.3
	c13-1.9,23,3.8,26.9,7.5c1.8,1.7,2.6,3.2,2.5,4.6c-0.4,4.5-10.6,9.4-19.5,11.1c-6.3,1.2-12.1-0.3-16.3-1.4c-2.4-0.6-4.6-1.2-5.6-0.9
	c-0.3,0.1-0.7,0.2-1,0.3c-0.6,0.1-1.5,0.4-1.6,0.6s-0.7,1.7,2.9,10.3c1.6,3.8,1.7,7.5,0.2,11.1c-3.5,8.2-14.3,12.3-14.8,12.5
	c-0.2,0.1-0.5,0.1-0.7,0.1c-0.5,0-0.9-0.2-1.3-0.5c-6.4-5-10-10.4-10.6-16.1c-0.7-6.1,2.3-10.3,3.3-11.5c0.8-0.9,0.8-1.1,0.2-1.8
	c-0.5,0-1.9,0.2-3.1,0.5c-2.7,0.5-6.7,1.4-12.4,1.4c-11.9,0.1-19.6-9.2-19.9-9.6c-0.6-0.7-0.6-1.7-0.2-2.5c0.5-0.8,1.4-1.2,2.3-1.1
	c0,0,5,0.6,13-5.6c8.9-6.8,14.1-5.7,19.2-4.6c0.6,0.1,1.2,0.3,1.8,0.4c5.1,1,5.5,0.2,5.9-0.4c0.2-0.4,0.2-2.1,0.2-3.4
	c0-2.5,0-5.6,0.8-8.6c1.6-6,1.3-8-1.4-9.2c-2.7-1.3-12.2-0.6-30.4,5.1c-10.3,3.2-16.2,9.2-20.5,13.6c-1,1-1.9,2-2.8,2.8
	c-5.2,4.8-15.6,3-18.7,1.3c-2.3-1.3-2.2-2.9-2-4.2c0.1-0.9,0.3-2.2-0.8-5.1c-1.3-3.4-3.8-5.3-5.5-6.2c-2.9,6.9-3.3,14.9-3.4,15.1
	c0,0.7-0.4,1.3-1,1.7c-0.4,0.2-0.8,0.4-1.2,0.4c-0.2,0-0.5,0-0.7-0.1c-10.8-4-13.6-12.4-14.3-17.8c-4.1,4.6-5.5,11.6-5.8,14.3
	c4.6,2.1,6.5,5.2,6.7,5.5c0.3,0.6,0.4,1.3,0.2,1.9s-0.7,1.1-1.3,1.3c-0.1,0-5.9,2.1-13.1,9.5c-5.1,5.2-14.3,6.1-21.1,6.1
	c3.1,2.4,6.6,5.4,8.9,8.4c4.8,6.2-0.7,13.5-4.2,16.5c-0.4,0.3-0.9,0.5-1.4,0.5c-0.1,0-0.2,0-0.3,0c-18.1-2.9-23.3-13.8-24.8-20.1
	c-11.1,9.7-23.3,7.9-23.9,7.8c-1.1-0.2-1.9-1.2-1.8-2.4c0.1-0.6,1.3-14.6,5.4-21.8c4.9-8.4,20.2-9.6,21.9-9.8c1.9-0.1,4-3.3,6.3-6.7
	l0.7-1.1c2.6-3.8,5.3-12.9,1.2-16.6c-4.5-4-12.7-4.7-20.9-1.6c-7.4,2.8-9.8,15.8-9.8,15.9c-0.1,0.7-0.6,1.3-1.3,1.6
	c-0.7,0.3-1.4,0.2-2-0.1c-5.7-3.5-9.5-9.4-10.1-15.4c-0.4-4.3,2-8,3.6-10.4c0.4-0.5,0.7-1.1,0.9-1.5c-0.6-0.4-1.3-0.9-2.2-1.4
	c-1.8-1.2-4.5-2.8-8.3-5.4c-14-9.2-25.2-22.1-28.4-26.9c-0.3-0.5-0.7-1.1-1.2-1.6c-3.1-4.3-7.8-10.9-5-18.7
	c3.1-8.4,17.1-13.6,18.7-14.2c0.6-0.2,1.3-0.1,1.9,0.2c0.6,0.4,0.9,1,1,1.6c0,0.3,3,27.3,26,38c1.1,0.5,3.3,1.6,5.6,2.5
	c-2.6-6.5-6-18.7-2.3-31.2c0-0.2,0.1-0.3,0.2-0.4c0.6-1.1,1.1-2.8,0.9-3.2c-2.6-0.7-15.9-5.1-19.1-12.7c-2.7-6.4-3.1-9-0.7-14.3
	s2.3-6.8,2.3-6.8c-0.2-0.7,0-1.4,0.5-2s1.2-0.8,1.9-0.7c0.5,0.1,12.5,1.5,21.8,14.3c0.6,0.8,1.4,1.7,2,2.5
	c-0.3-3.4-0.1-8.3,2.9-12.3c5.5-7.1,13-8.9,17-9.3c4.8-0.5,10.2-3.7,11-4.4c0.5-0.5,1.2-0.7,1.9-0.5c0.7,0.1,1.3,0.6,1.6,1.2
	c0.2,0.5,5.6,12.3-0.1,22c-2.2,3.7-5,6.4-7.6,8.2c3.9,0.8,8.3,2.8,11.3,7.2c0.4,0.6,0.5,1.3,0.3,2c-0.1,0.4-3.6,9.8-18.1,11.6
	c-0.1,0-0.3,0-0.4,0c-0.3,0-8.4-0.5-11.5-1.2c-0.4-0.1-1.1-0.2-1.4,1c0,0.1-0.1,0.3-0.3,0.6c-3.2,7.2-8.9,25.3,9.1,36.8
	c0.1,0.1,0.2,0.1,0.3,0.2c0.2,0.1,4.4,3.6,13.4,0.7c6.5-2.1,10-5.5,12.5-8c1.4-1.4,2.5-2.4,3.7-3c3.5-1.4,12.4,0.4,14.1,3.5
	c0.3,0.6,0.8,1.4-0.1,3.3c8.4-3.6,17.7-5.1,23.1-5.7c-6.9-8-24.4-29.6-37.7-57.7c-22.3-47.2-22.9-91.5-1.9-128.2
	c-1.6-5.3-8.9-30.3-4.1-47.3c4.2-14.7,6.3-18.4,7.5-20.5c0.2-0.4,0.4-0.7,0.6-1.1c0.3-0.7,0.3-1.4,0-1.9c-0.2-0.3-0.4-0.6-0.7-0.7
	c-4.5-1.5-16.7-8.9-14.1-22.4c1.1-5.9,4.6-7.9,7.4-8.5c6.7-1.6,15.5,3.4,17.8,6.6c2.2,3,4.5,4,5.6,3.4c0.2-0.1,1-0.7,1.6-1.1
	c5.5-4.1,20.1-14.8,37.9-14c21.2,1,31.8,6,38.7,10.3c6.6,4.1,7,3.8,8,3.1c8.9-5.8,15.6-4.4,19.7-2.2c3.9,2.1,6.1,4.7,6.3,7.8
	c0.3,3.4-1.8,6.9-6,10.2c-4.7,3.6-5.9,8.3-3.6,14.6c2.4,6.7,9.3,30.5-0.2,57.6c3.2,2.9,11.2,11.4,11.7,24.9
	c0.2,5.3-0.2,9.2-0.6,12.4c-0.7,6.1-1,8.9,4.1,15.2c8.6,10.6,6.2,18.1,4.8,22.5l-0.3,1.1c-0.3,1.1-0.8,2.2-1.2,3.2
	c-1.3,3.4-2.5,6.3-0.8,9.7c0.5,0.9,1,1.9,1.5,2.8c2.6,4.6,5.8,10.4,3.3,19.2c-1.2,4.1-2.6,6.8-3.8,9c-1.6,2.9-2.4,4.4-1.6,7.6
	c0.2,0.7,0.5,1.7,0.8,2.8c2.7,8.7,8.9,29.1-11.5,45.8c-0.3,0.3-0.7,0.5-1,0.8c2.7,5.9,3.8,10.9,4.5,19.9c0,0.1,0,0.3,0,0.4
	c2.1-0.9,5.2-1.9,9.3-2.7c5.8-1.1,14.6-0.4,21,0.1c2.7,0.2,5,0.4,6.3,0.4c4.8-0.1,6.7-0.8,7.4-1.3c-0.4-0.3-1-0.7-1.4-1.1
	c-2.3-1.7-5.8-4.3-9.1-9.1c-4.1-6.1-3.4-12.8,2.1-20v-0.1c-0.9-0.3-2.6-0.7-5.4-1.2c-6.2-1.1-11.3-4.2-14.1-8.5
	c-1.9-2.9-2.5-6.1-1.8-9.2c1.4-6.3,0.7-14.5,0.7-14.6c-0.1-0.7,0.2-1.4,0.7-1.9s1.2-0.7,1.9-0.5c9.6,2.2,16.1,6.4,20.4,10.5
	c0.5-1.9,1.6-3.7,3.3-5.1c6.5-5.6,12.9-14,13-14.1c0.5-0.7,1.4-1,2.3-0.8c0.4,0.1,10.5,2.9,13.1,14.8c1.1,5.2-0.4,9.1-2.6,11.9
	c17.4-4.4,28.1,1.5,28.6,1.8c0.6,0.3,0.9,0.9,1.1,1.5c0.1,0.6,0,1.3-0.4,1.8c-13.5,17.5-34.6,18.9-41.5,19.4c-0.6,0-1.1,0.1-1.5,0.1
	c-2.3,0.2-5.5,1.8-6.7,4.1c-0.9,1.6-0.8,3.5,0.4,5.7c3.5,7,10.3,10.2,22.7,10.6c11.2,0.2,25-13.7,25.1-13.8c0.5-0.5,1.1-0.7,1.8-0.6
	c0.7,0.1,1.3,0.5,1.6,1C372,305.2,373,311.2,370.5,315.8 M242.8,461.3c-5.2,1-9.5,3-12.1,8.3c-1.8,3.8-5.6,7-9.5,8.1
	c-8.8,2.4-14.6,7.8-18.8,17.9c-4.9-9.6-10.3-15.6-19.2-17.8c-2.7-0.7-5.8-2.9-7.3-5.3c-4.5-6.8-10.5-10.9-18.4-12.6
	c-3.1-0.7-2-2.7-0.6-4.1c5.1-5.2,7-11.2,6.5-18.4c-0.2-2.8,0.8-6.3,2.5-8.7c4.6-6.3,6.9-13,5.8-20.8c-0.5-3.3,1.9-3.4,4.1-2.5
	c6.3,2.7,12.2,2.7,18.8,0.1c5.5-2.2,12.4-2.2,17.9,0.7c5.8,3.1,11.1,2.8,16.8,0.8c4.7-1.7,6.8-0.3,5.5,4.7
	c-1.4,5.7-1.3,10.7,2.8,15.7c2.7,3.4,4.3,8.2,3.1,12.7c-1.5,6.1,0.3,10.8,4.3,15.2C247.8,458.4,247,460.4,242.8,461.3 M88.7,234.1
	c-0.1,0.1-0.1,0.1-0.2,0.2l0,0L88.7,234.1z M23.2,99.6c-2.8-4-0.9-7.2,2.5-9.8c10-7.8,20.1-15.5,30.1-23.3c-1.8-2.8-4.3-2.9-6.3-3.9
	c-14.9-7.4-16.4-25-2.8-34.9c9.9-7.2,20.7-8.3,31.9-3.5c3.5,1.5,6.8,3.5,10.1,5.4c5.3,3.1,10.4,4,15.5-0.5c3.4-2.9,7.1-3.3,10,0.4
	c3.1,3.9,1,7.3-2.3,9.9c-8.2,6.5-16.6,12.8-25.5,19.6c4.4,2.8,8.4,4.7,11.2,8.1c5.7,6.9,7.4,14.5,4.1,22.9
	c-3.9,9.9-12.4,13.2-21.9,14.1c-9.3,0.9-18.2-1.9-26.9-5.2c-7.1-2.7-13.8-3.3-20.4,1.4C29.4,102.8,25.8,103.3,23.2,99.6
	 M391.8,210.5v-0.4V15.4H15.7V210v0.5c0,0.5-3.2,53.1,18.4,115.7c12.6,36.6,31.1,69.3,54.9,97c29.7,34.6,67.9,61.7,113.6,80.7
	c0.2,0,0.4,0.1,0.5,0.2l0.2,0.1c0.2,0.1,0.4,0.1,0.4,0.1c0.1,0,0.4-0.1,0.6-0.1l0.3-0.1c45.7-18.9,84-45.9,113.7-80.4
	c23.8-27.6,42.3-60.1,54.9-96.6C394.9,264.5,391.9,211.1,391.8,210.5"/>
<path class="st3" d="M197.3,41.8c2-4.1,5.6-9.8,11.7-12.3c2.5-1.1,5-1.9,7.3-2.4c-5.2-1.3-11.6-2.2-19.6-2.6
	c-5.6-0.3-10.8,0.8-15.5,2.4c1.9,0.5,3.8,1.4,5.7,2.9C192.1,33.8,195.4,38.4,197.3,41.8"/>
<path class="st3" d="M173.1,161.2c1.2-0.3,2.3,0.5,2.6,1.7c0,0.1,1.5,6.8,5.6,11c1.2-2.8,3.3-8.4,3.5-10.4c0.1-1.2,1.2-2.1,2.4-2
	s2.1,1.2,2,2.4c-0.3,3.4-3.6,11.5-4.5,13.2c-0.8,1.6-2,2-2.7,2c-0.1,0-0.2,0-0.3,0c-1,0-1.9-0.5-2.4-1.1c-5.8-5-7.7-13.8-7.8-14.1
	C171.2,162.7,172,161.5,173.1,161.2 M196.5,216.8c0.7-2.9,1.7-8.9,1.5-10.9c-0.1-1.2,0.8-2.3,2-2.4s2.3,0.8,2.4,2
	c0.3,3.4-1.5,12-2,13.8s-1.6,2.3-2.2,2.5c-0.3,0.1-0.6,0.1-0.8,0.1c-0.8,0-1.5-0.3-2-0.7c-6.6-3.9-10.1-12-10.3-12.4
	c-0.5-1.1,0-2.4,1.1-2.9s2.4,0,2.9,1.1C189,207.2,191.7,213.5,196.5,216.8 M201.7,162.5c1.1-0.5,2.4,0,2.9,1.2
	c0,0.1,2.8,6.4,7.5,9.7c0.7-2.9,1.7-8.9,1.5-10.9c-0.1-1.2,0.8-2.3,2-2.4s2.3,0.8,2.4,2c0.3,3.4-1.5,12-2,13.8s-1.6,2.3-2.2,2.5
	c-0.3,0.1-0.6,0.1-0.8,0.1c-0.8,0-1.5-0.3-2-0.7c-6.6-3.9-10.1-12-10.3-12.4C200.1,164.3,200.6,163,201.7,162.5 M222,213.3
	c0.7-2.9,1.7-8.9,1.5-10.9c-0.1-1.2,0.8-2.3,2-2.4s2.3,0.8,2.4,2c0.3,3.4-1.5,12-2,13.8s-1.6,2.3-2.2,2.5c-0.3,0.1-0.6,0.1-0.8,0.1
	c-0.8,0-1.5-0.3-2-0.7c-6.6-3.9-10.1-12-10.3-12.4c-0.5-1.1,0-2.4,1.1-2.9s2.4,0,2.9,1.2C214.5,203.6,217.2,209.9,222,213.3
	 M232,255.3c0.5-3,1.3-8.9,1-11c-0.2-1.2,0.6-2.3,1.8-2.5s2.3,0.7,2.5,1.9c0.5,3.4-0.8,12.1-1.3,13.9c-0.4,1.8-1.5,2.4-2.1,2.6
	c-0.3,0.1-0.7,0.2-1,0.2c-0.7,0-1.4-0.3-1.9-0.6c-6.8-3.5-10.7-11.5-10.9-11.8c-0.5-1.1-0.1-2.4,1-3c1.1-0.5,2.4-0.1,2.9,1
	C224,246,227.1,252.2,232,255.3 M235.5,157.5c1.1-0.5,2.4,0,2.9,1.2c0,0.1,2.8,6.4,7.5,9.7c0.7-2.9,1.7-8.9,1.5-10.9
	c-0.1-1.2,0.8-2.3,2-2.4s2.3,0.8,2.4,2c0.3,3.4-1.5,12-2,13.8s-1.6,2.3-2.2,2.5c-0.3,0.1-0.6,0.1-0.8,0.1c-0.8,0-1.5-0.3-2-0.7
	c-6.6-3.9-10.1-12-10.3-12.4C233.9,159.3,234.4,158,235.5,157.5 M253.8,193.1c0.3,3.4-1.5,12-2,13.8s-1.6,2.3-2.2,2.5
	c-0.3,0.1-0.6,0.1-0.8,0.1c-0.8,0-1.5-0.3-2-0.7c-6.6-3.9-10.1-12-10.3-12.4c-0.5-1.1,0-2.4,1.1-2.9s2.4,0,2.9,1.1
	c0,0.1,2.8,6.4,7.5,9.7c0.7-2.9,1.7-8.9,1.5-10.9c-0.1-1.2,0.8-2.3,2-2.4C252.6,191,253.7,191.9,253.8,193.1 M257.1,238.8
	c0.5,3.4-0.8,12.1-1.3,13.9c-0.4,1.8-1.5,2.4-2.1,2.6c-0.3,0.1-0.7,0.2-1,0.2c-0.7,0-1.4-0.3-1.9-0.6c-6.8-3.5-10.7-11.5-10.9-11.8
	c-0.5-1.1-0.1-2.4,1-3c1.1-0.5,2.4-0.1,2.9,1c0,0.1,3.1,6.2,8,9.3c0.5-3,1.3-8.9,1-11c-0.2-1.2,0.6-2.3,1.8-2.5
	C255.8,236.8,256.9,237.6,257.1,238.8 M209.6,262.4c-0.4,1.8-1.5,2.4-2.1,2.6c-0.3,0.1-0.7,0.2-1,0.2c-0.7,0-1.4-0.3-1.9-0.6
	c-6.8-3.5-10.7-11.5-10.9-11.8c-0.5-1.1-0.1-2.4,1-3c1.1-0.5,2.4-0.1,2.9,1c0,0.1,3.1,6.2,8,9.3c0.5-3,1.3-8.9,1-11
	c-0.2-1.2,0.6-2.3,1.8-2.5s2.3,0.7,2.5,1.9C211.4,251.9,210.1,260.5,209.6,262.4 M191.6,314.5c0.4-0.7,1.1-1,1.8-1.1h0.1
	c1-0.2,2,0.5,2.4,1.5c0,0.1,3.4,9.3,15.8,18.1c14,10,26.5,13.2,38.1,10c13.5-3.7,16.1-17.2,15.6-24.5c-0.6-8.2-1.5-12.7-3.8-17.9
	c-12.1,6.4-26.7,2.5-37.4-2.3c-14.6-6.6-27.4-17.1-33.5-24.7c-13.3-16.4-28.9-48.1-31.9-72.8c-0.1-1.2,0.7-2.3,1.9-2.5
	s2.3,0.7,2.4,1.9c3.2,26.3,20,57,31,70.5c5.6,6.9,18,17.2,31.9,23.5c11,5,26.5,8.9,37.6-0.2c18.1-14.9,12.7-32.6,10.1-41.1
	c-0.4-1.2-0.7-2.2-0.9-3c-1.2-4.9,0.3-7.6,2-10.8c1.1-2.1,2.4-4.4,3.4-8c2-7-0.4-11.3-2.9-15.8c-0.6-1-1.1-2-1.6-3
	c-2.5-5.2-0.8-9.7,0.7-13.3c0.4-1,0.8-1.9,1-2.9c0.1-0.4,0.2-0.7,0.4-1.1c1.4-4.3,3.1-9.6-4-18.3c-6.3-7.8-5.8-12-5.1-18.5
	c0.4-3.1,0.8-6.7,0.6-11.7c-0.5-14.1-10.8-22.2-11.2-22.6c-0.6-0.4-11.9-7.6-27.3-6.9c-15.3,0.8-24.4,16.5-24.5,16.7
	c-0.4,0.7-1.1,1.1-1.9,1.1c-0.1,0-0.3,0-0.4,0c-0.9-0.2-1.6-0.9-1.7-1.8l0,0c0,0-2-5.2-19.7-14.1c-17.5-8.8-36.7,8.3-38.9,10.3
	c-50,86.1,40.7,183.6,41.7,184.6c0.6,0.6,0.8,1.6,0.4,2.4c-0.3,0.8-1.1,1.3-1.9,1.4c-0.3,0-25.3,1.1-36.3,12.3
	c-0.1,0.1-0.2,0.1-0.2,0.2c-0.1,0.1-0.1,0.1-0.2,0.2c-0.4,0.2-9.6,6-2.8,20.2c0.3,0.7,0.8,1.9,1.7,3c1.3-6.4,5.7-17.9,20.7-20
	c1.2-0.2,2.3,0.7,2.5,1.9c0.2,1.2-0.7,2.3-1.8,2.5c-17,2.4-17.5,18.9-17.5,19.9c0,0.6,0.6,7.5,7.3,11.9c0.9-4.9,3.6-14.1,10.8-18.3
	c0.7-0.4,1.6-0.4,2.3,0.1s1,1.3,0.9,2.1c-0.1,0.5-1.4,11.3,8.9,16.7c0.5-3.8,1.7-10.3,4.6-15.9c4.2-8.8,10.5-11.5,14.8-12.2
	C193,336.3,186,324.2,191.6,314.5"/>
<path class="st1" d="M177.7,91.6c-0.7,1.2-1.6,1.5-2.2,1.6c-0.1,0-0.2,0-0.2,0c-0.8,0-1.5-0.4-1.9-0.8c-4.7-3.8-6.3-10.4-6.3-10.7
	c-0.2-0.9,0.4-1.8,1.3-2s1.9,0.4,2.1,1.3c0,0.1,1.2,5.1,4.5,8.3c1-2.1,2.7-6.4,2.8-7.9c0.1-0.9,1-1.6,1.9-1.5c1,0.1,1.7,0.9,1.6,1.8
	C181.1,84.2,178.4,90.3,177.7,91.6 M184.9,83.8c-0.5-7.7-2.3-14.9-5-20.1c-2.3-4.5-5-7-7.4-7c-0.1,0-0.2,0-0.2,0
	c-2.5,0.2-4.9,3.1-6.6,8c-1.9,5.6-2.7,12.9-2.2,20.6c1.1,16.4,7.5,27.4,12.6,27.1C181.1,112,186,100.2,184.9,83.8"/>
<path class="st3" d="M164,112.5c-0.1,0-0.1-0.1-0.3-0.2c-1.6-0.9-3.8-0.6-5.6-0.4c-1.9,0.2-3.8,0.5-4.1-1.3c-0.1-0.5,0-1,0.3-1.4
	c0.8-1.1,2.7-1.5,4.9-1.9c0.6-0.1,2.6-0.5,2.5-1.2c-0.2-1.9-3.2-1.3-4.4-1.4c-0.9-0.1-1.7-0.1-2.4-0.2c-1.3-0.2-1.8-0.8-2-1.3
	c-0.2-0.6-0.1-1.3,0.3-1.8c0.6-0.7,1.5-0.8,2.5-0.9c4.8-0.7,3.9-2.8,3.8-3.5c-0.1-1.2-1-1.5-1.4-1.5s-1.3,0.1-2,0.3
	c-2.1,0.4-4.5,0.8-5.1-1c-0.2-0.5-0.1-1,0.1-1.4c0.6-0.9,1.8-1.1,3.4-1.3c1-0.1,2.1-0.3,2.7-0.6c1.1-0.6,1.1-1.1,1.2-2.1V89
	c0-0.5-1.2-1.6-2-1.7c-0.3,0-0.9-0.1-1.5-0.1c-3.5-0.2-4.4-0.3-4.7-1.2c-0.2-0.4-0.1-0.9,0.1-1.2c0.4-0.7,1.3-0.8,3.6-1
	c0.9-0.1,5.1-0.4,5.1-2.3c-0.1-1.9-3.3-2.4-3.6-2.4c-2.7-0.2-4.8-0.5-5.2-1.9c-0.1-0.4,0-0.8,0.2-1.2c0.6-0.8,1.8-0.8,3.6-0.9
	c0.9,0,5.2-0.5,5.1-1.6c0.1-0.7-1.6-0.7-2.4-0.9c-1-0.3-2-0.6-2.7-1l-0.3-0.2c-1.3-0.8-2.2-1.3-1.9-2.4s1.5-1.1,2.3-1.1
	s1.8,0.1,2.7,0.2c0.8,0.1,2.5,0.5,2.6-0.4c0.2-1.1-2-2.2-2-2.2c-1.6-0.8-3.5-1.7-3.5-3.5c0-0.6,0.2-1.1,0.7-1.4
	c1-0.7,2.5-0.2,3.6,0.2c0,0,2.8,1.3,3.3,0.5c0.7-1.5,0.3-1.7-0.1-2.4c-0.4-0.5-1.7-1.3-2.6-1.9c-1.6-1-2.4-1.5-2.4-2.4
	c0-0.4,0.4-0.9,0.8-1.1c1-0.4,1.9,0.1,2.8,0.6c0.6,0.3,4.5,2.4,5.8,0.5c0.6-0.8-2.1-2.6-2.9-3.3c-0.9-0.7-1.6-1.3-1.8-2.1
	c-0.1-0.3-0.2-1.1,0.3-1.6c0.6-0.7,1.5-0.5,3.3-0.1c5.8,1.1,10.6,3.7,14.5,7.8c1.3,1.2,2.5,2.8,3.7,4.7c0.1,0.2,0.2,0.4,0.4,0.7
	s0.3,0.6,0.5,0.9v0.1c0.3,0.5,0.6,1,0.8,1.5c0.1,0.2,0.1,0.3,0.1,0.5c2.4,5.5,4,12.4,4.5,19.7c1,14.4-2.2,26.3-7.8,31
	c0.3,0.1,0.6,0.3,0.9,0.4c12,6,17.5,10.7,20,13.7c2.7-3.7,8.1-10,16-13.5c-5.4-4.9-8.5-16.6-7.6-30.8c0.6-8.3,2.5-16.1,5.5-21.8
	c1-2,2.2-3.7,3.4-5.1c0.1-0.1,0.2-0.2,0.3-0.3c0.1-0.2,0.3-0.3,0.4-0.4c4-4.8,9.1-7.9,15.3-9.1c1.8-0.4,2.7-0.5,3.3,0.1
	c0.5,0.6,0.4,1.3,0.3,1.6c-0.2,0.8-0.9,1.4-1.7,2.1c-0.8,0.7-3.3,2.6-2.9,3.3c0.5,1.1,5.1-0.2,5.7-0.5c0.9-0.5,1.8-1,2.8-0.6
	c0.4,0.2,0.8,0.7,0.8,1.1c0.1,0.9-0.7,1.4-2.3,2.4c-0.9,0.5-4.2,2.4-3,4.1c0.4,0.8,3.5-0.4,3.5-0.4c1.1-0.4,2.6-0.9,3.5-0.2
	c0.4,0.3,0.7,0.8,0.7,1.4c0,1.8-1.9,2.7-3.5,3.5c0,0-2.7,0.6-1.8,2.8c0.2,0.7,4.4-0.4,5.1-0.4c0.8,0,2,0,2.3,1s-0.6,1.6-1.9,2.4
	l-0.3,0.2c-0.7,0.5-5.4,0.7-5.1,2c0.4,1.4,4.1,1.5,5,1.5c1.8,0,3,0.1,3.6,0.9c0.2,0.3,0.3,0.8,0.2,1.2c-0.4,1.4-2.4,1.7-5.1,1.9
	c-0.3,0-0.5,0-0.7,0.1c-0.6,0.1-2,0.8-2.1,1.6c-0.1,1.2,0.8,2.2,1.4,2.6c0.3,0.2,1.9,0.4,2.8,0.5c2.2,0.2,3.1,0.4,3.5,1
	c0.2,0.3,0.3,0.9,0.1,1.2c-0.4,0.8-1.2,1-4.7,1.2c-0.6,0-3.5,0-3.5,2c0,2.1,3,2.9,3.9,3c1.5,0.2,2.8,0.4,3.3,1.3
	c0.3,0.4,0.3,0.9,0.1,1.4c-0.6,1.9-3,1.4-5.1,1c-0.8-0.1-1.6-0.3-2-0.3s-0.7,0.3-1,0.7c-0.4,0.6-0.6,1.5-0.4,2.4
	c0.4,1.6,2.7,2.1,3.8,2c1-0.2,1.9,0.2,2.5,0.9c0.4,0.5,0.5,1.2,0.3,1.8c-0.2,0.4-0.6,1.1-2,1.3c-0.7,0.1-2,0-2.9-0.1
	c-1.4-0.1-3.9-1-4.2,1c-0.1,0.9,0.9,1.4,1.1,1.5h0.1c0.5,0.1,1,0.2,1.6,0.3c2.6,0.5,5.6,1,5.2,3.3c-0.3,1.7-2.2,1.5-4,1.3
	s-3.9-0.5-5.5,0.4c-0.3,0.2-0.2,0.5,0,0.6c9,1,16,4.1,19.4,5.9c8.5-25.3,2.1-47.3-0.1-53.6c-2.9-8.2-1.2-14.8,5.1-19.6
	c2.9-2.2,4.5-4.5,4.3-6.3c-0.2-1.9-2.3-3.4-4-4.3c-4.4-2.3-9.7-1.6-15.4,2c-3.2,2.1-5.4,1.3-12-2.7l0,0c-7.9-4.5-14.2-4.8-23.2-0.9
	c-8.1,3.4-11,14.2-11.1,14.3c-0.2,0.9-1.1,1.6-2,1.6h-0.1c-0.9,0-1.7-0.6-2.1-1.5c0-0.1-3-8.3-11.2-14.8c-6.6-5.1-14.3-1.1-16.6,0.2
	c-2.6,1.6-4.6,3.2-6.1,4.2c-1,0.8-1.6,1.2-2.1,1.5c-3.3,1.8-7.6,0.1-11.1-4.6c-1.5-2-8.7-6.1-13.4-5c-1.4,0.3-3.3,1.2-4.1,5.1
	c-2.4,12.2,11.1,17.3,11.2,17.3c1.5,0.5,2.6,1.6,3.3,3c0.7,1.7,0.7,3.6,0,5.4c-0.2,0.5-0.5,1-0.8,1.6c-1.1,1.9-3,5.3-7.1,19.5
	c-3.9,13.8,1.1,34.6,3.4,42.4C145.1,120.5,153.8,114.3,164,112.5"/>
<path class="st1" d="M227.7,57.6c-0.1,0-0.2,0-0.2,0c-2.4,0-5.1,2.5-7.4,7c-2.7,5.2-4.4,12.4-5,20.1c-1.1,16.4,3.7,28.2,8.8,28.6
	c2.5,0.1,5.3-2.4,7.6-7c2.7-5.2,4.4-12.4,5-20.1C237.6,69.7,232.7,57.9,227.7,57.6"/>
<path class="st2" d="M186.1,206c-1.1,0.5-1.6,1.8-1.1,2.9c0.1,0.3,3.7,8.5,10.3,12.4c0.5,0.4,1.2,0.7,2,0.7c0.3,0,0.5,0,0.8-0.1
	c0.6-0.2,1.7-0.8,2.2-2.5c0.5-1.8,2.3-10.4,2-13.8c-0.1-1.2-1.1-2.1-2.4-2c-1.2,0.1-2.1,1.2-2,2.4c0.2,2.1-0.9,8-1.5,10.9
	c-4.8-3.3-7.5-9.6-7.5-9.7C188.5,206,187.2,205.5,186.1,206"/>
<path class="st2" d="M208.5,246.6c-1.2,0.2-2,1.3-1.8,2.5c0.3,2.1-0.5,8-1,11c-4.9-3.1-8-9.2-8-9.3c-0.5-1.1-1.8-1.5-2.9-1
	s-1.5,1.9-1,3c0.2,0.3,4.1,8.3,10.9,11.8c0.5,0.3,1.2,0.6,1.9,0.6c0.3,0,0.7-0.1,1-0.2c0.6-0.2,1.7-0.8,2.1-2.6
	c0.4-1.8,1.8-10.5,1.3-13.9C210.7,247.3,209.6,246.4,208.5,246.6"/>
<path class="st2" d="M221.1,245c-1.1,0.5-1.5,1.9-1,3c0.2,0.3,4.1,8.3,10.9,11.8c0.5,0.3,1.2,0.6,1.9,0.6c0.3,0,0.7-0.1,1-0.2
	c0.6-0.2,1.7-0.8,2.1-2.6c0.4-1.8,1.8-10.5,1.3-13.9c-0.2-1.2-1.3-2-2.5-1.9c-1.2,0.2-2,1.3-1.8,2.5c0.3,2.1-0.5,8-1,11
	c-4.9-3.1-8-9.2-8-9.3C223.5,244.9,222.1,244.4,221.1,245"/>
<path class="st2" d="M252.8,239.4c0.3,2.1-0.4,8-1,11c-4.9-3.1-8-9.2-8-9.3c-0.5-1.1-1.8-1.5-2.9-1s-1.5,1.9-1,3
	c0.2,0.3,4.1,8.3,10.9,11.8c0.5,0.3,1.2,0.6,1.9,0.6c0.3,0,0.7-0.1,1-0.2c0.6-0.2,1.7-0.8,2.1-2.6s1.8-10.5,1.3-13.9
	c-0.2-1.2-1.3-2-2.5-1.9C253.5,237.1,252.6,238.2,252.8,239.4"/>
<path class="st2" d="M211.6,202.4c-1.1,0.5-1.6,1.8-1.1,2.9c0.1,0.3,3.7,8.5,10.3,12.4c0.5,0.4,1.2,0.7,2,0.7c0.3,0,0.5,0,0.8-0.1
	c0.6-0.2,1.7-0.8,2.2-2.5c0.5-1.8,2.3-10.4,2-13.8c-0.1-1.2-1.1-2.1-2.4-2c-1.2,0.1-2.1,1.2-2,2.4c0.2,2.1-0.9,8-1.5,10.9
	c-4.8-3.3-7.5-9.6-7.5-9.7C214,202.4,212.7,201.9,211.6,202.4"/>
<path class="st2" d="M249.5,193.5c0.2,2.1-0.9,8-1.5,10.9c-4.8-3.3-7.5-9.6-7.5-9.7c-0.5-1.1-1.8-1.6-2.9-1.1s-1.6,1.8-1.1,2.9
	c0.1,0.3,3.7,8.5,10.3,12.4c0.5,0.4,1.2,0.7,2,0.7c0.3,0,0.5,0,0.8-0.1c0.6-0.2,1.7-0.8,2.2-2.5c0.5-1.8,2.3-10.4,2-13.8
	c-0.1-1.2-1.2-2.1-2.4-2C250.2,191.2,249.4,192.3,249.5,193.5"/>
<path class="st2" d="M244.7,172.8c0.5,0.4,1.2,0.7,2,0.7c0.3,0,0.6,0,0.8-0.1c0.6-0.2,1.7-0.8,2.2-2.5c0.5-1.8,2.3-10.4,2-13.8
	c-0.1-1.2-1.1-2.1-2.4-2c-1.2,0.1-2.1,1.2-2,2.4c0.2,2.1-0.9,8-1.5,10.9c-4.8-3.3-7.5-9.6-7.5-9.7c-0.5-1.1-1.7-1.6-2.9-1.2
	c-1.1,0.5-1.6,1.8-1.1,2.9C234.6,160.7,238.1,168.9,244.7,172.8"/>
<path class="st2" d="M210.8,177.8c0.5,0.4,1.2,0.7,2,0.7c0.3,0,0.6,0,0.8-0.1c0.6-0.2,1.7-0.8,2.2-2.5c0.5-1.8,2.3-10.4,2-13.8
	c-0.1-1.2-1.1-2.1-2.4-2c-1.2,0.1-2.1,1.2-2,2.4c0.2,2.1-0.9,8-1.5,10.9c-4.8-3.3-7.5-9.6-7.5-9.7c-0.5-1.1-1.8-1.6-2.9-1.2
	c-1.1,0.5-1.6,1.8-1.1,2.9C200.7,165.8,204.2,174,210.8,177.8"/>
<path class="st2" d="M179.3,178c0.5,0.6,1.4,1.1,2.4,1.1c0.1,0,0.2,0,0.3,0c0.6-0.1,1.8-0.4,2.7-2c0.9-1.7,4.2-9.7,4.5-13.2
	c0.1-1.2-0.8-2.3-2-2.4s-2.3,0.8-2.4,2c-0.2,2.1-2.3,7.7-3.5,10.4c-4.1-4.2-5.6-10.9-5.6-11c-0.3-1.2-1.4-1.9-2.6-1.7
	c-1.2,0.3-1.9,1.4-1.6,2.6C171.6,164.2,173.5,172.9,179.3,178"/>
<path class="st2" d="M320.5,281.7L320.5,281.7c2.2,0.2,4.5,0.1,7-0.3c4.9-0.8,9.6-2.4,13-3.6l1-0.3c2.5-0.9,3.7-1.3,4.3-1.2
	c0.7,0,1.5-0.5,1.5-1.4c0.1-0.8-0.5-1.6-1.3-1.6c-1.4-0.1-3.4,0.6-6.4,1.7c-3.5,1.2-7.9,2.8-12.5,3.5c-1.3,0.2-2.7,0.3-4.1,0.3h-0.7
	v-0.7c0.1-1.8,0-4-0.3-6.6c-0.4-3.1,1.1-5.2,2.7-7.4c1.3-1.8,2.8-3.9,3-6.5c0.4-5.5,0.2-5.8-0.2-6.2c-0.3-0.3-0.7-0.5-1.1-0.5
	c-0.8,0-1.5,0.7-1.5,1.5c0,0.1,0,0.3,0.1,0.4c0,0.5,0,1.6-0.2,4.6c-0.1,1.8-1.2,3.2-2.4,4.9c-1.7,2.3-3.8,5.2-3.3,9.6
	c0.3,2.3,0.4,4.3,0.3,5.9v0.8l-0.8-0.1c-2.9-0.5-5.6-1.6-8.4-2.7l-0.4-0.1c-0.6-0.2-1.3-0.5-1.9-0.7c-6.3-2.4-11.8-11.2-11.8-11.3
	c-0.2-0.3-0.5-0.6-0.9-0.7s-0.8,0-1.1,0.2c-0.7,0.4-0.9,1.4-0.5,2.1c0.2,0.4,6,9.8,13.3,12.6c0.8,0.3,1.5,0.6,2.3,0.9
	C312.8,280,316.3,281.4,320.5,281.7L320.5,281.7z"/>
<path class="st2" d="M263.2,382.8c-5.6-2.3-16.6,0.8-17.9,1.1c-0.8,0.2-1.2,1.1-1,1.9s1.1,1.3,1.8,1c3.1-0.9,12-2.9,15.9-1.2
	c2,0.8,4,1.1,6,1h0.4l0.2,0.4c0.5,0.9,1.3,3,0.7,6.7c-0.4,2.8-0.9,4.4-1.1,5.5c-0.3,1.4-0.6,2.3-0.5,3.8c0,1.5,0.4,2.7,0.7,3.9
	c0.4,1.5,0.8,2.9,0.5,4.9c-0.1,0.8,0.4,1.6,1.2,1.7c0.9,0.1,1.6-0.4,1.7-1.2c0.4-2.6-0.1-4.5-0.6-6.2c-0.3-1.1-0.6-2-0.6-3.1
	c0-1,0.1-1.7,0.4-2.9s0.7-2.9,1.2-5.8c0.5-3,0.3-5.5-0.6-7.7l-0.3-0.6l0.6-0.3c1.6-0.7,3-1.5,4.1-2.1c0.6-0.3,1-0.6,1.3-0.8
	c3.4-1.8,12.9-2.1,17.4-2.3l1.6-0.1c4.9-0.2,12.1,0.5,12.4,0.5c0.4,0,0.8-0.1,1.1-0.3c0.3-0.3,0.5-0.6,0.5-1
	c0.1-0.8-0.5-1.6-1.3-1.7c-0.1,0-7.6-0.8-12.8-0.6l-1.6,0.1c-7.1,0.2-15,0.6-18.7,2.6c-0.5,0.2-0.9,0.5-1.5,0.8
	C271.9,382.5,268,384.9,263.2,382.8"/>
<path class="st2" d="M99.5,275.2L99.5,275.2c2.5,0.4,4.9,0.5,8,0.3c1.4-0.1,2.7-0.1,4-0.1c3.4,0,6.1,0.2,6.1,0.2
	c0.9,0,1.5-0.6,1.6-1.4s-0.5-1.6-1.3-1.6c-0.1,0-5.4-0.5-10.6-0.1c-1.1,0.1-2.2,0.1-3.2,0.1h-1.2l0.6-1c0.7-1.3,1.3-2.7,2-4.7
	c0.9-2.4,1.9-5.2,3.7-8.4c2.2-4,9.3-9.3,11.8-11c0.7-0.5,0.9-1.4,0.4-2.1c-0.2-0.3-0.6-0.6-0.9-0.6c-0.4-0.1-0.8,0-1.1,0.2
	c-0.4,0.3-9.8,6.6-12.8,12c-1.9,3.4-3,6.4-3.9,8.8c-1.2,3.2-1.9,5-3.3,6.1l-0.3,0.2l-0.3-0.1c-2.9-0.7-6.1-2-10.9-4.6
	c-8.8-4.7-9.4-11.1-9.5-11.2c0-0.9-0.7-1.6-1.5-1.6s-1.5,0.7-1.5,1.5c0,2.2,2,9,11,13.9c5.3,2.8,8.9,4.3,12.3,5
	C99.2,275.1,99.3,275.2,99.5,275.2"/>
<path class="st2" d="M147.9,379.6L147.9,379.6c-0.1,0-5.2-0.2-10.6,3.1c-4.5,2.7-10.2,3.1-15.2,3.2c-1.6,0-3-0.2-4.6-0.6
	c-2.6-0.5-5.4-1.1-9.3-0.6c-6.5,0.8-13.3,9.2-14,10.1c-0.5,0.7-0.4,1.6,0.2,2.1s1.6,0.4,2.1-0.2c0.1-0.1,6.6-8.3,12.1-9
	c0.8-0.1,1.6-0.1,2.4-0.1c0.2,0,0.4,0,0.6,0h0.6l0.1,0.6c0.3,2.5,1.3,7.3,3.7,11.2c2.6,4.1,5.4,6.6,7.9,8.8c0.8,0.7,1.6,1.4,2.4,2.1
	c0.6,0.5,1.5,0.5,2.1-0.1c0.6-0.6,0.5-1.6-0.1-2.1c-0.8-0.8-1.6-1.5-2.5-2.2c-2.5-2.2-5-4.4-7.3-8.1c-1.8-2.9-2.6-6.4-3.1-8.8
	l-0.2-1l1.7,0.3c1.8,0.4,3.6,0.6,5.3,0.6c5.4-0.1,11.6-0.6,16.6-3.6c4.2-2.5,8.2-2.7,8.9-2.7c0,0,0,0,0.1,0c0.8,0,1.5-0.7,1.5-1.4
	C149.4,380.3,148.7,379.6,147.9,379.6"/>
<path class="st2" d="M366.7,313.7c-2.2,4.1-8.9,6.4-19.9,6.8c-0.6,0-1,0-1.3,0.1c-3.1,0.3-3.5,2.9-3.9,4.9c-0.4,2.3-1,5.4-4.2,9.6
	c-4.2,5.4-15.1,4.7-24.7,4.1c-3.1-0.2-6.1-0.4-8.8-0.4c-12.9,0-22.3,7.7-26.7,14.9c-4.8,7.7-4,19-1.6,21.5c1.6,1.7,3.3,1.2,5.6,0.5
	c2.3-0.7,6.6-2,14.8-3.2c13-2,22.6,4.9,24.3,7.5c-1.3,1.7-7.2,5.4-15.8,7c-5.4,1-10.4-0.3-14.4-1.3c-3.2-0.8-5.7-1.5-7.9-0.9
	c-0.3,0.1-0.6,0.2-0.8,0.2c-1.6,0.4-3.5,0.9-4.5,2.9c-1.2,2.4-0.4,6.2,2.8,13.9c1.1,2.7,1.2,5.1,0.2,7.6c-2.2,5.2-8.6,8.5-11.2,9.6
	c-4.8-4-7.5-8.2-8-12.3c-0.5-4.5,1.8-7.6,2.3-8.2c2.1-2.6,2.1-5.2-0.1-7.7c-1.6-1.9-3.9-1.4-7.1-0.8c-2.7,0.5-6.3,1.3-11.6,1.4
	c-5.8,0.1-10.4-2.6-13.2-4.9c2.8-0.8,6.5-2.4,11.1-5.9c7.3-5.6,11-4.8,15.7-3.8c0.6,0.1,1.2,0.3,1.9,0.4c5,1,8.4,0.9,10.4-2.4
	c0.8-1.3,0.8-3.1,0.8-5.6c0-2.2,0-5,0.7-7.5c1.1-4.2,3-11.2-3.8-14.4c-5.9-2.7-21.5,1.1-33.5,4.9c-11.4,3.5-17.9,10.3-22.3,14.7
	c-1,1-1.8,1.9-2.6,2.6c-3.4,3.1-11.2,1.9-13.5,0.8c0.2-1.2,0.4-3.4-1.1-7.2c-1.8-4.6-5.2-7.2-7.5-8.5l0,0c5.5-9.5,13.6-8.3,13.9-8.3
	c0.9,0.2,1.8-0.3,2.3-1.1c0.4-0.8,0.3-1.8-0.3-2.5c-0.1-0.1-10.7-12.3-9.1-22.2c1.3,2.2,2.5,3.9,2.5,3.9c2.7,3.6,6.7,7.9,12.7,12.1
	c15.1,10.8,28.8,14.3,41.7,10.7c11.9-3.3,17.7-13.8,18.7-23.8c1.5-0.8,4.9-2.2,10.2-3.3c5.2-1,13.7-0.3,19.9,0.2
	c3,0.2,5.3,0.4,6.7,0.4c6.8-0.1,10.6-1.5,11.8-4.4c1.2-2.7-1.1-4.4-3.3-6c-2.2-1.6-5.3-3.9-8.1-8.1c-3.9-5.8-1-10.9,2-14.7l0.5-0.6
	c0.7-0.9,1.7-2.2,1-3.8c-0.7-1.8-2.7-2.6-9.5-3.9c-4.9-0.9-9.1-3.3-11.2-6.6c-0.9-1.3-1.8-3.4-1.2-5.8c1-4.5,1.1-9.7,1-12.9
	c10.4,3.1,16.1,8.6,19,12.6c1.2,3.2,3.1,5.6,3.2,5.7c0.7,0.8,1.8,1,2.7,0.5c0.9-0.5,1.3-1.6,1-2.6c-0.1-0.2-0.9-2.5-3-5.6
	c-0.9-2.9-0.4-5.2,1.6-6.9c5.4-4.6,10.5-10.9,12.6-13.5c2.3,1,7.1,4,8.6,11c1.4,6.6-3.1,10.3-7.2,12.8c-0.9,0.6-1.4,0.9-1.8,1.5
	c-0.5,0.9-0.4,1.9,0.2,2.7c1,1.3,2.7,1.1,4.2,0.7c0.1,0,0.2-0.1,0.3-0.1c14.6-5.8,25.4-3.6,30-2c-12.4,13.8-30.4,15-36.5,15.5
	c-0.7,0-1.3,0.1-1.7,0.1c-3.4,0.4-8,2.5-10.1,6.4c-1.1,2-1.9,5.4,0.3,9.9c4.3,8.6,12.4,12.6,26.4,13c10.3,0.3,21.6-8.9,26.2-13.1
	C367.7,307.3,368.1,311,366.7,313.7 M182.4,354.5c-2.9,5.6-4.1,12.1-4.6,15.9c-10.3-5.4-9-16.2-8.9-16.7c0.1-0.8-0.2-1.7-0.9-2.1
	c-0.7-0.5-1.6-0.5-2.3-0.1c-7.3,4.2-9.9,13.4-10.8,18.3c-6.6-4.5-7.2-11.3-7.3-11.9c0-1.1,0.5-17.5,17.5-19.9c1.2-0.2,2-1.3,1.9-2.5
	c-0.2-1.2-1.3-2.1-2.5-1.9c-15.1,2.1-19.4,13.6-20.7,20c-0.8-1.1-1.4-2.4-1.7-3c-6.8-14.1,2.5-20,2.8-20.2c0.1-0.1,0.1-0.1,0.2-0.2
	c0.1-0.1,0.2-0.1,0.2-0.2c10.9-11.2,36-12.3,36.3-12.3c0.9,0,1.6-0.6,1.9-1.4s0.1-1.7-0.4-2.4c-0.9-1-91.7-98.5-41.7-184.6
	c2.2-2,21.4-19.1,38.9-10.3c17.8,8.9,19.7,14.1,19.7,14.1l0,0c0.1,0.9,0.8,1.7,1.7,1.8c0.1,0,0.3,0,0.4,0c0.8,0,1.5-0.4,1.9-1.1
	c0.1-0.2,9.2-15.9,24.5-16.7c15.4-0.8,26.7,6.5,27.3,6.9c0.4,0.3,10.7,8.5,11.2,22.6c0.2,5-0.2,8.5-0.6,11.7
	c-0.7,6.5-1.2,10.8,5.1,18.5c7.1,8.7,5.4,14.1,4,18.3c-0.1,0.4-0.2,0.8-0.4,1.1c-0.3,0.9-0.7,1.9-1,2.9c-1.4,3.6-3.2,8.1-0.7,13.3
	c0.5,1,1.1,2,1.6,3c2.5,4.5,4.9,8.8,2.9,15.8c-1,3.7-2.3,6-3.4,8c-1.7,3.2-3.2,5.9-2,10.8c0.2,0.8,0.5,1.8,0.9,3
	c2.6,8.5,8,26.2-10.1,41.1c-11.1,9.2-26.6,5.2-37.6,0.2c-13.9-6.2-26.3-16.5-31.9-23.5c-10.9-13.4-27.8-44.2-31-70.5
	c-0.1-1.2-1.2-2.1-2.4-1.9c-1.2,0.1-2,1.3-1.9,2.5c3,24.7,18.6,56.4,31.9,72.8c6.1,7.6,18.9,18.1,33.5,24.7
	c10.7,4.8,25.3,8.7,37.4,2.3c2.3,5.2,3.2,9.6,3.8,17.9c0.5,7.4-2.1,20.8-15.6,24.5c-11.6,3.2-24.1-0.1-38.1-10
	c-12.4-8.8-15.7-18.1-15.8-18.1c-0.3-1-1.4-1.6-2.4-1.5h-0.1c-0.7,0-1.4,0.4-1.8,1c-5.6,9.7,1.4,21.8,5.6,27.7
	C192.9,343,186.6,345.7,182.4,354.5 M143.5,359.7c0.4,2.4,1.7,6.9,5.5,10.8c-3.6,0.2-7.9,1-13.1,3.1c-7.7,3.2-11.5,4.1-13.3,4.3
	C124.8,374.7,133.4,362.8,143.5,359.7 M160,378.1c-2.7,1.4-7,4.2-11.9,9.2c-5.7,5.8-20.5,5-25.7,4.3c-1.1-0.2-2,0.4-2.4,1.4
	s0,2.1,0.9,2.6c0.1,0.1,10.1,6.2,14.5,12c2.7,3.5-1.2,8-2.9,9.7c-21.1-3.9-20.7-19.5-20.7-20.2c0-0.9-0.5-1.8-1.3-2.1
	c-0.8-0.4-1.8-0.1-2.4,0.6c-7.8,8.8-17.1,9.8-21.1,9.7c0.5-4.1,1.9-12.9,4.6-17.7c3.1-5.4,14.4-7.3,18.4-7.6c4-0.3,6.6-4.1,9.6-8.6
	l0.7-1.1c3.4-4.9,7-16.6,0.6-22.4c-5.7-5.1-15.6-6.1-25.3-2.4c-7,2.6-10.4,11.1-11.8,15.9c-3.2-2.8-5.2-6.5-5.6-10.2
	c-0.3-2.7,1.6-5.5,2.9-7.5c0.6-0.9,1.2-1.8,1.5-2.5c0-0.1,0.1-0.2,0.1-0.3c0.2-0.3,0.7-1.1,0.5-2.2c-0.3-1.3-1-1.7-4.7-4.1
	c-1.8-1.1-4.5-2.8-8.3-5.3C56.9,320.6,46,308,43,303.6c-0.4-0.5-0.8-1.1-1.2-1.8c-2.7-3.8-6.4-9-4.4-14.5c1.7-4.5,9-8.5,13.6-10.6
	c1.4,7.7,7.2,29,28.1,38.7c0.7,0.4,7.4,3.6,11.1,4.3c0.8,0.1,1.7-0.2,2.1-0.9c0.5-0.7,0.5-1.6,0.1-2.4c-0.1-0.2-8.8-16.3-4.1-32.2
	c0.6-1.1,2-4.3,1-6.8c-0.5-1.2-1.5-2.1-2.8-2.5c-4.8-1.4-14.3-5.4-16.4-10.2c-2.5-5.9-2.4-7.1-0.7-10.7c1.3-2.9,2-5,2.4-6.4
	c3.5,1,10.8,4,16.7,12.1c1.4,1.8,3.9,4.8,4.6,5.4c1,0.8,2.3,1.1,3.5,0.7c1.1-0.4,1.8-1.3,2-2.4c0.1-0.6,0-1.1-0.1-2.1
	c-0.3-2.5-1-7.8,1.8-11.4c4.5-5.8,10.7-7.3,14-7.6c3.9-0.4,8.2-2.3,11-3.8c1.1,3.5,2.4,10-0.8,15.4c-4.7,7.8-12.7,10.3-12.8,10.3
	c-1.1,0.3-1.8,1.5-1.5,2.6c0.2,1.1,1.3,1.9,2.5,1.7c0.1,0,9.8-1.5,15,4.6c-1.2,2-4.8,6.5-13.8,7.7c-2.4-0.1-8.4-0.6-10.6-1
	c-3.5-0.8-5.8,1.5-6.5,3.9l-0.1,0.2c-2.9,6.5-10.7,28.6,10.6,42.3c1,0.8,6.9,4.8,17.4,1.4c7.5-2.4,11.6-6.4,14.2-9.1
	c0.9-0.9,1.9-1.8,2.3-2c1.6-0.7,6.6,0.3,8.3,1.2c-0.9,1.8-4.3,5.8-7.4,8.9c-1.9,1.3-12.1,9.3-4.3,25.5c0.1,0.3,0.8,2.1,2.2,4
	c-12.5,5.1-22,20.4-22.1,20.7c-1.2,2.2-0.6,3.6,0.1,4.4c1.4,1.6,4.1,2.7,19.2-3.5C150.5,372.4,157.2,375.7,160,378.1 M176.1,112.4
	c-5.1,0.3-11.5-10.7-12.6-27.1c-0.5-7.7,0.2-15,2.2-20.6c1.7-4.9,4.1-7.8,6.6-8c0.1,0,0.2,0,0.2,0c2.4,0,5.1,2.5,7.4,7
	c2.7,5.2,4.5,12.4,5,20.1C186,100.2,181.1,112,176.1,112.4 M231.5,106.2c-2.4,4.6-5.1,7.1-7.6,7c-5.1-0.4-9.9-12.2-8.8-28.6
	c0.5-7.7,2.3-14.9,5-20.1c2.3-4.5,5-7,7.4-7c0.1,0,0.2,0,0.2,0c5.1,0.4,9.9,12.2,8.8,28.6C235.9,93.8,234.2,101,231.5,106.2
	 M137.5,81.5c4-14.2,6-17.6,7.1-19.5c0.3-0.6,0.6-1.1,0.8-1.6c0.7-1.8,0.7-3.8,0-5.4c-0.7-1.5-1.8-2.5-3.3-3
	c-0.1,0-13.6-5.2-11.2-17.3c0.8-3.9,2.7-4.8,4.1-5.1c4.7-1.1,11.9,3,13.4,5c3.5,4.7,7.7,6.4,11.1,4.6c0.5-0.3,1.1-0.7,2.1-1.5
	c1.4-1,3.5-2.6,6.1-4.2c2.3-1.3,10-5.3,16.6-0.2c8.3,6.5,11.2,14.7,11.2,14.8c0.3,0.9,1.1,1.5,2.1,1.5c0,0,0,0,0.1,0
	c1,0,1.8-0.7,2-1.6c0-0.1,3-10.9,11.1-14.3c9-3.9,15.3-3.6,23.2,0.9l0,0c6.6,4,8.7,4.8,12,2.7c5.7-3.7,11-4.4,15.4-2
	c1.7,0.9,3.8,2.4,4,4.3c0.1,1.8-1.4,4.1-4.3,6.3c-6.3,4.8-8,11.4-5.1,19.6c2.2,6.3,8.6,28.3,0.1,53.6c-3.4-1.9-10.4-5-19.4-5.9
	c-0.2-0.1-0.3-0.5,0-0.6c1.6-0.9,3.7-0.6,5.5-0.4s3.7,0.5,4-1.3c0.4-2.3-2.5-2.9-5.2-3.3c-0.5-0.1-1.1-0.2-1.6-0.3h-0.1
	c-0.2,0-1.3-0.5-1.1-1.5c0.3-2,2.9-1.1,4.2-1c0.9,0.1,2.2,0.2,2.9,0.1c1.4-0.2,1.9-0.9,2-1.3c0.2-0.6,0.1-1.3-0.3-1.8
	c-0.6-0.7-1.5-1.1-2.5-0.9c-1.1,0.2-3.4-0.3-3.8-2c-0.2-0.9-0.1-1.8,0.4-2.4c0.3-0.4,0.6-0.6,1-0.7c0.4,0,1.3,0.1,2,0.3
	c2.1,0.4,4.5,0.8,5.1-1c0.2-0.5,0.1-1-0.1-1.4c-0.6-0.9-1.8-1.1-3.3-1.3c-1-0.1-3.9-0.9-3.9-3c0-1.9,2.9-1.9,3.5-2
	c3.5-0.2,4.3-0.3,4.7-1.2c0.2-0.4,0.1-0.9-0.1-1.2c-0.4-0.7-1.3-0.8-3.5-1c-0.9-0.1-2.5-0.3-2.8-0.5c-0.6-0.4-1.5-1.4-1.4-2.6
	c0.1-0.9,1.5-1.6,2.1-1.6c0.2,0,0.4,0,0.7-0.1c2.7-0.2,4.7-0.5,5.1-1.9c0.1-0.4,0-0.8-0.2-1.2c-0.6-0.8-1.8-0.8-3.6-0.9
	c-0.9,0-4.6-0.1-5-1.5c-0.4-1.3,4.3-1.6,5.1-2l0.3-0.2c1.2-0.8,2.2-1.3,1.9-2.4c-0.3-1-1.5-1-2.3-1s-4.9,1.1-5.1,0.4
	c-0.9-2.2,1.8-2.8,1.8-2.8c1.5-0.8,3.5-1.7,3.5-3.5c0-0.6-0.2-1.1-0.7-1.4c-1-0.7-2.5-0.2-3.5,0.2c0,0-3.1,1.2-3.5,0.4
	c-1.2-1.8,2.1-3.6,3-4.1c1.6-1,2.4-1.5,2.3-2.4c0-0.4-0.4-0.9-0.8-1.1c-0.9-0.4-1.9,0.1-2.8,0.6c-0.6,0.3-5.2,1.7-5.7,0.5
	c-0.4-0.7,2.1-2.6,2.9-3.3c0.9-0.7,1.6-1.3,1.7-2.1c0.1-0.3,0.2-1.1-0.3-1.6c-0.6-0.6-1.5-0.5-3.3-0.1c-6.2,1.2-11.4,4.3-15.3,9.1
	c-0.1,0.2-0.3,0.3-0.4,0.4c-0.1,0.1-0.2,0.2-0.3,0.3c-1.2,1.4-2.3,3.1-3.4,5.1c-3,5.8-4.9,13.5-5.5,21.8c-1,14.2,2.1,26,7.6,30.8
	c-7.8,3.5-13.3,9.8-16,13.5c-2.5-3-8-7.6-20-13.7c-0.3-0.1-0.6-0.3-0.9-0.4c5.6-4.8,8.7-16.6,7.8-31c-0.5-7.4-2.1-14.3-4.5-19.7
	c0-0.2,0-0.3-0.1-0.5c-0.3-0.5-0.6-1-0.8-1.5v-0.1c-0.2-0.3-0.3-0.6-0.5-0.9c-0.1-0.2-0.2-0.5-0.4-0.7c-1.1-1.9-2.4-3.5-3.7-4.7
	c-3.9-4.1-8.7-6.7-14.5-7.8c-1.8-0.3-2.7-0.5-3.3,0.1c-0.5,0.6-0.4,1.3-0.3,1.6c0.2,0.8,0.9,1.4,1.8,2.1c0.8,0.7,3.5,2.5,2.9,3.3
	c-1.2,1.9-5.1-0.2-5.8-0.5c-0.9-0.5-1.8-1-2.8-0.6c-0.4,0.2-0.8,0.7-0.8,1.1c-0.1,1,0.7,1.4,2.4,2.4c0.9,0.5,2.2,1.4,2.6,1.9
	c0.5,0.7,0.9,0.9,0.1,2.4c-0.4,0.8-3.3-0.5-3.3-0.5c-1.1-0.4-2.6-0.9-3.6-0.2c-0.4,0.3-0.7,0.8-0.7,1.4c0,1.8,2,2.7,3.5,3.5
	c0,0,2.2,1,2,2.2c-0.2,1-1.8,0.5-2.6,0.4c-1-0.1-2-0.2-2.7-0.2c-0.8,0-2.1,0-2.4,1.1c-0.3,1,0.6,1.6,1.9,2.4l0.3,0.2
	c0.7,0.5,1.7,0.8,2.7,1c0.8,0.2,2.5,0.2,2.4,0.9c0.1,1-4.2,1.6-5.1,1.6c-1.8,0-3,0.1-3.6,0.9c-0.2,0.3-0.3,0.8-0.2,1.2
	c0.4,1.4,2.5,1.7,5.2,1.9c0.3,0,3.6,0.5,3.6,2.4c0.1,1.9-4.1,2.2-5.1,2.3c-2.3,0.3-3.1,0.4-3.6,1c-0.2,0.3-0.3,0.9-0.1,1.2
	c0.4,0.8,1.3,1,4.7,1.2c0.6,0,1.2,0.1,1.5,0.1c0.8,0.1,2,1.2,2,1.7v0.4c-0.1,1-0.1,1.4-1.2,2.1c-0.6,0.3-1.7,0.5-2.7,0.6
	c-1.6,0.2-2.8,0.4-3.4,1.3c-0.3,0.4-0.3,0.9-0.1,1.4c0.6,1.8,3,1.4,5.1,1c0.8-0.1,1.6-0.3,2-0.3s1.3,0.3,1.4,1.5
	c0,0.8,1,2.8-3.8,3.5c-1,0.1-2,0.2-2.5,0.9c-0.4,0.5-0.5,1.2-0.3,1.8c0.2,0.5,0.7,1.1,2,1.3c0.7,0.1,1.6,0.1,2.4,0.2
	c1.2,0.1,4.2-0.5,4.4,1.4c0.1,0.6-1.9,1-2.5,1.2c-2.2,0.4-4.1,0.8-4.9,1.9c-0.3,0.4-0.4,0.9-0.3,1.4c0.3,1.7,2.2,1.5,4.1,1.3
	c1.8-0.2,4-0.5,5.6,0.4c0.2,0.1,0.3,0.2,0.3,0.2c-10.2,1.8-18.9,8-23.1,11.5C138.7,116.1,133.6,95.4,137.5,81.5 M196.7,24.5
	c8,0.4,14.4,1.3,19.6,2.6c-2.3,0.5-4.7,1.3-7.3,2.4c-6.1,2.6-9.7,8.2-11.7,12.3c-1.9-3.4-5.2-8-10.5-12.1c-1.9-1.5-3.8-2.4-5.7-2.9
	C185.9,25.2,191.1,24.2,196.7,24.5 M366.1,296.9c-0.7-0.1-1.3,0.2-1.8,0.6c-0.1,0.1-13.9,14-25.1,13.8c-12.3-0.4-19.1-3.5-22.7-10.6
	c-1.1-2.2-1.2-4.1-0.4-5.7c1.3-2.3,4.4-3.9,6.7-4.1c0.4,0,0.9-0.1,1.5-0.1c6.9-0.5,28-1.9,41.5-19.4c0.4-0.5,0.5-1.2,0.4-1.8
	s-0.5-1.2-1.1-1.5c-0.5-0.3-11.2-6.2-28.6-1.8c2.2-2.8,3.7-6.8,2.6-11.9c-2.6-11.9-12.6-14.7-13.1-14.8c-0.8-0.2-1.7,0.1-2.3,0.8
	c-0.1,0.1-6.4,8.5-13,14.1c-1.7,1.4-2.8,3.2-3.3,5.1c-4.3-4.1-10.7-8.2-20.4-10.5c-0.7-0.2-1.4,0-1.9,0.5s-0.8,1.2-0.7,1.9
	c0,0.1,0.8,8.3-0.7,14.6c-0.7,3.1-0.1,6.3,1.8,9.2c2.8,4.3,7.9,7.4,14.1,8.5c2.8,0.5,4.5,0.9,5.4,1.2l0,0c-5.6,7.2-6.3,13.9-2.1,20
	c3.3,4.8,6.8,7.4,9.1,9.1c0.5,0.4,1,0.8,1.4,1.1c-0.8,0.5-2.7,1.2-7.4,1.3c-1.3,0-3.6-0.2-6.3-0.4c-6.4-0.5-15.3-1.3-21-0.1
	c-4.1,0.8-7.2,1.9-9.3,2.7c0-0.1,0-0.3,0-0.4c-0.7-9-1.8-14-4.5-19.9c0.3-0.3,0.7-0.5,1-0.8c20.4-16.8,14.2-37.1,11.5-45.9
	c-0.3-1.1-0.6-2-0.8-2.8c-0.8-3.2,0-4.7,1.6-7.6c1.2-2.1,2.6-4.8,3.8-9c2.5-8.8-0.7-14.6-3.3-19.2c-0.5-0.9-1-1.9-1.5-2.8
	c-1.7-3.4-0.5-6.3,0.8-9.7c0.4-1,0.8-2.1,1.2-3.2l0.3-1.1c1.4-4.5,3.8-11.9-4.8-22.5c-5.1-6.3-4.8-9.1-4.1-15.2
	c0.4-3.1,0.8-7,0.6-12.4c-0.5-13.5-8.5-22-11.7-24.9c9.5-27.1,2.6-50.9,0.2-57.6c-2.2-6.3-1.1-11,3.6-14.6c4.2-3.2,6.3-6.8,6-10.2
	c-0.3-3.1-2.4-5.7-6.3-7.8c-4.1-2.2-10.8-3.5-19.7,2.2c-1,0.7-1.4,0.9-8-3.1c-6.9-4.3-17.5-9.3-38.7-10.3c-17.8-0.8-32.4,10-37.9,14
	c-0.7,0.5-1.4,1-1.6,1.1c-1.1,0.6-3.3-0.4-5.6-3.4c-2.4-3.1-11.1-8.2-17.8-6.6c-2.7,0.6-6.2,2.6-7.4,8.5
	c-2.6,13.5,9.6,20.9,14.1,22.4c0.3,0.1,0.6,0.3,0.7,0.7c0.2,0.5,0.2,1.2,0,1.9c-0.2,0.4-0.3,0.7-0.6,1.1c-1.1,2-3.3,5.8-7.5,20.5
	c-4.8,16.9,2.4,42,4.1,47.3c-21,36.7-20.4,81,1.9,128.2c13.3,28.1,30.8,49.7,37.7,57.7c-5.4,0.6-14.7,2-23.1,5.7
	c0.9-2,0.4-2.8,0.1-3.3c-1.7-3.1-10.6-4.9-14.1-3.5c-1.3,0.5-2.4,1.6-3.7,3c-2.5,2.5-6,5.9-12.5,8c-9,2.9-13.2-0.5-13.4-0.7
	c-0.1-0.1-0.2-0.1-0.3-0.2c-18-11.5-12.3-29.6-9.1-36.8c0.2-0.4,0.2-0.6,0.3-0.6c0.4-1.3,1-1.1,1.4-1c3,0.7,11.1,1.1,11.5,1.2
	c0.1,0,0.3,0,0.4,0c14.5-1.8,17.9-11.2,18.1-11.6c0.2-0.7,0.1-1.4-0.3-2c-3-4.5-7.4-6.4-11.3-7.2c2.6-1.9,5.4-4.6,7.6-8.2
	c5.8-9.6,0.3-21.5,0.1-22c-0.3-0.6-0.9-1.1-1.6-1.2c-0.7-0.1-1.4,0.1-1.9,0.5c-0.8,0.7-6.2,3.9-11,4.4c-4,0.4-11.5,2.2-17,9.3
	c-3,4-3.2,8.9-2.9,12.3c-0.7-0.8-1.4-1.7-2-2.5c-9.2-12.8-21.3-14.3-21.8-14.3c-0.7-0.1-1.4,0.1-1.9,0.7s-0.6,1.3-0.5,2
	c0,0,0.1,1.5-2.3,6.8s-2,7.9,0.7,14.3c3.2,7.6,16.5,12,19.1,12.7c0.2,0.5-0.3,2.1-0.9,3.2c-0.1,0.1-0.1,0.3-0.2,0.4
	c-3.8,12.5-0.3,24.7,2.3,31.2c-2.2-0.9-4.5-1.9-5.6-2.5c-23-10.7-26-37.8-26-38c-0.1-0.7-0.4-1.3-1-1.6c-0.6-0.4-1.3-0.4-1.9-0.2
	c-1.6,0.6-15.6,5.8-18.7,14.2c-2.9,7.8,1.9,14.3,5,18.7c0.4,0.6,0.8,1.1,1.2,1.6c3.2,4.8,14.4,17.8,28.4,26.9
	c3.8,2.5,6.5,4.2,8.3,5.4c0.9,0.5,1.6,1,2.2,1.4c-0.2,0.4-0.6,0.9-0.9,1.5c-1.6,2.4-4,6-3.6,10.4c0.6,5.9,4.4,11.8,10.1,15.4
	c0.6,0.4,1.4,0.4,2,0.1c0.7-0.3,1.1-0.9,1.3-1.6c0-0.1,2.4-13.1,9.8-15.9c8.2-3.1,16.4-2.4,20.9,1.6c4.1,3.7,1.4,12.8-1.2,16.6
	l-0.7,1.1c-2.3,3.4-4.4,6.6-6.3,6.7c-1.7,0.1-17.1,1.4-21.9,9.8c-4.2,7.2-5.4,21.2-5.4,21.8c-0.1,1.2,0.7,2.2,1.8,2.4
	c0.6,0.1,12.8,1.9,23.9-7.8c1.5,6.4,6.6,17.2,24.8,20.1c0.1,0,0.2,0,0.3,0c0.5,0,1-0.2,1.4-0.5c3.5-3,9-10.3,4.2-16.5
	c-2.3-3-5.8-6-8.9-8.4c6.8,0,16.1-0.9,21.2-6.1c7.3-7.4,13.1-9.5,13.1-9.5c0.6-0.2,1.1-0.7,1.3-1.3c0.2-0.6,0.2-1.3-0.2-1.9
	c-0.2-0.3-2.1-3.4-6.7-5.5c0.4-2.8,1.7-9.8,5.8-14.3c0.6,5.4,3.4,13.8,14.3,17.8c0.2,0.1,0.5,0.1,0.7,0.1c0.4,0,0.8-0.1,1.2-0.4
	c0.6-0.4,0.9-1,1-1.7c0-0.1,0.5-8.1,3.4-15.1c1.7,0.9,4.2,2.8,5.5,6.2c1.1,2.9,0.9,4.2,0.8,5.1c-0.2,1.4-0.2,3,2,4.2
	c3.1,1.8,13.5,3.5,18.7-1.3c0.9-0.8,1.8-1.7,2.8-2.8c4.3-4.4,10.2-10.4,20.5-13.6c18.2-5.7,27.7-6.3,30.4-5.1c2.7,1.3,3,3.2,1.4,9.2
	c-0.8,3-0.8,6.1-0.8,8.6c0,1.3,0,3-0.2,3.4c-0.3,0.5-0.8,1.4-5.9,0.4c-0.6-0.1-1.2-0.2-1.8-0.4c-5.1-1.1-10.4-2.3-19.2,4.6
	c-8,6.2-13,5.6-13,5.6c-0.9-0.2-1.8,0.3-2.3,1.1c-0.5,0.8-0.4,1.8,0.2,2.5c0.3,0.4,8,9.7,19.9,9.6c5.7-0.1,9.8-0.9,12.4-1.4
	c1.2-0.2,2.6-0.5,3.1-0.5c0.6,0.7,0.6,0.8-0.2,1.8c-0.9,1.2-4,5.4-3.3,11.5c0.6,5.6,4.2,11,10.6,16.1c0.4,0.3,0.9,0.5,1.3,0.5
	c0.3,0,0.5,0,0.7-0.1c0.5-0.2,11.3-4.3,14.8-12.5c1.5-3.5,1.4-7.2-0.2-11.1c-3.6-8.5-3.1-10-2.9-10.3c0.2-0.2,1.1-0.4,1.6-0.6
	c0.3-0.1,0.6-0.2,1-0.3c1-0.3,3.2,0.3,5.6,0.9c4.2,1.1,9.9,2.5,16.3,1.4c8.9-1.6,19.1-6.6,19.5-11.1c0.1-1.4-0.7-2.9-2.5-4.6
	c-3.9-3.7-13.9-9.5-26.9-7.5c-8.5,1.3-13,2.6-15.4,3.3c-0.5,0.2-1,0.3-1.4,0.4c-0.8-2.2-1.3-10,2.3-15.8c3.8-6.2,11.9-12.8,23-12.8
	c2.6,0,5.5,0.2,8.5,0.4c10.7,0.7,22.8,1.5,28.4-5.8c3.8-5,4.6-9.1,5-11.5c0.1-0.4,0.2-1,0.3-1.3c0.2,0,0.5,0,0.8,0
	c4.7-0.2,19.1-0.6,23.6-9.1c2.5-4.6,1.5-10.7-2.8-17.9C367.3,297.3,366.8,296.9,366.1,296.9"/>
<circle class="st2" cx="174.2" cy="85.6" r="8.4"/>
<circle class="st2" cx="225.9" cy="85.6" r="8.4"/>
</svg>
