<?xml version="1.0" encoding="utf-8"?>
<!-- Generator: Adobe Illustrator 13.0.0, SVG Export Plug-In . SVG Version: 6.00 Build 14948)  -->
<!DOCTYPE svg PUBLIC "-//W3C//DTD SVG 1.1//EN" "http://www.w3.org/Graphics/SVG/1.1/DTD/svg11.dtd">
<svg version="1.1" id="Ebene_1" xmlns="http://www.w3.org/2000/svg" xmlns:xlink="http://www.w3.org/1999/xlink" x="0px" y="0px"
	 width="402.374px" height="402.362px" viewBox="0 0 402.374 402.362" enable-background="new 0 0 402.374 402.362"
	 xml:space="preserve">
<path fill-rule="evenodd" clip-rule="evenodd" fill="#FFFFFF" d="M26.119,201.181c0-96.691,78.383-175.061,175.062-175.061
	c96.691-0.004,175.073,78.37,175.073,175.061s-78.382,175.061-175.073,175.061C104.502,376.242,26.119,297.872,26.119,201.181"/>
<g>
	<defs>
		<rect id="SVGID_1_" x="0.06" y="0.002" width="402.314" height="402.36"/>
	</defs>
	<clipPath id="SVGID_2_">
		<use xlink:href="#SVGID_1_"  overflow="visible"/>
	</clipPath>
	<path clip-path="url(#SVGID_2_)" fill="#EE2227" d="M0,201.181C0,145.627,22.519,95.333,58.925,58.926
		C95.333,22.518,145.631,0,201.181,0h0.006c55.553,0,105.848,22.517,142.257,58.923c36.345,36.342,58.827,86.631,58.827,142.252
		h0.103v0.006c0,55.555-22.521,105.849-58.929,142.256c-36.41,36.408-86.709,58.925-142.264,58.925
		c-55.551,0-105.848-22.518-142.256-58.926C22.519,307.029,0,256.735,0,201.181 M95.86,95.861
		c-26.951,26.951-43.621,64.186-43.621,105.32c0,41.133,16.67,78.37,43.621,105.32c26.953,26.952,64.19,43.622,105.321,43.622
		c41.136,0,78.376-16.67,105.33-43.621c26.953-26.95,43.624-64.188,43.624-105.321v-0.006h0.102
		c-0.001-41.064-16.711-78.304-43.727-105.318c-26.953-26.95-64.189-43.618-105.323-43.618h-0.006
		C160.05,52.239,122.813,68.909,95.86,95.861z"/>
</g>
<path fill-rule="evenodd" clip-rule="evenodd" fill="#211E1F" d="M60.672,201.181c0-77.606,62.903-140.513,140.509-140.513
	s140.51,62.907,140.51,140.513S278.787,341.69,201.181,341.69S60.672,278.787,60.672,201.181"/>
<path fill="none" stroke="#211E1F" stroke-width="0.577" stroke-miterlimit="3.864" d="M60.672,201.181
	c0-77.606,62.903-140.513,140.509-140.513s140.51,62.907,140.51,140.513S278.787,341.69,201.181,341.69
	S60.672,278.787,60.672,201.181z"/>
<path fill-rule="evenodd" clip-rule="evenodd" fill="#FFFFFF" d="M194.899,88.578c0,0,1.757,0,3.225-2.346
	c1.745-2.779,2.355-4.99,2.355-4.99s1.209,3.265,3.224,5.28c2.015,2.024,3.222,2.354,3.222,2.354s-2.571,0.302-4.587,1.738
	c-2.015,1.435-2.015,2.882-2.015,2.882s0-0.867-1.447-2.592C197.441,89.178,194.899,88.578,194.899,88.578"/>
<path fill="none" stroke="#FFFFFF" stroke-width="0.287" stroke-miterlimit="3.864" d="M194.899,88.578c0,0,1.757,0,3.225-2.346
	c1.745-2.779,2.355-4.99,2.355-4.99s1.209,3.265,3.224,5.28c2.015,2.024,3.222,2.354,3.222,2.354s-2.571,0.302-4.587,1.738
	c-2.015,1.435-2.015,2.882-2.015,2.882s0-0.867-1.447-2.592C197.441,89.178,194.899,88.578,194.899,88.578z"/>
<path fill-rule="evenodd" clip-rule="evenodd" fill="#FFFFFF" d="M187.934,128.905c0-5.404,4.393-9.785,9.797-9.785
	s9.786,4.381,9.786,9.785s-4.382,9.794-9.786,9.794S187.934,134.309,187.934,128.905"/>
<path fill="none" stroke="#FFFFFF" stroke-width="0.287" stroke-miterlimit="3.864" d="M187.934,128.905
	c0-5.404,4.393-9.785,9.797-9.785s9.786,4.381,9.786,9.785s-4.382,9.794-9.786,9.794S187.934,134.309,187.934,128.905z"/>
<path fill-rule="evenodd" clip-rule="evenodd" fill="#FFFFFF" d="M175.557,95.789c6.335-5.465,10.013-6.23,14.114-5.755
	c4.888,0.58,9.683,3.122,8.637,5.477c-1.157,2.583-1.157-0.29-5.764-0.577c-4.61-0.29-3.74-0.58-5.755,1.435
	c-2.016,2.015-1.529,3.678-4.03,5.764c-3.462,2.873-3.462,1.147-6.912,2.296c-3.184,1.063-5.188,2.882-5.477,5.187
	c-0.279,2.302,1.736,8.057,1.736,8.057s-4.32-0.29-5.477-3.74c-1.145-3.451-2.636-3.814,0-8.637
	C170.091,98.961,169.225,101.266,175.557,95.789"/>
<path fill="none" stroke="#FFFFFF" stroke-width="0.287" stroke-miterlimit="3.864" d="M175.557,95.789
	c6.335-5.465,10.013-6.23,14.114-5.755c4.888,0.58,9.683,3.122,8.637,5.477c-1.157,2.583-1.157-0.29-5.764-0.577
	c-4.61-0.29-3.74-0.58-5.755,1.435c-2.016,2.015-1.529,3.678-4.03,5.764c-3.462,2.873-3.462,1.147-6.912,2.296
	c-3.184,1.063-5.188,2.882-5.477,5.187c-0.279,2.302,1.736,8.057,1.736,8.057s-4.32-0.29-5.477-3.74
	c-1.145-3.451-2.636-3.814,0-8.637C170.091,98.961,169.225,101.266,175.557,95.789z"/>
<path fill-rule="evenodd" clip-rule="evenodd" fill="#FFFFFF" d="M191.964,96.658c3.752,1.157,6.344,0.867,6.054,7.771
	c-0.287,6.912-1.444,12.676-1.444,12.676s-2.015-0.29-4.888,1.438c-2.882,1.725-5.187,4.607-5.187,4.607s-10.363-2.015-12.378-5.767
	c-0.735-1.362-1.157-5.755-0.289-8.347c0.898-2.698,7.201-2.583,9.785-4.32C186.209,102.991,188.804,96.658,191.964,96.658"/>
<path fill="none" stroke="#FFFFFF" stroke-width="0.287" stroke-miterlimit="3.864" d="M191.964,96.658
	c3.752,1.157,6.344,0.867,6.054,7.771c-0.287,6.912-1.444,12.676-1.444,12.676s-2.015-0.29-4.888,1.438
	c-2.882,1.725-5.187,4.607-5.187,4.607s-10.363-2.015-12.378-5.767c-0.735-1.362-1.157-5.755-0.289-8.347
	c0.898-2.698,7.201-2.583,9.785-4.32C186.209,102.991,188.804,96.658,191.964,96.658z"/>
<path fill-rule="evenodd" clip-rule="evenodd" fill="#FFFFFF" d="M159.386,139.766c-3.245-7.721-2.841-11.461-1.115-15.201
	c2.055-4.484,5.951-8.245,7.872-6.529c2.109,1.901-0.629,1.011-2.334,5.298c-1.696,4.3-1.705,3.381-0.405,5.923
	c1.292,2.542,3.02,2.592,4.227,5.62c1.675,4.174,0.032,3.638,0.061,7.276c0.024,3.356,1.137,5.825,3.237,6.806
	c2.097,0.981,8.204,0.85,8.204,0.85s-1.614,4.018-5.249,4.05c-3.65,0.021-4.443,1.321-8.227-2.676
	C160.71,145.942,162.632,147.471,159.386,139.766"/>
<path fill="none" stroke="#FFFFFF" stroke-width="0.287" stroke-miterlimit="3.864" d="M159.386,139.766
	c-3.245-7.721-2.841-11.461-1.115-15.201c2.055-4.484,5.951-8.245,7.872-6.529c2.109,1.901-0.629,1.011-2.334,5.298
	c-1.696,4.3-1.705,3.381-0.405,5.923c1.292,2.542,3.02,2.592,4.227,5.62c1.675,4.174,0.061,3.638,0.061,7.276
	c0,3.356,1.137,5.825,3.237,6.806c2.097,0.981,8.204,0.85,8.204,0.85s-1.614,4.018-5.249,4.05c-3.65,0.021-4.443,1.321-8.227-2.676
	C160.71,145.942,162.632,147.471,159.386,139.766z"/>
<path fill-rule="evenodd" clip-rule="evenodd" fill="#FFFFFF" d="M165.276,124.421c2.252-3.204,2.78-5.755,9.267-3.348
	c6.478,2.408,11.604,5.281,11.604,5.281s-0.899,1.828-0.143,5.103c0.753,3.265,2.779,6.355,2.779,6.355s-5.125,9.226-9.299,9.99
	c-1.529,0.279-5.84-0.682-8.04-2.302c-2.293-1.695-0.237-7.647-1.074-10.655C169.523,131.849,164.304,127.426,165.276,124.421"/>
<path fill="none" stroke="#FFFFFF" stroke-width="0.287" stroke-miterlimit="3.864" d="M165.276,124.421
	c2.252-3.204,2.78-5.755,9.267-3.348c6.478,2.408,11.604,5.281,11.604,5.281s-0.899,1.828-0.143,5.103
	c0.753,3.265,2.779,6.355,2.779,6.355s-5.125,9.226-9.299,9.99c-1.529,0.279-5.84-0.682-8.04-2.302
	c-2.293-1.695-0.237-7.647-1.074-10.655C169.523,131.849,164.304,127.426,165.276,124.421z"/>
<path fill-rule="evenodd" clip-rule="evenodd" fill="#FFFFFF" d="M196.202,168.727c-8.339,0.702-11.771-0.838-14.797-3.638
	c-3.626-3.337-6.004-8.213-3.772-9.496c2.449-1.426,0.756,0.911,4.32,3.846c3.553,2.943,2.686,2.665,5.506,2.22
	c2.812-0.445,3.389-2.068,6.643-2.285c4.484-0.299,3.474,1.096,6.944,2.191c3.204,1.014,5.891,0.724,7.472-0.969
	c1.591-1.697,3.336-7.545,3.336-7.545s3.328,2.779,2.232,6.253c-1.096,3.47-0.114,4.628-5.072,6.983
	C202.493,169.376,204.541,168.023,196.202,168.727"/>
<path fill="none" stroke="#FFFFFF" stroke-width="0.287" stroke-miterlimit="3.864" d="M196.202,168.727
	c-8.339,0.702-11.771-0.838-14.797-3.638c-3.626-3.337-6.004-8.213-3.772-9.496c2.449-1.426,0.756,0.911,4.32,3.846
	c3.553,2.943,2.686,2.665,5.506,2.22c2.812-0.445,3.389-2.068,6.643-2.285c4.484-0.299,3.474,1.096,6.944,2.191
	c3.204,1.014,5.891,0.724,7.472-0.969c1.591-1.697,3.336-7.545,3.336-7.545s3.328,2.779,2.232,6.253
	c-1.096,3.47-0.114,4.628-5.072,6.983C202.493,169.376,204.541,168.023,196.202,168.727z"/>
<path fill-rule="evenodd" clip-rule="evenodd" fill="#FFFFFF" d="M183.429,158.384c-2.346-3.131-4.618-4.422-0.319-9.847
	c4.296-5.424,8.608-9.404,8.608-9.404s1.468,1.418,4.815,1.717c3.336,0.289,6.892-0.683,6.892-0.683s7.199,7.717,6.631,11.935
	c-0.205,1.538-2.448,5.342-4.669,6.92c-2.325,1.665-7.346-2.126-10.456-2.251C191.809,156.636,185.992,160.244,183.429,158.384"/>
<path fill="none" stroke="#FFFFFF" stroke-width="0.287" stroke-miterlimit="3.864" d="M183.429,158.384
	c-2.346-3.131-4.618-4.422-0.319-9.847c4.296-5.424,8.608-9.404,8.608-9.404s1.468,1.418,4.815,1.717
	c3.336,0.289,6.892-0.683,6.892-0.683s7.199,7.717,6.631,11.935c-0.205,1.538-2.448,5.342-4.669,6.92
	c-2.325,1.665-7.346-2.126-10.456-2.251C191.809,156.636,185.992,160.244,183.429,158.384z"/>
<path fill-rule="evenodd" clip-rule="evenodd" fill="#FFFFFF" d="M235.124,142.668c-1.901,8.142-4.435,10.931-8.028,12.945
	c-4.299,2.42-9.662,3.173-10.198,0.651c-0.589-2.768,1.096-0.443,4.991-2.911c3.895-2.481,3.367-1.737,3.811-4.558
	c0.456-2.812-0.92-3.863-0.123-7.026c1.106-4.361,2.117-2.964,4.246-5.919c1.954-2.739,2.502-5.384,1.374-7.411
	c-1.116-2.035-6.136-5.506-6.136-5.506s3.667-2.305,6.622-0.187c2.967,2.12,4.37,1.532,5.084,6.985
	C237.695,136.88,237.033,134.517,235.124,142.668"/>
<path fill="none" stroke="#FFFFFF" stroke-width="0.287" stroke-miterlimit="3.864" d="M235.124,142.668
	c-1.901,8.142-4.435,10.931-8.028,12.945c-4.299,2.42-9.662,3.173-10.198,0.651c-0.589-2.768,1.096-0.443,4.991-2.911
	c3.895-2.481,3.367-1.737,3.811-4.558c0.456-2.812-0.92-3.863-0.123-7.026c1.106-4.361,2.117-2.964,4.246-5.919
	c1.954-2.739,2.502-5.384,1.374-7.411c-1.116-2.035-6.136-5.506-6.136-5.506s3.667-2.305,6.622-0.187
	c2.967,2.12,4.37,1.532,5.084,6.985C237.695,136.88,237.033,134.517,235.124,142.668z"/>
<path fill-rule="evenodd" clip-rule="evenodd" fill="#FFFFFF" d="M221.341,151.616c-3.699,1.259-5.633,3.016-9.454-2.739
	c-3.834-5.764-6.283-11.097-6.283-11.097s1.799-0.949,3.111-4.039c1.312-3.09,1.487-6.778,1.487-6.778s9.565-4.463,13.399-2.615
	c1.395,0.671,4.309,3.977,5.137,6.581c0.867,2.718-4.299,6.335-5.383,9.25C222.281,143.102,223.903,149.744,221.341,151.616"/>
<path fill="none" stroke="#FFFFFF" stroke-width="0.287" stroke-miterlimit="3.864" d="M221.341,151.616
	c-3.699,1.259-5.633,3.016-9.454-2.739c-3.834-5.764-6.283-11.097-6.283-11.097s1.799-0.949,3.111-4.039
	c1.312-3.09,1.487-6.778,1.487-6.778s9.565-4.463,13.399-2.615c1.395,0.671,4.309,3.977,5.137,6.581
	c0.867,2.718-4.299,6.335-5.383,9.25C222.281,143.102,223.903,149.744,221.341,151.616z"/>
<path fill-rule="evenodd" clip-rule="evenodd" fill="#FFFFFF" d="M222.371,97.587c7.161,4.34,9.033,7.595,9.838,11.645
	c0.961,4.824,0.021,10.166-2.541,9.9c-2.821-0.29-0.083-1.178-1.229-5.653c-1.146-4.475-0.61-3.74-3.153-5.032
	c-2.53-1.292-3.956-0.319-6.715-2.056c-3.802-2.399-2.159-2.923-4.329-5.858c-1.995-2.697-4.341-4.041-6.614-3.596
	c-2.281,0.433-7.137,4.132-7.137,4.132s-1.066-4.206,1.868-6.364c2.935-2.158,2.812-3.678,8.216-2.665
	C217.671,93.36,215.213,93.258,222.371,97.587"/>
<path fill="none" stroke="#FFFFFF" stroke-width="0.287" stroke-miterlimit="3.864" d="M222.371,97.587
	c7.161,4.34,9.033,7.595,9.838,11.645c0.961,4.824,0.021,10.166-2.541,9.9c-2.821-0.29-0.083-1.178-1.229-5.653
	c-1.146-4.475-0.61-3.74-3.153-5.032c-2.53-1.292-3.956-0.319-6.715-2.056c-3.802-2.399-2.159-2.923-4.329-5.858
	c-1.995-2.697-4.341-4.041-6.614-3.596c-2.281,0.433-7.137,4.132-7.137,4.132s-1.066-4.206,1.868-6.364
	c2.935-2.158,2.812-3.678,8.216-2.665C217.671,93.36,215.213,93.258,222.371,97.587z"/>
<path fill-rule="evenodd" clip-rule="evenodd" fill="#FFFFFF" d="M226.618,113.467c0.064,3.916,1.137,6.294-5.526,8.154
	c-6.654,1.86-12.492,2.543-12.492,2.543s-0.352-2.007-2.882-4.206c-2.533-2.212-5.984-3.515-5.984-3.515s-1.28-10.477,1.652-13.543
	c1.075-1.128,5.117-2.885,7.855-2.865c2.851,0.021,4.689,6.046,7.129,7.979C218.818,109.943,225.637,110.45,226.618,113.467"/>
<path fill="none" stroke="#FFFFFF" stroke-width="0.287" stroke-miterlimit="3.864" d="M226.618,113.467
	c0,3.916,1.137,6.294-5.526,8.154c-6.654,1.86-12.492,2.543-12.492,2.543s-0.352-2.007-2.882-4.206
	c-2.533-2.212-5.984-3.515-5.984-3.515s-1.28-10.477,1.652-13.543c1.075-1.128,5.117-2.885,7.855-2.865
	c2.851,0.021,4.689,6.046,7.129,7.979C218.818,109.943,225.637,110.45,226.618,113.467z"/>
<path fill-rule="evenodd" clip-rule="evenodd" fill="#FFFFFF" d="M232.459,120.567c0,0,1.115-0.642,2.932-3.38
	c2.059-3.079,1.209-4.399,1.209-4.399s0.867,1.725,2.883,3.74c2.015,2.015,4.568,2.273,4.568,2.273s-2.264,1.177-4.287,2.624
	c-2.016,1.435-0.858,5.176-0.858,5.176s-1.345-2.253-2.779-3.978C234.69,120.886,232.459,120.567,232.459,120.567"/>
<path fill="none" stroke="#FFFFFF" stroke-width="0.287" stroke-miterlimit="3.864" d="M232.459,120.567c0,0,1.115-0.642,2.932-3.38
	c2.059-3.079,1.209-4.399,1.209-4.399s0.867,1.725,2.883,3.74c2.015,2.015,4.568,2.273,4.568,2.273s-2.264,1.177-4.287,2.624
	c-2.016,1.435-0.858,5.176-0.858,5.176s-1.345-2.253-2.779-3.978C234.69,120.886,232.459,120.567,232.459,120.567z"/>
<path fill-rule="evenodd" clip-rule="evenodd" fill="#FFFFFF" d="M216.247,159.427c0,0,1.342,1.529,4.628,1.582
	c2.779,0.05,4.783-0.993,4.783-0.993s-1.271-0.311-1.374,2.542s0.548,6.716,0.548,6.716s-1.975-1.86-4.402-2.346
	c-2.428-0.495-6.168,1.169-6.168,1.169s1.766-1.468,3.049-4.154C218.271,161.917,216.244,159.427,216.247,159.427"/>
<path fill="none" stroke="#FFFFFF" stroke-width="0.287" stroke-miterlimit="3.864" d="M216.247,159.427
	c0,0,1.342,1.529,4.628,1.582c2.779,0.05,4.783-0.993,4.783-0.993s-1.374-0.311-1.374,2.542s0.548,6.716,0.548,6.716
	s-1.975-1.86-4.402-2.346c-2.428-0.495-6.168,1.169-6.168,1.169s1.766-1.468,3.049-4.154
	C218.271,161.917,216.247,159.427,216.247,159.427z"/>
<path fill-rule="evenodd" clip-rule="evenodd" fill="#FFFFFF" d="M167.001,155.666c0,0,1.345,1.611,4.631,1.591
	c2.436-0.009,3.925-2.15,3.925-2.15s-1.632,1.757-1.725,4.61c-0.103,2.85,1.725,4.607,1.725,4.607s-1.787-1.209-3.834-1.209
	c-2.478,0-5.384,2.357-5.384,2.357s1.573-2.48,1.86-4.712C168.48,158.528,167.001,155.666,167.001,155.666"/>
<path fill="none" stroke="#FFFFFF" stroke-width="0.287" stroke-miterlimit="3.864" d="M167.001,155.666
	c0,0,1.345,1.611,4.631,1.591c2.436-0.009,3.925-2.15,3.925-2.15s-1.725,1.757-1.725,4.61c0,2.85,1.725,4.607,1.725,4.607
	s-1.787-1.209-3.834-1.209c-2.478,0-5.384,2.357-5.384,2.357s1.573-2.48,1.86-4.712C168.48,158.528,167.001,155.666,167.001,155.666
	z"/>
<path fill-rule="evenodd" clip-rule="evenodd" fill="#FFFFFF" d="M163.167,107.144c0,0-0.547,0.673-0.609,3.96
	c-0.061,3.283,2.273,4.059,2.273,4.059s-0.744-0.765-3.679,1.002c-2.437,1.467-3.221,3.523-3.221,3.523s0.589-3.523-0.302-5.29
	c-1.105-2.21-2.633-4.103-2.633-4.103s2.22-1.291,4.472-1.32C161.712,108.942,163.167,107.144,163.167,107.144"/>
<path fill="none" stroke="#FFFFFF" stroke-width="0.287" stroke-miterlimit="3.864" d="M163.167,107.144c0,0-0.609,0.673-0.609,3.96
	c0,3.283,2.273,4.059,2.273,4.059s-0.744-0.765-3.679,1.002c-2.437,1.467-3.221,3.523-3.221,3.523s0.589-3.523-0.302-5.29
	c-1.105-2.21-2.633-4.103-2.633-4.103s2.22-1.291,4.472-1.32C161.712,108.942,163.167,107.144,163.167,107.144z"/>
<path fill-rule="evenodd" clip-rule="evenodd" fill="#FFFFFF" d="M239.764,263.082c4.606,0.288,7.201,3.173,5.764,10.375
	c-1.447,7.19-5.188,9.495-6.332,17.564c-1.157,8.057-1.096,6.324-2.596,11.797c-1.725,6.336,0.858,14.859-5.187,15.263
	c-4.317,0.29-5.755-5.466-5.466-10.941c0.32-6.045,0.29-6.622,2.883-13.244c3.421-8.754,6.613-9.786,5.755-18.426
	C233.718,266.832,236.023,263.082,239.764,263.082"/>
<path fill-rule="evenodd" clip-rule="evenodd" fill="#FCEE23" d="M243.223,291.021c0.857,3.451,0.857,6.045,0.857,6.045
	s-1.434,1.436-2.583-1.447C240.34,292.746,242.355,287.56,243.223,291.021"/>
<path fill="none" stroke="#FCEE23" stroke-width="0.589" stroke-miterlimit="3.864" d="M243.223,291.021
	c0.857,3.451,0.857,6.045,0.857,6.045s-1.434,1.436-2.583-1.447C240.34,292.746,242.355,287.56,243.223,291.021z"/>
<path fill-rule="evenodd" clip-rule="evenodd" fill="#FCEE23" d="M245.237,288.139c0.58,2.882,2.015,4.316,2.305,7.198
	c0.29,2.874,3.45,6.047,3.74,2.874c0.29-3.159-0.29-4.897-1.725-7.19C248.122,288.717,244.66,285.253,245.237,288.139"/>
<path fill="none" stroke="#FCEE23" stroke-width="0.589" stroke-miterlimit="3.864" d="M245.237,288.139
	c0.58,2.882,2.015,4.316,2.305,7.198c0.29,2.874,3.45,6.047,3.74,2.874c0.29-3.159-0.29-4.897-1.725-7.19
	C248.122,288.717,244.66,285.253,245.237,288.139z"/>
<path fill-rule="evenodd" clip-rule="evenodd" fill="#FCEE23" d="M252.439,287.27c0,2.014-0.287,0.869,0,3.461
	c0.281,2.583,0.507,2.129,1.725,5.175c1.148,2.885,7.202,6.336,4.9,2.016C256.76,293.604,252.439,285.253,252.439,287.27"/>
<path fill="none" stroke="#FCEE23" stroke-width="0.589" stroke-miterlimit="3.864" d="M252.439,287.27c0,2.014-0.287,0.869,0,3.461
	c0.281,2.583,0.507,2.129,1.725,5.175c1.148,2.885,7.202,6.336,4.9,2.016C256.76,293.604,252.439,285.253,252.439,287.27z"/>
<path fill-rule="evenodd" clip-rule="evenodd" fill="#FCEE23" d="M258.774,287.27c3.74,2.594,4.03,4.896,4.886,7.202
	c0.869,2.304,2.026,4.318,0.869,4.605c-1.147,0.291-2.015,0.291-3.74-3.459C259.064,291.879,255.603,286.411,258.774,287.27"/>
<path fill="none" stroke="#FCEE23" stroke-width="0.589" stroke-miterlimit="3.864" d="M258.774,287.27
	c3.74,2.594,4.03,4.896,4.886,7.202c0.869,2.304,2.026,4.318,0.869,4.605c-1.147,0.291-2.015,0.291-3.74-3.459
	C259.064,291.879,255.603,286.411,258.774,287.27z"/>
<path fill-rule="evenodd" clip-rule="evenodd" fill="#FCEE23" d="M264.24,287.85c0,0,1.725,0.867,3.461,3.171
	c1.726,2.293,3.688,5.693,2.306,6.9c-2.306,2.016-1.447,0.29-3.752-3.739c-2.306-4.031-3.163-5.188-3.163-6.332
	C263.092,286.165,264.24,287.85,264.24,287.85"/>
<path fill="none" stroke="#FCEE23" stroke-width="0.589" stroke-miterlimit="3.864" d="M264.24,287.85c0,0,1.725,0.867,3.461,3.171
	c1.726,2.293,3.688,5.693,2.306,6.9c-2.306,2.016-1.447,0.29-3.752-3.739c-2.306-4.031-3.163-5.188-3.163-6.332
	C263.092,286.165,264.24,287.85,264.24,287.85z"/>
<path fill-rule="evenodd" clip-rule="evenodd" fill="#FCEE23" d="M269.717,287.56c-1.447,0.866,1.436,3.74,2.87,6.335
	c1.447,2.591,1.447,4.896,2.595,3.459c1.157-1.448,2.016-3.172-0.289-5.475C272.59,289.574,270.574,285.253,269.717,287.56"/>
<path fill="none" stroke="#FCEE23" stroke-width="0.589" stroke-miterlimit="3.864" d="M269.717,287.56
	c-1.447,0.866,1.436,3.74,2.87,6.335c1.447,2.591,1.447,4.896,2.595,3.459c1.157-1.448,2.016-3.172-0.289-5.475
	C272.59,289.574,270.574,285.253,269.717,287.56z"/>
<path fill-rule="evenodd" clip-rule="evenodd" fill="#FCEE23" d="M277.487,287.56c0,0-2.886-1.437-0.58,2.014
	c2.305,3.462,4.606,3.462,4.606,3.462s1.447-0.29,0-2.595C280.079,288.139,277.487,287.56,277.487,287.56"/>
<path fill="none" stroke="#FCEE23" stroke-width="0.589" stroke-miterlimit="3.864" d="M277.487,287.56c0,0-2.886-1.437-0.58,2.014
	c2.305,3.462,4.606,3.462,4.606,3.462s1.447-0.29,0-2.595C280.079,288.139,277.487,287.56,277.487,287.56z"/>
<path fill-rule="evenodd" clip-rule="evenodd" fill="#FFFFFF" d="M163.179,263.66c-4.61,0.289-7.202,3.172-5.767,10.365
	c1.447,7.199,5.187,9.504,6.335,17.564c1.157,8.068,1.105,6.332,2.592,11.809c1.725,6.335-0.855,14.858,5.187,15.263
	c4.321,0.287,5.755-5.477,5.465-10.941c-0.307-6.046-0.278-6.625-2.87-13.247c-3.43-8.752-6.625-9.794-5.767-18.436
	C169.225,267.399,166.919,263.66,163.179,263.66"/>
<path fill-rule="evenodd" clip-rule="evenodd" fill="#FFFFFF" d="M296.196,153.382l-36.276,19.579c0,0-4.203,34.883-20.725,54.711
	c-20.16,24.187-23.61,27.06-35.132,35.12c-11.52,8.068-31.68,20.736-31.68,20.736l4.607,11.523c0,0,60.602-30.917,82.352-52.987
	C299.082,201.758,296.196,153.382,296.196,153.382"/>
<path fill-rule="evenodd" clip-rule="evenodd" fill="#FCEE23" d="M159.717,291.589c-0.858,3.463-0.858,6.046-0.858,6.046
	s1.438,1.442,2.595-1.439C162.599,293.314,160.584,288.139,159.717,291.589"/>
<path fill="none" stroke="#FCEE23" stroke-width="0.589" stroke-miterlimit="3.864" d="M159.717,291.589
	c-0.858,3.463-0.858,6.046-0.858,6.046s1.438,1.442,2.595-1.439C162.599,293.314,160.584,288.139,159.717,291.589z"/>
<path fill-rule="evenodd" clip-rule="evenodd" fill="#FCEE23" d="M157.702,288.717c-0.568,2.872-2.015,4.318-2.305,7.188
	c-0.287,2.885-3.45,6.046-3.74,2.885c-0.287-3.172,0.29-4.896,1.725-7.201C154.829,289.284,158.282,285.833,157.702,288.717"/>
<path fill="none" stroke="#FCEE23" stroke-width="0.589" stroke-miterlimit="3.864" d="M157.702,288.717
	c-0.568,2.872-2.015,4.318-2.305,7.188c-0.287,2.885-3.45,6.046-3.74,2.885c-0.287-3.172,0.29-4.896,1.725-7.201
	C154.829,289.284,158.282,285.833,157.702,288.717z"/>
<path fill-rule="evenodd" clip-rule="evenodd" fill="#FCEE23" d="M150.512,287.85c0,2.014,0.278,0.867,0,3.45
	c-0.29,2.592-0.519,2.138-1.737,5.186c-1.145,2.883-7.191,6.332-4.888,2.016C146.191,294.182,150.512,285.833,150.512,287.85"/>
<path fill="none" stroke="#FCEE23" stroke-width="0.589" stroke-miterlimit="3.864" d="M150.512,287.85c0,2.014,0.278,0.867,0,3.45
	c-0.29,2.592-0.519,2.138-1.737,5.186c-1.145,2.883-7.191,6.332-4.888,2.016C146.191,294.182,150.512,285.833,150.512,287.85z"/>
<path fill-rule="evenodd" clip-rule="evenodd" fill="#FCEE23" d="M144.177,287.85c-3.749,2.591-4.039,4.896-4.898,7.202
	c-0.866,2.302-2.014,4.316-0.866,4.605c1.156,0.279,2.015,0.279,3.739-3.462C143.887,292.456,147.34,286.979,144.177,287.85"/>
<path fill="none" stroke="#FCEE23" stroke-width="0.589" stroke-miterlimit="3.864" d="M144.177,287.85
	c-3.749,2.591-4.039,4.896-4.898,7.202c-0.866,2.302-2.014,4.316-0.866,4.605c1.156,0.279,2.015,0.279,3.739-3.462
	C143.887,292.456,147.34,286.979,144.177,287.85z"/>
<path fill-rule="evenodd" clip-rule="evenodd" fill="#FCEE23" d="M138.699,288.426c0,0-1.724,0.857-3.45,3.163
	c-1.733,2.303-3.699,5.702-2.305,6.912c2.305,2.016,1.438,0.289,3.744-3.739c2.301-4.031,3.16-5.188,3.16-6.336
	C139.848,286.742,138.699,288.426,138.699,288.426"/>
<path fill="none" stroke="#FCEE23" stroke-width="0.589" stroke-miterlimit="3.864" d="M138.699,288.426c0,0-1.724,0.857-3.45,3.163
	c-1.733,2.303-3.699,5.702-2.305,6.912c2.305,2.016,1.438,0.289,3.744-3.739c2.301-4.031,3.16-5.188,3.16-6.336
	C139.848,286.742,138.699,288.426,138.699,288.426z"/>
<path fill-rule="evenodd" clip-rule="evenodd" fill="#FCEE23" d="M133.234,288.139c1.438,0.854-1.447,3.74-2.881,6.333
	c-1.436,2.594-1.436,4.896-2.593,3.449c-1.148-1.436-2.015-3.159,0.287-5.466C130.353,290.151,132.367,285.833,133.234,288.139"/>
<path fill="none" stroke="#FCEE23" stroke-width="0.589" stroke-miterlimit="3.864" d="M133.234,288.139
	c1.438,0.854-1.447,3.74-2.881,6.333c-1.436,2.594-1.436,4.896-2.593,3.449c-1.148-1.436-2.015-3.159,0.287-5.466
	C130.353,290.151,132.367,285.833,133.234,288.139z"/>
<path fill-rule="evenodd" clip-rule="evenodd" fill="#FCEE23" d="M125.455,288.139c0,0,2.882-1.447,0.577,2.012
	c-2.302,3.453-4.607,3.453-4.607,3.453s-1.435-0.29,0-2.583C122.86,288.717,125.455,288.139,125.455,288.139"/>
<path fill="none" stroke="#FCEE23" stroke-width="0.589" stroke-miterlimit="3.864" d="M125.455,288.139
	c0,0,2.882-1.447,0.577,2.012c-2.302,3.453-4.607,3.453-4.607,3.453s-1.435-0.29,0-2.583
	C122.86,288.717,125.455,288.139,125.455,288.139z"/>
<path fill-rule="evenodd" clip-rule="evenodd" fill="#FFFFFF" d="M155.854,362.975l0.96-4.484c2.098,0.352,3.574,0.527,4.453,0.519
	c1.385-0.013,2.583-0.372,3.605-1.075c0.694-0.478,1.303-1.189,1.81-2.129c0.287-0.561,0.474-0.992,0.536-1.28l5.477,1.165
	l-7.129,33.498l-6.736-1.436l4.905-23.103L155.854,362.975"/>
<path fill-rule="evenodd" clip-rule="evenodd" fill="#FFFFFF" d="M180.879,385.258c0.817,0.98,1.995,1.528,3.536,1.643
	c1.537,0.103,2.768-0.27,3.698-1.136c0.95-0.869,1.477-2.142,1.591-3.826c0.123-1.745-0.228-3.085-1.063-4.046
	c-0.817-0.974-1.974-1.509-3.483-1.623c-1.508-0.106-2.738,0.266-3.699,1.116c-0.952,0.835-1.479,2.126-1.602,3.862
	C179.743,382.933,180.085,384.266,180.879,385.258 M174.515,376.094c0.981-1.488,2.346-2.574,4.083-3.234
	c-1.573-1.221-2.563-2.48-2.976-3.793c-0.393-1.323-0.559-2.53-0.477-3.646c0.167-2.491,1.251-4.536,3.245-6.147
	c1.994-1.623,4.692-2.325,8.101-2.087c3.409,0.235,5.981,1.299,7.73,3.191c1.745,1.881,2.539,4.061,2.363,6.54
	c-0.082,1.115-0.413,2.293-1.011,3.544c-0.568,1.238-1.716,2.272-3.429,3.1c1.611,1.065,2.788,2.397,3.532,4.021
	c0.735,1.61,1.034,3.377,0.908,5.289c-0.205,2.873-1.444,5.249-3.717,7.129c-2.263,1.86-5.301,2.656-9.123,2.388
	c-3.813-0.258-6.634-1.468-8.465-3.617c-1.819-2.159-2.624-4.681-2.427-7.551C172.986,379.294,173.545,377.59,174.515,376.094z
	 M182.42,369.738c0.712,0.838,1.746,1.303,3.099,1.396c1.365,0.094,2.439-0.218,3.233-0.949c0.809-0.736,1.263-1.727,1.345-2.967
	c0.093-1.354-0.205-2.429-0.909-3.235c-0.682-0.825-1.704-1.279-3.081-1.373c-1.341-0.093-2.437,0.217-3.253,0.929
	c-0.806,0.702-1.26,1.729-1.354,3.081C181.406,367.857,181.717,368.9,182.42,369.738z"/>
<path fill-rule="evenodd" clip-rule="evenodd" fill="#FFFFFF" d="M208.346,385.971c0.94,0.868,2.18,1.25,3.72,1.135
	c1.541-0.103,2.706-0.65,3.513-1.644c0.805-0.98,1.156-2.321,1.045-3.998c-0.126-1.744-0.662-3.036-1.623-3.861
	c-0.939-0.848-2.17-1.219-3.678-1.117c-1.509,0.103-2.678,0.642-3.504,1.612c-0.825,0.96-1.168,2.313-1.042,4.05
	C206.888,383.832,207.414,385.104,208.346,385.971 M200.76,377.787c0.765-1.61,1.966-2.871,3.598-3.781
	c-1.726-0.981-2.882-2.086-3.482-3.326c-0.578-1.251-0.899-2.438-0.981-3.554c-0.176-2.48,0.62-4.66,2.366-6.53
	c1.746-1.894,4.32-2.956,7.729-3.194c3.409-0.237,6.106,0.454,8.099,2.078c1.994,1.622,3.069,3.667,3.245,6.146
	c0.085,1.116-0.083,2.335-0.495,3.658c-0.404,1.3-1.395,2.489-2.976,3.544c1.745,0.826,3.099,1.983,4.06,3.483
	c0.951,1.497,1.499,3.201,1.634,5.114c0.196,2.882-0.694,5.402-2.688,7.572c-1.982,2.159-4.886,3.381-8.699,3.647
	c-3.813,0.257-6.777-0.536-8.886-2.416c-2.097-1.881-3.254-4.269-3.45-7.142C199.697,381.176,200.007,379.409,200.76,377.787z
	 M207.705,370.389c0.816,0.734,1.912,1.054,3.254,0.961c1.373-0.104,2.398-0.569,3.081-1.404c0.7-0.838,1.001-1.872,0.919-3.122
	c-0.094-1.342-0.547-2.375-1.355-3.078c-0.794-0.712-1.869-1.021-3.233-0.929c-1.354,0.091-2.388,0.557-3.099,1.374
	c-0.703,0.805-1.014,1.889-0.908,3.243C206.445,368.675,206.888,369.656,207.705,370.389z"/>
<path fill-rule="evenodd" clip-rule="evenodd" fill="#FFFFFF" d="M225.834,359.647c1.613-2.673,4.063-4.37,7.377-5.073
	c5.094-1.083,9.071,0.435,11.924,4.537c1.623,2.335,2.882,5.58,3.772,9.754c0.858,4.051,1.063,7.541,0.598,10.478
	c-0.867,5.578-3.937,8.927-9.206,10.043c-2.51,0.538-4.929,0.276-7.243-0.774c-2.325-1.075-3.925-2.996-4.823-5.787l6.561-1.394
	c0.36,0.948,0.949,1.664,1.758,2.138c0.805,0.474,1.774,0.588,2.902,0.351c2.17-0.466,3.441-1.993,3.801-4.576
	c0.197-1.428,0.082-3.419-0.33-5.993c-0.442,0.887-0.961,1.602-1.55,2.138c-1.075,1.005-2.511,1.696-4.32,2.076
	c-2.653,0.568-5.216,0.156-7.677-1.239c-2.448-1.405-4.051-3.842-4.782-7.315C223.83,365.422,224.243,362.304,225.834,359.647
	 M239.752,370.569c1.291-1.271,1.684-3.09,1.188-5.444c-0.404-1.893-1.177-3.295-2.305-4.215c-1.116-0.92-2.437-1.222-3.978-0.898
	c-1.125,0.245-2.023,0.764-2.686,1.568c-1.055,1.251-1.333,3.06-0.829,5.416c0.425,1.983,1.14,3.39,2.149,4.225
	c1.025,0.816,2.379,1.033,4.063,0.682C238.264,371.706,239.061,371.261,239.752,370.569z"/>
<path fill-rule="evenodd" clip-rule="evenodd" fill="#FFFFFF" d="M194.539,129.392c0-2.306,1.569-4.165,3.511-4.165
	c1.942,0,3.514,1.859,3.514,4.165c0,2.302-1.572,4.173-3.514,4.173C196.108,133.565,194.539,131.694,194.539,129.392"/>
<path fill="none" stroke="#E8E7E7" stroke-width="0.876" stroke-miterlimit="3.864" d="M194.539,129.392
	c0-2.306,1.569-4.165,3.511-4.165c1.942,0,3.514,1.859,3.514,4.165c0,2.302-1.572,4.173-3.514,4.173
	C196.108,133.565,194.539,131.694,194.539,129.392z"/>
<path fill="none" stroke="#211E1F" stroke-width="1.754" stroke-miterlimit="3.864" d="M196.738,131.591
	c0-2.305,1.57-4.174,3.512-4.174c1.933,0,3.515,1.869,3.515,4.174s-1.582,4.174-3.515,4.174
	C198.308,135.765,196.738,133.896,196.738,131.591z"/>
<path fill="none" stroke="#211E1F" stroke-width="1.754" stroke-miterlimit="3.864" d="M191.902,131.146
	c0-2.302,1.571-4.162,3.515-4.162c1.942,0,3.512,1.86,3.512,4.162c0,2.305-1.57,4.176-3.512,4.176
	C193.473,135.322,191.902,133.451,191.902,131.146z"/>
<path fill="none" stroke="#211E1F" stroke-width="1.754" stroke-miterlimit="3.864" d="M192.348,126.755
	c0-2.304,1.569-4.164,3.511-4.164c1.933,0,3.515,1.86,3.515,4.164c0,2.306-1.582,4.174-3.515,4.174
	C193.917,130.929,192.348,129.061,192.348,126.755z"/>
<path fill="none" stroke="#211E1F" stroke-width="1.754" stroke-miterlimit="3.864" d="M196.738,126.322
	c0-2.305,1.57-4.174,3.512-4.174c1.933,0,3.515,1.869,3.515,4.174s-1.582,4.174-3.515,4.174
	C198.308,130.496,196.738,128.627,196.738,126.322z"/>
<path fill-rule="evenodd" clip-rule="evenodd" fill="#FFFFFF" d="M106.743,152.805l36.277,19.579c0,0,4.206,34.884,20.727,54.709
	c20.16,24.188,23.619,27.062,35.129,35.132c11.522,8.06,31.679,20.727,31.679,20.727l-4.607,11.521c0,0-60.597-30.915-82.347-52.984
	C103.86,201.181,106.743,152.805,106.743,152.805"/>
<path fill="none" stroke="#211E1F" stroke-width="0.876" stroke-miterlimit="3.864" d="M106.743,152.805l36.277,19.579
	c0,0,4.206,34.884,20.727,54.709c20.16,24.188,23.619,27.062,35.129,35.132c11.522,8.06,31.679,20.727,31.679,20.727l-4.607,11.521
	c0,0-60.597-30.915-82.347-52.984C103.86,201.181,106.743,152.805,106.743,152.805z"/>
<path fill-rule="evenodd" clip-rule="evenodd" fill="#FFFFFF" d="M35.252,225.253c1.572-0.36,2.718-0.896,3.441-1.61
	c1.324-1.301,1.86-3.377,1.611-6.23c-0.152-1.705-0.454-3.078-0.928-4.111c-0.899-1.964-2.326-2.862-4.288-2.687
	c-1.148,0.103-1.983,0.68-2.531,1.734c-0.518,1.065-0.919,2.688-1.209,4.877l-0.496,3.74c-0.506,3.679-1.168,6.253-2.005,7.721
	c-1.395,2.468-3.802,3.861-7.203,4.161c-3.11,0.269-5.784-0.639-8.037-2.716c-2.251-2.078-3.564-5.301-3.957-9.683
	c-0.322-3.658,0.381-6.85,2.106-9.597c1.705-2.759,4.393-4.362,8.06-4.808l0.61,6.966c-2.068,0.31-3.471,1.344-4.206,3.118
	c-0.474,1.182-0.65,2.604-0.495,4.288c0.155,1.871,0.662,3.327,1.517,4.373c0.85,1.042,1.954,1.508,3.298,1.395
	c1.239-0.115,2.117-0.736,2.633-1.893c0.343-0.744,0.694-2.293,1.034-4.64l0.92-6.106c0.392-2.674,1.063-4.722,1.994-6.147
	c1.456-2.209,3.72-3.46,6.81-3.729c3.172-0.277,5.911,0.711,8.224,2.955c2.305,2.24,3.647,5.567,4.031,9.99
	c0.392,4.517-0.323,8.154-2.15,10.922c-1.84,2.771-4.567,4.32-8.172,4.63L35.252,225.253"/>
<polyline fill-rule="evenodd" clip-rule="evenodd" fill="#FFFFFF" points="43.913,197.842 9.349,193.607 10.228,186.458 
	23.402,188.068 25.066,174.563 11.892,172.953 12.77,165.771 47.322,170.018 46.444,177.188 31.017,175.299 29.366,188.801 
	44.78,190.693 43.913,197.842 "/>
<polyline fill-rule="evenodd" clip-rule="evenodd" fill="#FFFFFF" points="29.365,130.268 23.671,147.782 30.697,150.066 
	35.925,133.99 41.669,135.858 36.452,151.935 44.967,154.706 50.915,136.374 56.867,138.307 48.716,163.396 15.611,152.638 
	23.495,128.357 29.365,130.268 "/>
<polyline fill-rule="evenodd" clip-rule="evenodd" fill="#FFFFFF" points="29.042,116.794 41.006,95.2 46.361,98.167 
	37.896,113.438 44.902,117.322 52.312,103.951 57.601,106.886 50.195,120.248 62.953,127.324 59.45,133.647 29.042,116.794 "/>
<polyline fill-rule="evenodd" clip-rule="evenodd" fill="#FFFFFF" points="47.723,86.252 63.586,67.343 68.275,71.28 57.054,84.65 
	63.191,89.796 73.008,78.089 77.648,81.976 67.821,93.683 79.001,103.063 74.361,108.603 47.723,86.252 "/>
<polyline fill-rule="evenodd" clip-rule="evenodd" fill="#FFFFFF" points="98.911,82.483 93.539,87.318 70.249,61.444 75.62,56.609 
	98.911,82.483 "/>
<polyline fill-rule="evenodd" clip-rule="evenodd" fill="#FFFFFF" points="109.575,39.932 94.128,49.967 98.147,56.165 
	112.334,46.959 115.629,52.032 101.441,61.237 106.318,68.749 122.479,58.252 125.889,63.501 103.767,77.873 84.809,48.675 
	106.216,34.766 109.575,39.932 "/>
<polyline fill-rule="evenodd" clip-rule="evenodd" fill="#FFFFFF" points="117.468,28.639 124.216,25.923 134.909,52.395 
	150.893,45.937 153.238,51.742 130.508,60.918 117.468,28.639 "/>
<path fill-rule="evenodd" clip-rule="evenodd" fill="#FFFFFF" d="M159.067,20.54l4.337,22.298l6.585-1.271
	c3.368-0.662,5.392-2.78,6.074-6.365c0.372-1.965,0.319-4.206-0.175-6.727c-0.671-3.474-1.746-6.034-3.205-7.677
	c-1.447-1.655-3.789-2.17-7.035-1.54L159.067,20.54 M171.134,12.799c2.554,0.322,4.765,1.398,6.666,3.204
	c1.517,1.468,2.686,3.152,3.5,5.041c0.817,1.904,1.406,3.743,1.749,5.538c0.887,4.549,0.723,8.568-0.486,12.079
	c-1.655,4.733-5.053,7.595-10.219,8.597l-14.724,2.864l-6.645-34.172l14.726-2.861C167.827,12.708,169.637,12.615,171.134,12.799z"
	/>
<path fill-rule="evenodd" clip-rule="evenodd" fill="#FFFFFF" d="M209.147,9.565l7.337,0.899l-2.604,21.244
	c-0.302,2.375-0.229,4.144,0.205,5.309c0.63,2.048,2.419,3.246,5.362,3.609c2.923,0.36,4.938-0.372,6.054-2.211
	c0.695-1.026,1.189-2.718,1.479-5.097l2.604-21.243l7.346,0.899l-2.612,21.243c-0.445,3.67-1.377,6.458-2.759,8.371
	c-2.595,3.491-6.871,4.865-12.864,4.133c-5.983-0.736-9.817-3.111-11.501-7.12c-0.888-2.191-1.104-5.123-0.65-8.793L209.147,9.565"
	/>
<polyline fill-rule="evenodd" clip-rule="evenodd" fill="#FFFFFF" points="250.383,15.652 257.597,18.132 262.793,45.626 
	270.697,22.646 277.115,24.848 265.78,57.766 258.897,55.399 253.506,27.388 245.454,50.772 239.049,48.561 250.383,15.652 "/>
<polyline fill-rule="evenodd" clip-rule="evenodd" fill="#FFFFFF" points="277.186,64.388 270.801,60.999 287.146,30.26 
	293.522,33.649 277.186,64.388 "/>
<polyline fill-rule="evenodd" clip-rule="evenodd" fill="#FFFFFF" points="324.756,54.512 321.13,59.503 312.709,53.376 
	295.869,76.561 289.938,72.253 306.778,49.076 298.317,42.929 301.943,37.938 324.756,54.512 "/>
<polyline fill-rule="evenodd" clip-rule="evenodd" fill="#FFFFFF" points="346.269,85.374 333.704,71.901 328.3,76.945 
	339.831,89.31 335.408,93.434 323.877,81.066 317.328,87.172 330.482,101.266 325.893,105.545 307.903,86.244 333.364,62.499 
	350.785,81.171 346.269,85.374 "/>
<path fill-rule="evenodd" clip-rule="evenodd" fill="#FFFFFF" d="M357.264,101.102l-19.477,11.706l3.449,5.744
	c1.767,2.943,4.451,4.124,8.049,3.544c1.975-0.331,4.063-1.146,6.262-2.47c3.037-1.827,5.085-3.708,6.128-5.632
	c1.063-1.93,0.743-4.308-0.961-7.149L357.264,101.102 M368.66,109.792c0.568,2.51,0.318,4.958-0.735,7.354
	c-0.858,1.933-2.044,3.608-3.544,5.023c-1.496,1.414-3.025,2.592-4.599,3.532c-3.966,2.387-7.812,3.617-11.519,3.679
	c-5.012,0.061-8.866-2.15-11.572-6.663l-7.729-12.855l29.839-17.924l7.73,12.851C367.614,106.648,368.329,108.324,368.66,109.792z"
	/>
<polyline fill-rule="evenodd" clip-rule="evenodd" fill="#FFFFFF" points="384.095,144.053 390.066,168.003 384.127,169.479 
	379.9,152.544 372.143,154.478 375.83,169.306 369.972,170.771 366.272,155.944 352.105,159.468 350.36,152.462 384.095,144.053 "/>
<polyline fill-rule="evenodd" clip-rule="evenodd" fill="#FFFFFF" points="362.48,174.183 363.473,181.271 356.499,182.252 
	355.506,175.164 362.48,174.183 "/>
<path fill-rule="evenodd" clip-rule="evenodd" fill="#FFFFFF" d="M388.869,192.717c2.82,2.885,4.186,6.511,4.112,10.892
	c-0.103,5.858-2.097,10.104-5.981,12.741c-2.19,1.456-4.36,2.22-6.543,2.302l0.127-7.272c1.684-0.444,2.955-1.033,3.81-1.758
	c1.541-1.292,2.325-3.245,2.378-5.837c0.041-2.645-0.992-4.754-3.109-6.315c-2.098-1.57-5.094-2.387-9.001-2.449
	c-3.904-0.073-6.851,0.683-8.833,2.253c-1.963,1.593-2.965,3.628-3.006,6.106c-0.043,2.555,0.753,4.516,2.396,5.879
	c0.887,0.756,2.219,1.396,4.01,1.912l-0.126,7.201c-3.782-0.689-6.839-2.354-9.174-4.999c-2.334-2.627-3.462-5.952-3.389-10.002
	c0.082-5.012,1.755-8.918,5.021-11.727c3.274-2.812,7.729-4.166,13.35-4.062C380.984,187.685,385.636,189.401,388.869,192.717"/>
<polyline fill-rule="evenodd" clip-rule="evenodd" fill="#FFFFFF" points="363.184,223.797 362.066,230.865 355.113,229.761 
	356.23,222.693 363.184,223.797 "/>
</svg>
