<?xml version="1.0" encoding="UTF-8" standalone="no"?>
<!-- Created with Inkscape (http://www.inkscape.org/) by Marsupilami -->
<svg
   xmlns:svg="http://www.w3.org/2000/svg"
   xmlns="http://www.w3.org/2000/svg"
   version="1.0"
   width="768"
   height="768"
   viewBox="0 0 56.692162 56.691368"
   id="svg9378">
  <defs
     id="defs9380" />
  <g
     transform="translate(-346.65392,-504.0165)"
     id="layer1">
    <path
       d="M 403.34608,532.36226 C 403.34608,548.0175 390.65531,560.70787 374.99968,560.70787 C 359.3448,560.70787 346.65392,548.0175 346.65392,532.36226 C 346.65392,516.7078 359.3448,504.0165 374.99968,504.0165 C 390.65531,504.0165 403.34608,516.7078 403.34608,532.36226"
       id="path2482"
       style="fill:#ffffff;fill-opacity:1;fill-rule:nonzero;stroke:none" />
    <path
       d="M 374.99948,548.42441 C 366.09866,548.42441 358.88356,541.20905 358.88356,532.30853 C 358.88356,523.40771 366.09866,516.19222 374.99948,516.19222 C 383.90154,516.19222 391.11623,523.40771 391.11623,532.30853 C 391.11623,541.20905 383.90154,548.42441 374.99948,548.42441 z M 374.99948,514.87921 C 365.37383,514.87921 357.57033,522.68252 357.57033,532.30853 C 357.57033,541.93457 365.37383,549.73792 374.99948,549.73792 C 384.62552,549.73792 392.42895,541.93457 392.42895,532.30853 C 392.42895,522.68252 384.62552,514.87921 374.99948,514.87921"
       id="path2484"
       style="fill:#d3d3d3;fill-opacity:1;fill-rule:nonzero;stroke:none" />
    <path
       d="M 28.34375,0.78125 C 13.1466,0.78125002 0.84375,13.08509 0.84375,28.28125 C 0.84375003,43.47768 13.1466,55.8125 28.34375,55.8125 C 43.53928,55.8125 55.875,43.47768 55.875,28.28125 C 55.875,13.08509 43.53928,0.78125 28.34375,0.78125 z M 28.34375,1.8125 C 42.96553,1.8125 54.8125,13.65848 54.8125,28.28125 C 54.812499,42.90394 42.96553,54.78125 28.34375,54.78125 C 13.72059,54.781251 1.875,42.90394 1.875,28.28125 C 1.875,13.65848 13.72059,1.8125 28.34375,1.8125 z M 28.03125,3.03125 C 25.77129,3.11819 24.095079,4.4039001 24.1875,6.8125 C 24.26132,8.74795 25.91407,9.9285297 28.125,9.84375 C 28.97209,9.81208 29.828681,9.5815001 30.65625,9.3125 C 30.63164,9.17067 30.608599,8.6789998 30.59375,8.28125 C 30.5707,7.67405 30.585151,6.8885502 30.625,6.6875 C 30.50113,6.71155 30.30554,6.7322298 29.84375,6.75 C 29.44909,6.76544 29.250391,6.7646499 29.125,6.75 C 29.141,6.92971 29.2117,7.3509397 29.25,8.375 C 29.26135,8.65026 29.273451,8.8786902 29.25,9.03125 C 29.10037,9.14163 28.546,9.2374804 28.21875,9.25 C 26.7381,9.30647 25.838901,8.19547 25.78125,6.6875 C 25.70507,4.69576 26.90085,3.66994 28.09375,3.625 C 28.96893,3.5908 29.57529,3.9470999 30,4.5 L 30.15625,4.5 C 30.20159,4.17548 30.281609,3.8575 30.375,3.53125 C 29.66898,3.19719 29.002569,2.9945299 28.03125,3.03125 z M 21.4375,4.09375 C 21.24092,4.17485 21.022149,4.28047 20.71875,4.375 C 20.41516,4.46935 20.1452,4.5179599 19.9375,4.5625 C 20.24227,5.34297 20.49542,6.0473999 20.8125,7.0625 L 21.1875,8.28125 C 21.50499,9.29555 21.71304,9.9978401 21.90625,10.8125 C 22.10337,10.73105 22.32179,10.62639 22.625,10.53125 C 22.92915,10.4365 23.198009,10.38945 23.40625,10.34375 C 23.1021,9.56405 22.87958,8.8584299 22.5625,7.84375 L 22.15625,6.625 C 21.83918,5.61052 21.63107,4.9082298 21.4375,4.09375 z M 35.84375,4.21875 C 34.3961,6.028 31.988059,8.8275204 31.21875,9.6875 C 31.39731,9.72477 31.57223,9.7342104 31.71875,9.78125 C 31.8649,9.82854 31.983929,9.9033099 32.125,9.96875 C 32.49853,9.40046 32.89911,8.8485597 33.34375,8.3125 C 33.66807,8.40629 33.95969,8.4915603 34.28125,8.59375 C 34.6751,8.72054 35.078009,8.8646102 35.46875,9 C 35.50156,9.68806 35.503871,10.38657 35.5,11.0625 C 35.76214,11.1264 36.024941,11.16773 36.28125,11.25 C 36.53835,11.33186 36.806551,11.45095 37.09375,11.5625 C 36.86829,9.86638 36.68209,6.77908 36.5625,4.46875 C 36.43631,4.44805 36.307048,4.4130802 36.1875,4.375 C 36.06795,4.3369 35.957451,4.2752 35.84375,4.21875 z M 17.15625,5.25 C 17.04879,5.36371 16.960981,5.4779102 16.84375,5.5625 C 16.74316,5.63596 16.594189,5.6939 16.46875,5.75 C 16.76806,6.45893 17.5872,8.8890303 18.125,10.46875 C 17.10833,9.65783 14.69898,8.0817902 14.0625,7.5 C 13.94764,7.61839 13.85177,7.7164 13.71875,7.8125 C 13.58667,7.90825 13.43129,7.9896296 13.28125,8.0625 C 13.58153,8.93616 14.30554,11.28105 14.78125,12.90625 L 14.75,12.9375 C 13.67471,12.07596 12.17749,10.86375 10.90625,9.78125 C 10.71284,9.95724 10.52311,10.12849 10.3125,10.28125 C 10.10229,10.43384 9.8680301,10.57849 9.625,10.71875 C 9.98173,10.96454 13.72075,13.77221 15.03125,14.875 C 15.15275,14.76326 15.27419,14.6592 15.40625,14.5625 C 15.53868,14.4668 15.69959,14.39302 15.84375,14.3125 C 15.38524,12.99185 14.829,10.87279 14.4375,9.5625 L 14.46875,9.5625 C 15.84997,10.485 17.19009,11.41869 18.4375,12.4375 C 18.55936,12.32556 18.679071,12.19025 18.8125,12.09375 C 18.94457,11.99745 19.074801,11.92424 19.21875,11.84375 C 18.48557,9.78423 17.37506,5.9943002 17.15625,5.25 z M 35.28125,5.96875 C 35.34888,6.76839 35.405451,7.5890502 35.4375,8.40625 L 33.75,7.84375 C 34.24976,7.19691 34.743641,6.57436 35.28125,5.96875 z M 41.78125,6.78125 C 41.50879,7.14633 41.18119,7.6376801 40.65625,8.3125 C 39.46612,9.83983 37.864089,11.68728 37.65625,11.875 C 37.78831,11.94122 37.91674,12.0043 38.03125,12.09375 C 38.14492,12.18225 38.239841,12.28886 38.34375,12.40625 C 38.53796,12.11105 38.84857,11.69875 39.78125,10.5 C 40.21983,9.93855 40.703339,9.30014 41.15625,8.75 C 41.37991,10.87456 41.529778,12.94501 41.625,14.96875 C 41.73425,15.017 41.863129,15.07359 41.96875,15.15625 C 42.07598,15.23886 42.161578,15.33316 42.25,15.4375 C 43.80199,13.4452 44.588202,12.45952 46.40625,10.375 C 46.27502,10.30838 46.14449,10.24491 46.03125,10.15625 C 45.91642,10.06695 45.815959,9.9551001 45.71875,9.84375 C 45.50989,10.22236 43.927042,12.24717 43,13.4375 C 42.81116,11.37739 42.6344,9.35461 42.46875,7.3125 C 42.33753,7.24569 42.20737,7.18243 42.09375,7.09375 C 41.97892,7.00562 41.877689,6.8924002 41.78125,6.78125 z M 28.34375,10.625 C 18.59208,10.625 10.6875,18.52962 10.6875,28.28125 C 10.6875,38.03157 18.59208,45.9375 28.34375,45.9375 C 38.09384,45.937501 46,38.03157 46,28.28125 C 45.999998,18.52962 38.09384,10.625 28.34375,10.625 z M 28.34375,11.40625 C 32.9035,11.40625 37.05339,13.1895 40.09375,16.125 L 40.125,40.40625 C 37.08168,43.367021 32.92539,45.1875 28.34375,45.1875 C 23.81195,45.187501 19.6898,43.40393 16.65625,40.5 L 16.65625,16.09375 C 19.689801,13.19146 23.81195,11.40625 28.34375,11.40625 z M 43.5,40.5625 C 43.06309,40.66171 42.416519,41.06304 42,41.46875 C 40.74811,42.68745 40.24135,44.38525 41.84375,46.03125 C 42.93922,47.15675 44.585998,47.251779 45.96875,45.90625 C 46.45687,45.42973 46.783871,44.911621 46.9375,44.4375 C 46.79346,44.25426 46.65892,44.04456 46.5625,43.8125 L 46.4375,43.84375 C 46.44271,44.36146 46.193799,44.972069 45.8125,45.34375 C 45.12753,46.01072 43.913438,46.22711 42.71875,45 C 41.48804,43.73688 41.675941,42.496359 42.3125,41.875 C 42.73621,41.4629 43.216839,41.32744 43.875,41.40625 L 43.9375,41.3125 C 43.75825,41.09243 43.612822,40.832961 43.5,40.5625 z M 14.59375,41.15625 C 12.71652,41.91807 9.7053198,43.018061 8.75,43.34375 C 8.86955,43.45016 8.9724403,43.527381 9.0625,43.625 C 9.15332,43.72262 9.2343504,43.827471 9.3125,43.9375 C 9.84039,43.66302 10.3698,43.438411 10.9375,43.21875 C 11.14108,43.42561 11.33217,43.598451 11.53125,43.8125 C 11.77468,44.07535 12.01302,44.356532 12.25,44.625 C 11.97534,45.16032 11.67156,45.675379 11.375,46.1875 C 11.54518,46.34755 11.7482,46.515851 11.90625,46.6875 C 12.06393,46.85753 12.1744,47.042749 12.34375,47.25 C 12.90955,45.86445 14.1199,43.433048 15.03125,41.625 C 14.94606,41.5574 14.85511,41.517512 14.78125,41.4375 C 14.70859,41.35749 14.65548,41.24708 14.59375,41.15625 z M 13.4375,42.25 C 13.14289,42.88616 12.80026,43.52129 12.46875,44.15625 L 11.4375,43.03125 C 12.09491,42.7504 12.76936,42.482859 13.4375,42.25 z M 16.25,43.03125 C 16.20134,43.14847 16.16328,43.241339 16.09375,43.34375 C 16.02381,43.44739 15.93441,43.535769 15.84375,43.625 C 16.29074,43.85625 16.91828,44.194531 17.1875,44.375 C 17.14257,44.48581 16.95866,44.73873 16.78125,45 L 15.625,46.71875 C 15.103,47.49015 14.73233,48.014801 14.28125,48.59375 C 14.44222,48.68297 14.64759,48.784249 14.875,48.9375 C 15.10299,49.09114 15.26501,49.259391 15.40625,49.375 C 15.77491,48.74086 16.134839,48.177628 16.65625,47.40625 L 17.8125,45.6875 C 17.98987,45.42545 18.14078,45.181362 18.21875,45.09375 C 18.49499,45.28099 19.065741,45.731168 19.40625,46.03125 C 19.45528,45.91402 19.492371,45.791139 19.5625,45.6875 C 19.63259,45.58349 19.72189,45.49587 19.8125,45.40625 C 19.21255,45.03096 18.88675,44.82693 18.03125,44.25 C 17.17715,43.67225 16.863029,43.474949 16.25,43.03125 z M 38.96875,44.1875 C 38.82303,44.29912 38.637548,44.446911 38.40625,44.59375 C 38.17299,44.73858 37.975829,44.823442 37.8125,44.90625 C 38.24385,45.5004 38.598669,46.024298 39.09375,46.8125 L 39.6875,47.78125 C 40.18186,48.57025 40.496858,49.1351 40.84375,49.78125 C 40.99018,49.66963 41.17379,49.521841 41.40625,49.375 C 41.63952,49.22857 41.83717,49.11407 42,49.03125 C 41.56869,48.43671 41.214881,47.91401 40.71875,47.125 L 40.125,46.1875 C 39.62996,45.4001 39.315708,44.833661 38.96875,44.1875 z M 37.15625,45.40625 C 36.50568,45.68391 36.18151,45.81741 35.21875,46.1875 C 34.25679,46.55758 33.90216,46.688238 33.1875,46.9375 C 33.25472,47.04432 33.298408,47.13396 33.34375,47.25 C 33.38792,47.36641 33.416768,47.498979 33.4375,47.625 C 33.88294,47.39055 34.510482,47.084391 34.8125,46.96875 C 34.87816,47.06799 34.980438,47.330509 35.09375,47.625 L 35.84375,49.5625 C 36.17824,50.43191 36.409352,51.048629 36.625,51.75 C 36.78987,51.66838 36.994059,51.56718 37.25,51.46875 C 37.50706,51.37031 37.699161,51.300409 37.875,51.25 C 37.56593,50.58504 37.333279,49.994829 37,49.125 L 36.25,47.1875 C 36.1367,46.89263 36.025771,46.616441 36,46.5 C 36.30984,46.38118 36.99876,46.170139 37.4375,46.0625 C 37.36993,45.95527 37.295331,45.867239 37.25,45.75 C 37.20466,45.63358 37.177731,45.529871 37.15625,45.40625 z M 20.09375,45.625 C 19.90719,46.33597 19.7028,46.930259 19.40625,47.8125 L 19.0625,48.875 C 18.76554,49.75801 18.530561,50.385122 18.25,51.0625 C 18.42877,51.10611 18.64583,51.130322 18.90625,51.21875 C 19.16648,51.30637 19.363411,51.424761 19.53125,51.5 C 19.71722,50.79103 19.921389,50.164272 20.21875,49.28125 L 20.375,48.84375 C 20.7827,48.96418 21.16925,49.085921 21.5625,49.21875 C 21.96533,49.35438 22.3509,49.481351 22.75,49.625 L 22.625,50.09375 C 22.32864,50.97759 22.09401,51.571842 21.8125,52.25 C 21.99142,52.29201 22.20873,52.350671 22.46875,52.4375 C 22.72934,52.52511 22.92493,52.613879 23.09375,52.6875 C 23.2793,51.9793 23.483899,51.35216 23.78125,50.46875 L 24.125,49.40625 C 24.42255,48.52323 24.65678,47.92737 24.9375,47.25 C 24.75837,47.2064 24.541479,47.15012 24.28125,47.0625 C 24.02086,46.97487 23.825059,46.886518 23.65625,46.8125 C 23.4732,47.51428 23.263591,48.125779 22.96875,49 C 22.66696,48.90717 22.3404,48.81302 21.78125,48.625 C 21.22175,48.43694 20.859041,48.284339 20.59375,48.1875 C 20.88834,47.3121 21.096959,46.733458 21.375,46.0625 C 21.19623,46.01969 20.97858,45.961831 20.71875,45.875 C 20.45893,45.78738 20.261961,45.698609 20.09375,45.625 z M 32.90625,46.9375 C 32.68859,46.99592 31.99394,47.131159 31.1875,47.25 C 30.70142,47.31922 30.206389,47.34425 29.71875,47.40625 C 29.87426,48.12445 29.991731,48.765661 30.125,49.6875 L 30.28125,50.8125 C 30.41605,51.73433 30.5066,52.361569 30.5625,53.09375 C 30.74143,53.05093 30.940271,53.00897 32.28125,52.8125 C 33.03924,52.70329 33.452691,52.65941 33.75,52.625 C 33.71916,52.52817 33.68241,52.454891 33.65625,52.28125 C 33.63084,52.10879 33.625002,52.024279 33.625,51.90625 C 33.00217,52.07309 32.39897,52.190428 31.78125,52.28125 C 31.71755,51.95398 31.644151,51.596489 31.59375,51.25 C 31.54217,50.89671 31.487521,50.564811 31.4375,50.21875 C 32.06266,50.12712 32.67915,50.041629 33.3125,50 C 33.26249,49.83078 33.263289,49.77631 33.25,49.6875 C 33.23356,49.57946 33.213272,49.50734 33.21875,49.3125 C 32.59867,49.43854 32.08806,49.504571 31.375,49.625 C 31.2863,49.02446 31.2035,48.4503 31.15625,47.84375 C 31.40319,47.80695 32.400611,47.705861 33.03125,47.65625 C 32.99765,47.53581 32.96251,47.485332 32.9375,47.3125 C 32.91522,47.16484 32.90469,47.039131 32.90625,46.9375 z M 25.84375,47.28125 C 25.84611,48.01462 25.810381,48.633059 25.75,49.5625 L 25.6875,50.6875 C 25.62773,51.61734 25.564849,52.272629 25.46875,53 C 25.65123,52.99522 25.866089,52.97569 27.21875,53.0625 C 27.98222,53.11212 28.39039,53.159069 28.6875,53.1875 C 28.67814,53.08666 28.64513,53.017391 28.65625,52.84375 C 28.66798,52.6697 28.69475,52.584781 28.71875,52.46875 C 28.07543,52.50276 27.43474,52.50797 26.8125,52.46875 C 26.83187,52.03666 26.867201,51.395381 26.90625,50.78125 L 26.96875,49.65625 C 27.02952,48.72601 27.08964,48.070318 27.1875,47.34375 C 27.00386,47.34893 26.773299,47.360569 26.5,47.34375 C 26.22573,47.32495 26.02468,47.310061 25.84375,47.28125 z"
       transform="translate(346.65392,504.0165)"
       id="path2486"
       style="fill:#1d59af;fill-opacity:1;fill-rule:nonzero;stroke:none" />
    <path
       d="M 50.5,25.3125 C 50.194274,25.29927 49.937499,25.34375 49.9375,25.34375 C 49.87589,25.3918 49.968751,25.531251 49.96875,25.53125 C 50.5829,26.1015 50.791969,27.485789 50.71875,28.03125 C 50.68594,28.27406 50.702071,28.37614 50.8125,28.53125 C 50.92092,28.68558 51.40848,28.95743 51.5625,29 C 51.71654,29.04337 51.935989,29.062119 52,28.90625 C 52.06642,28.75445 52.19706,28.398869 52.15625,27.5 C 52.11263,26.53552 51.651842,25.84674 51.34375,25.5625 C 51.150705,25.38238 50.805726,25.32573 50.5,25.3125 z M 49.375,25.53125 C 49.28993,25.532867 49.19309,25.56384 49.03125,25.65625 C 48.709971,25.841049 47.28177,26.79722 47.375,28.59375 C 47.374999,28.59375 47.58669,27.3277 49.46875,26.6875 C 49.468751,26.6875 49.98378,26.59952 49.84375,26.21875 C 49.714521,25.85985 49.65372,25.75219 49.5625,25.625 C 49.51849,25.55994 49.46007,25.529633 49.375,25.53125 z M 51.8125,25.65625 C 51.803996,25.681626 51.812501,25.71875 51.8125,25.71875 C 51.8125,25.71875 52.418769,26.44506 52.5,27.4375 C 52.56762,28.30236 52.429362,28.790579 52.34375,28.96875 C 52.25252,29.14105 52.292721,29.314429 52.46875,29.375 C 52.70562,29.46252 53.263371,29.559471 53.375,29.09375 C 53.49423,28.61235 53.681051,26.820019 51.875,25.65625 C 51.832595,25.627245 51.821004,25.630874 51.8125,25.65625 z M 49.90625,26.96875 C 49.847092,26.96346 49.789867,26.971915 49.71875,27 C 49.434681,27.108621 48.48239,27.43262 47.90625,28.1875 C 47.386521,28.864421 47.4399,29.64048 48.03125,30.1875 C 48.031248,30.187499 47.88667,29.35356 50,28.34375 C 50.000001,28.343751 50.3594,28.25925 50.375,27.9375 C 50.389821,27.652081 50.29721,27.37271 50.25,27.21875 C 50.216393,27.103311 50.083725,26.984619 49.90625,26.96875 z M 50.28125,28.71875 C 50.231907,28.720785 50.185915,28.722842 50.125,28.75 C 49.884149,28.859979 49.55909,28.99764 49.40625,29.21875 C 49.25383,29.43914 49.36525,29.6543 49.5625,29.78125 C 49.76295,29.914131 52.41486,31.68916 53.15625,29.6875 C 53.15625,29.687501 52.21488,30.2394 50.53125,28.78125 C 50.53125,28.781249 50.42928,28.712645 50.28125,28.71875 z M 48.90625,29.75 C 48.862044,29.743264 48.798913,29.75662 48.75,29.78125 C 48.518341,29.904681 48.34375,30.21875 48.34375,30.21875 C 48.343752,30.21875 48.15575,30.4156 48.375,30.59375 C 48.51784,30.71173 49.98762,32.23585 52.09375,30.875 C 52.093749,30.875 50.88944,31.32105 49.125,29.875 C 49.125001,29.875 49.038867,29.770208 48.90625,29.75 z"
       transform="translate(346.65392,504.0165)"
       id="path2490"
       style="fill:#9e8b4f;fill-opacity:1;fill-rule:evenodd;stroke:none" />
    <path
       d="M 374.02212,535.62521 L 373.52511,535.50682 C 373.52511,535.50682 374.14539,535.25635 374.46362,535.55877 C 374.46362,535.55877 374.40989,535.03053 374.74025,534.40615 L 374.74025,534.72693 C 374.47067,535.4232 374.63611,536.01786 374.63611,536.01786 C 373.36315,535.11098 372.8755,536.4887 372.8755,536.4887 C 372.44592,538.15787 374.07661,538.31143 374.07661,538.31143 C 373.83474,537.83823 374.07661,537.28497 374.48239,537.28497 C 374.87973,537.28497 375.12159,537.68155 375.12159,538.39033 C 375.12159,539.10887 375.12159,539.97393 374.15474,539.97393 C 373.19435,539.97393 372.71359,539.19017 372.71359,539.19017 C 372.71359,539.19017 372.63328,540.13648 371.3474,540.13648 C 370.06172,540.13648 369.82574,538.31143 370.30791,538.07581 C 370.78847,537.83823 370.94791,538.79083 370.94791,538.79083 C 371.75238,538.31456 372.14996,536.73131 371.27006,536.17573 C 370.38605,535.61972 369.50847,536.65202 369.50847,536.65202 C 369.34242,534.82772 367.09225,534.50851 367.09225,534.50851 L 370.54485,543.38297 C 370.54485,543.38297 372.8755,542.67461 375.75963,542.67461 C 378.65179,542.67461 381.05627,543.46467 381.05627,543.46467 L 384.35005,534.66872 C 382.26401,534.43233 382.18155,536.65202 382.18155,536.65202 C 382.18155,536.65202 381.29853,535.3849 380.25844,536.09563 C 379.21325,536.81106 380.11227,538.52672 380.11227,538.52672 C 380.61556,537.04352 381.62401,538.15198 381.53999,538.94555 C 381.46261,539.73795 380.48389,540.39711 379.78291,540.25331 C 378.99871,540.09821 378.76038,539.55042 378.76038,539.55042 C 378.76038,539.55042 378.44546,540.04778 377.44677,539.92743 C 376.81618,539.85166 376.56531,538.94555 376.56531,538.4732 C 376.56531,537.99687 376.64345,537.19788 377.12993,537.20332 C 377.82539,537.21348 377.57417,538.28095 377.57417,538.28095 C 377.57417,538.28095 379.1558,537.66478 378.57365,536.38867 C 378.01255,535.16296 376.80797,536.09563 376.80797,536.09563 C 376.8529,535.9624 376.88022,535.82993 376.8908,535.70177 L 377.18971,535.70177 L 377.18971,535.46187 C 377.31474,535.40406 377.50151,535.36105 377.74528,535.43376 L 377.17798,532.14365 L 377.11077,531.73771 C 377.11077,531.73771 377.33074,531.19597 378.99051,530.10742 L 379.66024,529.72256 C 380.14784,529.8642 380.79606,529.66767 380.79606,529.66767 C 382.69652,530.08926 382.89893,529.07825 382.89893,529.07825 C 383.30175,529.33575 384.19458,528.98662 384.19458,528.98662 C 385.4054,528.37982 383.82064,527.82892 383.82064,527.82892 C 384.62668,527.902 384.33757,527.42376 384.33757,527.42376 C 386.26929,526.76167 384.05037,525.88 384.05037,525.88 C 386.24001,525.52991 385.1749,524.42728 385.1749,524.42728 C 385.66366,523.69213 384.2231,523.61868 384.2231,523.61868 C 384.33757,521.94582 381.574,522.64402 381.574,522.64402 C 381.80334,522.42307 381.34267,522.24002 381.34267,522.24002 C 379.77043,522.30078 380.59407,521.3021 380.59407,521.3021 C 380.44947,520.47493 379.29763,520.65877 379.29763,520.65877 C 379.61451,520.1985 378.69201,520.18053 378.69201,520.18053 C 379.06674,519.75795 377.58744,519.73235 377.58744,519.73235 C 377.58744,519.25431 377.45381,519.11403 377.45381,519.11403 C 377.30966,518.52541 375.86981,518.48927 375.86981,518.48927 C 375.40878,518.30543 375.12042,518.59886 375.12042,518.59886 C 374.45699,518.56252 374.22725,518.96731 374.22725,518.96731 C 373.04627,519.13241 373.01754,519.6839 373.01754,519.6839 C 372.32677,519.79488 372.32677,520.27196 372.32677,520.27196 C 369.04235,520.58472 370.16643,522.42307 370.16643,522.42307 C 369.84859,522.07436 369.59032,522.42307 369.59032,522.42307 C 367.28583,522.14762 368.2357,524.18817 368.2357,524.18817 C 366.6521,524.13308 366.33483,525.14405 366.33483,525.14405 C 365.95994,526.00836 367.02641,526.4313 367.02641,526.4313 C 365.58641,526.81753 366.62278,527.57123 366.62278,527.57123 C 365.12477,528.49001 366.99787,529.0048 366.99787,529.0048 C 367.40911,530.33188 369.44948,529.81886 370.43565,529.48322 L 372.08743,529.85111 L 372.52386,530.10742 L 374.06216,530.92578 L 374.04224,531.71603 L 373.52606,535.17352 C 373.50694,535.16961 373.91896,535.288 374.02212,535.62521"
       id="path2502"
       style="fill:#d3d3d3;fill-opacity:1;fill-rule:nonzero;stroke:none" />
    <path
       d="M 377.09593,534.78398 L 376.52702,531.49468 L 376.4606,531.08851 C 376.4606,531.08851 376.68174,530.54657 378.34192,529.45822 L 380.7898,528.04926 L 378.77874,528.11276 L 377.29325,529.07296 L 376.76968,529.3293 L 376.1574,529.3293 L 376.94392,527.40871 L 375.37029,527.21762 L 375.1962,528.81725 L 374.67168,529.3293 L 374.49743,529.07296 L 374.0598,527.02481 L 373.18575,527.0883 L 373.53527,528.81725 L 372.92396,529.07296 L 372.48713,528.88095 L 372.92396,529.07296 C 372.92396,529.07296 370.38976,528.04926 369.5153,527.98576 C 368.64225,527.92152 369.4276,528.75316 369.4276,528.75316 L 371.43767,529.20151 L 371.87526,529.45822 L 373.41296,530.27601 L 373.68354,531.15653 L 373.1715,534.66285 C 373.1715,534.66285 373.43405,534.6402 373.62785,534.80623 C 373.62785,534.80623 373.47314,533.3512 375.01296,532.41071 C 375.01296,532.41071 376.56531,533.17066 376.56531,534.84452 C 376.56531,534.84452 376.75832,534.66596 377.09593,534.78398"
       id="path2504"
       style="fill:#9b5c0e;fill-opacity:1;fill-rule:nonzero;stroke:none" />
    <path
       d="M 374.55721,527.84025 C 374.55721,527.84025 373.66402,528.28116 372.94469,527.73066 C 372.94469,527.73066 372.82886,528.50233 371.21613,528.29952 C 371.21613,528.29952 371.21613,528.83346 370.32255,528.63088 C 370.32255,528.63088 366.89533,530.1199 366.34772,528.35502 C 366.34772,528.35502 364.47577,527.84025 365.97379,526.92167 C 365.97379,526.92167 364.93681,526.16756 366.37664,525.7823 C 366.37664,525.7823 365.31074,525.35855 365.68543,524.49526 C 365.68543,524.49526 366.00252,523.48293 367.58631,523.53858 C 367.58631,523.53858 366.63607,521.49782 368.94076,521.7735 C 368.94076,521.7735 369.19943,521.42421 369.51666,521.7735 C 369.51666,521.7735 368.39294,519.93516 371.67697,519.62316 C 371.67697,519.62316 371.67697,519.14548 372.36894,519.03473 C 372.36894,519.03473 372.3969,518.48323 373.57804,518.31776 C 373.57804,518.31776 373.80858,517.91333 374.47067,517.9495 C 374.47067,517.9495 374.75957,517.65586 375.22046,517.83871 C 375.22046,517.83871 376.66025,517.87605 376.80405,518.46447 C 376.80405,518.46447 377.63982,518.48323 377.63982,518.96128 C 377.63982,518.96128 378.41773,519.10818 378.04304,519.53075 C 378.04304,519.53075 378.96515,519.54891 378.64787,520.00862 C 378.64787,520.00862 379.80012,519.82536 379.94548,520.65233 C 379.94548,520.65233 381.12621,520.92757 380.6929,521.59025 C 380.6929,521.59025 381.15514,521.7735 380.92424,521.99443 C 380.92424,521.99443 383.68937,521.29566 383.5741,522.96892 C 383.5741,522.96892 385.0143,523.04256 384.5255,523.77772 C 384.5255,523.77772 385.591,524.88072 383.40178,525.22983 C 383.40178,525.22983 385.61953,526.11306 383.68937,526.77455 C 383.68937,526.77455 383.97772,527.25222 383.17088,527.17797 C 383.17088,527.17797 384.75603,527.73066 383.54517,528.33706 C 383.54517,528.33706 382.65315,528.68595 382.24953,528.42925 C 382.24953,528.42925 382.04756,529.43985 380.14668,529.01866 C 380.14668,529.01866 378.70493,529.45842 378.50407,528.5576 C 378.50407,528.5576 377.26549,529.03587 376.66025,528.17237 C 376.66025,528.17237 375.36405,528.8153 374.55721,527.84025"
       id="path2506"
       style="fill:#006838;fill-opacity:1;fill-rule:nonzero;stroke:none" />
    <path
       d="M 374.55721,527.84025 C 374.55721,527.84025 373.66402,528.28116 372.94469,527.73066 C 372.94469,527.73066 372.82886,528.50233 371.21613,528.29952 C 371.21613,528.29952 371.21613,528.83346 370.32255,528.63088 C 370.32255,528.63088 366.89533,530.1199 366.34772,528.35502 C 366.34772,528.35502 364.47577,527.84025 365.97379,526.92167 C 365.97379,526.92167 364.93681,526.16756 366.37664,525.7823 C 366.37664,525.7823 365.31074,525.35855 365.68543,524.49526 C 365.68543,524.49526 366.00252,523.48293 367.58631,523.53858 C 367.58631,523.53858 366.63607,521.49782 368.94076,521.7735 C 368.94076,521.7735 369.19943,521.42421 369.51666,521.7735 C 369.51666,521.7735 368.39294,519.93516 371.67697,519.62316 C 371.67697,519.62316 371.67697,519.14548 372.36894,519.03473 C 372.36894,519.03473 372.3969,518.48323 373.57804,518.31776 C 373.57804,518.31776 373.80858,517.91333 374.47067,517.9495 C 374.47067,517.9495 374.75957,517.65586 375.22046,517.83871 C 375.22046,517.83871 376.66025,517.87605 376.80405,518.46447 C 376.80405,518.46447 377.63982,518.48323 377.63982,518.96128 C 377.63982,518.96128 378.41773,519.10818 378.04304,519.53075 C 378.04304,519.53075 378.96515,519.54891 378.64787,520.00862 C 378.64787,520.00862 379.80012,519.82536 379.94548,520.65233 C 379.94548,520.65233 381.12621,520.92757 380.6929,521.59025 C 380.6929,521.59025 381.15514,521.7735 380.92424,521.99443 C 380.92424,521.99443 383.68937,521.29566 383.5741,522.96892 C 383.5741,522.96892 385.0143,523.04256 384.5255,523.77772 C 384.5255,523.77772 385.591,524.88072 383.40178,525.22983 C 383.40178,525.22983 385.61953,526.11306 383.68937,526.77455 C 383.68937,526.77455 383.97772,527.25222 383.17088,527.17797 C 383.17088,527.17797 384.75603,527.73066 383.54517,528.33706 C 383.54517,528.33706 382.65315,528.68595 382.24953,528.42925 C 382.24953,528.42925 382.04756,529.43985 380.14668,529.01866 C 380.14668,529.01866 378.70493,529.45842 378.50407,528.5576 C 378.50407,528.5576 377.26549,529.03587 376.66025,528.17237 C 376.66025,528.17237 375.36405,528.8153 374.55721,527.84025 z"
       id="path2508"
       style="fill:none;stroke:#006838;stroke-width:0.10038509;stroke-linecap:butt;stroke-linejoin:miter;stroke-miterlimit:4;stroke-dasharray:none;stroke-opacity:1" />
    <path
       d="M 366.5218,523.72202 C 366.5218,523.72202 365.02318,524.51011 365.98591,525.50411 C 365.98591,525.50411 366.16879,525.66587 366.37664,525.7823 C 366.37664,525.7823 365.59089,525.99271 365.65363,526.41897 C 365.65363,526.41897 365.77217,526.69913 365.97379,526.92167 C 365.97379,526.92167 364.50234,527.72087 366.34772,528.35502 C 366.34772,528.35502 366.82207,530.14102 370.32255,528.59533 C 370.32255,528.59533 371.03777,528.9036 371.21613,528.30032 C 371.21613,528.30032 372.24743,528.37455 372.62544,528.10632 C 372.62544,528.10632 371.63168,528.16926 371.00084,527.88573 C 371.00084,527.88573 370.78006,528.3273 369.88124,528.12237 C 369.88124,528.12237 367.02741,528.2642 367.1368,527.2702 C 367.1368,527.2702 366.41142,526.98611 366.91562,526.1035 C 366.91562,526.1035 366.47451,525.40896 366.74274,525.26772 C 366.74274,525.26772 365.52779,524.77853 366.5218,523.72202"
       id="path2510"
       style="fill:#123d0f;fill-opacity:1;fill-rule:nonzero;stroke:none" />
    <path
       d="M 371.52049,522.71513 C 371.52049,522.71513 370.91098,523.34421 371.18584,523.89491 C 371.18584,523.89491 371.26399,524.54255 371.77523,524.68026 C 371.77523,524.68026 372.77785,524.66115 373.07228,524.91648 C 373.07228,524.91648 373.28873,524.91648 373.22972,525.23081 C 373.22972,525.23081 372.97729,526.18632 373.26704,526.35296 C 373.27932,526.3602 373.29225,526.36605 373.30746,526.36997 C 373.66106,526.46743 373.85799,526.9201 374.54585,526.82221 C 374.54585,526.82221 373.13105,526.09511 373.563,525.4463 C 373.563,525.4463 373.36647,524.75881 373.50398,524.69942 C 373.50398,524.69942 371.38278,524.32648 371.53925,523.9338 C 371.53925,523.9338 371.06766,523.48136 371.52049,522.71513"
       id="path2512"
       style="fill:#123d0f;fill-opacity:1;fill-rule:nonzero;stroke:none" />
    <path
       d="M 377.92893,521.48046 C 377.92893,521.48046 378.2669,522.36545 377.57144,522.72353 C 377.57144,522.72353 376.96113,522.84952 376.85601,523.06053 C 376.85601,523.06053 376.75011,523.56513 376.3715,523.73435 C 376.3715,523.73435 375.99253,523.94492 375.99253,524.00786 C 375.99253,524.00786 376.22383,523.83945 376.45592,523.83945 C 376.45592,523.83945 376.85601,523.31296 377.04512,523.14396 C 377.04512,523.14396 377.46594,522.99705 377.65542,522.99705 C 377.65542,522.99705 378.30871,522.51312 377.92893,521.48046"
       id="path2514"
       style="fill:#123d0f;fill-opacity:1;fill-rule:nonzero;stroke:none" />
    <path
       d="M 379.61492,524.7807 C 379.61492,524.7807 380.12128,524.9917 380.1631,525.20207 C 380.1631,525.20207 380.4147,525.81318 380.28928,526.0234 C 380.28928,526.0234 379.80556,526.50788 379.93099,526.7187 C 379.93099,526.7187 380.05722,527.1817 380.79529,527.07638 C 380.79529,527.07638 381.40596,526.88746 381.42669,527.14008 L 381.4681,527.49797 C 381.4681,527.49797 381.6369,527.07638 381.48998,526.86557 C 381.48998,526.86557 381.13208,526.73998 380.79529,526.8234 C 380.79529,526.8234 380.01541,526.8234 380.4366,526.12866 C 380.4366,526.12866 380.73199,525.43398 380.6679,525.13858 C 380.6679,525.13858 380.47881,524.8866 380.18418,524.84418 C 380.18418,524.84418 378.70961,524.27508 378.81547,524.06527 C 378.81547,524.06527 379.02609,524.5916 379.61492,524.7807"
       id="path2516"
       style="fill:#123d0f;fill-opacity:1;fill-rule:nonzero;stroke:none" />
    <path
       d="M 372.43576,520.4931 C 372.43576,520.4931 373.09709,520.29032 373.35183,520.46748 C 373.35183,520.46748 373.88612,520.69727 373.88612,520.87483 C 373.88612,520.87483 373.78474,521.20596 373.91173,521.43416 L 374.01411,521.86708 L 373.78474,521.53672 C 373.78474,521.53672 373.73356,521.00222 373.60597,520.87483 C 373.60597,520.87483 373.22464,520.62027 373.04627,520.62027 C 372.86851,520.62027 373.02086,520.54467 373.02086,520.54467 C 373.02086,520.54467 372.43576,520.59488 372.33436,520.67166 C 372.33436,520.67166 371.5705,520.59488 371.49432,520.16275 C 371.49432,520.16275 372.08003,520.54467 372.43576,520.4931"
       id="path2518"
       style="fill:#123d0f;fill-opacity:1;fill-rule:nonzero;stroke:none" />
    <path
       d="M 369.48502,521.68871 C 369.48502,521.68871 368.72119,520.39131 370.55345,519.85737 C 370.55345,519.85737 371.47832,519.59207 371.67697,519.62316 C 371.67697,519.62316 371.69126,519.25511 372.36894,519.03473 C 372.36894,519.03473 372.37874,518.55921 373.57804,518.31776 C 373.57804,518.31776 374.57361,518.30543 374.80259,518.71217 L 375.36249,519.09371 C 375.36249,519.09371 376.07419,519.11951 376.15037,519.09371 L 375.33688,519.19568 L 374.7008,518.78875 C 374.7008,518.78875 373.91173,518.48323 373.4028,518.6868 C 373.4028,518.6868 372.79173,518.86533 372.53773,519.11951 C 372.53773,519.11951 372.02902,519.50125 371.92703,519.67901 C 371.92703,519.67901 370.65488,520.03538 370.65488,520.21315 C 370.65488,520.21315 369.58641,520.34053 369.7388,521.51111 L 369.48502,521.68871"
       id="path2520"
       style="fill:#123d0f;fill-opacity:1;fill-rule:nonzero;stroke:none" />
    <path
       d="M 376.66025,528.17237 C 376.66025,528.17237 377.14281,529.01475 378.50407,528.5576 C 378.50407,528.5576 378.7733,529.375 380.14668,529.01787 C 380.14668,529.01787 381.80958,529.47015 382.24953,528.42867 C 382.24953,528.42867 383.81793,528.58945 383.98748,527.82128 C 383.98748,527.82128 384.00977,527.54233 383.17088,527.17797 C 383.17088,527.17797 383.65652,527.23638 383.73235,526.95622 L 383.68937,526.77455 C 383.68937,526.77455 384.64897,526.47196 384.42039,525.96322 C 384.42039,525.96322 383.96167,525.3025 383.3252,525.22572 C 383.3252,525.22572 384.31805,525.88741 384.03789,526.24413 C 384.03789,526.24413 383.63191,526.49832 383.24902,526.52332 C 383.24902,526.52332 383.24902,526.70148 383.02004,526.75267 C 383.02004,526.75267 382.66487,527.36377 382.68988,527.43916 C 382.68988,527.43916 382.84148,528.05006 381.82482,528.02506 C 381.82482,528.02506 381.51927,528.66077 380.32289,528.68595 C 380.32289,528.68595 378.86276,528.5838 378.77874,528.11276 C 378.77874,528.11276 377.98287,528.35598 377.37215,528.20282 C 377.37215,528.20282 377.22135,528.36986 376.66025,528.17237"
       id="path2522"
       style="fill:#123d0f;fill-opacity:1;fill-rule:nonzero;stroke:none" />
    <path
       d="M 369.94237,528.81393 L 371.43767,529.20211 L 373.44325,530.26233 L 373.70171,531.16588 L 373.31097,534.00603 L 374.03968,531.26122 L 373.67259,530.06757 L 373.17366,529.6784 L 373.02086,529.6784 L 371.59571,528.99231 L 369.94237,528.81393"
       id="path2524"
       style="fill:#7a4d15;fill-opacity:1;fill-rule:nonzero;stroke:none" />
    <path
       d="M 372.92396,529.07296 L 373.53527,528.81725 L 373.38836,527.99733 L 373.62942,528.01021 L 373.66907,528.42712 L 373.7234,528.77563 L 373.69683,528.88327 L 372.92396,529.07296"
       id="path2526"
       style="fill:#7a4d15;fill-opacity:1;fill-rule:nonzero;stroke:none" />
    <path
       d="M 376.5962,528.25227 L 375.87102,529.46018 L 376.50161,529.47386 L 376.86462,529.48715 L 377.10609,529.3926 L 377.55695,529.02922 L 377.88048,528.7352 L 377.81914,528.73967 L 377.33854,529.05343 L 376.77904,529.33298 L 376.32657,529.32618 L 376.17929,529.29923 L 376.17538,529.29958 L 376.19333,529.24567 L 376.5962,528.25227"
       id="path2528"
       style="fill:#7a4d15;fill-opacity:1;fill-rule:nonzero;stroke:none" />
    <path
       d="M 375.92924,529.3541 L 375.13819,530.40046 L 374.98524,531.39622 L 375.39374,530.42566 L 375.85265,529.81338 L 376.23594,529.4307"
       id="path2530"
       style="fill:#7a4d15;fill-opacity:1;fill-rule:nonzero;stroke:none" />
    <path
       d="M 369.89588,542.73322 L 366.44307,533.85992 C 366.44307,533.85992 368.69282,534.17795 368.85946,536.00185 C 368.85946,536.00185 369.73644,534.97036 370.62006,535.52633 C 371.50076,536.08116 371.10242,537.66478 370.2989,538.14106 C 370.2989,538.14106 370.13986,537.18847 369.6589,537.42605 C 369.17655,537.66127 369.41256,539.48633 370.69804,539.48633 C 371.98368,539.48633 372.06362,538.37668 372.06362,538.37668 C 372.06362,538.37668 372.54594,539.32417 373.50594,539.32417 C 374.47142,539.32417 374.47142,538.45871 374.47142,537.74136 C 374.47142,537.03138 374.23017,536.63481 373.83414,536.63481 C 373.42705,536.63481 373.18518,537.18847 373.42705,537.66127 C 373.42705,537.66127 371.79732,537.50847 372.22675,535.8397 C 372.22675,535.8397 372.71359,534.46202 373.98791,535.36768 C 373.98791,535.36768 373.58684,533.93766 375.03428,532.91123 C 375.03428,532.91123 376.63837,534.01932 376.15856,535.44663 C 376.15856,535.44663 377.36355,534.514 377.92465,535.73931 C 378.50564,537.0162 376.92476,537.63195 376.92476,537.63195 C 376.92476,537.63195 377.17602,536.56412 376.48052,536.55356 C 375.99329,536.54807 375.91595,537.34751 375.91595,537.82302 C 375.91595,538.29618 376.16677,539.2015 376.79781,539.27727 C 377.79725,539.39842 378.24153,538.45871 378.24153,538.45871 C 378.24153,538.45871 378.34976,539.44723 379.13355,539.60392 C 379.83489,539.74731 380.81245,539.08853 380.89099,538.29618 C 380.9746,537.50222 379.96616,536.39258 379.46372,537.87731 C 379.46372,537.87731 378.56385,536.16048 379.60903,535.44663 C 380.64994,534.73553 381.53179,536.00185 381.53179,536.00185 C 381.53179,536.00185 381.615,533.78335 383.7007,534.01932 L 380.40767,542.81451 C 380.40767,542.81451 378.00199,542.02445 375.11142,542.02445 C 372.22675,542.02445 369.89588,542.73322 369.89588,542.73322"
       id="path2532"
       style="fill:#9e8b4f;fill-opacity:1;fill-rule:nonzero;stroke:none" />
    <path
       d="M 6.21875,25.3125 C 5.9130375,25.32573 5.53687,25.38238 5.34375,25.5625 C 5.0354802,25.84674 4.57538,26.53552 4.53125,27.5 C 4.4908002,28.398869 4.62169,28.75445 4.6875,28.90625 C 4.7517999,29.062119 5.00213,29.04337 5.15625,29 C 5.3106102,28.95743 5.76754,28.68558 5.875,28.53125 C 5.9853401,28.37614 6.03442,28.27406 6,28.03125 C 5.92735,27.485789 6.13601,26.1015 6.75,25.53125 C 6.7500002,25.531251 6.84257,25.3918 6.78125,25.34375 C 6.7812499,25.34375 6.5244625,25.29927 6.21875,25.3125 z M 7.1875,25.53125 C 7.1574173,25.548618 7.1469275,25.59247 7.125,25.625 C 7.03297,25.75219 6.9720999,25.85985 6.84375,26.21875 C 6.70347,26.59952 7.2187498,26.6875 7.21875,26.6875 C 9.1007,27.3277 9.3125004,28.59375 9.3125,28.59375 C 9.40491,26.79722 7.97822,25.841049 7.65625,25.65625 C 7.41448,25.517635 7.277748,25.479147 7.1875,25.53125 z M 4.8125,25.65625 C 3.0077401,26.820019 3.22517,28.61235 3.34375,29.09375 C 3.45491,29.559471 3.98135,29.46252 4.21875,29.375 C 4.3939802,29.314429 4.4338,29.14105 4.34375,28.96875 C 4.2579999,28.790579 4.11967,28.30236 4.1875,27.4375 C 4.2685601,26.44506 4.875,25.71875 4.875,25.71875 C 4.8750001,25.718751 4.89828,25.59824 4.8125,25.65625 z M 6.78125,26.96875 C 6.6037404,26.984619 6.4706199,27.103311 6.4375,27.21875 C 6.39084,27.37271 6.2970598,27.652081 6.3125,27.9375 C 6.32694,28.25925 6.6874998,28.343751 6.6875,28.34375 C 8.80051,29.35356 8.6875001,30.187499 8.6875,30.1875 C 9.2773,29.64048 9.3317402,28.864421 8.8125,28.1875 C 8.23695,27.43262 7.2520198,27.108621 6.96875,27 C 6.8976425,26.971915 6.8404199,26.96346 6.78125,26.96875 z M 6.40625,28.71875 C 6.2585572,28.712645 6.1874999,28.781249 6.1875,28.78125 C 4.50288,30.2394 3.53125,29.687501 3.53125,29.6875 C 4.27307,31.68916 6.9249501,29.914131 7.125,29.78125 C 7.32173,29.6543 7.4350301,29.43914 7.28125,29.21875 C 7.12912,28.99764 6.8348102,28.859979 6.59375,28.75 C 6.532795,28.722842 6.4554809,28.720785 6.40625,28.71875 z M 7.8125,29.75 C 7.6801845,29.770208 7.5625,29.875 7.5625,29.875 C 5.79662,31.32105 4.5937502,30.875 4.59375,30.875 C 6.69877,32.23585 8.1687403,30.71173 8.3125,30.59375 C 8.53131,30.4156 8.3750003,30.21875 8.375,30.21875 C 8.375,30.21875 8.1701498,29.904681 7.9375,29.78125 C 7.8884575,29.75662 7.8566052,29.743264 7.8125,29.75 z"
       transform="translate(346.65392,504.0165)"
       id="path2560"
       style="fill:#9e8b4f;fill-opacity:1;fill-rule:evenodd;stroke:none" />
    <path
       d="M 25.03125,39.8125 C 24.49128,39.91294 24.04526,39.973029 23.53125,40 C 23.57346,40.05586 23.650601,40.174832 23.6875,40.28125 C 23.8739,40.25965 24.18142,40.197102 24.28125,40.1875 L 23.90625,41.4375 C 23.76226,41.92724 23.579889,42.43499 23.5,42.65625 C 23.61915,42.68105 23.75857,42.685141 23.875,42.71875 C 23.99143,42.75315 24.10505,42.800539 24.21875,42.84375 C 24.37407,42.232 24.45523,41.910421 24.59375,41.4375 L 24.65625,41.1875 C 24.78716,40.74057 24.963041,40.220859 25.09375,39.875 L 25.03125,39.8125 z M 32.09375,39.8125 C 31.943647,39.803737 31.77114,39.81962 31.5625,39.875 C 31.03423,40.01488 30.804701,40.33821 30.78125,40.6875 C 30.92389,40.74953 31.04094,40.7946 31.1875,40.875 L 31.25,40.875 C 31.18434,40.64535 31.16632,40.182169 31.5,40.09375 C 31.73053,40.03293 31.996049,40.140072 32.125,40.625 C 32.28052,41.21196 32.077891,41.85603 31.375,42.9375 L 31.40625,43.125 C 31.72857,43.03018 32.050321,42.929361 32.375,42.84375 C 32.71337,42.75412 33.065169,42.674971 33.40625,42.59375 C 33.37576,42.49732 33.338269,42.410519 33.3125,42.3125 C 33.28629,42.21447 33.27149,42.130059 33.25,42.03125 C 32.83426,42.17449 32.3915,42.289431 31.96875,42.40625 L 31.96875,42.375 C 32.78107,41.21631 32.916441,40.766701 32.8125,40.375 C 32.744235,40.117847 32.544059,39.83879 32.09375,39.8125 z M 26.90625,40.1875 C 26.24673,40.11948 25.812501,40.516051 25.75,41.125 C 25.69043,41.70594 26.062019,42.045749 26.53125,42.09375 C 26.87471,42.12896 27.05663,42.009831 27.1875,41.875 L 27.1875,41.90625 C 27.07303,42.79248 26.643471,43.131762 26.28125,43.09375 C 26.06792,43.07215 25.94221,42.96863 25.84375,42.875 L 25.8125,42.90625 C 25.84962,43.00228 25.882799,43.097471 25.90625,43.1875 C 25.97502,43.25032 26.13846,43.300098 26.25,43.3125 C 27.12758,43.40173 27.786101,42.766431 27.90625,41.59375 C 27.99399,40.73752 27.58398,40.25632 26.90625,40.1875 z M 29.25,40.25 C 28.73347,40.29001 28.516249,40.457512 28.375,40.75 C 28.48987,40.84281 28.621851,40.932411 28.71875,41.03125 L 28.78125,41.03125 C 28.79006,40.72597 28.87258,40.459108 29.15625,40.4375 C 29.37467,40.4203 29.562501,40.569429 29.59375,40.96875 C 29.62501,41.37765 29.488369,41.627851 29.125,41.65625 C 29.0832,41.65905 29.046489,41.65745 29,41.65625 L 29.03125,41.875 C 29.10118,41.865 29.17539,41.879811 29.25,41.875 C 29.57549,41.84899 29.78161,42.100299 29.8125,42.5 C 29.84254,42.8897 29.641859,43.164679 29.34375,43.1875 C 29.05072,43.2107 28.876201,42.963959 28.8125,42.6875 L 28.75,42.6875 C 28.67635,42.82715 28.56565,42.98415 28.46875,43.125 C 28.63246,43.30624 28.93466,43.445451 29.4375,43.40625 C 30.0232,43.36103 30.57619,42.94835 30.53125,42.375 C 30.491,41.84728 30.22199,41.717511 29.71875,41.6875 L 29.6875,41.65625 C 30.08212,41.4874 30.30977,41.237078 30.28125,40.875 C 30.25116,40.48049 29.971291,40.193981 29.25,40.25 z M 26.9375,40.40625 C 27.17428,40.43106 27.308611,40.645808 27.25,41.21875 C 27.20038,41.69928 26.98538,41.864552 26.78125,41.84375 C 26.55851,41.82094 26.41425,41.625078 26.46875,41.09375 C 26.51544,40.64004 26.68667,40.38063 26.9375,40.40625 z"
       transform="translate(346.65392,504.0165)"
       id="path2572"
       style="fill:#9e8b4f;fill-opacity:1;fill-rule:nonzero;stroke:none" />
  </g>
</svg>
